M48
INCH
T01C0.011
T02C0.0433
T03C0.11
%
T01
X+034410Y+033582
X+033910Y+033582
X+033910Y+034082
X+034410Y+034082
X+033785Y+034957
X+033160Y+035082
X+033035Y+035207
X+033160Y+035332
X+033035Y+035457
X+032598Y+036457
X+033160Y+036832
X+033160Y+037082
X+033410Y+037082
X+033660Y+037082
X+033660Y+036832
X+033410Y+036832
X+034097Y+036457
X+034910Y+036582
X+035910Y+036582
X+035910Y+035582
X+036910Y+035582
X+036910Y+036582
X+036910Y+037582
X+035910Y+037582
X+034910Y+037582
X+037910Y+037582
X+038910Y+037582
X+038910Y+036582
X+037910Y+036582
X+037910Y+035582
X+038910Y+035582
X+038910Y+034582
X+037910Y+034582
X+036910Y+034582
X+035910Y+034582
X+032785Y+033957
X+032510Y+030582
X+032310Y+030582
X+032310Y+030382
X+032510Y+030382
X+032510Y+030182
X+032310Y+030182
X+032310Y+029982
X+032510Y+029982
X+032110Y+029982
X+032110Y+030182
X+031910Y+030182
X+031910Y+029982
X+031910Y+030382
X+031910Y+030582
X+032110Y+030582
X+032110Y+030382
X+033090Y+028162
X+032310Y+027582
X+032310Y+027282
X+032310Y+026982
X+032010Y+026982
X+032010Y+027282
X+031710Y+027282
X+031710Y+026982
X+031410Y+026982
X+031410Y+027282
X+031410Y+027582
X+031710Y+027582
X+032010Y+027582
X+032630Y+025492
X+033897Y+024906
X+034310Y+023630
X+034287Y+023339
X+035894Y+024681
X+038723Y+021269
X+040910Y+026082
X+040910Y+026582
X+040910Y+027082
X+040910Y+027582
X+041410Y+027582
X+041910Y+027582
X+042410Y+027582
X+042410Y+027082
X+042410Y+026582
X+041910Y+026582
X+041910Y+027082
X+041410Y+027082
X+041410Y+026582
X+041410Y+026082
X+041910Y+026082
X+042410Y+026082
X+041910Y+034582
X+040910Y+034582
X+039910Y+034582
X+040910Y+035582
X+041910Y+035582
X+041910Y+036582
X+041910Y+037582
X+029310Y+028182
X+029310Y+027982
X+029310Y+027782
X+029010Y+027782
X+029010Y+027982
X+029010Y+028182
X+028710Y+028182
X+028710Y+027982
X+028710Y+027782
X+028410Y+027782
X+028410Y+027982
X+028410Y+028182
X+027360Y+028462
X+026490Y+027632
X+026290Y+027492
X+026070Y+027952
X+025910Y+028182
X+025660Y+028372
X+025080Y+028642
X+024770Y+028982
X+023759Y+028402
X+024990Y+027807
X+024810Y+027082
X+024910Y+026882
X+025010Y+026682
X+024810Y+026482
X+024910Y+026282
X+025010Y+026082
X+025310Y+026282
X+025210Y+026482
X+025410Y+026682
X+025310Y+026882
X+025210Y+027082
X+025610Y+027082
X+025710Y+026882
X+025810Y+026682
X+025610Y+026482
X+025710Y+026282
X+025810Y+026082
X+025410Y+026082
X+027310Y+026102
X+027350Y+026702
X+027060Y+027062
X+027472Y+024707
X+027223Y+024644
X+025710Y+024082
X+025410Y+024082
X+025410Y+023782
X+025110Y+023782
X+025110Y+024082
X+024810Y+024082
X+024810Y+023782
X+024510Y+023782
X+024510Y+023482
X+024810Y+023482
X+024910Y+022482
X+024910Y+022182
X+024610Y+022182
X+024610Y+022482
X+024310Y+022482
X+024310Y+022182
X+024310Y+021882
X+024610Y+021882
X+024358Y+020845
X+026972Y+020644
X+027910Y+021182
X+028310Y+021182
X+028710Y+021182
X+028710Y+021582
X+029110Y+021582
X+029510Y+021582
X+029910Y+021582
X+030310Y+021582
X+030310Y+021182
X+029910Y+021182
X+029510Y+021182
X+029110Y+021182
X+028310Y+021582
X+027910Y+021582
X+028847Y+019394
X+028660Y+019269
X+026660Y+017584
X+026660Y+017144
X+025690Y+017432
X+025910Y+017832
X+025559Y+018051
X+024223Y+017832
X+023785Y+017769
X+023852Y+018248
X+026600Y+015672
X+026480Y+015482
X+026340Y+015272
X+026230Y+015062
X+026130Y+014852
X+026060Y+014642
X+025660Y+014707
X+024910Y+014582
X+024910Y+013582
X+024910Y+012582
X+024910Y+011582
X+025910Y+011582
X+025910Y+012582
X+025910Y+013582
X+025910Y+008582
X+026910Y+008582
X+027910Y+008582
X+027910Y+007582
X+027910Y+006582
X+026910Y+006582
X+026910Y+007582
X+025910Y+007582
X+025910Y+006582
X+024910Y+006582
X+024910Y+007582
X+023910Y+007582
X+023910Y+006582
X+023910Y+005582
X+023910Y+004582
X+022910Y+004582
X+021910Y+004582
X+020910Y+004582
X+019910Y+004582
X+018910Y+004582
X+017910Y+004582
X+017910Y+005582
X+016910Y+005582
X+016910Y+004582
X+015910Y+004582
X+015910Y+005582
X+014910Y+005582
X+014910Y+004582
X+013910Y+004582
X+012910Y+004582
X+011910Y+004582
X+010910Y+004582
X+009910Y+005582
X+009910Y+006582
X+009910Y+007582
X+009910Y+008582
X+009910Y+009582
X+009910Y+010582
X+009910Y+011582
X+009910Y+012582
X+009910Y+013582
X+009910Y+014582
X+009910Y+015582
X+011098Y+015832
X+011285Y+014207
X+012910Y+013582
X+012910Y+011582
X+012910Y+010582
X+013910Y+010582
X+013910Y+011582
X+013910Y+009582
X+012910Y+009582
X+012910Y+008582
X+011910Y+008582
X+010910Y+008582
X+010910Y+009582
X+011910Y+009582
X+011910Y+010582
X+010910Y+010582
X+013910Y+007582
X+013910Y+006582
X+013910Y+005582
X+014910Y+006582
X+015910Y+006582
X+016910Y+006582
X+017910Y+006582
X+019910Y+010082
X+020160Y+010082
X+020160Y+010332
X+019910Y+010332
X+019910Y+010582
X+020160Y+010582
X+020410Y+010582
X+020410Y+010332
X+020660Y+010332
X+020660Y+010082
X+020410Y+010082
X+020660Y+010582
X+020660Y+010832
X+020410Y+010832
X+020160Y+010832
X+019910Y+010832
X+022035Y+008832
X+022910Y+008582
X+023910Y+008582
X+024910Y+008582
X+022910Y+007582
X+024910Y+005582
X+024910Y+004582
X+025910Y+004582
X+025910Y+005582
X+026910Y+005582
X+026910Y+004582
X+027910Y+004582
X+027910Y+005582
X+031010Y+008082
X+031010Y+008282
X+031010Y+008482
X+031010Y+008682
X+031310Y+008682
X+031310Y+008482
X+031310Y+008282
X+031310Y+008082
X+031610Y+008082
X+031610Y+008282
X+031610Y+008482
X+031610Y+008682
X+031910Y+008682
X+031910Y+008482
X+031910Y+008282
X+031910Y+008082
X+034610Y+008182
X+034610Y+008482
X+034610Y+008782
X+034610Y+009082
X+034910Y+009082
X+035210Y+009082
X+035510Y+009082
X+035510Y+008782
X+035210Y+008782
X+034910Y+008782
X+034910Y+008482
X+035210Y+008482
X+035210Y+008182
X+035510Y+008182
X+035510Y+008482
X+035810Y+008482
X+035810Y+008782
X+035810Y+009082
X+035810Y+008182
X+034910Y+008182
X+039660Y+010707
X+039598Y+011394
X+040910Y+015082
X+040910Y+015582
X+040910Y+016082
X+041410Y+016082
X+041410Y+015582
X+041410Y+015082
X+041910Y+015082
X+041910Y+015582
X+041910Y+016082
X+033449Y+016692
X+032285Y+014082
X+032097Y+013957
X+032410Y+020207
X+030910Y+022144
X+030210Y+023682
X+030210Y+024082
X+030210Y+024482
X+029810Y+024482
X+029810Y+024082
X+029810Y+023682
X+029410Y+023682
X+029410Y+024082
X+029410Y+024482
X+023000Y+023492
X+022780Y+023712
X+022570Y+023922
X+022720Y+024292
X+022370Y+026972
X+022370Y+027362
X+022720Y+029732
X+019847Y+028269
X+019847Y+026082
X+020160Y+025582
X+020160Y+022332
X+019910Y+022332
X+019660Y+022332
X+019660Y+022082
X+019660Y+021832
X+019660Y+021582
X+019660Y+021332
X+019910Y+021332
X+020160Y+021332
X+020160Y+021582
X+019910Y+021582
X+019910Y+021832
X+020160Y+021832
X+020160Y+022082
X+019910Y+022082
X+019910Y+020082
X+019410Y+020082
X+017410Y+020019
X+017097Y+020019
X+016785Y+020019
X+016473Y+020019
X+016348Y+020207
X+016410Y+021582
X+016910Y+021582
X+016910Y+022082
X+016910Y+022582
X+016410Y+022582
X+016410Y+022082
X+015910Y+022082
X+015910Y+022582
X+015910Y+023082
X+015910Y+023582
X+016410Y+023082
X+016910Y+023082
X+016910Y+023582
X+016910Y+024582
X+015910Y+024582
X+015910Y+025582
X+013910Y+026582
X+012910Y+026582
X+012910Y+027582
X+013910Y+027582
X+013910Y+028582
X+012910Y+028582
X+012910Y+029582
X+011910Y+029582
X+011910Y+030582
X+010910Y+030582
X+010910Y+029582
X+010910Y+028582
X+011910Y+028582
X+011910Y+027582
X+011910Y+026582
X+010848Y+026332
X+010035Y+026707
X+009722Y+027082
X+009222Y+026894
X+009160Y+027269
X+008910Y+027582
X+009910Y+027582
X+010910Y+027582
X+009910Y+028582
X+008910Y+028582
X+008910Y+029582
X+009910Y+029582
X+009910Y+030582
X+008910Y+030582
X+008910Y+031582
X+009910Y+031582
X+009910Y+032582
X+008910Y+032582
X+010910Y+032582
X+010910Y+031582
X+006098Y+031894
X+005348Y+031894
X+005410Y+030457
X+005160Y+029644
X+004785Y+028957
X+005222Y+028082
X+005285Y+027394
X+004910Y+026582
X+004910Y+025582
X+004910Y+024582
X+004910Y+023582
X+005910Y+023582
X+005910Y+024582
X+006910Y+024582
X+008285Y+024644
X+008285Y+024957
X+008535Y+025019
X+008910Y+025332
X+009181Y+024802
X+009535Y+024332
X+010723Y+024957
X+010836Y+023867
X+011222Y+022332
X+011222Y+022082
X+011080Y+021892
X+010850Y+021752
X+010660Y+021519
X+012400Y+021782
X+012510Y+021982
X+012675Y+022503
X+014160Y+022269
X+014147Y+023131
X+015410Y+023082
X+015410Y+022582
X+015410Y+022082
X+015910Y+021582
X+014020Y+020602
X+013780Y+020632
X+013530Y+020692
X+013290Y+020732
X+012972Y+018019
X+012472Y+017957
X+011098Y+018819
X+009910Y+018582
X+008910Y+020582
X+007910Y+020582
X+007910Y+021582
X+006910Y+021582
X+006910Y+022582
X+007910Y+022582
X+005910Y+022582
X+006160Y+029894
X+005222Y+033519
X+005285Y+033894
X+004722Y+034144
X+006098Y+034707
X+012910Y+025582
X+014285Y+017894
X+014535Y+017269
X+014285Y+017207
X+017785Y+031707
X+017597Y+031894
X+018160Y+032019
X+018472Y+032019
X+018347Y+032269
X+018660Y+032269
X+019847Y+034519
X+019847Y+034707
X+019847Y+034894
X+020222Y+035144
X+020785Y+035332
X+021160Y+035832
X+021785Y+036582
X+020972Y+037269
X+020597Y+037457
X+020410Y+037644
X+023030Y+035762
X+023785Y+036332
X+023785Y+036582
X+024035Y+036582
X+024035Y+036332
X+024690Y+036077
T02
X+015160Y+034902
X+014160Y+034902
X+014160Y+035902
X+015160Y+035902
X+015160Y+036902
X+014160Y+036902
X+012160Y+036902
X+011160Y+036902
X+010160Y+036902
X+009160Y+036902
X+009160Y+035892
X+010160Y+035892
X+011160Y+035892
X+012160Y+035892
X+012160Y+034892
X+011160Y+034892
X+010160Y+034892
X+009160Y+034892
X+017160Y+034402
X+018160Y+034402
X+019160Y+034402
X+019160Y+035402
X+018160Y+035402
X+017160Y+035402
X+017160Y+036402
X+017160Y+037402
X+018160Y+037402
X+018160Y+036402
X+019160Y+036402
X+011973Y+012457
X+010973Y+012457
T03
X+040320Y+036772
X+041060Y+006402
X+011940Y+006522
X+006500Y+036772
T00
M30
