G04 DipTrace 3.1.0.1*
G04 TopSilk.gbr*
%MOIN*%
G04 #@! TF.FileFunction,Legend,Top*
G04 #@! TF.Part,Single*
%ADD10C,0.009843*%
%ADD15C,0.01*%
%ADD50C,0.006*%
%ADD51C,0.005*%
%ADD116C,0.00772*%
%FSLAX26Y26*%
G04*
G70*
G90*
G75*
G01*
G04 TopSilk*
%LPD*%
X690892Y1484209D2*
D10*
Y1507849D1*
X679096Y1496029D2*
X702722D1*
X721994D2*
G02X721994Y1496029I150007J0D01*
G01*
X1745002Y2051029D2*
X1545002D1*
Y1751029D1*
X1745002D1*
Y2051029D1*
X1445002Y2101029D2*
X1245002D1*
Y1701029D1*
X1445002D1*
Y2101029D1*
X1845280Y1851034D2*
X2245315D1*
Y1751029D1*
X1845280D1*
Y1851034D1*
X1845016Y1951289D2*
X2245051D1*
Y1851284D1*
X1845016D1*
Y1951289D1*
Y2051034D2*
X2245051D1*
Y1951029D1*
X1845016D1*
Y2051034D1*
X1245000Y2101005D2*
X1145003D1*
Y1801066D1*
X1245000D1*
Y2101005D1*
X587876Y1238029D2*
Y1488029D1*
X672128Y1238029D2*
Y1488029D1*
X1689753Y499903D2*
X1439753D1*
X1689753Y584155D2*
X1439753D1*
X1346002Y499903D2*
X1096002D1*
X1346002Y584155D2*
X1096002D1*
X2486474Y833277D2*
X2777808D1*
X2486474Y864776D2*
X2777808D1*
Y833277D2*
X2804199Y849050D1*
X2777808Y864776D2*
X2804199Y849050D1*
X2377027Y807100D2*
X2486474D1*
Y1290958D1*
X2377027D1*
Y807100D1*
X2486474Y933290D2*
X2777808D1*
X2486474Y964789D2*
X2777808D1*
Y933290D2*
X2804199Y949015D1*
X2777808Y964789D2*
X2804199Y949015D1*
X2486474Y1033255D2*
X2777808D1*
X2486474Y1064803D2*
X2777808D1*
Y1033255D2*
X2804199Y1049029D1*
X2777808Y1064803D2*
X2804199Y1049029D1*
X2486474Y1133269D2*
X2777808D1*
X2486474Y1164768D2*
X2777808D1*
Y1133269D2*
X2804199Y1149042D1*
X2777808Y1164768D2*
X2804199Y1149042D1*
X2486474Y1233282D2*
X2777808D1*
X2486474Y1264781D2*
X2777808D1*
Y1233282D2*
X2804199Y1249008D1*
X2777808Y1264781D2*
X2804199Y1249008D1*
X1656502Y1558780D2*
X1456502D1*
Y1158780D1*
X1656502D1*
Y1558780D1*
X2056387Y1459203D2*
X1956382D1*
Y1059168D1*
X2056387D1*
Y1459203D1*
X1956376D2*
X1856371D1*
Y1059168D1*
X1956376D1*
Y1459203D1*
X1856111Y1458930D2*
X1756106D1*
Y1058895D1*
X1856111D1*
Y1458930D1*
X1457002Y959029D2*
X1657002D1*
Y1159029D1*
X1457002D1*
Y959029D1*
X772990Y1264034D2*
X973014D1*
Y1164029D1*
X772990D1*
Y1264034D1*
X606252Y1876276D2*
X693752D1*
Y1863781D1*
X606252D1*
Y1876276D1*
X1103755Y1354279D2*
X1116250D1*
Y1441779D1*
X1103755D1*
Y1354279D1*
X655752Y824781D2*
X568252D1*
Y837276D1*
X655752D1*
Y824781D1*
X872995Y1023030D2*
D50*
G02X921829Y997895I13J-59981D01*
G01*
X825001Y999036D2*
G02X872995Y1023030I48031J-36078D01*
G01*
Y903029D2*
G03X920369Y926191I23J59982D01*
G01*
X825639D2*
G03X872995Y903029I47351J36820D01*
G01*
Y1043030D2*
D15*
G02X934457Y1014244I40J-79922D01*
G01*
X802409Y1000682D2*
G02X872995Y1043030I70633J-37731D01*
G01*
Y883029D2*
G03X934074Y911358I-15J80040D01*
G01*
X803540Y923339D2*
G03X872995Y883029I69462J39694D01*
G01*
X771002Y1031033D2*
D51*
X800000D1*
X784999Y1015026D2*
Y1046029D1*
X1167652Y1533020D2*
D50*
G02X1164996Y1587890I52022J30017D01*
G01*
X1212422Y1503464D2*
G02X1167652Y1533020I7157J59527D01*
G01*
X1271577Y1593017D2*
G03X1227831Y1622472I-51922J-29899D01*
G01*
X1275193Y1540439D2*
G03X1271577Y1593017I-55590J22590D01*
G01*
X1150323Y1523027D2*
D15*
G02X1144531Y1590644I69162J39981D01*
G01*
X1222295Y1483076D2*
G02X1150323Y1523027I-2658J80016D01*
G01*
X1288890Y1603030D2*
G03X1233815Y1641754I-69297J-40030D01*
G01*
X1288714Y1522726D2*
G03X1288890Y1603030I-69087J40304D01*
G01*
X1211718Y1440692D2*
D51*
X1197222Y1465805D1*
X1218583Y1460819D2*
X1191733Y1445317D1*
X1043014Y1657258D2*
D50*
G02X1013281Y1703446I29913J51920D01*
G01*
X1096571Y1654046D2*
G02X1043014Y1657258I-23558J55299D01*
G01*
X1103004Y1761191D2*
G03X1050399Y1764814I-30010J-52015D01*
G01*
X1132435Y1717451D2*
G03X1103004Y1761191I-59484J-8254D01*
G01*
X1033007Y1639943D2*
D15*
G02X994173Y1695591I39939J69245D01*
G01*
X1115313Y1641314D2*
G02X1033007Y1639943I-42298J68031D01*
G01*
X1113010Y1778506D2*
G03X1045952Y1784519I-40015J-69325D01*
G01*
X1153004Y1708872D2*
G03X1113010Y1778506I-80008J350D01*
G01*
X1127337Y1599338D2*
D51*
X1102226Y1613833D1*
X1123223Y1620199D2*
X1107721Y1593344D1*
X1042993Y1068379D2*
D50*
G02X1097863Y1071035I30017J-52022D01*
G01*
X1013437Y1023609D2*
G02X1042993Y1068379I59527J-7157D01*
G01*
X1102990Y964454D2*
G03X1132446Y1008200I-29899J51922D01*
G01*
X1050412Y960838D2*
G03X1102990Y964454I22590J55590D01*
G01*
X1033000Y1085708D2*
D15*
G02X1100618Y1091500I39981J-69162D01*
G01*
X993050Y1013736D2*
G02X1033000Y1085708I80016J2658D01*
G01*
X1113003Y947141D2*
G03X1151727Y1002216I-40030J69297D01*
G01*
X1032699Y947317D2*
G03X1113003Y947141I40304J69087D01*
G01*
X950666Y1024313D2*
D51*
X975778Y1038810D1*
X970792Y1017449D2*
X955290Y1044298D1*
X533003Y1363036D2*
D50*
G02X507868Y1314202I-59981J-13D01*
G01*
X509009Y1411031D2*
G02X533003Y1363036I-36078J-48031D01*
G01*
X413002D2*
G03X436165Y1315662I59982J-23D01*
G01*
Y1410392D2*
G03X413002Y1363036I36820J-47351D01*
G01*
X553003D2*
D15*
G02X524217Y1301574I-79922J-40D01*
G01*
X510656Y1433623D2*
G02X553003Y1363036I-37731J-70633D01*
G01*
X393002D2*
G03X421332Y1301958I80040J15D01*
G01*
X433312Y1432491D2*
G03X393002Y1363036I39694J-69462D01*
G01*
X541006Y1465029D2*
D51*
Y1436032D1*
X525000Y1451032D2*
X556002D1*
X873010Y1703028D2*
D50*
G02X824176Y1728163I-13J59981D01*
G01*
X921004Y1727022D2*
G02X873010Y1703028I-48031J36078D01*
G01*
Y1823029D2*
G03X825636Y1799867I-23J-59982D01*
G01*
X920365D2*
G03X873010Y1823029I-47351J-36820D01*
G01*
Y1683028D2*
D15*
G02X811548Y1711814I-40J79922D01*
G01*
X943596Y1725376D2*
G02X873010Y1683028I-70633J37731D01*
G01*
Y1843029D2*
G03X811931Y1814700I15J-80040D01*
G01*
X942465Y1802719D2*
G03X873010Y1843029I-69462J-39694D01*
G01*
X975002Y1695025D2*
D51*
X946005D1*
X961005Y1711032D2*
Y1680029D1*
X1167232Y1193018D2*
D50*
G02X1213419Y1222751I51920J-29913D01*
G01*
X1164019Y1139460D2*
G02X1167232Y1193018I55299J23558D01*
G01*
X1271164Y1133027D2*
G03X1274788Y1185632I-52015J30010D01*
G01*
X1227425Y1103596D2*
G03X1271164Y1133027I-8254J59484D01*
G01*
X1149916Y1203024D2*
D15*
G02X1205565Y1241858I69245J-39939D01*
G01*
X1151287Y1120718D2*
G02X1149916Y1203024I68031J42298D01*
G01*
X1288479Y1123021D2*
G03X1294493Y1190079I-69325J40015D01*
G01*
X1218845Y1083027D2*
G03X1288479Y1123021I350J80008D01*
G01*
X1109311Y1108694D2*
D51*
X1123806Y1133806D1*
X1130172Y1112808D2*
X1103317Y1128310D1*
X578353Y1193038D2*
D50*
G02X581009Y1138168I-52022J-30017D01*
G01*
X533582Y1222594D2*
G02X578353Y1193038I-7157J-59527D01*
G01*
X474427Y1133041D2*
G03X518174Y1103586I51922J29899D01*
G01*
X470811Y1185619D2*
G03X474427Y1133041I55590J-22590D01*
G01*
X595681Y1203031D2*
D15*
G02X601474Y1135414I-69162J-39981D01*
G01*
X523710Y1242982D2*
G02X595681Y1203031I2658J-80016D01*
G01*
X457115Y1123028D2*
G03X512189Y1084304I69297J40030D01*
G01*
X457291Y1203332D2*
G03X457115Y1123028I69087J-40304D01*
G01*
X534286Y1285366D2*
D51*
X548783Y1260253D1*
X527422Y1265239D2*
X554271Y1280741D1*
X703011Y1657679D2*
D50*
G02X648142Y1655023I-30017J52022D01*
G01*
X732567Y1702449D2*
G02X703011Y1657679I-59527J7157D01*
G01*
X643015Y1761604D2*
G03X613559Y1717858I29899J-51922D01*
G01*
X695592Y1765220D2*
G03X643015Y1761604I-22590J-55590D01*
G01*
X713004Y1640350D2*
D15*
G02X645387Y1634558I-39981J69162D01*
G01*
X752955Y1712321D2*
G02X713004Y1640350I-80016J-2658D01*
G01*
X633002Y1778917D2*
G03X594277Y1723842I40030J-69297D01*
G01*
X713306Y1778741D2*
G03X633002Y1778917I-40304J-69087D01*
G01*
X795339Y1701745D2*
D51*
X770226Y1687248D1*
X775213Y1708609D2*
X790715Y1681760D1*
X1213002Y1363022D2*
D50*
G02X1238136Y1411855I59981J13D01*
G01*
X1236995Y1315027D2*
G02X1213002Y1363022I36078J48031D01*
G01*
X1333002D2*
G03X1309840Y1410396I-59982J23D01*
G01*
Y1315666D2*
G03X1333002Y1363022I-36820J47351D01*
G01*
X1193002D2*
D15*
G02X1221787Y1424484I79922J40D01*
G01*
X1235349Y1292435D2*
G02X1193002Y1363022I37731J70633D01*
G01*
X1353002D2*
G03X1324673Y1424100I-80040J-15D01*
G01*
X1312692Y1293567D2*
G03X1353002Y1363022I-39694J69462D01*
G01*
X1204998Y1261029D2*
D51*
Y1290026D1*
X1221005Y1275026D2*
X1190002D1*
X702991Y1068800D2*
D50*
G02X732724Y1022612I-29913J-51920D01*
G01*
X649433Y1072012D2*
G02X702991Y1068800I23558J-55299D01*
G01*
X643001Y964867D2*
G03X695605Y961244I30010J52015D01*
G01*
X613569Y1008607D2*
G03X643001Y964867I59484J8254D01*
G01*
X712997Y1086115D2*
D15*
G02X751831Y1030467I-39939J-69245D01*
G01*
X630691Y1084744D2*
G02X712997Y1086115I42298J-68031D01*
G01*
X632994Y947552D2*
G03X700053Y941539I40015J69325D01*
G01*
X593001Y1017186D2*
G03X632994Y947552I80008J-350D01*
G01*
X618668Y1126720D2*
D51*
X643779Y1112225D1*
X622782Y1105859D2*
X638283Y1132714D1*
X578773Y1533040D2*
D50*
G02X532585Y1503307I-51920J29913D01*
G01*
X581985Y1586598D2*
G02X578773Y1533040I-55299J-23558D01*
G01*
X474841Y1593031D2*
G03X471217Y1540426I52015J-30010D01*
G01*
X518580Y1622462D2*
G03X474841Y1593031I8254J-59484D01*
G01*
X596088Y1523034D2*
D15*
G02X540440Y1484200I-69245J39939D01*
G01*
X594717Y1605340D2*
G02X596088Y1523034I-68031J-42298D01*
G01*
X457525Y1603037D2*
G03X451512Y1535979I69325J-40015D01*
G01*
X527159Y1643031D2*
G03X457525Y1603037I-350J-80008D01*
G01*
X636694Y1617364D2*
D51*
X622199Y1592252D1*
X615833Y1613250D2*
X642687Y1597748D1*
X452686Y684246D2*
D116*
X471810Y634006D1*
X490933Y684246D1*
X506372Y653129D2*
X535057D1*
Y657938D1*
X532680Y662746D1*
X530304Y665123D1*
X525495Y667499D1*
X518310D1*
X513557Y665123D1*
X508749Y660314D1*
X506372Y653129D1*
Y648376D1*
X508749Y641191D1*
X513557Y636438D1*
X518310Y634006D1*
X525495D1*
X530304Y636438D1*
X535057Y641191D1*
X550496Y667499D2*
Y634006D1*
Y653129D2*
X552928Y660314D1*
X557681Y665123D1*
X562490Y667499D1*
X569675D1*
X611422Y660314D2*
X609046Y665123D1*
X601861Y667499D1*
X594676D1*
X587491Y665123D1*
X585114Y660314D1*
X587491Y655561D1*
X592299Y653129D1*
X604237Y650753D1*
X609046Y648376D1*
X611422Y643568D1*
Y641191D1*
X609046Y636438D1*
X601861Y634006D1*
X594676D1*
X587491Y636438D1*
X585114Y641191D1*
X626862Y684246D2*
X629238Y681870D1*
X631670Y684246D1*
X629238Y686678D1*
X626862Y684246D1*
X629238Y667499D2*
Y634006D1*
X659047Y667499D2*
X654294Y665123D1*
X649486Y660314D1*
X647109Y653129D1*
Y648376D1*
X649486Y641191D1*
X654294Y636438D1*
X659047Y634006D1*
X666232D1*
X671041Y636438D1*
X675794Y641191D1*
X678226Y648376D1*
Y653129D1*
X675794Y660314D1*
X671041Y665123D1*
X666232Y667499D1*
X659047D1*
X693665D2*
Y634006D1*
Y657938D2*
X700850Y665123D1*
X705659Y667499D1*
X712788D1*
X717597Y665123D1*
X719973Y657938D1*
Y634006D1*
X551495Y596191D2*
X577748D1*
X563433Y577068D1*
X570618D1*
X575371Y574691D1*
X577748Y572314D1*
X580180Y565129D1*
Y560376D1*
X577748Y553191D1*
X572995Y548383D1*
X565810Y546006D1*
X558625D1*
X551495Y548383D1*
X549118Y550815D1*
X546686Y555568D1*
X597995Y550815D2*
X595619Y548383D1*
X597995Y546006D1*
X600427Y548383D1*
X597995Y550815D1*
X615867Y586629D2*
X620675Y589061D1*
X627860Y596191D1*
Y546006D1*
M02*
