G04 DipTrace 3.1.0.1*
G04 Bottom.gbr*
%MOIN*%
G04 #@! TF.FileFunction,Copper,L2,Bot*
G04 #@! TF.Part,Single*
%AMOUTLINE0*5,1,8,0,0,0.066,-22.49998*%
%AMOUTLINE1*5,1,8,0,0,0.066,-262.500516*%
%AMOUTLINE2*5,1,8,0,0,0.066001,-232.500313*%
%AMOUTLINE3*5,1,8,0,0,0.066,7.499484*%
%AMOUTLINE4*5,1,8,0,0,0.066,-112.49998*%
%AMOUTLINE5*5,1,8,0,0,0.066,-202.49998*%
%AMOUTLINE6*5,1,8,0,0,0.066001,37.499687*%
%AMOUTLINE7*5,1,8,0,0,0.066,-82.500516*%
%AMOUTLINE8*5,1,8,0,0,0.066,-172.500516*%
%AMOUTLINE9*5,1,8,0,0,0.066,67.50002*%
%AMOUTLINE10*5,1,8,0,0,0.066001,-52.500313*%
%AMOUTLINE11*5,1,8,0,0,0.066001,-142.500313*%
%AMOUTLINE12*
4,1,16,
0.006264,-0.014615,
0.00849,-0.016013,
0.011101,-0.016308,
0.013581,-0.01544,
0.01544,-0.013581,
0.016308,-0.011101,
0.016013,-0.00849,
0.014615,-0.006264,
-0.006264,0.014615,
-0.00849,0.016013,
-0.011101,0.016308,
-0.013581,0.01544,
-0.01544,0.013581,
-0.016308,0.011101,
-0.016013,0.00849,
-0.014615,0.006264,
0.006264,-0.014615,
0*%
%AMOUTLINE15*
4,1,16,
-0.014615,-0.006264,
-0.016013,-0.00849,
-0.016308,-0.011101,
-0.01544,-0.013581,
-0.013581,-0.01544,
-0.011101,-0.016308,
-0.00849,-0.016013,
-0.006264,-0.014615,
0.014615,0.006264,
0.016013,0.00849,
0.016308,0.011101,
0.01544,0.013581,
0.013581,0.01544,
0.011101,0.016308,
0.00849,0.016013,
0.006264,0.014615,
-0.014615,-0.006264,
0*%
%AMOUTLINE18*5,1,4,0,0,0.217142,90.0*%
G04 #@! TA.AperFunction,ViaPad*
%ADD14C,0.02*%
G04 #@! TA.AperFunction,Conductor*
%ADD15C,0.01*%
%ADD16C,0.04*%
%ADD17C,0.066929*%
%ADD18C,0.07*%
%ADD19C,0.03*%
%ADD20C,0.05*%
%ADD21C,0.06*%
G04 #@! TA.AperFunction,CopperBalancing*
%ADD23C,0.025*%
G04 #@! TA.AperFunction,Conductor*
%ADD24C,0.008*%
%ADD25C,0.014*%
%ADD26C,0.007*%
G04 #@! TA.AperFunction,ViaPad*
%ADD27C,0.015*%
G04 #@! TA.AperFunction,Conductor*
%ADD28C,0.08*%
%ADD30R,0.177165X0.051181*%
%ADD31R,0.153543X0.070866*%
%ADD32R,0.3X0.27*%
G04 #@! TA.AperFunction,ComponentPad*
%ADD33C,0.062992*%
%ADD34R,0.062992X0.062992*%
%ADD35R,0.03937X0.043307*%
%ADD36R,0.043307X0.03937*%
G04 #@! TA.AperFunction,ComponentPad*
%ADD37R,0.066929X0.066929*%
%ADD38C,0.066929*%
%ADD39R,0.051181X0.03937*%
%ADD40O,0.051181X0.03937*%
%ADD41R,0.03937X0.051181*%
%ADD42O,0.03937X0.051181*%
%ADD43C,0.062992*%
%ADD45R,0.025591X0.041339*%
%ADD48R,0.086614X0.027559*%
%ADD49R,0.090551X0.043*%
%ADD53R,0.011024X0.033465*%
%ADD54R,0.033465X0.011024*%
%ADD55R,0.080709X0.120079*%
%ADD58R,0.055118X0.045276*%
G04 #@! TA.AperFunction,ViaPad*
%ADD59C,0.012*%
G04 #@! TA.AperFunction,ComponentPad*
%ADD120OUTLINE0*%
%ADD121OUTLINE1*%
%ADD122OUTLINE2*%
%ADD123OUTLINE3*%
%ADD124OUTLINE4*%
%ADD125OUTLINE5*%
%ADD126OUTLINE6*%
%ADD127OUTLINE7*%
%ADD128OUTLINE8*%
%ADD129OUTLINE9*%
%ADD130OUTLINE10*%
%ADD131OUTLINE11*%
%ADD132OUTLINE12*%
%ADD135OUTLINE15*%
%ADD138OUTLINE18*%
%FSLAX26Y26*%
G04*
G70*
G90*
G75*
G01*
G04 Bottom*
%LPD*%
X1917317Y849312D2*
D15*
Y850344D1*
X1935002Y868029D1*
Y881029D1*
X1959076Y651100D2*
X2024002Y586173D1*
Y555029D1*
X2026002Y553029D1*
X2014754Y751877D2*
X2041155D1*
X2047002Y746029D1*
X1209002Y707029D2*
X1246073D1*
X1249073Y704029D1*
X2369002Y723029D2*
X2419002D1*
X1858299Y595421D2*
Y585326D1*
X1836607Y563634D1*
X1832002Y559029D1*
X1795002D1*
X1755002Y599029D1*
Y631319D1*
X1788702Y665020D1*
X2026002Y553029D2*
Y550029D1*
X2074002Y502029D1*
X1852002Y545029D2*
Y548239D1*
X1836607Y563634D1*
X2074002Y502029D2*
X2130002D1*
X2187002Y445029D1*
X2329002D1*
X2378002Y494029D1*
Y643029D1*
X2357002Y664029D1*
X1802622Y807554D2*
X1802477D1*
X1787002Y823029D1*
X1747002D1*
X1729002Y805029D1*
X1715002D1*
X1692002Y782029D1*
Y759029D1*
X1717002Y734029D1*
Y672799D1*
X1755002Y634799D1*
Y631319D1*
X1691002Y1485029D2*
X1683002D1*
X1658002Y1510029D1*
Y1611029D1*
X1678002Y1631029D1*
X1720002D1*
X1882002Y1469029D1*
X2023002D1*
X2024002Y1470029D1*
X1485002Y845029D2*
Y843814D1*
X1470117Y828928D1*
X1607002Y1009029D2*
D16*
X1507002D1*
D14*
D3*
X2227002Y1513029D2*
Y1514029D1*
X2268002D1*
X2289002Y1493029D1*
Y1342029D1*
X2262002Y1315029D1*
X2200002D1*
X2172002Y1287029D1*
Y1133029D1*
X2095002Y1056029D1*
X1769002D1*
X1741002Y1084029D1*
Y1123029D1*
X1706002Y1158029D1*
X717002Y710029D2*
X713683Y706710D1*
X639480D1*
X1395002Y2051029D2*
D16*
X1464397D1*
X1511002Y2004424D1*
Y1767029D1*
X1584002Y1694029D1*
Y1629029D1*
X1707002Y1597029D2*
Y1530029D1*
X1739753Y1497278D1*
Y1191780D1*
X1706002Y1158029D1*
X1321002Y542029D2*
D15*
Y528029D1*
X1285002Y492029D1*
X1080002D1*
X1030002Y542029D1*
Y648029D1*
X967002Y711029D1*
X772002Y1496029D2*
D14*
Y1739417D1*
Y1885029D1*
X808002Y1921029D1*
X1127002Y2023029D2*
X1131002Y2027029D1*
Y2093029D1*
X1157332Y2119358D1*
X1271055D1*
X1295002Y2095411D1*
Y2051029D1*
X716304Y1734635D2*
X767220D1*
D15*
X772002Y1739417D1*
X2095298Y1801029D2*
D17*
X2195298D1*
X2095034Y1901284D2*
X2195034D1*
X2195298Y1801029D2*
Y1901284D1*
X1595002Y1901029D2*
X1695002D1*
X793498Y2175614D2*
D19*
X1064417D1*
X1062002Y2178029D1*
X1595002Y1801029D2*
D17*
X1695002D1*
X1051002Y2125029D2*
D19*
X977002D1*
X921002Y2069029D1*
X801871D1*
X793498Y2077402D1*
X1906371Y1309185D2*
D20*
Y1409185D1*
X1895034Y2001029D2*
X1995034D1*
Y1801293D1*
X1995298Y1801029D1*
X1895298D1*
Y2000765D1*
X1895034Y2001029D1*
X1895288D2*
X1995034Y1901284D1*
Y1900765D1*
X1895298Y1801029D1*
X1895034Y1901284D2*
X1895043D1*
X1995298Y1801029D1*
X1895288Y1901284D2*
X1995034Y2001029D1*
Y1901284D2*
X1895034D1*
Y2001029D2*
D21*
X1995034D1*
Y1901284D1*
X1895034Y2001029D2*
D17*
X1995034D1*
Y1801293D1*
X1995298Y1801029D1*
X1895298D1*
D18*
Y2000765D1*
D17*
X1895034Y2001029D1*
X1995298Y1801029D2*
D23*
Y2728324D1*
X1996002Y2729029D1*
X2006382Y1409185D2*
D20*
X1906371D1*
X1806379D1*
X1806106Y1408912D1*
X1802252Y1394280D2*
Y1312767D1*
X1806106Y1308912D1*
X2006109D1*
X2006382Y1309185D1*
Y1409185D1*
X2006371D1*
X1906371Y1309185D1*
X1905833D1*
X1806106Y1408912D1*
Y1308912D2*
Y1308920D1*
X1906371Y1409185D1*
X1906382D1*
X2006382Y1309185D1*
X793498Y1978402D2*
D19*
X968375D1*
X1144002Y2154029D1*
X1297002D1*
X1336002Y2115029D1*
X1498002D1*
X1543002Y2070029D1*
X1826034D1*
X1895034Y2001029D1*
X2083139Y632143D2*
D24*
Y640629D1*
X2093533Y651024D1*
Y673051D1*
X2077956Y688625D1*
X2055931D1*
X2048706Y681399D1*
X2036114D1*
X2014754Y702757D1*
Y706777D1*
X2064753Y650529D2*
X2073239D1*
X2079533Y656822D1*
Y667251D1*
X2072159Y674625D1*
X2061729D1*
X2054504Y667399D1*
X2030315Y667398D1*
X2004854Y692858D1*
X2000834D1*
X1506502Y1508780D2*
X1532502D1*
X1548502Y1492780D1*
Y1474529D1*
X1558618Y1464412D1*
X1569502Y1453529D1*
X1640539D1*
X1656002Y1438066D1*
Y1112816D1*
X1750790Y1018029D1*
X2105417D1*
X2165002Y958444D1*
Y806387D1*
X2179002Y792387D1*
Y697026D1*
X2094001Y612029D1*
X2049804D1*
X2009194Y652641D1*
X1986914Y674919D1*
Y678938D1*
X1606502Y1508780D2*
X1580502D1*
X1568518Y1496795D1*
Y1474312D1*
X1575300Y1467529D1*
X1646340D1*
X1670002Y1443864D1*
Y1118614D1*
X1756588Y1032029D1*
X2111215D1*
X2179002Y964242D1*
Y812185D1*
X2193002Y798185D1*
Y691226D1*
X2099799Y598029D1*
X2044006D1*
X1999294Y642740D1*
X1977015Y665020D1*
X1972996D1*
X1945156Y637181D2*
X1947712D1*
Y631320D1*
X1966002Y613029D1*
Y539231D1*
X1909580Y482809D1*
X1585295D1*
X1579002Y476515D1*
Y468029D1*
X1931237Y623261D2*
Y621420D1*
X1937812D1*
X1952002Y607231D1*
Y545029D1*
X1903782Y496809D1*
X1579497D1*
X1569102Y486415D1*
X1560617D1*
X1933002Y622029D2*
X1931504Y623528D1*
X1931237Y623261D1*
X1917317Y609341D2*
Y605322D1*
X1935177Y587462D1*
X1935176Y550234D1*
X1895971Y511029D1*
X1795417D1*
X1705417Y601029D1*
X1291215D1*
X1270295Y580108D1*
X1271002Y542029D1*
X1903399Y595421D2*
X1907418D1*
X1921177Y581663D1*
X1921176Y556032D1*
X1890173Y525029D1*
X1801215D1*
X1711215Y615029D1*
X1285417D1*
X1260395Y590008D1*
X1221002Y550614D1*
Y542029D1*
X630002Y1313029D2*
Y1317029D1*
X644002Y1331029D1*
X666215D1*
X686215Y1351029D1*
X1060417D1*
X1157417Y1254029D1*
X1307002D1*
X1358002Y1203029D1*
Y1011444D1*
X1422417Y947029D1*
X1652215D1*
X1689215Y984029D1*
X1871417D1*
X1959001Y896445D1*
X1959002Y859137D1*
X1935257Y835392D1*
X1931237D1*
X630002Y1363029D2*
Y1359029D1*
X644002Y1345029D1*
X660417D1*
X680417Y1365029D1*
X1066215D1*
X1163215Y1268029D1*
X1312800D1*
X1372002Y1208827D1*
Y1017242D1*
X1428215Y961029D1*
X1646417D1*
X1683417Y998029D1*
X1877215D1*
X1973001Y902243D1*
X1973002Y853339D1*
X1945157Y825494D1*
X1945156Y821474D1*
X1470117Y789558D2*
D15*
X1444473D1*
X1423002Y811029D1*
Y829029D1*
X1407002Y845029D1*
X1249002Y842029D2*
Y914029D1*
X1213002Y950029D1*
X1801002Y876029D2*
X1796002D1*
X1791002Y881029D1*
X1720002D1*
X1677002Y838029D1*
Y803029D1*
X1663531Y789558D1*
X1605943D1*
X1506502Y1308780D2*
X1459753D1*
X1417002Y1266029D1*
Y1007029D1*
X1393002Y807029D2*
X1429002Y771029D1*
X1468960D1*
X1470117Y769873D1*
X2229002Y849029D2*
X2226002Y846029D1*
Y732029D1*
X1695002Y690029D2*
Y733029D1*
X1659002Y769029D1*
X1606787D1*
X1605943Y769873D1*
X1276002Y1118958D2*
X1285002D1*
Y1147029D1*
X1312002Y1174029D1*
X1240002Y1091029D2*
D25*
Y1148029D1*
X1256002Y1164029D1*
X1267002D1*
X1303002Y1200029D1*
X1309749D1*
X1325002D1*
X1335002Y1190029D1*
Y1163029D1*
X1309002Y1137029D1*
Y999029D1*
X1337002Y971029D1*
Y950177D1*
X1339850Y947330D1*
X1240002Y1148029D2*
X1235002D1*
X1206002Y1177029D1*
X1159002D1*
X1099002Y1237029D1*
X1288876Y1220903D2*
X1309749Y1200029D1*
X2035002Y927029D2*
D15*
Y941029D1*
X1996002Y980029D1*
X2035002Y927029D2*
X2041002D1*
X2079002Y889029D1*
Y834029D1*
X2075002Y830029D1*
X1981551D1*
X1959076Y807554D1*
X2121617Y864038D2*
Y853643D1*
X2081002Y813029D1*
X1992389D1*
X1972996Y793634D1*
X2124002Y810029D2*
Y861652D1*
X2121617Y864038D1*
X2000834Y765795D2*
Y765861D1*
X2016002Y781029D1*
X2046002D1*
X2090002Y737029D1*
Y717029D1*
X2108002Y699029D1*
X2139002D1*
X1075002Y541029D2*
X1070002Y546029D1*
Y665029D1*
X1903399Y863232D2*
Y888425D1*
X1916002Y901029D1*
X1986914Y779715D2*
X2004228Y797029D1*
X2060002D1*
X2074002Y783029D1*
X1802622Y651100D2*
X1805073D1*
X1780002Y626029D1*
X1715002Y767029D2*
X1755002Y807029D1*
X1775308D1*
X1788702Y793634D1*
X1816542Y821474D2*
X1798985Y839029D1*
X1783002D1*
X1773002Y849029D1*
X1749002D1*
X1728002Y828029D1*
X1698002D1*
X1830460Y835392D2*
X1828639D1*
X1809002Y855029D1*
X1790002D1*
X1780002Y865029D1*
X1734002D1*
X1719002Y850029D1*
X1828002Y889029D2*
Y866029D1*
X1844380Y849651D1*
Y849312D1*
X1317002Y663029D2*
Y704029D1*
X1316002D1*
X1276002Y1052029D2*
X1285002D1*
Y990029D1*
X1313002Y962029D1*
Y910029D1*
X1315002D1*
X1351002Y844029D2*
X1364502D1*
X1377252Y856778D1*
X1177002Y891029D2*
Y860029D1*
X1207002D1*
X1407002Y871029D2*
D26*
X1425002Y889029D1*
X1659002D1*
D15*
X1709002Y939029D1*
X1849002D1*
X1877002Y911029D1*
Y887029D1*
X1859002Y869029D1*
X1852502D1*
X1858299Y863232D1*
X1175931Y831029D2*
Y889958D1*
X1177002Y891029D1*
X1103002Y1174029D2*
D25*
Y1054725D1*
X1116304Y1041423D1*
X1154002Y1218029D2*
X1232504D1*
X1244202Y1206331D1*
X1595002Y2001029D2*
D17*
X1695002D1*
X2195034D2*
X2095034D1*
X639480Y646710D2*
D23*
X698433D1*
X806593Y754870D1*
X872002Y820280D1*
Y852163D1*
Y1015029D1*
X923002Y1066029D1*
Y1214029D1*
X2006371Y1168185D2*
D20*
X2006382D1*
Y1109185D1*
X1787002Y960029D2*
D14*
X1700002D1*
X1649002Y909029D1*
D27*
X1551002D1*
X1367002D1*
D23*
X1311002Y853029D1*
X1306002Y858029D1*
X1228326Y780353D1*
X1202844Y754870D1*
X1121002D1*
X1070002D1*
X1025002D1*
X806593D1*
X1302449Y856778D2*
D15*
X1306002Y858029D1*
X1906371Y1109185D2*
D20*
Y1209185D1*
X1806106Y1108912D2*
Y1208912D1*
X2006382Y1109185D2*
Y1209185D1*
X1906371D1*
X1806379D1*
X1806106Y1208912D1*
X1806644D2*
X1906371Y1109185D1*
X1906382D1*
X2006382Y1209185D1*
Y1109185D2*
X1806379D1*
X1806106Y1108912D1*
X1906371Y1209185D1*
X2006382Y1109185D1*
Y1209185D2*
D18*
Y1158408D1*
X2104002Y1256029D1*
Y1529029D1*
X2158002Y1583029D1*
X2227002D1*
Y1573029D1*
X1514753Y542029D2*
D15*
X1464753D1*
X1171002D2*
X1121002D1*
Y754870D1*
X1844380Y609341D2*
X1842315D1*
X1871002Y638029D1*
Y675529D1*
X1864752Y669278D1*
Y713230D1*
X1880849Y729327D1*
X1117002Y892100D2*
X911939D1*
X872002Y852163D1*
X1070002Y731958D2*
Y754870D1*
X1109002Y831029D2*
Y884100D1*
X1117002Y892100D1*
X1875002Y944029D2*
X1859002Y960029D1*
X1787002D1*
X1816065Y581029D2*
X1844380Y609341D1*
X2121617Y927029D2*
X2115931D1*
X2084809Y958151D1*
X2062931Y980029D1*
X2104002Y970029D2*
X2096687D1*
X2084809Y958151D1*
X2035002Y864038D2*
X2020993D1*
X1992002Y893029D1*
Y921029D1*
X1958002Y955029D1*
X2124002Y743100D2*
Y736029D1*
X2159002Y771029D1*
X1514753Y542029D2*
Y554780D1*
X1542002Y582029D1*
X1688002D1*
X1732002Y538029D1*
X2026002Y486100D2*
X1986931D1*
X1981002Y492029D1*
X1025002Y688029D2*
Y754870D1*
X1695002Y2001029D2*
D28*
X1742002D1*
X1785002Y1958029D1*
Y1683029D1*
X1900002Y1568029D1*
X2107514D1*
D18*
X2104002Y1529029D1*
X1299002Y858029D2*
D15*
X1306002D1*
X1508502Y672030D2*
Y730501D1*
X1538030Y760029D1*
X1508502Y672030D2*
D27*
X1500004D1*
X1489002Y661029D1*
X1385002D1*
X1359002Y687029D1*
Y725029D1*
X1343002Y741029D1*
X1267651D1*
X1228326Y780353D1*
X1537002Y721029D2*
D15*
Y759001D1*
X1538030Y760029D1*
X1470117Y809243D2*
D26*
X1450788D1*
X1439002Y821029D1*
Y863029D1*
X1451002Y875029D1*
X1527002D1*
X1533002Y869029D1*
X1543002D1*
X1541002Y931029D2*
X1410002D1*
X1337002Y1004029D1*
Y1117029D1*
X1333002Y1121029D1*
X1382002Y1562029D2*
X1193002Y1751029D1*
Y1849029D1*
X1195002Y1851029D1*
X2229002Y1149029D2*
D15*
X2166002Y1086029D1*
Y1063029D1*
X1827002Y915029D2*
X1821002D1*
X1803002Y897029D1*
X1713002D1*
X1661002Y845029D1*
Y815029D1*
X1655216Y809243D1*
X1605943D1*
X1606502Y1208780D2*
X1602252D1*
X1551002Y1260029D1*
X1482002D1*
X1442002Y1220029D1*
Y1025029D1*
X1438002Y1029029D1*
X1399002Y687029D2*
X1466014D1*
X1470117Y691131D1*
X2229002Y1049029D2*
X2276002Y1002029D1*
Y824029D1*
X2251002Y799029D1*
Y689029D1*
X1615002Y667029D2*
Y691131D1*
X1605943D1*
X1470117Y730501D2*
X1399530D1*
X1362002Y768029D1*
X1306002D1*
X1270002Y863029D2*
Y937029D1*
X1234002Y973029D1*
X1419002Y1682029D2*
X1386002D1*
X1347002Y1721029D1*
Y1899029D1*
X1295002Y1951029D1*
X1209002Y617029D2*
Y620029D1*
D24*
X1218002Y629029D1*
X1633002D1*
X1653002Y649029D1*
Y715029D1*
D15*
X1639002Y729029D1*
X1607416D1*
X1605943Y730501D1*
X1195002Y2051029D2*
X1203002D1*
Y2021029D1*
X1224002Y2000029D1*
X1429002D1*
X1456002Y1973029D1*
Y1684029D1*
X1429002Y1657029D1*
X1401002D1*
X1238002Y1003029D2*
X1294002Y947029D1*
Y894029D1*
X1330002Y793029D2*
X1337002Y786029D1*
X1370002D1*
X1407002Y749029D1*
X1468959D1*
X1470117Y750186D1*
X2329002Y949029D2*
X2380002Y898029D1*
Y813029D1*
X2354002Y787029D1*
X2339002D1*
X2273002Y721029D1*
Y723029D1*
X1673002Y669029D2*
Y723029D1*
X1645002Y751029D1*
X1606786D1*
X1605943Y750186D1*
X1506502Y1408780D2*
X1499252D1*
X1441002Y1467029D1*
Y1542029D1*
X1474002Y1575029D1*
X1590002D1*
X1663002Y1648029D1*
X1727002D1*
X1879002Y1496029D1*
X2024002D1*
X2158002Y1438029D2*
X2212002D1*
X2227002Y1453029D1*
X1606502Y1408780D2*
X1604753D1*
X1557002Y1361029D1*
X1475252D1*
X1396002Y1281780D1*
Y1034029D1*
X1228002Y886029D2*
Y826029D1*
X1190002Y788029D1*
X1085002D1*
X1056002Y817029D1*
X909002D1*
X771002Y768029D2*
X640799D1*
X639480Y766710D1*
X2329002Y1249029D2*
X2278002Y1198029D1*
Y1032029D1*
X2312002Y998029D1*
X2349002D1*
X2399002Y948029D1*
Y807029D1*
X2259002Y667029D1*
X2210002D1*
X2143002Y600029D1*
Y528029D1*
X1585002Y667029D2*
Y673029D1*
X1566559D1*
X1567557Y672030D1*
X1542001D1*
X1541002Y673029D1*
X1631002Y833029D2*
X1626901Y828928D1*
X1605943D1*
X1195002Y1951029D2*
D26*
X1248002Y1898029D1*
Y1723029D1*
X1374002Y1597029D1*
X1531002D1*
X1559002Y1164029D2*
X1560002Y1163029D1*
Y1081029D1*
X1581002Y1060029D1*
X1649002D1*
X1676002Y1033029D1*
X1686002D1*
X1529002Y847029D2*
X1509502D1*
X1508502Y848029D1*
X1789002Y918029D2*
D15*
X1783002D1*
X1778002Y923029D1*
X1716002D1*
X1652002Y859029D1*
X1567557D1*
Y848029D1*
X1506502Y1208780D2*
X1478753D1*
X1462002Y1192029D1*
Y987029D1*
X1420002Y709029D2*
X1468329D1*
X1470117Y710816D1*
X1605943D2*
X1629215D1*
X1637002Y703029D1*
Y655029D1*
D24*
X1625002Y643029D1*
X1192002D1*
D15*
X1153002Y604029D1*
X1506002Y441029D2*
X1986002D1*
X1999002Y428029D1*
X2339002D1*
X2396002Y485029D1*
Y660029D1*
X2347002Y709029D1*
Y732029D1*
X2417002Y802029D1*
Y961029D1*
X2329002Y1049029D1*
X630002Y1263029D2*
D14*
X646002D1*
X670002Y1287029D1*
X941002D1*
X1060002Y1168029D1*
Y1036196D1*
X1104002Y972029D1*
X1117002Y959029D1*
X1177002Y957958D2*
D15*
X1118073D1*
X1117002Y959029D1*
D14*
X1935002Y881029D3*
X2047002Y746029D3*
X1209002Y707029D3*
X2369002Y723029D3*
X2419002D3*
X2047002Y746029D3*
X2074002Y502029D3*
X1852002Y545029D3*
X2357002Y664029D3*
X1691002Y1485029D3*
X2024002Y1470029D3*
X1485002Y845029D3*
X1706002Y1158029D3*
X717002Y710029D3*
X1584002Y1629029D3*
X1707002Y1597029D3*
X967002Y711029D3*
X808002Y1921029D3*
X1127002Y2023029D3*
X1062002Y2178029D3*
X1051002Y2125029D3*
X2083139Y632143D3*
X2064753Y650529D3*
X1579002Y468029D3*
X1560617Y486415D3*
X1407002Y845029D3*
X1249002Y842029D3*
X1213002Y950029D3*
X1801002Y876029D3*
X1417002Y1007029D3*
X1393002Y807029D3*
X2226002Y732029D3*
X1695002Y690029D3*
X1312002Y1174029D3*
X1240002Y1091029D3*
X1099002Y1237029D3*
X1288876Y1220903D3*
X2139002Y699029D3*
X1075002Y541029D3*
X1916002Y901029D3*
X2074002Y783029D3*
X1780002Y626029D3*
X1715002Y767029D3*
X1698002Y828029D3*
X1719002Y850029D3*
X1828002Y889029D3*
X1317002Y663029D3*
X1315002Y910029D3*
X1351002Y844029D3*
X1207002Y860029D3*
X1407002Y871029D3*
X1103002Y1174029D3*
X1154002Y1218029D3*
X1787002Y960029D3*
X1875002Y944029D3*
X1787002Y960029D3*
X1816065Y581029D3*
X2104002Y970029D3*
X1958002Y955029D3*
X2159002Y771029D3*
D27*
X1551002Y909029D3*
D14*
X1732002Y538029D3*
X1981002Y492029D3*
X1025002Y688029D3*
X1537002Y721029D3*
D27*
X1543002Y869029D3*
D59*
X1541002Y931029D3*
D14*
X1333002Y1121029D3*
X1382002Y1562029D3*
X2166002Y1063029D3*
X1827002Y915029D3*
X1438002Y1029029D3*
X1399002Y687029D3*
X2251002Y689029D3*
X1615002Y667029D3*
X1306002Y768029D3*
X1270002Y863029D3*
X1234002Y973029D3*
X1419002Y1682029D3*
X1209002Y617029D3*
X1401002Y1657029D3*
X1238002Y1003029D3*
X1294002Y894029D3*
X1330002Y793029D3*
X2273002Y723029D3*
X1673002Y669029D3*
X2024002Y1496029D3*
X2158002Y1438029D3*
X1396002Y1034029D3*
X1228002Y886029D3*
X909002Y817029D3*
X771002Y768029D3*
X2143002Y528029D3*
X1585002Y667029D3*
X1541002Y673029D3*
X1631002Y833029D3*
X1531002Y1597029D3*
X1559002Y1164029D3*
X1686002Y1033029D3*
X1529002Y847029D3*
X1789002Y918029D3*
X1462002Y987029D3*
X1420002Y709029D3*
X1153002Y604029D3*
X1506002Y441029D3*
X1871002Y3163029D3*
X1921002D3*
X1971002D3*
X2021002D3*
X2071002D3*
X2121002D3*
Y3113029D3*
X2071002D3*
X2021002D3*
X1971002D3*
X1921002D3*
X1871002D3*
Y3063029D3*
X1921002D3*
X1971002D3*
X2021002D3*
X2071002D3*
X2121002D3*
Y3013029D3*
X2071002D3*
X2021002D3*
X1971002D3*
X1921002D3*
X1871002D3*
Y2963029D3*
X1921002D3*
X1971002D3*
X2021002D3*
X2071002D3*
X2121002D3*
X471002Y2263029D3*
Y2213029D3*
Y2163029D3*
Y2113029D3*
Y2063029D3*
Y2013029D3*
Y1963029D3*
Y1813029D3*
Y1763029D3*
Y1713029D3*
Y1663029D3*
X521002Y1713029D3*
Y1763029D3*
Y1813029D3*
X671002Y2413029D3*
X771002D3*
X871002D3*
X971002D3*
X1071002D3*
X1171002D3*
X1271002D3*
X1371002D3*
X1471002D3*
X1571002D3*
X1671002D3*
X1771002D3*
Y2313029D3*
X571002Y2263029D3*
Y2163029D3*
Y2063029D3*
X1671002Y2313029D3*
X1571002D3*
X1421002Y2363029D3*
X1321002D3*
X1221002D3*
X1121002D3*
X1021002D3*
X1521002D3*
X1621002D3*
X1721002D3*
Y2263029D3*
X1621002D3*
X571002Y1963029D3*
X2221002Y2863029D3*
X2321002D3*
X2221002Y2763029D3*
X2321002D3*
Y2663029D3*
X2221002D3*
Y2563029D3*
X2321002D3*
Y2463029D3*
X2221002D3*
X2321002Y2363029D3*
X2221002D3*
X2121002Y2263029D3*
Y2163029D3*
X2321002Y1963029D3*
Y1863029D3*
X1071002Y2263029D3*
X1171002D3*
X1371002D3*
X1271002D3*
X971002D3*
X1471002D3*
X1671002Y2163029D3*
X1571002D3*
X1771002D3*
X671002Y1963029D3*
Y2063029D3*
Y2163029D3*
Y2263029D3*
X2071002Y1663029D3*
X2171002D3*
X2271002D3*
X2371002Y1763029D3*
Y1863029D3*
Y1963029D3*
Y1563029D3*
Y1463029D3*
X1861002Y2825660D2*
D23*
X2131027D1*
X1861002Y2800791D2*
X2131027D1*
X1861002Y2775923D2*
X2131027D1*
X1861002Y2751054D2*
X2131027D1*
X1861002Y2726185D2*
X2131027D1*
X1861002Y2701316D2*
X2131027D1*
X1861002Y2676448D2*
X2131027D1*
X1861002Y2651579D2*
X2131027D1*
X1861002Y2626710D2*
X2131027D1*
X1861002Y2601841D2*
X2131027D1*
X1861002Y2576973D2*
X2126388D1*
X1861002Y2552104D2*
X2121700D1*
X1861002Y2527235D2*
X2117061D1*
X1861002Y2502366D2*
X2112375D1*
X1861002Y2477497D2*
X2107736D1*
X1861002Y2452629D2*
X2103048D1*
X1861002Y2427760D2*
X2098409D1*
X1861002Y2402891D2*
X2093721D1*
X1861002Y2378022D2*
X2089084D1*
X1861002Y2353154D2*
X2084396D1*
X1861002Y2328285D2*
X2079757D1*
X1861002Y2303416D2*
X2075069D1*
X1861002Y2278547D2*
X2070431D1*
X1861002Y2253679D2*
X2065744D1*
X1861002Y2228810D2*
X2061105D1*
X1861002Y2203941D2*
X2056417D1*
X1861002Y2179072D2*
X2051779D1*
X1861002Y2154204D2*
X2047092D1*
X1861002Y2129335D2*
X2042452D1*
X1861002Y2104466D2*
X2037765D1*
X1861002Y2079597D2*
X2033127D1*
X1861002Y2054728D2*
X2028439D1*
X1861002Y2029860D2*
X2023800D1*
X1861002Y2004991D2*
X2018039D1*
X1861002Y1980122D2*
X1994748D1*
X1861002Y1955253D2*
X1971408D1*
X1861002Y1930385D2*
X1948117D1*
X1861002Y1905516D2*
X1924777D1*
X1861002Y1880647D2*
X1901485D1*
X1861002Y1855778D2*
X1878145D1*
X2021891Y2006432D2*
X2133513Y2601748D1*
X2133502Y2850529D1*
X1858502D1*
Y1832121D1*
X2021925Y2006457D1*
X1865014Y3146660D2*
X2158060D1*
X2375951D2*
X2428959D1*
X1865063Y3121791D2*
X2143462D1*
X2390502D2*
X2446342D1*
X1865111Y3096923D2*
X2135160D1*
X2398851D2*
X2453959D1*
X1865160Y3072054D2*
X2131938D1*
X2402075D2*
X2455962D1*
X1865210Y3047185D2*
X2133451D1*
X2400560D2*
X2455912D1*
X1865258Y3022316D2*
X2139799D1*
X2394214D2*
X2455863D1*
X1865307Y2997448D2*
X2151908D1*
X2382103D2*
X2455815D1*
X1865355Y2972579D2*
X2171879D1*
X2362084D2*
X2455766D1*
X1865404Y2947710D2*
X2207622D1*
X2326391D2*
X2455668D1*
X1865454Y2922841D2*
X2455619D1*
X1865454Y2897973D2*
X2455571D1*
X2175023Y2873104D2*
X2455522D1*
X2175023Y2848235D2*
X2455472D1*
X2175023Y2823366D2*
X2455424D1*
X2175023Y2798497D2*
X2455326D1*
X2175023Y2773629D2*
X2455278D1*
X2175023Y2748760D2*
X2455228D1*
X2175023Y2723891D2*
X2455179D1*
X2175023Y2699022D2*
X2455131D1*
X2175023Y2674154D2*
X2455082D1*
X2175023Y2649285D2*
X2454984D1*
X2175023Y2624416D2*
X2454935D1*
X2175023Y2599547D2*
X2454887D1*
X2175023Y2574679D2*
X2454838D1*
X2165942Y2549810D2*
X2454790D1*
X2161254Y2524941D2*
X2454740D1*
X2156615Y2500072D2*
X2454643D1*
X1795727Y2475204D2*
X1816996D1*
X2151928D2*
X2454594D1*
X1744603Y2450335D2*
X1816996D1*
X2147290D2*
X2454546D1*
X476391Y2425466D2*
X1816996D1*
X2142651D2*
X2454496D1*
X452758Y2400597D2*
X1816996D1*
X2137963D2*
X2454447D1*
X442748Y2375728D2*
X1816996D1*
X2133324D2*
X2454399D1*
X440991Y2350860D2*
X1816996D1*
X2128636D2*
X2454300D1*
X440892Y2325991D2*
X1816996D1*
X2123998D2*
X2454252D1*
X440844Y2301122D2*
X1816996D1*
X2119311D2*
X2244340D1*
X2289623D2*
X2454203D1*
X440746Y2276253D2*
X1816996D1*
X2114672D2*
X2185063D1*
X2348900D2*
X2454155D1*
X440648Y2251385D2*
X1816996D1*
X2109984D2*
X2159770D1*
X2374242D2*
X2454106D1*
X440599Y2226516D2*
X675931D1*
X911059D2*
X1816996D1*
X2105346D2*
X2144487D1*
X2389526D2*
X2454008D1*
X440502Y2201647D2*
X675931D1*
X1099242D2*
X1816996D1*
X2100659D2*
X2135698D1*
X2398315D2*
X2453959D1*
X440404Y2176778D2*
X675931D1*
X1335424D2*
X1816996D1*
X2096019D2*
X2132035D1*
X2401976D2*
X2453910D1*
X440355Y2151910D2*
X675931D1*
X1519506D2*
X1816996D1*
X2091332D2*
X2133110D1*
X2400903D2*
X2453862D1*
X440258Y2127041D2*
X675931D1*
X1547143D2*
X1816996D1*
X2086694D2*
X2139018D1*
X2394994D2*
X2453812D1*
X440160Y2102172D2*
X675931D1*
X2082006D2*
X2150542D1*
X2383471D2*
X2453763D1*
X440111Y2077303D2*
X675931D1*
X2077367D2*
X2169682D1*
X2364330D2*
X2453666D1*
X440014Y2052434D2*
X675931D1*
X2330834D2*
X2453618D1*
X439916Y2027566D2*
X675931D1*
X2251294D2*
X2453568D1*
X439867Y2002697D2*
X675931D1*
X2257494D2*
X2453519D1*
X439770Y1977828D2*
X675931D1*
X2252807D2*
X2453471D1*
X439672Y1952959D2*
X675931D1*
X2233374D2*
X2453422D1*
X439623Y1928091D2*
X675931D1*
X2057494D2*
X2453324D1*
X439526Y1903222D2*
X737895D1*
X2057494D2*
X2453275D1*
X439428Y1878353D2*
X733012D1*
X2057494D2*
X2453227D1*
X439379Y1853484D2*
X733012D1*
X2057494D2*
X2453178D1*
X439282Y1828616D2*
X733012D1*
X2057494D2*
X2453130D1*
X439183Y1803747D2*
X733012D1*
X2057690D2*
X2453080D1*
X439135Y1778878D2*
X676518D1*
X2053539D2*
X2452983D1*
X439038Y1754009D2*
X660014D1*
X2035034D2*
X2452934D1*
X438939Y1729141D2*
X590384D1*
X1853979D2*
X2452884D1*
X438891Y1704272D2*
X573491D1*
X1860278D2*
X2452836D1*
X438794Y1679403D2*
X568022D1*
X1885131D2*
X2452787D1*
X438695Y1654534D2*
X514458D1*
X1910034D2*
X2452739D1*
X438647Y1629665D2*
X496976D1*
X2269555D2*
X2452640D1*
X438550Y1604797D2*
X490727D1*
X2299291D2*
X2452592D1*
X438451Y1579928D2*
X497367D1*
X2299291D2*
X2452543D1*
X438403Y1555059D2*
X453870D1*
X2299291D2*
X2452494D1*
X2305931Y1530190D2*
X2452446D1*
X2325854Y1505322D2*
X2452347D1*
X438159Y1480453D2*
X454880D1*
X2328002D2*
X2452299D1*
X2328002Y1455584D2*
X2452250D1*
X2328002Y1430715D2*
X2452202D1*
X2328002Y1405847D2*
X2452152D1*
X2328002Y1380978D2*
X2452103D1*
X690916Y2227705D2*
X908581D1*
Y2217109D1*
X1048694Y2217337D1*
X1055313Y2218987D1*
X1062114Y2219529D1*
X1068912Y2218950D1*
X1075522Y2217265D1*
X1081767Y2214520D1*
X1087479Y2210789D1*
X1093762Y2204959D1*
X1098173Y2199755D1*
X1101672Y2193899D1*
X1104164Y2187549D1*
X1105582Y2180875D1*
X1105903Y2175246D1*
X1106968Y2175685D1*
X1117050Y2185585D1*
X1122319Y2189413D1*
X1128120Y2192370D1*
X1134315Y2194382D1*
X1140746Y2195402D1*
X1206502Y2195529D1*
X1300258Y2195402D1*
X1306690Y2194382D1*
X1312884Y2192370D1*
X1318686Y2189413D1*
X1323955Y2185585D1*
X1353174Y2156547D1*
X1501258Y2156402D1*
X1507690Y2155382D1*
X1513884Y2153370D1*
X1519686Y2150413D1*
X1524955Y2146585D1*
X1560182Y2111539D1*
X1819539Y2111529D1*
X1819502Y2497941D1*
X1817842Y2496192D1*
X1787605Y2470612D1*
X1751231Y2452466D1*
X1711816Y2443566D1*
X524863Y2440534D1*
X501235Y2438160D1*
X483971Y2432162D1*
X474281Y2425882D1*
X451847Y2403427D1*
X444651Y2390812D1*
X440073Y2375057D1*
X438481Y2353314D1*
X435560Y1456186D1*
X444798Y1464955D1*
X450232Y1468000D1*
X456228Y1469690D1*
X460374Y1470017D1*
X473400Y1470309D1*
X458924Y1479043D1*
X454577Y1483505D1*
X451392Y1488858D1*
X450004Y1492780D1*
X442710Y1521264D1*
X442791Y1527494D1*
X444324Y1533530D1*
X446114Y1537284D1*
X461098Y1562584D1*
X465560Y1566932D1*
X470914Y1570117D1*
X474834Y1571505D1*
X499635Y1578133D1*
X500004Y1579383D1*
X492710Y1607868D1*
X492791Y1614097D1*
X494324Y1620134D1*
X496114Y1623887D1*
X511098Y1649188D1*
X515560Y1653536D1*
X520914Y1656721D1*
X524834Y1658109D1*
X553320Y1665403D1*
X559548Y1665322D1*
X565586Y1663789D1*
X569338Y1661999D1*
X580799Y1655382D1*
X572242Y1670810D1*
X570710Y1676848D1*
X570628Y1683078D1*
X571386Y1687165D1*
X579311Y1715482D1*
X582496Y1720835D1*
X586842Y1725297D1*
X590270Y1727652D1*
X615897Y1742071D1*
X621935Y1743605D1*
X628164Y1743686D1*
X632252Y1742929D1*
X657044Y1736269D1*
X657988Y1737165D1*
X665913Y1765482D1*
X669098Y1770835D1*
X673445Y1775297D1*
X676872Y1777652D1*
X702500Y1792072D1*
X708538Y1793605D1*
X714766Y1793686D1*
X718854Y1792929D1*
X735504Y1788467D1*
X735615Y1887892D1*
X736510Y1893550D1*
X738281Y1898997D1*
X740882Y1904100D1*
X744248Y1908734D1*
X761695Y1926341D1*
X678416Y1926311D1*
Y2227705D1*
X690916D1*
X1863009Y2890529D2*
X2172502D1*
Y2567529D1*
X2166790D1*
X2070842Y2055882D1*
X2081035Y2059336D1*
X2090329Y2060809D1*
X2132534Y2060994D1*
X2191470D1*
X2180866Y2069176D1*
X2173218Y2076244D1*
X2166149Y2083892D1*
X2159702Y2092070D1*
X2153916Y2100730D1*
X2148826Y2109815D1*
X2144467Y2119273D1*
X2140862Y2129043D1*
X2138035Y2139067D1*
X2136004Y2149281D1*
X2134781Y2159623D1*
X2134371Y2170029D1*
X2134781Y2180434D1*
X2136004Y2190777D1*
X2138035Y2200991D1*
X2140862Y2211015D1*
X2144467Y2220785D1*
X2148826Y2230243D1*
X2153916Y2239328D1*
X2159702Y2247988D1*
X2166149Y2256165D1*
X2173218Y2263814D1*
X2180866Y2270882D1*
X2189043Y2277330D1*
X2197703Y2283116D1*
X2206788Y2288205D1*
X2216246Y2292564D1*
X2226017Y2296169D1*
X2236040Y2298996D1*
X2246254Y2301028D1*
X2256597Y2302251D1*
X2267002Y2302660D1*
X2277408Y2302251D1*
X2287750Y2301028D1*
X2297964Y2298996D1*
X2307988Y2296169D1*
X2317758Y2292564D1*
X2327216Y2288205D1*
X2336302Y2283116D1*
X2344962Y2277330D1*
X2353139Y2270882D1*
X2360787Y2263814D1*
X2367855Y2256165D1*
X2374303Y2247988D1*
X2380089Y2239328D1*
X2385178Y2230243D1*
X2389538Y2220785D1*
X2393143Y2211015D1*
X2395970Y2200991D1*
X2398001Y2190777D1*
X2399224Y2180434D1*
X2399634Y2170029D1*
X2399224Y2159623D1*
X2398001Y2149281D1*
X2395970Y2139067D1*
X2393143Y2129043D1*
X2389538Y2119273D1*
X2385178Y2109815D1*
X2380089Y2100730D1*
X2374303Y2092070D1*
X2367855Y2083892D1*
X2360787Y2076244D1*
X2353139Y2069176D1*
X2344962Y2062728D1*
X2336302Y2056942D1*
X2327216Y2051853D1*
X2317758Y2047494D1*
X2307988Y2043889D1*
X2297964Y2041062D1*
X2287750Y2039030D1*
X2277408Y2037807D1*
X2267002Y2037398D1*
X2256597Y2037807D1*
X2240470Y2040181D1*
X2246162Y2032361D1*
X2250434Y2023976D1*
X2253342Y2015028D1*
X2254813Y2005734D1*
Y1996324D1*
X2253342Y1987030D1*
X2250434Y1978081D1*
X2246162Y1969697D1*
X2240631Y1962085D1*
X2233977Y1955432D1*
X2226366Y1949900D1*
X2217981Y1945629D1*
X2209033Y1942721D1*
X2199739Y1941249D1*
X2145034Y1941064D1*
X2090329Y1941249D1*
X2081035Y1942721D1*
X2072086Y1945629D1*
X2063702Y1949900D1*
X2056076Y1955444D1*
X2054998Y1951029D1*
X2055262Y1801029D1*
X2054523Y1791648D1*
X2052328Y1782499D1*
X2048727Y1773806D1*
X2043809Y1765782D1*
X2037699Y1758627D1*
X2030544Y1752517D1*
X2022521Y1747600D1*
X2013828Y1743999D1*
X2004678Y1741803D1*
X1995298Y1741064D1*
X1908925D1*
X1900123Y1739718D1*
X1890472D1*
X1881773Y1741063D1*
X1851502Y1741064D1*
Y1710520D1*
X1927560Y1634516D1*
X2112732Y1634324D1*
X2122018Y1632895D1*
X2130082Y1637826D1*
X2138998Y1641518D1*
X2148382Y1643772D1*
X2158002Y1644529D1*
X2231828Y1644340D1*
X2241359Y1642830D1*
X2250538Y1639848D1*
X2259136Y1635466D1*
X2266943Y1629794D1*
X2273767Y1622970D1*
X2279439Y1615163D1*
X2282195Y1613309D1*
X2296809D1*
Y1536853D1*
X2316757Y1516734D1*
X2320124Y1512100D1*
X2322724Y1506997D1*
X2324494Y1501550D1*
X2325389Y1495892D1*
X2325502Y1405529D1*
Y1356652D1*
X2454531Y1357558D1*
X2458501Y3082504D1*
X2455010Y3107307D1*
X2446118Y3128259D1*
X2432107Y3146194D1*
X2413931Y3159894D1*
X2392832Y3168424D1*
X2367518Y3171542D1*
X2349307Y3171529D1*
X2360787Y3161315D1*
X2367855Y3153667D1*
X2374303Y3145490D1*
X2380089Y3136830D1*
X2385178Y3127744D1*
X2389538Y3118286D1*
X2393143Y3108516D1*
X2395970Y3098492D1*
X2398001Y3088278D1*
X2399224Y3077936D1*
X2399634Y3067530D1*
X2399224Y3057125D1*
X2398001Y3046782D1*
X2395970Y3036568D1*
X2393143Y3026545D1*
X2389538Y3016774D1*
X2385178Y3007316D1*
X2380089Y2998231D1*
X2374303Y2989571D1*
X2367855Y2981394D1*
X2360787Y2973746D1*
X2353139Y2966677D1*
X2344962Y2960230D1*
X2336302Y2954444D1*
X2327216Y2949354D1*
X2317758Y2944995D1*
X2307988Y2941390D1*
X2297964Y2938563D1*
X2287750Y2936532D1*
X2277408Y2935309D1*
X2267002Y2934899D1*
X2256597Y2935309D1*
X2246254Y2936532D1*
X2236040Y2938563D1*
X2226017Y2941390D1*
X2216246Y2944995D1*
X2206788Y2949354D1*
X2197703Y2954444D1*
X2189043Y2960230D1*
X2180866Y2966677D1*
X2173218Y2973746D1*
X2166149Y2981394D1*
X2159702Y2989571D1*
X2153916Y2998231D1*
X2148826Y3007316D1*
X2144467Y3016774D1*
X2140862Y3026545D1*
X2138035Y3036568D1*
X2136004Y3046782D1*
X2134781Y3057125D1*
X2134371Y3067530D1*
X2134781Y3077936D1*
X2136004Y3088278D1*
X2138035Y3098492D1*
X2140862Y3108516D1*
X2144467Y3118286D1*
X2148826Y3127744D1*
X2153916Y3136830D1*
X2159702Y3145490D1*
X2166149Y3153667D1*
X2173218Y3161315D1*
X2184858Y3171532D1*
X1876943Y3171528D1*
X1871627Y3170669D1*
X1868602Y3169291D1*
X1866051Y3167167D1*
X1864157Y3164453D1*
X1863042Y3161328D1*
X1862493Y3154364D1*
X1862988Y2890526D1*
X466034Y1474576D2*
X458924Y1479043D1*
X454577Y1483505D1*
X451392Y1488860D1*
X447488Y1502219D1*
X443008Y1519205D1*
X442601Y1525420D1*
X443656Y1531560D1*
X445145Y1535442D1*
X450174Y1544291D1*
X459854Y1560917D1*
X463960Y1565601D1*
X469048Y1569197D1*
X474834Y1571505D1*
D30*
X793498Y2175614D3*
Y1978402D3*
Y2077402D3*
D31*
X522782Y2365402D3*
Y1887402D3*
D30*
X793498Y2274039D3*
D32*
X1996002Y2729029D3*
Y3049029D3*
D33*
X972002Y1496029D3*
D34*
X772002D3*
D35*
X2026002Y553029D3*
Y486100D3*
X1117002Y959029D3*
Y892100D3*
X2124002Y810029D3*
Y743100D3*
D36*
X1996002Y980029D3*
X2062931D3*
D37*
X1595002Y2001029D3*
D38*
X1695002D3*
X1595002Y1901029D3*
X1695002D3*
X1595002Y1801029D3*
X1695002D3*
D37*
X1295002Y2051029D3*
D38*
X1395002D3*
X1295002Y1951029D3*
X1395002D3*
X1295002Y1851029D3*
X1395002D3*
X1295002Y1751029D3*
X1395002D3*
D37*
X1895298Y1801029D3*
D38*
X1995298D3*
X2095298D3*
X2195298D3*
D37*
X1895034Y1901284D3*
D38*
X1995034D3*
X2095034D3*
X2195034D3*
D37*
X1895034Y2001029D3*
D38*
X1995034D3*
X2095034D3*
X2195034D3*
D37*
X1195002Y2051029D3*
D38*
Y1951029D3*
Y1851029D3*
D39*
X630002Y1263029D3*
D40*
Y1313029D3*
Y1363029D3*
Y1413029D3*
Y1463029D3*
D41*
X1664753Y542029D3*
D42*
X1614753D3*
X1564753D3*
X1514753D3*
X1464753D3*
D41*
X1321002D3*
D42*
X1271002D3*
X1221002D3*
X1171002D3*
X1121002D3*
D34*
X2329002Y849029D3*
D43*
X2229002D3*
X2329002Y949029D3*
X2229002D3*
X2329002Y1049029D3*
X2229002D3*
X2329002Y1149029D3*
X2229002D3*
X2329002Y1249029D3*
X2229002D3*
D37*
X1506502Y1508780D3*
D38*
X1606502D3*
X1506502Y1408780D3*
X1606502D3*
X1506502Y1308780D3*
X1606502D3*
X1506502Y1208780D3*
X1606502D3*
D37*
X2006382Y1409185D3*
D38*
Y1309185D3*
Y1209185D3*
Y1109185D3*
D37*
X1906371Y1409185D3*
D38*
Y1309185D3*
Y1209185D3*
Y1109185D3*
D37*
X1806106Y1408912D3*
D38*
Y1308912D3*
Y1208912D3*
Y1108912D3*
D37*
X1607002Y1009029D3*
D38*
X1507002D3*
X1607002Y1109029D3*
X1507002D3*
D37*
X823002Y1214029D3*
D38*
X923002D3*
D45*
X1377252Y856778D3*
X1302449D3*
X1339850Y947330D3*
D35*
X1070002Y665029D3*
Y731958D3*
D36*
X1316002Y704029D3*
X1249073D3*
D35*
X1177002Y891029D3*
Y957958D3*
D36*
X1109002Y831029D3*
X1175931D3*
D35*
X1276002Y1052029D3*
Y1118958D3*
D48*
X2227002Y1513029D3*
Y1573029D3*
D49*
X2367002Y1384029D3*
Y1642029D3*
D48*
X2227002Y1453029D3*
X639480Y706710D3*
Y646710D3*
D49*
X499480Y835710D3*
Y577710D3*
D48*
X639480Y766710D3*
D120*
X823002Y963029D3*
X923002D3*
D121*
X1244609Y1519728D3*
X1194609Y1606331D3*
D122*
X1116304Y1684226D3*
X1029700Y1734226D3*
D123*
X1029702Y991422D3*
X1116304Y1041422D3*
D124*
X473002Y1413029D3*
Y1313029D3*
D125*
X923002Y1763029D3*
X823002D3*
D126*
X1194199Y1119728D3*
X1244199Y1206331D3*
D127*
X501395Y1206330D3*
X551395Y1119727D3*
D128*
X716303Y1734636D3*
X629700Y1684636D3*
D129*
X1273002Y1313029D3*
Y1413029D3*
D130*
X629701Y1041832D3*
X716305Y991832D3*
D131*
X551806Y1606330D3*
X501806Y1519727D3*
D53*
X1508502Y848029D3*
X1567557D3*
D54*
X1605943Y828928D3*
Y809243D3*
Y789558D3*
Y769873D3*
Y750186D3*
Y730501D3*
Y710816D3*
Y691131D3*
D53*
X1567557Y672030D3*
X1508502D3*
D54*
X1470117Y691131D3*
Y710816D3*
Y730501D3*
Y750186D3*
Y769873D3*
Y789558D3*
Y809243D3*
Y828928D3*
D55*
X1538030Y760029D3*
D132*
X2014753Y706778D3*
X2000834Y692858D3*
X1986914Y678940D3*
X1972994Y665020D3*
X1959076Y651100D3*
X1945156Y637181D3*
X1931237Y623261D3*
X1917317Y609343D3*
X1903397Y595423D3*
D135*
X1858299D3*
X1844379Y609343D3*
X1830460Y623261D3*
X1816540Y637181D3*
X1802622Y651100D3*
X1788702Y665020D3*
X1774782Y678940D3*
X1760863Y692858D3*
X1746943Y706778D3*
D132*
Y751877D3*
X1760863Y765797D3*
X1774782Y779715D3*
X1788702Y793635D3*
X1802622Y807555D3*
X1816540Y821474D3*
X1830460Y835394D3*
X1844379Y849312D3*
X1858299Y863232D3*
D135*
X1903397D3*
X1917317Y849312D3*
X1931237Y835394D3*
X1945156Y821474D3*
X1959076Y807555D3*
X1972994Y793635D3*
X1986914Y779715D3*
X2000834Y765797D3*
X2014753Y751877D3*
D138*
X1880849Y729327D3*
D58*
X2035002Y927029D3*
X2121617D3*
Y864038D3*
X2035002D3*
M02*
