M48
INCH
T01C0.01
T02C0.012
T03C0.0276
T04C0.032
T05C0.0354
T06C0.0394
T07C0.0433
T08C0.11
%
T01
X+015410Y+009310
T02
X+018710Y+031630
X+019210Y+031630
X+019710Y+031630
X+020210Y+031630
X+020710Y+031630
X+021210Y+031630
X+021210Y+031130
X+020710Y+031130
X+020210Y+031130
X+019710Y+031130
X+019210Y+031130
X+018710Y+031130
X+018710Y+030630
X+019210Y+030630
X+019710Y+030630
X+020210Y+030630
X+020710Y+030630
X+021210Y+030630
X+021210Y+030130
X+021210Y+029630
X+020710Y+029630
X+020710Y+030130
X+020210Y+030130
X+020210Y+029630
X+019710Y+029630
X+019710Y+030130
X+019210Y+030130
X+019210Y+029630
X+018710Y+029630
X+018710Y+030130
X+022210Y+028630
X+023210Y+028630
X+023210Y+027630
X+022210Y+027630
X+022210Y+026630
X+023210Y+026630
X+023210Y+025630
X+022210Y+025630
X+022210Y+024630
X+023210Y+024630
X+023210Y+023630
X+022210Y+023630
X+021210Y+022630
X+021210Y+021630
X+023210Y+019630
X+023710Y+019630
X+023710Y+018630
X+023210Y+018630
X+023710Y+017630
X+022710Y+016630
X+021710Y+016630
X+020710Y+016630
X+020240Y+014960
X+020240Y+014700
X+021580Y+014380
X+023710Y+014630
X+023710Y+015630
X+021660Y+010630
X+021040Y+009700
X+019580Y+009550
X+019160Y+009010
X+019350Y+008810
X+018750Y+009440
X+018270Y+009150
X+018280Y+008890
X+018010Y+008760
X+017890Y+009180
X+017870Y+009600
X+016860Y+010330
X+017060Y+011580
X+015590Y+011640
X+014380Y+010290
X+014170Y+010070
X+013960Y+010340
X+014620Y+009870
X+015510Y+009090
X+015430Y+008690
X+015290Y+008470
X+014850Y+008450
X+014070Y+008450
X+014070Y+008710
X+013510Y+008440
X+013300Y+007930
X+013060Y+007680
X+012490Y+008420
X+012700Y+008630
X+012940Y+008940
X+013150Y+009100
X+012280Y+008860
X+012070Y+008600
X+012130Y+009500
X+012340Y+009730
X+012380Y+010030
X+012400Y+010910
X+013330Y+011210
X+013120Y+011740
X+012889Y+012209
X+011540Y+012180
X+010990Y+012370
X+011030Y+011740
X+009090Y+008170
X+009670Y+007110
X+010250Y+006880
X+011530Y+006040
X+012090Y+006170
X+012090Y+007070
X+013170Y+006630
X+013990Y+006870
X+014200Y+007090
X+013930Y+008070
X+015370Y+007210
X+015410Y+006730
X+015850Y+006670
X+016150Y+006670
X+016730Y+006690
X+016950Y+006900
X+017150Y+007670
X+016980Y+008280
X+017190Y+008500
X+016310Y+008330
X+017800Y+006260
X+018161Y+005810
X+018520Y+005450
X+017320Y+005380
X+015790Y+004680
X+015606Y+004864
X+015060Y+004410
X+010750Y+005410
X+007710Y+007680
X+007170Y+007100
X+004710Y+016630
X+004710Y+017130
X+004710Y+017630
X+004710Y+018130
X+005210Y+018130
X+005210Y+017630
X+005210Y+017130
X+005710Y+019630
X+004710Y+019630
X+004710Y+020130
X+004710Y+020630
X+004710Y+021130
X+004710Y+021630
X+004710Y+022130
X+004710Y+022630
X+005710Y+022630
X+005710Y+021630
X+005710Y+020630
X+006710Y+020630
X+006710Y+021630
X+006710Y+022630
X+006710Y+024130
X+007710Y+024130
X+008710Y+024130
X+009710Y+024130
X+010210Y+023630
X+010710Y+024130
X+011210Y+023630
X+011710Y+024130
X+012210Y+023630
X+012710Y+024130
X+013210Y+023630
X+013710Y+024130
X+014210Y+023630
X+014710Y+024130
X+015210Y+023630
X+015710Y+024130
X+016210Y+023630
X+016710Y+024130
X+017210Y+023630
X+017710Y+024130
X+017710Y+023130
X+017210Y+022630
X+016710Y+023130
X+016210Y+022630
X+015710Y+023130
X+014710Y+022630
X+013710Y+022630
X+012710Y+022630
X+011710Y+022630
X+010710Y+022630
X+010620Y+021780
X+010510Y+021250
X+011270Y+020230
X+009710Y+022630
X+008080Y+019210
X+006710Y+019630
X+014010Y+016570
X+014190Y+016820
X+013820Y+015620
X+015310Y+015970
X+015840Y+016290
X+017070Y+015970
X+016910Y+014850
X+016710Y+021630
X+015710Y+021630
X+017710Y+021630
X+020740Y+007830
X+020470Y+007460
X+020648Y+006505
X+020831Y+006321
X+021390Y+006990
X+021590Y+007710
X+022260Y+007320
X+022730Y+007230
X+022510Y+006890
X+023570Y+006640
X+023690Y+007230
X+024190Y+007230
X+021430Y+005280
X+020740Y+005020
X+019810Y+004920
T03
X+006300Y+012630
X+006300Y+013130
X+006300Y+013630
X+006300Y+014130
X+006300Y+014630
X+011210Y+005420
X+011710Y+005420
X+012210Y+005420
X+012710Y+005420
X+013210Y+005420
X+014648Y+005420
X+015148Y+005420
X+015648Y+005420
X+016148Y+005420
X+016648Y+005420
T04
X+008230Y+009630
X+009230Y+009630
X+010297Y+009914
X+011163Y+010414
X+011942Y+011197
X+012442Y+012063
X+012730Y+013130
X+012730Y+014130
X+012446Y+015197
X+011946Y+016063
X+011163Y+016842
X+010297Y+017342
X+009230Y+017630
X+008230Y+017630
X+007163Y+017346
X+006297Y+016846
X+005518Y+016063
X+005018Y+015197
X+004730Y+014130
X+004730Y+013130
X+005014Y+012063
X+005514Y+011197
X+006297Y+010418
X+007163Y+009918
T05
X+009720Y+014960
X+007720Y+014960
T06
X+023290Y+008490
X+022290Y+008490
X+022290Y+009490
X+022290Y+010490
X+022290Y+011490
X+023290Y+011490
X+023290Y+010490
X+023290Y+009490
X+023290Y+012490
X+022290Y+012490
T07
X+015950Y+020010
X+015950Y+019010
X+015950Y+018010
X+016950Y+018010
X+016950Y+019010
X+016950Y+020010
X+018950Y+020010
X+018950Y+019013
X+019950Y+019013
X+019950Y+020010
X+020950Y+020010
X+020950Y+019013
X+021950Y+019013
X+021950Y+020010
X+021953Y+018010
X+020953Y+018010
X+019953Y+018010
X+018953Y+018010
X+019064Y+014092
X+019064Y+013092
X+019064Y+012092
X+019064Y+011092
X+020064Y+011092
X+020064Y+012092
X+020064Y+013092
X+020064Y+014092
X+018061Y+014089
X+018061Y+013089
X+018061Y+012089
X+018061Y+011089
X+016070Y+011090
X+016065Y+012088
X+016065Y+013088
X+015065Y+013088
X+015065Y+012088
X+015070Y+011090
X+015070Y+010090
X+016070Y+010090
X+016065Y+014088
X+016065Y+015088
X+015065Y+015088
X+015065Y+014088
X+013950Y+017510
X+013950Y+018510
X+013950Y+019510
X+013950Y+020510
X+012950Y+020510
X+012950Y+019510
X+011950Y+019510
X+011950Y+018510
X+012950Y+018510
X+012950Y+017510
X+011950Y+020510
X+009230Y+012140
X+008230Y+012140
T08
X+022670Y+005560
X+008770Y+005560
X+022670Y+021700
X+022670Y+030675
T00
M30
