G04 DipTrace 3.1.0.1*
G04 BottomSilk.gbr*
%MOIN*%
G04 #@! TF.FileFunction,Legend,Bot*
G04 #@! TF.Part,Single*
%ADD10C,0.009843*%
%ADD44C,0.015404*%
%ADD51C,0.005*%
%ADD52C,0.025008*%
%ADD56C,0.011773*%
%ADD57O,0.015463X0.015353*%
%FSLAX26Y26*%
G04*
G70*
G90*
G75*
G01*
G04 BotSilk*
%LPD*%
X434498Y1826396D2*
D10*
X534488D1*
X434498D2*
Y2426402D1*
X534488D1*
X718490D2*
X836472D1*
X718490Y1826396D2*
X836472D1*
X837233D2*
Y1889397D1*
Y2363401D2*
Y2426402D1*
D44*
X1408101Y842069D3*
X1398900Y892211D2*
D10*
X1280795D1*
Y911897D1*
X1398900D1*
Y892211D1*
X2410999Y1687034D2*
X2436002D1*
Y1339029D1*
X2417004D1*
X2316989D2*
X2199010D1*
X2316989Y1687034D2*
X2199010D1*
X2198253D2*
Y1624045D1*
Y1402018D2*
Y1339029D1*
X455484Y532705D2*
X430480D1*
Y880710D1*
X449479D1*
X549493D2*
X667472D1*
X549493Y532705D2*
X667472D1*
X668229D2*
Y595694D1*
Y817721D2*
Y880710D1*
X1450530Y872518D2*
D51*
X1625530D1*
Y647530D1*
X1450530D1*
Y872518D1*
D52*
X1600531Y897535D3*
D56*
X2039550Y682562D3*
X1891994Y885239D2*
D10*
X1880851Y896363D1*
X1869709Y885205D1*
X1724922Y718206D2*
X1713813Y729331D1*
X1724955Y740455D2*
X1713813Y729331D1*
X1880851Y562299D2*
X1869709Y573423D1*
X1891961Y573456D2*
X1880851Y562299D1*
X2036748Y718206D2*
Y740455D1*
D57*
X2017683Y966422D3*
M02*
