G04 DipTrace 3.1.0.1*
G04 Top.gbr*
%MOIN*%
G04 #@! TF.FileFunction,Copper,L1,Top*
G04 #@! TF.Part,Single*
%AMOUTLINE0*5,1,8,0,0,0.066,-22.49998*%
%AMOUTLINE1*5,1,8,0,0,0.066,-262.500516*%
%AMOUTLINE2*5,1,8,0,0,0.066001,-232.500313*%
%AMOUTLINE3*5,1,8,0,0,0.066,7.499484*%
%AMOUTLINE4*5,1,8,0,0,0.066,-112.49998*%
%AMOUTLINE5*5,1,8,0,0,0.066,-202.49998*%
%AMOUTLINE6*5,1,8,0,0,0.066001,37.499687*%
%AMOUTLINE7*5,1,8,0,0,0.066,-82.500516*%
%AMOUTLINE8*5,1,8,0,0,0.066,-172.500516*%
%AMOUTLINE9*5,1,8,0,0,0.066,67.50002*%
%AMOUTLINE10*5,1,8,0,0,0.066001,-52.500313*%
%AMOUTLINE11*5,1,8,0,0,0.066001,-142.500313*%
G04 #@! TA.AperFunction,ViaPad*
%ADD14C,0.02*%
G04 #@! TA.AperFunction,Conductor*
%ADD15C,0.01*%
%ADD16C,0.04*%
%ADD17C,0.066929*%
%ADD18C,0.07*%
%ADD19C,0.03*%
%ADD21C,0.06*%
%ADD22C,0.14*%
G04 #@! TA.AperFunction,CopperBalancing*
%ADD23C,0.025*%
G04 #@! TA.AperFunction,Conductor*
%ADD24C,0.008*%
%ADD25C,0.014*%
%ADD26C,0.007*%
G04 #@! TA.AperFunction,ViaPad*
%ADD27C,0.015*%
G04 #@! TA.AperFunction,ComponentPad*
%ADD33C,0.062992*%
%ADD34R,0.062992X0.062992*%
%ADD35R,0.03937X0.043307*%
%ADD36R,0.043307X0.03937*%
G04 #@! TA.AperFunction,ComponentPad*
%ADD37R,0.066929X0.066929*%
%ADD38C,0.066929*%
%ADD39R,0.051181X0.03937*%
%ADD40O,0.051181X0.03937*%
%ADD41R,0.03937X0.051181*%
%ADD42O,0.03937X0.051181*%
%ADD43C,0.062992*%
%ADD46R,0.014X0.0195*%
%ADD47R,0.0195X0.014*%
G04 #@! TA.AperFunction,ViaPad*
%ADD59C,0.012*%
G04 #@! TA.AperFunction,ComponentPad*
%ADD120OUTLINE0*%
%ADD121OUTLINE1*%
%ADD122OUTLINE2*%
%ADD123OUTLINE3*%
%ADD124OUTLINE4*%
%ADD125OUTLINE5*%
%ADD126OUTLINE6*%
%ADD127OUTLINE7*%
%ADD128OUTLINE8*%
%ADD129OUTLINE9*%
%ADD130OUTLINE10*%
%ADD131OUTLINE11*%
%FSLAX26Y26*%
G04*
G70*
G90*
G75*
G01*
G04 Top*
%LPD*%
X1395002Y1751029D2*
D14*
X1411002D1*
X1454002Y1708029D1*
Y1661486D1*
Y1160029D1*
X1505002Y1109029D1*
X1507002D1*
X1935002Y881029D2*
D15*
X1965002Y851029D1*
Y848029D1*
X2013002D1*
X2014002Y849029D1*
X2047002Y746029D2*
X2046002D1*
X2013002Y779029D1*
Y772029D1*
X1983002Y742029D1*
X1916002D1*
X1901002Y757029D1*
Y807029D1*
X1935002Y841029D1*
X1958002D1*
X1965002Y848029D1*
X1065002Y743029D2*
X1118931D1*
X1119002Y742958D1*
X1174073D1*
X1175002Y742029D1*
X1174002D2*
X1208002Y708029D1*
X1209002Y707029D1*
X1507002Y1109029D2*
X1515002D1*
X1553002Y1071029D1*
Y991029D1*
X1527002Y965029D1*
X1515002D1*
X1485002Y935029D1*
Y845029D1*
X1481002D1*
Y790029D1*
X1441002Y750029D1*
Y695029D1*
X1411002Y665029D1*
X1389002D1*
X1346002Y708029D1*
X1208002D1*
X2047002Y746029D2*
X2074002D1*
X2096002Y724029D1*
X2147002D1*
X2200002Y777029D1*
X2315002D1*
X2369002Y723029D1*
X2419002D2*
Y1251029D1*
X2362002Y1308029D1*
X2288002D1*
X2229002Y1249029D1*
X2074002Y502029D2*
X2023002D1*
X2006002Y519029D1*
X1878002D1*
X1852002Y545029D1*
X2357002Y664029D2*
Y711029D1*
X2369002Y723029D1*
X1507002Y1109029D2*
Y1107029D1*
D14*
X1607002D1*
D15*
Y1109029D1*
X1615002D1*
Y1147029D1*
X1696002Y1228029D1*
Y1480029D1*
X1691002Y1485029D1*
X2024002Y1470029D2*
X2074002D1*
X2128002Y1416029D1*
Y1350029D1*
X2229002Y1249029D1*
X1492279Y1722201D2*
X1468174D1*
X1454002Y1708029D1*
X1493002Y1663958D2*
X1456475D1*
X1454002Y1661486D1*
X1706002Y1158029D2*
D16*
X1669002Y1121029D1*
Y1085029D1*
X1607002Y1023029D1*
Y1009029D1*
X1507002D2*
D14*
Y1016029D1*
X1463002Y1060029D1*
X1364002D1*
X1149002Y845029D1*
X967002D1*
X802002D1*
X734304Y777331D1*
Y727331D1*
X717002Y710029D1*
X1584002Y1629029D2*
D16*
X1653002D1*
X1685002Y1597029D1*
X1707002D1*
X1664753Y542029D2*
D15*
Y571278D1*
X1643002Y593029D1*
X1460002D1*
X1413002Y546029D1*
X1321002D1*
Y542029D1*
X967002Y711029D2*
Y845029D1*
X772002Y1496029D2*
D14*
X769002D1*
Y1367029D1*
X823002Y1313029D1*
Y1214029D1*
X808002Y1921029D2*
X1047723D1*
X1127002Y2000309D1*
Y2023029D1*
X823002Y963029D2*
G03X629702Y1041830I-119567J-16815D01*
G01*
G03X501396Y1206331I-116657J41299D01*
G01*
G03X473002Y1413029I-82952J93904D01*
G01*
G03X551803Y1606330I-22168J121749D01*
G01*
G03X716304Y1734635I34686J125136D01*
G01*
G03X923002Y1763029I89025J118475D01*
G01*
G03X1116303Y1684228I130454J43523D01*
G01*
G03X1244609Y1519727I147526J-17222D01*
G01*
X1273002Y1313029D2*
G03X1194202Y1119728I49385J-132844D01*
G01*
G03X1029700Y991423I-17991J-146541D01*
G01*
G03X823002Y963029I-93956J-82575D01*
G01*
X2195298Y1801029D2*
D17*
X2095298D1*
Y1885029D1*
X2211288D1*
X2195034Y1901284D1*
X2095034D2*
X2195034D1*
X2095298Y1801029D2*
Y1851029D1*
D18*
X2424002D1*
Y2560029D1*
X2052823Y2931209D1*
D14*
X2021002Y2963029D1*
X1595002Y1901029D2*
D18*
X1695002D1*
X1062002Y2178029D2*
D19*
X1427002D1*
X1520002Y2085029D1*
Y1976029D1*
X1595002Y1901029D1*
X1695002Y1801029D2*
D18*
X1595002D1*
D19*
X1579002D1*
X1515002Y1865029D1*
Y1916029D1*
X1474002Y1957029D1*
Y2061029D1*
X1410002Y2125029D1*
X1051002D1*
X1906371Y1409185D2*
D17*
Y1354398D1*
D22*
X1938002Y1386029D1*
Y1958060D1*
D17*
X1895034Y2001029D1*
Y1869738D1*
D18*
X1895298D1*
Y1801029D1*
D17*
X1995298D1*
Y1932570D1*
D18*
X1995034D1*
Y2001029D1*
D17*
X1895034D1*
Y1904459D1*
D18*
X1946622Y1852872D1*
D17*
X1995034Y1901284D1*
Y1901298D1*
D18*
X1943710Y1952622D1*
D17*
Y1849441D1*
X1895298Y1801029D1*
X1895034Y1901284D2*
X1995034D1*
X1395002Y1951029D2*
D24*
X1438002Y1908029D1*
X1452703D1*
X1468277Y1892453D1*
Y1851755D1*
X1565002Y1755029D1*
X1626586D1*
X1757502Y1624114D1*
Y837742D1*
X1897215Y698029D1*
X2069215D1*
X2093533Y673711D1*
Y651024D1*
X2083139Y640629D1*
Y632143D1*
X1395002Y1851029D2*
X1438002Y1894029D1*
X1446903D1*
X1454277Y1886655D1*
Y1845955D1*
X1559203Y1741029D1*
X1620787D1*
X1743502Y1618316D1*
Y831944D1*
X1891417Y684029D1*
X2063417D1*
X2079533Y667913D1*
Y656822D1*
X2073239Y650529D1*
X2064753D1*
X1559208Y1722201D2*
Y1737731D1*
X1562506Y1741029D1*
X1620787D1*
X1493002Y1597029D2*
Y1599029D1*
X1517002Y1623029D1*
X1545002D1*
X1609002Y1559029D1*
Y1511280D1*
X1606502Y1508780D1*
X1579002Y468029D2*
Y476515D1*
X1596753Y494264D1*
Y512830D1*
Y516830D1*
Y528029D1*
X1610753Y542029D1*
X1614753D1*
X1560617Y486415D2*
X1569102Y486413D1*
X1582753Y500064D1*
Y512830D1*
Y516830D1*
Y528029D1*
X1568753Y542029D1*
X1564753D1*
X1407002Y845029D2*
D15*
X1390002D1*
X1369002Y824029D1*
Y784029D1*
X1330002Y745029D1*
X1292002D1*
X1249002Y788029D1*
Y842029D1*
X1213002Y950029D2*
Y1008029D1*
X1290002Y1085029D1*
Y1184029D1*
X1357002Y1251029D1*
Y1436029D1*
X1342002Y1451029D1*
Y1658029D1*
X1295002Y1705029D1*
Y1751029D1*
X2329002Y849029D2*
X2317002D1*
X2265002Y797029D1*
X2200002D1*
X2179002Y818029D1*
Y927029D1*
X2109002Y997029D1*
X1890002D1*
X1849002Y956029D1*
Y878029D1*
X1837002Y866029D1*
X1811002D1*
X1801002Y876029D1*
X1417002Y1007029D2*
X1418002Y1006029D1*
Y891029D1*
X1428002Y881029D1*
Y834029D1*
X1411002Y817029D1*
X1403002D1*
X1393002Y807029D1*
X2226002Y732029D2*
X2228002D1*
Y719029D1*
X2080002Y571029D1*
X1947002D1*
X1828002Y690029D1*
X1695002D1*
X1312002Y1174029D2*
X1315002Y1171029D1*
X1376002Y1232029D1*
Y1443029D1*
X1360002Y1459029D1*
Y1697029D1*
X1345002Y1712029D1*
Y1801029D1*
X1295002Y1851029D1*
X1090002Y1368029D2*
Y1388029D1*
Y1408029D1*
Y1428029D1*
X582002Y811029D2*
X602002D1*
X622002D1*
X642002D1*
D25*
X656002D1*
X718002Y873029D1*
X1022002D1*
X1240002Y1091029D1*
X1099002Y1237029D2*
Y1328029D1*
X1090002Y1337029D1*
Y1368029D1*
X620002Y1890029D2*
D15*
X640002D1*
X660002D1*
X680002D1*
D25*
X714002D1*
X746002Y1858029D1*
X1043002D1*
X1324002Y1577029D1*
Y1256029D1*
X1288876Y1220903D1*
X582002Y851029D2*
Y967029D1*
X448002Y1101029D1*
Y1288029D1*
X473002Y1313029D1*
X2139002Y699029D2*
D15*
X2157002D1*
X2215002Y757029D1*
X2272002D1*
X2294002Y735029D1*
Y692029D1*
X2373002Y613029D1*
Y487029D1*
X2331002Y445029D1*
X1564002D1*
X1529002Y480029D1*
X1121002D1*
X1075002Y526029D1*
Y541029D1*
X1916002Y901029D2*
Y895029D1*
X1870002Y849029D1*
X1880002D1*
X2074002Y783029D2*
X2081002Y790029D1*
X2101002Y770029D1*
X2107002D1*
X1780002Y626029D2*
Y606029D1*
X1765002Y591029D1*
X1645931Y784029D2*
Y787029D1*
X1695002D1*
X1715002Y767029D1*
X1698002Y828029D2*
X1655002Y871029D1*
X1646931D1*
X1719002Y850029D2*
Y867029D1*
X1667002Y919029D1*
X1648931D1*
X1647931Y918029D1*
X1645002Y735029D2*
X1810002D1*
X1882002Y663029D1*
X2014002D1*
X2068002Y609029D1*
X2095002D1*
X2120002Y634029D1*
Y676029D1*
X2077002Y719029D1*
X1905002D1*
X1778002Y846029D1*
Y887029D1*
X1788002Y897029D1*
X1814002D1*
X1825002Y886029D1*
X1828002Y889029D1*
X1645002Y735029D2*
X1647002D1*
X1611002Y699029D1*
X1583002D1*
X1563002Y679029D1*
Y657029D1*
X1551002Y645029D1*
X1335002D1*
X1317002Y663029D1*
X1315002Y910029D2*
X1351002Y874029D1*
Y844029D1*
X1207002Y860029D2*
X1205002Y858029D1*
X1230002D1*
X1273273Y901299D1*
Y907299D1*
X1305002Y939029D1*
X1346002D1*
X1407002Y878029D1*
Y871029D1*
X1130002Y1368029D2*
D25*
Y1201029D1*
X1103002Y1174029D1*
X660002Y1850029D2*
Y1814029D1*
X685002Y1789029D1*
X797002D1*
X823002Y1763029D1*
X1130002Y1428029D2*
X1207002D1*
X1245002Y1466029D1*
X1269002D1*
X1304002Y1501029D1*
Y1559029D1*
X1264002Y1599029D1*
X1201909D1*
X1194609Y1606331D1*
X923002Y963029D2*
Y954029D1*
X873002Y904029D1*
X695002D1*
X642002Y851029D1*
X680002Y1850029D2*
Y1838029D1*
X702002Y1816029D1*
X947900D1*
X1029700Y1734228D1*
X622002Y851029D2*
Y897528D1*
X716304Y991830D1*
X1130002Y1408029D2*
X1268002D1*
X1273002Y1413029D1*
X501803Y1519727D2*
Y1646830D1*
X538002Y1683029D1*
X554002D1*
X573002Y1702029D1*
Y1783029D1*
X619002Y1829029D1*
Y1849029D1*
X620002Y1850029D1*
X640002D2*
Y1694936D1*
X629700Y1684635D1*
X1130002Y1388029D2*
X1147002D1*
X1158002Y1377029D1*
Y1222029D1*
X1154002Y1218029D1*
X602002Y851029D2*
Y981029D1*
X573002Y1010029D1*
Y1098122D1*
X551396Y1119727D1*
X1595002Y2001029D2*
D18*
X1695002D1*
X2095034D2*
D17*
X2195034D1*
X1806106Y1108912D2*
D23*
X1787002D1*
Y960029D1*
X630002Y1463029D2*
D14*
Y1492029D1*
X692002Y1554029D1*
X912002D1*
X971002Y1495029D1*
X972002Y1496029D1*
X630002Y1413029D2*
Y1463029D1*
X972002Y1496029D2*
D23*
Y1276029D1*
X909002Y1213029D1*
D15*
X924002D1*
X923002Y1214029D1*
X1880002Y915958D2*
X1875002D1*
Y944029D1*
X1880002Y915958D2*
X1877931D1*
X1893002Y931029D1*
X1948931D1*
X1965002Y914958D1*
X2013002D1*
X2014002Y915958D1*
X1765002Y524100D2*
Y529966D1*
X1776002Y540966D1*
X1816065Y581029D1*
X2014002Y915958D2*
X2049931D1*
X2104002Y970029D1*
X1958002Y955029D2*
Y921958D1*
X1965002Y914958D1*
X2159002Y771029D2*
Y835958D1*
Y864029D1*
X2107073Y915958D1*
X2014002D1*
X1580002Y784029D2*
X1579002D1*
X1580002Y871029D2*
Y909029D1*
X1551002D1*
X1581002Y918029D2*
X1582002D1*
Y911029D1*
X1580002Y909029D1*
X1732002Y538029D2*
X1751073D1*
X1765002Y524100D1*
X1981002Y492029D2*
X1787002D1*
X1776002Y503029D1*
Y540966D1*
X1578073Y735029D2*
Y783100D1*
X1946073Y779029D2*
Y801100D1*
X1956002Y811029D1*
X2081073D1*
X2107002Y836958D1*
X2159002Y835958D1*
X1171002Y542029D2*
Y550029D1*
X1205002Y584029D1*
X1215002D1*
X1235002Y604029D1*
Y651029D1*
X1210002Y676029D1*
X1175931D1*
X1175002Y675100D1*
X1119931D1*
X1119002Y676029D1*
X1065073D1*
X1065002Y676100D1*
X1036931D1*
X1025002Y688029D1*
X1171002Y542029D2*
Y524029D1*
X1199002Y496029D1*
X1418753D1*
X1464753Y542029D1*
X1121002D2*
X1171002D1*
X1464753D2*
X1514753D1*
X2095034Y2001029D2*
D18*
Y2034997D1*
X2038002Y2092029D1*
X1786002D1*
X1695002Y2001029D1*
X1806106Y1208912D2*
D21*
X1906098D1*
X1906371Y1209185D1*
X2006382D1*
Y1109185D1*
X1906371D1*
X1806379D1*
X1806106Y1108912D1*
Y1208912D1*
X1906371Y1209185D2*
Y1109185D1*
X2006382D2*
X2006371D1*
X1906371Y1209185D1*
X1806106Y1208912D2*
X1806644D1*
X1906371Y1109185D1*
Y1209185D2*
D15*
Y1209177D1*
X1806106Y1108912D1*
X2006382Y1209185D2*
X2006371D1*
X1906371Y1109185D1*
X1578073Y735029D2*
X1551002D1*
X1537002Y721029D1*
X1543002Y869029D2*
D26*
X1523002Y889029D1*
Y913029D1*
X1541002Y931029D1*
X1333002Y1121029D2*
Y1153029D1*
X1393002Y1213029D1*
Y1455029D1*
X1382002Y1466029D1*
Y1562029D1*
X2166002Y1063029D2*
D15*
X2117002Y1014029D1*
X1874002D1*
X1827002Y967029D1*
Y915029D1*
X1438002Y1029029D2*
Y896029D1*
X1445002Y889029D1*
Y824029D1*
X1399002Y778029D1*
Y687029D1*
X2251002Y689029D2*
X2247002D1*
X2096002Y538029D1*
X1930002D1*
X1820002Y648029D1*
X1650002D1*
X1631002Y667029D1*
X1615002D1*
X1306002Y768029D2*
X1271002Y803029D1*
Y862029D1*
X1270002Y863029D1*
X1234002Y973029D2*
X1242002D1*
X1351002Y1082029D1*
X1416002D1*
X1433002Y1099029D1*
Y1668029D1*
X1419002Y1682029D1*
X2229002Y949029D2*
X2249002D1*
X2297002Y901029D1*
X2367002D1*
X2390002Y878029D1*
Y474029D1*
X2344002Y428029D1*
X1558002D1*
X1523002Y463029D1*
X1110002D1*
X1049002Y524029D1*
Y560029D1*
X1071002Y582029D1*
X1174002D1*
X1209002Y617029D1*
X1401002Y1657029D2*
X1413002Y1645029D1*
Y1107029D1*
X1404002Y1098029D1*
X1333002D1*
X1238002Y1003029D1*
X1294002Y894029D2*
X1330002Y858029D1*
Y793029D1*
X2273002Y723029D2*
X2272002Y724029D1*
X2261002Y713029D1*
X2245002D1*
X2087002Y555029D1*
X1937002D1*
X1823002Y669029D1*
X1673002D1*
X2024002Y1496029D2*
Y1492029D1*
X2104002D1*
X2158002Y1438029D1*
X1396002Y1034029D2*
X1376002D1*
X1228002Y886029D1*
X909002Y817029D2*
X820002D1*
X771002Y768029D1*
X2143002Y528029D2*
X2085002Y470029D1*
X1746002D1*
X1710002Y506029D1*
Y560029D1*
X1637002Y633029D1*
X1619002D1*
X1585002Y667029D1*
X1541002Y673029D2*
X1531002D1*
X1515002Y689029D1*
Y801029D1*
X1547002Y833029D1*
X1631002D1*
X1531002Y1597029D2*
D26*
X1559002Y1569029D1*
Y1164029D1*
X1686002Y1033029D2*
Y988029D1*
X1658002Y960029D1*
X1544002D1*
X1505002Y921029D1*
Y869029D1*
X1529002Y845029D1*
Y847029D1*
X2329002Y1149029D2*
D15*
X2276002Y1096029D1*
X2166002D1*
X2100002Y1030029D1*
X1842002D1*
X1811002Y999029D1*
Y940029D1*
X1789002Y918029D1*
X1462002Y987029D2*
Y812029D1*
X1420002Y770029D1*
Y709029D1*
X1153002Y604029D2*
X1067002D1*
X1032002Y569029D1*
Y517029D1*
X1106002Y443029D1*
X1504002D1*
X1506002Y441029D1*
D14*
X1935002Y881029D3*
X2047002Y746029D3*
X1209002Y707029D3*
X2369002Y723029D3*
X2419002D3*
X2047002Y746029D3*
X2074002Y502029D3*
X1852002Y545029D3*
X2357002Y664029D3*
X1691002Y1485029D3*
X2024002Y1470029D3*
X1485002Y845029D3*
X1706002Y1158029D3*
X717002Y710029D3*
X1584002Y1629029D3*
X1707002Y1597029D3*
X967002Y711029D3*
X808002Y1921029D3*
X1127002Y2023029D3*
X1062002Y2178029D3*
X1051002Y2125029D3*
X2083139Y632143D3*
X2064753Y650529D3*
X1579002Y468029D3*
X1560617Y486415D3*
X1407002Y845029D3*
X1249002Y842029D3*
X1213002Y950029D3*
X1801002Y876029D3*
X1417002Y1007029D3*
X1393002Y807029D3*
X2226002Y732029D3*
X1695002Y690029D3*
X1312002Y1174029D3*
X1240002Y1091029D3*
X1099002Y1237029D3*
X1288876Y1220903D3*
X2139002Y699029D3*
X1075002Y541029D3*
X1916002Y901029D3*
X2074002Y783029D3*
X1780002Y626029D3*
X1715002Y767029D3*
X1698002Y828029D3*
X1719002Y850029D3*
X1828002Y889029D3*
X1317002Y663029D3*
X1315002Y910029D3*
X1351002Y844029D3*
X1207002Y860029D3*
X1407002Y871029D3*
X1103002Y1174029D3*
X1154002Y1218029D3*
X1787002Y960029D3*
X1875002Y944029D3*
X1787002Y960029D3*
X1816065Y581029D3*
X2104002Y970029D3*
X1958002Y955029D3*
X2159002Y771029D3*
D27*
X1551002Y909029D3*
D14*
X1732002Y538029D3*
X1981002Y492029D3*
X1025002Y688029D3*
X1537002Y721029D3*
D27*
X1543002Y869029D3*
D59*
X1541002Y931029D3*
D14*
X1333002Y1121029D3*
X1382002Y1562029D3*
X2166002Y1063029D3*
X1827002Y915029D3*
X1438002Y1029029D3*
X1399002Y687029D3*
X2251002Y689029D3*
X1615002Y667029D3*
X1306002Y768029D3*
X1270002Y863029D3*
X1234002Y973029D3*
X1419002Y1682029D3*
X1209002Y617029D3*
X1401002Y1657029D3*
X1238002Y1003029D3*
X1294002Y894029D3*
X1330002Y793029D3*
X2273002Y723029D3*
X1673002Y669029D3*
X2024002Y1496029D3*
X2158002Y1438029D3*
X1396002Y1034029D3*
X1228002Y886029D3*
X909002Y817029D3*
X771002Y768029D3*
X2143002Y528029D3*
X1585002Y667029D3*
X1541002Y673029D3*
X1631002Y833029D3*
X1531002Y1597029D3*
X1559002Y1164029D3*
X1686002Y1033029D3*
X1529002Y847029D3*
X1789002Y918029D3*
X1462002Y987029D3*
X1420002Y709029D3*
X1153002Y604029D3*
X1506002Y441029D3*
X1871002Y3163029D3*
X1921002D3*
X1971002D3*
X2021002D3*
X2071002D3*
X2121002D3*
Y3113029D3*
X2071002D3*
X2021002D3*
X1971002D3*
X1921002D3*
X1871002D3*
Y3063029D3*
X1921002D3*
X1971002D3*
X2021002D3*
X2071002D3*
X2121002D3*
Y3013029D3*
X2071002D3*
X2021002D3*
X1971002D3*
X1921002D3*
X1871002D3*
Y2963029D3*
X1921002D3*
X1971002D3*
X2021002D3*
X2071002D3*
X2121002D3*
X471002Y2263029D3*
Y2213029D3*
Y2163029D3*
Y2113029D3*
Y2063029D3*
Y2013029D3*
Y1963029D3*
Y1813029D3*
Y1763029D3*
Y1713029D3*
Y1663029D3*
X521002Y1713029D3*
Y1763029D3*
Y1813029D3*
X671002Y2413029D3*
X771002D3*
X871002D3*
X971002D3*
X1071002D3*
X1171002D3*
X1271002D3*
X1371002D3*
X1471002D3*
X1571002D3*
X1671002D3*
X1771002D3*
Y2313029D3*
X571002Y2263029D3*
Y2163029D3*
Y2063029D3*
X1671002Y2313029D3*
X1571002D3*
X1421002Y2363029D3*
X1321002D3*
X1221002D3*
X1121002D3*
X1021002D3*
X1521002D3*
X1621002D3*
X1721002D3*
Y2263029D3*
X1621002D3*
X571002Y1963029D3*
X2221002Y2863029D3*
X2321002D3*
X2221002Y2763029D3*
X2321002D3*
Y2663029D3*
X2221002D3*
Y2563029D3*
X2321002D3*
Y2463029D3*
X2221002D3*
X2321002Y2363029D3*
X2221002D3*
X2121002Y2263029D3*
Y2163029D3*
X2321002Y1963029D3*
Y1863029D3*
X1071002Y2263029D3*
X1171002D3*
X1371002D3*
X1271002D3*
X971002D3*
X1471002D3*
X1671002Y2163029D3*
X1571002D3*
X1771002D3*
X671002Y1963029D3*
Y2063029D3*
Y2163029D3*
Y2263029D3*
X2071002Y1663029D3*
X2171002D3*
X2271002D3*
X2371002Y1763029D3*
Y1863029D3*
Y1963029D3*
Y1563029D3*
Y1463029D3*
X1865014Y3146660D2*
D23*
X2158060D1*
X2375951D2*
X2428959D1*
X1865063Y3121791D2*
X2143462D1*
X2390502D2*
X2446342D1*
X1865111Y3096923D2*
X2135160D1*
X2398851D2*
X2453959D1*
X1865160Y3072054D2*
X2131938D1*
X2402075D2*
X2456010D1*
X1865210Y3047185D2*
X2133451D1*
X2400560D2*
X2456010D1*
X1865258Y3022316D2*
X2139799D1*
X2394214D2*
X2456010D1*
X1865307Y2997448D2*
X2151908D1*
X2382103D2*
X2456010D1*
X1865355Y2972579D2*
X2171879D1*
X2362084D2*
X2456010D1*
X1865404Y2947710D2*
X2207622D1*
X2326391D2*
X2456010D1*
X1865454Y2922841D2*
X2456010D1*
X1865454Y2897973D2*
X2456010D1*
X1865502Y2873104D2*
X2456010D1*
X1865551Y2848235D2*
X2456010D1*
X1865599Y2823366D2*
X2456010D1*
X1865648Y2798497D2*
X2456010D1*
X1865698Y2773629D2*
X2456010D1*
X1865746Y2748760D2*
X2456010D1*
X1865795Y2723891D2*
X2456010D1*
X1865844Y2699022D2*
X2456010D1*
X1865892Y2674154D2*
X2456010D1*
X1865942Y2649285D2*
X2456010D1*
X1865991Y2624416D2*
X2456010D1*
X1865014Y2599547D2*
X2456010D1*
X1861450Y2574679D2*
X2456010D1*
X1853198Y2549810D2*
X2456010D1*
X1841479Y2524941D2*
X2456010D1*
X1823559Y2500072D2*
X2456010D1*
X1795727Y2475204D2*
X2456010D1*
X1744603Y2450335D2*
X2456010D1*
X476391Y2425466D2*
X2456010D1*
X452758Y2400597D2*
X2456010D1*
X442748Y2375728D2*
X2456010D1*
X440991Y2350860D2*
X2456010D1*
X440892Y2325991D2*
X2456010D1*
X440844Y2301122D2*
X2244340D1*
X2289623D2*
X2456010D1*
X440746Y2276253D2*
X2185063D1*
X2348900D2*
X2456010D1*
X440648Y2251385D2*
X2159770D1*
X2374242D2*
X2456010D1*
X440599Y2226516D2*
X2144487D1*
X2389526D2*
X2456010D1*
X440502Y2201647D2*
X1025395D1*
X1464575D2*
X2135698D1*
X2398315D2*
X2456010D1*
X440404Y2176778D2*
X1018022D1*
X1489428D2*
X2132035D1*
X2401976D2*
X2456010D1*
X440355Y2151910D2*
X1016899D1*
X1514282D2*
X1769535D1*
X2054467D2*
X2133110D1*
X2400903D2*
X2456010D1*
X440258Y2127041D2*
X1007084D1*
X1539183D2*
X1731547D1*
X2092455D2*
X2139018D1*
X2394994D2*
X2456010D1*
X440160Y2102172D2*
X1013871D1*
X1560278D2*
X1706694D1*
X2117308D2*
X2150542D1*
X2383471D2*
X2456010D1*
X440111Y2077303D2*
X1132523D1*
X1563988D2*
X1681840D1*
X2142162D2*
X2169682D1*
X2364330D2*
X2456010D1*
X440014Y2052434D2*
X1102884D1*
X2330834D2*
X2456010D1*
X439916Y2027566D2*
X1088286D1*
X2251294D2*
X2456010D1*
X439867Y2002697D2*
X1075298D1*
X2257494D2*
X2456010D1*
X439770Y1977828D2*
X1050443D1*
X2252807D2*
X2456010D1*
X439672Y1952959D2*
X787798D1*
X2233374D2*
X2456010D1*
X439623Y1928091D2*
X769682D1*
X2059155D2*
X2456010D1*
X439526Y1903222D2*
X583988D1*
X750659D2*
X773636D1*
X2059008D2*
X2456010D1*
X439428Y1878353D2*
X583988D1*
X2057739D2*
X2456010D1*
X439379Y1853484D2*
X583304D1*
X2057739D2*
X2456010D1*
X439282Y1828616D2*
X568754D1*
X2057739D2*
X2456010D1*
X439183Y1803747D2*
X544194D1*
X2057739D2*
X2456010D1*
X439135Y1778878D2*
X537015D1*
X2053539D2*
X2456010D1*
X439038Y1754009D2*
X537015D1*
X2036987D2*
X2456010D1*
X438939Y1729141D2*
X537015D1*
X2036987D2*
X2456010D1*
X438891Y1704272D2*
X509379D1*
X2036987D2*
X2456010D1*
X438794Y1679403D2*
X484526D1*
X2036987D2*
X2456010D1*
X438695Y1654534D2*
X466703D1*
X2036987D2*
X2456010D1*
X438647Y1629665D2*
X465775D1*
X2036987D2*
X2456010D1*
X438550Y1604797D2*
X465775D1*
X2036987D2*
X2456010D1*
X438451Y1579928D2*
X465775D1*
X2036987D2*
X2456010D1*
X438403Y1555059D2*
X453870D1*
X2036987D2*
X2456010D1*
X2039379Y1530190D2*
X2456010D1*
X2137719Y1505322D2*
X2456010D1*
X438159Y1480453D2*
X454880D1*
X2162622D2*
X2456010D1*
X2192504Y1455584D2*
X2456010D1*
X2196263Y1430715D2*
X2456010D1*
X2177710Y1405847D2*
X2456010D1*
X2161987Y1380978D2*
X2456010D1*
X2168968Y1356109D2*
X2456010D1*
X466034Y1474576D2*
X458924Y1479043D1*
X454577Y1483505D1*
X451392Y1488860D1*
X447488Y1502219D1*
X443008Y1519205D1*
X442601Y1525420D1*
X443656Y1531560D1*
X445145Y1535442D1*
X450174Y1544291D1*
X459854Y1560917D1*
X463960Y1565601D1*
X467260Y1568133D1*
X2159502Y1401528D2*
Y1363050D1*
X2184561Y1338018D1*
X2278473Y1338029D1*
X2285531Y1339432D1*
X2364473D1*
X2369737Y1338551D1*
X2396002Y1338029D1*
X2458502D1*
Y3082471D1*
X2455010Y3107307D1*
X2446118Y3128259D1*
X2432106Y3146194D1*
X2413931Y3159894D1*
X2392832Y3168424D1*
X2367518Y3171542D1*
X2349147Y3171532D1*
X2360787Y3161315D1*
X2367855Y3153667D1*
X2374303Y3145490D1*
X2380089Y3136830D1*
X2385178Y3127744D1*
X2389538Y3118286D1*
X2393143Y3108516D1*
X2395970Y3098492D1*
X2398001Y3088278D1*
X2399224Y3077936D1*
X2399634Y3067530D1*
X2399224Y3057125D1*
X2398001Y3046782D1*
X2395970Y3036568D1*
X2393143Y3026545D1*
X2389538Y3016774D1*
X2385178Y3007316D1*
X2380089Y2998231D1*
X2374303Y2989571D1*
X2367855Y2981394D1*
X2360787Y2973746D1*
X2353139Y2966677D1*
X2344962Y2960230D1*
X2336302Y2954444D1*
X2327216Y2949354D1*
X2317758Y2944995D1*
X2307988Y2941390D1*
X2297964Y2938563D1*
X2287750Y2936532D1*
X2277408Y2935309D1*
X2267002Y2934899D1*
X2256597Y2935309D1*
X2246254Y2936532D1*
X2236040Y2938563D1*
X2226017Y2941390D1*
X2216246Y2944995D1*
X2206788Y2949354D1*
X2197703Y2954444D1*
X2189043Y2960230D1*
X2180866Y2966677D1*
X2173218Y2973746D1*
X2166149Y2981394D1*
X2159702Y2989571D1*
X2153916Y2998231D1*
X2148826Y3007316D1*
X2144467Y3016774D1*
X2140862Y3026545D1*
X2138035Y3036568D1*
X2136004Y3046782D1*
X2134781Y3057125D1*
X2134371Y3067530D1*
X2134781Y3077936D1*
X2136004Y3088278D1*
X2138035Y3098492D1*
X2140862Y3108516D1*
X2144467Y3118286D1*
X2148826Y3127744D1*
X2153916Y3136830D1*
X2159702Y3145490D1*
X2166149Y3153667D1*
X2173218Y3161315D1*
X2184858Y3171532D1*
X1876943Y3171528D1*
X1871627Y3170669D1*
X1868602Y3169291D1*
X1866051Y3167167D1*
X1864157Y3164453D1*
X1863042Y3161328D1*
X1862493Y3154365D1*
X1863380Y2605410D1*
X1857763Y2567475D1*
X1842452Y2529822D1*
X1818607Y2496902D1*
X1787605Y2470612D1*
X1751231Y2452466D1*
X1711816Y2443566D1*
X524863Y2440534D1*
X501235Y2438160D1*
X483971Y2432162D1*
X474281Y2425882D1*
X451846Y2403427D1*
X444651Y2390812D1*
X440073Y2375057D1*
X438481Y2353314D1*
X435559Y1456186D1*
X444798Y1464957D1*
X450232Y1468000D1*
X456228Y1469690D1*
X460374Y1470017D1*
X473400Y1470309D1*
X458924Y1479043D1*
X454577Y1483505D1*
X451392Y1488858D1*
X450004Y1492780D1*
X442710Y1521264D1*
X442791Y1527494D1*
X444324Y1533530D1*
X446114Y1537284D1*
X461098Y1562584D1*
X465560Y1566932D1*
X467617Y1568345D1*
X468279Y1569727D1*
X468383Y1649434D1*
X469918Y1657158D1*
X473216Y1664310D1*
X478092Y1670494D1*
X478340Y1670725D1*
X516245Y1708503D1*
X522794Y1712878D1*
X530182Y1715604D1*
X538002Y1716529D1*
X538341Y1716516D1*
X539544Y1716529D1*
X539606Y1785658D1*
X541141Y1793381D1*
X544439Y1800533D1*
X549315Y1806717D1*
X549563Y1806948D1*
X585533Y1842936D1*
X585914Y1854269D1*
X586504Y1857117D1*
X586502Y1926278D1*
X713502D1*
Y1923496D1*
X719242Y1923117D1*
X726823Y1920979D1*
X733693Y1917131D1*
X737690Y1913717D1*
X759891Y1891516D1*
X786481Y1891529D1*
X782193Y1895219D1*
X778473Y1899575D1*
X775480Y1904458D1*
X773288Y1909749D1*
X771951Y1915319D1*
X771502Y1921029D1*
X771951Y1926739D1*
X773288Y1932309D1*
X775480Y1937600D1*
X778473Y1942483D1*
X782193Y1946839D1*
X786548Y1950558D1*
X791431Y1953551D1*
X796723Y1955743D1*
X802292Y1957080D1*
X808002Y1957529D1*
X1032661D1*
X1090518Y2015442D1*
X1090615Y2025892D1*
X1091510Y2031550D1*
X1093281Y2036997D1*
X1095882Y2042100D1*
X1099248Y2046734D1*
X1103298Y2050784D1*
X1107931Y2054150D1*
X1113034Y2056751D1*
X1118481Y2058521D1*
X1124139Y2059416D1*
X1129866D1*
X1135038Y2058593D1*
X1135002Y2083529D1*
X1047746Y2083656D1*
X1041315Y2084676D1*
X1035120Y2086688D1*
X1029319Y2089644D1*
X1024050Y2093473D1*
X1019446Y2098076D1*
X1015618Y2103345D1*
X1012661Y2109147D1*
X1010649Y2115341D1*
X1009630Y2121773D1*
Y2128285D1*
X1010649Y2134717D1*
X1012661Y2140911D1*
X1015618Y2146713D1*
X1019446Y2151982D1*
X1024050Y2156585D1*
X1025719Y2157902D1*
X1022534Y2165205D1*
X1021013Y2171537D1*
X1020502Y2178029D1*
X1021013Y2184521D1*
X1022534Y2190853D1*
X1025026Y2196870D1*
X1028428Y2202423D1*
X1032657Y2207374D1*
X1037609Y2211604D1*
X1043161Y2215005D1*
X1049178Y2217497D1*
X1055510Y2219018D1*
X1062002Y2219529D1*
X1430258Y2219402D1*
X1436690Y2218382D1*
X1442884Y2216370D1*
X1448686Y2213413D1*
X1453955Y2209585D1*
X1500542Y2163180D1*
X1551559Y2111982D1*
X1555387Y2106713D1*
X1558344Y2100911D1*
X1560355Y2094717D1*
X1561375Y2088285D1*
X1561454Y2060994D1*
X1581376D1*
X1590177Y2062340D1*
X1632502Y2062529D1*
X1669563D1*
X1746061Y2138794D1*
X1753868Y2144466D1*
X1762467Y2148848D1*
X1771645Y2151830D1*
X1781177Y2153340D1*
X1811002Y2153529D1*
X2042828Y2153340D1*
X2052359Y2151830D1*
X2061538Y2148848D1*
X2070136Y2144466D1*
X2077943Y2138794D1*
X2099168Y2117839D1*
X2141799Y2074938D1*
X2147471Y2067131D1*
X2149981Y2062592D1*
X2157534Y2060994D1*
X2191470D1*
X2180866Y2069176D1*
X2173218Y2076244D1*
X2166149Y2083892D1*
X2159702Y2092070D1*
X2153916Y2100730D1*
X2148826Y2109815D1*
X2144467Y2119273D1*
X2140862Y2129043D1*
X2138035Y2139067D1*
X2136004Y2149281D1*
X2134781Y2159623D1*
X2134371Y2170029D1*
X2134781Y2180434D1*
X2136004Y2190777D1*
X2138035Y2200991D1*
X2140862Y2211015D1*
X2144467Y2220785D1*
X2148826Y2230243D1*
X2153916Y2239328D1*
X2159702Y2247988D1*
X2166149Y2256165D1*
X2173218Y2263814D1*
X2180866Y2270882D1*
X2189043Y2277330D1*
X2197703Y2283116D1*
X2206788Y2288205D1*
X2216246Y2292564D1*
X2226017Y2296169D1*
X2236040Y2298996D1*
X2246254Y2301028D1*
X2256597Y2302251D1*
X2267002Y2302660D1*
X2277408Y2302251D1*
X2287750Y2301028D1*
X2297964Y2298996D1*
X2307988Y2296169D1*
X2317758Y2292564D1*
X2327216Y2288205D1*
X2336302Y2283116D1*
X2344962Y2277330D1*
X2353139Y2270882D1*
X2360787Y2263814D1*
X2367855Y2256165D1*
X2374303Y2247988D1*
X2380089Y2239328D1*
X2385178Y2230243D1*
X2389538Y2220785D1*
X2393143Y2211015D1*
X2395970Y2200991D1*
X2398001Y2190777D1*
X2399224Y2180434D1*
X2399634Y2170029D1*
X2399224Y2159623D1*
X2398001Y2149281D1*
X2395970Y2139067D1*
X2393143Y2129043D1*
X2389538Y2119273D1*
X2385178Y2109815D1*
X2380089Y2100730D1*
X2374303Y2092070D1*
X2367855Y2083892D1*
X2360787Y2076244D1*
X2353139Y2069176D1*
X2344962Y2062728D1*
X2336302Y2056942D1*
X2327216Y2051853D1*
X2317758Y2047494D1*
X2307988Y2043889D1*
X2297964Y2041062D1*
X2287750Y2039030D1*
X2277408Y2037807D1*
X2267002Y2037398D1*
X2256597Y2037807D1*
X2240470Y2040181D1*
X2246162Y2032361D1*
X2250434Y2023976D1*
X2253342Y2015028D1*
X2254813Y2005734D1*
Y1996324D1*
X2253342Y1987030D1*
X2250434Y1978081D1*
X2246162Y1969697D1*
X2240631Y1962085D1*
X2233977Y1955432D1*
X2226366Y1949900D1*
X2217981Y1945629D1*
X2209033Y1942721D1*
X2199739Y1941249D1*
X2145034Y1941064D1*
X2108657D1*
X2099859Y1939718D1*
X2090208D1*
X2080677Y1941228D1*
X2071498Y1944210D1*
X2062900Y1948592D1*
X2056530Y1953131D1*
X2056798Y1932570D1*
X2056040Y1922949D1*
X2055249Y1918971D1*
X2056345Y1906123D1*
Y1896473D1*
X2055250Y1889032D1*
X2055077Y1796324D1*
X2053606Y1787030D1*
X2050698Y1778081D1*
X2046426Y1769697D1*
X2040895Y1762085D1*
X2037686Y1758616D1*
X2040895Y1762085D1*
X2034502Y1755668D1*
Y1530961D1*
X2040573Y1528551D1*
X2045456Y1525558D1*
X2047994Y1523517D1*
X2106473Y1523432D1*
X2113736Y1521987D1*
X2120462Y1518887D1*
X2126277Y1514303D1*
X2126506Y1514055D1*
X2167260Y1473320D1*
X2174573Y1470551D1*
X2179456Y1467558D1*
X2183812Y1463839D1*
X2187531Y1459483D1*
X2190525Y1454600D1*
X2192716Y1449309D1*
X2194054Y1443739D1*
X2194502Y1438029D1*
X2194054Y1432319D1*
X2192716Y1426749D1*
X2190525Y1421458D1*
X2187531Y1416575D1*
X2183812Y1412219D1*
X2179456Y1408500D1*
X2174573Y1405507D1*
X2169282Y1403315D1*
X2163712Y1401978D1*
X2159491Y1401588D1*
X784307Y1893267D2*
X780248Y1897324D1*
X776880Y1901958D1*
X774281Y1907060D1*
X772510Y1912508D1*
X771615Y1918165D1*
Y1923892D1*
X772510Y1929550D1*
X774281Y1934997D1*
X776880Y1940100D1*
X780248Y1944734D1*
X784298Y1948784D1*
X788931Y1952151D1*
X794034Y1954751D1*
X799481Y1956521D1*
X805139Y1957416D1*
X808002Y1957529D1*
X1790496Y1416660D2*
X2047019D1*
X1790496Y1391791D2*
X2047019D1*
X1790496Y1366923D2*
X2047019D1*
X1790496Y1342054D2*
X2047019D1*
X1790496Y1317185D2*
X2047019D1*
X1790496Y1292316D2*
X2047019D1*
X1821599Y1267448D2*
X1889695D1*
X1923064D2*
X1989695D1*
X2023064D2*
X2047019D1*
X1986384Y1265673D2*
X1992383Y1267492D1*
X2001677Y1268965D1*
X2011086D1*
X2020380Y1267492D1*
X2029329Y1264585D1*
X2037714Y1260314D1*
X2045325Y1254782D1*
X2046581Y1253621D1*
X2049502Y1266029D1*
Y1438538D1*
X2042410Y1438529D1*
X2035282Y1435315D1*
X2029712Y1433978D1*
X2024002Y1433529D1*
X2018292Y1433978D1*
X2012723Y1435315D1*
X2007431Y1437507D1*
X2002240Y1440743D1*
X1787987Y1441467D1*
X1788002Y1266058D1*
X1796725Y1268138D1*
X1806106Y1268877D1*
X1815487Y1268138D1*
X1824636Y1265942D1*
X1826103Y1265400D1*
X1885550Y1265412D1*
X1892372Y1267492D1*
X1901666Y1268965D1*
X1911076D1*
X1920370Y1267492D1*
X1926368Y1265673D1*
X1986303Y1265685D1*
X1808216Y2024791D2*
X2015765D1*
X1783363Y1999923D2*
X2016400D1*
X1764002Y1975054D2*
X2013812D1*
X1764002Y1950185D2*
X2011224D1*
X1764002Y1925316D2*
X2008636D1*
X1764002Y1900448D2*
X2006048D1*
X1764002Y1875579D2*
X2003460D1*
X1764002Y1850710D2*
X2000872D1*
X1764002Y1825841D2*
X1998284D1*
X1764002Y1800973D2*
X1995697D1*
X1764002Y1776104D2*
X1993109D1*
X1764002Y1751235D2*
X1991985D1*
X1764002Y1726366D2*
X1991985D1*
X1764002Y1701497D2*
X1991985D1*
X1764002Y1676629D2*
X1991985D1*
X1775452Y1651760D2*
X1991985D1*
X1790345Y1626891D2*
X1991985D1*
X1790492Y1602022D2*
X1991985D1*
X1790492Y1577154D2*
X1991985D1*
X1790492Y1552285D2*
X1991985D1*
X1790492Y1527416D2*
X1991985D1*
X1790492Y1502547D2*
X1985589D1*
X1790492Y1477679D2*
X1985833D1*
X1790492Y1452810D2*
X1989300D1*
X1790492Y1427941D2*
X2003168D1*
X1790492Y1403072D2*
X2009564D1*
X1790492Y1378204D2*
X2015912D1*
X1790492Y1353335D2*
X2022308D1*
X1790492Y1328466D2*
X2028704D1*
X1790492Y1303597D2*
X2035101D1*
X1790492Y1278728D2*
X2041449D1*
X1986384Y1265673D2*
X1992383Y1267492D1*
X2001677Y1268965D1*
X2011086D1*
X2020380Y1267492D1*
X2029329Y1264585D1*
X2037714Y1260314D1*
X2038921Y1259507D1*
X2046679Y1268137D1*
X2002413Y1440623D1*
X1998193Y1444219D1*
X1994473Y1448575D1*
X1991480Y1453458D1*
X1989288Y1458749D1*
X1987951Y1464319D1*
X1987502Y1470029D1*
X1987951Y1475739D1*
X1989913Y1482999D1*
X1987951Y1490319D1*
X1987502Y1496029D1*
X1987951Y1501739D1*
X1989288Y1507309D1*
X1991480Y1512600D1*
X1994522Y1517545D1*
X1994569Y1766324D1*
X2021194Y2021924D1*
X2012497Y2030560D1*
X1811489Y2030529D1*
X1761506Y1980559D1*
X1761502Y1663222D1*
X1780695Y1643923D1*
X1784678Y1637961D1*
X1787160Y1631235D1*
X1788002Y1624114D1*
Y1266058D1*
X1796725Y1268138D1*
X1806106Y1268877D1*
X1815487Y1268138D1*
X1824636Y1265942D1*
X1826103Y1265400D1*
X1885550Y1265412D1*
X1892372Y1267492D1*
X1901666Y1268965D1*
X1911076D1*
X1920370Y1267492D1*
X1926368Y1265673D1*
X1986303Y1265685D1*
D33*
X972002Y1496029D3*
D34*
X772002D3*
D35*
X2107002Y770029D3*
Y836958D3*
X1765002Y591029D3*
Y524100D3*
X1965002Y848029D3*
Y914958D3*
X1175002Y742029D3*
Y675100D3*
X1065002Y743029D3*
Y676100D3*
D36*
X2013002Y779029D3*
X1946073D3*
D35*
X2014002Y849029D3*
Y915958D3*
X1119002Y742958D3*
Y676029D3*
D36*
X1645002Y735029D3*
X1578073D3*
D37*
X1595002Y2001029D3*
D38*
X1695002D3*
X1595002Y1901029D3*
X1695002D3*
X1595002Y1801029D3*
X1695002D3*
D37*
X1295002Y2051029D3*
D38*
X1395002D3*
X1295002Y1951029D3*
X1395002D3*
X1295002Y1851029D3*
X1395002D3*
X1295002Y1751029D3*
X1395002D3*
D37*
X1895298Y1801029D3*
D38*
X1995298D3*
X2095298D3*
X2195298D3*
D37*
X1895034Y1901284D3*
D38*
X1995034D3*
X2095034D3*
X2195034D3*
D37*
X1895034Y2001029D3*
D38*
X1995034D3*
X2095034D3*
X2195034D3*
D37*
X1195002Y2051029D3*
D38*
Y1951029D3*
Y1851029D3*
D39*
X630002Y1263029D3*
D40*
Y1313029D3*
Y1363029D3*
Y1413029D3*
Y1463029D3*
D41*
X1664753Y542029D3*
D42*
X1614753D3*
X1564753D3*
X1514753D3*
X1464753D3*
D41*
X1321002D3*
D42*
X1271002D3*
X1221002D3*
X1171002D3*
X1121002D3*
D34*
X2329002Y849029D3*
D43*
X2229002D3*
X2329002Y949029D3*
X2229002D3*
X2329002Y1049029D3*
X2229002D3*
X2329002Y1149029D3*
X2229002D3*
X2329002Y1249029D3*
X2229002D3*
D37*
X1506502Y1508780D3*
D38*
X1606502D3*
X1506502Y1408780D3*
X1606502D3*
X1506502Y1308780D3*
X1606502D3*
X1506502Y1208780D3*
X1606502D3*
D37*
X2006382Y1409185D3*
D38*
Y1309185D3*
Y1209185D3*
Y1109185D3*
D37*
X1906371Y1409185D3*
D38*
Y1309185D3*
Y1209185D3*
Y1109185D3*
D37*
X1806106Y1408912D3*
D38*
Y1308912D3*
Y1208912D3*
Y1108912D3*
D37*
X1607002Y1009029D3*
D38*
X1507002D3*
X1607002Y1109029D3*
X1507002D3*
D37*
X823002Y1214029D3*
D38*
X923002D3*
D35*
X1880002Y849029D3*
Y915958D3*
D36*
X1579002Y784029D3*
X1645931D3*
X1580002Y871029D3*
X1646931D3*
X1581002Y918029D3*
X1647931D3*
D46*
X620002Y1890029D3*
X660002D3*
X680002D3*
X640002D3*
X680002Y1850029D3*
X660002D3*
X640002D3*
X620002D3*
D47*
X1090002Y1368029D3*
Y1408029D3*
Y1428029D3*
Y1388029D3*
X1130002Y1428029D3*
Y1408029D3*
Y1388029D3*
Y1368029D3*
D46*
X642002Y811029D3*
X602002D3*
X582002D3*
X622002D3*
X582002Y851029D3*
X602002D3*
X622002D3*
X642002D3*
D120*
X823002Y963029D3*
X923002D3*
D121*
X1244609Y1519728D3*
X1194609Y1606331D3*
D122*
X1116304Y1684226D3*
X1029700Y1734226D3*
D123*
X1029702Y991422D3*
X1116304Y1041422D3*
D124*
X473002Y1413029D3*
Y1313029D3*
D125*
X923002Y1763029D3*
X823002D3*
D126*
X1194199Y1119728D3*
X1244199Y1206331D3*
D127*
X501395Y1206330D3*
X551395Y1119727D3*
D128*
X716303Y1734636D3*
X629700Y1684636D3*
D129*
X1273002Y1313029D3*
Y1413029D3*
D130*
X629701Y1041832D3*
X716305Y991832D3*
D131*
X551806Y1606330D3*
X501806Y1519727D3*
D36*
X1559208Y1722201D3*
X1492279D3*
D35*
X1493002Y1597029D3*
Y1663958D3*
M02*
