G04 DipTrace 3.0.0.2*
G04 Bottom.gbr*
%MOMM*%
G04 #@! TF.FileFunction,Copper,L2,Bot*
G04 #@! TF.Part,Single*
G04 #@! TA.AperFunction,Conductor*
%ADD13C,0.254*%
%ADD14C,0.889*%
G04 #@! TA.AperFunction,CopperBalancing*
%ADD16C,0.635*%
G04 #@! TA.AperFunction,Conductor*
%ADD17C,0.762*%
%ADD18C,1.016*%
%ADD19C,1.778*%
%ADD20C,0.3556*%
%ADD21C,0.2286*%
%ADD22C,1.524*%
%ADD24C,0.2032*%
G04 #@! TA.AperFunction,ViaPad*
%ADD25C,0.381*%
G04 #@! TA.AperFunction,ComponentPad*
%ADD40R,1.7X1.7*%
%ADD41C,1.7*%
%FSLAX35Y35*%
G04*
G71*
G90*
G75*
G01*
G04 Bottom*
%LPD*%
X6581141Y5230250D2*
D14*
X6880861D1*
X6964681Y5314070D1*
X7719061D1*
X7780021Y5375030D1*
Y6396110D1*
X7673341Y6502790D1*
Y6670430D2*
X7581901D1*
X7178041Y7074290D1*
Y7310510D1*
X7391401Y7523870D1*
Y7638170D1*
Y7843910D2*
X7353301Y7882010D1*
Y8948810D1*
Y8834510D1*
Y8773550D2*
Y8834510D1*
Y8895470D2*
Y8948810D1*
Y8956430D2*
Y8948810D1*
X7501891Y2830584D2*
D17*
Y2860430D1*
X7658737D1*
X7851141Y3052834D1*
Y3449710D1*
X6873241Y4427610D1*
Y4635890D1*
X3025141Y3530990D2*
D18*
Y3614807D1*
X3086101Y3675767D1*
Y4423344D1*
X3199587Y4536830D1*
X7501891Y2860430D2*
X2987041D1*
X2787017Y3060454D1*
Y3163960D1*
X1623061Y7333370D2*
D13*
X1714501D1*
X2743201Y6304670D1*
X8359141Y4164084D2*
D18*
Y2544834D1*
X8470264Y2433710D1*
X3850641Y9118990D2*
D19*
X3596641D1*
X3850641D2*
D20*
X3928111D1*
X3993514Y9053587D1*
Y7942334D1*
X3596641Y9372990D2*
D19*
X3850641D1*
X3930017Y8069334D2*
D20*
Y7942337D1*
X3451861Y6289430D2*
D13*
Y6298410D1*
X3468897Y6315450D1*
X3550594D1*
X4110591Y6875447D1*
Y8981397D1*
X4227864Y9098670D1*
X4251961D1*
X4358641Y8991990D1*
X3414141Y6327144D2*
X3423121D1*
X3452064Y6356090D1*
X3533761D1*
X4069951Y6892280D1*
Y8998230D1*
X4211031Y9139310D1*
X4251961D1*
X4358641Y9245990D1*
X6248401Y6403094D2*
Y6244344D1*
X6200141Y6196084D1*
X5579747D1*
X5309874Y5926210D1*
X6819267Y6116710D2*
Y6196087D1*
X6866891Y6243710D1*
X2095501Y9626990D2*
X4191001D1*
X4221481Y9657470D1*
X4549141D1*
X4617721Y9588890D1*
Y9499990D1*
X4612641D1*
X2514601Y6030350D2*
Y6289430D1*
X2324101Y6479930D1*
X2202181D1*
X1318261Y7363850D1*
Y8118230D1*
X4612641Y9245990D2*
D21*
Y9273930D1*
X4488181Y9398390D1*
Y9566030D1*
X4442461Y9611750D1*
X4282441D1*
X4255771Y9585080D1*
X2461261Y5999870D2*
D13*
Y6281810D1*
X2308861Y6434210D1*
X2179321D1*
X1264921Y7348610D1*
Y7920110D1*
X6812281Y4795910D2*
X5403217D1*
X4517391Y3910084D1*
X4009394D1*
X3794761Y4124717D1*
Y5537590D1*
X3691891Y5640460D1*
X3415031D1*
X3288031Y5767460D1*
X2977517D1*
X7002781Y5230250D2*
X6918961Y5146430D1*
X6865621D1*
Y4742570D2*
X5413377D1*
X4533267Y3862460D1*
X3993517D1*
X3749041Y4106937D1*
Y5519810D1*
X3676014Y5592837D1*
X3401694D1*
X3284221Y5710310D1*
X3154681D1*
X7978141Y6402460D2*
D22*
Y6164337D1*
Y5382650D1*
X8089264Y5271527D1*
Y2941707D1*
X7741287Y2593730D1*
X5981701D1*
X7978141Y6354837D2*
Y6164337D1*
Y6307210D2*
Y6164337D1*
Y6259584D2*
Y6164337D1*
Y6211960D2*
Y6164337D1*
X5669281Y2593730D2*
X5753101D1*
X5981701D1*
X5644514Y7275587D2*
D13*
Y6910457D1*
X5565141Y6831084D1*
X2723514Y5512927D2*
Y4751464D1*
X2926081Y4548897D1*
Y3386210D1*
X3032761Y3279530D1*
Y3163960D1*
X3041017D1*
X8438517Y7466084D2*
Y7656580D1*
X8375014Y7720084D1*
X8041641D1*
X7994014Y7767710D1*
X7345681D1*
X7185661Y7607690D1*
X6812281D1*
X6659881Y7455290D1*
X5204461D1*
X5128261Y7531490D1*
X4008121Y7882010D2*
Y7821050D1*
X4023361Y7805810D1*
Y6914270D1*
X3512821Y6403730D1*
X3413761D1*
X3393441Y6383410D1*
X7284721Y7561970D2*
X7223761Y7501010D1*
X7018021D1*
X6781801Y7264790D1*
X6598921D1*
X6507481Y7173350D1*
X6858001Y7257170D2*
D24*
X6835141D1*
X6751321Y7173350D1*
X6621781D1*
X6294121Y7401950D2*
D13*
X6247767Y7355597D1*
Y7151124D1*
X6339841Y7059050D1*
X6667501D1*
X6728461Y6998090D1*
Y6959990D1*
X6787514Y7339084D2*
X6758941Y7310510D1*
X6454141D1*
Y7173350D1*
X8327391Y7656584D2*
X8041644D1*
X7976237Y7721990D1*
X7368541D1*
X7208521Y7561970D1*
X6827521D1*
X6675121Y7409570D1*
X6370321D1*
X6301741Y7340990D1*
Y7165730D1*
X6200141Y7257170D2*
Y7130170D1*
X6316981Y7013330D1*
X6606541D1*
X6713221Y6906650D1*
X6783707D1*
X6882767Y7005710D1*
X7132321D1*
X7551421Y6586610D1*
X7952741D1*
X8084821Y6454530D1*
Y5454407D1*
X8136891Y5402337D1*
X6851014Y7513710D2*
X6847841D1*
X6697981Y7363850D1*
X6431281D1*
X6362701Y7295270D1*
Y7150490D1*
X6408421Y7104770D1*
X6690361D1*
X6781801Y7013330D1*
Y6990470D1*
X7696201Y5420750D2*
Y6366897D1*
X7105014Y6958084D1*
X6894194D1*
X6797041Y6860930D1*
X6697981D1*
X6591301Y6967610D1*
X6301741D1*
X6141721Y7127630D1*
Y7159380D1*
X7390767Y5132460D2*
Y5005460D1*
X2802891Y4751460D2*
X2834637D1*
X2987041Y4599057D1*
Y3957710D1*
X3604261Y5490914D2*
Y5481710D1*
X3550921Y5428370D1*
Y3701804D1*
X4136387Y3116337D1*
X7740017D1*
X7771767Y3163960D2*
X4152267D1*
X3596641Y3719587D1*
Y5412584D1*
X3673387Y5489330D1*
X7740014Y3211584D2*
X4167507D1*
X3642361Y3736730D1*
Y5390270D1*
X3680461Y5428370D1*
X7708267Y3259210D2*
X4196081D1*
X3695701Y3759590D1*
Y5370220D1*
X2667001Y4689230D2*
Y5176910D1*
X3247391Y5037210D2*
X3322321Y4962280D1*
Y4102490D1*
X6080761Y9596510D2*
X6256021D1*
X6370321Y9482210D1*
Y8986910D1*
X6675121D1*
X7216141Y9527930D1*
X7650481D1*
X8602981Y8575430D1*
Y8529710D1*
Y7249550D1*
X8343267Y6989837D1*
X2326641Y8862450D2*
D19*
X2580641D1*
X8613141Y8529710D2*
D13*
X8602981D1*
X7018021Y5131190D2*
X7114541Y5227710D1*
X7777481D1*
X7863841Y5314070D1*
Y5946530D1*
X8138161Y6022730D2*
Y5923670D1*
X8206741Y5855090D1*
X9364981D1*
X5935981Y2243210D2*
X5713731Y2465460D1*
X5596891D1*
X5517514Y2544837D1*
Y2693424D1*
X5593081Y2768990D1*
X7200901D1*
X7261861Y2708030D1*
X7688581D1*
X7978141Y2997590D1*
Y5176910D1*
X7927341Y5227710D1*
X7777481D1*
X4853941Y4971170D2*
Y5009270D1*
X4831081Y5032130D1*
Y8415410D1*
X5059681Y8644010D1*
Y9052950D1*
X4866641Y9245990D1*
X7708267Y3068710D2*
X4120517D1*
X3505201Y3684027D1*
Y5428370D1*
X3276601Y5656970D1*
X2903221D1*
X2827021D1*
X1464767Y8550844D2*
X1485901Y8529710D1*
Y7523870D1*
Y7394330D1*
X1623061Y7257170D1*
X1706881D1*
X2903221Y6060830D1*
Y5656970D1*
X4137661Y9512690D2*
X2049781D1*
X1988821Y9451730D1*
Y9200270D1*
X1584961Y8796410D1*
X1470661D1*
X1379221Y8704970D1*
Y8598290D1*
X1432561Y7920110D2*
Y8491610D1*
X1379221Y8544950D1*
Y8598290D1*
X3749041Y5656970D2*
Y5687450D1*
X3695701Y5740790D1*
X3451861D1*
X2430781Y6761870D1*
X2198371Y6552320D2*
X1379221Y7371470D1*
Y7760090D1*
X1371601Y7767710D1*
X2771141Y5588390D2*
X3284221D1*
X3459481Y5413130D1*
Y3666244D1*
X4104641Y3021084D1*
X7676517D1*
X2771141Y5588390D2*
Y5677290D1*
X2857501Y5763650D1*
Y6037970D1*
X1767841Y7127630D1*
X1432561Y7744850D2*
Y7821050D1*
X1379221Y7874390D1*
Y8438270D1*
X1325881Y8491610D1*
Y8727830D1*
X1379221Y8781170D1*
X1432561Y7744850D2*
Y7386710D1*
X2270761Y6548510D1*
X2438401Y6685670D2*
X3436621Y5687450D1*
X3680461D1*
X4206241Y9360290D2*
Y9520310D1*
X4160521Y9566030D1*
X2004061D1*
X6803391Y5989707D2*
X6851014Y5942084D1*
X7533641D1*
X7642861Y5832864D1*
Y5481710D1*
X7882891Y4291087D2*
Y3703710D1*
X8946514D2*
Y2846460D1*
X9025891Y2767084D1*
X9810114D1*
X9834881Y2791850D1*
X6724014Y5989714D2*
X6819267Y5894460D1*
X7517767D1*
X7589521Y5822707D1*
Y5428370D1*
X7835264Y4259337D2*
Y3671960D1*
X7851141Y3656084D1*
X8898891D2*
Y2814710D1*
X8994141Y2719460D1*
X9823451D1*
X9865001Y2677910D1*
X6011921Y9535550D2*
X5872481D1*
X5771514Y9434584D1*
Y8561460D1*
X4937761Y7727707D1*
Y5123570D1*
X4914901Y5100710D1*
Y5085470D1*
X6065521Y9482210D2*
X5882641D1*
X5819141Y9418710D1*
Y8545584D1*
X4983481Y7709924D1*
Y5047370D1*
X4991101Y5039750D1*
Y5024510D1*
X5090161Y5100710D2*
Y5131190D1*
X5074921Y5146430D1*
Y7674367D1*
X5914391Y8513837D1*
Y8894837D1*
X5993764Y8974210D1*
X6151881D1*
X6217921Y9040250D1*
X6042661D2*
X5964557D1*
X5866767Y8942460D1*
Y8529714D1*
X5029201Y7692147D1*
Y5077850D1*
X5044441Y5062610D1*
Y5047370D1*
X5966461Y9588890D2*
X5846447D1*
X5723891Y9466334D1*
Y8577334D1*
X4884421Y7737864D1*
Y5180084D1*
X7422514D2*
X7860667D1*
X7930514Y5110237D1*
Y3026164D1*
X7665721Y2761370D1*
X7307581D1*
Y2959490D2*
X3040381D1*
X2910841Y3089030D1*
Y3287150D1*
X2880361Y3317630D1*
Y4513970D1*
X2780051Y4614280D1*
X2665751D1*
X2613661Y4666370D1*
Y5702690D1*
X2407921Y5908430D1*
Y6266687D1*
X2385177Y6289430D1*
X2788921Y6022730D2*
X2606041D1*
X2484121Y5900810D1*
X4866641Y8991990D2*
X4894581D1*
X5013961Y8872610D1*
Y8666870D1*
X4785361Y8438270D1*
Y4917830D1*
D25*
X6581141Y5230250D3*
X7673341Y6502790D3*
Y6670430D3*
X7391401Y7638170D3*
Y7843910D3*
X7501891Y2830584D3*
X6873241Y4635890D3*
X3025141Y3530990D3*
X3199587Y4536830D3*
X2743201Y6304670D3*
X1623061Y7333370D3*
X8359141Y4164084D3*
X3993514Y7942334D3*
X3930017Y8069334D3*
Y7942337D3*
X3451861Y6289430D3*
X3414141Y6327144D3*
X6248401Y6403094D3*
X6819267Y6116710D3*
X2095501Y9626990D3*
X2514601Y6030350D3*
X1318261Y8118230D3*
X4255771Y9585080D3*
X2461261Y5999870D3*
X1264921Y7920110D3*
X6812281Y4795910D3*
X2977517Y5767460D3*
X7002781Y5230250D3*
X6865621Y5146430D3*
Y4742570D3*
X3154681Y5710310D3*
X7978141Y6402460D3*
X5981701Y2593730D3*
X5644514Y7275587D3*
X5565141Y6831084D3*
X2723514Y5512927D3*
X8438517Y7466084D3*
X5128261Y7531490D3*
X4008121Y7882010D3*
X3393441Y6383410D3*
X7284721Y7561970D3*
X6507481Y7173350D3*
X6858001Y7257170D3*
X6621781Y7173350D3*
X6294121Y7401950D3*
X6728461Y6959990D3*
X6787514Y7339084D3*
X6454141Y7173350D3*
Y7310510D3*
X8327391Y7656584D3*
X6301741Y7165730D3*
X6200141Y7257170D3*
X8136891Y5402337D3*
X6851014Y7513710D3*
X6781801Y6990470D3*
X7696201Y5420750D3*
X6141721Y7159380D3*
X7390767Y5132460D3*
Y5005460D3*
X2802891Y4751460D3*
X2987041Y3957710D3*
X3604261Y5490914D3*
X7740017Y3116337D3*
X7771767Y3163960D3*
X3673387Y5489330D3*
X7740014Y3211584D3*
X3680461Y5428370D3*
X7708267Y3259210D3*
X3695701Y5370220D3*
X2667001Y4689230D3*
Y5176910D3*
X3247391Y5037210D3*
X3322321Y4102490D3*
X6080761Y9596510D3*
X6370321Y8986910D3*
X7018021Y5131190D3*
X7863841Y5946530D3*
X8138161Y6022730D3*
X9364981Y5855090D3*
X5935981Y2243210D3*
X4853941Y4971170D3*
X7708267Y3068710D3*
X2827021Y5656970D3*
X1464767Y8550844D3*
X1485901Y7523870D3*
X4137661Y9512690D3*
X1379221Y8598290D3*
X1432561Y7920110D3*
X3749041Y5656970D3*
X2430781Y6761870D3*
X2198371Y6552320D3*
X1371601Y7767710D3*
X2771141Y5588390D3*
X7676517Y3021084D3*
X1767841Y7127630D3*
X2771141Y5588390D3*
X1432561Y7744850D3*
X1379221Y8781170D3*
X2270761Y6548510D3*
X2438401Y6685670D3*
X3680461Y5687450D3*
X1432561Y7744850D3*
X4206241Y9360290D3*
X2004061Y9566030D3*
X1379221Y8781170D3*
X6803391Y5989707D3*
X7642861Y5481710D3*
X7882891Y4291087D3*
Y3703710D3*
X8946514D3*
X9834881Y2791850D3*
X6724014Y5989714D3*
X7589521Y5428370D3*
X7835264Y4259337D3*
X7851141Y3656084D3*
X8898891D3*
X9865001Y2677910D3*
X6011921Y9535550D3*
X4914901Y5085470D3*
X6065521Y9482210D3*
X4991101Y5024510D3*
X5090161Y5100710D3*
X6217921Y9040250D3*
X6042661D3*
X5044441Y5047370D3*
X5966461Y9588890D3*
X4884421Y5180084D3*
X7422514D3*
X7307581Y2761370D3*
Y2959490D3*
X2385177Y6289430D3*
X2788921Y6022730D3*
X2484121Y5900810D3*
X4785361Y4917830D3*
X7406641Y7085084D3*
X7454267D3*
X7501891D3*
Y7037460D3*
X7454267D3*
X7406641D3*
X8200391Y6989837D3*
X8248014D3*
X8295641D3*
Y6942210D3*
X8248014D3*
X8200391D3*
X7706994Y7624837D3*
X7754621D3*
X7802247D3*
Y7577210D3*
X7754621D3*
X7706994D3*
X7849871Y7624837D3*
Y7577210D3*
X7549514Y7085084D3*
Y7037460D3*
X8343267Y6989837D3*
Y6942210D3*
X8470264Y2433710D3*
X8533764D3*
X8597267D3*
X8660767D3*
X8724264D3*
X8787764D3*
Y2370210D3*
X8724264D3*
X8660767D3*
X8597267D3*
X8533764D3*
X8470264D3*
Y2306710D3*
X8533764D3*
X8597267D3*
X8660767D3*
X8724264D3*
X8787764D3*
Y2243207D3*
X8724264D3*
X8660767D3*
X8597267D3*
X8533764D3*
X8470264D3*
X9613264Y7815337D3*
X9676764D3*
X9740267D3*
X9803764D3*
X9867264D3*
X9930764D3*
Y7751837D3*
X9867264D3*
X9803764D3*
X9740267D3*
X9676764D3*
X9613264D3*
Y7688334D3*
X9676764D3*
X9740267D3*
X9803764D3*
X9867264D3*
X9930764D3*
Y7624830D3*
X9867264D3*
X9803764D3*
X9740267D3*
X9676764D3*
X9613264D3*
X5327014Y7339084D3*
X5374641D3*
X5422264D3*
X5469894D3*
Y7291460D3*
X5422264D3*
X5374641D3*
X5327014D3*
Y7243837D3*
X5374641D3*
X5422264Y7243834D3*
X5469891D3*
Y7196210D3*
X5422264D3*
X5374641D3*
X5327014D3*
X5166997Y5926210D3*
X5214621D3*
X5262244D3*
X5309874D3*
Y5878584D3*
X5262244D3*
X5214621D3*
X5166997D3*
Y5830960D3*
X5214621D3*
X5262244D3*
X5309871D3*
Y5783337D3*
X5262244D3*
X5214621D3*
X5166997D3*
X6914514Y6386584D3*
Y6338960D3*
Y6291337D3*
Y6243710D3*
X6866891D3*
Y6291337D3*
Y6338960D3*
Y6386584D3*
X6978014Y6894587D3*
X6930391Y6846960D3*
Y6894587D3*
X6978014Y6799337D3*
X8295641Y4164084D3*
X8232141D3*
X6930391Y6799337D3*
X6978014Y6846960D3*
X7978141Y6354837D3*
Y6307210D3*
Y6259584D3*
Y6211960D3*
Y6164337D3*
X7676514Y4037084D3*
X7740014D3*
Y3973584D3*
X7676514D3*
Y3910084D3*
X7740014D3*
Y3846584D3*
X7676514D3*
Y3783084D3*
X7740014D3*
X4198621Y4140590D3*
X4274821D3*
X4351021D3*
X4427221D3*
Y4079630D3*
X4351021D3*
X4274821D3*
X4198621D3*
Y4018670D3*
X4274821D3*
X4351021D3*
X4427221D3*
X7353301Y8834510D3*
Y8773550D3*
Y8895470D3*
Y8956430D3*
X5669281Y2593730D3*
X5753101D3*
X3482341Y7760090D3*
X3545841D3*
X3609344D3*
X3672844D3*
X3736341D3*
X3799841D3*
Y7696590D3*
X3736341D3*
X3672844D3*
X3609344D3*
X3545841D3*
X3482341D3*
Y7633090D3*
X3545841D3*
X3609344D3*
X3672844D3*
X3736341D3*
X3799841D3*
Y7569587D3*
X3736341D3*
X3672844D3*
X3609344D3*
X3545841D3*
X3482341D3*
X3489961Y8415410D3*
X3553461D3*
X3616964D3*
X3680464D3*
X3743961D3*
X3807461D3*
Y8351910D3*
X3743961D3*
X3680464D3*
X3616964D3*
X3553461D3*
X3489961D3*
Y8288410D3*
X3553461D3*
X3616964D3*
X3680464D3*
X3743961D3*
X3807461D3*
Y8224907D3*
X3743961D3*
X3680464D3*
X3616964D3*
X3553461D3*
X3489961D3*
X6301741Y6746630D3*
X6423661Y6624710D3*
Y6746630D3*
X6553201D3*
X6423661Y6876170D3*
X5000624Y8329684D3*
X5048251D3*
X5095874D3*
X5143504D3*
Y8282060D3*
X5095874D3*
X5048251D3*
X5000624D3*
Y8234437D3*
X5048251D3*
X5095874Y8234434D3*
X5143501D3*
Y8186810D3*
X5095874D3*
X5048251D3*
X5000624D3*
X3627121Y7211454D3*
X3690621D3*
X3754124D3*
X3817624D3*
X3881121D3*
X3944621D3*
Y7147954D3*
X3881121D3*
X3817624D3*
X3754124D3*
X3690621D3*
X3627121D3*
Y7084454D3*
X3690621D3*
X3754124D3*
X3817624D3*
X3881121D3*
X3944621D3*
Y7020950D3*
X3881121D3*
X3817624D3*
X3754124D3*
X3690621D3*
X3756661Y6959990D3*
X3944617D3*
X3881117D3*
X3817621D3*
X5524501Y9543170D3*
X5572127D3*
X5619751D3*
X6551294D3*
X6598921D3*
X5619751Y9495547D3*
X5572127D3*
X5524501D3*
Y9447924D3*
X5572127D3*
X5619751Y9447920D3*
X6646544Y9543170D3*
Y9495547D3*
X5619751Y9400297D3*
X5572127D3*
X5524501D3*
X6598921Y9495547D3*
X6551294D3*
Y9447924D3*
X6598921D3*
X6646544Y9447920D3*
Y9400297D3*
X6598921D3*
X6551294D3*
X5829301Y2593730D3*
X5905501D3*
X1755141Y8021710D3*
Y8275710D3*
Y7767710D3*
Y7513710D3*
X2009141D3*
Y7259710D3*
X2263141D3*
Y7005710D3*
X1501141D3*
Y6497710D3*
X1247141Y8529710D3*
Y9037710D3*
Y9291710D3*
Y9545710D3*
X2009141Y6497710D3*
X1501141Y5989710D3*
X2009141D3*
Y5481710D3*
X2517141D3*
Y3957710D3*
Y3449710D3*
Y2941710D3*
Y2433710D3*
X3025141D3*
X3533141D3*
Y3449710D3*
X2517141Y1925710D3*
X3533141D3*
Y1417710D3*
X2517141D3*
X4041141D3*
Y1925710D3*
X4549141D3*
Y1417710D3*
X5057141Y1925710D3*
Y1417710D3*
X6581141D3*
Y1925710D3*
X6073141D3*
X5565141D3*
X6073141Y2433710D3*
X6581141D3*
X7089141D3*
Y1925710D3*
Y1417710D3*
X7597141Y1925710D3*
Y2433710D3*
X6073141Y3449710D3*
Y3957710D3*
X6581141Y3449710D3*
Y3957710D3*
X7089141Y3449710D3*
X7597141D3*
X6073141Y4465710D3*
X6581141D3*
X5565141D3*
X9121141Y2433710D3*
Y1925710D3*
Y1417710D3*
X9629141D3*
Y1925710D3*
Y2433710D3*
X10137141D3*
Y1925710D3*
Y1417710D3*
X10645141Y1925710D3*
Y2433710D3*
X10137141Y3449710D3*
X9629141D3*
X9121141D3*
Y2941710D3*
X9629141D3*
X10137141Y3957710D3*
Y4465710D3*
X10645141D3*
Y3957710D3*
Y3449710D3*
Y4973710D3*
Y5481710D3*
Y5989710D3*
Y6497710D3*
Y7005710D3*
Y7513710D3*
Y8021710D3*
Y8529710D3*
Y9037710D3*
Y9545710D3*
X3914141Y4338710D3*
X9629141Y9037710D3*
Y9545710D3*
X9121141D3*
Y9037710D3*
Y8529710D3*
X9629141D3*
X10137141D3*
Y8021710D3*
X9629141D3*
X8613141Y8529710D3*
X8232141Y8402710D3*
X7851141D3*
X7470141D3*
X7089141D3*
X6708141D3*
X6327141D3*
X5946141D3*
Y8021710D3*
X3914141Y5481710D3*
Y4973710D3*
X4041141Y5354710D3*
X2390141Y4846710D3*
X3787141Y3830710D3*
X3660141Y3068710D3*
X3533141Y3195710D3*
X3660141D3*
X3533141Y3068710D3*
X8613141Y7005710D3*
X4041141Y4338710D3*
X8867141Y7005710D3*
Y6751710D3*
X9121141Y7005710D3*
Y6751710D3*
Y6497710D3*
X8867141D3*
X9121141Y6243710D3*
X3279141Y3703710D3*
X5753101Y1925710D3*
Y1773310D3*
X5941061Y1925710D3*
Y1773310D3*
X5565141D3*
X8409941Y8989450D3*
Y8923410D3*
X7651052Y7593420D2*
D16*
X7876601D1*
X7651052Y7530254D2*
X7876601D1*
X7651052Y7467087D2*
X7876601D1*
X7651052Y7403920D2*
X7876601D1*
X7651052Y7340754D2*
X7876601D1*
X7651052Y7277587D2*
X7876601D1*
X7651052Y7214420D2*
X7876601D1*
X7651052Y7151254D2*
X7876601D1*
X7651052Y7088087D2*
X7876601D1*
X7397114Y7024920D2*
X7876601D1*
X7454971Y6961754D2*
X8336976D1*
X7390806Y7019577D2*
X7499902Y6910481D1*
X8343264Y6910460D1*
Y7021587D1*
X7909674Y7021977D1*
X7900226Y7025047D1*
X7892190Y7030886D1*
X7886351Y7038923D1*
X7883281Y7048370D1*
X7882890Y7085087D1*
Y7642076D1*
X7644723Y7641980D1*
X7644373Y7111870D1*
X7641303Y7102423D1*
X7635465Y7094386D1*
X7627428Y7088547D1*
X7617981Y7085478D1*
X7581264Y7085087D1*
X7390764D1*
Y7019479D1*
X9460805Y7831544D2*
X10067230D1*
X9460805Y7768377D2*
X10067230D1*
X9460805Y7705210D2*
X10067230D1*
X9460805Y7642044D2*
X10067230D1*
X9460805Y7578877D2*
X10067230D1*
X9460805Y7515710D2*
X10067230D1*
X9460805Y7452544D2*
X10067230D1*
X9460805Y7389377D2*
X10067230D1*
X9460805Y7326210D2*
X10067230D1*
X9460805Y7263044D2*
X10067230D1*
X9460805Y7199877D2*
X10067230D1*
X9460805Y7136710D2*
X10067230D1*
X9460805Y7073544D2*
X10067230D1*
X9460805Y7010377D2*
X10067230D1*
X9460805Y6947210D2*
X10067230D1*
X9460805Y6884044D2*
X10067230D1*
X9460805Y6820877D2*
X10067230D1*
X9460805Y6757710D2*
X10067230D1*
X9460805Y6694544D2*
X10067230D1*
X9460805Y6631377D2*
X10067230D1*
X9460805Y6568210D2*
X10067230D1*
X9460805Y6505044D2*
X10067230D1*
X9460805Y6441877D2*
X10067230D1*
X9460805Y6378710D2*
X10067230D1*
X9460805Y6315544D2*
X10067230D1*
X9460805Y6252377D2*
X10067230D1*
X9460805Y6189210D2*
X10067230D1*
X9460805Y6126044D2*
X10067230D1*
X9460805Y6062877D2*
X10067230D1*
X9460805Y5999710D2*
X10067230D1*
X9460805Y5936544D2*
X10067230D1*
X9460805Y5873377D2*
X10067230D1*
X9460805Y5810210D2*
X10067230D1*
X8190867Y5747044D2*
X10067230D1*
X8190867Y5683877D2*
X10067230D1*
X8190867Y5620710D2*
X10067230D1*
X8190867Y5557544D2*
X10067230D1*
X8190867Y5494377D2*
X10067230D1*
X8224664Y5431210D2*
X10067230D1*
X8222555Y5368044D2*
X10067230D1*
X8235206Y5304877D2*
X10067230D1*
X8239050Y5241710D2*
X10067230D1*
X8239050Y5178544D2*
X8813229D1*
X8239050Y5115377D2*
X8813229D1*
X8239050Y5052210D2*
X8813229D1*
X8239050Y4989044D2*
X8813229D1*
X8239050Y4925877D2*
X8813229D1*
X8239050Y4862710D2*
X8813229D1*
X8239050Y4799544D2*
X8813229D1*
X8239050Y4736377D2*
X8813229D1*
X8239050Y4673210D2*
X8813229D1*
X8239050Y4610044D2*
X8813229D1*
X8239050Y4546877D2*
X8813229D1*
X8239050Y4483710D2*
X8813229D1*
X8239050Y4420544D2*
X8813229D1*
X8239050Y4357377D2*
X8813229D1*
X8239050Y4294210D2*
X8813229D1*
X8239050Y4231044D2*
X8813229D1*
X8239050Y4167877D2*
X8813229D1*
X8239050Y4104710D2*
X8813229D1*
X8239050Y4041544D2*
X8813229D1*
X8239050Y3978377D2*
X8813229D1*
X8239050Y3915210D2*
X8813229D1*
X8239050Y3852044D2*
X8813229D1*
X8239050Y3788877D2*
X8813229D1*
X8239050Y3725710D2*
X8813229D1*
X8239050Y3662544D2*
X8806408D1*
X8239050Y3599377D2*
X8812609D1*
X8239050Y3536210D2*
X8812609D1*
X8239050Y3473044D2*
X8812609D1*
X8239050Y3409877D2*
X8812609D1*
X8239050Y3346710D2*
X8812609D1*
X8239050Y3283544D2*
X8812609D1*
X8239050Y3220377D2*
X8812609D1*
X8239050Y3157210D2*
X8812609D1*
X8239050Y3094044D2*
X8812609D1*
X8239050Y3030877D2*
X8812609D1*
X8239050Y2967710D2*
X8812609D1*
X8234213Y2904544D2*
X8812609D1*
X8198123Y2841377D2*
X8812609D1*
X8190867Y2778210D2*
X8813229D1*
X8190867Y2715044D2*
X8813229D1*
X8190867Y2651877D2*
X8813229D1*
X8190867Y2588710D2*
X8813229D1*
X8190867Y2525544D2*
X8813229D1*
X8190867Y2462377D2*
X8813229D1*
X8190867Y2399210D2*
X8813229D1*
X8190867Y2336044D2*
X8813229D1*
X8190867Y2272877D2*
X8813229D1*
X8190867Y2209710D2*
X8813229D1*
X8190867Y2146544D2*
X8813229D1*
X8190867Y2083377D2*
X8813229D1*
X8190867Y2020210D2*
X8813229D1*
X8190867Y1957044D2*
X8813229D1*
X8190867Y1893877D2*
X8813229D1*
X8190867Y1830710D2*
X8813229D1*
X8232774Y5239777D2*
X8232332Y2930447D1*
X8228809Y2908205D1*
X8221850Y2886788D1*
X8211626Y2866723D1*
X8198390Y2848505D1*
X8184514Y2834003D1*
X8184517Y1830460D1*
X8819517D1*
X8818880Y2941710D1*
Y3623467D1*
X8813594Y3642574D1*
X8812531Y3656084D1*
X8813594Y3669593D1*
X8816757Y3682770D1*
X8819559Y3690118D1*
X8819908Y5200927D1*
X8822978Y5210375D1*
X8828816Y5218411D1*
X8836853Y5224250D1*
X8846300Y5227320D1*
X8883017Y5227710D1*
X10073640D1*
X10073641Y7894710D1*
X9454517D1*
X9454126Y5778370D1*
X9451057Y5768923D1*
X9445218Y5760886D1*
X9437181Y5755047D1*
X9427734Y5751978D1*
X9391017Y5751587D1*
X8184517D1*
Y5474395D1*
X8197956Y5463403D1*
X8206757Y5453098D1*
X8213838Y5441544D1*
X8219024Y5429024D1*
X8222187Y5415847D1*
X8223251Y5402337D1*
X8222187Y5388827D1*
X8219024Y5375650D1*
X8213838Y5363130D1*
X8207537Y5352743D1*
X8217132Y5336679D1*
X8225750Y5315874D1*
X8231007Y5293977D1*
X8232774Y5271527D1*
Y5239777D1*
X5161189Y7365787D2*
X5485957D1*
X5161189Y7302620D2*
X5485708D1*
X5161189Y7239454D2*
X5485584D1*
X5161189Y7176287D2*
X5485336D1*
X5161189Y7113120D2*
X5485088D1*
X5161189Y7049954D2*
X5484964D1*
X5161189Y6986787D2*
X5484716D1*
X5161189Y6923620D2*
X5484468D1*
X5161189Y6860454D2*
X5477523D1*
X5161189Y6797287D2*
X5479259D1*
X5161189Y6734120D2*
X5483848D1*
X5161189Y6670954D2*
X5483724D1*
X5161189Y6607787D2*
X5483476D1*
X5161189Y6544620D2*
X5483228D1*
X5161189Y6481454D2*
X5483104D1*
X5161189Y6418287D2*
X5482856D1*
X5161189Y6355120D2*
X5482608D1*
X5161189Y6291954D2*
X5482484D1*
X5161189Y6228787D2*
X5482236D1*
X5161189Y6165620D2*
X5482112D1*
X5161189Y6102454D2*
X5481864D1*
X5161189Y6039287D2*
X5481616D1*
X5161189Y5976120D2*
X5481492D1*
X5161189Y5912954D2*
X5481244D1*
X5161189Y5849787D2*
X5480996D1*
X5161189Y5786620D2*
X5480872D1*
X5161189Y5723454D2*
X5480624D1*
X5161189Y5660287D2*
X5480375D1*
X5161189Y5597120D2*
X5480251D1*
X5161189Y5533954D2*
X5480003D1*
X5161189Y5470787D2*
X5479755D1*
X5161189Y5407620D2*
X5479631D1*
X5161189Y5344454D2*
X5479383D1*
X5161189Y5281287D2*
X5479135D1*
X5154995Y5231520D2*
X5485393D1*
X5490418Y6787905D1*
X5483007Y6804397D1*
X5479844Y6817574D1*
X5478781Y6831084D1*
X5479844Y6844593D1*
X5483007Y6857770D1*
X5490743Y6874843D1*
X5492319Y7375277D1*
X5198183Y7375527D1*
X5179736Y7379196D1*
X5162655Y7387070D1*
X5156642Y7391184D1*
X5154931Y7388617D1*
Y5231477D1*
X5418999Y7322274D2*
X5565545D1*
X5723476D2*
X6137045D1*
X5419867Y7259107D2*
X5553391D1*
X5735631D2*
X6107403D1*
X5420735Y7195940D2*
X5558227D1*
X5730794D2*
X6057174D1*
X5421603Y7132774D2*
X5558227D1*
X5730794D2*
X6053205D1*
X5422471Y7069607D2*
X5558227D1*
X5730794D2*
X6080242D1*
X5423340Y7006440D2*
X5558227D1*
X5730794D2*
X6143494D1*
X5424208Y6943274D2*
X5557855D1*
X5730794D2*
X6206622D1*
X5425076Y6880107D2*
X5487658D1*
X5724841D2*
X6559345D1*
X5425944Y6816940D2*
X5473643D1*
X5670394D2*
X6622473D1*
X6872553D2*
X7126752D1*
X5426688Y6753774D2*
X5520276D1*
X5609995D2*
X7189880D1*
X5427556Y6690607D2*
X7253008D1*
X5428425Y6627440D2*
X7316260D1*
X5429293Y6564274D2*
X7379388D1*
X5430161Y6501107D2*
X7442516D1*
X5431029Y6437940D2*
X7505643D1*
X5431897Y6374774D2*
X7568895D1*
X5432765Y6311607D2*
X7609823D1*
X5433634Y6248440D2*
X7609823D1*
X5434502Y6185274D2*
X7609823D1*
X5435370Y6122107D2*
X7609823D1*
X5436238Y6058940D2*
X6666005D1*
X6861391D2*
X7609823D1*
X5437106Y5995774D2*
X6631526D1*
X5437974Y5932607D2*
X6652858D1*
X5438718Y5869440D2*
X6724792D1*
X5439587Y5806274D2*
X7486544D1*
X5440455Y5743107D2*
X7503163D1*
X5441323Y5679940D2*
X7503163D1*
X5442191Y5616774D2*
X7503163D1*
X5443059Y5553607D2*
X7503163D1*
X5443927Y5490440D2*
X7503163D1*
X5444796Y5427274D2*
X7496838D1*
X5445664Y5364107D2*
X6850304D1*
X5446532Y5300940D2*
X6488279D1*
X5447400Y5237774D2*
X6463351D1*
X5440993Y5231520D2*
X6469395D1*
X6470756Y5247733D1*
X6474850Y5264786D1*
X6481562Y5280988D1*
X6490725Y5295941D1*
X6502114Y5309277D1*
X6515450Y5320666D1*
X6530403Y5329829D1*
X6546605Y5336540D1*
X6563657Y5340634D1*
X6581141Y5342010D1*
X6834520D1*
X6892098Y5399053D1*
X6906286Y5409361D1*
X6921912Y5417323D1*
X6938591Y5422742D1*
X6955912Y5425486D1*
X7091681Y5425830D1*
X7503314D1*
X7504224Y5441880D1*
X7509542Y5460897D1*
X7509510Y5789651D1*
X7484623Y5814453D1*
X6812990Y5814697D1*
X6794543Y5818366D1*
X6777462Y5826240D1*
X6762691Y5837885D1*
X6762108Y5838515D1*
X6690341Y5910235D1*
X6673253Y5919847D1*
X6662948Y5928648D1*
X6654147Y5938952D1*
X6647067Y5950507D1*
X6641881Y5963027D1*
X6638717Y5976204D1*
X6637654Y5989714D1*
X6638717Y6003223D1*
X6641881Y6016400D1*
X6647067Y6028920D1*
X6654147Y6040475D1*
X6662948Y6050779D1*
X6673253Y6059580D1*
X6684807Y6066661D1*
X6697327Y6071847D1*
X6710504Y6075010D1*
X6724014Y6076074D1*
X6737524Y6075010D1*
X6750701Y6071847D1*
X6764184Y6066654D1*
X6776704Y6071840D1*
X6789881Y6075004D1*
X6803391Y6076067D1*
X6816900Y6075004D1*
X6830077Y6071840D1*
X6842597Y6066654D1*
X6854152Y6059574D1*
X6864456Y6050773D1*
X6873257Y6040468D1*
X6882944Y6023261D1*
X6946264Y6022094D1*
X7539918Y6021847D1*
X7558365Y6018178D1*
X7575446Y6010303D1*
X7590216Y5998659D1*
X7590799Y5998029D1*
X7616263Y5972613D1*
X7616190Y6333687D1*
X7071781Y6878164D1*
X6927288Y6878073D1*
X6849003Y6800090D1*
X6833364Y6789641D1*
X6815719Y6783131D1*
X6797041Y6780920D1*
X6796182Y6780954D1*
X6691703Y6781167D1*
X6673256Y6784836D1*
X6656175Y6792710D1*
X6641405Y6804354D1*
X6640822Y6804985D1*
X6558179Y6887580D1*
X6295463Y6887847D1*
X6277016Y6891516D1*
X6259935Y6899391D1*
X6245165Y6911035D1*
X6244582Y6911665D1*
X6080880Y7075668D1*
X6070431Y7091306D1*
X6063921Y7108952D1*
X6061918Y7122358D1*
X6056424Y7145871D1*
X6055361Y7159380D1*
X6056424Y7172890D1*
X6059587Y7186067D1*
X6064773Y7198587D1*
X6071854Y7210141D1*
X6080655Y7220446D1*
X6090959Y7229247D1*
X6102514Y7236328D1*
X6115212Y7241564D1*
X6113781Y7257170D1*
X6114844Y7270680D1*
X6118007Y7283857D1*
X6123193Y7296377D1*
X6130274Y7307931D1*
X6139075Y7318236D1*
X6149379Y7327037D1*
X6160934Y7334118D1*
X6167813Y7337222D1*
X6168742Y7368113D1*
X6170241Y7375243D1*
X5411833Y7375280D1*
X5441107Y5231484D1*
X5724524Y7242969D2*
X5724278Y6904179D1*
X5720608Y6885732D1*
X5712734Y6868652D1*
X5701090Y6853881D1*
X5700459Y6853298D1*
X5644700Y6797491D1*
X5635007Y6780322D1*
X5626206Y6770018D1*
X5615902Y6761217D1*
X5604347Y6754136D1*
X5591827Y6748950D1*
X5578650Y6745787D1*
X5565141Y6744724D1*
X5551631Y6745787D1*
X5538454Y6748950D1*
X5525934Y6754136D1*
X5514379Y6761217D1*
X5504075Y6770018D1*
X5495274Y6780322D1*
X5488193Y6791877D1*
X5483007Y6804397D1*
X5479844Y6817574D1*
X5478781Y6831084D1*
X5479844Y6844593D1*
X5483007Y6857770D1*
X5488193Y6870290D1*
X5495274Y6881845D1*
X5504075Y6892149D1*
X5514379Y6900950D1*
X5531587Y6910637D1*
X5564604Y6943698D1*
X5564504Y7242964D1*
X5559217Y7262077D1*
X5558154Y7275587D1*
X5559217Y7289097D1*
X5562381Y7302274D1*
X5567567Y7314794D1*
X5574647Y7326348D1*
X5583448Y7336653D1*
X5593753Y7345454D1*
X5605307Y7352534D1*
X5617827Y7357720D1*
X5631004Y7360884D1*
X5644514Y7361947D1*
X5658024Y7360884D1*
X5671201Y7357720D1*
X5683720Y7352534D1*
X5695275Y7345454D1*
X5705580Y7336653D1*
X5714381Y7326348D1*
X5721461Y7314794D1*
X5726647Y7302274D1*
X5729811Y7289097D1*
X5730874Y7275587D1*
X5729811Y7262077D1*
X5724493Y7243060D1*
X4196892Y8754834D2*
X4434843D1*
X4196892Y8691667D2*
X4434843D1*
X4196892Y8628500D2*
X4434843D1*
X4196892Y8565334D2*
X4434843D1*
X4196892Y8502167D2*
X4434843D1*
X4196892Y8439000D2*
X4434843D1*
X4196892Y8375834D2*
X4434843D1*
X4196892Y8312667D2*
X4434843D1*
X4196892Y8249500D2*
X4434843D1*
X4196892Y8186334D2*
X4434843D1*
X4196892Y8123167D2*
X4434843D1*
X4196892Y8060000D2*
X4434843D1*
X4196892Y7996834D2*
X4434843D1*
X4196892Y7933667D2*
X4434843D1*
X4196892Y7870500D2*
X4434843D1*
X4196892Y7807334D2*
X4434843D1*
X4196892Y7744167D2*
X4434843D1*
X4196892Y7681000D2*
X4434843D1*
X4196892Y7617834D2*
X4434843D1*
X4196892Y7554667D2*
X4434843D1*
X4196892Y7491500D2*
X4434843D1*
X4196892Y7428334D2*
X4434843D1*
X4196892Y7365167D2*
X4434843D1*
X4196892Y7302000D2*
X4434843D1*
X4196892Y7238834D2*
X4434843D1*
X4196892Y7175667D2*
X4434843D1*
X4196892Y7112500D2*
X4434843D1*
X4196892Y7049334D2*
X4434843D1*
X4196892Y6986167D2*
X4434843D1*
X4196892Y6923000D2*
X4434843D1*
X4195403Y6859834D2*
X4434843D1*
X4191001Y6796667D2*
X4434843D1*
X4191001Y6733500D2*
X4434843D1*
X4191001Y6670334D2*
X4434843D1*
X4191001Y6607167D2*
X4434843D1*
X4191001Y6544000D2*
X4434843D1*
X4191001Y6480834D2*
X4434843D1*
X4191001Y6417667D2*
X4434843D1*
X4191001Y6354500D2*
X4434843D1*
X4191001Y6291334D2*
X4434843D1*
X4191001Y6228167D2*
X4434843D1*
X4191001Y6165000D2*
X4434843D1*
X4191001Y6101834D2*
X4434843D1*
X4191001Y6038667D2*
X4434843D1*
X4191001Y5975500D2*
X4434843D1*
X4191001Y5912334D2*
X4434843D1*
X4191001Y5849167D2*
X4434843D1*
X4191001Y5786000D2*
X4434843D1*
X4191001Y5722834D2*
X4434843D1*
X4191001Y5659667D2*
X4434843D1*
X4191001Y5596500D2*
X4434843D1*
X4191001Y5533334D2*
X4434843D1*
X4191001Y5470167D2*
X4434843D1*
X4191001Y5407000D2*
X4434843D1*
X4191001Y5343834D2*
X4434843D1*
X4191001Y5280667D2*
X4434843D1*
X4191001Y5217500D2*
X4434843D1*
X4191001Y5154334D2*
X4434843D1*
X4191001Y5091167D2*
X4434843D1*
X4191001Y5028000D2*
X4434843D1*
X4191001Y4964834D2*
X4434843D1*
X4191001Y4901667D2*
X4434843D1*
X4191001Y4838500D2*
X4434843D1*
X4191001Y4775334D2*
X4434843D1*
X4191001Y4712167D2*
X4434843D1*
X4191001Y4649000D2*
X4434843D1*
X4191001Y4585834D2*
X4434843D1*
X4191001Y4522667D2*
X4434843D1*
X4191001Y4459500D2*
X4434843D1*
X4191001Y4396334D2*
X4434843D1*
X4191001Y4333167D2*
X4434843D1*
X4191001Y4270000D2*
X4434843D1*
X4191001Y4206834D2*
X4434843D1*
X4191001Y4143667D2*
X4434843D1*
X4191001Y4080500D2*
X4434843D1*
X4191001Y4017334D2*
X4434843D1*
X4190601Y8818058D2*
X4190354Y6869169D1*
X4186685Y6850722D1*
X4186336Y6849779D1*
X4186685Y6850722D1*
X4184651Y6817750D1*
Y3990140D1*
X4441119Y3990094D1*
X4441191Y8818000D1*
X4190539D1*
X4546628Y8754834D2*
X4701483D1*
X4546628Y8691667D2*
X4701483D1*
X4546628Y8628500D2*
X4701483D1*
X4546628Y8565334D2*
X4701483D1*
X4546628Y8502167D2*
X4701483D1*
X4546628Y8439000D2*
X4699003D1*
X4546628Y8375834D2*
X4699003D1*
X4546628Y8312667D2*
X4699003D1*
X4546628Y8249500D2*
X4699003D1*
X4546628Y8186334D2*
X4699003D1*
X4546628Y8123167D2*
X4699003D1*
X4546628Y8060000D2*
X4699003D1*
X4546628Y7996834D2*
X4699003D1*
X4546628Y7933667D2*
X4699003D1*
X4546628Y7870500D2*
X4699003D1*
X4546628Y7807334D2*
X4699003D1*
X4546628Y7744167D2*
X4699003D1*
X4546628Y7681000D2*
X4699003D1*
X4546628Y7617834D2*
X4699003D1*
X4546628Y7554667D2*
X4699003D1*
X4546628Y7491500D2*
X4699003D1*
X4546628Y7428334D2*
X4699003D1*
X4546628Y7365167D2*
X4699003D1*
X4546628Y7302000D2*
X4699003D1*
X4546628Y7238834D2*
X4699003D1*
X4546628Y7175667D2*
X4699003D1*
X4546628Y7112500D2*
X4699003D1*
X4546628Y7049334D2*
X4699003D1*
X4546628Y6986167D2*
X4699003D1*
X4546628Y6923000D2*
X4699003D1*
X4546628Y6859834D2*
X4699003D1*
X4546628Y6796667D2*
X4699003D1*
X4546628Y6733500D2*
X4699003D1*
X4546628Y6670334D2*
X4699003D1*
X4546628Y6607167D2*
X4699003D1*
X4546628Y6544000D2*
X4699003D1*
X4546628Y6480834D2*
X4699003D1*
X4546628Y6417667D2*
X4699003D1*
X4546628Y6354500D2*
X4699003D1*
X4546628Y6291334D2*
X4699003D1*
X4546628Y6228167D2*
X4699003D1*
X4546628Y6165000D2*
X4699003D1*
X4546628Y6101834D2*
X4699003D1*
X4546628Y6038667D2*
X4699003D1*
X4546628Y5975500D2*
X4699003D1*
X4546628Y5912334D2*
X4699003D1*
X4546628Y5849167D2*
X4699003D1*
X4546628Y5786000D2*
X4699003D1*
X4546628Y5722834D2*
X4699003D1*
X4546628Y5659667D2*
X4699003D1*
X4546628Y5596500D2*
X4699003D1*
X4546628Y5533334D2*
X4699003D1*
X4546628Y5470167D2*
X4699003D1*
X4546628Y5407000D2*
X4699003D1*
X4546628Y5343834D2*
X4699003D1*
X4546628Y5280667D2*
X4699003D1*
X4546628Y5217500D2*
X4699003D1*
X4546628Y5154334D2*
X4699003D1*
X4546628Y5091167D2*
X4699003D1*
X5182372D2*
X6792891D1*
X7100891D2*
X7304487D1*
X7477054D2*
X7830099D1*
X4546628Y5028000D2*
X4699003D1*
X5143057D2*
X7301015D1*
X7480526D2*
X7844237D1*
X4546628Y4964834D2*
X4699003D1*
X5076208D2*
X7308208D1*
X7473333D2*
X7844237D1*
X4546628Y4901667D2*
X4694166D1*
X4911505D2*
X7844237D1*
X4546628Y4838500D2*
X4744892D1*
X4825805D2*
X5326314D1*
X6893771D2*
X7844237D1*
X4546628Y4775334D2*
X5263186D1*
X6951814D2*
X7844237D1*
X4546628Y4712167D2*
X5200058D1*
X6952807D2*
X7844237D1*
X4546628Y4649000D2*
X5136806D1*
X6984184D2*
X7844237D1*
X4546628Y4585834D2*
X5073678D1*
X6984929D2*
X7844237D1*
X4546628Y4522667D2*
X5010550D1*
X6984929D2*
X7844237D1*
X6996711Y4459500D2*
X7844237D1*
X7059839Y4396334D2*
X7844237D1*
X7123091Y4333167D2*
X7784086D1*
X7186219Y4270000D2*
X7743158D1*
X7249347Y4206834D2*
X7748987D1*
X7312599Y4143667D2*
X7748987D1*
X7375726Y4080500D2*
X7748987D1*
X7438854Y4017334D2*
X7748987D1*
X7502106Y3954167D2*
X7748987D1*
X7565234Y3891000D2*
X7748987D1*
X7628362Y3827834D2*
X7748987D1*
X7691614Y3764667D2*
X7748987D1*
X4540251Y8817380D2*
Y4477056D1*
X4971321Y4477140D1*
X5351255Y4856751D1*
X5366893Y4867200D1*
X5384539Y4873710D1*
X5403217Y4875920D1*
X5404075Y4875887D1*
X6779753Y4875920D1*
X6798771Y4881207D1*
X6812281Y4882270D1*
X6825790Y4881207D1*
X6838967Y4878044D1*
X6851487Y4872858D1*
X6863042Y4865777D1*
X6873346Y4856976D1*
X6882147Y4846671D1*
X6889228Y4835117D1*
X6893818Y4824212D1*
X6910744Y4816204D1*
X6921707Y4808239D1*
X6931289Y4798657D1*
X6939255Y4787693D1*
X6945407Y4775619D1*
X6949594Y4762731D1*
X6951714Y4749346D1*
Y4735795D1*
X6949594Y4722410D1*
X6946278Y4711883D1*
X6958519Y4697849D1*
X6967162Y4683745D1*
X6973491Y4668464D1*
X6977353Y4652380D1*
X6978651Y4635890D1*
Y4471311D1*
X7750124Y3699799D1*
X7755254Y3703710D1*
Y4226717D1*
X7749967Y4245827D1*
X7748904Y4259337D1*
X7749967Y4272847D1*
X7753131Y4286024D1*
X7758317Y4298544D1*
X7765397Y4310098D1*
X7774198Y4320403D1*
X7784503Y4329204D1*
X7796057Y4336284D1*
X7813854Y4342959D1*
X7826804Y4356756D1*
X7837768Y4364721D1*
X7850513Y4371121D1*
X7850504Y5077139D1*
X7827546Y5100053D1*
X7470862Y5100073D1*
X7470777Y5038078D1*
X7476064Y5018970D1*
X7477127Y5005460D1*
X7476064Y4991951D1*
X7472900Y4978774D1*
X7467715Y4966254D1*
X7460634Y4954699D1*
X7451833Y4944395D1*
X7441528Y4935594D1*
X7429974Y4928513D1*
X7417454Y4923327D1*
X7404277Y4920164D1*
X7390767Y4919100D1*
X7377258Y4920164D1*
X7364080Y4923327D1*
X7351561Y4928513D1*
X7340006Y4935594D1*
X7329701Y4944395D1*
X7320900Y4954699D1*
X7313820Y4966254D1*
X7308634Y4978774D1*
X7305470Y4991951D1*
X7304407Y5005460D1*
X7305470Y5018970D1*
X7310788Y5037987D1*
X7310757Y5099842D1*
X7305470Y5118951D1*
X7304477Y5134234D1*
X7133164Y5133299D1*
X7097538Y5097556D1*
X7087887Y5080429D1*
X7079086Y5070125D1*
X7068782Y5061324D1*
X7057227Y5054243D1*
X7044707Y5049057D1*
X7031530Y5045894D1*
X7018021Y5044830D1*
X7004511Y5045894D1*
X6991334Y5049057D1*
X6978814Y5054243D1*
X6967259Y5061324D1*
X6953233Y5074151D1*
X6937639Y5068631D1*
X6918961Y5066420D1*
X6918102Y5066454D1*
X6898001Y5066420D1*
X6879130Y5061134D1*
X6865621Y5060070D1*
X6852111Y5061134D1*
X6838934Y5064297D1*
X6826414Y5069483D1*
X6814859Y5076564D1*
X6804555Y5085365D1*
X6795754Y5095669D1*
X6788673Y5107224D1*
X6783937Y5118526D1*
X6572372Y5118835D1*
X6555051Y5121578D1*
X6538372Y5126997D1*
X6527143Y5132497D1*
X5170374Y5132460D1*
X5175457Y5114220D1*
X5176521Y5100710D1*
X5175457Y5087201D1*
X5172294Y5074024D1*
X5167108Y5061504D1*
X5160027Y5049949D1*
X5151226Y5039645D1*
X5140922Y5030844D1*
X5127226Y5022776D1*
X5121388Y5008164D1*
X5114307Y4996609D1*
X5105506Y4986305D1*
X5095202Y4977504D1*
X5083647Y4970423D1*
X5071127Y4965237D1*
X5057950Y4962074D1*
X5049866Y4961223D1*
X5036224Y4950876D1*
X5024149Y4944724D1*
X5011261Y4940536D1*
X4997876Y4938417D1*
X4984325D1*
X4970940Y4940536D1*
X4958052Y4944724D1*
X4945978Y4950876D1*
X4938904Y4955775D1*
X4933727Y4938122D1*
X4927575Y4926047D1*
X4919609Y4915084D1*
X4910027Y4905502D1*
X4899064Y4897536D1*
X4886989Y4891384D1*
X4874101Y4887196D1*
X4865477Y4885640D1*
X4858995Y4872707D1*
X4851029Y4861744D1*
X4841447Y4852162D1*
X4830484Y4844196D1*
X4818409Y4838044D1*
X4805521Y4833856D1*
X4792136Y4831737D1*
X4778585D1*
X4765200Y4833856D1*
X4752312Y4838044D1*
X4740238Y4844196D1*
X4729274Y4852162D1*
X4719692Y4861744D1*
X4711727Y4872707D1*
X4705574Y4884782D1*
X4701387Y4897670D1*
X4699267Y4911055D1*
Y4924606D1*
X4701387Y4937991D1*
X4705382Y4950357D1*
X4705597Y8444548D1*
X4707834Y8457917D1*
X4707581Y8815773D1*
X4540281Y8817413D1*
X3368041Y8876754D2*
X3902098D1*
X3368041Y8813587D2*
X3902098D1*
X3368041Y8750420D2*
X3902098D1*
X3368041Y8687254D2*
X3902098D1*
X3368041Y8624087D2*
X3902098D1*
X3368041Y8560920D2*
X3902098D1*
X3368041Y8497754D2*
X3902098D1*
X3368041Y8434587D2*
X3902098D1*
X3368041Y8371420D2*
X3902098D1*
X3368041Y8308254D2*
X3902098D1*
X3368041Y8245087D2*
X3902098D1*
X3368041Y8181920D2*
X3902098D1*
X3368041Y8118754D2*
X3852861D1*
X3368041Y8055587D2*
X3838350D1*
X3368041Y7992420D2*
X3838598D1*
X3368041Y7929254D2*
X3838350D1*
X3368041Y7866087D2*
X3883122D1*
X3368041Y7802920D2*
X3923926D1*
X3368041Y7739754D2*
X3937072D1*
X3368041Y7676587D2*
X3937072D1*
X3368041Y7613420D2*
X3937072D1*
X3368041Y7550254D2*
X3937072D1*
X3368041Y7487087D2*
X3937072D1*
X3368041Y7423920D2*
X3937072D1*
X3368041Y7360754D2*
X3937072D1*
X3908424Y8153049D2*
Y8933157D1*
X3361599Y8939541D1*
X3362058Y7357129D1*
X3943316Y7350370D1*
X3943350Y7774125D1*
X3934201Y7790432D1*
X3929095Y7808534D1*
X3928110Y7821050D1*
Y7849452D1*
X3925779Y7856063D1*
X3909857Y7858363D1*
X3896969Y7862551D1*
X3884894Y7868703D1*
X3873931Y7876668D1*
X3864349Y7886251D1*
X3856383Y7897214D1*
X3850231Y7909288D1*
X3846043Y7922177D1*
X3843923Y7935561D1*
Y7949113D1*
X3844963Y7957068D1*
X3844720Y8055824D1*
X3843657Y8069334D1*
X3844720Y8082843D1*
X3847884Y8096020D1*
X3853070Y8108540D1*
X3860150Y8120095D1*
X3868951Y8130399D1*
X3879256Y8139200D1*
X3890811Y8146281D1*
X3908455Y8152912D1*
X2743201Y9379674D2*
X3261383D1*
X2743201Y9316507D2*
X3261383D1*
X2743201Y9253340D2*
X3261383D1*
X2743201Y9190174D2*
X3261383D1*
X2743201Y9127007D2*
X3261383D1*
X2743201Y9063840D2*
X3261383D1*
X2743201Y9000674D2*
X3261383D1*
X2743201Y8937507D2*
X3256298D1*
X2743201Y8874340D2*
X3256298D1*
X2743201Y8811174D2*
X3256298D1*
X3262630Y8805226D2*
X3262838Y8976951D1*
X3266289Y8993458D1*
X3267710Y9027550D1*
Y9432735D1*
X2736816Y9432680D1*
X2736851Y8805300D1*
X3262586D1*
X2075138Y9379674D2*
X2631458D1*
X2075138Y9316507D2*
X2631458D1*
X2075138Y9253340D2*
X2631458D1*
X2074518Y9190174D2*
X2631458D1*
X2034955Y9127007D2*
X2631458D1*
X1971827Y9063840D2*
X2631458D1*
X1927861Y9000674D2*
X2247605D1*
X1927861Y8937507D2*
X2183361D1*
X1927861Y8874340D2*
X2164510D1*
X1927861Y8811174D2*
X2172819D1*
X1927861Y8748007D2*
X2213995D1*
X1927861Y8684840D2*
X3256288D1*
X1927861Y8621674D2*
X3256288D1*
X1927861Y8558507D2*
X3256288D1*
X1927861Y8495340D2*
X3256288D1*
X1927861Y8432174D2*
X3256288D1*
X1927861Y8369007D2*
X3256288D1*
X1927861Y8305840D2*
X3256288D1*
X1927861Y8242674D2*
X3256288D1*
X1927861Y8179507D2*
X3256288D1*
X1927861Y8116340D2*
X3256288D1*
X1941441Y8053174D2*
X3256288D1*
X1995391Y7990007D2*
X3256288D1*
X2049341Y7926840D2*
X3256288D1*
X2103416Y7863674D2*
X3256288D1*
X2157366Y7800507D2*
X3256288D1*
X2211316Y7737340D2*
X3256288D1*
X2265390Y7674174D2*
X3256288D1*
X2319341Y7611007D2*
X3256288D1*
X2373291Y7547840D2*
X3256288D1*
X2427365Y7484674D2*
X3256288D1*
X2481315Y7421507D2*
X3256288D1*
X2535265Y7358340D2*
X3256288D1*
X2589340Y7295174D2*
X3263605D1*
X2643290Y7232007D2*
X3937053D1*
X2697240Y7168840D2*
X3937053D1*
X2751314Y7105674D2*
X3937053D1*
X2805264Y7042507D2*
X3937053D1*
X2859215Y6979340D2*
X3937053D1*
X2913289Y6916174D2*
X3905799D1*
X2967239Y6853007D2*
X3842671D1*
X3021189Y6789840D2*
X3779419D1*
X3075263Y6726674D2*
X3716291D1*
X3943429Y7251302D2*
X3323880Y7258714D1*
X3308398Y7261981D1*
X3294106Y7268772D1*
X3281795Y7278711D1*
X3272144Y7291251D1*
X3265687Y7305696D1*
X3262781Y7321250D1*
X3262630Y8706255D1*
X2699819Y8706448D1*
X2684301Y8709534D1*
X2669931Y8716159D1*
X2657505Y8725955D1*
X2640420Y8718131D1*
X2617107Y8710556D1*
X2592897Y8706722D1*
X2517141Y8706240D1*
X2314384Y8706722D1*
X2290174Y8710556D1*
X2266861Y8718131D1*
X2245021Y8729259D1*
X2225190Y8743667D1*
X2207857Y8761000D1*
X2193449Y8780831D1*
X2182321Y8802671D1*
X2174746Y8825984D1*
X2170912Y8850194D1*
Y8874706D1*
X2174746Y8898917D1*
X2182321Y8922229D1*
X2193449Y8944070D1*
X2207857Y8963901D1*
X2225190Y8981233D1*
X2245021Y8995641D1*
X2266861Y9006770D1*
X2290174Y9014344D1*
X2314384Y9018179D1*
X2421891Y9018660D1*
X2592897Y9018179D1*
X2617107Y9014344D1*
X2629766Y9010700D1*
X2637790Y9027550D1*
Y9432735D1*
X2082964Y9432680D1*
X2068831Y9388230D1*
X2068584Y9193993D1*
X2064915Y9175546D1*
X2057040Y9158465D1*
X2045396Y9143694D1*
X2044766Y9143111D1*
X1921479Y9019777D1*
X1921511Y8068938D1*
X3070422Y6724839D1*
X3713871Y6717887D1*
X3943406Y6947467D1*
X3943350Y7251242D1*
X1170695Y9572714D2*
X1401081D1*
X4752864D2*
X5710771D1*
X6096286D2*
X9991316D1*
X10491180D2*
X10739426D1*
X1127783Y9509547D2*
X1353580D1*
X4770971D2*
X5650248D1*
X6153833D2*
X9943815D1*
X10538681D2*
X10781098D1*
X1109427Y9446380D2*
X1325055D1*
X4761546D2*
X5637598D1*
X6303033D2*
X9915290D1*
X10567207D2*
X10798461D1*
X1104963Y9383214D2*
X1310544D1*
X3373103D2*
X3434445D1*
X4716773D2*
X4794238D1*
X4939023D2*
X5637598D1*
X6303033D2*
X9900779D1*
X10581717D2*
X10802678D1*
X1104963Y9320047D2*
X1308311D1*
X3373103D2*
X3443375D1*
X5006120D2*
X5637598D1*
X6303033D2*
X9898671D1*
X10583950D2*
X10802678D1*
X1104963Y9256880D2*
X1318233D1*
X3373103D2*
X3485791D1*
X5024971D2*
X5637598D1*
X6303033D2*
X9908469D1*
X10574152D2*
X10802678D1*
X1104963Y9193714D2*
X1341178D1*
X3373103D2*
X3453173D1*
X5038366D2*
X5637598D1*
X6303033D2*
X9931413D1*
X10551084D2*
X10802678D1*
X1104963Y9130547D2*
X1380741D1*
X3373103D2*
X3434569D1*
X5101494D2*
X5637598D1*
X6303033D2*
X9971100D1*
X10511520D2*
X10802678D1*
X1104963Y9067380D2*
X1446722D1*
X3373103D2*
X3442879D1*
X5144654D2*
X5637598D1*
X6306257D2*
X7333742D1*
X7372873D2*
X10036957D1*
X10445540D2*
X10802678D1*
X1104963Y9004214D2*
X1617130D1*
X3373103D2*
X3484303D1*
X5146018D2*
X5637598D1*
X6302785D2*
X7245933D1*
X7460668D2*
X10207365D1*
X10275089D2*
X10802678D1*
X1104963Y8941047D2*
X1610184D1*
X3373103D2*
X3902138D1*
X5146018D2*
X5637598D1*
X6238169D2*
X7235267D1*
X7471334D2*
X10802678D1*
X1104963Y8877880D2*
X1546932D1*
X1785851D2*
X1816192D1*
X3373103D2*
X3902138D1*
X5146018D2*
X5637598D1*
X6016911D2*
X7235267D1*
X7471334D2*
X10802678D1*
X1104963Y8814714D2*
X1293305D1*
X1722723D2*
X1816187D1*
X3374964D2*
X3902138D1*
X5146018D2*
X5637598D1*
X6000664D2*
X7235267D1*
X7471334D2*
X10802678D1*
X1104963Y8751547D2*
X1243199D1*
X1659595D2*
X1816187D1*
X3395923D2*
X3902138D1*
X5146018D2*
X5637598D1*
X6000664D2*
X7235267D1*
X7471334D2*
X10802678D1*
X1104963Y8688380D2*
X1239602D1*
X1482118D2*
X1816187D1*
X3395923D2*
X3902138D1*
X5146018D2*
X5637598D1*
X6000664D2*
X7235267D1*
X7471334D2*
X10802678D1*
X1104963Y8625214D2*
X1239602D1*
X1514984D2*
X1816187D1*
X3395923D2*
X3902138D1*
X5143786D2*
X5637598D1*
X6000664D2*
X7235267D1*
X7471334D2*
X10802678D1*
X1104963Y8562047D2*
X1239602D1*
X1565338D2*
X1816187D1*
X3395923D2*
X3902138D1*
X5097153D2*
X5589104D1*
X6000664D2*
X7235267D1*
X7471334D2*
X10802678D1*
X1104963Y8498880D2*
X1239602D1*
X1572283D2*
X1816187D1*
X3395923D2*
X3902138D1*
X5034025D2*
X5525976D1*
X5999299D2*
X7235267D1*
X7471334D2*
X10802678D1*
X1104963Y8435714D2*
X1262299D1*
X1572283D2*
X1816187D1*
X3395923D2*
X3902138D1*
X4970897D2*
X5462848D1*
X5955767D2*
X7235267D1*
X7471334D2*
X10802678D1*
X1104963Y8372547D2*
X1292932D1*
X1572283D2*
X1816187D1*
X3395923D2*
X3902138D1*
X4917443D2*
X5399597D1*
X5892515D2*
X7235267D1*
X7471334D2*
X10802678D1*
X1104963Y8309380D2*
X1292932D1*
X1572283D2*
X1816187D1*
X3395923D2*
X3902138D1*
X4917443D2*
X5336469D1*
X5829387D2*
X7235267D1*
X7471334D2*
X10802678D1*
X1104963Y8246214D2*
X1292932D1*
X1572283D2*
X1816187D1*
X3395923D2*
X3902138D1*
X4917443D2*
X5273341D1*
X5766259D2*
X7235267D1*
X7471334D2*
X10802678D1*
X1104963Y8183047D2*
X1254857D1*
X1572283D2*
X1816187D1*
X3395923D2*
X3902138D1*
X4917443D2*
X5210089D1*
X5703007D2*
X7235267D1*
X7471334D2*
X10802678D1*
X1104963Y8119880D2*
X1225588D1*
X1572283D2*
X1816187D1*
X3395923D2*
X3853644D1*
X4917443D2*
X5146961D1*
X5639880D2*
X7235267D1*
X7471334D2*
X10802678D1*
X1104963Y8056714D2*
X1231913D1*
X1572283D2*
X1816187D1*
X3395923D2*
X3838265D1*
X4917443D2*
X5083833D1*
X5576752D2*
X7235267D1*
X7471334D2*
X10802678D1*
X1104963Y7993547D2*
X1213185D1*
X1572283D2*
X1849426D1*
X3395923D2*
X3838638D1*
X4917443D2*
X5020705D1*
X5513500D2*
X7235267D1*
X7471334D2*
X9411383D1*
X10116754D2*
X10802678D1*
X1104963Y7930380D2*
X1172878D1*
X1572283D2*
X1903376D1*
X3395923D2*
X3838141D1*
X4917443D2*
X4957486D1*
X5450372D2*
X7235267D1*
X7471334D2*
X9349247D1*
X10178889D2*
X10802678D1*
X1104963Y7867214D2*
X1178583D1*
X1572283D2*
X1957326D1*
X3395923D2*
X3881054D1*
X5387244D2*
X7236260D1*
X7507052D2*
X9349123D1*
X10179013D2*
X10802678D1*
X1104963Y7804047D2*
X1178583D1*
X1572283D2*
X2011400D1*
X3395923D2*
X3923594D1*
X5324116D2*
X7262553D1*
X8077188D2*
X9349123D1*
X10179013D2*
X10802678D1*
X1104963Y7740880D2*
X1178583D1*
X1572283D2*
X2065350D1*
X3395923D2*
X3936988D1*
X5260864D2*
X7199425D1*
X8473691D2*
X9349123D1*
X10179013D2*
X10802678D1*
X1104963Y7677714D2*
X1178583D1*
X1572283D2*
X2119301D1*
X3395923D2*
X3936988D1*
X5197736D2*
X6767327D1*
X8522060D2*
X9349123D1*
X10179013D2*
X10802678D1*
X1104963Y7614547D2*
X1178583D1*
X1572283D2*
X2173375D1*
X3395923D2*
X3936988D1*
X5161273D2*
X6699734D1*
X7509533D2*
X7964277D1*
X8524789D2*
X9349123D1*
X10179013D2*
X10802678D1*
X1104963Y7551380D2*
X1178583D1*
X1574143D2*
X2227325D1*
X3395923D2*
X3936988D1*
X5582829D2*
X6636482D1*
X7509533D2*
X8352223D1*
X8524789D2*
X9349123D1*
X10179013D2*
X10802678D1*
X1104963Y7488214D2*
X1178583D1*
X1572283D2*
X2281275D1*
X3395923D2*
X3936988D1*
X7503580D2*
X8348750D1*
X8528385D2*
X9349123D1*
X10179013D2*
X10802678D1*
X1104963Y7425047D2*
X1178583D1*
X1574639D2*
X2335349D1*
X3395923D2*
X3936988D1*
X7456947D2*
X8356191D1*
X8520820D2*
X9349123D1*
X10179013D2*
X10802678D1*
X1104963Y7361880D2*
X1178583D1*
X1805447D2*
X2389300D1*
X7393819D2*
X9349123D1*
X10179013D2*
X10802678D1*
X1104963Y7298714D2*
X1196070D1*
X1868575D2*
X2443250D1*
X7330567D2*
X9349123D1*
X10179013D2*
X10802678D1*
X1104963Y7235547D2*
X1258578D1*
X1931827D2*
X2497324D1*
X7296089D2*
X9349123D1*
X10179013D2*
X10802678D1*
X1104963Y7172380D2*
X1321706D1*
X1994955D2*
X2551274D1*
X7296089D2*
X9349123D1*
X10179013D2*
X10802678D1*
X1104963Y7109214D2*
X1384834D1*
X2058083D2*
X2605224D1*
X7307499D2*
X9349123D1*
X10179013D2*
X10802678D1*
X1104963Y7046047D2*
X1448086D1*
X2121335D2*
X2659299D1*
X7370627D2*
X9349123D1*
X10179013D2*
X10802678D1*
X1104963Y6982880D2*
X1511214D1*
X2184463D2*
X2713249D1*
X7433755D2*
X9349123D1*
X10179013D2*
X10802678D1*
X1104963Y6919714D2*
X1574342D1*
X2247590D2*
X2767199D1*
X7497006D2*
X9349123D1*
X10179013D2*
X10802678D1*
X1104963Y6856547D2*
X1637470D1*
X2310718D2*
X2821273D1*
X7560134D2*
X9349123D1*
X10179013D2*
X10802678D1*
X1104963Y6793380D2*
X1700722D1*
X2518706D2*
X2875223D1*
X7623262D2*
X9349123D1*
X10179013D2*
X10802678D1*
X1104963Y6730214D2*
X1763849D1*
X2581834D2*
X2929174D1*
X7774075D2*
X9349123D1*
X10179013D2*
X10802678D1*
X1104963Y6667047D2*
X1826977D1*
X2645086D2*
X2983248D1*
X4021622D2*
X4079243D1*
X7791314D2*
X9349123D1*
X10179013D2*
X10802678D1*
X1104963Y6603880D2*
X1890229D1*
X2708214D2*
X3593567D1*
X3958494D2*
X4079243D1*
X8054864D2*
X9349123D1*
X10179013D2*
X10802678D1*
X1104963Y6540714D2*
X1953357D1*
X2771341D2*
X3530315D1*
X3895366D2*
X4079243D1*
X8118116D2*
X9349123D1*
X10179013D2*
X10802678D1*
X1104963Y6477547D2*
X2016485D1*
X2834593D2*
X3376650D1*
X3832114D2*
X4079243D1*
X8167725D2*
X9349123D1*
X10179013D2*
X10802678D1*
X1104963Y6414380D2*
X2079737D1*
X2897721D2*
X3306453D1*
X3768986D2*
X4079243D1*
X8171198D2*
X9349123D1*
X10179013D2*
X10802678D1*
X1104963Y6351214D2*
X2272346D1*
X2960849D2*
X3306949D1*
X3705858D2*
X4079243D1*
X8171198D2*
X9349123D1*
X10179013D2*
X10802678D1*
X1104963Y6288047D2*
X2292437D1*
X3024101D2*
X3330762D1*
X3642606D2*
X4079243D1*
X8171198D2*
X9349123D1*
X10179013D2*
X10802678D1*
X1104963Y6224880D2*
X2321459D1*
X3087229D2*
X3388184D1*
X3515606D2*
X4079243D1*
X8171198D2*
X9349123D1*
X10179013D2*
X10802678D1*
X1104963Y6161714D2*
X2321583D1*
X3150357D2*
X4079243D1*
X8171198D2*
X9349123D1*
X10179013D2*
X10802678D1*
X1104963Y6098547D2*
X2321583D1*
X3213609D2*
X4079243D1*
X8185833D2*
X9349123D1*
X10179013D2*
X10802678D1*
X1104963Y6035380D2*
X2321583D1*
X3276737D2*
X4079243D1*
X8229985D2*
X9349123D1*
X10179013D2*
X10802678D1*
X1159533Y5972214D2*
X2321583D1*
X3339865D2*
X4079243D1*
X8224528D2*
X9349123D1*
X10179013D2*
X10802678D1*
X1222041Y5909047D2*
X2321583D1*
X3403117D2*
X4079243D1*
X10179013D2*
X10802678D1*
X1284548Y5845880D2*
X2350976D1*
X3466245D2*
X4079243D1*
X10179013D2*
X10802678D1*
X1347056Y5782714D2*
X2414228D1*
X3773203D2*
X4079243D1*
X10179013D2*
X10802678D1*
X1409688Y5719547D2*
X2477356D1*
X3828641D2*
X4079243D1*
X10179013D2*
X10802678D1*
X1472196Y5656380D2*
X2527338D1*
X3841788D2*
X4079243D1*
X10179013D2*
X10802678D1*
X1534704Y5593214D2*
X2527338D1*
X3858531D2*
X4079243D1*
X10179013D2*
X10802678D1*
X1597212Y5530047D2*
X2527338D1*
X3881103D2*
X4079243D1*
X10179013D2*
X10802678D1*
X1659719Y5466880D2*
X2527338D1*
X2809789D2*
X3286237D1*
X3881103D2*
X4079243D1*
X10179013D2*
X10802678D1*
X1722351Y5403714D2*
X2527338D1*
X2809789D2*
X3349489D1*
X3881103D2*
X4079243D1*
X10179013D2*
X10802678D1*
X1784859Y5340547D2*
X2527338D1*
X2809789D2*
X3373178D1*
X3881103D2*
X4079243D1*
X10179013D2*
X10802678D1*
X1847367Y5277380D2*
X2527338D1*
X2809789D2*
X3373178D1*
X3881103D2*
X4079243D1*
X10179013D2*
X10802678D1*
X1909875Y5214214D2*
X2527338D1*
X2809789D2*
X3373178D1*
X3881103D2*
X4079243D1*
X10179013D2*
X10802678D1*
X1972382Y5151047D2*
X2527338D1*
X2809789D2*
X3373178D1*
X3881103D2*
X4079243D1*
X10161774D2*
X10802678D1*
X2035014Y5087880D2*
X2527338D1*
X2809789D2*
X3373178D1*
X3881103D2*
X4079243D1*
X8924888D2*
X10802678D1*
X2097522Y5024714D2*
X2527338D1*
X2809789D2*
X3373178D1*
X3881103D2*
X4079243D1*
X8924888D2*
X10802678D1*
X2160030Y4961547D2*
X2527338D1*
X2809789D2*
X3373178D1*
X3881103D2*
X4079243D1*
X8924888D2*
X10802678D1*
X2222538Y4898380D2*
X2527338D1*
X2809789D2*
X3373178D1*
X3881103D2*
X4079243D1*
X8924888D2*
X10802678D1*
X2285046Y4835214D2*
X2527338D1*
X2830253D2*
X3373178D1*
X3881103D2*
X4079243D1*
X8924888D2*
X10802678D1*
X2347553Y4772047D2*
X2527338D1*
X2933564D2*
X3373178D1*
X3881103D2*
X4079243D1*
X8924888D2*
X10802678D1*
X2354623Y4708880D2*
X2527338D1*
X2996692D2*
X3373178D1*
X3881103D2*
X4079243D1*
X8924888D2*
X10802678D1*
X2354747Y4645714D2*
X2530066D1*
X3058332D2*
X3147579D1*
X3251560D2*
X3373178D1*
X3881103D2*
X4079243D1*
X5435985D2*
X6761994D1*
X8924888D2*
X10802678D1*
X2354747Y4582547D2*
X2578063D1*
X3314812D2*
X3373178D1*
X3881103D2*
X4079243D1*
X5372857D2*
X6761498D1*
X8924888D2*
X10802678D1*
X2354871Y4519380D2*
X2755541D1*
X3322750D2*
X3373178D1*
X3881103D2*
X4079243D1*
X5309605D2*
X6761498D1*
X8924888D2*
X10802678D1*
X2354995Y4456214D2*
X2793988D1*
X3292240D2*
X3373178D1*
X3881103D2*
X4079243D1*
X5246477D2*
X6761498D1*
X8924888D2*
X10802678D1*
X2355119Y4393047D2*
X2793988D1*
X3229112D2*
X3373178D1*
X3881103D2*
X4079243D1*
X5183349D2*
X6767327D1*
X8924888D2*
X10802678D1*
X2355119Y4329880D2*
X2793988D1*
X3210508D2*
X3373178D1*
X3881103D2*
X4079243D1*
X5120097D2*
X6815572D1*
X8924888D2*
X10802678D1*
X2355243Y4266714D2*
X2793988D1*
X3210508D2*
X3373178D1*
X3881103D2*
X4079243D1*
X5056969D2*
X6878700D1*
X8924888D2*
X10802678D1*
X2355367Y4203547D2*
X2793988D1*
X3210508D2*
X3373178D1*
X3881103D2*
X4079243D1*
X4993841D2*
X6941952D1*
X8924888D2*
X10802678D1*
X2355491Y4140380D2*
X2793988D1*
X3210508D2*
X3373178D1*
X3898590D2*
X4079243D1*
X4930589D2*
X7005080D1*
X8924888D2*
X10802678D1*
X2355615Y4077214D2*
X2793988D1*
X3210508D2*
X3373178D1*
X3961718D2*
X4079243D1*
X4867462D2*
X7068208D1*
X8924888D2*
X10802678D1*
X2355615Y4014047D2*
X2793988D1*
X3210508D2*
X3373178D1*
X4024846D2*
X4079243D1*
X4804334D2*
X7131460D1*
X8924888D2*
X10802678D1*
X2355739Y3950880D2*
X2793988D1*
X3210508D2*
X3373178D1*
X4741082D2*
X7194588D1*
X8924888D2*
X10802678D1*
X2355863Y3887714D2*
X2793988D1*
X3210508D2*
X3373178D1*
X3782008D2*
X3848807D1*
X4677954D2*
X7257716D1*
X8924888D2*
X10802678D1*
X2355987Y3824547D2*
X2793988D1*
X3210508D2*
X3373178D1*
X3782008D2*
X3911935D1*
X4614826D2*
X7320968D1*
X8924888D2*
X10802678D1*
X2355987Y3761380D2*
X2793988D1*
X3210508D2*
X3373178D1*
X3813386D2*
X7384096D1*
X9017162D2*
X10802678D1*
X2356111Y3698214D2*
X2793988D1*
X3210508D2*
X3373178D1*
X3876514D2*
X7447223D1*
X9038990D2*
X10802678D1*
X2356235Y3635047D2*
X2793988D1*
X3203315D2*
X3379503D1*
X3939642D2*
X7510475D1*
X9032789D2*
X10802678D1*
X2356359Y3571880D2*
X2793988D1*
X3155566D2*
X3434445D1*
X4002894D2*
X7573603D1*
X9032789D2*
X10802678D1*
X2356359Y3508714D2*
X2793988D1*
X3147505D2*
X3497573D1*
X4066022D2*
X7636731D1*
X9032789D2*
X10802678D1*
X2356483Y3445547D2*
X2793988D1*
X3113026D2*
X3560701D1*
X4129150D2*
X7699983D1*
X9032789D2*
X10802678D1*
X2356607Y3382380D2*
X2793988D1*
X3049402D2*
X3623829D1*
X4192402D2*
X7739423D1*
X9032789D2*
X10802678D1*
X2356731Y3319214D2*
X2793988D1*
X3108561D2*
X3687081D1*
X9032789D2*
X10802678D1*
X2356731Y3256047D2*
X2628417D1*
X3168713D2*
X3750209D1*
X9032789D2*
X10410019D1*
X10636412D2*
X10802678D1*
X2356855Y3192880D2*
X2628417D1*
X3196866D2*
X3813337D1*
X9032789D2*
X10371448D1*
X10674983D2*
X10802678D1*
X2356979Y3129714D2*
X2628417D1*
X3195750D2*
X3876589D1*
X9032789D2*
X10365619D1*
X10680812D2*
X10802678D1*
X2357103Y3066547D2*
X2628417D1*
X3164496D2*
X3939717D1*
X9032789D2*
X10387819D1*
X10658612D2*
X10802678D1*
X2357227Y3003380D2*
X2677282D1*
X9032789D2*
X10411508D1*
X10635048D2*
X10802678D1*
X2357227Y2940214D2*
X2733961D1*
X9032789D2*
X10371944D1*
X10674487D2*
X10802678D1*
X2357351Y2877047D2*
X2797089D1*
X9035393D2*
X9814459D1*
X9855407D2*
X10365495D1*
X10680936D2*
X10802678D1*
X2357475Y2813880D2*
X2860217D1*
X9924765D2*
X10386951D1*
X10659480D2*
X10802678D1*
X2357599Y2750714D2*
X2937111D1*
X9917820D2*
X10412872D1*
X10633559D2*
X10802678D1*
X2357599Y2687547D2*
X5431223D1*
X8044322D2*
X8079123D1*
X9957135D2*
X10372316D1*
X10674115D2*
X10802678D1*
X2357723Y2624380D2*
X5431223D1*
X7981194D2*
X8079123D1*
X8924888D2*
X9790894D1*
X9939152D2*
X10365247D1*
X10681184D2*
X10802678D1*
X2357847Y2561214D2*
X5431223D1*
X7918066D2*
X8079123D1*
X8924888D2*
X10386207D1*
X10660224D2*
X10802678D1*
X2357971Y2498047D2*
X5446353D1*
X7854814D2*
X8079123D1*
X8924888D2*
X10460249D1*
X10586182D2*
X10802678D1*
X2357971Y2434880D2*
X5507993D1*
X5863742D2*
X8079123D1*
X8924888D2*
X10802678D1*
X2358095Y2371714D2*
X5688075D1*
X5926870D2*
X8079123D1*
X8924888D2*
X10802678D1*
X2358219Y2308547D2*
X5751203D1*
X5998803D2*
X8079123D1*
X8924888D2*
X10802678D1*
X2358343Y2245380D2*
X5814331D1*
X6028693D2*
X8079123D1*
X8924888D2*
X10802678D1*
X2358467Y2182214D2*
X5868529D1*
X6003516D2*
X8079123D1*
X8924888D2*
X10802678D1*
X2358467Y2119047D2*
X8079123D1*
X8924888D2*
X10802678D1*
X2358591Y2055880D2*
X8079123D1*
X8924888D2*
X10802678D1*
X2358715Y1992714D2*
X3005696D1*
X3059757D2*
X8079123D1*
X8924888D2*
X10802678D1*
X2358839Y1929547D2*
X2829087D1*
X3236429D2*
X8079123D1*
X8924888D2*
X10276818D1*
X10581717D2*
X10802678D1*
X2358839Y1866380D2*
X2762858D1*
X3302658D2*
X8079123D1*
X8924888D2*
X10186901D1*
X10671634D2*
X10802678D1*
X2358964Y1803214D2*
X2723171D1*
X3342345D2*
X7823014D1*
X8924888D2*
X10136424D1*
X10722112D2*
X10802678D1*
X2359088Y1740047D2*
X2700102D1*
X3365414D2*
X7710897D1*
X8890534D2*
X10105914D1*
X10752622D2*
X10802678D1*
X2359212Y1676880D2*
X2690181D1*
X3375336D2*
X7646281D1*
X8680190D2*
X10089915D1*
X10768621D2*
X10802543D1*
X2359212Y1613714D2*
X2692289D1*
X3373227D2*
X7601757D1*
X8724714D2*
X10086194D1*
X10772217D2*
X10802713D1*
X2359336Y1550547D2*
X2706552D1*
X3358964D2*
X7575340D1*
X8751504D2*
X10094504D1*
X10763908D2*
X10802515D1*
X2359460Y1487380D2*
X2735077D1*
X3330439D2*
X7559837D1*
X8767131D2*
X10115836D1*
X10742576D2*
X10802678D1*
X2359584Y1424214D2*
X2782330D1*
X3283186D2*
X7551403D1*
X8775688D2*
X10153167D1*
X10705369D2*
X10802678D1*
X2359708Y1361047D2*
X2864557D1*
X3201083D2*
X7551403D1*
X8775688D2*
X10214806D1*
X10643605D2*
X10802678D1*
X2367025Y1297880D2*
X7544458D1*
X8779285D2*
X10346519D1*
X10512016D2*
X10799949D1*
X2394186Y1234714D2*
X7517049D1*
X8795408D2*
X10786431D1*
X2455702Y1171547D2*
X7456029D1*
X8834847D2*
X10748975D1*
X8936174Y1108380D2*
X10649385D1*
X4696612Y9372923D2*
X4711558Y9361808D1*
X4728458Y9344908D1*
X4739573Y9329961D1*
X4750823Y9344908D1*
X4767723Y9361808D1*
X4787059Y9375856D1*
X4808354Y9386706D1*
X4831084Y9394092D1*
X4854690Y9397831D1*
X4878591D1*
X4902197Y9394092D1*
X4924927Y9386706D1*
X4946222Y9375856D1*
X4965558Y9361808D1*
X4982458Y9344908D1*
X4996506Y9325572D1*
X5007357Y9304277D1*
X5014742Y9281546D1*
X5018481Y9257940D1*
Y9234040D1*
X5014842Y9210938D1*
X5120521Y9104913D1*
X5130970Y9089274D1*
X5137480Y9071628D1*
X5139691Y9052950D1*
X5139657Y9052092D1*
X5139444Y8637733D1*
X5135775Y8619286D1*
X5127900Y8602205D1*
X5116256Y8587435D1*
X5115626Y8586851D1*
X4911131Y8382309D1*
X4911091Y7877521D1*
X5643873Y8610468D1*
X5644127Y9472611D1*
X5647796Y9491058D1*
X5655671Y9508139D1*
X5667315Y9522909D1*
X5667946Y9523492D1*
X5780333Y9635927D1*
X4682411Y9635879D1*
X4702166Y9623212D1*
X4720340Y9607690D1*
X4735862Y9589516D1*
X4748350Y9569138D1*
X4757496Y9547057D1*
X4763075Y9523817D1*
X4764951Y9499990D1*
X4763075Y9476164D1*
X4757496Y9452924D1*
X4748350Y9430843D1*
X4735862Y9410465D1*
X4720340Y9392291D1*
X4702166Y9376769D1*
X4696612Y9373057D1*
X10577125Y9313539D2*
X10574016Y9287270D1*
X10568856Y9261326D1*
X10561676Y9235868D1*
X10552520Y9211051D1*
X10541446Y9187028D1*
X10528521Y9163949D1*
X10513825Y9141955D1*
X10497449Y9121182D1*
X10479493Y9101758D1*
X10460069Y9083802D1*
X10439296Y9067426D1*
X10417302Y9052730D1*
X10394222Y9039805D1*
X10370200Y9028731D1*
X10345383Y9019575D1*
X10319924Y9012395D1*
X10293981Y9007235D1*
X10267712Y9004125D1*
X10241281Y9003087D1*
X10214849Y9004125D1*
X10188580Y9007235D1*
X10162637Y9012395D1*
X10137178Y9019575D1*
X10112361Y9028731D1*
X10088339Y9039805D1*
X10065259Y9052730D1*
X10043265Y9067426D1*
X10022492Y9083802D1*
X10003068Y9101758D1*
X9985112Y9121182D1*
X9968736Y9141955D1*
X9954040Y9163949D1*
X9941115Y9187028D1*
X9930041Y9211051D1*
X9920885Y9235868D1*
X9913705Y9261326D1*
X9908545Y9287270D1*
X9905436Y9313539D1*
X9904397Y9339970D1*
X9905436Y9366402D1*
X9908545Y9392670D1*
X9913705Y9418614D1*
X9920885Y9444073D1*
X9930041Y9468890D1*
X9941115Y9492912D1*
X9954040Y9515991D1*
X9968736Y9537985D1*
X9985112Y9558759D1*
X10003068Y9578183D1*
X10022492Y9596138D1*
X10043265Y9612515D1*
X10065259Y9627211D1*
X10079787Y9635877D1*
X6038980Y9635878D1*
X6046247Y9621939D1*
X6049191Y9613461D1*
X6062682Y9605417D1*
X6072986Y9596616D1*
X6081787Y9586311D1*
X6088868Y9574757D1*
X6093421Y9563952D1*
X6110644Y9555844D1*
X6121607Y9547879D1*
X6131189Y9538297D1*
X6139155Y9527333D1*
X6145307Y9515259D1*
X6149494Y9502371D1*
X6151614Y9488986D1*
Y9475435D1*
X6149494Y9462050D1*
X6146251Y9451721D1*
X6296661Y9451730D1*
Y9075815D1*
X6301894Y9060411D1*
X6304014Y9047026D1*
Y9033475D1*
X6301894Y9020090D1*
X6297707Y9007202D1*
X6291555Y8995127D1*
X6283589Y8984164D1*
X6274007Y8974582D1*
X6263044Y8966616D1*
X6251474Y8960697D1*
X6203843Y8913370D1*
X6188204Y8902920D1*
X6170559Y8896411D1*
X6151881Y8894200D1*
X6151022Y8894234D1*
X6026741Y8894200D1*
X5994301Y8861596D1*
X5994154Y8507559D1*
X5990485Y8489112D1*
X5982611Y8472032D1*
X5970966Y8457261D1*
X5970336Y8456678D1*
X5154938Y7641233D1*
X5154947Y7613624D1*
X5167467Y7608438D1*
X5179022Y7601357D1*
X5193767Y7587752D1*
X5532173Y7575502D1*
X5547572Y7571863D1*
X5561696Y7564730D1*
X5573765Y7554497D1*
X5583111Y7541729D1*
X5585011Y7538037D1*
X5617211Y7535300D1*
X6626885D1*
X6760318Y7668530D1*
X6775957Y7678980D1*
X6793603Y7685490D1*
X6812281Y7687700D1*
X6813139Y7687667D1*
X7152477Y7687700D1*
X7271068Y7806249D1*
X7258009Y7823616D1*
X7250048Y7839241D1*
X7244628Y7855920D1*
X7241885Y7873242D1*
X7241540Y8009010D1*
X7242002Y8966576D1*
X7245671Y8986534D1*
X7252888Y9005499D1*
X7263416Y9022846D1*
X7276907Y9038004D1*
X7292916Y9050473D1*
X7310916Y9059842D1*
X7330313Y9065801D1*
X7350468Y9068155D1*
X7370716Y9066825D1*
X7390391Y9061857D1*
X7408842Y9053412D1*
X7425463Y9041771D1*
X7439704Y9027316D1*
X7451098Y9010524D1*
X7459267Y8991949D1*
X7463942Y8972203D1*
X7465061Y8948810D1*
X7465028Y8947362D1*
X7465061Y7928221D1*
X7481816Y7909601D1*
X7490980Y7894648D1*
X7497691Y7878446D1*
X7501785Y7861393D1*
X7503011Y7847712D1*
X8000291Y7847474D1*
X8018738Y7843804D1*
X8035819Y7835930D1*
X8050590Y7824286D1*
X8051173Y7823655D1*
X8074882Y7799994D1*
X8381291Y7799847D1*
X8399738Y7796178D1*
X8416819Y7788303D1*
X8431590Y7776659D1*
X8432173Y7776029D1*
X8499357Y7708543D1*
X8509807Y7692904D1*
X8516317Y7675258D1*
X8518527Y7656580D1*
X8518493Y7655722D1*
X8518527Y7498698D1*
X8523814Y7479593D1*
X8524877Y7466084D1*
X8523814Y7452574D1*
X8520650Y7439397D1*
X8515465Y7426877D1*
X8508384Y7415322D1*
X8499583Y7405018D1*
X8489278Y7396217D1*
X8477724Y7389136D1*
X8465204Y7383950D1*
X8452027Y7380787D1*
X8438517Y7379724D1*
X8425008Y7380787D1*
X8411830Y7383950D1*
X8399311Y7389136D1*
X8387756Y7396217D1*
X8377451Y7405018D1*
X8368650Y7415322D1*
X8361570Y7426877D1*
X8356384Y7439397D1*
X8353220Y7452574D1*
X8352157Y7466084D1*
X8353220Y7479593D1*
X8358538Y7498610D1*
X8358507Y7576092D1*
X8340900Y7571287D1*
X8327391Y7570224D1*
X8313881Y7571287D1*
X8294864Y7576605D1*
X8035366Y7576820D1*
X8016919Y7580489D1*
X7999839Y7588364D1*
X7985068Y7600008D1*
X7984485Y7600639D1*
X7943061Y7642015D1*
X7503088Y7641980D1*
X7502816Y7515102D1*
X7500073Y7497780D1*
X7494654Y7481101D1*
X7486692Y7465476D1*
X7476384Y7451288D1*
X7380624Y7355041D1*
X7289682Y7264099D1*
X7289801Y7120630D1*
X7628292Y6782092D1*
X7682109Y6781846D1*
X7699430Y6779103D1*
X7716109Y6773683D1*
X7731735Y6765721D1*
X7745923Y6755413D1*
X7758324Y6743013D1*
X7768632Y6728825D1*
X7776593Y6713199D1*
X7782013Y6696520D1*
X7784756Y6679199D1*
X7784949Y6666560D1*
X7959018Y6666374D1*
X7977465Y6662704D1*
X7994546Y6654830D1*
X8009316Y6643186D1*
X8009899Y6642555D1*
X8145661Y6506493D1*
X8156110Y6490854D1*
X8162620Y6473208D1*
X8164831Y6454530D1*
X8164797Y6453672D1*
X8164847Y6104864D1*
X8177367Y6099678D1*
X8188922Y6092597D1*
X8199226Y6083796D1*
X8208027Y6073491D1*
X8215108Y6061937D1*
X8220294Y6049417D1*
X8223457Y6036240D1*
X8224521Y6022730D1*
X8223457Y6009221D1*
X8218139Y5990204D1*
X8218171Y5956874D1*
X8239901Y5935082D1*
X9332501Y5935101D1*
X9351471Y5940387D1*
X9355495Y5940863D1*
X9355665Y7931741D1*
X9358751Y7947260D1*
X9365376Y7961630D1*
X9375172Y7974056D1*
X9387598Y7983852D1*
X9401967Y7990476D1*
X9417486Y7993563D1*
X9962517Y7993771D1*
X10115920Y7992942D1*
X10131149Y7988647D1*
X10144955Y7980915D1*
X10156574Y7970175D1*
X10165364Y7957019D1*
X10170841Y7942174D1*
X10172668Y7925614D1*
X10172493Y5190679D1*
X10169406Y5175160D1*
X10162782Y5160791D1*
X10152986Y5148365D1*
X10140560Y5138569D1*
X10126191Y5131944D1*
X10110672Y5128857D1*
X9565641Y5128650D1*
X8918610D1*
X8918577Y3785442D1*
X8933004Y3789007D1*
X8946514Y3790070D1*
X8960024Y3789007D1*
X8973201Y3785844D1*
X8985720Y3780658D1*
X8997275Y3773577D1*
X9007580Y3764776D1*
X9016381Y3754471D1*
X9023461Y3742917D1*
X9028647Y3730397D1*
X9031811Y3717220D1*
X9032874Y3703710D1*
X9031811Y3690201D1*
X9026493Y3671184D1*
X9026524Y2879575D1*
X9059128Y2846997D1*
X9768419Y2847094D1*
X9778794Y2857519D1*
X9789758Y2865484D1*
X9801832Y2871637D1*
X9814720Y2875824D1*
X9828105Y2877944D1*
X9841656D1*
X9855041Y2875824D1*
X9867929Y2871637D1*
X9880004Y2865484D1*
X9890967Y2857519D1*
X9900549Y2847937D1*
X9908515Y2836973D1*
X9914667Y2824899D1*
X9918854Y2812011D1*
X9920974Y2798626D1*
Y2785075D1*
X9918854Y2771690D1*
X9914667Y2758802D1*
X9910935Y2751049D1*
X9926066Y2738976D1*
X9934867Y2728671D1*
X9941948Y2717117D1*
X9947134Y2704597D1*
X9950297Y2691420D1*
X9951361Y2677910D1*
X9950297Y2664401D1*
X9947134Y2651224D1*
X9941948Y2638704D1*
X9934867Y2627149D1*
X9926066Y2616845D1*
X9915762Y2608044D1*
X9904207Y2600963D1*
X9891687Y2595777D1*
X9878510Y2592614D1*
X9865001Y2591550D1*
X9851491Y2592614D1*
X9838314Y2595777D1*
X9825794Y2600963D1*
X9814239Y2608044D1*
X9803935Y2616845D1*
X9795134Y2627149D1*
X9787687Y2639497D1*
X8987863Y2639697D1*
X8969416Y2643366D1*
X8952335Y2651240D1*
X8937565Y2662884D1*
X8936982Y2663515D1*
X8918534Y2681915D1*
X8918370Y1793429D1*
X8915283Y1777910D1*
X8908659Y1763541D1*
X8898863Y1751115D1*
X8886437Y1741319D1*
X8872067Y1734694D1*
X8856548Y1731608D1*
X8620460Y1731400D1*
X8647836Y1710051D1*
X8712022Y1627464D1*
X8727120Y1593197D1*
X8754919Y1526676D1*
X8769289Y1426990D1*
X8769351Y1324858D1*
X8777704Y1261928D1*
X8799600Y1209218D1*
X8834409Y1163893D1*
X8879753Y1129116D1*
X8932548Y1107245D1*
X8995734Y1098906D1*
X10580290Y1098940D1*
X10646405Y1104779D1*
X10700023Y1125209D1*
X10746046Y1159473D1*
X10780988Y1204976D1*
X10802209Y1258279D1*
X10809010Y1324068D1*
X10808971Y9413046D1*
X10801261Y9475899D1*
X10779990Y9527993D1*
X10745758Y9572747D1*
X10700979Y9606957D1*
X10648795Y9628207D1*
X10585580Y9635911D1*
X10402372Y9635877D1*
X10439296Y9612515D1*
X10460069Y9596138D1*
X10479493Y9578183D1*
X10497449Y9558759D1*
X10513825Y9537985D1*
X10528521Y9515991D1*
X10541446Y9492912D1*
X10552520Y9468890D1*
X10561676Y9444073D1*
X10568856Y9418614D1*
X10574016Y9392670D1*
X10577125Y9366402D1*
X10578164Y9339970D1*
X10577125Y9313539D1*
X1679792Y9004405D2*
X1651001Y9003087D1*
X1624569Y9004125D1*
X1598300Y9007235D1*
X1572357Y9012395D1*
X1546898Y9019575D1*
X1522081Y9028731D1*
X1498059Y9039805D1*
X1474979Y9052730D1*
X1452985Y9067426D1*
X1432212Y9083802D1*
X1412788Y9101758D1*
X1394832Y9121182D1*
X1378456Y9141955D1*
X1363760Y9163949D1*
X1350835Y9187028D1*
X1339761Y9211051D1*
X1330605Y9235868D1*
X1323425Y9261326D1*
X1318265Y9287270D1*
X1315156Y9313539D1*
X1314117Y9339970D1*
X1315156Y9366402D1*
X1318265Y9392670D1*
X1323425Y9418614D1*
X1330605Y9444073D1*
X1339761Y9468890D1*
X1350835Y9492912D1*
X1363760Y9515991D1*
X1378456Y9537985D1*
X1394832Y9558759D1*
X1412788Y9578183D1*
X1432212Y9596138D1*
X1452985Y9612515D1*
X1474979Y9627211D1*
X1490576Y9635945D1*
X1324130Y9635880D1*
X1261195Y9627936D1*
X1208583Y9606425D1*
X1163406Y9572018D1*
X1128711Y9527068D1*
X1106872Y9474651D1*
X1098518Y9411923D1*
X1098551Y6027351D1*
X2342221Y4770523D1*
X2346686Y4761649D1*
X2348159Y4751120D1*
X2353302Y1357391D1*
X2361178Y1293998D1*
X2382782Y1241204D1*
X2417455Y1195921D1*
X2462781Y1161301D1*
X2515593Y1139759D1*
X2579334Y1131921D1*
X7336579Y1131960D1*
X7399024Y1140560D1*
X7451317Y1162757D1*
X7495916Y1197816D1*
X7529810Y1243311D1*
X7550637Y1296080D1*
X7557806Y1359999D1*
X7558075Y1429220D1*
X7572142Y1527229D1*
X7612037Y1622902D1*
X7634347Y1652911D1*
X7677916Y1709247D1*
X7759707Y1772926D1*
X7793891Y1788082D1*
X7859533Y1815706D1*
X7958427Y1830383D1*
X8085457Y1830460D1*
Y2734963D1*
X7834490Y2484604D1*
X7816271Y2471368D1*
X7796206Y2461144D1*
X7774789Y2454185D1*
X7752547Y2450663D1*
X7646037Y2450220D1*
X5842174D1*
X5969643Y2322699D1*
X5986742Y2313077D1*
X5997046Y2304276D1*
X6005847Y2293971D1*
X6012928Y2282417D1*
X6018114Y2269897D1*
X6021277Y2256720D1*
X6022341Y2243210D1*
X6021277Y2229701D1*
X6018114Y2216524D1*
X6012928Y2204004D1*
X6005847Y2192449D1*
X5997046Y2182145D1*
X5986742Y2173344D1*
X5975187Y2166263D1*
X5962667Y2161077D1*
X5949490Y2157914D1*
X5935981Y2156850D1*
X5922471Y2157914D1*
X5909294Y2161077D1*
X5896774Y2166263D1*
X5885219Y2173344D1*
X5874915Y2182145D1*
X5866114Y2192449D1*
X5856427Y2209657D1*
X5680594Y2385445D1*
X5590613Y2385697D1*
X5572166Y2389366D1*
X5555085Y2397240D1*
X5540315Y2408884D1*
X5539732Y2409515D1*
X5456674Y2492874D1*
X5446224Y2508513D1*
X5439714Y2526159D1*
X5437504Y2544837D1*
X5437537Y2545695D1*
X5437750Y2699701D1*
X5441419Y2718148D1*
X5449294Y2735229D1*
X5453407Y2741243D1*
X5406391Y2742320D1*
X2977774Y2742684D1*
X2959468Y2745584D1*
X2941842Y2751311D1*
X2925328Y2759725D1*
X2910334Y2770619D1*
X2813721Y2866716D1*
X2697206Y2983747D1*
X2686312Y2998741D1*
X2681371Y3007721D1*
X2653577Y3011650D1*
X2634707D1*
Y3316270D1*
X2800279D1*
X2800351Y4480846D1*
X2746874Y4534306D1*
X2659473Y4534517D1*
X2641026Y4538186D1*
X2623945Y4546061D1*
X2609175Y4557705D1*
X2608592Y4558335D1*
X2552820Y4614408D1*
X2542371Y4630046D1*
X2535861Y4647692D1*
X2533650Y4666370D1*
X2533684Y4667229D1*
X2533650Y5669596D1*
X2347080Y5856468D1*
X2336631Y5872106D1*
X2330121Y5889752D1*
X2327910Y5908430D1*
X2327944Y5909289D1*
X2327910Y6224814D1*
X2315310Y6238669D1*
X2308230Y6250224D1*
X2303044Y6262744D1*
X2299880Y6275921D1*
X2298817Y6289430D1*
X2299880Y6302940D1*
X2303044Y6316117D1*
X2306045Y6323898D1*
X2275681Y6354238D1*
X2173043Y6354447D1*
X2154596Y6358116D1*
X2137515Y6365990D1*
X2122745Y6377634D1*
X2122162Y6378265D1*
X1204080Y7296648D1*
X1193631Y7312287D1*
X1187121Y7329932D1*
X1184911Y7348610D1*
X1184944Y7349469D1*
X1184911Y7887492D1*
X1179624Y7906601D1*
X1178561Y7920110D1*
X1179624Y7933620D1*
X1182787Y7946797D1*
X1187973Y7959317D1*
X1195054Y7970871D1*
X1203855Y7981176D1*
X1214159Y7989977D1*
X1225714Y7997058D1*
X1238259Y8002251D1*
X1238250Y8085791D1*
X1232964Y8104721D1*
X1231901Y8118230D1*
X1232964Y8131740D1*
X1236127Y8144917D1*
X1241313Y8157437D1*
X1248394Y8168991D1*
X1257195Y8179296D1*
X1267499Y8188097D1*
X1279054Y8195178D1*
X1291574Y8200364D1*
X1299269Y8202437D1*
X1299210Y8405087D1*
X1265040Y8439648D1*
X1254591Y8455286D1*
X1248081Y8472932D1*
X1245870Y8491610D1*
X1245904Y8492469D1*
X1246117Y8734108D1*
X1249786Y8752555D1*
X1257661Y8769636D1*
X1269305Y8784406D1*
X1269935Y8784989D1*
X1299736Y8814837D1*
X1309354Y8831931D1*
X1318155Y8842236D1*
X1328459Y8851037D1*
X1340014Y8858118D1*
X1352534Y8863304D1*
X1365711Y8866467D1*
X1379221Y8867530D1*
X1392730Y8866467D1*
X1405907Y8863304D1*
X1419236Y8857665D1*
X1434337Y8867700D1*
X1451983Y8874210D1*
X1470661Y8876420D1*
X1551896D1*
X1679664Y9004265D1*
X3368605Y1630039D2*
X3365496Y1603770D1*
X3360336Y1577826D1*
X3353156Y1552368D1*
X3344000Y1527551D1*
X3332926Y1503528D1*
X3320001Y1480449D1*
X3305305Y1458455D1*
X3288929Y1437682D1*
X3270973Y1418258D1*
X3251549Y1400302D1*
X3230776Y1383926D1*
X3208782Y1369230D1*
X3185702Y1356305D1*
X3161680Y1345231D1*
X3136863Y1336075D1*
X3111404Y1328895D1*
X3085461Y1323735D1*
X3059192Y1320625D1*
X3032761Y1319587D1*
X3006329Y1320625D1*
X2980060Y1323735D1*
X2954117Y1328895D1*
X2928658Y1336075D1*
X2903841Y1345231D1*
X2879819Y1356305D1*
X2856739Y1369230D1*
X2834745Y1383926D1*
X2813972Y1400302D1*
X2794548Y1418258D1*
X2776592Y1437682D1*
X2760216Y1458455D1*
X2745520Y1480449D1*
X2732595Y1503528D1*
X2721521Y1527551D1*
X2712365Y1552368D1*
X2705185Y1577826D1*
X2700025Y1603770D1*
X2696916Y1630039D1*
X2695877Y1656470D1*
X2696916Y1682902D1*
X2700025Y1709170D1*
X2705185Y1735114D1*
X2712365Y1760573D1*
X2721521Y1785390D1*
X2732595Y1809412D1*
X2745520Y1832491D1*
X2760216Y1854485D1*
X2776592Y1875259D1*
X2794548Y1894683D1*
X2813972Y1912638D1*
X2834745Y1929015D1*
X2856739Y1943711D1*
X2879819Y1956636D1*
X2903841Y1967710D1*
X2928658Y1976865D1*
X2954117Y1984046D1*
X2980060Y1989206D1*
X3006329Y1992315D1*
X3032761Y1993354D1*
X3059192Y1992315D1*
X3085461Y1989206D1*
X3111404Y1984046D1*
X3136863Y1976865D1*
X3161680Y1967710D1*
X3185702Y1956636D1*
X3208782Y1943711D1*
X3230776Y1929015D1*
X3251549Y1912638D1*
X3270973Y1894683D1*
X3288929Y1875259D1*
X3305305Y1854485D1*
X3320001Y1832491D1*
X3332926Y1809412D1*
X3344000Y1785390D1*
X3353156Y1760573D1*
X3360336Y1735114D1*
X3365496Y1709170D1*
X3368605Y1682902D1*
X3369644Y1656470D1*
X3368605Y1630039D1*
X10765085Y1599559D2*
X10761976Y1573290D1*
X10756816Y1547346D1*
X10749636Y1521888D1*
X10740480Y1497071D1*
X10729406Y1473048D1*
X10716481Y1449969D1*
X10701785Y1427975D1*
X10685409Y1407202D1*
X10667453Y1387778D1*
X10648029Y1369822D1*
X10627256Y1353446D1*
X10605262Y1338750D1*
X10582182Y1325825D1*
X10558160Y1314751D1*
X10533343Y1305595D1*
X10507884Y1298415D1*
X10481941Y1293255D1*
X10455672Y1290145D1*
X10429241Y1289107D1*
X10402809Y1290145D1*
X10376540Y1293255D1*
X10350597Y1298415D1*
X10325138Y1305595D1*
X10300321Y1314751D1*
X10276299Y1325825D1*
X10253219Y1338750D1*
X10231225Y1353446D1*
X10210452Y1369822D1*
X10191028Y1387778D1*
X10173072Y1407202D1*
X10156696Y1427975D1*
X10142000Y1449969D1*
X10129075Y1473048D1*
X10118001Y1497071D1*
X10108845Y1521888D1*
X10101665Y1547346D1*
X10096505Y1573290D1*
X10093396Y1599559D1*
X10092357Y1625990D1*
X10093396Y1652422D1*
X10096505Y1678690D1*
X10101665Y1704634D1*
X10108845Y1730093D1*
X10118001Y1754910D1*
X10129075Y1778932D1*
X10142000Y1802011D1*
X10156696Y1824005D1*
X10173072Y1844779D1*
X10191028Y1864203D1*
X10210452Y1882158D1*
X10231225Y1898535D1*
X10253219Y1913231D1*
X10276299Y1926156D1*
X10300321Y1937230D1*
X10325138Y1946385D1*
X10350597Y1953566D1*
X10376540Y1958726D1*
X10402809Y1961835D1*
X10429241Y1962874D1*
X10455672Y1961835D1*
X10481941Y1958726D1*
X10507884Y1953566D1*
X10533343Y1946385D1*
X10558160Y1937230D1*
X10582182Y1926156D1*
X10605262Y1913231D1*
X10627256Y1898535D1*
X10648029Y1882158D1*
X10667453Y1864203D1*
X10685409Y1844779D1*
X10701785Y1824005D1*
X10716481Y1802011D1*
X10729406Y1778932D1*
X10740480Y1754910D1*
X10749636Y1730093D1*
X10756816Y1704634D1*
X10761976Y1678690D1*
X10765085Y1652422D1*
X10766124Y1625990D1*
X10765085Y1599559D1*
X3192858Y3152010D2*
X3189119Y3128404D1*
X3181733Y3105674D1*
X3170883Y3084379D1*
X3156835Y3065043D1*
X3139935Y3048143D1*
X3128639Y3039467D1*
X3973161Y3039501D1*
X3398640Y3614281D1*
X3388191Y3629920D1*
X3381681Y3647566D1*
X3379470Y3666244D1*
X3379504Y3667102D1*
X3379470Y5380124D1*
X3251100Y5508360D1*
X2809831Y5508380D1*
X2807488Y5492767D1*
X2803493Y5480400D1*
X2803524Y4837867D1*
X2823051Y4835434D1*
X2835417Y4831439D1*
X2853315Y4829260D1*
X2870961Y4822750D1*
X2886600Y4812301D1*
X3043616Y4655633D1*
X3055260Y4640862D1*
X3063135Y4623781D1*
X3066804Y4605334D1*
X3067051Y4571400D1*
X3122881Y4626642D1*
X3137875Y4637536D1*
X3154388Y4645950D1*
X3172015Y4651677D1*
X3190320Y4654576D1*
X3208854D1*
X3227159Y4651677D1*
X3244786Y4645950D1*
X3261300Y4637536D1*
X3276294Y4626642D1*
X3289399Y4613537D1*
X3300293Y4598543D1*
X3308707Y4582029D1*
X3314434Y4564403D1*
X3317333Y4546097D1*
Y4527563D1*
X3314434Y4509258D1*
X3308707Y4491631D1*
X3300293Y4475118D1*
X3289399Y4460124D1*
X3204263Y4374473D1*
X3203847Y3666500D1*
X3200947Y3648195D1*
X3195220Y3630568D1*
X3186806Y3614055D1*
X3175912Y3599061D1*
X3143220Y3565853D1*
X3142887Y3521723D1*
X3139987Y3503418D1*
X3134260Y3485792D1*
X3125846Y3469278D1*
X3114952Y3454284D1*
X3101847Y3441179D1*
X3086853Y3430285D1*
X3070339Y3421871D1*
X3052713Y3416144D1*
X3034407Y3413244D1*
X3011665Y3413742D1*
X3093601Y3331493D1*
X3104050Y3315854D1*
X3109128Y3303286D1*
X3110164Y3299669D1*
X3130543Y3287182D1*
X3148717Y3271660D1*
X3164239Y3253486D1*
X3176726Y3233108D1*
X3185873Y3211027D1*
X3191452Y3187787D1*
X3193327Y3163960D1*
X3192858Y3152010D1*
X10675061Y3135500D2*
X10671322Y3111894D1*
X10663937Y3089164D1*
X10653086Y3067869D1*
X10639038Y3048533D1*
X10622138Y3031633D1*
X10607192Y3020517D1*
X10622138Y3009268D1*
X10639038Y2992368D1*
X10653086Y2973032D1*
X10663937Y2951737D1*
X10671322Y2929006D1*
X10675061Y2905400D1*
Y2881500D1*
X10671322Y2857894D1*
X10663937Y2835164D1*
X10653086Y2813869D1*
X10639038Y2794533D1*
X10622138Y2777633D1*
X10607192Y2766517D1*
X10622138Y2755268D1*
X10639038Y2738368D1*
X10653086Y2719032D1*
X10663937Y2697737D1*
X10671322Y2675006D1*
X10675061Y2651400D1*
Y2627500D1*
X10671322Y2603894D1*
X10663937Y2581164D1*
X10653086Y2559869D1*
X10639038Y2540533D1*
X10622138Y2523633D1*
X10602802Y2509585D1*
X10581507Y2498734D1*
X10558777Y2491349D1*
X10535171Y2487610D1*
X10511270D1*
X10487664Y2491349D1*
X10464934Y2498734D1*
X10443639Y2509585D1*
X10424303Y2523633D1*
X10407403Y2540533D1*
X10393355Y2559869D1*
X10382504Y2581164D1*
X10375119Y2603894D1*
X10371380Y2627500D1*
Y2651400D1*
X10375119Y2675006D1*
X10382504Y2697737D1*
X10393355Y2719032D1*
X10407403Y2738368D1*
X10424303Y2755268D1*
X10439250Y2766383D1*
X10424303Y2777633D1*
X10407403Y2794533D1*
X10393355Y2813869D1*
X10382504Y2835164D1*
X10375119Y2857894D1*
X10371380Y2881500D1*
Y2905400D1*
X10375119Y2929006D1*
X10382504Y2951737D1*
X10393355Y2973032D1*
X10407403Y2992368D1*
X10424303Y3009268D1*
X10439250Y3020383D1*
X10424303Y3031633D1*
X10407403Y3048533D1*
X10393355Y3067869D1*
X10382504Y3089164D1*
X10375119Y3111894D1*
X10371380Y3135500D1*
Y3159400D1*
X10375119Y3183006D1*
X10382504Y3205737D1*
X10393355Y3227032D1*
X10407403Y3246368D1*
X10424303Y3263268D1*
X10443639Y3277316D1*
X10464934Y3288166D1*
X10487664Y3295552D1*
X10511270Y3299291D1*
X10535171D1*
X10558777Y3295552D1*
X10581507Y3288166D1*
X10602802Y3277316D1*
X10622138Y3263268D1*
X10639038Y3246368D1*
X10653086Y3227032D1*
X10663937Y3205737D1*
X10671322Y3183006D1*
X10675061Y3159400D1*
Y3135500D1*
X4085590Y3990080D2*
Y6737448D1*
X3602556Y6254610D1*
X3586918Y6244161D1*
X3569272Y6237651D1*
X3550594Y6235440D1*
X3549736Y6235474D1*
X3519216Y6235440D1*
X3507947Y6223762D1*
X3496984Y6215796D1*
X3484909Y6209644D1*
X3472021Y6205456D1*
X3458636Y6203337D1*
X3445085D1*
X3431700Y6205456D1*
X3418812Y6209644D1*
X3406738Y6215796D1*
X3395774Y6223762D1*
X3386192Y6233344D1*
X3378227Y6244307D1*
X3374926Y6250201D1*
X3363379Y6257277D1*
X3353075Y6266078D1*
X3344274Y6276382D1*
X3337193Y6287937D1*
X3332007Y6300457D1*
X3328844Y6313634D1*
X3327772Y6327324D1*
X3319807Y6338287D1*
X3313654Y6350362D1*
X3309467Y6363250D1*
X3307347Y6376635D1*
Y6390186D1*
X3309467Y6403571D1*
X3313654Y6416459D1*
X3319807Y6428533D1*
X3327772Y6439497D1*
X3337354Y6449079D1*
X3348318Y6457044D1*
X3361798Y6464571D1*
X3377437Y6475020D1*
X3395083Y6481530D1*
X3413761Y6483741D1*
X3479617D1*
X3615942Y6620004D1*
X3049610Y6626249D1*
X3034126Y6629504D1*
X3019829Y6636284D1*
X3007510Y6646215D1*
X1838594Y8013536D1*
X1829799Y8026689D1*
X1824316Y8041532D1*
X1822483Y8058090D1*
X1822451Y8920845D1*
X1636923Y8735570D1*
X1621284Y8725121D1*
X1603639Y8718611D1*
X1584961Y8716400D1*
X1584102Y8716434D1*
X1503725Y8716400D1*
X1459270Y8671869D1*
X1459231Y8637129D1*
X1478277Y8636140D1*
X1491454Y8632977D1*
X1503974Y8627791D1*
X1515528Y8620710D1*
X1525833Y8611909D1*
X1534634Y8601605D1*
X1544387Y8584253D1*
X1554121Y8571516D1*
X1561995Y8554435D1*
X1565664Y8535988D1*
X1565911Y8212210D1*
Y7556250D1*
X1571197Y7537380D1*
X1572261Y7523870D1*
X1571197Y7510361D1*
X1565879Y7491344D1*
X1565911Y7427504D1*
X1583854Y7410318D1*
X1596374Y7415504D1*
X1609551Y7418667D1*
X1623061Y7419730D1*
X1636570Y7418667D1*
X1655587Y7413349D1*
X1720778Y7413134D1*
X1739225Y7409465D1*
X1756306Y7401590D1*
X1771076Y7389946D1*
X1771659Y7389315D1*
X2355933Y6805089D1*
X2365112Y6817957D1*
X2374694Y6827539D1*
X2385658Y6835504D1*
X2397732Y6841657D1*
X2410620Y6845844D1*
X2424005Y6847964D1*
X2437556D1*
X2450941Y6845844D1*
X2463829Y6841657D1*
X2475904Y6835504D1*
X2486867Y6827539D1*
X2496449Y6817957D1*
X2504415Y6806993D1*
X2510334Y6795424D1*
X3485094Y5820708D1*
X3701978Y5820554D1*
X3720425Y5816885D1*
X3737506Y5809010D1*
X3752276Y5797366D1*
X3752859Y5796735D1*
X3809881Y5739413D1*
X3820330Y5723774D1*
X3826840Y5706128D1*
X3828844Y5692722D1*
X3834337Y5670480D1*
X3835401Y5656970D1*
X3834337Y5643461D1*
X3831174Y5630284D1*
X3826531Y5618942D1*
X3855601Y5589553D1*
X3866050Y5573914D1*
X3872560Y5556268D1*
X3874771Y5537590D1*
X3874737Y5536732D1*
X3874771Y4157830D1*
X4042605Y3990024D1*
X4085668Y3990094D1*
X3366771Y9432794D2*
Y8816398D1*
X3376776Y8805494D1*
X3384507Y8791689D1*
X3388802Y8776460D1*
X3389631Y8765930D1*
Y7377736D1*
X3943306Y7377821D1*
X3943350Y7774125D1*
X3934201Y7790432D1*
X3929095Y7808534D1*
X3928110Y7821050D1*
Y7849452D1*
X3925779Y7856063D1*
X3909857Y7858363D1*
X3896969Y7862551D1*
X3884894Y7868703D1*
X3873931Y7876668D1*
X3864349Y7886251D1*
X3856383Y7897214D1*
X3850231Y7909288D1*
X3846043Y7922177D1*
X3843923Y7935561D1*
Y7949113D1*
X3844963Y7957068D1*
X3844720Y8055824D1*
X3843657Y8069334D1*
X3844720Y8082843D1*
X3847884Y8096020D1*
X3853070Y8108540D1*
X3860150Y8120095D1*
X3868951Y8130399D1*
X3879256Y8139200D1*
X3890811Y8146281D1*
X3908455Y8152912D1*
X3908424Y8973837D1*
X3887107Y8967096D1*
X3862897Y8963262D1*
X3755391Y8962780D1*
X3584384Y8963262D1*
X3560174Y8967096D1*
X3536861Y8974671D1*
X3515021Y8985799D1*
X3495190Y9000207D1*
X3477857Y9017540D1*
X3463449Y9037371D1*
X3452321Y9059211D1*
X3444746Y9082524D1*
X3440912Y9106734D1*
Y9131246D1*
X3444746Y9155457D1*
X3452321Y9178769D1*
X3463449Y9200610D1*
X3477857Y9220441D1*
X3495190Y9237774D1*
X3505580Y9245873D1*
X3486183Y9262533D1*
X3470264Y9281172D1*
X3457456Y9302072D1*
X3448076Y9324719D1*
X3442353Y9348554D1*
X3440430Y9372990D1*
X3442353Y9397427D1*
X3448076Y9421262D1*
X3452304Y9432724D1*
X3366855Y9432680D1*
X7745731Y3336971D2*
Y3406176D1*
X6793086Y4359152D1*
X6783364Y4372534D1*
X6775854Y4387272D1*
X6770743Y4403003D1*
X6768155Y4419340D1*
X6767830Y4586360D1*
X6768155Y4644161D1*
X6771331Y4662583D1*
X5446420Y4662560D1*
X4585230Y3801620D1*
X4569591Y3791171D1*
X4551945Y3784661D1*
X4533267Y3782450D1*
X4532409Y3782484D1*
X3987240Y3782697D1*
X3968793Y3786366D1*
X3951712Y3794240D1*
X3936941Y3805884D1*
X3936358Y3806515D1*
X3775665Y3967161D1*
X3775711Y3792766D1*
X4229265Y3339178D1*
X7675806Y3339220D1*
X7694758Y3344507D1*
X7708267Y3345570D1*
X7721777Y3344507D1*
X7734954Y3341344D1*
X7745766Y3336945D1*
D40*
X3850641Y8864990D3*
D41*
X3596641D3*
X3850641Y9118990D3*
X3596641D3*
X3850641Y9372990D3*
X3596641D3*
D40*
X4612641Y8737990D3*
D41*
X4358641D3*
X4612641Y8991990D3*
X4358641D3*
X4612641Y9245990D3*
X4358641D3*
X4612641Y9499990D3*
X4358641D3*
D40*
X3088641Y9372990D3*
D41*
X2834641D3*
X2580641D3*
X2326641D3*
D40*
X3088641Y9116450D3*
D41*
X2834641D3*
X2580641D3*
X2326641D3*
D40*
X3088641Y8862450D3*
D41*
X2834641D3*
X2580641D3*
X2326641D3*
D40*
X4866641Y8737990D3*
D41*
Y8991990D3*
Y9245990D3*
D40*
X2787017Y3163960D3*
D41*
X3041017D3*
D40*
X10523221Y3401450D3*
D41*
Y3147450D3*
Y2893450D3*
Y2639450D3*
M02*
