G04 DipTrace 2.4.0.2*
%INBottomSilk.gbr*%
%MOIN*%
%ADD10C,0.0098*%
%ADD29C,0.0154*%
%FSLAX44Y44*%
G04*
G70*
G90*
G75*
G01*
%LNBotSilk*%
%LPD*%
X4345Y18264D2*
D10*
X5345D1*
X4345D2*
Y24264D1*
X5345D1*
X7185D2*
X8365D1*
X7185Y18264D2*
X8365D1*
X8372D2*
Y18894D1*
Y23634D2*
Y24264D1*
D29*
X14644Y7421D3*
X14552Y7922D2*
D10*
X13370D1*
Y8119D1*
X14552D1*
Y7922D1*
D29*
X17027Y6902D3*
X17119Y6401D2*
D10*
X18300D1*
Y6204D1*
X17119D1*
Y6401D1*
D29*
X17027Y8652D3*
X17119Y8151D2*
D10*
X18300D1*
Y7954D1*
X17119D1*
Y8151D1*
D29*
X15152Y6902D3*
X15244Y6401D2*
D10*
X16425D1*
Y6204D1*
X15244D1*
Y6401D1*
D29*
X13277Y6902D3*
X13369Y6401D2*
D10*
X14550D1*
Y6204D1*
X13369D1*
Y6401D1*
D29*
X15152Y8652D3*
X15244Y8151D2*
D10*
X16425D1*
Y7954D1*
X15244D1*
Y8151D1*
X20223Y6893D2*
X20347D1*
Y6018D1*
X20223D1*
Y6893D1*
X20332Y9243D2*
X20208D1*
Y10118D1*
X20332D1*
Y9243D1*
X20223Y8518D2*
X20347D1*
Y7643D1*
X20223D1*
Y8518D1*
X23511Y15183D2*
X23761D1*
Y11703D1*
X23571D1*
X22571D2*
X21392D1*
X22571Y15183D2*
X21392D1*
X21384D2*
Y14553D1*
Y12333D2*
Y11703D1*
X4555Y5327D2*
X4305D1*
Y8807D1*
X4495D1*
X5495D2*
X6675D1*
X5495Y5327D2*
X6675D1*
X6682D2*
Y5957D1*
Y8177D2*
Y8807D1*
X10170Y24067D2*
Y24317D1*
X14250D1*
Y24127D1*
Y23127D2*
Y21947D1*
X13620Y21939D2*
X14250D1*
X10170Y23127D2*
Y21947D1*
Y21939D2*
X10800D1*
M02*
