G04 DipTrace 2.4.0.2*
%INTopMask.gbr*%
%MOIN*%
%ADD24R,0.0669X0.0669*%
%ADD25C,0.0669*%
%ADD41C,0.11*%
%ADD60R,0.0474X0.0513*%
%ADD64R,0.158X0.158*%
%ADD68C,0.0749*%
%ADD69R,0.0749X0.0749*%
%FSLAX44Y44*%
G04*
G70*
G90*
G75*
G01*
%LNTopMask*%
%LPD*%
D69*
X15950Y20010D3*
D68*
X16950D3*
X15950Y19010D3*
X16950D3*
X15950Y18010D3*
X16950D3*
D69*
X12950Y20510D3*
D68*
X13950D3*
X12950Y19510D3*
X13950D3*
X12950Y18510D3*
X13950D3*
X12950Y17510D3*
X13950D3*
D69*
X18953Y20010D3*
D68*
X19953D3*
X20953D3*
X21953D3*
D69*
X18950Y19013D3*
D68*
X19950D3*
X20950D3*
X21950D3*
D69*
X18950Y18013D3*
D68*
X19950D3*
X20950D3*
X21950D3*
D69*
X11950Y20510D3*
D68*
Y19510D3*
Y18510D3*
D69*
X20064Y14092D3*
D68*
Y13092D3*
Y12092D3*
Y11092D3*
D69*
X19064Y14092D3*
D68*
Y13092D3*
Y12092D3*
Y11092D3*
D69*
X18061Y14089D3*
D68*
Y13089D3*
Y12089D3*
Y11089D3*
D24*
X23163Y7329D3*
D25*
Y8117D3*
Y8904D3*
Y9691D3*
X22375D3*
Y8904D3*
Y8117D3*
Y7329D3*
D64*
X7506Y13629D3*
X9520Y13630D3*
D60*
X9458Y11630D3*
Y12299D3*
X8833Y11630D3*
Y12299D3*
X7582Y11630D3*
Y12299D3*
X8207Y11630D3*
Y12299D3*
G36*
X8325Y9504D2*
X8146Y9325D1*
X7894D1*
X7715Y9504D1*
Y9757D1*
X7894Y9935D1*
X8146D1*
X8325Y9757D1*
Y9504D1*
G37*
G36*
X9325D2*
X9146Y9325D1*
X8894D1*
X8715Y9504D1*
Y9757D1*
X8894Y9935D1*
X9146D1*
X9325Y9757D1*
Y9504D1*
G37*
G36*
X12191Y15524D2*
X12435Y15459D1*
X12561Y15240D1*
X12496Y14996D1*
X12277Y14870D1*
X12033Y14935D1*
X11907Y15154D1*
X11972Y15398D1*
X12191Y15524D1*
G37*
G36*
X11691Y16390D2*
X11935Y16325D1*
X12061Y16106D1*
X11996Y15862D1*
X11777Y15736D1*
X11533Y15801D1*
X11407Y16020D1*
X11472Y16264D1*
X11691Y16390D1*
G37*
G36*
X10752Y17106D2*
X10996Y17172D1*
X11215Y17045D1*
X11280Y16801D1*
X11154Y16583D1*
X10910Y16517D1*
X10691Y16643D1*
X10626Y16887D1*
X10752Y17106D1*
G37*
G36*
X9886Y17606D2*
X10130Y17672D1*
X10349Y17545D1*
X10414Y17301D1*
X10288Y17083D1*
X10044Y17017D1*
X9825Y17143D1*
X9760Y17387D1*
X9886Y17606D1*
G37*
G36*
X10414Y9959D2*
X10349Y9715D1*
X10130Y9589D1*
X9886Y9654D1*
X9760Y9873D1*
X9825Y10117D1*
X10044Y10243D1*
X10288Y10178D1*
X10414Y9959D1*
G37*
G36*
X11280Y10459D2*
X11215Y10215D1*
X10996Y10089D1*
X10752Y10154D1*
X10626Y10373D1*
X10691Y10617D1*
X10910Y10743D1*
X11154Y10678D1*
X11280Y10459D1*
G37*
G36*
X4394Y13825D2*
X4215Y14004D1*
Y14257D1*
X4394Y14435D1*
X4646D1*
X4825Y14257D1*
Y14004D1*
X4646Y13825D1*
X4394D1*
G37*
G36*
Y12825D2*
X4215Y13004D1*
Y13257D1*
X4394Y13435D1*
X4646D1*
X4825Y13257D1*
Y13004D1*
X4646Y12825D1*
X4394D1*
G37*
G36*
X8715Y17757D2*
X8894Y17935D1*
X9146D1*
X9325Y17757D1*
Y17504D1*
X9146Y17325D1*
X8894D1*
X8715Y17504D1*
Y17757D1*
G37*
G36*
X7715D2*
X7894Y17935D1*
X8146D1*
X8325Y17757D1*
Y17504D1*
X8146Y17325D1*
X7894D1*
X7715Y17504D1*
Y17757D1*
G37*
G36*
X11996Y11398D2*
X12061Y11154D1*
X11935Y10935D1*
X11691Y10870D1*
X11472Y10996D1*
X11407Y11240D1*
X11533Y11459D1*
X11777Y11524D1*
X11996Y11398D1*
G37*
G36*
X12496Y12264D2*
X12561Y12020D1*
X12435Y11801D1*
X12191Y11736D1*
X11972Y11862D1*
X11907Y12106D1*
X12033Y12325D1*
X12277Y12390D1*
X12496Y12264D1*
G37*
G36*
X4849Y11736D2*
X4605Y11801D1*
X4479Y12020D1*
X4544Y12264D1*
X4763Y12390D1*
X5007Y12325D1*
X5133Y12106D1*
X5068Y11862D1*
X4849Y11736D1*
G37*
G36*
X5349Y10870D2*
X5105Y10935D1*
X4979Y11154D1*
X5044Y11398D1*
X5263Y11524D1*
X5507Y11459D1*
X5633Y11240D1*
X5568Y10996D1*
X5349Y10870D1*
G37*
G36*
X6626Y17301D2*
X6691Y17545D1*
X6910Y17672D1*
X7154Y17606D1*
X7280Y17387D1*
X7215Y17143D1*
X6996Y17017D1*
X6752Y17083D1*
X6626Y17301D1*
G37*
G36*
X5760Y16801D2*
X5825Y17045D1*
X6044Y17172D1*
X6288Y17106D1*
X6414Y16887D1*
X6349Y16643D1*
X6130Y16517D1*
X5886Y16583D1*
X5760Y16801D1*
G37*
G36*
X12646Y13435D2*
X12825Y13257D1*
Y13004D1*
X12646Y12825D1*
X12394D1*
X12215Y13004D1*
Y13257D1*
X12394Y13435D1*
X12646D1*
G37*
G36*
Y14435D2*
X12825Y14257D1*
Y14004D1*
X12646Y13825D1*
X12394D1*
X12215Y14004D1*
Y14257D1*
X12394Y14435D1*
X12646D1*
G37*
G36*
X6288Y10154D2*
X6044Y10089D1*
X5825Y10215D1*
X5760Y10459D1*
X5886Y10678D1*
X6130Y10743D1*
X6349Y10617D1*
X6414Y10373D1*
X6288Y10154D1*
G37*
G36*
X7154Y9654D2*
X6910Y9589D1*
X6691Y9715D1*
X6626Y9959D1*
X6752Y10178D1*
X6996Y10243D1*
X7215Y10117D1*
X7280Y9873D1*
X7154Y9654D1*
G37*
G36*
X5044Y15862D2*
X4979Y16106D1*
X5105Y16325D1*
X5349Y16390D1*
X5568Y16264D1*
X5633Y16020D1*
X5507Y15801D1*
X5263Y15736D1*
X5044Y15862D1*
G37*
G36*
X4544Y14996D2*
X4479Y15240D1*
X4605Y15459D1*
X4849Y15524D1*
X5068Y15398D1*
X5133Y15154D1*
X5007Y14935D1*
X4763Y14870D1*
X4544Y14996D1*
G37*
D69*
X15065Y15088D3*
D68*
X16065D3*
X15065Y14088D3*
X16065D3*
X15065Y13088D3*
X16065D3*
X15065Y12088D3*
X16065D3*
D69*
X16070Y10090D3*
D68*
X15070D3*
X16070Y11090D3*
X15070D3*
D41*
X22670Y5560D3*
Y21700D3*
Y30675D3*
X8770Y5560D3*
M02*
