M48
INCH
T01C0.012
T02C0.03
T03C0.032
T04C0.0354
T05C0.0433
T06C0.09
T07C0.11
%
T01
X+018710Y+031630
X+019210Y+031630
X+019710Y+031630
X+020210Y+031630
X+020710Y+031630
X+021210Y+031630
X+021210Y+031130
X+020710Y+031130
X+020210Y+031130
X+019710Y+031130
X+019210Y+031130
X+018710Y+031130
X+018710Y+030630
X+019210Y+030630
X+019710Y+030630
X+020210Y+030630
X+020710Y+030630
X+021210Y+030630
X+021210Y+030130
X+021210Y+029630
X+020710Y+029630
X+020710Y+030130
X+020210Y+030130
X+020210Y+029630
X+019710Y+029630
X+019710Y+030130
X+019210Y+030130
X+019210Y+029630
X+018710Y+029630
X+018710Y+030130
X+017710Y+023630
X+017710Y+022630
X+017710Y+021630
X+016710Y+022630
X+016710Y+023630
X+017710Y+018630
X+017710Y+016630
X+017710Y+015630
X+016710Y+016630
X+014890Y+016260
X+019710Y+016630
X+019710Y+015630
X+020710Y+015630
X+020710Y+016630
X+021710Y+016630
X+022710Y+016630
X+022710Y+015630
X+021710Y+015630
X+022710Y+014630
X+022710Y+013630
X+022710Y+012630
X+021170Y+010540
X+020850Y+010210
X+019460Y+009680
X+018950Y+008660
X+018415Y+008505
X+017960Y+009255
X+017560Y+009270
X+017710Y+009630
X+017690Y+009890
X+018210Y+009630
X+017090Y+008840
X+016485Y+008505
X+017316Y+007175
X+016505Y+006755
X+018024Y+005850
X+018409Y+006755
X+019808Y+007032
X+020090Y+007480
X+019850Y+007770
X+020900Y+007770
X+020850Y+008190
X+020500Y+008660
X+021660Y+007250
X+020820Y+006810
X+020710Y+004630
X+019710Y+004630
X+018710Y+004630
X+017710Y+004630
X+016710Y+004630
X+015710Y+004630
X+014710Y+004630
X+013710Y+004630
X+012710Y+004630
X+011710Y+004630
X+010710Y+004630
X+009710Y+004630
X+011010Y+005940
X+010710Y+006630
X+011335Y+007005
X+012530Y+007370
X+012750Y+008730
X+013585Y+008473
X+013585Y+009505
X+012910Y+010290
X+012530Y+010280
X+010710Y+008630
X+009710Y+008630
X+009020Y+007810
X+009710Y+006630
X+007080Y+007680
X+006710Y+008630
X+005710Y+008630
X+004710Y+009630
X+004710Y+010630
X+005710Y+005630
X+005710Y+004630
X+006710Y+004630
X+006710Y+005630
X+009898Y+012255
X+007506Y+018470
X+005710Y+017630
X+004710Y+017630
X+004710Y+019630
X+005710Y+019630
X+005710Y+020630
X+004710Y+020630
X+004710Y+021630
X+005710Y+021630
X+005710Y+022630
X+004710Y+022630
X+006710Y+023630
X+007710Y+023630
X+008710Y+023630
X+009710Y+023630
X+022710Y+017630
X+017320Y+010950
X+016870Y+010640
X+014638Y+007568
X+014655Y+006755
T02
X+010206Y+021756
X+009340Y+020774
T03
X+008020Y+009630
X+009020Y+009630
X+010087Y+009916
X+010953Y+010416
X+011734Y+011197
X+012234Y+012063
X+012520Y+013130
X+012520Y+014130
X+012234Y+015197
X+011734Y+016063
X+010953Y+016844
X+010087Y+017344
X+009020Y+017630
X+008020Y+017630
X+006953Y+017344
X+006087Y+016844
X+005306Y+016063
X+004806Y+015197
X+004520Y+014130
X+004520Y+013130
X+004806Y+012063
X+005306Y+011197
X+006087Y+010416
X+006953Y+009916
T04
X+023163Y+007329
X+023163Y+008117
X+023163Y+008904
X+023163Y+009691
X+022375Y+009691
X+022375Y+008904
X+022375Y+008117
X+022375Y+007329
T05
X+015950Y+020010
X+015950Y+019010
X+015950Y+018010
X+016950Y+018010
X+016950Y+019010
X+016950Y+020010
X+018953Y+020010
X+018950Y+019013
X+019950Y+019013
X+019953Y+020010
X+020953Y+020010
X+020950Y+019013
X+021950Y+019013
X+021953Y+020010
X+021950Y+018013
X+020950Y+018013
X+019950Y+018013
X+018950Y+018013
X+019064Y+014092
X+019064Y+013092
X+019064Y+012092
X+019064Y+011092
X+020064Y+011092
X+020064Y+012092
X+020064Y+013092
X+020064Y+014092
X+018061Y+014089
X+018061Y+013089
X+018061Y+012089
X+018061Y+011089
X+016070Y+011090
X+016065Y+012088
X+016065Y+013088
X+016065Y+014088
X+016065Y+015088
X+015065Y+015088
X+015065Y+014088
X+015065Y+013088
X+015065Y+012088
X+015070Y+011090
X+015070Y+010090
X+016070Y+010090
X+013950Y+017510
X+013950Y+018510
X+012950Y+018510
X+012950Y+017510
X+011950Y+018510
X+011950Y+019510
X+011950Y+020510
X+012950Y+020510
X+012950Y+019510
X+013950Y+019510
X+013950Y+020510
T06
X+007506Y+013629
X+009520Y+013630
T07
X+022670Y+005560
X+008770Y+005560
X+022670Y+021700
X+022670Y+030675
T00
M30
