G04 DipTrace 2.4.0.2*
%INTopSilk.gbr*%
%MOIN*%
%ADD10C,0.0098*%
%ADD18C,0.01*%
%ADD37C,0.006*%
%ADD38C,0.005*%
%ADD77C,0.0124*%
%FSLAX44Y44*%
G04*
G70*
G90*
G75*
G01*
%LNTopSilk*%
%LPD*%
X17450Y20510D2*
D10*
X15450D1*
Y17510D1*
X17450D1*
Y20510D1*
X14450Y21010D2*
X12450D1*
Y17010D1*
X14450D1*
Y21010D1*
X18453Y20510D2*
X22453D1*
Y19510D1*
X18453D1*
Y20510D1*
X18450Y19513D2*
X22451D1*
Y18513D1*
X18450D1*
Y19513D1*
Y18513D2*
X22451D1*
Y17513D1*
X18450D1*
Y18513D1*
X12450Y21010D2*
X11450D1*
Y18010D1*
X12450D1*
Y21010D1*
X20564Y14592D2*
X19564D1*
Y10592D1*
X20564D1*
Y14592D1*
X19564D2*
X18564D1*
Y10592D1*
X19564D1*
Y14592D1*
X18561Y14589D2*
X17561D1*
Y10589D1*
X18561D1*
Y14589D1*
X21903Y6857D2*
X23635D1*
Y10164D1*
X21903D1*
Y6857D1*
X8520Y10230D2*
D37*
G02X9008Y9979I0J-600D01*
G01*
X8040Y9990D2*
G02X8520Y10230I480J-361D01*
G01*
Y9030D2*
G03X8994Y9262I0J600D01*
G01*
X8046D2*
G03X8520Y9030I474J368D01*
G01*
Y10430D2*
D18*
G02X9135Y10142I0J-799D01*
G01*
X7814Y10007D2*
G02X8520Y10430I706J-377D01*
G01*
Y8830D2*
G03X9131Y9114I0J800D01*
G01*
X7825Y9233D2*
G03X8520Y8830I695J397D01*
G01*
X7500Y10310D2*
D38*
X7790D1*
X7640Y10150D2*
Y10460D1*
X11464Y15330D2*
D37*
G02X11437Y15879I520J300D01*
G01*
X11912Y15035D2*
G02X11464Y15330I72J595D01*
G01*
X12504Y15930D2*
G03X12066Y16225I-519J-299D01*
G01*
X12540Y15404D2*
G03X12504Y15930I-556J226D01*
G01*
X11291Y15230D2*
D18*
G02X11233Y15906I691J400D01*
G01*
X12011Y14831D2*
G02X11291Y15230I-27J800D01*
G01*
X12677Y16030D2*
G03X12126Y16418I-693J-401D01*
G01*
X12675Y15227D2*
G03X12677Y16030I-691J403D01*
G01*
X11905Y14407D2*
D38*
X11760Y14658D1*
X11974Y14608D2*
X11705Y14453D1*
X10220Y16575D2*
D37*
G02X9923Y17037I299J519D01*
G01*
X10756Y16543D2*
G02X10220Y16575I-236J553D01*
G01*
X10820Y17615D2*
G03X10294Y17651I-300J-520D01*
G01*
X11114Y17177D2*
G03X10820Y17615I-595J-83D01*
G01*
X10120Y16402D2*
D18*
G02X9732Y16958I400J693D01*
G01*
X10943Y16415D2*
G02X10120Y16402I-423J680D01*
G01*
X10920Y17788D2*
G03X10249Y17848I-400J-693D01*
G01*
X11320Y17091D2*
G03X10920Y17788I-800J4D01*
G01*
X11063Y15996D2*
D38*
X10812Y16141D1*
X11022Y16204D2*
X10867Y15936D1*
X10220Y10686D2*
D37*
G02X10769Y10713I300J-520D01*
G01*
X9924Y10238D2*
G02X10220Y10686I595J-72D01*
G01*
X10820Y9647D2*
G03X11114Y10084I-299J519D01*
G01*
X10294Y9611D2*
G03X10820Y9647I226J556D01*
G01*
X10120Y10860D2*
D18*
G02X10796Y10918I400J-691D01*
G01*
X9720Y10140D2*
G02X10120Y10860I800J27D01*
G01*
X10920Y9474D2*
G03X11307Y10024I-401J693D01*
G01*
X10117Y9475D2*
G03X10920Y9474I403J691D01*
G01*
X9297Y10245D2*
D38*
X9548Y10390D1*
X9498Y10177D2*
X9343Y10445D1*
X5120Y13630D2*
D37*
G02X4869Y13142I-600J0D01*
G01*
X4880Y14110D2*
G02X5120Y13630I-361J-480D01*
G01*
X3920D2*
G03X4152Y13157I600J0D01*
G01*
Y14104D2*
G03X3920Y13630I368J-474D01*
G01*
X5320D2*
D18*
G02X5032Y13016I-799J0D01*
G01*
X4897Y14336D2*
G02X5320Y13630I-377J-706D01*
G01*
X3720D2*
G03X4003Y13020I800J0D01*
G01*
X4123Y14325D2*
G03X3720Y13630I397J-695D01*
G01*
X5200Y14650D2*
D38*
Y14360D1*
X5040Y14510D2*
X5350D1*
X8520Y17030D2*
D37*
G02X8032Y17282I0J600D01*
G01*
X9000Y17270D2*
G02X8520Y17030I-480J361D01*
G01*
Y18230D2*
G03X8046Y17999I0J-600D01*
G01*
X8994D2*
G03X8520Y18230I-474J-368D01*
G01*
Y16830D2*
D18*
G02X7905Y17118I0J799D01*
G01*
X9226Y17254D2*
G02X8520Y16830I-706J377D01*
G01*
Y18430D2*
G03X7909Y18147I0J-800D01*
G01*
X9215Y18027D2*
G03X8520Y18430I-695J-397D01*
G01*
X9540Y16950D2*
D38*
X9250D1*
X9400Y17110D2*
Y16800D1*
X11465Y11930D2*
D37*
G02X11927Y12228I519J-299D01*
G01*
X11433Y11395D2*
G02X11465Y11930I553J236D01*
G01*
X12504Y11330D2*
G03X12541Y11856I-520J300D01*
G01*
X12067Y11036D2*
G03X12504Y11330I-83J595D01*
G01*
X11291Y12030D2*
D18*
G02X11848Y12419I693J-400D01*
G01*
X11305Y11207D2*
G02X11291Y12030I680J423D01*
G01*
X12678Y11230D2*
G03X12738Y11901I-693J400D01*
G01*
X11981Y10830D2*
G03X12678Y11230I4J800D01*
G01*
X10885Y11087D2*
D38*
X11030Y11338D1*
X11094Y11128D2*
X10825Y11283D1*
X5576Y11930D2*
D37*
G02X5603Y11382I-520J-300D01*
G01*
X5128Y12226D2*
G02X5576Y11930I-72J-595D01*
G01*
X4536Y11330D2*
G03X4974Y11036I519J299D01*
G01*
X4500Y11856D2*
G03X4536Y11330I556J-226D01*
G01*
X5749Y12030D2*
D18*
G02X5807Y11354I-691J-400D01*
G01*
X5029Y12430D2*
G02X5749Y12030I27J-800D01*
G01*
X4363Y11230D2*
G03X4914Y10843I693J401D01*
G01*
X4365Y12033D2*
G03X4363Y11230I691J-403D01*
G01*
X5135Y12854D2*
D38*
X5280Y12603D1*
X5067Y12652D2*
X5335Y12807D1*
X6820Y16574D2*
D37*
G02X6271Y16548I-300J520D01*
G01*
X7116Y17022D2*
G02X6820Y16574I-595J72D01*
G01*
X6220Y17614D2*
G03X5926Y17176I299J-519D01*
G01*
X6746Y17650D2*
G03X6220Y17614I-226J-556D01*
G01*
X6920Y16401D2*
D18*
G02X6244Y16343I-400J691D01*
G01*
X7320Y17121D2*
G02X6920Y16401I-800J-27D01*
G01*
X6120Y17787D2*
G03X5733Y17236I401J-693D01*
G01*
X6923Y17785D2*
G03X6120Y17787I-403J-691D01*
G01*
X7743Y17015D2*
D38*
X7492Y16870D1*
X7542Y17084D2*
X7697Y16815D1*
X11920Y13630D2*
D37*
G02X12171Y14119I600J0D01*
G01*
X12160Y13150D2*
G02X11920Y13630I361J480D01*
G01*
X13120D2*
G03X12888Y14104I-600J0D01*
G01*
Y13157D2*
G03X13120Y13630I-368J474D01*
G01*
X11720D2*
D18*
G02X12008Y14245I799J0D01*
G01*
X12143Y12924D2*
G02X11720Y13630I377J706D01*
G01*
X13320D2*
G03X13037Y14241I-800J0D01*
G01*
X12917Y12936D2*
G03X13320Y13630I-397J695D01*
G01*
X11840Y12610D2*
D38*
Y12900D1*
X12000Y12750D2*
X11690D1*
X6820Y10686D2*
D37*
G02X7117Y10224I-299J-519D01*
G01*
X6284Y10718D2*
G02X6820Y10686I236J-553D01*
G01*
X6220Y9646D2*
G03X6746Y9610I300J520D01*
G01*
X5926Y10084D2*
G03X6220Y9646I595J83D01*
G01*
X6920Y10859D2*
D18*
G02X7308Y10302I-400J-693D01*
G01*
X6097Y10845D2*
G02X6920Y10859I423J-680D01*
G01*
X6120Y9473D2*
G03X6791Y9413I400J693D01*
G01*
X5720Y10169D2*
G03X6120Y9473I800J-4D01*
G01*
X5977Y11265D2*
D38*
X6228Y11120D1*
X6018Y11056D2*
X6173Y11325D1*
X5575Y15330D2*
D37*
G02X5113Y15033I-519J299D01*
G01*
X5608Y15866D2*
G02X5575Y15330I-553J-236D01*
G01*
X4536Y15930D2*
G03X4499Y15404I520J-300D01*
G01*
X4973Y16225D2*
G03X4536Y15930I83J-595D01*
G01*
X5749Y15230D2*
D18*
G02X5192Y14842I-693J400D01*
G01*
X5735Y16053D2*
G02X5749Y15230I-680J-423D01*
G01*
X4362Y16030D2*
G03X4302Y15360I693J-400D01*
G01*
X5059Y16430D2*
G03X4362Y16030I-4J-800D01*
G01*
X6155Y16174D2*
D38*
X6010Y15923D1*
X5946Y16133D2*
X6215Y15978D1*
X16565Y15588D2*
D10*
X14565D1*
Y11588D1*
X16565D1*
Y15588D1*
X14570Y9590D2*
X16570D1*
Y11590D1*
X14570D1*
Y9590D1*
X9332Y14957D2*
D77*
X9774D1*
X7551Y15301D2*
Y14612D1*
X7207Y14956D2*
X7896D1*
M02*
