G04 DipTrace 2.4.0.2*
%INBottom.gbr*%
%MOIN*%
%ADD13C,0.0669*%
%ADD14C,0.05*%
%ADD15C,0.06*%
%ADD16C,0.07*%
%ADD17C,0.025*%
%ADD18C,0.01*%
%ADD19C,0.02*%
%ADD20C,0.014*%
%ADD21R,0.1772X0.0512*%
%ADD22R,0.1535X0.0709*%
%ADD23R,0.3X0.27*%
%ADD24R,0.0669X0.0669*%
%ADD25C,0.0669*%
%ADD26R,0.0591X0.0591*%
%ADD27C,0.0591*%
%ADD28R,0.15X0.15*%
%ADD30R,0.0256X0.0413*%
%ADD31R,0.0394X0.0433*%
%ADD32R,0.0195X0.014*%
%ADD33R,0.0866X0.0276*%
%ADD34R,0.0906X0.043*%
%ADD35R,0.0276X0.0866*%
%ADD36R,0.043X0.0906*%
%FSLAX44Y44*%
G04*
G70*
G90*
G75*
G01*
%LNBottom*%
%LPD*%
X15950Y20010D2*
D13*
X16950D1*
X7935Y21756D2*
D14*
X10206D1*
X15950Y19010D2*
D13*
X16950D1*
X7935Y20774D2*
D14*
X9340D1*
X19064Y13092D2*
Y14092D1*
X18950Y18013D2*
X19950D1*
Y20008D1*
X19953Y20010D1*
X18953D1*
Y18015D1*
X18950Y18013D1*
X19950Y19013D1*
X18953Y20010D1*
X18950Y19013D2*
X18955D1*
X19953Y20010D1*
X18950Y19013D2*
X19950Y18013D1*
Y19013D2*
X18950D1*
Y18013D2*
D15*
X19950D1*
Y19013D1*
X18950Y18013D2*
D13*
X19950D1*
Y18697D1*
D16*
Y20008D1*
D13*
X19953Y20010D1*
X18953D1*
Y19326D1*
D16*
Y18015D1*
D13*
X18950Y18013D1*
X15950Y18010D2*
X16950D1*
X17635D1*
D16*
X18948D1*
X7935Y19784D2*
D14*
X9136D1*
X12090Y16830D1*
X14770D1*
X15950Y18010D1*
X19953Y20010D2*
D17*
Y27283D1*
X19960Y27290D1*
X20064Y14092D2*
D14*
X19064D1*
X18064D1*
X18061Y14089D1*
X18023Y13943D2*
Y13128D1*
X18061Y13089D1*
X20061D1*
X20064Y13092D1*
Y14092D1*
X19064Y13092D1*
X19058D1*
X18061Y14089D1*
Y13089D2*
X19064Y14092D1*
X20064Y13092D1*
X20485Y6555D2*
D18*
X20905D1*
X21450Y7100D1*
Y7450D1*
Y7979D1*
X22375Y8904D1*
X16208Y8505D2*
X16485D1*
X20090Y7480D2*
Y7450D1*
X21450D1*
X20070Y9780D2*
X19560D1*
X19460Y9680D1*
X17090Y8840D2*
Y8480D1*
X16200Y7590D1*
X15844D1*
X15834Y7600D1*
X17690Y9890D2*
X18350D1*
X18550Y9690D1*
Y9080D1*
X18310Y8840D1*
X17090D1*
X20085Y7780D2*
X19860D1*
X19850Y7770D1*
X14335Y7568D2*
X14638D1*
X20900Y7770D2*
X20495D1*
X20485Y7780D1*
X13110Y22230D2*
Y21670D1*
X11950Y20510D1*
X12510Y22230D2*
Y21940D1*
X11450Y20880D1*
Y20010D1*
X11950Y19510D1*
X11910Y22230D2*
Y21600D1*
X11270Y20960D1*
Y19190D1*
X11950Y18510D1*
X7506Y13629D2*
D17*
Y9957D1*
X7470Y9920D1*
Y7470D1*
X7060Y7060D1*
X6402D1*
X6395Y7067D1*
X13950Y20510D2*
D13*
X12950D1*
X16070Y10090D2*
X15070D1*
D17*
Y9990D1*
X12163D1*
X9898Y12255D1*
X21671Y13443D2*
X21093D1*
X20910Y13260D1*
Y11200D1*
X20270Y10560D1*
X16950D1*
X16870Y10640D1*
X7506Y13629D2*
Y18470D1*
X20470Y9380D2*
D18*
Y9580D1*
Y9780D1*
Y9980D1*
X20085Y8380D2*
Y8655D1*
X20470Y9040D1*
Y9380D1*
X15070Y11090D2*
D19*
X16070D1*
Y11030D1*
X16830Y10270D1*
X20440D1*
Y10010D1*
D20*
X20470Y9980D1*
X12460Y5961D2*
D18*
X12192D1*
X11585Y6568D1*
X11379D1*
X11335Y6612D1*
Y7005D2*
D19*
Y6612D1*
X23163Y7329D2*
D18*
Y7473D1*
X22590Y6900D1*
X22060D1*
X21020Y5860D1*
X20250D1*
X20070Y6040D1*
Y6140D1*
X20085Y6155D1*
Y6355D1*
Y6555D1*
Y6755D1*
X19808Y7032D1*
X19640Y7200D1*
Y7950D1*
X19870Y8180D1*
X20085D1*
X17335Y6755D2*
Y7175D1*
Y8505D1*
X15460Y6755D2*
Y7170D1*
Y8505D1*
X13585Y6755D2*
Y6995D1*
X13760Y7170D1*
X15460D1*
X17335Y7175D1*
X17316D2*
X17335D1*
X6395Y6467D2*
D17*
X7193D1*
X8170Y7445D1*
X8530Y7805D1*
Y9960D1*
X9520Y10950D1*
Y13630D1*
X20064Y11682D2*
D14*
Y11092D1*
X20950Y18013D2*
D13*
Y18697D1*
D16*
Y20008D1*
D13*
X20953Y20010D1*
X21953D1*
Y19326D1*
D16*
Y18015D1*
D13*
X21950Y18013D1*
X20950D1*
Y19013D2*
X21950D1*
X21948Y20010D2*
D16*
X21434Y19497D1*
D13*
X20950Y19013D1*
D16*
X21466Y18497D1*
D13*
X21950Y18013D1*
X17560Y9270D2*
D17*
X16710D1*
X16480Y9040D1*
X13520D1*
X13060Y8580D1*
X11924Y7445D1*
X8170D1*
X9520Y13630D2*
Y18460D1*
X9020Y18960D1*
X7000D1*
X6490Y19470D1*
Y22400D1*
X6800Y22710D1*
X7905D1*
X7935Y22740D1*
X10800D1*
X11310Y22230D1*
X13587Y7568D2*
D18*
X13610D1*
Y8030D1*
X13060Y8580D1*
X19064Y11092D2*
D14*
Y12092D1*
X18061Y11089D2*
Y12089D1*
X20064Y11092D2*
Y12092D1*
X19064D1*
X18064D1*
X18061Y12089D1*
X18066D2*
X19064Y11092D1*
X20064Y12092D1*
Y11092D2*
X18064D1*
X18061Y11089D1*
X19064Y12092D1*
X20064Y11092D1*
Y12092D2*
D17*
X20102D1*
X20590Y12580D1*
Y13420D1*
X21210Y14040D1*
X21669D1*
X21671Y14043D1*
X17709Y7600D2*
D18*
X17890D1*
X18950Y8660D1*
X20500D2*
Y8395D1*
X20485Y8380D1*
X16065Y12088D2*
X16183D1*
X17320Y10950D1*
X13959Y5850D2*
X14580D1*
X15020Y6290D1*
X16670D1*
X17430Y5530D1*
X18380D1*
X19320Y6470D1*
Y9210D1*
X19700Y9590D1*
X20060D1*
X20070Y9580D1*
X13959Y5850D2*
X13241D1*
X12460Y6630D1*
X14890Y16260D2*
X13130Y14500D1*
Y10880D1*
X12530Y10280D1*
Y7370D2*
X12470D1*
Y6640D1*
X12460Y6630D1*
X20485Y6355D2*
X20955D1*
X21660Y7060D1*
Y7250D1*
X14333Y6755D2*
X14655D1*
X15834Y5850D2*
X16881D1*
X17360Y5370D1*
X18450D1*
X19480Y6400D1*
Y9020D1*
X19840Y9380D1*
X20070D1*
X11335Y5943D2*
X11835D1*
X12335Y5443D1*
X15427D1*
X15834Y5850D1*
X11010Y5940D2*
X11333D1*
X11335Y5943D1*
X20485Y6155D2*
X21045D1*
X21900Y7010D1*
Y7641D1*
X22375Y8117D1*
X16208Y6755D2*
X16505D1*
X21671Y12843D2*
X22033D1*
X22310Y13120D1*
Y14340D1*
X22060Y14590D1*
X15568D1*
X15065Y14088D1*
X16065D2*
X16048D1*
X15570Y13610D1*
X14510D1*
X13340Y12440D1*
Y10720D1*
X12910Y10290D1*
X12750Y8730D2*
X11860Y7840D1*
X9050D1*
X9020Y7810D1*
X7080Y7680D2*
X6408D1*
X6395Y7667D1*
X13961Y8473D2*
X13585D1*
Y9505D2*
X11864D1*
X10953Y10416D1*
X17709Y5850D2*
X18024D1*
X18470D1*
X19160Y6540D1*
Y9740D1*
X19390Y9970D1*
X20060D1*
X20070Y9980D1*
X23163Y8117D2*
X23236D1*
X23780Y8660D1*
Y9980D1*
X23220Y10540D1*
X21170D1*
X20820Y6810D2*
X20840D1*
X20785Y6755D1*
X20485D1*
X18083D2*
X18409D1*
X23163Y8904D2*
Y8913D1*
X23610Y9360D1*
Y9920D1*
X23210Y10320D1*
X20960D1*
X20850Y10210D1*
Y8190D2*
X20495D1*
X20485Y8180D1*
X18083Y8505D2*
X18415D1*
D14*
X10206Y21756D3*
X9340Y20774D3*
D19*
X16485Y8505D3*
X20090Y7480D3*
X19460Y9680D3*
X17090Y8840D3*
X17690Y9890D3*
X17090Y8840D3*
X19850Y7770D3*
X14638Y7568D3*
X20900Y7770D3*
X9898Y12255D3*
X16870Y10640D3*
X7506Y18470D3*
X11335Y7005D3*
X17316Y7175D3*
X19808Y7032D3*
X17560Y9270D3*
X18950Y8660D3*
X20500D3*
X17320Y10950D3*
X14890Y16260D3*
X12530Y10280D3*
Y7370D3*
X21660Y7250D3*
X14655Y6755D3*
X11010Y5940D3*
X16505Y6755D3*
X12910Y10290D3*
X12750Y8730D3*
X9020Y7810D3*
X7080Y7680D3*
X13585Y8473D3*
Y9505D3*
X18024Y5850D3*
X21170Y10540D3*
X20820Y6810D3*
X18409Y6755D3*
X20850Y10210D3*
Y8190D3*
X18415Y8505D3*
X18710Y31630D3*
X19210D3*
X19710D3*
X20210D3*
X20710D3*
X21210D3*
Y31130D3*
X20710D3*
X20210D3*
X19710D3*
X19210D3*
X18710D3*
Y30630D3*
X19210D3*
X19710D3*
X20210D3*
X20710D3*
X21210D3*
Y30130D3*
X20710D3*
X20210D3*
X19710D3*
X19210D3*
X18710D3*
Y29630D3*
X19210D3*
X19710D3*
X20210D3*
X20710D3*
X21210D3*
X4710Y10630D3*
Y9630D3*
X5710Y8630D3*
X6710D3*
X5710Y5630D3*
X6710D3*
X5710Y4630D3*
X6710D3*
X10710Y8630D3*
X9710D3*
Y6630D3*
X10710D3*
X9710Y4630D3*
X10710D3*
X11710D3*
X12710D3*
X13710D3*
X14710D3*
X15710D3*
X16710D3*
X17710D3*
X18710D3*
X19710D3*
X20710D3*
X18210Y9630D3*
X17710D3*
X17960Y9255D3*
X22710Y12630D3*
Y13630D3*
Y14630D3*
Y15630D3*
Y16630D3*
Y17630D3*
X21710Y16630D3*
X20710D3*
X19710D3*
X21710Y15630D3*
X20710D3*
X19710D3*
X17710Y16630D3*
Y15630D3*
X16710Y16630D3*
X17710Y18630D3*
Y21630D3*
Y22630D3*
Y23630D3*
X16710D3*
Y22630D3*
X9710Y23630D3*
X8710D3*
X7710D3*
X4710Y22630D3*
X5710D3*
Y21630D3*
X4710D3*
Y19630D3*
X5710D3*
Y20630D3*
X4710D3*
Y17630D3*
X5710D3*
X6710Y23630D3*
X18610Y28257D2*
D17*
X21310D1*
X18610Y28008D2*
X21310D1*
X18610Y27759D2*
X21310D1*
X18610Y27511D2*
X21310D1*
X18610Y27262D2*
X21310D1*
X18610Y27013D2*
X21310D1*
X18610Y26764D2*
X21310D1*
X18610Y26516D2*
X21310D1*
X18610Y26267D2*
X21310D1*
X18610Y26018D2*
X21310D1*
X18610Y25770D2*
X21265D1*
X18610Y25521D2*
X21218D1*
X18610Y25272D2*
X21171D1*
X18610Y25024D2*
X21124D1*
X18610Y24775D2*
X21078D1*
X18610Y24526D2*
X21031D1*
X18610Y24278D2*
X20984D1*
X18610Y24029D2*
X20937D1*
X18610Y23780D2*
X20890D1*
X18610Y23532D2*
X20843D1*
X18610Y23283D2*
X20796D1*
X18610Y23034D2*
X20749D1*
X18610Y22785D2*
X20703D1*
X18610Y22537D2*
X20656D1*
X18610Y22288D2*
X20613D1*
X18610Y22039D2*
X20566D1*
X18610Y21791D2*
X20519D1*
X18610Y21542D2*
X20472D1*
X18610Y21293D2*
X20425D1*
X18610Y21045D2*
X20378D1*
X18610Y20796D2*
X20332D1*
X18610Y20547D2*
X20285D1*
X18610Y20299D2*
X20238D1*
X18610Y20050D2*
X20179D1*
X18610Y19801D2*
X19949D1*
X18610Y19553D2*
X19714D1*
X18610Y19304D2*
X19480D1*
X18610Y19055D2*
X19249D1*
X18610Y18806D2*
X19015D1*
X18610Y18558D2*
X18781D1*
X20219Y20063D2*
X21335Y26019D1*
Y28505D1*
X18585D1*
Y18322D1*
X20221Y20067D1*
X18649Y31467D2*
X21579D1*
X18649Y31218D2*
X21435D1*
X18653Y30969D2*
X21353D1*
X18653Y30721D2*
X21318D1*
X18653Y30472D2*
X21333D1*
X18653Y30223D2*
X21400D1*
X18653Y29974D2*
X21521D1*
X18653Y29726D2*
X21720D1*
X18653Y29477D2*
X22075D1*
X23262D2*
X23560D1*
X18653Y29228D2*
X23560D1*
X18653Y28980D2*
X23560D1*
X21750Y28731D2*
X23560D1*
X21750Y28482D2*
X23560D1*
X21750Y28234D2*
X23560D1*
X21750Y27985D2*
X23560D1*
X21750Y27736D2*
X23560D1*
X21750Y27488D2*
X23560D1*
X21750Y27239D2*
X23560D1*
X21750Y26990D2*
X23560D1*
X21750Y26742D2*
X23560D1*
X21750Y26493D2*
X23560D1*
X21750Y26244D2*
X23560D1*
X21750Y25995D2*
X23560D1*
X21750Y25747D2*
X23560D1*
X21661Y25498D2*
X23560D1*
X21614Y25249D2*
X23556D1*
X21567Y25001D2*
X23556D1*
X17958Y24752D2*
X18169D1*
X21520D2*
X23556D1*
X17446Y24503D2*
X18169D1*
X21473D2*
X23556D1*
X4762Y24255D2*
X18169D1*
X21426D2*
X23556D1*
X4528Y24006D2*
X18169D1*
X21379D2*
X23556D1*
X4426Y23757D2*
X18169D1*
X21333D2*
X23556D1*
X4411Y23509D2*
X18169D1*
X21286D2*
X23556D1*
X4411Y23260D2*
X18169D1*
X21239D2*
X23556D1*
X4407Y23011D2*
X18169D1*
X21192D2*
X22443D1*
X22895D2*
X23556D1*
X4407Y22763D2*
X11482D1*
X13540D2*
X18169D1*
X21145D2*
X21853D1*
X4407Y22514D2*
X11482D1*
X13540D2*
X18169D1*
X21098D2*
X21599D1*
X4407Y22265D2*
X6759D1*
X10309D2*
X11482D1*
X13540D2*
X18169D1*
X21055D2*
X21447D1*
X4407Y22016D2*
X6759D1*
X10676D2*
X11482D1*
X13540D2*
X18169D1*
X21008D2*
X21357D1*
X4403Y21768D2*
X6759D1*
X10747D2*
X11482D1*
X13540D2*
X18169D1*
X20961D2*
X21322D1*
X4403Y21519D2*
X6759D1*
X10688D2*
X11357D1*
X13411D2*
X18169D1*
X20915D2*
X21329D1*
X4403Y21270D2*
X6759D1*
X10403D2*
X11111D1*
X13180D2*
X18169D1*
X20868D2*
X21392D1*
X4403Y21022D2*
X6759D1*
X9817D2*
X10935D1*
X14290D2*
X18169D1*
X20821D2*
X21505D1*
X4399Y20773D2*
X6759D1*
X9879D2*
X10931D1*
X14512D2*
X18169D1*
X20774D2*
X21697D1*
X4399Y20524D2*
X6759D1*
X9817D2*
X10931D1*
X14575D2*
X15325D1*
X17282D2*
X18169D1*
X20727D2*
X22033D1*
X23309D2*
X23556D1*
X4399Y20276D2*
X6759D1*
X9493D2*
X10931D1*
X14528D2*
X15325D1*
X17512D2*
X18169D1*
X20680D2*
X23556D1*
X4399Y20027D2*
X6759D1*
X9645D2*
X10931D1*
X14329D2*
X15325D1*
X17575D2*
X18169D1*
X20633D2*
X23556D1*
X4399Y19778D2*
X6759D1*
X9895D2*
X10931D1*
X14512D2*
X15325D1*
X17528D2*
X18169D1*
X20590D2*
X23556D1*
X4395Y19530D2*
X6759D1*
X10145D2*
X10931D1*
X14575D2*
X15325D1*
X17333D2*
X18169D1*
X20590D2*
X23556D1*
X4395Y19281D2*
X6759D1*
X10391D2*
X10931D1*
X14528D2*
X15392D1*
X17508D2*
X18169D1*
X20590D2*
X23556D1*
X4395Y19032D2*
X9134D1*
X10641D2*
X10974D1*
X14336D2*
X15325D1*
X17575D2*
X18169D1*
X20590D2*
X23556D1*
X4395Y18784D2*
X7247D1*
X7762D2*
X9384D1*
X10891D2*
X11208D1*
X14508D2*
X15368D1*
X17532D2*
X18169D1*
X20590D2*
X23556D1*
X4395Y18535D2*
X7095D1*
X7915D2*
X9634D1*
X11137D2*
X11325D1*
X14575D2*
X15560D1*
X20575D2*
X23556D1*
X4391Y18286D2*
X7091D1*
X7922D2*
X9880D1*
X14532D2*
X15392D1*
X20575D2*
X23556D1*
X4391Y18037D2*
X7091D1*
X8442D2*
X8595D1*
X9442D2*
X10130D1*
X14344D2*
X15224D1*
X20575D2*
X23556D1*
X4391Y17789D2*
X6560D1*
X14504D2*
X14974D1*
X20532D2*
X23556D1*
X4391Y17540D2*
X6392D1*
X14575D2*
X14728D1*
X20344D2*
X23556D1*
X4391Y17291D2*
X5697D1*
X15985D2*
X23556D1*
X4387Y17043D2*
X5525D1*
X15735D2*
X23556D1*
X4387Y16794D2*
X5470D1*
X15489D2*
X23556D1*
X4387Y16545D2*
X4931D1*
X15239D2*
X23556D1*
X4387Y16297D2*
X4759D1*
X15278D2*
X23556D1*
X4387Y16048D2*
X4697D1*
X15211D2*
X23556D1*
X4383Y15799D2*
X4763D1*
X14899D2*
X23556D1*
X16469Y15551D2*
X23556D1*
X16649Y15302D2*
X23552D1*
X16688Y15053D2*
X23552D1*
X22317Y14805D2*
X23552D1*
X22563Y14556D2*
X23552D1*
X22649Y14307D2*
X23552D1*
X22649Y14058D2*
X23552D1*
X22649Y13810D2*
X23552D1*
X22649Y13561D2*
X23552D1*
X22649Y13312D2*
X23552D1*
X22645Y13064D2*
X23552D1*
X22473Y12815D2*
X23552D1*
X22395Y12566D2*
X23552D1*
X21325Y12318D2*
X23552D1*
X21325Y12069D2*
X23552D1*
X21325Y11820D2*
X23552D1*
X21325Y11572D2*
X23552D1*
X4372Y11323D2*
X4724D1*
X21325D2*
X23552D1*
X4368Y11074D2*
X4700D1*
X21305D2*
X23552D1*
X4368Y10826D2*
X4837D1*
X23379D2*
X23552D1*
X4368Y10577D2*
X5497D1*
X4368Y10328D2*
X5497D1*
X4368Y10079D2*
X5572D1*
X4364Y9831D2*
X5958D1*
X6127D2*
X6361D1*
X10680D2*
X10911D1*
X16696D2*
X17306D1*
X4364Y9582D2*
X6439D1*
X10602D2*
X11318D1*
X13965D2*
X14728D1*
X16696D2*
X17470D1*
X4364Y9333D2*
X6814D1*
X9551D2*
X10036D1*
X10223D2*
X11564D1*
X13930D2*
X18208D1*
X4364Y9085D2*
X7056D1*
X8282D2*
X8759D1*
X9282D2*
X12638D1*
X12860D2*
X16794D1*
X4360Y8836D2*
X7056D1*
X7883D2*
X12376D1*
X13125D2*
X13521D1*
X14379D2*
X15040D1*
X4360Y8587D2*
X7056D1*
X7883D2*
X12138D1*
X14379D2*
X15040D1*
X4360Y8339D2*
X7056D1*
X7883D2*
X11888D1*
X12829D2*
X13220D1*
X14379D2*
X15040D1*
X4360Y8090D2*
X7056D1*
X7883D2*
X8759D1*
X12579D2*
X13544D1*
X14379D2*
X15040D1*
X4360Y7841D2*
X5673D1*
X7883D2*
X8630D1*
X12333D2*
X13915D1*
X14903D2*
X15118D1*
X4356Y7593D2*
X5673D1*
X7883D2*
X8700D1*
X12079D2*
X12216D1*
X12844D2*
X13915D1*
X4356Y7344D2*
X5673D1*
X7864D2*
X11173D1*
X11497D2*
X12130D1*
X12918D2*
X13462D1*
X4356Y7095D2*
X5673D1*
X7672D2*
X10958D1*
X11715D2*
X11974D1*
X12946D2*
X13165D1*
X4356Y6847D2*
X5673D1*
X7422D2*
X8423D1*
X9118D2*
X10849D1*
X11821D2*
X11974D1*
X12946D2*
X13165D1*
X4356Y6598D2*
X7919D1*
X9622D2*
X10849D1*
X12961D2*
X13165D1*
X4352Y6349D2*
X7677D1*
X9860D2*
X10849D1*
X4352Y6100D2*
X7533D1*
X10004D2*
X10658D1*
X4352Y5852D2*
X7450D1*
X10090D2*
X10630D1*
X19403D2*
X19697D1*
X4352Y5603D2*
X7419D1*
X10122D2*
X10845D1*
X19153D2*
X20044D1*
X4352Y5354D2*
X7435D1*
X10106D2*
X11954D1*
X15809D2*
X16908D1*
X18903D2*
X21333D1*
X4372Y5106D2*
X7497D1*
X10040D2*
X17165D1*
X18645D2*
X21400D1*
X4446Y4857D2*
X7622D1*
X9918D2*
X21521D1*
X4610Y4608D2*
X7822D1*
X9719D2*
X21720D1*
X5032Y4360D2*
X8181D1*
X9360D2*
X22083D1*
X6909Y22277D2*
X9435Y22271D1*
X10206D1*
X10330Y22256D1*
X10446Y22212D1*
X10549Y22141D1*
X10631Y22047D1*
X10688Y21936D1*
X10718Y21815D1*
X10717Y21690D1*
X10686Y21569D1*
X10627Y21460D1*
X10543Y21367D1*
X10440Y21297D1*
X10323Y21255D1*
X10206Y21241D1*
X9554D1*
X9683Y21158D1*
X9765Y21065D1*
X9823Y20954D1*
X9852Y20833D1*
X9851Y20708D1*
X9820Y20587D1*
X9761Y20477D1*
X9677Y20385D1*
X9574Y20315D1*
X9457Y20272D1*
X9336Y20259D1*
X9479Y20168D1*
X11420Y18228D1*
X11365Y18378D1*
X11350Y18501D1*
X11367Y18644D1*
X11047Y18968D1*
X10979Y19071D1*
X10955Y19190D1*
Y20960D1*
X10979Y21082D1*
X11047Y21183D1*
X11509Y21644D1*
X11507Y22928D1*
X12313Y22924D1*
X12732Y22928D1*
X12913Y22924D1*
X13332Y22928D1*
X13513D1*
Y21532D1*
X13392D1*
X13333Y21448D1*
X12993Y21108D1*
X13950Y21110D1*
X14074Y21097D1*
X14193Y21059D1*
X14301Y20996D1*
X14394Y20913D1*
X14468Y20813D1*
X14519Y20699D1*
X14546Y20577D1*
X14547Y20452D1*
X14522Y20330D1*
X14472Y20216D1*
X14400Y20114D1*
X14305Y20027D1*
X14350Y20064D1*
X14340Y19966D1*
X14426Y19875D1*
X14491Y19769D1*
X14533Y19652D1*
X14550Y19510D1*
X14537Y19386D1*
X14498Y19267D1*
X14436Y19159D1*
X14353Y19066D1*
X14281Y19013D1*
X14340Y18966D1*
X14426Y18875D1*
X14491Y18769D1*
X14533Y18652D1*
X14550Y18510D1*
X14537Y18386D1*
X14498Y18267D1*
X14436Y18159D1*
X14353Y18066D1*
X14281Y18013D1*
X14340Y17966D1*
X14426Y17875D1*
X14491Y17769D1*
X14533Y17652D1*
X14550Y17510D1*
X14537Y17386D1*
X14523Y17345D1*
X14583Y17371D1*
X15370Y18158D1*
X15428Y18305D1*
X15500Y18407D1*
X15595Y18493D1*
X15599Y18524D1*
X15506Y18607D1*
X15432Y18708D1*
X15381Y18822D1*
X15354Y18944D1*
X15353Y19068D1*
X15378Y19191D1*
X15428Y19305D1*
X15503Y19409D1*
X15461Y19357D1*
X15425Y19411D1*
X15350D1*
Y20610D1*
X16550Y20606D1*
X16950Y20610D1*
X17074Y20597D1*
X17193Y20559D1*
X17301Y20496D1*
X17394Y20413D1*
X17468Y20313D1*
X17519Y20199D1*
X17546Y20077D1*
X17547Y19952D1*
X17522Y19830D1*
X17472Y19716D1*
X17400Y19614D1*
X17305Y19527D1*
X17301Y19496D1*
X17394Y19413D1*
X17468Y19313D1*
X17519Y19199D1*
X17546Y19077D1*
X17547Y18952D1*
X17522Y18830D1*
X17472Y18716D1*
X17397Y18611D1*
X17501Y18610D1*
X17635Y18625D1*
X18195Y18630D1*
X18191Y24974D1*
X17882Y24710D1*
X17519Y24527D1*
X17128Y24437D1*
X5247Y24405D1*
X5011Y24381D1*
X4839Y24321D1*
X4744Y24259D1*
X4519Y24034D1*
X4446Y23907D1*
X4400Y23749D1*
X4385Y23415D1*
X4359Y15559D1*
X4376Y15592D1*
X4461Y15682D1*
X4536Y15715D1*
X4785Y15781D1*
X4756Y15915D1*
X4723Y16038D1*
X4720Y16162D1*
X4749Y16239D1*
X4876Y16458D1*
X4961Y16548D1*
X5036Y16581D1*
X5280Y16646D1*
X5405Y16650D1*
X5481Y16620D1*
X5594Y16558D1*
X5530Y16669D1*
X5495Y16788D1*
X5504Y16870D1*
X5569Y17114D1*
X5629Y17223D1*
X5693Y17275D1*
X5911Y17401D1*
X6031Y17436D1*
X6113Y17428D1*
X6360Y17360D1*
X6402Y17491D1*
X6435Y17614D1*
X6495Y17723D1*
X6559Y17775D1*
X6777Y17901D1*
X6897Y17936D1*
X6979Y17928D1*
X7118Y17890D1*
X7116Y18470D1*
X7136Y18593D1*
X7194Y18704D1*
X7283Y18790D1*
X7395Y18844D1*
X7519Y18860D1*
X7641Y18836D1*
X7749Y18775D1*
X7833Y18683D1*
X7883Y18569D1*
X7896Y18470D1*
Y18201D1*
X8146Y18200D1*
X8267Y18171D1*
X8334Y18123D1*
X8515Y17940D1*
X8616Y18032D1*
X8706Y18123D1*
X8813Y18187D1*
X8894Y18200D1*
X9146D1*
X9267Y18171D1*
X9334Y18123D1*
X9512Y17944D1*
X9577Y17838D1*
X9590Y17757D1*
X9593Y17628D1*
X9657Y17739D1*
X9742Y17829D1*
X9818Y17862D1*
X10061Y17928D1*
X10186Y17931D1*
X10327Y17864D1*
X8928Y19264D1*
X6784Y19263D1*
X6788Y20305D1*
X6784Y20253D1*
X6788Y21295D1*
X6784Y21235D1*
Y22277D1*
X6909D1*
X18629Y28905D2*
X21725D1*
Y25675D1*
X21666D1*
X20594Y19953D1*
X20573Y19890D1*
X20565Y19633D1*
Y18697D1*
X20549Y18562D1*
X20550Y18013D1*
X20537Y17889D1*
X20499Y17770D1*
X20436Y17662D1*
X20353Y17569D1*
X20253Y17495D1*
X20139Y17444D1*
X20013Y17417D1*
X19575Y17413D1*
X19093D1*
X18948Y17395D1*
X17635D1*
X17499Y17411D1*
X16079D1*
X15168Y16500D1*
X15217Y16423D1*
X15252Y16304D1*
X15255Y16260D1*
X15234Y16138D1*
X15173Y16029D1*
X15079Y15948D1*
X14988Y15913D1*
X14762Y15687D1*
X15665D1*
Y15535D1*
X15755Y15601D1*
X15868Y15654D1*
X15989Y15683D1*
X16114Y15685D1*
X16237Y15662D1*
X16352Y15614D1*
X16455Y15544D1*
X16541Y15453D1*
X16606Y15347D1*
X16648Y15229D1*
X16665Y15088D1*
X16652Y14964D1*
X16634Y14908D1*
X17693Y14905D1*
X22060D1*
X22182Y14881D1*
X22283Y14813D1*
X22533Y14563D1*
X22602Y14460D1*
X22625Y14340D1*
Y13120D1*
X22601Y12999D1*
X22533Y12898D1*
X22370Y12735D1*
Y12440D1*
X21303D1*
X21300Y11635D1*
Y11200D1*
X21280Y11077D1*
X21220Y10964D1*
X21186Y10925D1*
X21166Y10905D1*
X21320Y10873D1*
X21349Y10853D1*
X23220Y10855D1*
X23342Y10831D1*
X23443Y10763D1*
X23578Y10628D1*
X23581Y20738D1*
X23450Y20627D1*
X23235Y20500D1*
X23000Y20416D1*
X22753Y20377D1*
X22504Y20384D1*
X22260Y20439D1*
X22031Y20538D1*
X21825Y20678D1*
X21648Y20855D1*
X21508Y21061D1*
X21409Y21290D1*
X21354Y21534D1*
X21346Y21784D1*
X21385Y22030D1*
X21470Y22265D1*
X21597Y22480D1*
X21762Y22667D1*
X21959Y22820D1*
X22182Y22933D1*
X22421Y23003D1*
X22670Y23027D1*
X22918Y23003D1*
X23158Y22934D1*
X23381Y22820D1*
X23578Y22667D1*
X23582Y22859D1*
X23585Y29715D1*
X23450Y29602D1*
X23235Y29475D1*
X23000Y29391D1*
X22753Y29352D1*
X22504Y29359D1*
X22260Y29414D1*
X22031Y29513D1*
X21825Y29653D1*
X21648Y29830D1*
X21508Y30036D1*
X21409Y30265D1*
X21354Y30509D1*
X21346Y30759D1*
X21385Y31005D1*
X21470Y31240D1*
X21597Y31455D1*
X21762Y31642D1*
X21848Y31716D1*
X18768Y31715D1*
X18686Y31693D1*
X18641Y31644D1*
X18627Y31570D1*
X18628Y29925D1*
X18630Y28906D1*
X14352Y8039D2*
X14728D1*
Y7918D1*
X14788Y7900D1*
X14891Y7831D1*
X14964Y7730D1*
X15000Y7611D1*
X15003Y7568D1*
X14989Y7487D1*
X15147Y7485D1*
X15145Y8034D1*
X15067D1*
Y8977D1*
X15853Y8973D1*
X15940Y8977D1*
X16601D1*
Y8848D1*
X16635Y8838D1*
X16729Y8775D1*
X16740Y8942D1*
X16794Y9054D1*
X16883Y9141D1*
X16996Y9193D1*
X17120Y9204D1*
X17240Y9173D1*
X17269Y9153D1*
X18180Y9155D1*
X18235Y9330D1*
Y9561D1*
X18100Y9575D1*
X17877D1*
X17763Y9533D1*
X17639Y9529D1*
X17520Y9567D1*
X17422Y9643D1*
X17354Y9748D1*
X17326Y9869D1*
X17330Y9903D1*
X16830Y9905D1*
X16670Y9940D1*
Y9491D1*
X15470Y9495D1*
X15070Y9491D1*
X14946Y9504D1*
X14775Y9568D1*
X14695Y9600D1*
X13941D1*
X13950Y9505D1*
X13929Y9383D1*
X13868Y9274D1*
X13774Y9193D1*
X13658Y9148D1*
X13534Y9144D1*
X13406Y9189D1*
X11864Y9190D1*
X11742Y9215D1*
X11641Y9283D1*
X11086Y9838D1*
X11009Y9824D1*
X10928Y9833D1*
X10680Y9900D1*
X10638Y9770D1*
X10605Y9647D1*
X10545Y9537D1*
X10481Y9486D1*
X10263Y9360D1*
X10143Y9324D1*
X10062Y9333D1*
X9818Y9398D1*
X9708Y9458D1*
X9657Y9522D1*
X9590Y9632D1*
Y9504D1*
X9561Y9383D1*
X9512Y9317D1*
X9334Y9138D1*
X9228Y9073D1*
X9146Y9060D1*
X8894D1*
X8773Y9090D1*
X8706Y9138D1*
X8525Y9320D1*
X8424Y9228D1*
X8334Y9138D1*
X8228Y9073D1*
X8146Y9060D1*
X7889Y9061D1*
X7860Y9045D1*
Y7470D1*
X7840Y7347D1*
X7780Y7234D1*
X7746Y7195D1*
X7336Y6785D1*
X7235Y6712D1*
X7093Y6664D1*
X5697D1*
X5701Y7470D1*
X5697Y7889D1*
Y8070D1*
X7080D1*
Y9357D1*
X6979Y9333D1*
X6854Y9330D1*
X6777Y9360D1*
X6559Y9486D1*
X6469Y9572D1*
X6435Y9647D1*
X6370Y9895D1*
X6236Y9866D1*
X6113Y9833D1*
X5988Y9830D1*
X5911Y9860D1*
X5693Y9986D1*
X5603Y10072D1*
X5569Y10147D1*
X5504Y10391D1*
X5501Y10515D1*
X5530Y10592D1*
X5592Y10704D1*
X5481Y10641D1*
X5362Y10605D1*
X5280Y10614D1*
X5036Y10679D1*
X4927Y10739D1*
X4876Y10803D1*
X4749Y11022D1*
X4714Y11141D1*
X4723Y11223D1*
X4790Y11471D1*
X4660Y11512D1*
X4536Y11546D1*
X4427Y11605D1*
X4346Y11720D1*
X4325Y5254D1*
X4361Y4995D1*
X4455Y4775D1*
X4603Y4587D1*
X4794Y4444D1*
X5016Y4356D1*
X5283Y4325D1*
X8287D1*
X8131Y4398D1*
X7925Y4538D1*
X7748Y4715D1*
X7608Y4921D1*
X7509Y5150D1*
X7454Y5394D1*
X7446Y5644D1*
X7485Y5890D1*
X7570Y6125D1*
X7697Y6340D1*
X7862Y6527D1*
X8059Y6680D1*
X8282Y6793D1*
X8521Y6863D1*
X8770Y6887D1*
X9018Y6863D1*
X9258Y6794D1*
X9481Y6680D1*
X9678Y6527D1*
X9843Y6340D1*
X9970Y6125D1*
X10055Y5890D1*
X10094Y5644D1*
X10090Y5435D1*
X10044Y5190D1*
X9952Y4958D1*
X9818Y4747D1*
X9647Y4565D1*
X9445Y4419D1*
X9252Y4326D1*
X22185Y4325D1*
X22031Y4398D1*
X21825Y4538D1*
X21648Y4715D1*
X21508Y4921D1*
X21409Y5150D1*
X21354Y5394D1*
X21346Y5644D1*
X21359Y5756D1*
X21243Y5638D1*
X21139Y5569D1*
X21020Y5545D1*
X20250D1*
X20128Y5570D1*
X20027Y5638D1*
X19852Y5813D1*
X19723Y5820D1*
Y6199D1*
X18673Y5148D1*
X18569Y5079D1*
X18450Y5055D1*
X17360D1*
X17238Y5080D1*
X17137Y5148D1*
X16748Y5537D1*
X16228Y5535D1*
X16227Y5378D1*
X15809D1*
X15650Y5220D1*
X15546Y5151D1*
X15427Y5128D1*
X12335D1*
X12213Y5152D1*
X12112Y5220D1*
X11795Y5538D1*
X11797Y5461D1*
X10873D1*
Y5606D1*
X10840Y5617D1*
X10742Y5693D1*
X10674Y5798D1*
X10646Y5919D1*
X10660Y6042D1*
X10714Y6154D1*
X10803Y6241D1*
X10870Y6272D1*
X10877Y6424D1*
X10873Y6506D1*
Y7094D1*
X10979D1*
X11039Y7219D1*
X11128Y7306D1*
X11241Y7358D1*
X11365Y7369D1*
X11485Y7338D1*
X11588Y7268D1*
X11672Y7144D1*
X11748Y7094D1*
X11797D1*
Y6801D1*
X11998Y6600D1*
Y7112D1*
X12158D1*
X12155Y7370D1*
X12188Y7510D1*
X12234Y7584D1*
X12323Y7671D1*
X12436Y7723D1*
X12560Y7734D1*
X12680Y7703D1*
X12783Y7633D1*
X12857Y7533D1*
X12892Y7414D1*
X12895Y7370D1*
X12874Y7248D1*
X12813Y7139D1*
X12786Y7116D1*
X12922Y7112D1*
Y6616D1*
X13194Y6342D1*
X13192Y7227D1*
X13368D1*
X13537Y7393D1*
X13641Y7462D1*
X13760Y7485D1*
X13944D1*
X13942Y8003D1*
X13568Y8002D1*
Y8107D1*
X13415Y8150D1*
X13317Y8226D1*
X13249Y8331D1*
X13221Y8452D1*
X13235Y8575D1*
X13289Y8687D1*
X13378Y8774D1*
X13491Y8826D1*
X13565Y8833D1*
X13568Y8945D1*
X14354D1*
Y8038D1*
X16737Y8769D2*
X16726Y8819D1*
X16740Y8942D1*
X16794Y9054D1*
X16883Y9141D1*
X16996Y9193D1*
X17120Y9204D1*
X17240Y9173D1*
X17269Y9153D1*
X12843Y8378D2*
X12083Y7618D1*
X11979Y7549D1*
X11860Y7525D1*
X9247D1*
X9209Y7498D1*
X9093Y7453D1*
X8969Y7449D1*
X8850Y7487D1*
X8752Y7563D1*
X8684Y7668D1*
X8656Y7789D1*
X8670Y7912D1*
X8724Y8024D1*
X8813Y8111D1*
X8926Y8163D1*
X9050Y8174D1*
X9121Y8156D1*
X11734Y8155D1*
X12397Y8823D1*
X12454Y8944D1*
X12543Y9031D1*
X12656Y9083D1*
X12780Y9094D1*
X12900Y9063D1*
X13003Y8993D1*
X13077Y8893D1*
X13112Y8774D1*
X13115Y8730D1*
X13094Y8608D1*
X13033Y8499D1*
X12939Y8418D1*
X12848Y8383D1*
D21*
X7935Y21756D3*
Y19784D3*
Y20774D3*
D22*
X5228Y23654D3*
Y18874D3*
D21*
X7935Y22740D3*
D23*
X19960Y27290D3*
Y30490D3*
D24*
X15950Y20010D3*
D25*
X16950D3*
X15950Y19010D3*
X16950D3*
X15950Y18010D3*
X16950D3*
D24*
X12950Y20510D3*
D25*
X13950D3*
X12950Y19510D3*
X13950D3*
X12950Y18510D3*
X13950D3*
X12950Y17510D3*
X13950D3*
D24*
X18953Y20010D3*
D25*
X19953D3*
X20953D3*
X21953D3*
D24*
X18950Y19013D3*
D25*
X19950D3*
X20950D3*
X21950D3*
D24*
X18950Y18013D3*
D25*
X19950D3*
X20950D3*
X21950D3*
D24*
X11950Y20510D3*
D25*
Y19510D3*
Y18510D3*
D24*
X20064Y14092D3*
D25*
Y13092D3*
Y12092D3*
Y11092D3*
D24*
X19064Y14092D3*
D25*
Y13092D3*
Y12092D3*
Y11092D3*
D24*
X18061Y14089D3*
D25*
Y13089D3*
Y12089D3*
Y11089D3*
D26*
X23163Y7329D3*
D27*
Y8117D3*
Y8904D3*
Y9691D3*
X22375D3*
Y8904D3*
Y8117D3*
Y7329D3*
D28*
X7506Y13629D3*
X9520Y13630D3*
D30*
X14335Y7568D3*
X13587D3*
X13961Y8473D3*
X17335Y6755D3*
X18083D3*
X17709Y5850D3*
X17335Y8505D3*
X18083D3*
X17709Y7600D3*
X15460Y6755D3*
X16208D3*
X15834Y5850D3*
X13585Y6755D3*
X14333D3*
X13959Y5850D3*
X15460Y8505D3*
X16208D3*
X15834Y7600D3*
D32*
X20085Y6755D3*
Y6355D3*
Y6155D3*
Y6555D3*
X20485Y6155D3*
Y6355D3*
Y6555D3*
Y6755D3*
X20470Y9380D3*
Y9780D3*
Y9980D3*
Y9580D3*
X20070Y9980D3*
Y9780D3*
Y9580D3*
Y9380D3*
X20085Y8380D3*
Y7980D3*
Y7780D3*
Y8180D3*
X20485Y7780D3*
Y7980D3*
Y8180D3*
Y8380D3*
D31*
X12460Y6630D3*
Y5961D3*
X11335Y5943D3*
Y6612D3*
D33*
X21671Y13443D3*
Y14043D3*
D34*
X23071Y12153D3*
Y14733D3*
D33*
X21671Y12843D3*
X6395Y7067D3*
Y6467D3*
D34*
X4995Y8357D3*
Y5777D3*
D33*
X6395Y7667D3*
D35*
X12510Y22230D3*
X11310D3*
X11910D3*
D36*
X13800Y23627D3*
X10620D3*
D35*
X13110Y22230D3*
G36*
X8325Y9504D2*
X8146Y9325D1*
X7894D1*
X7715Y9504D1*
Y9757D1*
X7894Y9935D1*
X8146D1*
X8325Y9757D1*
Y9504D1*
G37*
G36*
X9325D2*
X9146Y9325D1*
X8894D1*
X8715Y9504D1*
Y9757D1*
X8894Y9935D1*
X9146D1*
X9325Y9757D1*
Y9504D1*
G37*
G36*
X12191Y15524D2*
X12435Y15459D1*
X12561Y15240D1*
X12496Y14996D1*
X12277Y14870D1*
X12033Y14935D1*
X11907Y15154D1*
X11972Y15398D1*
X12191Y15524D1*
G37*
G36*
X11691Y16390D2*
X11935Y16325D1*
X12061Y16106D1*
X11996Y15862D1*
X11777Y15736D1*
X11533Y15801D1*
X11407Y16020D1*
X11472Y16264D1*
X11691Y16390D1*
G37*
G36*
X10752Y17106D2*
X10996Y17172D1*
X11215Y17045D1*
X11280Y16801D1*
X11154Y16583D1*
X10910Y16517D1*
X10691Y16643D1*
X10626Y16887D1*
X10752Y17106D1*
G37*
G36*
X9886Y17606D2*
X10130Y17672D1*
X10349Y17545D1*
X10414Y17301D1*
X10288Y17083D1*
X10044Y17017D1*
X9825Y17143D1*
X9760Y17387D1*
X9886Y17606D1*
G37*
G36*
X10414Y9959D2*
X10349Y9715D1*
X10130Y9589D1*
X9886Y9654D1*
X9760Y9873D1*
X9825Y10117D1*
X10044Y10243D1*
X10288Y10178D1*
X10414Y9959D1*
G37*
G36*
X11280Y10459D2*
X11215Y10215D1*
X10996Y10089D1*
X10752Y10154D1*
X10626Y10373D1*
X10691Y10617D1*
X10910Y10743D1*
X11154Y10678D1*
X11280Y10459D1*
G37*
G36*
X4394Y13825D2*
X4215Y14004D1*
Y14257D1*
X4394Y14435D1*
X4646D1*
X4825Y14257D1*
Y14004D1*
X4646Y13825D1*
X4394D1*
G37*
G36*
Y12825D2*
X4215Y13004D1*
Y13257D1*
X4394Y13435D1*
X4646D1*
X4825Y13257D1*
Y13004D1*
X4646Y12825D1*
X4394D1*
G37*
G36*
X8715Y17757D2*
X8894Y17935D1*
X9146D1*
X9325Y17757D1*
Y17504D1*
X9146Y17325D1*
X8894D1*
X8715Y17504D1*
Y17757D1*
G37*
G36*
X7715D2*
X7894Y17935D1*
X8146D1*
X8325Y17757D1*
Y17504D1*
X8146Y17325D1*
X7894D1*
X7715Y17504D1*
Y17757D1*
G37*
G36*
X11996Y11398D2*
X12061Y11154D1*
X11935Y10935D1*
X11691Y10870D1*
X11472Y10996D1*
X11407Y11240D1*
X11533Y11459D1*
X11777Y11524D1*
X11996Y11398D1*
G37*
G36*
X12496Y12264D2*
X12561Y12020D1*
X12435Y11801D1*
X12191Y11736D1*
X11972Y11862D1*
X11907Y12106D1*
X12033Y12325D1*
X12277Y12390D1*
X12496Y12264D1*
G37*
G36*
X4849Y11736D2*
X4605Y11801D1*
X4479Y12020D1*
X4544Y12264D1*
X4763Y12390D1*
X5007Y12325D1*
X5133Y12106D1*
X5068Y11862D1*
X4849Y11736D1*
G37*
G36*
X5349Y10870D2*
X5105Y10935D1*
X4979Y11154D1*
X5044Y11398D1*
X5263Y11524D1*
X5507Y11459D1*
X5633Y11240D1*
X5568Y10996D1*
X5349Y10870D1*
G37*
G36*
X6626Y17301D2*
X6691Y17545D1*
X6910Y17672D1*
X7154Y17606D1*
X7280Y17387D1*
X7215Y17143D1*
X6996Y17017D1*
X6752Y17083D1*
X6626Y17301D1*
G37*
G36*
X5760Y16801D2*
X5825Y17045D1*
X6044Y17172D1*
X6288Y17106D1*
X6414Y16887D1*
X6349Y16643D1*
X6130Y16517D1*
X5886Y16583D1*
X5760Y16801D1*
G37*
G36*
X12646Y13435D2*
X12825Y13257D1*
Y13004D1*
X12646Y12825D1*
X12394D1*
X12215Y13004D1*
Y13257D1*
X12394Y13435D1*
X12646D1*
G37*
G36*
Y14435D2*
X12825Y14257D1*
Y14004D1*
X12646Y13825D1*
X12394D1*
X12215Y14004D1*
Y14257D1*
X12394Y14435D1*
X12646D1*
G37*
G36*
X6288Y10154D2*
X6044Y10089D1*
X5825Y10215D1*
X5760Y10459D1*
X5886Y10678D1*
X6130Y10743D1*
X6349Y10617D1*
X6414Y10373D1*
X6288Y10154D1*
G37*
G36*
X7154Y9654D2*
X6910Y9589D1*
X6691Y9715D1*
X6626Y9959D1*
X6752Y10178D1*
X6996Y10243D1*
X7215Y10117D1*
X7280Y9873D1*
X7154Y9654D1*
G37*
G36*
X5044Y15862D2*
X4979Y16106D1*
X5105Y16325D1*
X5349Y16390D1*
X5568Y16264D1*
X5633Y16020D1*
X5507Y15801D1*
X5263Y15736D1*
X5044Y15862D1*
G37*
G36*
X4544Y14996D2*
X4479Y15240D1*
X4605Y15459D1*
X4849Y15524D1*
X5068Y15398D1*
X5133Y15154D1*
X5007Y14935D1*
X4763Y14870D1*
X4544Y14996D1*
G37*
D24*
X15065Y15088D3*
D25*
X16065D3*
X15065Y14088D3*
X16065D3*
X15065Y13088D3*
X16065D3*
X15065Y12088D3*
X16065D3*
D24*
X16070Y10090D3*
D25*
X15070D3*
X16070Y11090D3*
X15070D3*
M02*
