G04 DipTrace 2.4.0.2*
%INTop.gbr*%
%MOIN*%
%ADD13C,0.0669*%
%ADD14C,0.05*%
%ADD16C,0.07*%
%ADD17C,0.025*%
%ADD18C,0.01*%
%ADD19C,0.02*%
%ADD24R,0.0669X0.0669*%
%ADD25C,0.0669*%
%ADD26R,0.0591X0.0591*%
%ADD27C,0.0591*%
%ADD28R,0.15X0.15*%
%ADD31R,0.0394X0.0433*%
%FSLAX44Y44*%
G04*
G70*
G90*
G75*
G01*
%LNTop*%
%LPD*%
X10206Y21756D2*
D14*
X10550Y22100D1*
X14660D1*
X15890Y20870D1*
Y20070D1*
X15950Y20010D1*
X9340Y20774D2*
Y21850D1*
X10300Y22810D1*
X15160D1*
X17630Y20340D1*
Y19690D1*
X16950Y19010D1*
X19064Y14092D2*
D13*
Y14996D1*
D16*
Y17899D1*
D13*
X18950Y18013D1*
Y18697D1*
D16*
Y20008D1*
D13*
X18953Y20010D1*
X19953D1*
X19950Y19326D1*
D16*
Y18013D1*
D13*
X18950D1*
D16*
X19466Y18529D1*
D13*
X19950Y19013D1*
D16*
X19437Y19526D1*
D13*
X18953Y20010D1*
X18950Y19013D2*
X19950D1*
X16485Y8505D2*
D18*
X16535D1*
X17300Y7740D1*
X18860D1*
X19120Y7480D1*
X20090D1*
X19460Y9680D2*
X18620Y8840D1*
X17090D1*
X13950Y19510D2*
X14280D1*
X15330Y18460D1*
Y17090D1*
X17540Y14880D1*
Y10040D1*
X17690Y9890D1*
X15065Y13088D2*
X15043D1*
X14530Y13600D1*
Y17640D1*
X14150Y18020D1*
X13770D1*
X13450Y18340D1*
Y19010D1*
X12950Y19510D1*
X19850Y7770D2*
X19150D1*
X19010Y7910D1*
X17690D1*
X16870Y8730D1*
Y8940D1*
X17110Y9180D1*
Y12043D1*
X16065Y13088D1*
X14638Y7568D2*
X18713D1*
X19020Y7260D1*
X20390D1*
X20900Y7770D1*
X7582Y12299D2*
D17*
X8207D1*
X8833D1*
X9458D1*
X7582D2*
Y13705D1*
X7506Y13629D1*
X9898Y12255D2*
X9502D1*
X9458Y12299D1*
X16870Y10640D2*
X16620D1*
X16070Y10090D1*
X7506Y18470D2*
X8140D1*
X10740Y21070D1*
X12390D1*
X12950Y20510D1*
X13950Y17510D2*
D19*
X12950D1*
X15070Y11090D2*
X14170D1*
Y8340D1*
X12835Y7005D1*
X11335D1*
X13950Y17510D2*
Y11330D1*
X14190Y11090D1*
X15070D1*
X19808Y7032D2*
D18*
X17458D1*
X17316Y7175D1*
X22375Y9691D2*
Y10025D1*
X21130Y11270D1*
X20242D1*
X20064Y11092D1*
D13*
Y11474D1*
D16*
X21170Y12580D1*
Y17232D1*
X21466Y17529D1*
D13*
X21950Y18013D1*
X18061Y11089D2*
D17*
Y9771D1*
X17560Y9270D1*
X20953Y20010D2*
D13*
X20950Y19326D1*
D16*
Y18013D1*
D13*
X21950D1*
Y18697D1*
D16*
Y20008D1*
D13*
X21953Y20010D1*
X20953D1*
D16*
X21466Y19497D1*
D13*
X21950Y19013D1*
D16*
X21434Y18497D1*
D13*
X20950Y18013D1*
Y19013D2*
X21950D1*
X20953Y20010D2*
Y20695D1*
D16*
Y28887D1*
X20528Y29312D1*
D19*
X20210Y29630D1*
X18950Y8660D2*
D18*
X20500D1*
X17320Y10950D2*
Y9170D1*
X17480Y9010D1*
X18410D1*
X19290Y9890D1*
X19620D1*
X19990Y9520D1*
Y9170D1*
X20500Y8660D1*
X13950Y18510D2*
X14380D1*
X14890Y18000D1*
Y16260D1*
X12530Y10280D2*
Y7370D1*
X21660Y7250D2*
X22296D1*
X22375Y7329D1*
X14655Y6755D2*
X16135D1*
X16760Y6130D1*
X21060D1*
X22259Y7329D1*
X22375D1*
X12950Y18510D2*
Y18500D1*
X12470Y18020D1*
Y17100D1*
X13370Y16200D1*
Y11430D1*
X11010Y9070D1*
Y5940D1*
X16505Y6755D2*
X17965D1*
X18410Y6310D1*
X20710D1*
X21430Y7030D1*
Y7850D1*
X21690Y8110D1*
X22369D1*
X22375Y8117D1*
X12910Y10290D2*
Y8890D1*
X12750Y8730D1*
X9020Y7810D2*
X7210D1*
X7080Y7680D1*
X9020Y9630D2*
D19*
G02X6953Y9916I-1001J376D01*
G01*
G02X5306Y11197I-657J855D01*
G01*
G02X4520Y13130I24J1136D01*
G01*
X9020Y9630D2*
G03X10953Y10416I872J626D01*
G01*
G03X12234Y12063I429J988D01*
G01*
G03X12520Y14130I-199J1081D01*
G01*
G03X11734Y16063I-611J878D01*
G01*
G03X10087Y17344I-1018J390D01*
G01*
G03X8020Y17630I-1083J-218D01*
G01*
G03X6087Y16844I-856J-666D01*
G01*
G03X4806Y15197I-343J-1055D01*
G01*
X13585Y8473D2*
D18*
Y9505D1*
X9458Y11630D2*
D17*
X8833D1*
X8207D1*
X7582D1*
X8020Y9630D2*
D19*
G03X6087Y10416I-1194J-167D01*
G01*
G03X4806Y12063I-1167J414D01*
G01*
G03X4520Y14130I-833J938D01*
G01*
G03X5306Y16063I-220J1216D01*
G01*
G03X6953Y17344I348J1252D01*
G01*
G03X9020Y17630I889J1189D01*
G01*
G03X10953Y16844I1302J433D01*
G01*
G03X12234Y15197I1476J-174D01*
G01*
G03X12520Y13130I1071J-905D01*
G01*
G03X11734Y11197I492J-1326D01*
G01*
G03X10087Y9916I-181J-1466D01*
G01*
X9458Y10546D1*
Y11630D1*
X18024Y5850D2*
D18*
X15171D1*
X14420Y6600D1*
Y8470D1*
X15550Y9600D1*
Y11603D1*
X15065Y12088D1*
X21170Y10540D2*
Y7160D1*
X20820Y6810D1*
X18409Y6755D2*
X20765D1*
X20820Y6810D1*
X20850Y10210D2*
Y8190D1*
X18415Y8505D2*
X18750Y8170D1*
X20850D1*
Y8190D1*
D14*
X10206Y21756D3*
X9340Y20774D3*
D19*
X16485Y8505D3*
X20090Y7480D3*
X19460Y9680D3*
X17090Y8840D3*
X17690Y9890D3*
X17090Y8840D3*
X19850Y7770D3*
X14638Y7568D3*
X20900Y7770D3*
X9898Y12255D3*
X16870Y10640D3*
X7506Y18470D3*
X11335Y7005D3*
X17316Y7175D3*
X19808Y7032D3*
X17560Y9270D3*
X18950Y8660D3*
X20500D3*
X17320Y10950D3*
X14890Y16260D3*
X12530Y10280D3*
Y7370D3*
X21660Y7250D3*
X14655Y6755D3*
X11010Y5940D3*
X16505Y6755D3*
X12910Y10290D3*
X12750Y8730D3*
X9020Y7810D3*
X7080Y7680D3*
X13585Y8473D3*
Y9505D3*
X18024Y5850D3*
X21170Y10540D3*
X20820Y6810D3*
X18409Y6755D3*
X20850Y10210D3*
Y8190D3*
X18415Y8505D3*
X18710Y31630D3*
X19210D3*
X19710D3*
X20210D3*
X20710D3*
X21210D3*
Y31130D3*
X20710D3*
X20210D3*
X19710D3*
X19210D3*
X18710D3*
Y30630D3*
X19210D3*
X19710D3*
X20210D3*
X20710D3*
X21210D3*
Y30130D3*
X20710D3*
X20210D3*
X19710D3*
X19210D3*
X18710D3*
Y29630D3*
X19210D3*
X19710D3*
X20210D3*
X20710D3*
X21210D3*
X4710Y10630D3*
Y9630D3*
X5710Y8630D3*
X6710D3*
X5710Y5630D3*
X6710D3*
X5710Y4630D3*
X6710D3*
X10710Y8630D3*
X9710D3*
Y6630D3*
X10710D3*
X9710Y4630D3*
X10710D3*
X11710D3*
X12710D3*
X13710D3*
X14710D3*
X15710D3*
X16710D3*
X17710D3*
X18710D3*
X19710D3*
X20710D3*
X18210Y9630D3*
X17710D3*
X17960Y9255D3*
X22710Y12630D3*
Y13630D3*
Y14630D3*
Y15630D3*
Y16630D3*
Y17630D3*
X21710Y16630D3*
X20710D3*
X19710D3*
X21710Y15630D3*
X20710D3*
X19710D3*
X17710Y16630D3*
Y15630D3*
X16710Y16630D3*
X17710Y18630D3*
Y21630D3*
Y22630D3*
Y23630D3*
X16710D3*
Y22630D3*
X9710Y23630D3*
X8710D3*
X7710D3*
X4710Y22630D3*
X5710D3*
Y21630D3*
X4710D3*
Y19630D3*
X5710D3*
Y20630D3*
X4710D3*
Y17630D3*
X5710D3*
X6710Y23630D3*
X18649Y31467D2*
D17*
X21579D1*
X18649Y31218D2*
X21435D1*
X18653Y30969D2*
X21353D1*
X18653Y30721D2*
X21318D1*
X18653Y30472D2*
X21333D1*
X18653Y30223D2*
X21400D1*
X18653Y29974D2*
X21521D1*
X18653Y29726D2*
X21720D1*
X18653Y29477D2*
X22075D1*
X23262D2*
X23560D1*
X18653Y29228D2*
X23560D1*
X18653Y28980D2*
X23560D1*
X18657Y28731D2*
X23560D1*
X18657Y28482D2*
X23560D1*
X18657Y28234D2*
X23560D1*
X18657Y27985D2*
X23560D1*
X18657Y27736D2*
X23560D1*
X18657Y27488D2*
X23560D1*
X18657Y27239D2*
X23560D1*
X18657Y26990D2*
X23560D1*
X18661Y26742D2*
X23560D1*
X18661Y26493D2*
X23560D1*
X18661Y26244D2*
X23560D1*
X18649Y25995D2*
X23560D1*
X18614Y25747D2*
X23560D1*
X18532Y25498D2*
X23560D1*
X18415Y25249D2*
X23556D1*
X18235Y25001D2*
X23556D1*
X17958Y24752D2*
X23556D1*
X17446Y24503D2*
X23556D1*
X4762Y24255D2*
X23556D1*
X4528Y24006D2*
X23556D1*
X4426Y23757D2*
X23556D1*
X4411Y23509D2*
X23556D1*
X4411Y23260D2*
X10025D1*
X15434D2*
X23556D1*
X4407Y23011D2*
X9747D1*
X15711D2*
X22443D1*
X22895D2*
X23556D1*
X4407Y22763D2*
X9497D1*
X15961D2*
X21853D1*
X4407Y22514D2*
X9251D1*
X16211D2*
X21599D1*
X4407Y22265D2*
X9001D1*
X16458D2*
X21447D1*
X4407Y22016D2*
X8829D1*
X16708D2*
X21357D1*
X4403Y21768D2*
X8802D1*
X16958D2*
X21322D1*
X4403Y21519D2*
X8802D1*
X17204D2*
X21329D1*
X4403Y21270D2*
X8802D1*
X17454D2*
X21392D1*
X4403Y21022D2*
X8802D1*
X17704D2*
X21505D1*
X4399Y20773D2*
X8802D1*
X17950D2*
X21697D1*
X4399Y20524D2*
X8865D1*
X18137D2*
X18329D1*
X20286D2*
X22033D1*
X23309D2*
X23556D1*
X4399Y20276D2*
X9185D1*
X18168D2*
X18329D1*
X20516D2*
X23556D1*
X4399Y20027D2*
X9118D1*
X18168D2*
X18310D1*
X20579D2*
X23556D1*
X4399Y19778D2*
X8872D1*
X18168D2*
X18310D1*
X20575D2*
X23556D1*
X4395Y19530D2*
X8622D1*
X18145D2*
X18310D1*
X20575D2*
X23556D1*
X4395Y19281D2*
X8372D1*
X17973D2*
X18310D1*
X20590D2*
X23556D1*
X4395Y19032D2*
X8126D1*
X17723D2*
X18310D1*
X20590D2*
X23556D1*
X4395Y18784D2*
X7247D1*
X17532D2*
X18310D1*
X20590D2*
X23556D1*
X4395Y18535D2*
X7095D1*
X17340D2*
X18325D1*
X20590D2*
X23556D1*
X4391Y18286D2*
X6548D1*
X17508D2*
X18325D1*
X20590D2*
X23556D1*
X4391Y18037D2*
X6169D1*
X17575D2*
X18310D1*
X20590D2*
X23556D1*
X4391Y17789D2*
X5950D1*
X17532D2*
X18325D1*
X20547D2*
X23556D1*
X4391Y17540D2*
X5810D1*
X16348D2*
X16552D1*
X17348D2*
X18325D1*
X20368D2*
X23556D1*
X4391Y17291D2*
X5697D1*
X15668D2*
X18423D1*
X19704D2*
X23556D1*
X4387Y17043D2*
X4947D1*
X15848D2*
X18423D1*
X19704D2*
X23556D1*
X4387Y16794D2*
X4642D1*
X16098D2*
X18423D1*
X19704D2*
X23556D1*
X16344Y16545D2*
X18423D1*
X19704D2*
X23556D1*
X16594Y16297D2*
X18423D1*
X19704D2*
X23556D1*
X16844Y16048D2*
X18423D1*
X19704D2*
X23556D1*
X17090Y15799D2*
X18423D1*
X19704D2*
X23556D1*
X17340Y15551D2*
X18423D1*
X19704D2*
X23556D1*
X17590Y15302D2*
X18423D1*
X19704D2*
X23552D1*
X17829Y15053D2*
X18423D1*
X19704D2*
X23552D1*
X17879Y14805D2*
X18439D1*
X19688D2*
X23552D1*
X20688Y14556D2*
X23552D1*
X20688Y14307D2*
X23552D1*
X20688Y14058D2*
X23552D1*
X20688Y13810D2*
X23552D1*
X20688Y13561D2*
X23552D1*
X20645Y13312D2*
X23552D1*
X20688Y13064D2*
X23552D1*
X20622Y12815D2*
X23552D1*
X18379Y12566D2*
X18751D1*
X19375D2*
X19751D1*
X20375D2*
X23552D1*
X17879Y12318D2*
X23552D1*
X17879Y12069D2*
X23552D1*
X17879Y11820D2*
X23552D1*
X17879Y11572D2*
X23552D1*
X17879Y11323D2*
X23552D1*
X17879Y11074D2*
X23552D1*
X4368Y10826D2*
X4829D1*
X17879D2*
X20919D1*
X21422D2*
X23552D1*
X4368Y10577D2*
X4841D1*
X17879D2*
X20783D1*
X21559D2*
X23552D1*
X4368Y10328D2*
X4900D1*
X17879D2*
X20478D1*
X21508D2*
X23552D1*
X4368Y10079D2*
X5005D1*
X18028D2*
X19009D1*
X19903D2*
X20486D1*
X21508D2*
X22736D1*
X4364Y9831D2*
X5181D1*
X18075D2*
X18759D1*
X20149D2*
X20509D1*
X21508D2*
X22595D1*
X4364Y9582D2*
X5458D1*
X17911D2*
X18513D1*
X20325D2*
X20509D1*
X21508D2*
X22587D1*
X4364Y9333D2*
X6181D1*
X6410D2*
X6728D1*
X17661D2*
X18263D1*
X20329D2*
X20509D1*
X21508D2*
X21990D1*
X4364Y9085D2*
X6896D1*
X21508D2*
X21822D1*
X4360Y8836D2*
X7165D1*
X8872D2*
X9642D1*
X10133D2*
X10669D1*
X21508D2*
X21794D1*
X4360Y8587D2*
X7802D1*
X8239D2*
X10669D1*
X21508D2*
X21888D1*
X4360Y8339D2*
X10669D1*
X4360Y8090D2*
X7040D1*
X9278D2*
X10669D1*
X4360Y7841D2*
X6728D1*
X9407D2*
X10669D1*
X4356Y7593D2*
X6700D1*
X9336D2*
X10669D1*
X4356Y7344D2*
X6915D1*
X7247D2*
X10669D1*
X13715D2*
X14079D1*
X4356Y7095D2*
X10669D1*
X13465D2*
X14079D1*
X4356Y6847D2*
X8423D1*
X9118D2*
X10669D1*
X13215D2*
X14079D1*
X4356Y6598D2*
X7919D1*
X9622D2*
X10669D1*
X11348D2*
X14079D1*
X4352Y6349D2*
X7677D1*
X9860D2*
X10669D1*
X11348D2*
X14200D1*
X4352Y6100D2*
X7533D1*
X10004D2*
X10658D1*
X11364D2*
X14450D1*
X4352Y5852D2*
X7450D1*
X10090D2*
X10630D1*
X11387D2*
X14697D1*
X4352Y5603D2*
X7419D1*
X10122D2*
X10845D1*
X11176D2*
X14950D1*
X18317D2*
X21318D1*
X4352Y5354D2*
X7435D1*
X10106D2*
X21333D1*
X4372Y5106D2*
X7497D1*
X10040D2*
X21400D1*
X4446Y4857D2*
X7622D1*
X9918D2*
X21521D1*
X4610Y4608D2*
X7822D1*
X9719D2*
X21720D1*
X5032Y4360D2*
X8181D1*
X9360D2*
X22083D1*
X17528Y18860D2*
X17498Y18767D1*
X17436Y18659D1*
X17353Y18566D1*
X17281Y18513D1*
X17340Y18466D1*
X17426Y18375D1*
X17491Y18269D1*
X17533Y18152D1*
X17550Y18010D1*
X17537Y17886D1*
X17498Y17767D1*
X17436Y17659D1*
X17353Y17566D1*
X17252Y17492D1*
X17139Y17441D1*
X17017Y17414D1*
X16892Y17413D1*
X16770Y17438D1*
X16655Y17488D1*
X16554Y17560D1*
X16451Y17682D1*
X16353Y17566D1*
X16252Y17492D1*
X16139Y17441D1*
X16017Y17414D1*
X15892Y17413D1*
X15770Y17438D1*
X15646Y17495D1*
X15645Y17222D1*
X17763Y15103D1*
X17832Y15000D1*
X17855Y14880D1*
Y14689D1*
X18468Y14691D1*
X18464Y14861D1*
X18449Y14996D1*
Y17414D1*
X18351Y17413D1*
Y17878D1*
X18340Y17939D1*
X18337Y18064D1*
X18351Y18163D1*
Y18564D1*
X18335Y18697D1*
Y20008D1*
X18353Y20161D1*
Y20610D1*
X18860Y20616D1*
X18984Y20622D1*
X19078Y20610D1*
X19953D1*
X20077Y20597D1*
X20196Y20559D1*
X20304Y20496D1*
X20397Y20413D1*
X20471Y20313D1*
X20522Y20199D1*
X20552Y20028D1*
X20550Y19457D1*
X20565Y19326D1*
Y18013D1*
X20553Y17889D1*
X20515Y17770D1*
X20455Y17661D1*
X20373Y17566D1*
X20274Y17490D1*
X20162Y17435D1*
X20041Y17404D1*
X19916Y17399D1*
X19828Y17413D1*
X19681D1*
X19679Y15899D1*
Y14996D1*
X19663Y14861D1*
Y14688D1*
X20089Y14691D1*
X20663D1*
Y13492D1*
X20511D1*
X20605Y13351D1*
X20647Y13233D1*
X20663Y13092D1*
X20650Y12968D1*
X20612Y12849D1*
X20550Y12741D1*
X20467Y12648D1*
X20366Y12574D1*
X20252Y12523D1*
X20131Y12496D1*
X20006Y12495D1*
X19884Y12520D1*
X19769Y12570D1*
X19667Y12642D1*
X19565Y12764D1*
X19467Y12648D1*
X19366Y12574D1*
X19252Y12523D1*
X19130Y12496D1*
X19006Y12495D1*
X18883Y12520D1*
X18769Y12570D1*
X18667Y12642D1*
X18565Y12764D1*
X18464Y12645D1*
X18363Y12571D1*
X18250Y12520D1*
X18128Y12493D1*
X18003Y12492D1*
X17856Y12528D1*
X17855Y10212D1*
X17943Y10153D1*
X18017Y10053D1*
X18052Y9934D1*
X18055Y9890D1*
X18034Y9768D1*
X17973Y9659D1*
X17879Y9578D1*
X17763Y9533D1*
X17635Y9530D1*
Y9321D1*
X18281Y9325D1*
X19067Y10113D1*
X19171Y10182D1*
X19290Y10205D1*
X19620D1*
X19742Y10181D1*
X19843Y10113D1*
X20213Y9743D1*
X20282Y9640D1*
X20305Y9520D1*
Y9298D1*
X20536Y9070D1*
X20535Y10022D1*
X20514Y10068D1*
X20486Y10189D1*
X20500Y10312D1*
X20554Y10424D1*
X20643Y10511D1*
X20756Y10563D1*
X20806Y10567D1*
X20820Y10642D1*
X20874Y10754D1*
X20963Y10841D1*
X21076Y10893D1*
X21200Y10904D1*
X21320Y10873D1*
X21423Y10803D1*
X21497Y10703D1*
X21532Y10584D1*
X21535Y10540D1*
X21514Y10418D1*
X21485Y10367D1*
Y8349D1*
X21571Y8402D1*
X21690Y8425D1*
X21905D1*
X21981Y8510D1*
X21942Y8548D1*
X21874Y8653D1*
X21831Y8770D1*
X21815Y8894D1*
X21827Y9018D1*
X21866Y9137D1*
X21930Y9244D1*
X22016Y9334D1*
X22120Y9403D1*
X22237Y9447D1*
X22360Y9464D1*
X22484Y9454D1*
X22603Y9416D1*
X22737Y9329D1*
X22662Y9440D1*
X22619Y9558D1*
X22603Y9681D1*
X22614Y9805D1*
X22653Y9924D1*
X22717Y10031D1*
X22803Y10121D1*
X22907Y10190D1*
X23024Y10234D1*
X23148Y10251D1*
X23272Y10241D1*
X23391Y10203D1*
X23498Y10140D1*
X23575Y10068D1*
X23578Y13109D1*
X23581Y20738D1*
X23450Y20627D1*
X23235Y20500D1*
X23000Y20416D1*
X22753Y20377D1*
X22504Y20384D1*
X22260Y20439D1*
X22031Y20538D1*
X21825Y20678D1*
X21648Y20855D1*
X21508Y21061D1*
X21409Y21290D1*
X21354Y21534D1*
X21346Y21784D1*
X21385Y22030D1*
X21470Y22265D1*
X21597Y22480D1*
X21762Y22667D1*
X21959Y22820D1*
X22182Y22933D1*
X22421Y23003D1*
X22670Y23027D1*
X22918Y23003D1*
X23158Y22934D1*
X23381Y22820D1*
X23578Y22667D1*
X23582Y22859D1*
X23585Y29715D1*
X23450Y29602D1*
X23235Y29475D1*
X23000Y29391D1*
X22753Y29352D1*
X22504Y29359D1*
X22260Y29414D1*
X22031Y29513D1*
X21825Y29653D1*
X21648Y29830D1*
X21508Y30036D1*
X21409Y30265D1*
X21354Y30509D1*
X21346Y30759D1*
X21385Y31005D1*
X21470Y31240D1*
X21597Y31455D1*
X21762Y31642D1*
X21848Y31716D1*
X18768Y31715D1*
X18686Y31693D1*
X18641Y31644D1*
X18627Y31570D1*
X18628Y29925D1*
X18634Y26054D1*
X18574Y25665D1*
X18419Y25289D1*
X18178Y24962D1*
X17867Y24701D1*
X17502Y24522D1*
X17110Y24435D1*
X5247Y24405D1*
X5011Y24381D1*
X4839Y24321D1*
X4744Y24259D1*
X4519Y24034D1*
X4446Y23907D1*
X4400Y23749D1*
X4385Y23415D1*
X4362Y16302D1*
X4439Y16475D1*
X4538Y16637D1*
X4657Y16785D1*
X4794Y16916D1*
X4946Y17029D1*
X5112Y17121D1*
X5289Y17191D1*
X5473Y17238D1*
X5670Y17261D1*
X5757Y17312D1*
X5834Y17538D1*
X5932Y17725D1*
X6041Y17878D1*
X6168Y18016D1*
X6312Y18136D1*
X6471Y18236D1*
X6641Y18315D1*
X6820Y18371D1*
X7004Y18404D1*
X7120Y18411D1*
X7116Y18483D1*
X7140Y18605D1*
X7201Y18713D1*
X7293Y18797D1*
X7407Y18847D1*
X7506Y18860D1*
X7979D1*
X9381Y20262D1*
X9274Y20263D1*
X9153Y20294D1*
X9043Y20353D1*
X8951Y20437D1*
X8881Y20540D1*
X8838Y20657D1*
X8825Y20774D1*
Y21850D1*
X8840Y21974D1*
X8885Y22091D1*
X8976Y22214D1*
X9936Y23174D1*
X10034Y23251D1*
X10148Y23302D1*
X10300Y23325D1*
X15160D1*
X15284Y23310D1*
X15400Y23266D1*
X15524Y23174D1*
X17994Y20704D1*
X18071Y20606D1*
X18122Y20492D1*
X18145Y20340D1*
Y19690D1*
X18130Y19567D1*
X18086Y19450D1*
X17994Y19326D1*
X17533Y18865D1*
X4858Y10833D2*
X4801Y10931D1*
X4712Y10966D1*
X4540Y11057D1*
X4383Y11169D1*
X4344Y11204D1*
X4325Y5254D1*
X4361Y4995D1*
X4455Y4775D1*
X4603Y4587D1*
X4794Y4444D1*
X5016Y4356D1*
X5283Y4325D1*
X8287D1*
X8131Y4398D1*
X7925Y4538D1*
X7748Y4715D1*
X7608Y4921D1*
X7509Y5150D1*
X7454Y5394D1*
X7446Y5644D1*
X7485Y5890D1*
X7570Y6125D1*
X7697Y6340D1*
X7862Y6527D1*
X8059Y6680D1*
X8282Y6793D1*
X8521Y6863D1*
X8770Y6887D1*
X9018Y6863D1*
X9258Y6794D1*
X9481Y6680D1*
X9678Y6527D1*
X9843Y6340D1*
X9970Y6125D1*
X10055Y5890D1*
X10094Y5644D1*
X10090Y5435D1*
X10044Y5190D1*
X9952Y4958D1*
X9818Y4747D1*
X9647Y4565D1*
X9445Y4419D1*
X9252Y4326D1*
X22185Y4325D1*
X22031Y4398D1*
X21825Y4538D1*
X21648Y4715D1*
X21508Y4921D1*
X21409Y5150D1*
X21354Y5394D1*
X21346Y5644D1*
X21385Y5890D1*
X21447Y6071D1*
X21283Y5908D1*
X21179Y5839D1*
X21060Y5815D1*
X18384D1*
X18368Y5727D1*
X18307Y5619D1*
X18213Y5537D1*
X18097Y5492D1*
X17973Y5488D1*
X17845Y5534D1*
X15171Y5535D1*
X15049Y5559D1*
X14948Y5627D1*
X14197Y6378D1*
X14129Y6481D1*
X14105Y6600D1*
Y7760D1*
X13093Y6747D1*
X12991Y6676D1*
X12857Y6641D1*
X11331D1*
X11325Y6445D1*
Y6121D1*
X11372Y5984D1*
X11375Y5940D1*
X11354Y5818D1*
X11293Y5709D1*
X11199Y5628D1*
X11083Y5583D1*
X10959Y5579D1*
X10840Y5617D1*
X10742Y5693D1*
X10674Y5798D1*
X10646Y5919D1*
X10660Y6042D1*
X10695Y6116D1*
Y9066D1*
X10584Y8996D1*
X10411Y8915D1*
X10228Y8858D1*
X10039Y8826D1*
X9847Y8819D1*
X9656Y8838D1*
X9470Y8882D1*
X9291Y8950D1*
X9096Y9061D1*
X8959Y8924D1*
X8812Y8812D1*
X8653Y8720D1*
X8483Y8650D1*
X8305Y8601D1*
X8123Y8576D1*
X7939Y8575D1*
X7756Y8597D1*
X7577Y8642D1*
X7406Y8710D1*
X7245Y8799D1*
X7097Y8908D1*
X6964Y9035D1*
X6848Y9178D1*
X6752Y9335D1*
X6724Y9391D1*
X6502Y9344D1*
X6280Y9328D1*
X6079Y9345D1*
X5894Y9386D1*
X5715Y9451D1*
X5547Y9539D1*
X5392Y9648D1*
X5252Y9776D1*
X5131Y9922D1*
X5029Y10082D1*
X4950Y10254D1*
X4894Y10435D1*
X4862Y10622D1*
X4856Y10838D1*
X8836Y7495D2*
X7391D1*
X7363Y7449D1*
X7269Y7368D1*
X7153Y7323D1*
X7029Y7319D1*
X6910Y7357D1*
X6812Y7433D1*
X6744Y7538D1*
X6716Y7659D1*
X6730Y7782D1*
X6784Y7894D1*
X6873Y7981D1*
X6993Y8038D1*
X7098Y8105D1*
X7210Y8125D1*
X8839D1*
X8926Y8163D1*
X9050Y8174D1*
X9170Y8143D1*
X9273Y8073D1*
X9347Y7973D1*
X9382Y7854D1*
X9385Y7810D1*
X9364Y7688D1*
X9303Y7579D1*
X9209Y7498D1*
X9093Y7453D1*
X8969Y7449D1*
X8841Y7494D1*
D24*
X15950Y20010D3*
D25*
X16950D3*
X15950Y19010D3*
X16950D3*
X15950Y18010D3*
X16950D3*
D24*
X12950Y20510D3*
D25*
X13950D3*
X12950Y19510D3*
X13950D3*
X12950Y18510D3*
X13950D3*
X12950Y17510D3*
X13950D3*
D24*
X18953Y20010D3*
D25*
X19953D3*
X20953D3*
X21953D3*
D24*
X18950Y19013D3*
D25*
X19950D3*
X20950D3*
X21950D3*
D24*
X18950Y18013D3*
D25*
X19950D3*
X20950D3*
X21950D3*
D24*
X11950Y20510D3*
D25*
Y19510D3*
Y18510D3*
D24*
X20064Y14092D3*
D25*
Y13092D3*
Y12092D3*
Y11092D3*
D24*
X19064Y14092D3*
D25*
Y13092D3*
Y12092D3*
Y11092D3*
D24*
X18061Y14089D3*
D25*
Y13089D3*
Y12089D3*
Y11089D3*
D26*
X23163Y7329D3*
D27*
Y8117D3*
Y8904D3*
Y9691D3*
X22375D3*
Y8904D3*
Y8117D3*
Y7329D3*
D28*
X7506Y13629D3*
X9520Y13630D3*
D31*
X9458Y11630D3*
Y12299D3*
X8833Y11630D3*
Y12299D3*
X7582Y11630D3*
Y12299D3*
X8207Y11630D3*
Y12299D3*
G36*
X8325Y9504D2*
X8146Y9325D1*
X7894D1*
X7715Y9504D1*
Y9757D1*
X7894Y9935D1*
X8146D1*
X8325Y9757D1*
Y9504D1*
G37*
G36*
X9325D2*
X9146Y9325D1*
X8894D1*
X8715Y9504D1*
Y9757D1*
X8894Y9935D1*
X9146D1*
X9325Y9757D1*
Y9504D1*
G37*
G36*
X12191Y15524D2*
X12435Y15459D1*
X12561Y15240D1*
X12496Y14996D1*
X12277Y14870D1*
X12033Y14935D1*
X11907Y15154D1*
X11972Y15398D1*
X12191Y15524D1*
G37*
G36*
X11691Y16390D2*
X11935Y16325D1*
X12061Y16106D1*
X11996Y15862D1*
X11777Y15736D1*
X11533Y15801D1*
X11407Y16020D1*
X11472Y16264D1*
X11691Y16390D1*
G37*
G36*
X10752Y17106D2*
X10996Y17172D1*
X11215Y17045D1*
X11280Y16801D1*
X11154Y16583D1*
X10910Y16517D1*
X10691Y16643D1*
X10626Y16887D1*
X10752Y17106D1*
G37*
G36*
X9886Y17606D2*
X10130Y17672D1*
X10349Y17545D1*
X10414Y17301D1*
X10288Y17083D1*
X10044Y17017D1*
X9825Y17143D1*
X9760Y17387D1*
X9886Y17606D1*
G37*
G36*
X10414Y9959D2*
X10349Y9715D1*
X10130Y9589D1*
X9886Y9654D1*
X9760Y9873D1*
X9825Y10117D1*
X10044Y10243D1*
X10288Y10178D1*
X10414Y9959D1*
G37*
G36*
X11280Y10459D2*
X11215Y10215D1*
X10996Y10089D1*
X10752Y10154D1*
X10626Y10373D1*
X10691Y10617D1*
X10910Y10743D1*
X11154Y10678D1*
X11280Y10459D1*
G37*
G36*
X4394Y13825D2*
X4215Y14004D1*
Y14257D1*
X4394Y14435D1*
X4646D1*
X4825Y14257D1*
Y14004D1*
X4646Y13825D1*
X4394D1*
G37*
G36*
Y12825D2*
X4215Y13004D1*
Y13257D1*
X4394Y13435D1*
X4646D1*
X4825Y13257D1*
Y13004D1*
X4646Y12825D1*
X4394D1*
G37*
G36*
X8715Y17757D2*
X8894Y17935D1*
X9146D1*
X9325Y17757D1*
Y17504D1*
X9146Y17325D1*
X8894D1*
X8715Y17504D1*
Y17757D1*
G37*
G36*
X7715D2*
X7894Y17935D1*
X8146D1*
X8325Y17757D1*
Y17504D1*
X8146Y17325D1*
X7894D1*
X7715Y17504D1*
Y17757D1*
G37*
G36*
X11996Y11398D2*
X12061Y11154D1*
X11935Y10935D1*
X11691Y10870D1*
X11472Y10996D1*
X11407Y11240D1*
X11533Y11459D1*
X11777Y11524D1*
X11996Y11398D1*
G37*
G36*
X12496Y12264D2*
X12561Y12020D1*
X12435Y11801D1*
X12191Y11736D1*
X11972Y11862D1*
X11907Y12106D1*
X12033Y12325D1*
X12277Y12390D1*
X12496Y12264D1*
G37*
G36*
X4849Y11736D2*
X4605Y11801D1*
X4479Y12020D1*
X4544Y12264D1*
X4763Y12390D1*
X5007Y12325D1*
X5133Y12106D1*
X5068Y11862D1*
X4849Y11736D1*
G37*
G36*
X5349Y10870D2*
X5105Y10935D1*
X4979Y11154D1*
X5044Y11398D1*
X5263Y11524D1*
X5507Y11459D1*
X5633Y11240D1*
X5568Y10996D1*
X5349Y10870D1*
G37*
G36*
X6626Y17301D2*
X6691Y17545D1*
X6910Y17672D1*
X7154Y17606D1*
X7280Y17387D1*
X7215Y17143D1*
X6996Y17017D1*
X6752Y17083D1*
X6626Y17301D1*
G37*
G36*
X5760Y16801D2*
X5825Y17045D1*
X6044Y17172D1*
X6288Y17106D1*
X6414Y16887D1*
X6349Y16643D1*
X6130Y16517D1*
X5886Y16583D1*
X5760Y16801D1*
G37*
G36*
X12646Y13435D2*
X12825Y13257D1*
Y13004D1*
X12646Y12825D1*
X12394D1*
X12215Y13004D1*
Y13257D1*
X12394Y13435D1*
X12646D1*
G37*
G36*
Y14435D2*
X12825Y14257D1*
Y14004D1*
X12646Y13825D1*
X12394D1*
X12215Y14004D1*
Y14257D1*
X12394Y14435D1*
X12646D1*
G37*
G36*
X6288Y10154D2*
X6044Y10089D1*
X5825Y10215D1*
X5760Y10459D1*
X5886Y10678D1*
X6130Y10743D1*
X6349Y10617D1*
X6414Y10373D1*
X6288Y10154D1*
G37*
G36*
X7154Y9654D2*
X6910Y9589D1*
X6691Y9715D1*
X6626Y9959D1*
X6752Y10178D1*
X6996Y10243D1*
X7215Y10117D1*
X7280Y9873D1*
X7154Y9654D1*
G37*
G36*
X5044Y15862D2*
X4979Y16106D1*
X5105Y16325D1*
X5349Y16390D1*
X5568Y16264D1*
X5633Y16020D1*
X5507Y15801D1*
X5263Y15736D1*
X5044Y15862D1*
G37*
G36*
X4544Y14996D2*
X4479Y15240D1*
X4605Y15459D1*
X4849Y15524D1*
X5068Y15398D1*
X5133Y15154D1*
X5007Y14935D1*
X4763Y14870D1*
X4544Y14996D1*
G37*
D24*
X15065Y15088D3*
D25*
X16065D3*
X15065Y14088D3*
X16065D3*
X15065Y13088D3*
X16065D3*
X15065Y12088D3*
X16065D3*
D24*
X16070Y10090D3*
D25*
X15070D3*
X16070Y11090D3*
X15070D3*
M02*
