G04 DipTrace 2.4.0.2*
%INTopSilk.gbr*%
%MOIN*%
%ADD10C,0.0098*%
%ADD11C,0.006*%
%ADD13C,0.01*%
%ADD17C,0.0079*%
%ADD23C,0.025*%
%ADD36C,0.0094*%
%ADD45C,0.0154*%
%ADD62C,0.018*%
%ADD63C,0.005*%
%ADD70O,0.0144X0.0154*%
%ADD172C,0.0077*%
%FSLAX44Y44*%
G04*
G70*
G90*
G75*
G01*
%LNTopSilk*%
%LPD*%
X29953Y7521D2*
D10*
Y7272D1*
X34033D1*
Y7462D1*
Y8462D2*
Y9642D1*
X33403Y9649D2*
X34033D1*
X29953Y8462D2*
Y9642D1*
Y9649D2*
X30583D1*
X35277Y12952D2*
X35280Y13202D1*
X28900D1*
X28903D2*
Y13014D1*
Y12014D2*
Y11764D1*
X29527D2*
X28903D1*
X35277Y12014D2*
Y11764D1*
X34653D1*
X23532Y28917D2*
Y28406D1*
X31395Y25679D2*
X30765D1*
X31395Y25605D2*
X30765D1*
X31395D2*
Y25841D1*
X30765Y25605D2*
Y25841D1*
X28954Y27657D2*
Y27146D1*
X18418Y6029D2*
Y7014D1*
X18343Y6029D2*
Y7014D1*
Y6029D2*
X18579D1*
X18343Y7014D2*
X18579D1*
X32345Y25689D2*
X31715D1*
X32345Y25615D2*
X31715D1*
X32345D2*
Y25851D1*
X31715Y25615D2*
Y25851D1*
X34412Y26736D2*
Y26107D1*
X34487Y26736D2*
Y26107D1*
Y26736D2*
X34251D1*
X34487Y26107D2*
X34251D1*
X30216Y28786D2*
Y29297D1*
X23532Y28157D2*
Y27646D1*
X27376Y26466D2*
Y26977D1*
X13660Y34402D2*
X15660D1*
Y37402D1*
X13660D1*
Y34402D1*
X16660Y33902D2*
X18660D1*
Y37902D1*
X16660D1*
Y33902D1*
X12660Y36401D2*
X8660D1*
Y37402D1*
X12660D1*
Y36401D1*
Y35391D2*
X8660D1*
Y36392D1*
X12660D1*
Y35391D1*
Y34391D2*
X8660D1*
Y35392D1*
X12660D1*
Y34391D1*
X31092Y30545D2*
X30462D1*
X31092Y31018D2*
X30462D1*
D36*
X31462Y30782D3*
X22902Y29235D2*
D10*
X22272D1*
X22902Y29708D2*
X22272D1*
D36*
X23272Y29472D3*
X25508Y28528D2*
D10*
X26138D1*
X25508Y28055D2*
X26138D1*
D36*
X25138Y28292D3*
X26643Y17223D2*
D10*
X27142D1*
Y17785D1*
X25018Y17223D2*
X25517D1*
X25018D2*
Y17785D1*
X27142Y18535D2*
Y18598D1*
X26643D1*
X25018Y18535D2*
Y18598D1*
X25517D1*
X41120Y13421D2*
X42120D1*
Y17422D1*
X41120D1*
Y13421D1*
X10865Y16192D2*
Y17692D1*
X12215Y16192D2*
Y17692D1*
X18660Y33902D2*
X19660D1*
Y36901D1*
X18660D1*
Y33902D1*
X33007Y22142D2*
Y21892D1*
X31008D1*
Y22142D1*
X33007Y23642D2*
Y23892D1*
X31008D1*
Y23642D2*
Y23892D1*
X23900Y11382D2*
X25980D1*
Y9302D1*
X23900D1*
Y11382D1*
X26440Y10842D2*
Y9842D1*
D45*
X27632Y17024D3*
X27724Y17526D2*
D10*
X28905D1*
Y17723D1*
X27724D1*
Y17526D1*
D45*
X33399Y29631D3*
X33268Y29287D2*
D10*
X32480D1*
Y29090D1*
X33268D1*
Y29287D1*
D45*
X12472Y24387D3*
X12053Y24098D2*
D10*
X11217Y24933D1*
X11078Y24794D1*
X11913Y23959D1*
X12053Y24098D1*
D45*
X10358Y26046D3*
X10777Y26335D2*
D10*
X11613Y25500D1*
X11752Y25639D1*
X10917Y26474D1*
X10777Y26335D1*
X30387Y27269D2*
X30151D1*
X30387Y28254D2*
X30151D1*
X29219Y23360D2*
Y24618D1*
X30401Y23360D2*
Y24618D1*
X20592Y26719D2*
X20468D1*
Y25844D1*
X20592D1*
Y26719D1*
X36670Y37198D2*
Y37448D1*
X32590D1*
Y37258D1*
Y36258D2*
Y36008D1*
X33220D2*
X32590D1*
X36670Y36258D2*
Y36008D1*
X36040D1*
X5987Y23607D2*
X5810Y23431D1*
X8695Y20546D1*
X8829Y20680D1*
X9536Y21387D2*
X10371Y22222D1*
X9931Y22672D2*
X10376Y22227D1*
X6651Y24272D2*
X7486Y25107D1*
X7491Y25112D2*
X7936Y24667D1*
D45*
X24852Y15948D3*
X24510Y15646D2*
D10*
X23762D1*
X24510Y16827D2*
X23722D1*
X24510Y16709D2*
Y16827D1*
X23722Y16709D2*
Y16827D1*
X23762Y15646D2*
Y15764D1*
X24510Y15646D2*
Y15764D1*
D62*
X19158Y11005D3*
X25638Y36993D2*
D63*
X26622D1*
Y36009D1*
X25638D1*
Y36993D1*
D23*
X26818Y37188D3*
X16390Y17811D2*
D11*
X14380D1*
Y15952D2*
X16390D1*
X16013Y16171D2*
D17*
G02X16013Y16171I57J0D01*
G01*
X36972Y17729D2*
D10*
Y15131D1*
X38232Y17729D2*
Y15131D1*
X36972D2*
X38232D1*
X36972Y17729D2*
X37405D1*
X37799D2*
X38232D1*
X37405D2*
G03X37799Y17729I197J0D01*
G01*
X27705Y35296D2*
Y34536D1*
X28665D2*
Y35296D1*
D62*
X27658Y34333D3*
X23273Y36992D2*
D10*
X23378Y37111D1*
X23273Y35820D2*
X23378D1*
X23273D2*
Y35939D1*
X24540Y35820D2*
Y35939D1*
Y35820D2*
X24434D1*
X24540Y37111D2*
Y36992D1*
Y37111D2*
X24434D1*
D70*
X23049Y36873D3*
X25580Y18072D2*
D13*
X26580D1*
X25580Y17812D2*
X26580Y17816D1*
X35503Y18004D2*
D172*
X35001Y17812D1*
X35503Y17621D1*
X35336Y17693D2*
Y17932D1*
X35001Y18302D2*
X35025Y18230D1*
X35097Y18182D1*
X35216Y18158D1*
X35288D1*
X35408Y18182D1*
X35480Y18230D1*
X35503Y18302D1*
Y18349D1*
X35480Y18421D1*
X35408Y18469D1*
X35288Y18493D1*
X35216D1*
X35097Y18469D1*
X35025Y18421D1*
X35001Y18349D1*
Y18302D1*
X35097Y18469D2*
X35408Y18182D1*
X34863Y18001D2*
X34361Y17809D1*
X34863Y17618D1*
X34696Y17689D2*
Y17929D1*
X34457Y18155D2*
X34433Y18203D1*
X34361Y18275D1*
X34863D1*
X34203Y18024D2*
X33701Y17832D1*
X34203Y17641D1*
X34036Y17713D2*
Y17952D1*
X33821Y18202D2*
X33797D1*
X33749Y18226D1*
X33725Y18250D1*
X33701Y18298D1*
Y18394D1*
X33725Y18441D1*
X33749Y18465D1*
X33797Y18489D1*
X33845D1*
X33893Y18465D1*
X33964Y18417D1*
X34203Y18178D1*
Y18513D1*
X30668Y10021D2*
X30476Y10523D1*
X30285Y10021D1*
X30357Y10189D2*
X30596D1*
X30822Y10523D2*
Y10021D1*
X30990D1*
X31062Y10045D1*
X31110Y10093D1*
X31133Y10141D1*
X31157Y10212D1*
Y10332D1*
X31133Y10404D1*
X31110Y10452D1*
X31062Y10500D1*
X30990Y10523D1*
X30822D1*
X31695Y10021D2*
X31503Y10523D1*
X31312Y10021D1*
X31383Y10189D2*
X31623D1*
X31849Y10260D2*
X32065D1*
X32136Y10284D1*
X32160Y10308D1*
X32184Y10356D1*
Y10428D1*
X32160Y10475D1*
X32136Y10500D1*
X32065Y10523D1*
X31849D1*
Y10021D1*
X32506Y10523D2*
Y10021D1*
X32338Y10523D2*
X32673D1*
X32971D2*
X32923Y10500D1*
X32876Y10452D1*
X32851Y10404D1*
X32828Y10332D1*
Y10212D1*
X32851Y10141D1*
X32876Y10093D1*
X32923Y10045D1*
X32971Y10021D1*
X33067D1*
X33114Y10045D1*
X33163Y10093D1*
X33186Y10141D1*
X33210Y10212D1*
Y10332D1*
X33186Y10404D1*
X33163Y10452D1*
X33114Y10500D1*
X33067Y10523D1*
X32971D1*
X33365Y10284D2*
X33580D1*
X33651Y10308D1*
X33676Y10332D1*
X33699Y10380D1*
Y10428D1*
X33676Y10475D1*
X33651Y10500D1*
X33580Y10523D1*
X33365D1*
Y10021D1*
X33532Y10284D2*
X33699Y10021D1*
X30431Y13934D2*
Y13431D1*
X30646D1*
X30718Y13456D1*
X30742Y13479D1*
X30766Y13527D1*
Y13599D1*
X30742Y13647D1*
X30718Y13671D1*
X30646Y13694D1*
X30718Y13719D1*
X30742Y13743D1*
X30766Y13790D1*
Y13838D1*
X30742Y13886D1*
X30718Y13910D1*
X30646Y13934D1*
X30431D1*
Y13694D2*
X30646D1*
X30920Y13934D2*
Y13575D1*
X30944Y13503D1*
X30992Y13456D1*
X31064Y13431D1*
X31111D1*
X31183Y13456D1*
X31231Y13503D1*
X31255Y13575D1*
Y13934D1*
X31577D2*
Y13431D1*
X31409Y13934D2*
X31744D1*
X32066D2*
Y13431D1*
X31899Y13934D2*
X32234D1*
X32532D2*
X32484Y13910D1*
X32436Y13862D1*
X32412Y13814D1*
X32388Y13743D1*
Y13623D1*
X32412Y13551D1*
X32436Y13503D1*
X32484Y13456D1*
X32532Y13431D1*
X32627D1*
X32675Y13456D1*
X32723Y13503D1*
X32747Y13551D1*
X32771Y13623D1*
Y13743D1*
X32747Y13814D1*
X32723Y13862D1*
X32675Y13910D1*
X32627Y13934D1*
X32532D1*
X33260D2*
Y13431D1*
X32925Y13934D1*
Y13431D1*
X33749Y13862D2*
X33702Y13910D1*
X33630Y13934D1*
X33534D1*
X33462Y13910D1*
X33414Y13862D1*
Y13814D1*
X33439Y13766D1*
X33462Y13743D1*
X33510Y13719D1*
X33654Y13671D1*
X33702Y13647D1*
X33725Y13623D1*
X33749Y13575D1*
Y13503D1*
X33702Y13456D1*
X33630Y13431D1*
X33534D1*
X33462Y13456D1*
X33414Y13503D1*
X10133Y16452D2*
X10635D1*
X10204Y16942D2*
X10156Y16894D1*
X10133Y16822D1*
Y16727D1*
X10156Y16655D1*
X10204Y16607D1*
X10252D1*
X10300Y16631D1*
X10324Y16655D1*
X10348Y16702D1*
X10396Y16846D1*
X10419Y16894D1*
X10444Y16918D1*
X10491Y16942D1*
X10563D1*
X10611Y16894D1*
X10635Y16822D1*
Y16727D1*
X10611Y16655D1*
X10563Y16607D1*
X10396Y17096D2*
Y17311D1*
X10372Y17383D1*
X10348Y17407D1*
X10300Y17431D1*
X10228D1*
X10181Y17407D1*
X10156Y17383D1*
X10133Y17311D1*
Y17096D1*
X10635D1*
X34354Y34679D2*
X34307Y34727D1*
X34235Y34750D1*
X34139D1*
X34068Y34727D1*
X34019Y34679D1*
Y34631D1*
X34044Y34583D1*
X34068Y34559D1*
X34115Y34535D1*
X34259Y34487D1*
X34307Y34464D1*
X34331Y34439D1*
X34354Y34392D1*
Y34320D1*
X34307Y34272D1*
X34235Y34248D1*
X34139D1*
X34068Y34272D1*
X34019Y34320D1*
X34891Y34248D2*
Y34750D1*
X34700Y34248D1*
X34509Y34750D1*
Y34248D1*
X35046Y34750D2*
Y34248D1*
X35261D1*
X35333Y34272D1*
X35357Y34296D1*
X35381Y34344D1*
Y34415D1*
X35357Y34464D1*
X35333Y34487D1*
X35261Y34511D1*
X35333Y34535D1*
X35357Y34559D1*
X35381Y34607D1*
Y34655D1*
X35357Y34702D1*
X35333Y34727D1*
X35261Y34750D1*
X35046D1*
Y34511D2*
X35261D1*
X6120Y26002D2*
X6072Y26050D1*
X6001Y26074D1*
X5905D1*
X5833Y26050D1*
X5785Y26002D1*
Y25955D1*
X5809Y25907D1*
X5833Y25883D1*
X5881Y25859D1*
X6024Y25811D1*
X6072Y25787D1*
X6096Y25763D1*
X6120Y25715D1*
Y25644D1*
X6072Y25596D1*
X6001Y25572D1*
X5905D1*
X5833Y25596D1*
X5785Y25644D1*
X6274Y26074D2*
X6394Y25572D1*
X6514Y26074D1*
X6633Y25572D1*
X6753Y26074D1*
X6907D2*
Y25572D1*
X7229Y26074D2*
Y25572D1*
X7062Y26074D2*
X7397D1*
X7910Y25955D2*
X7886Y26002D1*
X7838Y26050D1*
X7790Y26074D1*
X7695D1*
X7647Y26050D1*
X7599Y26002D1*
X7575Y25955D1*
X7551Y25883D1*
Y25763D1*
X7575Y25692D1*
X7599Y25644D1*
X7647Y25596D1*
X7695Y25572D1*
X7790D1*
X7838Y25596D1*
X7886Y25644D1*
X7910Y25692D1*
X8064Y26074D2*
Y25572D1*
X8399Y26074D2*
Y25572D1*
X8064Y25835D2*
X8399D1*
X40460Y17376D2*
X40484Y17328D1*
X40532Y17280D1*
X40579Y17257D1*
X40675D1*
X40723Y17280D1*
X40771Y17328D1*
X40795Y17376D1*
X40819Y17448D1*
Y17568D1*
X40795Y17639D1*
X40771Y17687D1*
X40723Y17735D1*
X40675Y17759D1*
X40579D1*
X40532Y17735D1*
X40484Y17687D1*
X40460Y17639D1*
Y17568D1*
X40579D1*
X39971Y17257D2*
Y17759D1*
X40306Y17257D1*
Y17759D1*
X39816Y17257D2*
Y17759D1*
X39649D1*
X39577Y17735D1*
X39529Y17687D1*
X39505Y17639D1*
X39481Y17568D1*
Y17448D1*
X39505Y17376D1*
X39529Y17328D1*
X39577Y17280D1*
X39649Y17257D1*
X39816D1*
X40759Y16237D2*
Y16739D1*
X40461Y16237D2*
X40509Y16260D1*
X40556Y16308D1*
X40581Y16356D1*
X40604Y16428D1*
Y16548D1*
X40581Y16619D1*
X40556Y16667D1*
X40509Y16715D1*
X40461Y16739D1*
X40365D1*
X40318Y16715D1*
X40269Y16667D1*
X40246Y16619D1*
X40222Y16548D1*
Y16428D1*
X40246Y16356D1*
X40269Y16308D1*
X40318Y16260D1*
X40365Y16237D1*
X40461D1*
X40068Y16488D2*
X39791D1*
X39541Y16739D2*
X39302Y16237D1*
X39637D1*
X40769Y15217D2*
Y15719D1*
X40471Y15217D2*
X40519Y15240D1*
X40566Y15288D1*
X40591Y15336D1*
X40614Y15408D1*
Y15528D1*
X40591Y15599D1*
X40566Y15647D1*
X40519Y15695D1*
X40471Y15719D1*
X40375D1*
X40328Y15695D1*
X40279Y15647D1*
X40256Y15599D1*
X40232Y15528D1*
Y15408D1*
X40256Y15336D1*
X40279Y15288D1*
X40328Y15240D1*
X40375Y15217D1*
X40471D1*
X40078Y15468D2*
X39801D1*
X39360Y15288D2*
X39384Y15241D1*
X39456Y15217D1*
X39503D1*
X39575Y15241D1*
X39623Y15313D1*
X39647Y15432D1*
Y15551D1*
X39623Y15647D1*
X39575Y15695D1*
X39503Y15719D1*
X39479D1*
X39408Y15695D1*
X39360Y15647D1*
X39336Y15575D1*
Y15551D1*
X39360Y15480D1*
X39408Y15432D1*
X39479Y15408D1*
X39503D1*
X39575Y15432D1*
X39623Y15480D1*
X39647Y15551D1*
X40769Y14167D2*
Y14669D1*
X40471Y14167D2*
X40519Y14190D1*
X40566Y14238D1*
X40591Y14286D1*
X40614Y14358D1*
Y14478D1*
X40591Y14549D1*
X40566Y14597D1*
X40519Y14645D1*
X40471Y14669D1*
X40375D1*
X40328Y14645D1*
X40279Y14597D1*
X40256Y14549D1*
X40232Y14478D1*
Y14358D1*
X40256Y14286D1*
X40279Y14238D1*
X40328Y14190D1*
X40375Y14167D1*
X40471D1*
X40078Y14418D2*
X39801D1*
X39360Y14167D2*
X39599D1*
X39622Y14382D1*
X39599Y14358D1*
X39527Y14334D1*
X39456D1*
X39384Y14358D1*
X39336Y14406D1*
X39312Y14478D1*
Y14525D1*
X39336Y14597D1*
X39384Y14645D1*
X39456Y14669D1*
X39527D1*
X39599Y14645D1*
X39622Y14621D1*
X39647Y14573D1*
X40564Y13213D2*
Y13643D1*
X40779Y13428D2*
X40348D1*
X39907Y13177D2*
X40146D1*
X40169Y13392D1*
X40146Y13368D1*
X40074Y13344D1*
X40003D1*
X39931Y13368D1*
X39883Y13416D1*
X39859Y13488D1*
Y13535D1*
X39883Y13607D1*
X39931Y13655D1*
X40003Y13679D1*
X40074D1*
X40146Y13655D1*
X40169Y13631D1*
X40194Y13583D1*
X39704Y13177D2*
X39513Y13679D1*
X39322Y13177D1*
M02*
