G04 DipTrace 2.4.0.2*
%INBottom.gbr*%
%MOIN*%
%ADD13C,0.01*%
%ADD14C,0.015*%
%ADD15C,0.04*%
%ADD17C,0.0079*%
%ADD18C,0.02*%
%ADD19C,0.03*%
%ADD21C,0.05*%
%ADD22C,0.007*%
%ADD23C,0.025*%
%ADD34R,0.0669X0.0669*%
%ADD35C,0.0669*%
%ADD40R,0.0394X0.0394*%
%ADD41C,0.0394*%
%ADD74C,0.011*%
%FSLAX44Y44*%
G04*
G70*
G90*
G75*
G01*
%LNBottom*%
%LPD*%
X18300Y26212D2*
D15*
X19031D1*
X19820Y25422D1*
X9900Y26892D2*
D13*
X10260D1*
X10660Y27292D1*
Y30362D1*
X11250Y30952D1*
X19640Y27017D2*
X19205Y26582D1*
X17850D1*
X17521Y26253D1*
X22370Y26972D2*
D15*
Y24122D1*
X22570Y23922D1*
X22785Y23707D1*
X23000Y23492D1*
X22370Y26972D2*
Y27362D1*
X22780Y23712D2*
X22785Y23707D1*
X22570Y23922D2*
D3*
X11290Y17442D2*
D18*
Y17542D1*
X11550Y17802D1*
X12060D1*
X12250Y17612D1*
X12680D1*
X13070Y17222D1*
X15250D1*
D14*
X15310Y17282D1*
X39510Y16582D2*
D13*
X39710D1*
X42370Y19242D1*
Y34322D1*
X41563Y35129D1*
X39563D1*
X37260Y37432D1*
X24081D1*
X23816Y37166D1*
X23408D1*
X23143Y37432D1*
X21545D1*
X21410Y37297D1*
X20837D1*
X18160Y35402D2*
Y35492D1*
X18010D1*
Y35402D1*
X18100D1*
X18660Y34842D1*
Y34072D1*
X18840Y33892D1*
X22190D1*
X22820Y33262D1*
Y30142D1*
X22440Y29762D1*
Y28522D1*
X20680Y26762D1*
X19690D1*
X19530Y26602D1*
Y26302D1*
X20410Y25422D1*
Y25062D1*
X23380Y22092D1*
Y21062D1*
X23030Y20712D1*
Y19962D1*
X22590Y19522D1*
Y18722D1*
X20610Y16742D1*
Y15902D1*
X20590Y15882D1*
X20430Y12102D2*
X20060D1*
X19540Y11582D1*
X11290Y16942D2*
X11110D1*
X10820Y17232D1*
Y17692D1*
X11140Y18012D1*
X12750D1*
X13100Y17662D1*
X13090Y17982D2*
X12900Y18172D1*
X11120D1*
X10800Y18492D1*
Y22542D1*
X13380Y25122D1*
X28930Y26122D2*
D18*
X33240D1*
X34410Y24952D1*
X35900D1*
X36080Y24772D1*
Y24542D1*
X35900Y24362D1*
X33760D1*
X32880Y25242D1*
X31110D1*
X30870Y25002D1*
Y22202D1*
X30630Y21962D1*
X27930D1*
X27710Y21742D1*
Y17722D1*
X28280Y17152D1*
X25340Y18882D2*
D19*
X25300D1*
X28320Y15862D1*
Y14972D1*
X28940Y14352D1*
X28790Y15042D2*
Y16022D1*
X25520Y19292D1*
X27820Y14112D2*
D13*
Y15902D1*
X25130Y18592D1*
X23220Y20202D2*
Y20652D1*
X23770Y21202D1*
Y22602D1*
X23590Y22782D1*
X23240D1*
X22020Y24002D1*
Y25942D1*
X21100Y26862D1*
X26070Y27952D2*
X26460D1*
X28530Y25882D1*
X33050D1*
X33900Y25032D1*
Y24872D1*
X25910Y28182D2*
X26520D1*
X28370Y26332D1*
X33360D1*
X34520Y25172D1*
X36330D1*
X36510Y24992D1*
Y24552D1*
X36060Y24102D1*
X34680D1*
X34290Y23712D1*
X32630Y25492D2*
X28290D1*
X26290Y27492D1*
X22720Y24292D2*
Y29732D1*
X24770Y28982D2*
X26840D1*
X27360Y28462D1*
X26490Y27632D2*
X27060Y27062D1*
X25660Y28372D2*
X26630D1*
X28500Y26502D1*
X33430D1*
X34590Y25342D1*
X36460D1*
X36700Y25102D1*
Y24502D1*
X36130Y23932D1*
X34810D1*
X34410Y23532D1*
X34340D1*
X34270Y23462D1*
X30630Y22312D2*
Y24822D1*
X30140Y25312D1*
X28100D1*
X27310Y26102D1*
X37110Y16582D2*
D18*
X38870D1*
X41530Y13922D1*
X41620D1*
X29969Y34680D2*
D13*
X29861D1*
X28810Y35732D1*
X27890D1*
Y35744D1*
X17160Y37402D2*
D21*
X18160D1*
D13*
X19090D1*
X20250Y36242D1*
X16360Y29462D2*
D19*
X15330D1*
X10538Y24670D1*
Y18302D1*
Y16603D1*
X11110Y16032D1*
X13410D1*
X13500Y16122D1*
X29730Y6572D2*
Y5312D1*
X28900Y4482D1*
X10080D1*
X9290Y5272D1*
Y15355D1*
X10538Y16603D1*
X25080Y28642D2*
D18*
X26750D1*
X28650Y26742D1*
X30140D1*
X30390Y26992D1*
Y27692D1*
X30860Y28162D1*
X33090D1*
X25000Y27782D2*
D13*
Y27852D1*
X24360Y28492D1*
X24010D1*
X23800Y28282D1*
Y26662D1*
X24710Y25752D1*
X25370D1*
X25600Y25522D1*
Y25202D1*
X25470Y25072D1*
X25180D1*
X24870Y24762D1*
X24470D1*
X23940Y24232D1*
Y21172D1*
X24230Y20882D1*
X35740Y24682D2*
X33780D1*
X33153Y25309D1*
Y25499D1*
X32950Y25702D1*
X28350D1*
X27350Y26702D1*
X23610Y28552D2*
Y26612D1*
X24660Y25562D1*
X25290D1*
X25410Y25442D1*
Y25282D1*
X27460Y23242D2*
Y20942D1*
X27260Y20742D1*
X38140Y14722D2*
X36870Y15992D1*
Y17192D1*
X36990Y17312D1*
X23592Y37334D2*
Y37993D1*
X38115Y14417D2*
X36630Y15902D1*
Y16552D1*
X35650Y17532D1*
X24850Y16335D2*
Y16502D1*
X24530Y16822D1*
X9430Y22302D2*
Y24732D1*
X9251Y24910D1*
X24800Y24962D2*
X24370D1*
X23010Y26322D1*
Y33382D1*
X21990Y34402D1*
X19160D1*
X24990Y25152D2*
X24460D1*
X23210Y26402D1*
Y33482D1*
X21290Y35402D1*
X19160D1*
X25190Y25342D2*
X24560D1*
X23410Y26492D1*
Y33582D1*
X21241Y35751D1*
X20350D1*
X19700Y36402D1*
X19160D1*
X35865Y16046D2*
X34950D1*
X35800Y15792D2*
X34530D1*
X38850Y18122D2*
X40950D1*
X42210Y19382D1*
Y34252D1*
X41497Y34965D1*
X39487D1*
X37180Y37272D1*
X24154D1*
X23882Y37000D1*
X23338D1*
X23067Y37271D1*
X21643D1*
X21365Y36993D1*
X20794D1*
X19916Y37872D1*
X16980D1*
X16700Y37592D1*
Y35862D1*
X17160Y35402D1*
X38160Y15032D2*
Y15052D1*
X37460Y15752D1*
X20690Y9532D2*
Y9032D1*
X20440Y8782D1*
X17720D1*
X16660Y7722D1*
X23410Y15982D2*
Y15682D1*
X23010Y15282D1*
Y14082D1*
X21910Y12982D1*
Y12382D1*
X20710Y11182D1*
Y9532D1*
X20690D1*
X17390Y12502D2*
Y9552D1*
X17870Y9072D1*
X20390D1*
X20480Y9162D1*
X24090Y8112D2*
X24110D1*
X23640Y8582D1*
X18720D1*
X10400Y27382D2*
Y30722D1*
X10890Y31212D1*
X22200D1*
X22440Y30972D1*
Y30072D1*
X27640Y35852D2*
Y35872D1*
X27700Y35932D1*
X28471D1*
X28481Y35922D1*
X25500Y34902D2*
X26350D1*
X27300Y35852D1*
X27640D1*
X24690Y36077D2*
Y35862D1*
X24430Y35602D1*
X23826D1*
X23190D1*
X23030Y35762D1*
X26770Y36692D2*
X29050D1*
X29410Y36332D1*
X28730Y35542D2*
X28290D1*
X25470Y35392D2*
Y36902D1*
X25555Y36987D1*
X25850D1*
X24650Y37072D2*
D22*
X25060D1*
X27570Y36882D2*
D13*
X27800Y37112D1*
X37110D1*
X39420Y34802D1*
X41430D1*
X42050Y34182D1*
Y19502D1*
X40870Y18322D1*
X38690D1*
X38100Y17732D1*
Y16862D1*
X28087Y35472D2*
X27410D1*
X26260Y25502D2*
D17*
Y26962D1*
X25890Y27332D1*
Y27612D1*
X25310Y28192D1*
X24890D1*
X23600Y29482D1*
Y33628D1*
X19760Y37468D1*
X36633Y35705D2*
X36331D1*
X36013Y35386D1*
X26470Y25642D2*
Y27012D1*
X26060Y27422D1*
Y27692D1*
X25370Y28382D1*
X24960D1*
X23790Y29552D1*
Y33714D1*
X20105Y37400D1*
D14*
X18300Y26212D3*
X19820Y25422D3*
X9900Y26892D3*
X11250Y30952D3*
X19640Y27017D3*
X17521Y26253D3*
X22370Y26972D3*
X23000Y23492D3*
X22370Y26972D3*
X39510Y16582D3*
X20837Y37297D3*
X20590Y15882D3*
X20430Y12102D3*
X13100Y17662D3*
X13380Y25122D3*
D18*
X13090Y17982D3*
D14*
X28930Y26122D3*
X28280Y17152D3*
X25340Y18882D3*
X28940Y14352D3*
D18*
X28790Y15042D3*
D14*
X25520Y19292D3*
X27820Y14112D3*
X25130Y18592D3*
X23220Y20202D3*
X21100Y26862D3*
X26070Y27952D3*
X33900Y24872D3*
X25910Y28182D3*
X34290Y23712D3*
X32630Y25492D3*
X26290Y27492D3*
X22720Y24292D3*
Y29732D3*
X24770Y28982D3*
X27360Y28462D3*
X26490Y27632D3*
X27060Y27062D3*
X25660Y28372D3*
X34270Y23462D3*
X30630Y22312D3*
X27310Y26102D3*
X37110Y16582D3*
X29969Y34680D3*
X27890Y35744D3*
X20250Y36242D3*
X16360Y29462D3*
X10538Y24670D3*
Y18302D3*
X13500Y16122D3*
X29730Y6572D3*
X25080Y28642D3*
X33090Y28162D3*
X25000Y27782D3*
X24230Y20882D3*
X35740Y24682D3*
X27350Y26702D3*
X23610Y28552D3*
X25410Y25282D3*
X27460Y23242D3*
X27260Y20742D3*
X38140Y14722D3*
X36990Y17312D3*
D74*
X23592Y37334D3*
Y37993D3*
D14*
X38115Y14417D3*
X35650Y17532D3*
X24850Y16335D3*
X24530Y16822D3*
X9430Y22302D3*
X9251Y24910D3*
X24800Y24962D3*
X24990Y25152D3*
X25190Y25342D3*
X35865Y16046D3*
X34950D3*
X35800Y15792D3*
X34530D3*
X38850Y18122D3*
X38160Y15032D3*
X37460Y15752D3*
X20690Y9532D3*
X16660Y7722D3*
X23410Y15982D3*
X20690Y9532D3*
X17390Y12502D3*
X20480Y9162D3*
X24090Y8112D3*
X18720Y8582D3*
X10400Y27382D3*
X22440Y30072D3*
X27640Y35852D3*
X28481Y35922D3*
X25500Y34902D3*
X27640Y35852D3*
X24690Y36077D3*
X23826Y35602D3*
X23030Y35762D3*
X26770Y36692D3*
X29410Y36332D3*
X28730Y35542D3*
X28290D3*
X25470Y35392D3*
X25850Y36987D3*
X24650Y37072D3*
X25060D3*
X27570Y36882D3*
X38100Y16862D3*
X28087Y35472D3*
X27410D3*
X26260Y25502D3*
X19760Y37468D3*
X36633Y35705D3*
X36013Y35386D3*
X26470Y25642D3*
X20105Y37400D3*
X24310Y22482D3*
X24610D3*
Y22182D3*
X24310D3*
Y21882D3*
X24610D3*
X24910Y22482D3*
Y22182D3*
X29410Y24482D3*
X29810D3*
X30210D3*
Y24082D3*
Y23682D3*
X29810Y24082D3*
X29410D3*
Y23682D3*
X29810D3*
X24810Y27082D3*
X25210D3*
X25010Y26682D3*
X25410D3*
X25610Y27082D3*
X25810Y26682D3*
X24910Y26882D3*
X25310D3*
X24810Y26482D3*
X24910Y26282D3*
X25710Y26882D3*
X25010Y26082D3*
X25210Y26482D3*
X25310Y26282D3*
X25410Y26082D3*
X25610Y26482D3*
X25710Y26282D3*
X25810Y26082D3*
X25710Y24082D3*
X24810D3*
X25110D3*
X25410D3*
X24810Y23782D3*
X25110D3*
X24810Y23482D3*
X24510Y23782D3*
Y23482D3*
X25410Y23782D3*
X17710Y10282D3*
X17910D3*
X18110D3*
X18310D3*
X18510D3*
X18710D3*
X17810Y10082D3*
X18010D3*
X18210D3*
X18410D3*
X18610D3*
X17910Y9882D3*
X18110D3*
X18310D3*
X18510D3*
X18710D3*
X17710D3*
X22370Y27362D3*
X22780Y23712D3*
X22570Y23922D3*
X11910Y22582D3*
X31910Y30582D3*
Y30382D3*
Y30182D3*
Y29982D3*
X32110Y30582D3*
Y30382D3*
Y30182D3*
Y29982D3*
X32310Y30582D3*
Y30382D3*
Y30182D3*
Y29982D3*
X32510Y30582D3*
Y30382D3*
Y30182D3*
Y29982D3*
X31010Y8682D3*
X31310D3*
X31610D3*
X31910D3*
Y8482D3*
X31610D3*
X31310D3*
X31010D3*
Y8282D3*
X31310D3*
X31610D3*
X31910D3*
Y8082D3*
X31610D3*
X31310D3*
X31010D3*
X34610Y9082D3*
X34910D3*
X35210D3*
X35510D3*
X35810D3*
X35510Y8782D3*
X35810D3*
X35210D3*
X34910D3*
X34610D3*
Y8482D3*
X34910D3*
X35210D3*
X35510D3*
X35810D3*
Y8182D3*
X35510D3*
X35210D3*
X34910D3*
X34610D3*
X28410Y28182D3*
X28710D3*
X29010D3*
X29310D3*
X28410Y27982D3*
X28710D3*
X29010D3*
X29310D3*
Y27782D3*
X29010D3*
X28710D3*
X28410D3*
X15510Y17482D3*
X15910D3*
X15710Y17282D3*
X15310D3*
X15910Y14582D3*
X16910D3*
X17910D3*
X18910D3*
Y13582D3*
X17910D3*
X16910D3*
X15910D3*
Y12582D3*
X16910D3*
Y11582D3*
X15910D3*
X16910Y10582D3*
X15910D3*
X16910Y9582D3*
X15910D3*
X16910Y8582D3*
X15910D3*
Y7582D3*
X23910Y14582D3*
X24910D3*
X25910D3*
Y13582D3*
X24910D3*
X23910D3*
Y12582D3*
X24910D3*
X25910D3*
X26910D3*
Y13582D3*
X27910Y12582D3*
X23910Y6582D3*
X22910D3*
X21910D3*
Y7582D3*
X22910D3*
X23910D3*
X24910Y29582D3*
X17910Y28582D3*
X31410Y27582D3*
Y27282D3*
Y26982D3*
X31710D3*
Y27282D3*
Y27582D3*
X32010D3*
Y27282D3*
Y26982D3*
X32310D3*
Y27282D3*
Y27582D3*
X25910Y29582D3*
X26910D3*
X27910D3*
X28910D3*
X24910Y30582D3*
X25910D3*
X26910D3*
X27910D3*
X28910D3*
X24910Y31582D3*
X25910D3*
X26910D3*
X27910D3*
X28910D3*
X29910D3*
Y30582D3*
X17910Y29582D3*
X16910D3*
X18910Y28582D3*
Y29582D3*
Y27582D3*
X19910Y28582D3*
Y29582D3*
X20910Y28582D3*
Y29582D3*
X16910Y30582D3*
X17910D3*
X18910D3*
X19910D3*
X20910D3*
X6910Y31582D3*
X5910D3*
X4910D3*
Y32582D3*
X5910D3*
X6910D3*
Y33582D3*
X5910D3*
X4910D3*
Y34582D3*
X5910D3*
X6910D3*
X12910Y22582D3*
X13910D3*
X14910D3*
X15910D3*
X11910Y21582D3*
X12910D3*
X13910D3*
X14910D3*
X15910D3*
X16910D3*
Y20582D3*
X15910D3*
X14910D3*
X13910D3*
X12910D3*
X11910D3*
X12910Y19582D3*
X13910D3*
X14910D3*
X15910D3*
X16910D3*
X17910D3*
Y20582D3*
X7910Y29582D3*
X8910D3*
X9910D3*
Y28582D3*
X8910D3*
X7910D3*
Y27582D3*
X8910D3*
X9910D3*
X23785Y36582D3*
X24035D3*
Y36332D3*
X23785D3*
X28020Y34932D3*
X28320D3*
X28160Y34082D3*
X27660D3*
X22910Y37082D3*
X22410D3*
X21910D3*
X22410Y36582D3*
Y36082D3*
X25160Y35832D3*
X24910Y36082D3*
X25910Y35832D3*
X26410D3*
X26910Y36082D3*
Y37082D3*
X10160Y22332D3*
X7410Y24332D3*
Y25082D3*
X8160D3*
X39740Y16302D3*
X27799Y24938D2*
D23*
X30131D1*
X27412Y24689D2*
X30354D1*
X27029Y24440D2*
X30354D1*
X26642Y24192D2*
X30354D1*
X26259Y23943D2*
X30354D1*
X25873Y23694D2*
X30354D1*
X25490Y23446D2*
X27249D1*
X27674D2*
X30354D1*
X25103Y23197D2*
X27163D1*
X27759D2*
X30354D1*
X24720Y22948D2*
X27182D1*
X27736D2*
X30354D1*
X24334Y22700D2*
X27182D1*
X27736D2*
X30354D1*
X24216Y22451D2*
X27182D1*
X27736D2*
X30354D1*
X24216Y22202D2*
X27182D1*
X24216Y21954D2*
X27182D1*
X24216Y21705D2*
X27182D1*
X24216Y21456D2*
X27182D1*
X24287Y21208D2*
X27182D1*
X24521Y20959D2*
X27065D1*
X23658Y20710D2*
X23987D1*
X24474D2*
X26959D1*
X23498Y20461D2*
X27327D1*
X23521Y20213D2*
X27323D1*
X23388Y19964D2*
X27319D1*
X23166Y19715D2*
X27315D1*
X22916Y19467D2*
X25190D1*
X25869D2*
X27311D1*
X22865Y19218D2*
X25151D1*
X26115D2*
X27311D1*
X22865Y18969D2*
X24936D1*
X26365D2*
X27307D1*
X22865Y18721D2*
X24862D1*
X26615D2*
X27303D1*
X22720Y18472D2*
X24854D1*
X26861D2*
X27299D1*
X22474Y18223D2*
X25116D1*
X27111D2*
X27295D1*
X22224Y17975D2*
X25366D1*
X21974Y17726D2*
X25616D1*
X21728Y17477D2*
X25862D1*
X21478Y17229D2*
X26045D1*
X21228Y16980D2*
X24280D1*
X24783D2*
X25452D1*
X20982Y16731D2*
X24245D1*
X20888Y16482D2*
X24260D1*
X20888Y16234D2*
X23272D1*
X20888Y15985D2*
X23108D1*
X20849Y15736D2*
X23084D1*
X20150Y15488D2*
X22834D1*
X20033Y15239D2*
X22733D1*
X19912Y14990D2*
X22733D1*
X19795Y14742D2*
X22733D1*
X19674Y14493D2*
X22733D1*
X19556Y14244D2*
X22733D1*
X19435Y13996D2*
X22541D1*
X19314Y13747D2*
X22295D1*
X19201Y13498D2*
X22045D1*
X19076Y13250D2*
X21795D1*
X18959Y13001D2*
X21635D1*
X18838Y12752D2*
X21631D1*
X18716Y12503D2*
X21631D1*
X18599Y12255D2*
X21401D1*
X18478Y12006D2*
X21155D1*
X18361Y11757D2*
X20905D1*
X18240Y11509D2*
X20655D1*
X18123Y11260D2*
X20444D1*
X18002Y11011D2*
X20432D1*
X17881Y10763D2*
X20432D1*
X17763Y10514D2*
X20432D1*
X17666Y10265D2*
X20432D1*
X17666Y10017D2*
X20432D1*
X17666Y9768D2*
X20432D1*
X17802Y9519D2*
X20389D1*
X19165Y13487D2*
X19142Y13440D1*
X17642Y10316D1*
Y9654D1*
X17974Y9324D1*
X20257D1*
X20312Y9382D1*
X20429Y9433D1*
X20413Y9536D1*
X20443Y9657D1*
X20460Y9677D1*
X20458Y11182D1*
X20491Y11304D1*
X20532Y11360D1*
X21656Y12484D1*
X21658Y12982D1*
X21691Y13104D1*
X21732Y13160D1*
X22757Y14184D1*
X22758Y15282D1*
X22791Y15404D1*
X22832Y15460D1*
X23159Y15795D1*
X23158Y15865D1*
X23133Y15986D1*
X23163Y16107D1*
X23242Y16202D1*
X23355Y16253D1*
X23479Y16250D1*
X23592Y16193D1*
X24447Y16550D1*
X24355Y16607D1*
X24279Y16705D1*
X24253Y16826D1*
X24283Y16947D1*
X24362Y17042D1*
X24475Y17093D1*
X24599Y17090D1*
X24709Y17033D1*
X24786Y16923D1*
X24948Y16759D1*
X26119Y17249D1*
X25032Y18334D1*
X24955Y18377D1*
X24879Y18475D1*
X24853Y18596D1*
X24883Y18717D1*
X24956Y18809D1*
X24950Y18915D1*
X24976Y19018D1*
X25031Y19109D1*
X25111Y19179D1*
X25162Y19205D1*
X25182Y19389D1*
X25237Y19500D1*
X25327Y19586D1*
X25441Y19635D1*
X25565Y19641D1*
X25684Y19603D1*
X25769Y19540D1*
X27318Y17991D1*
X27350Y20477D1*
X27196Y20472D1*
X27085Y20527D1*
X27009Y20625D1*
X26983Y20746D1*
X27013Y20867D1*
X27092Y20962D1*
X27152Y20989D1*
X27206Y21044D1*
X27208Y23125D1*
X27183Y23246D1*
X27213Y23367D1*
X27292Y23462D1*
X27405Y23513D1*
X27529Y23510D1*
X27639Y23453D1*
X27713Y23354D1*
X27737Y23242D1*
X27712Y23117D1*
Y22214D1*
X27767Y22213D1*
X27857Y22255D1*
X28055Y22264D1*
X30356D1*
X30353Y22316D1*
X30378Y22437D1*
Y24714D1*
X30035Y25060D1*
X28065Y25063D1*
X27978Y25071D1*
X24189Y22622D1*
X24192Y22232D1*
Y21275D1*
X24325Y21143D1*
X24409Y21093D1*
X24483Y20994D1*
X24507Y20882D1*
X24479Y20761D1*
X24402Y20664D1*
X24290Y20611D1*
X24166Y20612D1*
X24055Y20667D1*
X23963Y20792D1*
X23839Y20916D1*
X23470Y20545D1*
X23473Y20314D1*
X23497Y20202D1*
X23469Y20081D1*
X23392Y19984D1*
X23280Y19930D1*
X23235Y19815D1*
X22841Y19416D1*
X22842Y18722D1*
X22809Y18599D1*
X22768Y18543D1*
X20860Y16635D1*
X20862Y15932D1*
X20867Y15882D1*
X20839Y15761D1*
X20762Y15664D1*
X20650Y15611D1*
X20526Y15612D1*
X20415Y15667D1*
X20339Y15765D1*
X20315Y15875D1*
X19315Y13798D1*
X19178Y13513D1*
X24078Y28078D2*
X24391D1*
X24078Y27829D2*
X24641D1*
X24078Y27580D2*
X24786D1*
X25215D2*
X25555D1*
X24078Y27332D2*
X25622D1*
X24078Y27083D2*
X25770D1*
X24078Y26834D2*
X25993D1*
X24258Y26586D2*
X25993D1*
X24504Y26337D2*
X25993D1*
X26738D2*
X27063D1*
X24754Y26088D2*
X25993D1*
X26738D2*
X27009D1*
X25664Y25840D2*
X25993D1*
X26738D2*
X27192D1*
X26766Y25591D2*
X27438D1*
X25875Y25342D2*
X26008D1*
X26512D2*
X27688D1*
X25851Y25094D2*
X27387D1*
X25605Y24845D2*
X27001D1*
X25086Y24596D2*
X26618D1*
X24437Y24348D2*
X26231D1*
X24219Y24099D2*
X25848D1*
X24219Y23850D2*
X25462D1*
X24219Y23601D2*
X25079D1*
X24219Y23353D2*
X24692D1*
X24189Y23011D2*
X27745Y25310D1*
X27212Y25843D1*
X27135Y25887D1*
X27059Y25985D1*
X27033Y26106D1*
X27063Y26227D1*
X27125Y26301D1*
X26711Y26714D1*
X26712Y25773D1*
X26747Y25642D1*
X26719Y25521D1*
X26642Y25424D1*
X26530Y25371D1*
X26503D1*
X26432Y25284D1*
X26320Y25231D1*
X26196Y25232D1*
X26085Y25287D1*
X26009Y25385D1*
X25983Y25506D1*
X26020Y25636D1*
X26018Y26865D1*
X25719Y27160D1*
X25657Y27271D1*
X25648Y27332D1*
Y27515D1*
X25241Y27918D1*
X25277Y27782D1*
X25249Y27661D1*
X25172Y27564D1*
X25060Y27511D1*
X24936Y27512D1*
X24825Y27567D1*
X24749Y27665D1*
X24727Y27767D1*
X24256Y28240D1*
X24114D1*
X24053Y28178D1*
X24052Y26763D1*
X24815Y26003D1*
X25370Y26004D1*
X25493Y25971D1*
X25548Y25930D1*
X25778Y25700D1*
X25842Y25590D1*
X25852Y25522D1*
Y25202D1*
X25813Y25067D1*
X25648Y24893D1*
X25540Y24831D1*
X25470Y24820D1*
X25286D1*
X25048Y24583D1*
X24938Y24520D1*
X24870Y24510D1*
X24577D1*
X24192Y24128D1*
Y23017D1*
X4610Y37688D2*
X5517D1*
X7485D2*
X16443D1*
X4442Y37439D2*
X5329D1*
X7672D2*
X16423D1*
X4368Y37190D2*
X5216D1*
X7782D2*
X8685D1*
X12723D2*
X13685D1*
X15637D2*
X16423D1*
X4352Y36942D2*
X5161D1*
X7840D2*
X8599D1*
X12723D2*
X13599D1*
X15719D2*
X16423D1*
X4352Y36693D2*
X5150D1*
X7848D2*
X8642D1*
X12723D2*
X13642D1*
X15680D2*
X16423D1*
X4352Y36444D2*
X5189D1*
X7809D2*
X8853D1*
X12723D2*
X13853D1*
X15465D2*
X16423D1*
X4352Y36196D2*
X5279D1*
X7719D2*
X8693D1*
X12723D2*
X13685D1*
X15633D2*
X16423D1*
X4352Y35947D2*
X5435D1*
X7563D2*
X8603D1*
X12723D2*
X13599D1*
X15719D2*
X16423D1*
X4352Y35698D2*
X5696D1*
X7305D2*
X8634D1*
X12723D2*
X13638D1*
X15680D2*
X16482D1*
X4352Y35450D2*
X6368D1*
X6633D2*
X8829D1*
X12723D2*
X13845D1*
X15473D2*
X16599D1*
X4352Y35201D2*
X8696D1*
X12723D2*
X13689D1*
X15723D2*
X16638D1*
X4352Y34952D2*
X8603D1*
X12723D2*
X13603D1*
X15723D2*
X16841D1*
X17477D2*
X17841D1*
X4356Y34704D2*
X8634D1*
X12723D2*
X13638D1*
X15723D2*
X18384D1*
X4356Y34455D2*
X8821D1*
X9496D2*
X9821D1*
X10496D2*
X10821D1*
X12723D2*
X13837D1*
X15723D2*
X18384D1*
X4356Y34206D2*
X18384D1*
X4356Y33958D2*
X18411D1*
X4356Y33709D2*
X18642D1*
X4356Y33460D2*
X22239D1*
X4356Y33211D2*
X22489D1*
X4356Y32963D2*
X22544D1*
X4356Y32714D2*
X22544D1*
X4360Y32465D2*
X22544D1*
X4360Y32217D2*
X22544D1*
X4360Y31968D2*
X22544D1*
X4360Y31719D2*
X22544D1*
X4360Y31471D2*
X17458D1*
X15432Y35438D2*
X15697D1*
Y34365D1*
X14623D1*
Y34634D1*
X14571Y34556D1*
X14480Y34471D1*
X14372Y34409D1*
X14252Y34373D1*
X14128Y34366D1*
X14005Y34388D1*
X13891Y34437D1*
X13791Y34512D1*
X13711Y34608D1*
X13655Y34719D1*
X13627Y34841D1*
Y34965D1*
X13656Y35087D1*
X13713Y35198D1*
X13793Y35293D1*
X13894Y35367D1*
X13969Y35399D1*
X13891Y35437D1*
X13791Y35512D1*
X13711Y35608D1*
X13655Y35719D1*
X13627Y35841D1*
Y35965D1*
X13656Y36087D1*
X13713Y36198D1*
X13793Y36293D1*
X13894Y36367D1*
X13969Y36399D1*
X13891Y36437D1*
X13791Y36512D1*
X13711Y36608D1*
X13655Y36719D1*
X13627Y36841D1*
Y36965D1*
X13656Y37087D1*
X13713Y37198D1*
X13793Y37293D1*
X13894Y37367D1*
X14008Y37416D1*
X14131Y37437D1*
X14256Y37430D1*
X14375Y37393D1*
X14483Y37330D1*
X14573Y37244D1*
X14641Y37140D1*
X14658Y37092D1*
X14713Y37198D1*
X14793Y37293D1*
X14894Y37367D1*
X15008Y37416D1*
X15131Y37437D1*
X15256Y37430D1*
X15375Y37393D1*
X15483Y37330D1*
X15573Y37244D1*
X15641Y37140D1*
X15683Y37022D1*
X15697Y36902D1*
X15682Y36778D1*
X15639Y36660D1*
X15571Y36556D1*
X15480Y36471D1*
X15353Y36403D1*
X15483Y36330D1*
X15573Y36244D1*
X15641Y36140D1*
X15683Y36022D1*
X15697Y35902D1*
X15682Y35778D1*
X15639Y35660D1*
X15571Y35556D1*
X15480Y35471D1*
X15423Y35438D1*
X18271Y34878D2*
X18128Y34866D1*
X18005Y34888D1*
X17891Y34937D1*
X17791Y35012D1*
X17711Y35108D1*
X17660Y35209D1*
X17639Y35160D1*
X17571Y35056D1*
X17480Y34971D1*
X17372Y34909D1*
X17252Y34873D1*
X17128Y34866D1*
X17005Y34888D1*
X16891Y34937D1*
X16791Y35012D1*
X16711Y35108D1*
X16655Y35219D1*
X16627Y35341D1*
Y35465D1*
X16648Y35553D1*
X16522Y35683D1*
X16458Y35793D1*
X16448Y35862D1*
Y37592D1*
X16481Y37714D1*
X16522Y37770D1*
X16680Y37929D1*
X7137Y37935D1*
X7313Y37820D1*
X7495Y37649D1*
X7642Y37447D1*
X7748Y37221D1*
X7810Y36979D1*
X7826Y36772D1*
X7803Y36523D1*
X7733Y36283D1*
X7620Y36061D1*
X7467Y35864D1*
X7280Y35699D1*
X7065Y35571D1*
X6830Y35487D1*
X6583Y35448D1*
X6334Y35456D1*
X6090Y35510D1*
X5861Y35609D1*
X5655Y35750D1*
X5478Y35926D1*
X5338Y36133D1*
X5239Y36362D1*
X5184Y36605D1*
X5176Y36855D1*
X5215Y37101D1*
X5300Y37336D1*
X5427Y37551D1*
X5592Y37738D1*
X5789Y37891D1*
X5867Y37936D1*
X5215Y37937D1*
X4965Y37905D1*
X4760Y37821D1*
X4582Y37687D1*
X4445Y37510D1*
X4359Y37304D1*
X4325Y37056D1*
X4335Y31457D1*
X22565Y31476D1*
X22568Y32517D1*
Y33160D1*
X22087Y33639D1*
X18840Y33640D1*
X18717Y33673D1*
X18662Y33713D1*
X18482Y33893D1*
X18418Y34003D1*
X18408Y34072D1*
Y34740D1*
X18269Y34876D1*
X11748Y37438D2*
X12697D1*
X12693Y36365D1*
X12697Y35803D1*
X12693Y35355D1*
X12697Y34928D1*
Y34355D1*
X11623D1*
Y34624D1*
X11571Y34546D1*
X11480Y34461D1*
X11372Y34399D1*
X11252Y34363D1*
X11128Y34356D1*
X11005Y34378D1*
X10891Y34427D1*
X10791Y34502D1*
X10711Y34598D1*
X10660Y34699D1*
X10639Y34650D1*
X10571Y34546D1*
X10480Y34461D1*
X10372Y34399D1*
X10252Y34363D1*
X10128Y34356D1*
X10005Y34378D1*
X9891Y34427D1*
X9791Y34502D1*
X9711Y34598D1*
X9660Y34699D1*
X9639Y34650D1*
X9571Y34546D1*
X9480Y34461D1*
X9372Y34399D1*
X9252Y34363D1*
X9128Y34356D1*
X9005Y34378D1*
X8891Y34427D1*
X8791Y34502D1*
X8711Y34598D1*
X8655Y34709D1*
X8627Y34831D1*
Y34955D1*
X8656Y35077D1*
X8713Y35188D1*
X8793Y35283D1*
X8894Y35357D1*
X8969Y35389D1*
X8891Y35427D1*
X8791Y35502D1*
X8711Y35598D1*
X8655Y35709D1*
X8627Y35831D1*
Y35955D1*
X8656Y36077D1*
X8713Y36188D1*
X8793Y36283D1*
X8894Y36357D1*
X8983Y36396D1*
X8891Y36437D1*
X8791Y36512D1*
X8711Y36608D1*
X8655Y36719D1*
X8627Y36841D1*
Y36965D1*
X8656Y37087D1*
X8713Y37198D1*
X8793Y37293D1*
X8894Y37367D1*
X9008Y37416D1*
X9131Y37437D1*
X9256Y37430D1*
X9375Y37393D1*
X9483Y37330D1*
X9573Y37244D1*
X9641Y37140D1*
X9658Y37092D1*
X9713Y37198D1*
X9793Y37293D1*
X9894Y37367D1*
X10008Y37416D1*
X10131Y37437D1*
X10256Y37430D1*
X10375Y37393D1*
X10483Y37330D1*
X10573Y37244D1*
X10641Y37140D1*
X10658Y37092D1*
X10713Y37198D1*
X10793Y37293D1*
X10894Y37367D1*
X11008Y37416D1*
X11131Y37437D1*
X11256Y37430D1*
X11375Y37393D1*
X11483Y37330D1*
X11573Y37244D1*
X11622Y37169D1*
X11623Y37438D1*
X11748D1*
X30957Y27808D2*
X38380D1*
X30715Y27559D2*
X38376D1*
X30715Y27310D2*
X38376D1*
X30715Y27062D2*
X38376D1*
X30660Y26813D2*
X38376D1*
X33750Y26564D2*
X38372D1*
X33996Y26316D2*
X38372D1*
X34246Y26067D2*
X38372D1*
X34496Y25818D2*
X38372D1*
X36590Y25570D2*
X38368D1*
X36864Y25321D2*
X38368D1*
X36977Y25072D2*
X38368D1*
X31196Y24824D2*
X32845D1*
X36977D2*
X38368D1*
X31196Y24575D2*
X33095D1*
X36977D2*
X38364D1*
X31196Y24326D2*
X33345D1*
X36906D2*
X38364D1*
X31196Y24078D2*
X33634D1*
X36656D2*
X38364D1*
X31196Y23829D2*
X34013D1*
X36410D2*
X38364D1*
X31196Y23580D2*
X33993D1*
X34840D2*
X38360D1*
X31196Y23331D2*
X34001D1*
X34586D2*
X38360D1*
X31196Y23083D2*
X38360D1*
X31196Y22834D2*
X38356D1*
X31196Y22585D2*
X38356D1*
X31196Y22337D2*
X38356D1*
X31176Y22088D2*
X38356D1*
X30961Y21839D2*
X38353D1*
X28035Y21591D2*
X38353D1*
X28035Y21342D2*
X38353D1*
X28035Y21093D2*
X38353D1*
X28035Y20845D2*
X32954D1*
X28035Y20596D2*
X32759D1*
X28035Y20347D2*
X32564D1*
X28035Y20099D2*
X32368D1*
X28035Y19850D2*
X32173D1*
X28035Y19601D2*
X31978D1*
X28035Y19352D2*
X31829D1*
X28035Y19104D2*
X31829D1*
X28035Y18855D2*
X31833D1*
X28035Y18606D2*
X31833D1*
X28035Y18358D2*
X31833D1*
X28035Y18109D2*
X31833D1*
X28035Y17860D2*
X31833D1*
X28274Y17612D2*
X31833D1*
X28520Y17363D2*
X31833D1*
X28606Y17114D2*
X31837D1*
X28469Y16866D2*
X31837D1*
X28719Y16617D2*
X31837D1*
X28965Y16368D2*
X31837D1*
X29153Y16120D2*
X31837D1*
X29168Y15871D2*
X31837D1*
X29168Y15622D2*
X31841D1*
X29168Y15373D2*
X31841D1*
X29168Y15125D2*
X31841D1*
X29125Y14876D2*
X31841D1*
X29188Y14627D2*
X31841D1*
X29317Y14379D2*
X31841D1*
X29239Y14130D2*
X31841D1*
X28860Y13881D2*
X31845D1*
X28860Y13633D2*
X31845D1*
X28860Y13384D2*
X31845D1*
X28860Y13135D2*
X31845D1*
X28860Y12887D2*
X31845D1*
X28860Y12638D2*
X31845D1*
X28860Y12389D2*
X31849D1*
X28860Y12141D2*
X31849D1*
X28860Y11892D2*
X31849D1*
X28860Y11643D2*
X31849D1*
X28860Y11394D2*
X31849D1*
X28860Y11146D2*
X31849D1*
X28860Y10897D2*
X31853D1*
X28860Y10648D2*
X31853D1*
X28860Y10400D2*
X31853D1*
X28860Y10151D2*
X31853D1*
X28860Y9902D2*
X31853D1*
X28860Y9654D2*
X31853D1*
X28860Y9405D2*
X31853D1*
X28860Y9156D2*
X31856D1*
X28860Y8908D2*
X31856D1*
X28860Y8659D2*
X31856D1*
X28860Y8410D2*
X31856D1*
X28860Y8162D2*
X31856D1*
X28860Y7913D2*
X31856D1*
X28860Y7664D2*
X31860D1*
X28860Y7415D2*
X31860D1*
X34279Y24060D2*
X33760D1*
X33635Y24087D1*
X33546Y24148D1*
X32755Y24940D1*
X31235D1*
X31172Y24877D1*
Y22202D1*
X31144Y22077D1*
X31084Y21988D1*
X30844Y21748D1*
X30736Y21680D1*
X30630Y21660D1*
X28055D1*
X28012Y21617D1*
Y17847D1*
X28494Y17365D1*
X28561Y17261D1*
X28582Y17139D1*
X28551Y17018D1*
X28475Y16921D1*
X28417Y16889D1*
X29039Y16270D1*
X29110Y16168D1*
X29142Y16022D1*
Y15042D1*
X29120Y14919D1*
X29057Y14812D1*
X29012Y14775D1*
X29189Y14600D1*
X29260Y14498D1*
X29291Y14378D1*
X29278Y14254D1*
X29223Y14143D1*
X29133Y14057D1*
X29019Y14008D1*
X28895Y14002D1*
X28832Y14022D1*
X28835Y13182D1*
Y7207D1*
X31886D1*
X31855Y19371D1*
X31882Y19449D1*
X32945Y20800D1*
X33021Y20845D1*
X38378Y20905D1*
Y21532D1*
X38404Y28036D1*
X33370Y28049D1*
X33355Y28017D1*
X33275Y27923D1*
X33163Y27868D1*
X32965Y27860D1*
X30985D1*
X30692Y27567D1*
Y26992D1*
X30664Y26867D1*
X30604Y26778D1*
X30579Y26753D1*
X33430Y26754D1*
X33553Y26721D1*
X33608Y26680D1*
X34694Y25594D1*
X36460D1*
X36583Y25561D1*
X36638Y25520D1*
X36878Y25280D1*
X36942Y25170D1*
X36952Y25102D1*
Y24502D1*
X36919Y24379D1*
X36878Y24323D1*
X36308Y23753D1*
X36198Y23690D1*
X36130Y23680D1*
X34915D1*
X34579Y23344D1*
X34498Y23296D1*
X34442Y23244D1*
X34330Y23191D1*
X34206Y23192D1*
X34095Y23247D1*
X34019Y23345D1*
X33993Y23466D1*
X34023Y23587D1*
X34035Y23602D1*
X34013Y23716D1*
X34043Y23837D1*
X34122Y23932D1*
X34182Y23959D1*
X34280Y24058D1*
X31842Y30608D2*
X41772D1*
X31846Y30359D2*
X41772D1*
X31850Y30110D2*
X41772D1*
X31850Y29862D2*
X41772D1*
X31854Y29613D2*
X41772D1*
X31854Y29364D2*
X41772D1*
X31858Y29116D2*
X41772D1*
X31858Y28867D2*
X41772D1*
X31861Y28618D2*
X41772D1*
X36002Y28370D2*
X41772D1*
X38756Y28121D2*
X41772D1*
X38756Y27872D2*
X41772D1*
X38756Y27624D2*
X41772D1*
X38752Y27375D2*
X41772D1*
X38752Y27126D2*
X41772D1*
X38752Y26878D2*
X41772D1*
X38752Y26629D2*
X41772D1*
X38748Y26380D2*
X41772D1*
X38748Y26131D2*
X41772D1*
X38748Y25883D2*
X41772D1*
X38748Y25634D2*
X41772D1*
X38744Y25385D2*
X41772D1*
X38744Y25137D2*
X41772D1*
X38744Y24888D2*
X41772D1*
X38744Y24639D2*
X41772D1*
X38740Y24391D2*
X41772D1*
X38740Y24142D2*
X41772D1*
X38740Y23893D2*
X41772D1*
X38740Y23645D2*
X41772D1*
X38736Y23396D2*
X41772D1*
X38736Y23147D2*
X41772D1*
X38736Y22899D2*
X41772D1*
X38733Y22650D2*
X41772D1*
X38733Y22401D2*
X41772D1*
X38733Y22152D2*
X41772D1*
X38733Y21904D2*
X41772D1*
X38729Y21655D2*
X41772D1*
X38729Y21406D2*
X41772D1*
X38729Y21158D2*
X41772D1*
X38729Y20909D2*
X41772D1*
X38686Y20660D2*
X41772D1*
X33080Y20412D2*
X41772D1*
X32885Y20163D2*
X41772D1*
X32690Y19914D2*
X41772D1*
X32494Y19666D2*
X41772D1*
X32299Y19417D2*
X41585D1*
X32209Y19168D2*
X41335D1*
X32209Y18920D2*
X41085D1*
X32209Y18671D2*
X40839D1*
X32209Y18422D2*
X38409D1*
X32209Y18173D2*
X36249D1*
X32209Y17925D2*
X36253D1*
X32209Y17676D2*
X35390D1*
X35912D2*
X36253D1*
X32213Y17427D2*
X35370D1*
X32213Y17179D2*
X35620D1*
X32213Y16930D2*
X35870D1*
X32213Y16681D2*
X36120D1*
X32213Y16433D2*
X36269D1*
X32213Y16184D2*
X34686D1*
X36131D2*
X36267D1*
X32217Y15935D2*
X34269D1*
X36143D2*
X36275D1*
X32217Y15687D2*
X34249D1*
X36080D2*
X36276D1*
X32217Y15438D2*
X36276D1*
X32217Y15189D2*
X36280D1*
X32217Y14941D2*
X36280D1*
X32217Y14692D2*
X36284D1*
X32217Y14443D2*
X36288D1*
X32221Y14194D2*
X36288D1*
X32221Y13946D2*
X36292D1*
X32221Y13697D2*
X36296D1*
X32221Y13448D2*
X36296D1*
X32221Y13200D2*
X36300D1*
X32221Y12951D2*
X36300D1*
X32225Y12702D2*
X36304D1*
X32225Y12454D2*
X36308D1*
X32225Y12205D2*
X36308D1*
X32225Y11956D2*
X36311D1*
X32225Y11708D2*
X36315D1*
X32225Y11459D2*
X36315D1*
X32229Y11210D2*
X36319D1*
X32229Y10962D2*
X36323D1*
X32229Y10713D2*
X36323D1*
X32229Y10464D2*
X36327D1*
X32229Y10215D2*
X36327D1*
X32229Y9967D2*
X36331D1*
X32229Y9718D2*
X36335D1*
X32233Y9469D2*
X36335D1*
X32233Y9221D2*
X36339D1*
X32233Y8972D2*
X36343D1*
X32233Y8723D2*
X36343D1*
X32233Y8475D2*
X36347D1*
X32233Y8226D2*
X36351D1*
X32236Y7977D2*
X36351D1*
X32236Y7729D2*
X36354D1*
X32236Y7480D2*
X36354D1*
X32236Y7231D2*
X36358D1*
X33304Y28376D2*
X38530Y28364D1*
X38648Y28326D1*
X38721Y28223D1*
X38732Y28161D1*
X38702Y20781D1*
X38664Y20664D1*
X38561Y20590D1*
X38502Y20580D1*
X33139Y20521D1*
X32183Y19303D1*
X32212Y7204D1*
X33910Y7207D1*
X36383D1*
X36291Y16537D1*
X35554Y17271D1*
X35475Y17317D1*
X35399Y17415D1*
X35373Y17536D1*
X35403Y17657D1*
X35482Y17752D1*
X35595Y17803D1*
X35719Y17800D1*
X35829Y17743D1*
X35906Y17633D1*
X36284Y17254D1*
X36275Y18140D1*
X36335Y18246D1*
X36400Y18267D1*
X38279Y18270D1*
X38512Y18500D1*
X38622Y18563D1*
X38690Y18574D1*
X40764D1*
X41799Y19607D1*
X41798Y26502D1*
Y30826D1*
X36485Y30843D1*
X31817Y30856D1*
X31838Y28463D1*
X33090Y28464D1*
X33211Y28438D1*
X33297Y28377D1*
X35063Y16298D2*
X35751D1*
X35810Y16318D1*
X35934Y16314D1*
X36044Y16257D1*
X36118Y16158D1*
X36142Y16046D1*
X36114Y15925D1*
X36068Y15868D1*
X36077Y15792D1*
X36049Y15671D1*
X35972Y15574D1*
X35860Y15521D1*
X35736Y15522D1*
X35698Y15541D1*
X34648Y15540D1*
X34590Y15521D1*
X34466Y15522D1*
X34355Y15577D1*
X34279Y15675D1*
X34253Y15796D1*
X34283Y15917D1*
X34362Y16012D1*
X34475Y16063D1*
X34599Y16060D1*
X34630Y16044D1*
X34675D1*
X34703Y16171D1*
X34782Y16266D1*
X34895Y16318D1*
X35019Y16314D1*
X35050Y16298D1*
X20481Y37688D2*
X23314D1*
X23868D2*
X39337D1*
X41305D2*
X42282D1*
X37633Y37439D2*
X39150D1*
X41493D2*
X42446D1*
X37883Y37190D2*
X39036D1*
X41602D2*
X42513D1*
X38129Y36942D2*
X38982D1*
X41661D2*
X42529D1*
X38379Y36693D2*
X38970D1*
X41668D2*
X42529D1*
X38629Y36444D2*
X39009D1*
X41629D2*
X42529D1*
X38875Y36196D2*
X39099D1*
X41539D2*
X42529D1*
X39125Y35947D2*
X39254D1*
X41383D2*
X42529D1*
X39375Y35698D2*
X39518D1*
X41125D2*
X42529D1*
X39621Y35450D2*
X40189D1*
X40449D2*
X42529D1*
X41871Y35201D2*
X42529D1*
X42121Y34952D2*
X42529D1*
X42368Y34704D2*
X42532D1*
X4352Y30973D2*
X10271D1*
X4352Y30725D2*
X10122D1*
X11434D2*
X22161D1*
X4352Y30476D2*
X10122D1*
X11157D2*
X22161D1*
X4352Y30227D2*
X10122D1*
X10938D2*
X22161D1*
X4352Y29979D2*
X10122D1*
X10938D2*
X22154D1*
X4352Y29730D2*
X10122D1*
X10938D2*
X15079D1*
X16614D2*
X22161D1*
X4352Y29481D2*
X10122D1*
X10938D2*
X14825D1*
X16735D2*
X22161D1*
X4352Y29232D2*
X10122D1*
X10938D2*
X14579D1*
X16653D2*
X22161D1*
X4352Y28984D2*
X10122D1*
X10938D2*
X14329D1*
X15375D2*
X22161D1*
X4352Y28735D2*
X10122D1*
X10938D2*
X14079D1*
X15125D2*
X22161D1*
X4352Y28486D2*
X10122D1*
X10938D2*
X13833D1*
X14879D2*
X22025D1*
X4352Y28238D2*
X10122D1*
X10938D2*
X13583D1*
X14629D2*
X21775D1*
X4352Y27989D2*
X10122D1*
X10938D2*
X13333D1*
X14379D2*
X21525D1*
X4352Y27740D2*
X10122D1*
X10938D2*
X13087D1*
X14133D2*
X21279D1*
X4352Y27492D2*
X10122D1*
X10938D2*
X12837D1*
X13883D2*
X21029D1*
X4352Y27243D2*
X10134D1*
X10934D2*
X12587D1*
X13633D2*
X19454D1*
X19825D2*
X20779D1*
X4352Y26994D2*
X9618D1*
X10743D2*
X12341D1*
X13387D2*
X19236D1*
X4352Y26746D2*
X9638D1*
X10496D2*
X12091D1*
X13137D2*
X17630D1*
X4352Y26497D2*
X11841D1*
X12887D2*
X17364D1*
X4352Y26248D2*
X11595D1*
X12641D2*
X17220D1*
X4352Y26000D2*
X11345D1*
X12391D2*
X17384D1*
X17657D2*
X17935D1*
X4352Y25751D2*
X11095D1*
X12141D2*
X18900D1*
X4352Y25502D2*
X10849D1*
X11895D2*
X19146D1*
X4352Y25253D2*
X10599D1*
X11645D2*
X13111D1*
X13649D2*
X19396D1*
X4352Y25005D2*
X8966D1*
X9539D2*
X10349D1*
X11395D2*
X12884D1*
X13657D2*
X20138D1*
X4352Y24756D2*
X8997D1*
X9707D2*
X10173D1*
X11149D2*
X12634D1*
X13395D2*
X20333D1*
X4352Y24507D2*
X9154D1*
X9707D2*
X10161D1*
X10914D2*
X12384D1*
X13149D2*
X20583D1*
X4352Y24259D2*
X9154D1*
X9707D2*
X10161D1*
X10914D2*
X12138D1*
X12899D2*
X20833D1*
X4352Y24010D2*
X9154D1*
X9707D2*
X10161D1*
X10914D2*
X11888D1*
X12649D2*
X21079D1*
X4352Y23761D2*
X9154D1*
X9707D2*
X10161D1*
X10914D2*
X11638D1*
X12403D2*
X21329D1*
X4567Y23513D2*
X9154D1*
X9707D2*
X10161D1*
X10914D2*
X11392D1*
X12153D2*
X21579D1*
X4813Y23264D2*
X9154D1*
X9707D2*
X10161D1*
X10914D2*
X11142D1*
X11903D2*
X21825D1*
X5059Y23015D2*
X9154D1*
X9707D2*
X10161D1*
X11657D2*
X22075D1*
X5305Y22767D2*
X9154D1*
X9707D2*
X10161D1*
X11407D2*
X22325D1*
X5551Y22518D2*
X9154D1*
X9707D2*
X10161D1*
X11157D2*
X22571D1*
X5797Y22269D2*
X9130D1*
X9731D2*
X10161D1*
X11079D2*
X22821D1*
X6043Y22021D2*
X10161D1*
X11079D2*
X23071D1*
X6289Y21772D2*
X10161D1*
X11079D2*
X23103D1*
X6536Y21523D2*
X10161D1*
X11079D2*
X23103D1*
X6782Y21274D2*
X10161D1*
X11079D2*
X23103D1*
X7028Y21026D2*
X10161D1*
X11079D2*
X22962D1*
X7274Y20777D2*
X10161D1*
X11079D2*
X22763D1*
X7520Y20528D2*
X10161D1*
X11079D2*
X22755D1*
X7766Y20280D2*
X10161D1*
X11079D2*
X22755D1*
X8012Y20031D2*
X10161D1*
X11079D2*
X22720D1*
X8258Y19782D2*
X10161D1*
X11079D2*
X22470D1*
X8504Y19534D2*
X10161D1*
X11079D2*
X22314D1*
X8750Y19285D2*
X10161D1*
X11079D2*
X22314D1*
X8996Y19036D2*
X10161D1*
X11079D2*
X22314D1*
X9243Y18788D2*
X10161D1*
X11079D2*
X22275D1*
X9270Y18539D2*
X10161D1*
X11133D2*
X22025D1*
X9270Y18290D2*
X10161D1*
X13164D2*
X21779D1*
X9270Y18042D2*
X10161D1*
X13411D2*
X21529D1*
X9270Y17793D2*
X10161D1*
X13368D2*
X21279D1*
X41301D2*
X42529D1*
X9270Y17544D2*
X10161D1*
X12200D2*
X12825D1*
X13375D2*
X21032D1*
X41055D2*
X42529D1*
X9270Y17295D2*
X10161D1*
X12188D2*
X20782D1*
X40805D2*
X42529D1*
X9274Y17047D2*
X10161D1*
X12200D2*
X20532D1*
X40555D2*
X42529D1*
X9274Y16798D2*
X10161D1*
X12215D2*
X20341D1*
X25914D2*
X26544D1*
X40309D2*
X42529D1*
X9274Y16549D2*
X9962D1*
X12215D2*
X20251D1*
X25317D2*
X26790D1*
X40059D2*
X42529D1*
X9274Y16301D2*
X9712D1*
X13829D2*
X20130D1*
X25149D2*
X27040D1*
X39602D2*
X41216D1*
X42024D2*
X42529D1*
X9274Y16052D2*
X9466D1*
X13871D2*
X20009D1*
X24125D2*
X27290D1*
X37192D2*
X38946D1*
X39852D2*
X41075D1*
X42164D2*
X42529D1*
X10262Y15803D2*
X10814D1*
X13704D2*
X19892D1*
X23688D2*
X27536D1*
X37789D2*
X39196D1*
X40102D2*
X41071D1*
X42168D2*
X42529D1*
X10012Y15555D2*
X19771D1*
X23653D2*
X27544D1*
X38039D2*
X39446D1*
X40348D2*
X41204D1*
X42036D2*
X42529D1*
X9762Y15306D2*
X19654D1*
X23414D2*
X27544D1*
X36657D2*
X36845D1*
X38286D2*
X39693D1*
X40598D2*
X41220D1*
X42020D2*
X42529D1*
X9668Y15057D2*
X19532D1*
X23286D2*
X27544D1*
X36657D2*
X37095D1*
X38461D2*
X39943D1*
X40848D2*
X41075D1*
X42164D2*
X42529D1*
X9668Y14809D2*
X19411D1*
X23286D2*
X27544D1*
X36661D2*
X37341D1*
X38426D2*
X40193D1*
X42168D2*
X42529D1*
X9668Y14560D2*
X19294D1*
X23286D2*
X27544D1*
X36664D2*
X37591D1*
X38391D2*
X40439D1*
X42039D2*
X42529D1*
X9668Y14311D2*
X19173D1*
X23286D2*
X27544D1*
X28098D2*
X28458D1*
X36664D2*
X37833D1*
X38395D2*
X40689D1*
X42180D2*
X42529D1*
X9668Y14063D2*
X19056D1*
X23286D2*
X27521D1*
X28118D2*
X28482D1*
X36668D2*
X40939D1*
X42180D2*
X42529D1*
X9668Y13814D2*
X18935D1*
X23125D2*
X28482D1*
X36668D2*
X41060D1*
X42180D2*
X42529D1*
X9668Y13565D2*
X18818D1*
X22875D2*
X28482D1*
X36672D2*
X41060D1*
X42180D2*
X42529D1*
X9668Y13316D2*
X18696D1*
X22625D2*
X28482D1*
X36676D2*
X42529D1*
X9668Y13068D2*
X18575D1*
X22379D2*
X28482D1*
X36676D2*
X42529D1*
X9668Y12819D2*
X18458D1*
X22188D2*
X28482D1*
X36680D2*
X42529D1*
X9668Y12570D2*
X17095D1*
X17684D2*
X18337D1*
X22188D2*
X28482D1*
X36684D2*
X42529D1*
X9668Y12322D2*
X17114D1*
X17668D2*
X18220D1*
X22180D2*
X28482D1*
X36684D2*
X42529D1*
X9668Y12073D2*
X17114D1*
X17668D2*
X18099D1*
X21981D2*
X28482D1*
X36688D2*
X42529D1*
X9668Y11824D2*
X17114D1*
X17668D2*
X17978D1*
X21735D2*
X28482D1*
X36688D2*
X42529D1*
X9668Y11576D2*
X17114D1*
X17668D2*
X17861D1*
X21485D2*
X28482D1*
X36692D2*
X42529D1*
X9668Y11327D2*
X17114D1*
X21235D2*
X28482D1*
X36696D2*
X42529D1*
X9668Y11078D2*
X17114D1*
X20989D2*
X28482D1*
X36696D2*
X42529D1*
X9668Y10830D2*
X17114D1*
X20989D2*
X28482D1*
X36700D2*
X42529D1*
X9668Y10581D2*
X17114D1*
X20989D2*
X28482D1*
X36704D2*
X42529D1*
X9668Y10332D2*
X17114D1*
X20989D2*
X28482D1*
X36704D2*
X42529D1*
X9668Y10084D2*
X17114D1*
X20989D2*
X28482D1*
X36707D2*
X42529D1*
X9668Y9835D2*
X17114D1*
X20989D2*
X28482D1*
X36711D2*
X42529D1*
X9668Y9586D2*
X17114D1*
X20989D2*
X28482D1*
X36711D2*
X42529D1*
X9668Y9337D2*
X17224D1*
X20965D2*
X28482D1*
X36715D2*
X42529D1*
X9668Y9089D2*
X17470D1*
X20965D2*
X28482D1*
X36715D2*
X42529D1*
X9668Y8840D2*
X17396D1*
X20879D2*
X28482D1*
X36719D2*
X42529D1*
X9668Y8591D2*
X17150D1*
X24012D2*
X28482D1*
X36723D2*
X42529D1*
X9668Y8343D2*
X16900D1*
X17661D2*
X18556D1*
X24266D2*
X28482D1*
X36723D2*
X42529D1*
X9668Y8094D2*
X16650D1*
X17414D2*
X23747D1*
X24391D2*
X28482D1*
X36727D2*
X42529D1*
X9668Y7845D2*
X11837D1*
X12043D2*
X16388D1*
X17164D2*
X23989D1*
X24193D2*
X28482D1*
X36731D2*
X42529D1*
X9668Y7597D2*
X11138D1*
X12743D2*
X16388D1*
X16934D2*
X28482D1*
X36731D2*
X40458D1*
X41661D2*
X42529D1*
X9668Y7348D2*
X10876D1*
X13000D2*
X28482D1*
X36735D2*
X40107D1*
X42012D2*
X42529D1*
X9668Y7099D2*
X10720D1*
X13161D2*
X28482D1*
X36735D2*
X39907D1*
X42211D2*
X42529D1*
X9668Y6851D2*
X10630D1*
X13250D2*
X29489D1*
X33918D2*
X39786D1*
X42332D2*
X42529D1*
X9668Y6602D2*
X10591D1*
X13289D2*
X29353D1*
X34172D2*
X39724D1*
X42395D2*
X42528D1*
X9668Y6353D2*
X10599D1*
X13282D2*
X29353D1*
X34348D2*
X39708D1*
X9668Y6105D2*
X10657D1*
X13223D2*
X29353D1*
X34454D2*
X39743D1*
X42379D2*
X42533D1*
X9668Y5856D2*
X10767D1*
X13114D2*
X29353D1*
X34516D2*
X39825D1*
X42293D2*
X42529D1*
X9668Y5607D2*
X10954D1*
X12926D2*
X29353D1*
X34551D2*
X39974D1*
X42149D2*
X42529D1*
X9727Y5358D2*
X11279D1*
X12602D2*
X29255D1*
X34551D2*
X40216D1*
X41903D2*
X42529D1*
X9973Y5110D2*
X29005D1*
X34563D2*
X40736D1*
X41383D2*
X42521D1*
X10223Y4861D2*
X28755D1*
X34625D2*
X42466D1*
X34782Y4612D2*
X42318D1*
X35180Y4364D2*
X41927D1*
X41892Y14458D2*
X42157D1*
Y13385D1*
X41083D1*
Y13943D1*
X38745Y16280D1*
X37124D1*
X37122Y16094D1*
X37266Y15952D1*
X37292Y15972D1*
X37405Y16023D1*
X37529Y16020D1*
X37639Y15963D1*
X37716Y15853D1*
X38295Y15273D1*
X38339Y15243D1*
X38413Y15144D1*
X38437Y15032D1*
X38409Y14911D1*
X38373Y14865D1*
X38393Y14834D1*
X38417Y14722D1*
X38389Y14601D1*
X38353Y14555D1*
X38368Y14529D1*
X38392Y14417D1*
X38364Y14296D1*
X38287Y14199D1*
X38175Y14146D1*
X38051Y14147D1*
X37940Y14202D1*
X37848Y14327D1*
X36630Y15545D1*
X36638Y14519D1*
X36712Y7084D1*
X36676Y6966D1*
X36574Y6891D1*
X36510Y6880D1*
X33858D1*
X34055Y6723D1*
X34310Y6387D1*
X34471Y5998D1*
X34525Y5610D1*
Y5216D1*
X34558Y4969D1*
X34643Y4764D1*
X34779Y4585D1*
X34957Y4447D1*
X35164Y4361D1*
X35417Y4326D1*
X41653Y4327D1*
X41915Y4350D1*
X42128Y4431D1*
X42309Y4566D1*
X42446Y4746D1*
X42529Y4956D1*
X42555Y5213D1*
Y19068D1*
X42452Y18967D1*
X42462Y18154D1*
X42426Y18036D1*
X42324Y17961D1*
X42260Y17950D1*
X41436Y17948D1*
X40162Y16677D1*
X39888Y16403D1*
X39778Y16340D1*
X39710Y16330D1*
X39628D1*
X39566Y16311D1*
X41103Y14776D1*
X41087Y14861D1*
Y14985D1*
X41116Y15107D1*
X41173Y15218D1*
X41253Y15313D1*
X41354Y15387D1*
X41429Y15419D1*
X41351Y15457D1*
X41251Y15532D1*
X41171Y15628D1*
X41115Y15739D1*
X41087Y15861D1*
Y15985D1*
X41116Y16107D1*
X41173Y16218D1*
X41253Y16313D1*
X41354Y16387D1*
X41468Y16436D1*
X41591Y16457D1*
X41716Y16450D1*
X41835Y16413D1*
X41943Y16350D1*
X42033Y16264D1*
X42101Y16160D1*
X42143Y16042D1*
X42157Y15922D1*
X42142Y15798D1*
X42099Y15680D1*
X42031Y15576D1*
X41940Y15491D1*
X41813Y15423D1*
X41943Y15350D1*
X42033Y15264D1*
X42101Y15160D1*
X42143Y15042D1*
X42157Y14922D1*
X42142Y14798D1*
X42099Y14680D1*
X42031Y14576D1*
X41940Y14491D1*
X41883Y14458D1*
X12175Y16840D2*
X12189D1*
Y16383D1*
X13262Y16384D1*
X13318Y16423D1*
X13395Y16457D1*
X13478Y16473D1*
X13563Y16468D1*
X13644Y16443D1*
X13716Y16399D1*
X13776Y16340D1*
X13820Y16268D1*
X13846Y16187D1*
X13851Y16102D1*
X13837Y16019D1*
X13803Y15942D1*
X13689Y15813D1*
X13592Y15730D1*
X13515Y15696D1*
X13410Y15680D1*
X11110D1*
X10988Y15701D1*
X10861Y15783D1*
X10538Y16106D1*
X9641Y15208D1*
X9642Y5414D1*
X10227Y4833D1*
X28756Y4834D1*
X29378Y5457D1*
Y6572D1*
X29400Y6694D1*
X29463Y6801D1*
X29563Y6881D1*
X28710Y6880D1*
X28593Y6917D1*
X28519Y7019D1*
X28508Y7082D1*
Y14289D1*
X28072Y14722D1*
X28073Y14224D1*
X28097Y14112D1*
X28069Y13991D1*
X27992Y13894D1*
X27880Y13841D1*
X27756Y13842D1*
X27645Y13897D1*
X27569Y13995D1*
X27543Y14116D1*
X27568Y14237D1*
Y15795D1*
X26368Y16997D1*
X25100Y16469D1*
X25127Y16335D1*
X25099Y16214D1*
X25022Y16118D1*
X24910Y16065D1*
X24786Y16066D1*
X24675Y16121D1*
X24599Y16219D1*
X24591Y16253D1*
X23986Y16003D1*
X23665Y15869D1*
X23662Y15682D1*
X23629Y15559D1*
X23588Y15503D1*
X23259Y15175D1*
X23262Y14282D1*
Y14082D1*
X23229Y13959D1*
X23188Y13903D1*
X22163Y12879D1*
X22162Y12382D1*
X22129Y12259D1*
X22088Y12203D1*
X20964Y11079D1*
X20962Y9584D1*
X20967Y9532D1*
X20942Y9407D1*
Y9032D1*
X20909Y8909D1*
X20849Y8834D1*
X23640D1*
X23763Y8801D1*
X23818Y8760D1*
X24224Y8354D1*
X24269Y8323D1*
X24343Y8224D1*
X24367Y8112D1*
X24339Y7991D1*
X24262Y7894D1*
X24150Y7841D1*
X24026Y7842D1*
X23915Y7897D1*
X23839Y7995D1*
X23830Y8037D1*
X23537Y8328D1*
X18831Y8330D1*
X18780Y8311D1*
X18656Y8312D1*
X18545Y8367D1*
X18469Y8465D1*
X18455Y8529D1*
X17827Y8530D1*
X16918Y7623D1*
X16832Y7504D1*
X16720Y7451D1*
X16596Y7452D1*
X16485Y7507D1*
X16409Y7605D1*
X16383Y7726D1*
X16413Y7847D1*
X16492Y7942D1*
X16552Y7969D1*
X17569Y8982D1*
X17515Y9070D1*
X17212Y9373D1*
X17148Y9483D1*
X17138Y9552D1*
Y12384D1*
X17113Y12506D1*
X17143Y12627D1*
X17222Y12722D1*
X17335Y12773D1*
X17459Y12770D1*
X17569Y12713D1*
X17643Y12614D1*
X17667Y12502D1*
X17642Y12377D1*
Y11068D1*
X20359Y16725D1*
X20391Y16864D1*
X20432Y16920D1*
X22324Y18812D1*
X22338Y18972D1*
Y19522D1*
X22371Y19644D1*
X22412Y19700D1*
X22779Y20067D1*
X22778Y20712D1*
X22811Y20834D1*
X22852Y20890D1*
X23130Y21168D1*
X23128Y21987D1*
X20232Y24883D1*
X20168Y24993D1*
X20158Y25062D1*
Y25206D1*
X20109Y25142D1*
X20010Y25067D1*
X19892Y25026D1*
X19768Y25023D1*
X19648Y25059D1*
X19536Y25138D1*
X18865Y25809D1*
X18300Y25810D1*
X18177Y25829D1*
X18066Y25885D1*
X17977Y25972D1*
X17919Y26082D1*
X17898Y26205D1*
X17909Y26286D1*
X17782Y26158D1*
X17692Y26036D1*
X17580Y25983D1*
X17456Y25984D1*
X17345Y26039D1*
X17269Y26137D1*
X17244Y26258D1*
X17274Y26378D1*
X17353Y26474D1*
X17413Y26501D1*
X17672Y26761D1*
X17782Y26824D1*
X17850Y26834D1*
X19103D1*
X19383Y27117D1*
X19393Y27143D1*
X19472Y27238D1*
X19585Y27289D1*
X19709Y27286D1*
X19819Y27229D1*
X19894Y27130D1*
X19916Y27014D1*
X20576D1*
X22189Y28627D1*
X22188Y29762D1*
X22221Y29884D1*
X22189Y29955D1*
X22163Y30076D1*
X22188Y30197D1*
Y30865D1*
X22093Y30962D1*
X20950Y30960D1*
X11524D1*
X11499Y30831D1*
X11422Y30734D1*
X11362Y30706D1*
X10912Y30257D1*
Y27292D1*
X10879Y27169D1*
X10838Y27113D1*
X10438Y26713D1*
X10328Y26650D1*
X10260Y26640D1*
X10014D1*
X9960Y26621D1*
X9836Y26622D1*
X9725Y26677D1*
X9649Y26775D1*
X9623Y26896D1*
X9653Y27017D1*
X9732Y27112D1*
X9845Y27163D1*
X9969Y27160D1*
X10000Y27144D1*
X10153D1*
X10201Y27188D1*
X10149Y27265D1*
X10123Y27386D1*
X10148Y27507D1*
Y30722D1*
X10181Y30844D1*
X10222Y30900D1*
X10457Y31135D1*
X4760Y31130D1*
X4327D1*
X4325Y25064D1*
Y23732D1*
X9038Y18969D1*
X9210Y18793D1*
X9245Y18709D1*
X9249Y15814D1*
X10187Y16750D1*
X10186Y24670D1*
X10208Y24792D1*
X10289Y24919D1*
X15081Y29710D1*
X15183Y29781D1*
X15330Y29814D1*
X16360D1*
X16482Y29792D1*
X16590Y29728D1*
X16668Y29632D1*
X16708Y29514D1*
X16705Y29390D1*
X16658Y29275D1*
X16575Y29183D1*
X16464Y29125D1*
X16360Y29110D1*
X15473D1*
X11601Y25235D1*
X10892Y24525D1*
X10890Y22986D1*
X13122Y25219D1*
X13133Y25247D1*
X13212Y25342D1*
X13325Y25393D1*
X13449Y25390D1*
X13559Y25333D1*
X13633Y25234D1*
X13657Y25122D1*
X13629Y25001D1*
X13552Y24904D1*
X13492Y24876D1*
X11053Y22438D1*
X11052Y18592D1*
X11224Y18424D1*
X12900D1*
X13023Y18391D1*
X13078Y18350D1*
X13153Y18275D1*
X13277Y18219D1*
X13357Y18123D1*
X13392Y17982D1*
X13367Y17860D1*
X13333Y17813D1*
X13353Y17774D1*
X13377Y17662D1*
X13349Y17541D1*
X13272Y17444D1*
X13160Y17391D1*
X13036Y17392D1*
X12925Y17447D1*
X12833Y17572D1*
X12643Y17762D1*
X12027Y17760D1*
X12109Y17680D1*
X12168Y17570D1*
X12189Y17442D1*
X12169Y17319D1*
X12099Y17194D1*
X12168Y17070D1*
X12189Y16942D1*
X12172Y16838D1*
X41640Y36647D2*
X41594Y36402D1*
X41502Y36169D1*
X41368Y35959D1*
X41197Y35777D1*
X40995Y35630D1*
X40769Y35524D1*
X40528Y35462D1*
X40278Y35446D1*
X40031Y35477D1*
X39793Y35554D1*
X39575Y35675D1*
X39382Y35834D1*
X39223Y36026D1*
X39103Y36245D1*
X39026Y36482D1*
X38994Y36730D1*
X39010Y36979D1*
X39072Y37221D1*
X39178Y37447D1*
X39325Y37649D1*
X39507Y37819D1*
X39687Y37936D1*
X23844Y37937D1*
Y37552D1*
X23903Y37610D1*
X24013Y37673D1*
X24081Y37684D1*
X37260D1*
X37383Y37651D1*
X37438Y37610D1*
X39667Y35381D1*
X41563D1*
X41685Y35348D1*
X41741Y35307D1*
X42550Y34496D1*
X42555Y34955D1*
Y37062D1*
X42525Y37307D1*
X42441Y37511D1*
X42306Y37688D1*
X42130Y37822D1*
X41925Y37906D1*
X41676Y37937D1*
X40954D1*
X41133Y37820D1*
X41315Y37649D1*
X41462Y37447D1*
X41568Y37221D1*
X41630Y36979D1*
X41646Y36772D1*
X41640Y36647D1*
X13260Y6397D2*
X13214Y6152D1*
X13122Y5919D1*
X12988Y5709D1*
X12817Y5527D1*
X12615Y5380D1*
X12389Y5274D1*
X12148Y5212D1*
X11898Y5196D1*
X11651Y5227D1*
X11413Y5304D1*
X11195Y5425D1*
X11002Y5584D1*
X10843Y5776D1*
X10723Y5995D1*
X10646Y6232D1*
X10614Y6480D1*
X10630Y6729D1*
X10692Y6971D1*
X10798Y7197D1*
X10945Y7399D1*
X11127Y7569D1*
X11338Y7703D1*
X11570Y7795D1*
X11815Y7842D1*
X12065D1*
X12310Y7795D1*
X12542Y7703D1*
X12753Y7570D1*
X12935Y7399D1*
X13082Y7197D1*
X13188Y6971D1*
X13250Y6729D1*
X13266Y6522D1*
X13260Y6397D1*
X42380Y6277D2*
X42334Y6032D1*
X42242Y5799D1*
X42108Y5589D1*
X41937Y5407D1*
X41735Y5260D1*
X41509Y5154D1*
X41268Y5092D1*
X41018Y5076D1*
X40771Y5107D1*
X40533Y5184D1*
X40315Y5305D1*
X40122Y5464D1*
X39963Y5656D1*
X39843Y5875D1*
X39766Y6112D1*
X39734Y6360D1*
X39750Y6609D1*
X39812Y6851D1*
X39918Y7077D1*
X40065Y7279D1*
X40247Y7449D1*
X40458Y7583D1*
X40690Y7675D1*
X40935Y7722D1*
X41185D1*
X41430Y7675D1*
X41662Y7583D1*
X41873Y7450D1*
X42055Y7279D1*
X42202Y7077D1*
X42308Y6851D1*
X42370Y6609D1*
X42386Y6402D1*
X42380Y6277D1*
X21670Y37684D2*
X23143D1*
X23266Y37651D1*
X23340Y37590D1*
Y37940D1*
X22809Y37937D1*
X20204D1*
X20643Y37500D1*
X20782Y37568D1*
X20906Y37565D1*
X20936Y37549D1*
X21309D1*
X21366Y37610D1*
X21477Y37673D1*
X21545Y37684D1*
X21670D1*
X9178Y22415D2*
Y24626D1*
X9155Y24650D1*
X9076Y24696D1*
X9000Y24794D1*
X8974Y24915D1*
X9004Y25035D1*
X9083Y25131D1*
X9196Y25182D1*
X9320Y25178D1*
X9430Y25122D1*
X9507Y25012D1*
X9608Y24910D1*
X9672Y24800D1*
X9682Y24732D1*
X9683Y22414D1*
X9707Y22302D1*
X9679Y22181D1*
X9602Y22084D1*
X9490Y22031D1*
X9366Y22032D1*
X9255Y22087D1*
X9179Y22185D1*
X9153Y22306D1*
X9178Y22408D1*
X21575Y36820D2*
X23135D1*
X24083D2*
X24510D1*
X24790D2*
X24920D1*
X26095D2*
X26502D1*
X29302D2*
X37021D1*
X21298Y36572D2*
X25193D1*
X25747D2*
X26494D1*
X29571D2*
X37267D1*
X21548Y36323D2*
X24537D1*
X24841D2*
X25193D1*
X25747D2*
X29037D1*
X29712D2*
X37517D1*
X21798Y36074D2*
X24389D1*
X24993D2*
X25193D1*
X25747D2*
X27158D1*
X28735D2*
X29283D1*
X29536D2*
X37767D1*
X22044Y35826D2*
X22736D1*
X24966D2*
X25193D1*
X25747D2*
X26892D1*
X29099D2*
X36084D1*
X36907D2*
X38014D1*
X22294Y35577D2*
X22799D1*
X24786D2*
X25193D1*
X25747D2*
X26642D1*
X29345D2*
X35787D1*
X36903D2*
X38264D1*
X22544Y35328D2*
X23756D1*
X23895D2*
X25174D1*
X25763D2*
X26396D1*
X29595D2*
X35717D1*
X36321D2*
X38514D1*
X22790Y35080D2*
X25264D1*
X26911D2*
X29080D1*
X29845D2*
X38760D1*
X23040Y34831D2*
X25209D1*
X26661D2*
X29330D1*
X30228D2*
X39010D1*
X23290Y34582D2*
X29580D1*
X30255D2*
X39271D1*
X23536Y34334D2*
X41517D1*
X23786Y34085D2*
X41764D1*
X24024Y33836D2*
X41771D1*
X24056Y33588D2*
X41771D1*
X24056Y33339D2*
X41771D1*
X24056Y33090D2*
X41771D1*
X24056Y32841D2*
X41771D1*
X24056Y32593D2*
X41771D1*
X24056Y32344D2*
X41771D1*
X24056Y32095D2*
X41771D1*
X24056Y31847D2*
X41771D1*
X24056Y31598D2*
X41771D1*
X24056Y31349D2*
X41771D1*
X24056Y31101D2*
X31502D1*
X21665Y30852D2*
X22162D1*
X24056D2*
X31463D1*
X21708Y30603D2*
X22162D1*
X24056D2*
X31467D1*
X21755Y30355D2*
X22162D1*
X24056D2*
X31471D1*
X21798Y30106D2*
X22139D1*
X24056D2*
X31471D1*
X21841Y29857D2*
X22181D1*
X24056D2*
X31474D1*
X21884Y29609D2*
X22162D1*
X24099D2*
X31474D1*
X21927Y29360D2*
X22162D1*
X24349D2*
X31478D1*
X21974Y29111D2*
X22162D1*
X27091D2*
X31482D1*
X22017Y28862D2*
X22162D1*
X27341D2*
X31482D1*
X27618Y28614D2*
X31486D1*
X27646Y28365D2*
X30260D1*
X24075Y28116D2*
X24353D1*
X27728D2*
X30142D1*
X22192Y27868D2*
X22443D1*
X24075D2*
X24603D1*
X27978D2*
X30119D1*
X22235Y27619D2*
X22443D1*
X24075D2*
X24752D1*
X25251D2*
X25514D1*
X28224D2*
X30064D1*
X22278Y27370D2*
X22443D1*
X24075D2*
X25623D1*
X28474D2*
X30064D1*
X24075Y27122D2*
X25732D1*
X28724D2*
X30064D1*
X24075Y26873D2*
X25982D1*
X24220Y26624D2*
X25994D1*
X24466Y26376D2*
X25994D1*
X24716Y26127D2*
X25994D1*
X25626Y25878D2*
X25994D1*
X30495Y28383D2*
X30656D1*
X30787Y28455D1*
X30985Y28464D1*
X31512D1*
X31488Y30980D1*
X31524Y31097D1*
X31626Y31172D1*
X31691Y31184D1*
X41796Y31154D1*
X41798Y34076D1*
X41328Y34547D1*
X39555Y34550D1*
X39420D1*
X39297Y34583D1*
X39242Y34623D1*
X37007Y36858D1*
X32860Y36860D1*
X29239D1*
X29507Y36591D1*
X29589Y36543D1*
X29663Y36444D1*
X29687Y36332D1*
X29659Y36211D1*
X29582Y36114D1*
X29470Y36061D1*
X29346Y36062D1*
X29235Y36117D1*
X29143Y36242D1*
X28947Y36438D1*
X26882Y36440D1*
X26830Y36421D1*
X26706Y36422D1*
X26595Y36477D1*
X26519Y36575D1*
X26493Y36696D1*
X26523Y36817D1*
X26602Y36912D1*
X26715Y36963D1*
X26839Y36960D1*
X26870Y36944D1*
X27297D1*
X27335Y37022D1*
X26121Y37020D1*
X26127Y36987D1*
X26099Y36866D1*
X26022Y36769D1*
X25910Y36716D1*
X25786Y36717D1*
X25747Y36736D1*
X25721Y36735D1*
X25723Y35504D1*
X25747Y35392D1*
X25719Y35271D1*
X25642Y35174D1*
X25603Y35156D1*
X26246Y35154D1*
X27122Y36030D1*
X27232Y36093D1*
X27300Y36104D1*
X27522Y36110D1*
X27566Y36145D1*
X27617Y36169D1*
X27700Y36184D1*
X28391D1*
X28426Y36193D1*
X28549Y36190D1*
X28660Y36133D1*
X28734Y36034D1*
X28745Y35981D1*
X28810Y35984D1*
X28933Y35951D1*
X28988Y35910D1*
X29941Y34957D1*
X30038Y34949D1*
X30149Y34892D1*
X30223Y34792D1*
X30246Y34680D1*
X30219Y34560D1*
X30141Y34463D1*
X30029Y34410D1*
X29905Y34411D1*
X29867Y34430D1*
X29830D1*
X29715Y34475D1*
X29329Y34856D1*
X28879Y35306D1*
X28790Y35271D1*
X28666Y35272D1*
X28628Y35291D1*
X28406Y35290D1*
X28350Y35271D1*
X28276Y35272D1*
X28258Y35254D1*
X28146Y35201D1*
X28023Y35202D1*
X27984Y35221D1*
X27528Y35220D1*
X27470Y35201D1*
X27346Y35202D1*
X27235Y35257D1*
X27161Y35352D1*
X26594Y34789D1*
X26528Y34723D1*
X26418Y34660D1*
X26350Y34650D1*
X25612D1*
X25560Y34631D1*
X25436Y34632D1*
X25325Y34687D1*
X25249Y34785D1*
X25223Y34906D1*
X25253Y35027D1*
X25332Y35122D1*
X25364Y35136D1*
X25295Y35177D1*
X25219Y35275D1*
X25193Y35396D1*
X25218Y35517D1*
Y36841D1*
X25120Y36801D1*
X24996Y36802D1*
X24930Y36835D1*
X24790D1*
X24710Y36801D1*
X24586Y36802D1*
X24475Y36857D1*
X24399Y36955D1*
X24385Y37019D1*
X24254Y37020D1*
X24061Y36822D1*
X23951Y36759D1*
X23882Y36748D1*
X23338D1*
X23215Y36781D1*
X23159Y36822D1*
X22963Y37018D1*
X21750Y37019D1*
X21544Y36815D1*
X21433Y36752D1*
X21365Y36741D1*
X21104D1*
X23961Y33885D1*
X24023Y33775D1*
X24032Y33714D1*
Y29648D1*
X24544Y29140D1*
X24602Y29202D1*
X24715Y29253D1*
X24839Y29250D1*
X24870Y29234D1*
X26840D1*
X26963Y29201D1*
X27018Y29160D1*
X27457Y28721D1*
X27539Y28673D1*
X27613Y28574D1*
X27637Y28462D1*
X27609Y28341D1*
X27549Y28265D1*
X27936Y27883D1*
X28775Y27044D1*
X30015Y27043D1*
X30088Y27117D1*
Y27692D1*
X30116Y27816D1*
X30133Y27849D1*
X30160Y27963D1*
X30168Y28189D1*
X30210Y28305D1*
X30315Y28375D1*
X30370Y28384D1*
X30495Y28383D1*
X22188Y28627D2*
Y29762D1*
X22221Y29884D1*
X22189Y29955D1*
X22163Y30076D1*
X22188Y30197D1*
Y30865D1*
X22093Y30962D1*
X21618Y30960D1*
X21690Y30573D1*
X22056Y28492D1*
X22189Y28627D1*
X22466Y28191D2*
X22162Y27888D1*
X22468Y26167D1*
Y28194D1*
X24725Y27770D2*
X24256Y28240D1*
X24114D1*
X24053Y28178D1*
X24052Y26763D1*
X24815Y26003D1*
X25370Y26004D1*
X25493Y25971D1*
X25548Y25930D1*
X25678Y25800D1*
X26017Y25854D1*
X26018Y26865D1*
X25719Y27160D1*
X25657Y27271D1*
X25648Y27332D1*
Y27515D1*
X25241Y27918D1*
X25277Y27782D1*
X25249Y27661D1*
X25172Y27564D1*
X25060Y27511D1*
X24936Y27512D1*
X24825Y27567D1*
X24749Y27665D1*
X24727Y27767D1*
X24942Y35964D2*
Y35862D1*
X24909Y35739D1*
X24868Y35683D1*
X24608Y35423D1*
X24498Y35360D1*
X24430Y35350D1*
X23942D1*
X23886Y35331D1*
X23762Y35332D1*
X23724Y35351D1*
X23190Y35350D1*
X23067Y35383D1*
X23012Y35423D1*
X22932Y35503D1*
X22855Y35547D1*
X22779Y35645D1*
X22753Y35766D1*
X22783Y35887D1*
X22862Y35982D1*
X22975Y36033D1*
X23099Y36030D1*
X23209Y35973D1*
X23286Y35863D1*
X23315Y35854D1*
X23710D1*
X23771Y35873D1*
X23895Y35870D1*
X23926Y35854D1*
X24323D1*
X24436Y35964D1*
X24413Y36082D1*
X24443Y36202D1*
X24522Y36297D1*
X24635Y36348D1*
X24759Y36345D1*
X24869Y36288D1*
X24943Y36189D1*
X24967Y36077D1*
X24942Y35967D1*
X24940Y35830D1*
X24895Y35715D1*
X36456Y35947D2*
X36499D1*
X36578Y35976D1*
X36702Y35973D1*
X36812Y35916D1*
X36886Y35817D1*
X36910Y35705D1*
X36882Y35584D1*
X36805Y35487D1*
X36693Y35434D1*
X36569Y35435D1*
X36510Y35465D1*
X36414Y35445D1*
X36278Y35310D1*
X36262Y35265D1*
X36184Y35169D1*
X36072Y35116D1*
X35948Y35117D1*
X35837Y35172D1*
X35761Y35270D1*
X35736Y35391D1*
X35765Y35511D1*
X35845Y35607D1*
X35926Y35643D1*
X36160Y35876D1*
X36271Y35938D1*
X36331Y35947D1*
X36456D1*
D34*
X15160Y34902D3*
D35*
X14160D3*
X15160Y35902D3*
X14160D3*
X15160Y36902D3*
X14160D3*
D34*
X18160Y34402D3*
D35*
X17160D3*
X18160Y35402D3*
X17160D3*
X18160Y36402D3*
X17160D3*
X18160Y37402D3*
X17160D3*
D34*
X12160Y36902D3*
D35*
X11160D3*
X10160D3*
X9160D3*
D34*
X12160Y35892D3*
D35*
X11160D3*
X10160D3*
X9160D3*
D34*
X12160Y34892D3*
D35*
X11160D3*
X10160D3*
X9160D3*
D34*
X41620Y13922D3*
D35*
Y14922D3*
Y15922D3*
Y16922D3*
D40*
X11790Y16442D3*
D41*
Y16942D3*
Y17442D3*
X11290Y16442D3*
Y16942D3*
Y17442D3*
D34*
X19160Y34402D3*
D35*
Y35402D3*
Y36402D3*
M02*
