M48
INCH
T01C0.008
T02C0.011
T03C0.0276
T04C0.0433
T05C0.11
%
T01
X+023592Y+037334
X+023592Y+037993
T02
X+024310Y+022482
X+024310Y+022182
X+024610Y+022182
X+024610Y+022482
X+024910Y+022482
X+024910Y+022182
X+024610Y+021882
X+024310Y+021882
X+024230Y+020882
X+023220Y+020202
X+025520Y+019292
X+025340Y+018882
X+025130Y+018592
X+024530Y+016822
X+024850Y+016335
X+023410Y+015982
X+023910Y+014582
X+024910Y+014582
X+024910Y+013582
X+023910Y+013582
X+023910Y+012582
X+024910Y+012582
X+025910Y+012582
X+025910Y+013582
X+025910Y+014582
X+026910Y+013582
X+026910Y+012582
X+027910Y+012582
X+027820Y+014112
X+028940Y+014352
X+028790Y+015042
X+028280Y+017152
X+027260Y+020742
X+027460Y+023242
X+025710Y+024082
X+025410Y+024082
X+025410Y+023782
X+025110Y+023782
X+025110Y+024082
X+024810Y+024082
X+024810Y+023782
X+024510Y+023782
X+024510Y+023482
X+024810Y+023482
X+024800Y+024962
X+024990Y+025152
X+025190Y+025342
X+025410Y+025282
X+025410Y+026082
X+025310Y+026282
X+025210Y+026482
X+025010Y+026682
X+024910Y+026882
X+024810Y+027082
X+025210Y+027082
X+025310Y+026882
X+025410Y+026682
X+025610Y+026482
X+025710Y+026282
X+025810Y+026082
X+025810Y+026682
X+025710Y+026882
X+025610Y+027082
X+026290Y+027492
X+026490Y+027632
X+026070Y+027952
X+025910Y+028182
X+025660Y+028372
X+025080Y+028642
X+024770Y+028982
X+024910Y+029582
X+024910Y+030582
X+025910Y+030582
X+025910Y+029582
X+026910Y+029582
X+027910Y+029582
X+027910Y+030582
X+026910Y+030582
X+026910Y+031582
X+025910Y+031582
X+024910Y+031582
X+022720Y+029732
X+022440Y+030072
X+020910Y+029582
X+019910Y+029582
X+019910Y+028582
X+020910Y+028582
X+021100Y+026862
X+022370Y+026972
X+022370Y+027362
X+023610Y+028552
X+025000Y+027782
X+024810Y+026482
X+024910Y+026282
X+025010Y+026082
X+026260Y+025502
X+026470Y+025642
X+027310Y+026102
X+027350Y+026702
X+027060Y+027062
X+027360Y+028462
X+028410Y+028182
X+028410Y+027982
X+028410Y+027782
X+028710Y+027782
X+028710Y+027982
X+028710Y+028182
X+029010Y+028182
X+029010Y+027982
X+029010Y+027782
X+029310Y+027782
X+029310Y+027982
X+029310Y+028182
X+028910Y+029582
X+028910Y+030582
X+029910Y+030582
X+029910Y+031582
X+028910Y+031582
X+027910Y+031582
X+028160Y+034082
X+027660Y+034082
X+028020Y+034932
X+028320Y+034932
X+028087Y+035472
X+028290Y+035542
X+028481Y+035922
X+028730Y+035542
X+027890Y+035744
X+027640Y+035852
X+027410Y+035472
X+026910Y+036082
X+026410Y+035832
X+025910Y+035832
X+025470Y+035392
X+025500Y+034902
X+025160Y+035832
X+024910Y+036082
X+024690Y+036077
X+024035Y+036332
X+024035Y+036582
X+023785Y+036582
X+023785Y+036332
X+023826Y+035602
X+023030Y+035762
X+022410Y+036082
X+022410Y+036582
X+022410Y+037082
X+022910Y+037082
X+021910Y+037082
X+020837Y+037297
X+020105Y+037400
X+019760Y+037468
X+020250Y+036242
X+024650Y+037072
X+025060Y+037072
X+025850Y+036987
X+026770Y+036692
X+026910Y+037082
X+027570Y+036882
X+029410Y+036332
X+029969Y+034680
X+031910Y+030582
X+032110Y+030582
X+032110Y+030382
X+032110Y+030182
X+032110Y+029982
X+031910Y+029982
X+031910Y+030182
X+031910Y+030382
X+032310Y+030382
X+032510Y+030382
X+032510Y+030182
X+032310Y+030182
X+032310Y+029982
X+032510Y+029982
X+032510Y+030582
X+032310Y+030582
X+033090Y+028162
X+032310Y+027582
X+032310Y+027282
X+032310Y+026982
X+032010Y+026982
X+032010Y+027282
X+032010Y+027582
X+031710Y+027582
X+031410Y+027582
X+031410Y+027282
X+031410Y+026982
X+031710Y+026982
X+031710Y+027282
X+032630Y+025492
X+033900Y+024872
X+034290Y+023712
X+034270Y+023462
X+035740Y+024682
X+030210Y+024482
X+030210Y+024082
X+030210Y+023682
X+029810Y+023682
X+029810Y+024082
X+029810Y+024482
X+029410Y+024482
X+029410Y+024082
X+029410Y+023682
X+030630Y+022312
X+028930Y+026122
X+022720Y+024292
X+022570Y+023922
X+022780Y+023712
X+023000Y+023492
X+019820Y+025422
X+019640Y+027017
X+018910Y+027582
X+018910Y+028582
X+017910Y+028582
X+017910Y+029582
X+017910Y+030582
X+018910Y+030582
X+018910Y+029582
X+019910Y+030582
X+020910Y+030582
X+016910Y+030582
X+016910Y+029582
X+016360Y+029462
X+017521Y+026253
X+018300Y+026212
X+015910Y+022582
X+014910Y+022582
X+014910Y+021582
X+015910Y+021582
X+016910Y+021582
X+016910Y+020582
X+015910Y+020582
X+014910Y+020582
X+013910Y+020582
X+012910Y+020582
X+012910Y+021582
X+013910Y+021582
X+013910Y+022582
X+012910Y+022582
X+011910Y+022582
X+011910Y+021582
X+011910Y+020582
X+012910Y+019582
X+013910Y+019582
X+014910Y+019582
X+015910Y+019582
X+016910Y+019582
X+017910Y+019582
X+017910Y+020582
X+015910Y+017482
X+015710Y+017282
X+015510Y+017482
X+015310Y+017282
X+013500Y+016122
X+013100Y+017662
X+013090Y+017982
X+010538Y+018302
X+010160Y+022332
X+009430Y+022302
X+010538Y+024670
X+009251Y+024910
X+008160Y+025082
X+007410Y+025082
X+007410Y+024332
X+007910Y+027582
X+007910Y+028582
X+007910Y+029582
X+008910Y+029582
X+009910Y+029582
X+009910Y+028582
X+008910Y+028582
X+008910Y+027582
X+009910Y+027582
X+010400Y+027382
X+009900Y+026892
X+013380Y+025122
X+011250Y+030952
X+006910Y+031582
X+006910Y+032582
X+006910Y+033582
X+006910Y+034582
X+005910Y+034582
X+004910Y+034582
X+004910Y+033582
X+004910Y+032582
X+004910Y+031582
X+005910Y+031582
X+005910Y+032582
X+005910Y+033582
X+015910Y+014582
X+015910Y+013582
X+016910Y+013582
X+016910Y+014582
X+017910Y+014582
X+017910Y+013582
X+018910Y+013582
X+018910Y+014582
X+020590Y+015882
X+020430Y+012102
X+018710Y+010282
X+018510Y+010282
X+018310Y+010282
X+018110Y+010282
X+017910Y+010282
X+017710Y+010282
X+017810Y+010082
X+018010Y+010082
X+018210Y+010082
X+018410Y+010082
X+018610Y+010082
X+018510Y+009882
X+018310Y+009882
X+018110Y+009882
X+017910Y+009882
X+017710Y+009882
X+016910Y+009582
X+015910Y+009582
X+015910Y+010582
X+015910Y+011582
X+016910Y+011582
X+016910Y+010582
X+018710Y+009882
X+018720Y+008582
X+016910Y+008582
X+016660Y+007722
X+015910Y+007582
X+015910Y+008582
X+015910Y+012582
X+016910Y+012582
X+017390Y+012502
X+020690Y+009532
X+020480Y+009162
X+021910Y+007582
X+021910Y+006582
X+022910Y+006582
X+022910Y+007582
X+023910Y+007582
X+024090Y+008112
X+023910Y+006582
X+029730Y+006572
X+031010Y+008082
X+031010Y+008282
X+031010Y+008482
X+031010Y+008682
X+031310Y+008682
X+031310Y+008482
X+031310Y+008282
X+031310Y+008082
X+031610Y+008082
X+031610Y+008282
X+031610Y+008482
X+031610Y+008682
X+031910Y+008682
X+031910Y+008482
X+031910Y+008282
X+031910Y+008082
X+034610Y+008182
X+034610Y+008482
X+034610Y+008782
X+034610Y+009082
X+034910Y+009082
X+034910Y+008782
X+035210Y+008782
X+035210Y+008482
X+035510Y+008482
X+035510Y+008182
X+035810Y+008182
X+035810Y+008482
X+035810Y+008782
X+035810Y+009082
X+035510Y+009082
X+035510Y+008782
X+035210Y+009082
X+034910Y+008482
X+034910Y+008182
X+035210Y+008182
X+038115Y+014417
X+038140Y+014722
X+038160Y+015032
X+037460Y+015752
X+037110Y+016582
X+036990Y+017312
X+038100Y+016862
X+039510Y+016582
X+039740Y+016302
X+038850Y+018122
X+035650Y+017532
X+035865Y+016046
X+035800Y+015792
X+034950Y+016046
X+034530Y+015792
X+036013Y+035386
X+036633Y+035705
T03
X+011790Y+016442
X+011790Y+016942
X+011790Y+017442
X+011290Y+017442
X+011290Y+016942
X+011290Y+016442
T04
X+015160Y+034902
X+014160Y+034902
X+014160Y+035902
X+015160Y+035902
X+015160Y+036902
X+014160Y+036902
X+012160Y+036902
X+011160Y+036902
X+010160Y+036902
X+009160Y+036902
X+009160Y+035892
X+010160Y+035892
X+011160Y+035892
X+012160Y+035892
X+012160Y+034892
X+011160Y+034892
X+010160Y+034892
X+009160Y+034892
X+017160Y+034402
X+018160Y+034402
X+019160Y+034402
X+019160Y+035402
X+018160Y+035402
X+017160Y+035402
X+017160Y+036402
X+017160Y+037402
X+018160Y+037402
X+018160Y+036402
X+019160Y+036402
X+041620Y+016922
X+041620Y+015922
X+041620Y+014922
X+041620Y+013922
T05
X+040320Y+036772
X+041060Y+006402
X+011940Y+006522
X+006500Y+036772
T00
M30
