G04 DipTrace 2.4.0.2*
%INTopMask.gbr*%
%MOIN*%
%ADD56R,0.136X0.136*%
%ADD57R,0.01X0.026*%
%ADD58R,0.01X0.028*%
%ADD59R,0.063X0.035*%
%ADD66R,0.087X0.024*%
%ADD75C,0.11*%
%ADD82R,0.0749X0.0686*%
%ADD84O,0.0159X0.03*%
%ADD86O,0.03X0.0159*%
%ADD88R,0.071X0.0434*%
%ADD90O,0.019X0.0277*%
%ADD92R,0.0789X0.0237*%
%ADD96R,0.0283X0.0198*%
%ADD98R,0.0198X0.0283*%
%ADD100R,0.0316X0.0828*%
%ADD102O,0.0415X0.0198*%
%ADD112R,0.0275X0.022*%
%ADD114R,0.134X0.0789*%
%ADD116R,0.0277X0.0415*%
%ADD118R,0.1035X0.0828*%
%ADD120R,0.026X0.0241*%
%ADD122R,0.026X0.0328*%
%ADD124R,0.0828X0.1035*%
%ADD126R,0.0241X0.026*%
%ADD128R,0.0328X0.026*%
%ADD130R,0.0336X0.0493*%
%ADD132R,0.0434X0.0375*%
%ADD134R,0.054X0.193*%
%ADD136R,0.0835X0.118*%
%ADD138C,0.0474*%
%ADD140R,0.0474X0.0474*%
%ADD142R,0.0308X0.0566*%
%ADD144R,0.09X0.0444*%
%ADD146R,0.0316X0.0316*%
%ADD148C,0.0749*%
%ADD150R,0.0749X0.0749*%
%ADD152R,0.071X0.0789*%
%ADD154R,0.071X0.1143*%
%ADD156R,0.0789X0.071*%
%ADD158R,0.0592X0.0671*%
%ADD160R,0.0513X0.0474*%
%ADD162R,0.067X0.0986*%
%ADD164R,0.0356X0.138*%
%ADD166R,0.051X0.0986*%
%ADD168R,0.0356X0.0946*%
%ADD170R,0.0474X0.0513*%
%FSLAX44Y44*%
G04*
G70*
G90*
G75*
G01*
%LNTopMask*%
%LPD*%
D170*
X35280Y16632D3*
Y17302D3*
X34810Y16652D3*
Y17321D3*
X34340Y16652D3*
Y17322D3*
D168*
X32293Y9358D3*
X31093D3*
X31693D3*
D166*
X33583Y7962D3*
X30403D3*
D168*
X32893Y9358D3*
D164*
X31790Y11772D3*
X32390D3*
D162*
X29220Y12512D3*
X34960D3*
D164*
X32980Y11772D3*
X33570D3*
X34160D3*
X31200D3*
X30610D3*
X30020D3*
D170*
X23140Y27272D3*
Y26602D3*
X21600Y26892D3*
Y26222D3*
X22150D3*
Y25552D3*
Y25032D3*
Y24362D3*
X29830Y26122D3*
Y26791D3*
X28690Y16362D3*
Y15692D3*
X23770Y24712D3*
Y25381D3*
D160*
X28240Y13262D3*
X28909D3*
D170*
X20120Y23022D3*
Y23691D3*
D160*
X20100Y24292D3*
X20769D3*
D170*
X20740Y27222D3*
Y27891D3*
X23220Y25382D3*
Y24712D3*
D158*
X23118Y28662D3*
X22370D3*
D156*
X31080Y25172D3*
Y26274D3*
D170*
X29110Y36332D3*
Y37001D3*
X25290Y16442D3*
Y15772D3*
D160*
X18970Y7752D3*
X19639D3*
D158*
X28540Y27402D3*
X27792D3*
D170*
X33790Y24402D3*
Y23732D3*
D160*
X28500Y25602D3*
X27831D3*
D170*
X28480Y23681D3*
Y23012D3*
D160*
X29390Y22162D3*
X28721D3*
D154*
X17910Y6522D3*
X19012D3*
D156*
X32030Y25182D3*
Y26284D3*
D160*
X27830Y24792D3*
X28499D3*
X20955Y7746D3*
X20285D3*
D152*
X34920Y26422D3*
X33818D3*
D158*
X30630Y29042D3*
X31378D3*
D160*
X18610Y12922D3*
X19279D3*
D158*
X23118Y27902D3*
X22370D3*
X27790Y26722D3*
X28538D3*
D160*
X20960Y8252D3*
X20291D3*
D170*
X21750Y11182D3*
Y10512D3*
D160*
X25195Y8676D3*
X24525D3*
X25195Y7527D3*
X24525D3*
D170*
X31510Y36332D3*
Y37001D3*
X28510Y36332D3*
Y37001D3*
X27910Y36332D3*
Y37001D3*
X29710Y36332D3*
Y37001D3*
X32110Y36332D3*
Y37001D3*
X30310Y36332D3*
Y37001D3*
X30910Y36332D3*
Y37001D3*
D150*
X15160Y34902D3*
D148*
X14160D3*
X15160Y35902D3*
X14160D3*
X15160Y36902D3*
X14160D3*
D150*
X18160Y34402D3*
D148*
X17160D3*
X18160Y35402D3*
X17160D3*
X18160Y36402D3*
X17160D3*
X18160Y37402D3*
X17160D3*
D150*
X12160Y36902D3*
D148*
X11160D3*
X10160D3*
X9160D3*
D150*
X12160Y35892D3*
D148*
X11160D3*
X10160D3*
X9160D3*
D150*
X12160Y34892D3*
D148*
X11160D3*
X10160D3*
X9160D3*
G36*
X31368Y30623D2*
X31052D1*
Y30940D1*
X31368D1*
Y30623D1*
G37*
G36*
X30502D2*
X30186D1*
Y30940D1*
X30502D1*
Y30623D1*
G37*
D146*
X23020Y29472D3*
X22154D3*
X25390Y28292D3*
X26256D3*
D144*
X26080Y18412D3*
Y17409D3*
D142*
X25130Y18153D3*
X27030D3*
D150*
X41620Y13922D3*
D148*
Y14922D3*
Y15922D3*
Y16922D3*
D140*
X11790Y16442D3*
D138*
Y16942D3*
Y17442D3*
X11290Y16442D3*
Y16942D3*
Y17442D3*
D150*
X19160Y34402D3*
D148*
Y35402D3*
Y36402D3*
D136*
X32810Y22892D3*
X31205D3*
D134*
X24290Y10342D3*
X25590D3*
D132*
X29670Y35232D3*
Y34680D3*
X30270D3*
Y35232D3*
D130*
X27940Y17172D3*
X28688D3*
X28314Y18077D3*
D128*
X33170Y25092D3*
Y25342D3*
Y25602D3*
Y25852D3*
D126*
X34340D3*
Y25602D3*
Y25342D3*
Y25092D3*
D124*
X33890Y25472D3*
D128*
X34310Y23982D3*
Y24232D3*
Y24492D3*
Y24742D3*
D126*
X35480D3*
Y24492D3*
Y24232D3*
Y23982D3*
D124*
X35030Y24362D3*
D122*
X34720Y28162D3*
X34970D3*
X35230D3*
X35480D3*
D120*
Y26992D3*
X35230D3*
X34970D3*
X34720D3*
D118*
X35100Y27442D3*
D128*
X25430Y21842D3*
Y22092D3*
Y22352D3*
Y22602D3*
D126*
X26600D3*
Y22352D3*
Y22092D3*
Y21842D3*
D124*
X26150Y22222D3*
D122*
X26610Y19522D3*
X26360D3*
X26100D3*
X25850D3*
D120*
Y20692D3*
X26100D3*
X26360D3*
X26610D3*
D118*
X26230Y20242D3*
D116*
X33130Y29602D3*
X32618D3*
X32874Y28775D3*
G36*
X12094Y24208D2*
X11857Y24446D1*
X12206Y24795D1*
X12443Y24557D1*
X12094Y24208D1*
G37*
G36*
X11565Y24737D2*
X11328Y24975D1*
X11677Y25324D1*
X11914Y25086D1*
X11565Y24737D1*
G37*
G36*
X11190Y23833D2*
X10952Y24070D1*
X11301Y24419D1*
X11538Y24181D1*
X11190Y23833D1*
G37*
G36*
X10624Y25638D2*
X10387Y25876D1*
X10736Y26225D1*
X10973Y25987D1*
X10624Y25638D1*
G37*
G36*
X11153Y25109D2*
X10916Y25347D1*
X11265Y25696D1*
X11502Y25458D1*
X11153Y25109D1*
G37*
G36*
X11529Y26014D2*
X11292Y26252D1*
X11640Y26601D1*
X11878Y26363D1*
X11529Y26014D1*
G37*
D160*
X17115Y7747D3*
X17785D3*
X36469Y18122D3*
X35800D3*
D170*
X34340Y14761D3*
Y15430D3*
X34805Y14756D3*
Y15425D3*
X29370Y26792D3*
Y26122D3*
D160*
X27830Y26102D3*
X28499D3*
D170*
X27940Y16361D3*
Y15692D3*
X19400Y25002D3*
Y24332D3*
X18790Y25002D3*
Y24332D3*
X26050Y16442D3*
Y15772D3*
D160*
X14610Y15502D3*
X15279D3*
D170*
X35280Y14752D3*
Y15421D3*
D160*
X24430Y24102D3*
X23761D3*
D170*
X22690Y24702D3*
Y25371D3*
D154*
X30820Y27762D3*
X29718D3*
D160*
X10865Y18316D3*
X11535D3*
G36*
X10276Y25073D2*
X9941Y25408D1*
X10304Y25770D1*
X10639Y25435D1*
X10276Y25073D1*
G37*
G36*
X9803Y24599D2*
X9468Y24934D1*
X9831Y25297D1*
X10166Y24962D1*
X9803Y24599D1*
G37*
G36*
X10336Y26163D2*
X10001Y26498D1*
X10364Y26860D1*
X10699Y26525D1*
X10336Y26163D1*
G37*
G36*
X10809Y26636D2*
X10474Y26971D1*
X10837Y27334D1*
X11172Y26999D1*
X10809Y26636D1*
G37*
G36*
X13076Y25083D2*
X12741Y25418D1*
X13104Y25780D1*
X13439Y25445D1*
X13076Y25083D1*
G37*
G36*
X12603Y24609D2*
X12268Y24944D1*
X12631Y25307D1*
X12966Y24972D1*
X12603Y24609D1*
G37*
G36*
X10306Y23593D2*
X9971Y23928D1*
X10334Y24290D1*
X10669Y23955D1*
X10306Y23593D1*
G37*
G36*
X10779Y24066D2*
X10444Y24401D1*
X10807Y24764D1*
X11142Y24429D1*
X10779Y24066D1*
G37*
D160*
X19279Y12422D3*
X18610D3*
X20440Y11692D3*
X21109D3*
X18030Y12932D3*
X17361D3*
X19640Y8252D3*
X18971D3*
X25190Y8092D3*
X24521D3*
G36*
X9786Y25603D2*
X9451Y25938D1*
X9814Y26300D1*
X10149Y25965D1*
X9786Y25603D1*
G37*
G36*
X9313Y25129D2*
X8978Y25464D1*
X9341Y25827D1*
X9676Y25492D1*
X9313Y25129D1*
G37*
D160*
X34260Y28622D3*
X34929D3*
X30680Y30212D3*
X31349D3*
D114*
X29810Y22887D3*
Y25092D3*
D160*
X28500Y24252D3*
X27831D3*
D170*
X27850Y23012D3*
Y23682D3*
D160*
X34260Y28162D3*
X33591D3*
D170*
X32040Y28952D3*
Y29621D3*
D160*
X30680Y29642D3*
X31349D3*
D170*
X20130Y27902D3*
Y27232D3*
D160*
X25350Y20842D3*
X24681D3*
X25350Y21372D3*
X24681D3*
D170*
X27250Y19612D3*
Y20281D3*
D160*
X26730Y19022D3*
X26061D3*
X35355Y25216D3*
X36025D3*
D112*
X20730Y26582D3*
Y26182D3*
Y25982D3*
Y26382D3*
X20330Y25982D3*
Y26182D3*
Y26382D3*
Y26582D3*
D164*
X34330Y36013D3*
X35530D3*
X34930D3*
D162*
X32930Y36758D3*
X36330D3*
D164*
X33730Y36013D3*
G36*
X8731Y22791D2*
X8480Y23043D1*
X9149Y23712D1*
X9400Y23460D1*
X8731Y22791D1*
G37*
G36*
X7883Y23640D2*
X7631Y23891D1*
X8300Y24560D1*
X8552Y24309D1*
X7883Y23640D1*
G37*
G36*
X8307Y23216D2*
X8055Y23467D1*
X8725Y24136D1*
X8976Y23885D1*
X8307Y23216D1*
G37*
G36*
X8696Y20823D2*
X8336Y21184D1*
X9033Y21881D1*
X9393Y21520D1*
X8696Y20823D1*
G37*
G36*
X6448Y23072D2*
X6087Y23432D1*
X6784Y24129D1*
X7145Y23769D1*
X6448Y23072D1*
G37*
G36*
X9155Y22367D2*
X8904Y22618D1*
X9573Y23287D1*
X9824Y23036D1*
X9155Y22367D1*
G37*
G36*
X24425Y27217D2*
X24433D1*
X24440Y27219D1*
X24447Y27223D1*
X24454Y27227D1*
X24459Y27233D1*
X24464Y27239D1*
X24467Y27246D1*
X24469Y27254D1*
X24470Y27262D1*
X24469Y27269D1*
X24467Y27277D1*
X24464Y27284D1*
X24459Y27290D1*
X24454Y27296D1*
X24448Y27301D1*
X24440Y27304D1*
X24433Y27306D1*
X24425Y27307D1*
X24275D1*
X24267Y27306D1*
X24260Y27304D1*
X24253Y27301D1*
X24246Y27296D1*
X24241Y27290D1*
X24236Y27284D1*
X24233Y27277D1*
X24231Y27269D1*
X24230Y27262D1*
X24231Y27254D1*
X24233Y27246D1*
X24236Y27239D1*
X24241Y27233D1*
X24246Y27227D1*
X24252Y27223D1*
X24260Y27219D1*
X24267Y27217D1*
X24275D1*
X24425D1*
G37*
G36*
Y27017D2*
X24433D1*
X24440Y27019D1*
X24447Y27023D1*
X24454Y27027D1*
X24459Y27033D1*
X24464Y27039D1*
X24467Y27046D1*
X24469Y27054D1*
X24470Y27062D1*
X24469Y27069D1*
X24467Y27077D1*
X24464Y27084D1*
X24459Y27090D1*
X24454Y27096D1*
X24448Y27101D1*
X24440Y27104D1*
X24433Y27106D1*
X24425Y27107D1*
X24275D1*
X24267Y27106D1*
X24260Y27104D1*
X24253Y27101D1*
X24246Y27096D1*
X24241Y27090D1*
X24236Y27084D1*
X24233Y27077D1*
X24231Y27069D1*
X24230Y27062D1*
X24231Y27054D1*
X24233Y27046D1*
X24236Y27039D1*
X24241Y27033D1*
X24246Y27027D1*
X24252Y27023D1*
X24260Y27019D1*
X24267Y27017D1*
X24275D1*
X24425D1*
G37*
G36*
Y26827D2*
X24433D1*
X24440Y26829D1*
X24447Y26833D1*
X24454Y26837D1*
X24459Y26843D1*
X24464Y26849D1*
X24467Y26856D1*
X24469Y26864D1*
X24470Y26872D1*
X24469Y26879D1*
X24467Y26887D1*
X24464Y26894D1*
X24459Y26900D1*
X24454Y26906D1*
X24448Y26911D1*
X24440Y26914D1*
X24433Y26916D1*
X24425Y26917D1*
X24275D1*
X24267Y26916D1*
X24260Y26914D1*
X24253Y26911D1*
X24246Y26906D1*
X24241Y26900D1*
X24236Y26894D1*
X24233Y26887D1*
X24231Y26879D1*
X24230Y26872D1*
X24231Y26864D1*
X24233Y26856D1*
X24236Y26849D1*
X24241Y26843D1*
X24246Y26837D1*
X24252Y26833D1*
X24260Y26829D1*
X24267Y26827D1*
X24275D1*
X24425D1*
G37*
G36*
Y26627D2*
X24433D1*
X24440Y26629D1*
X24447Y26633D1*
X24454Y26637D1*
X24459Y26643D1*
X24464Y26649D1*
X24467Y26656D1*
X24469Y26664D1*
X24470Y26672D1*
X24469Y26679D1*
X24467Y26687D1*
X24464Y26694D1*
X24459Y26700D1*
X24454Y26706D1*
X24448Y26711D1*
X24440Y26714D1*
X24433Y26716D1*
X24425Y26717D1*
X24275D1*
X24267Y26716D1*
X24260Y26714D1*
X24253Y26711D1*
X24246Y26706D1*
X24241Y26700D1*
X24236Y26694D1*
X24233Y26687D1*
X24231Y26679D1*
X24230Y26672D1*
X24231Y26664D1*
X24233Y26656D1*
X24236Y26649D1*
X24241Y26643D1*
X24246Y26637D1*
X24252Y26633D1*
X24260Y26629D1*
X24267Y26627D1*
X24275D1*
X24425D1*
G37*
G36*
Y26427D2*
X24433D1*
X24440Y26429D1*
X24447Y26433D1*
X24454Y26437D1*
X24459Y26443D1*
X24464Y26449D1*
X24467Y26456D1*
X24469Y26464D1*
X24470Y26472D1*
X24469Y26479D1*
X24467Y26487D1*
X24464Y26494D1*
X24459Y26500D1*
X24454Y26506D1*
X24448Y26511D1*
X24440Y26514D1*
X24433Y26516D1*
X24425Y26517D1*
X24275D1*
X24267Y26516D1*
X24260Y26514D1*
X24253Y26511D1*
X24246Y26506D1*
X24241Y26500D1*
X24236Y26494D1*
X24233Y26487D1*
X24231Y26479D1*
X24230Y26472D1*
X24231Y26464D1*
X24233Y26456D1*
X24236Y26449D1*
X24241Y26443D1*
X24246Y26437D1*
X24252Y26433D1*
X24260Y26429D1*
X24267Y26427D1*
X24275D1*
X24425D1*
G37*
G36*
Y26227D2*
X24433D1*
X24440Y26229D1*
X24447Y26233D1*
X24454Y26237D1*
X24459Y26243D1*
X24464Y26249D1*
X24467Y26256D1*
X24469Y26264D1*
X24470Y26272D1*
X24469Y26279D1*
X24467Y26287D1*
X24464Y26294D1*
X24459Y26300D1*
X24454Y26306D1*
X24448Y26311D1*
X24440Y26314D1*
X24433Y26316D1*
X24425Y26317D1*
X24275D1*
X24267Y26316D1*
X24260Y26314D1*
X24253Y26311D1*
X24246Y26306D1*
X24241Y26300D1*
X24236Y26294D1*
X24233Y26287D1*
X24231Y26279D1*
X24230Y26272D1*
X24231Y26264D1*
X24233Y26256D1*
X24236Y26249D1*
X24241Y26243D1*
X24246Y26237D1*
X24252Y26233D1*
X24260Y26229D1*
X24267Y26227D1*
X24275D1*
X24425D1*
G37*
G36*
Y26037D2*
X24433D1*
X24440Y26039D1*
X24447Y26043D1*
X24454Y26047D1*
X24459Y26053D1*
X24464Y26059D1*
X24467Y26066D1*
X24469Y26074D1*
X24470Y26082D1*
X24469Y26089D1*
X24467Y26097D1*
X24464Y26104D1*
X24459Y26110D1*
X24454Y26116D1*
X24448Y26121D1*
X24440Y26124D1*
X24433Y26126D1*
X24425Y26127D1*
X24275D1*
X24267Y26126D1*
X24260Y26124D1*
X24253Y26121D1*
X24246Y26116D1*
X24241Y26110D1*
X24236Y26104D1*
X24233Y26097D1*
X24231Y26089D1*
X24230Y26082D1*
X24231Y26074D1*
X24233Y26066D1*
X24236Y26059D1*
X24241Y26053D1*
X24246Y26047D1*
X24252Y26043D1*
X24260Y26039D1*
X24267Y26037D1*
X24275D1*
X24425D1*
G37*
G36*
Y25837D2*
X24433D1*
X24440Y25839D1*
X24447Y25843D1*
X24454Y25847D1*
X24459Y25853D1*
X24464Y25859D1*
X24467Y25866D1*
X24469Y25874D1*
X24470Y25882D1*
X24469Y25889D1*
X24467Y25897D1*
X24464Y25904D1*
X24459Y25910D1*
X24454Y25916D1*
X24448Y25921D1*
X24440Y25924D1*
X24433Y25926D1*
X24425Y25927D1*
X24275D1*
X24267Y25926D1*
X24260Y25924D1*
X24253Y25921D1*
X24246Y25916D1*
X24241Y25910D1*
X24236Y25904D1*
X24233Y25897D1*
X24231Y25889D1*
X24230Y25882D1*
X24231Y25874D1*
X24233Y25866D1*
X24236Y25859D1*
X24241Y25853D1*
X24246Y25847D1*
X24252Y25843D1*
X24260Y25839D1*
X24267Y25837D1*
X24275D1*
X24425D1*
G37*
G36*
X24555Y25557D2*
X24556Y25549D1*
X24558Y25541D1*
X24561Y25534D1*
X24566Y25528D1*
X24571Y25522D1*
X24578Y25518D1*
X24585Y25514D1*
X24592Y25512D1*
X24600D1*
X24608D1*
X24615Y25514D1*
X24623Y25518D1*
X24629Y25522D1*
X24634Y25528D1*
X24639Y25534D1*
X24642Y25541D1*
X24644Y25549D1*
X24645Y25557D1*
Y25707D1*
X24644Y25714D1*
X24642Y25722D1*
X24639Y25729D1*
X24634Y25735D1*
X24629Y25741D1*
X24623Y25746D1*
X24615Y25749D1*
X24608Y25751D1*
X24600Y25752D1*
X24592Y25751D1*
X24585Y25749D1*
X24578Y25746D1*
X24571Y25741D1*
X24566Y25735D1*
X24561Y25729D1*
X24558Y25722D1*
X24556Y25714D1*
X24555Y25707D1*
Y25557D1*
G37*
G36*
X24755D2*
X24756Y25549D1*
X24758Y25541D1*
X24761Y25534D1*
X24766Y25528D1*
X24771Y25522D1*
X24778Y25518D1*
X24785Y25514D1*
X24792Y25512D1*
X24800D1*
X24808D1*
X24815Y25514D1*
X24823Y25518D1*
X24829Y25522D1*
X24834Y25528D1*
X24839Y25534D1*
X24842Y25541D1*
X24844Y25549D1*
X24845Y25557D1*
Y25707D1*
X24844Y25714D1*
X24842Y25722D1*
X24839Y25729D1*
X24834Y25735D1*
X24829Y25741D1*
X24823Y25746D1*
X24815Y25749D1*
X24808Y25751D1*
X24800Y25752D1*
X24792Y25751D1*
X24785Y25749D1*
X24778Y25746D1*
X24771Y25741D1*
X24766Y25735D1*
X24761Y25729D1*
X24758Y25722D1*
X24756Y25714D1*
X24755Y25707D1*
Y25557D1*
G37*
G36*
X24945D2*
X24946Y25549D1*
X24948Y25541D1*
X24951Y25534D1*
X24956Y25528D1*
X24961Y25522D1*
X24968Y25518D1*
X24975Y25514D1*
X24982Y25512D1*
X24990D1*
X24998D1*
X25005Y25514D1*
X25013Y25518D1*
X25019Y25522D1*
X25024Y25528D1*
X25029Y25534D1*
X25032Y25541D1*
X25034Y25549D1*
X25035Y25557D1*
Y25707D1*
X25034Y25714D1*
X25032Y25722D1*
X25029Y25729D1*
X25024Y25735D1*
X25019Y25741D1*
X25013Y25746D1*
X25005Y25749D1*
X24998Y25751D1*
X24990Y25752D1*
X24982Y25751D1*
X24975Y25749D1*
X24968Y25746D1*
X24961Y25741D1*
X24956Y25735D1*
X24951Y25729D1*
X24948Y25722D1*
X24946Y25714D1*
X24945Y25707D1*
Y25557D1*
G37*
G36*
X25145D2*
X25146Y25549D1*
X25148Y25541D1*
X25151Y25534D1*
X25156Y25528D1*
X25161Y25522D1*
X25168Y25518D1*
X25175Y25514D1*
X25182Y25512D1*
X25190D1*
X25198D1*
X25205Y25514D1*
X25213Y25518D1*
X25219Y25522D1*
X25224Y25528D1*
X25229Y25534D1*
X25232Y25541D1*
X25234Y25549D1*
X25235Y25557D1*
Y25707D1*
X25234Y25714D1*
X25232Y25722D1*
X25229Y25729D1*
X25224Y25735D1*
X25219Y25741D1*
X25213Y25746D1*
X25205Y25749D1*
X25198Y25751D1*
X25190Y25752D1*
X25182Y25751D1*
X25175Y25749D1*
X25168Y25746D1*
X25161Y25741D1*
X25156Y25735D1*
X25151Y25729D1*
X25148Y25722D1*
X25146Y25714D1*
X25145Y25707D1*
Y25557D1*
G37*
G36*
X25345D2*
X25346Y25549D1*
X25348Y25541D1*
X25351Y25534D1*
X25356Y25528D1*
X25361Y25522D1*
X25368Y25518D1*
X25375Y25514D1*
X25382Y25512D1*
X25390D1*
X25398D1*
X25405Y25514D1*
X25413Y25518D1*
X25419Y25522D1*
X25424Y25528D1*
X25429Y25534D1*
X25432Y25541D1*
X25434Y25549D1*
X25435Y25557D1*
Y25707D1*
X25434Y25714D1*
X25432Y25722D1*
X25429Y25729D1*
X25424Y25735D1*
X25419Y25741D1*
X25413Y25746D1*
X25405Y25749D1*
X25398Y25751D1*
X25390Y25752D1*
X25382Y25751D1*
X25375Y25749D1*
X25368Y25746D1*
X25361Y25741D1*
X25356Y25735D1*
X25351Y25729D1*
X25348Y25722D1*
X25346Y25714D1*
X25345Y25707D1*
Y25557D1*
G37*
G36*
X25545D2*
X25546Y25549D1*
X25548Y25541D1*
X25551Y25534D1*
X25556Y25528D1*
X25561Y25522D1*
X25568Y25518D1*
X25575Y25514D1*
X25582Y25512D1*
X25590D1*
X25598D1*
X25605Y25514D1*
X25613Y25518D1*
X25619Y25522D1*
X25624Y25528D1*
X25629Y25534D1*
X25632Y25541D1*
X25634Y25549D1*
X25635Y25557D1*
Y25707D1*
X25634Y25714D1*
X25632Y25722D1*
X25629Y25729D1*
X25624Y25735D1*
X25619Y25741D1*
X25613Y25746D1*
X25605Y25749D1*
X25598Y25751D1*
X25590Y25752D1*
X25582Y25751D1*
X25575Y25749D1*
X25568Y25746D1*
X25561Y25741D1*
X25556Y25735D1*
X25551Y25729D1*
X25548Y25722D1*
X25546Y25714D1*
X25545Y25707D1*
Y25557D1*
G37*
G36*
X25735D2*
X25736Y25549D1*
X25738Y25541D1*
X25741Y25534D1*
X25746Y25528D1*
X25751Y25522D1*
X25758Y25518D1*
X25765Y25514D1*
X25772Y25512D1*
X25780D1*
X25788D1*
X25795Y25514D1*
X25803Y25518D1*
X25809Y25522D1*
X25814Y25528D1*
X25819Y25534D1*
X25822Y25541D1*
X25824Y25549D1*
X25825Y25557D1*
Y25707D1*
X25824Y25714D1*
X25822Y25722D1*
X25819Y25729D1*
X25814Y25735D1*
X25809Y25741D1*
X25803Y25746D1*
X25795Y25749D1*
X25788Y25751D1*
X25780Y25752D1*
X25772Y25751D1*
X25765Y25749D1*
X25758Y25746D1*
X25751Y25741D1*
X25746Y25735D1*
X25741Y25729D1*
X25738Y25722D1*
X25736Y25714D1*
X25735Y25707D1*
Y25557D1*
G37*
G36*
X25935D2*
X25936Y25549D1*
X25938Y25541D1*
X25941Y25534D1*
X25946Y25528D1*
X25951Y25522D1*
X25958Y25518D1*
X25965Y25514D1*
X25972Y25512D1*
X25980D1*
X25988D1*
X25995Y25514D1*
X26003Y25518D1*
X26009Y25522D1*
X26014Y25528D1*
X26019Y25534D1*
X26022Y25541D1*
X26024Y25549D1*
X26025Y25557D1*
Y25707D1*
X26024Y25714D1*
X26022Y25722D1*
X26019Y25729D1*
X26014Y25735D1*
X26009Y25741D1*
X26003Y25746D1*
X25995Y25749D1*
X25988Y25751D1*
X25980Y25752D1*
X25972Y25751D1*
X25965Y25749D1*
X25958Y25746D1*
X25951Y25741D1*
X25946Y25735D1*
X25941Y25729D1*
X25938Y25722D1*
X25936Y25714D1*
X25935Y25707D1*
Y25557D1*
G37*
G36*
X26305Y25837D2*
X26313D1*
X26320Y25839D1*
X26327Y25843D1*
X26334Y25847D1*
X26339Y25853D1*
X26344Y25859D1*
X26347Y25866D1*
X26349Y25874D1*
X26350Y25882D1*
X26349Y25889D1*
X26347Y25897D1*
X26344Y25904D1*
X26339Y25910D1*
X26334Y25916D1*
X26328Y25921D1*
X26320Y25924D1*
X26313Y25926D1*
X26305Y25927D1*
X26155D1*
X26147Y25926D1*
X26140Y25924D1*
X26133Y25921D1*
X26126Y25916D1*
X26121Y25910D1*
X26116Y25904D1*
X26113Y25897D1*
X26111Y25889D1*
X26110Y25882D1*
X26111Y25874D1*
X26113Y25866D1*
X26116Y25859D1*
X26121Y25853D1*
X26126Y25847D1*
X26132Y25843D1*
X26140Y25839D1*
X26147Y25837D1*
X26155D1*
X26305D1*
G37*
G36*
Y26037D2*
X26313D1*
X26320Y26039D1*
X26327Y26043D1*
X26334Y26047D1*
X26339Y26053D1*
X26344Y26059D1*
X26347Y26066D1*
X26349Y26074D1*
X26350Y26082D1*
X26349Y26089D1*
X26347Y26097D1*
X26344Y26104D1*
X26339Y26110D1*
X26334Y26116D1*
X26328Y26121D1*
X26320Y26124D1*
X26313Y26126D1*
X26305Y26127D1*
X26155D1*
X26147Y26126D1*
X26140Y26124D1*
X26133Y26121D1*
X26126Y26116D1*
X26121Y26110D1*
X26116Y26104D1*
X26113Y26097D1*
X26111Y26089D1*
X26110Y26082D1*
X26111Y26074D1*
X26113Y26066D1*
X26116Y26059D1*
X26121Y26053D1*
X26126Y26047D1*
X26132Y26043D1*
X26140Y26039D1*
X26147Y26037D1*
X26155D1*
X26305D1*
G37*
G36*
Y26227D2*
X26313D1*
X26320Y26229D1*
X26327Y26233D1*
X26334Y26237D1*
X26339Y26243D1*
X26344Y26249D1*
X26347Y26256D1*
X26349Y26264D1*
X26350Y26272D1*
X26349Y26279D1*
X26347Y26287D1*
X26344Y26294D1*
X26339Y26300D1*
X26334Y26306D1*
X26328Y26311D1*
X26320Y26314D1*
X26313Y26316D1*
X26305Y26317D1*
X26155D1*
X26147Y26316D1*
X26140Y26314D1*
X26133Y26311D1*
X26126Y26306D1*
X26121Y26300D1*
X26116Y26294D1*
X26113Y26287D1*
X26111Y26279D1*
X26110Y26272D1*
X26111Y26264D1*
X26113Y26256D1*
X26116Y26249D1*
X26121Y26243D1*
X26126Y26237D1*
X26132Y26233D1*
X26140Y26229D1*
X26147Y26227D1*
X26155D1*
X26305D1*
G37*
G36*
Y26427D2*
X26313D1*
X26320Y26429D1*
X26327Y26433D1*
X26334Y26437D1*
X26339Y26443D1*
X26344Y26449D1*
X26347Y26456D1*
X26349Y26464D1*
X26350Y26472D1*
X26349Y26479D1*
X26347Y26487D1*
X26344Y26494D1*
X26339Y26500D1*
X26334Y26506D1*
X26328Y26511D1*
X26320Y26514D1*
X26313Y26516D1*
X26305Y26517D1*
X26155D1*
X26147Y26516D1*
X26140Y26514D1*
X26133Y26511D1*
X26126Y26506D1*
X26121Y26500D1*
X26116Y26494D1*
X26113Y26487D1*
X26111Y26479D1*
X26110Y26472D1*
X26111Y26464D1*
X26113Y26456D1*
X26116Y26449D1*
X26121Y26443D1*
X26126Y26437D1*
X26132Y26433D1*
X26140Y26429D1*
X26147Y26427D1*
X26155D1*
X26305D1*
G37*
G36*
Y26627D2*
X26313D1*
X26320Y26629D1*
X26327Y26633D1*
X26334Y26637D1*
X26339Y26643D1*
X26344Y26649D1*
X26347Y26656D1*
X26349Y26664D1*
X26350Y26672D1*
X26349Y26679D1*
X26347Y26687D1*
X26344Y26694D1*
X26339Y26700D1*
X26334Y26706D1*
X26328Y26711D1*
X26320Y26714D1*
X26313Y26716D1*
X26305Y26717D1*
X26155D1*
X26147Y26716D1*
X26140Y26714D1*
X26133Y26711D1*
X26126Y26706D1*
X26121Y26700D1*
X26116Y26694D1*
X26113Y26687D1*
X26111Y26679D1*
X26110Y26672D1*
X26111Y26664D1*
X26113Y26656D1*
X26116Y26649D1*
X26121Y26643D1*
X26126Y26637D1*
X26132Y26633D1*
X26140Y26629D1*
X26147Y26627D1*
X26155D1*
X26305D1*
G37*
G36*
Y26827D2*
X26313D1*
X26320Y26829D1*
X26327Y26833D1*
X26334Y26837D1*
X26339Y26843D1*
X26344Y26849D1*
X26347Y26856D1*
X26349Y26864D1*
X26350Y26872D1*
X26349Y26879D1*
X26347Y26887D1*
X26344Y26894D1*
X26339Y26900D1*
X26334Y26906D1*
X26328Y26911D1*
X26320Y26914D1*
X26313Y26916D1*
X26305Y26917D1*
X26155D1*
X26147Y26916D1*
X26140Y26914D1*
X26133Y26911D1*
X26126Y26906D1*
X26121Y26900D1*
X26116Y26894D1*
X26113Y26887D1*
X26111Y26879D1*
X26110Y26872D1*
X26111Y26864D1*
X26113Y26856D1*
X26116Y26849D1*
X26121Y26843D1*
X26126Y26837D1*
X26132Y26833D1*
X26140Y26829D1*
X26147Y26827D1*
X26155D1*
X26305D1*
G37*
G36*
Y27017D2*
X26313D1*
X26320Y27019D1*
X26327Y27023D1*
X26334Y27027D1*
X26339Y27033D1*
X26344Y27039D1*
X26347Y27046D1*
X26349Y27054D1*
X26350Y27062D1*
X26349Y27069D1*
X26347Y27077D1*
X26344Y27084D1*
X26339Y27090D1*
X26334Y27096D1*
X26328Y27101D1*
X26320Y27104D1*
X26313Y27106D1*
X26305Y27107D1*
X26155D1*
X26147Y27106D1*
X26140Y27104D1*
X26133Y27101D1*
X26126Y27096D1*
X26121Y27090D1*
X26116Y27084D1*
X26113Y27077D1*
X26111Y27069D1*
X26110Y27062D1*
X26111Y27054D1*
X26113Y27046D1*
X26116Y27039D1*
X26121Y27033D1*
X26126Y27027D1*
X26132Y27023D1*
X26140Y27019D1*
X26147Y27017D1*
X26155D1*
X26305D1*
G37*
G36*
Y27217D2*
X26313D1*
X26320Y27219D1*
X26327Y27223D1*
X26334Y27227D1*
X26339Y27233D1*
X26344Y27239D1*
X26347Y27246D1*
X26349Y27254D1*
X26350Y27262D1*
X26349Y27269D1*
X26347Y27277D1*
X26344Y27284D1*
X26339Y27290D1*
X26334Y27296D1*
X26328Y27301D1*
X26320Y27304D1*
X26313Y27306D1*
X26305Y27307D1*
X26155D1*
X26147Y27306D1*
X26140Y27304D1*
X26133Y27301D1*
X26126Y27296D1*
X26121Y27290D1*
X26116Y27284D1*
X26113Y27277D1*
X26111Y27269D1*
X26110Y27262D1*
X26111Y27254D1*
X26113Y27246D1*
X26116Y27239D1*
X26121Y27233D1*
X26126Y27227D1*
X26132Y27223D1*
X26140Y27219D1*
X26147Y27217D1*
X26155D1*
X26305D1*
G37*
G36*
X25935Y27437D2*
X25936Y27429D1*
X25938Y27421D1*
X25941Y27414D1*
X25946Y27408D1*
X25951Y27402D1*
X25958Y27398D1*
X25965Y27394D1*
X25972Y27392D1*
X25980D1*
X25988D1*
X25995Y27394D1*
X26003Y27398D1*
X26009Y27402D1*
X26014Y27408D1*
X26019Y27414D1*
X26022Y27421D1*
X26024Y27429D1*
X26025Y27437D1*
Y27587D1*
X26024Y27594D1*
X26022Y27602D1*
X26019Y27609D1*
X26014Y27615D1*
X26009Y27621D1*
X26003Y27626D1*
X25995Y27629D1*
X25988Y27631D1*
X25980Y27632D1*
X25972Y27631D1*
X25965Y27629D1*
X25958Y27626D1*
X25951Y27621D1*
X25946Y27615D1*
X25941Y27609D1*
X25938Y27602D1*
X25936Y27594D1*
X25935Y27587D1*
Y27437D1*
G37*
G36*
X25735D2*
X25736Y27429D1*
X25738Y27421D1*
X25741Y27414D1*
X25746Y27408D1*
X25751Y27402D1*
X25758Y27398D1*
X25765Y27394D1*
X25772Y27392D1*
X25780D1*
X25788D1*
X25795Y27394D1*
X25803Y27398D1*
X25809Y27402D1*
X25814Y27408D1*
X25819Y27414D1*
X25822Y27421D1*
X25824Y27429D1*
X25825Y27437D1*
Y27587D1*
X25824Y27594D1*
X25822Y27602D1*
X25819Y27609D1*
X25814Y27615D1*
X25809Y27621D1*
X25803Y27626D1*
X25795Y27629D1*
X25788Y27631D1*
X25780Y27632D1*
X25772Y27631D1*
X25765Y27629D1*
X25758Y27626D1*
X25751Y27621D1*
X25746Y27615D1*
X25741Y27609D1*
X25738Y27602D1*
X25736Y27594D1*
X25735Y27587D1*
Y27437D1*
G37*
G36*
X25545D2*
X25546Y27429D1*
X25548Y27421D1*
X25551Y27414D1*
X25556Y27408D1*
X25561Y27402D1*
X25568Y27398D1*
X25575Y27394D1*
X25582Y27392D1*
X25590D1*
X25598D1*
X25605Y27394D1*
X25613Y27398D1*
X25619Y27402D1*
X25624Y27408D1*
X25629Y27414D1*
X25632Y27421D1*
X25634Y27429D1*
X25635Y27437D1*
Y27587D1*
X25634Y27594D1*
X25632Y27602D1*
X25629Y27609D1*
X25624Y27615D1*
X25619Y27621D1*
X25613Y27626D1*
X25605Y27629D1*
X25598Y27631D1*
X25590Y27632D1*
X25582Y27631D1*
X25575Y27629D1*
X25568Y27626D1*
X25561Y27621D1*
X25556Y27615D1*
X25551Y27609D1*
X25548Y27602D1*
X25546Y27594D1*
X25545Y27587D1*
Y27437D1*
G37*
G36*
X25345D2*
X25346Y27429D1*
X25348Y27421D1*
X25351Y27414D1*
X25356Y27408D1*
X25361Y27402D1*
X25368Y27398D1*
X25375Y27394D1*
X25382Y27392D1*
X25390D1*
X25398D1*
X25405Y27394D1*
X25413Y27398D1*
X25419Y27402D1*
X25424Y27408D1*
X25429Y27414D1*
X25432Y27421D1*
X25434Y27429D1*
X25435Y27437D1*
Y27587D1*
X25434Y27594D1*
X25432Y27602D1*
X25429Y27609D1*
X25424Y27615D1*
X25419Y27621D1*
X25413Y27626D1*
X25405Y27629D1*
X25398Y27631D1*
X25390Y27632D1*
X25382Y27631D1*
X25375Y27629D1*
X25368Y27626D1*
X25361Y27621D1*
X25356Y27615D1*
X25351Y27609D1*
X25348Y27602D1*
X25346Y27594D1*
X25345Y27587D1*
Y27437D1*
G37*
G36*
X25145D2*
X25146Y27429D1*
X25148Y27421D1*
X25151Y27414D1*
X25156Y27408D1*
X25161Y27402D1*
X25168Y27398D1*
X25175Y27394D1*
X25182Y27392D1*
X25190D1*
X25198D1*
X25205Y27394D1*
X25213Y27398D1*
X25219Y27402D1*
X25224Y27408D1*
X25229Y27414D1*
X25232Y27421D1*
X25234Y27429D1*
X25235Y27437D1*
Y27587D1*
X25234Y27594D1*
X25232Y27602D1*
X25229Y27609D1*
X25224Y27615D1*
X25219Y27621D1*
X25213Y27626D1*
X25205Y27629D1*
X25198Y27631D1*
X25190Y27632D1*
X25182Y27631D1*
X25175Y27629D1*
X25168Y27626D1*
X25161Y27621D1*
X25156Y27615D1*
X25151Y27609D1*
X25148Y27602D1*
X25146Y27594D1*
X25145Y27587D1*
Y27437D1*
G37*
G36*
X24945D2*
X24946Y27429D1*
X24948Y27421D1*
X24951Y27414D1*
X24956Y27408D1*
X24961Y27402D1*
X24968Y27398D1*
X24975Y27394D1*
X24982Y27392D1*
X24990D1*
X24998D1*
X25005Y27394D1*
X25013Y27398D1*
X25019Y27402D1*
X25024Y27408D1*
X25029Y27414D1*
X25032Y27421D1*
X25034Y27429D1*
X25035Y27437D1*
Y27587D1*
X25034Y27594D1*
X25032Y27602D1*
X25029Y27609D1*
X25024Y27615D1*
X25019Y27621D1*
X25013Y27626D1*
X25005Y27629D1*
X24998Y27631D1*
X24990Y27632D1*
X24982Y27631D1*
X24975Y27629D1*
X24968Y27626D1*
X24961Y27621D1*
X24956Y27615D1*
X24951Y27609D1*
X24948Y27602D1*
X24946Y27594D1*
X24945Y27587D1*
Y27437D1*
G37*
G36*
X24755D2*
X24756Y27429D1*
X24758Y27421D1*
X24761Y27414D1*
X24766Y27408D1*
X24771Y27402D1*
X24778Y27398D1*
X24785Y27394D1*
X24792Y27392D1*
X24800D1*
X24808D1*
X24815Y27394D1*
X24823Y27398D1*
X24829Y27402D1*
X24834Y27408D1*
X24839Y27414D1*
X24842Y27421D1*
X24844Y27429D1*
X24845Y27437D1*
Y27587D1*
X24844Y27594D1*
X24842Y27602D1*
X24839Y27609D1*
X24834Y27615D1*
X24829Y27621D1*
X24823Y27626D1*
X24815Y27629D1*
X24808Y27631D1*
X24800Y27632D1*
X24792Y27631D1*
X24785Y27629D1*
X24778Y27626D1*
X24771Y27621D1*
X24766Y27615D1*
X24761Y27609D1*
X24758Y27602D1*
X24756Y27594D1*
X24755Y27587D1*
Y27437D1*
G37*
G36*
X24555D2*
X24556Y27429D1*
X24558Y27421D1*
X24561Y27414D1*
X24566Y27408D1*
X24571Y27402D1*
X24578Y27398D1*
X24585Y27394D1*
X24592Y27392D1*
X24600D1*
X24608D1*
X24615Y27394D1*
X24623Y27398D1*
X24629Y27402D1*
X24634Y27408D1*
X24639Y27414D1*
X24642Y27421D1*
X24644Y27429D1*
X24645Y27437D1*
Y27587D1*
X24644Y27594D1*
X24642Y27602D1*
X24639Y27609D1*
X24634Y27615D1*
X24629Y27621D1*
X24623Y27626D1*
X24615Y27629D1*
X24608Y27631D1*
X24600Y27632D1*
X24592Y27631D1*
X24585Y27629D1*
X24578Y27626D1*
X24571Y27621D1*
X24566Y27615D1*
X24561Y27609D1*
X24558Y27602D1*
X24556Y27594D1*
X24555Y27587D1*
Y27437D1*
G37*
D56*
X25290Y26572D3*
D57*
X28070Y13952D3*
D58*
X28270D3*
X28670D3*
G36*
X28420Y14632D2*
Y14912D1*
X28520D1*
Y14632D1*
X28420D1*
G37*
G36*
X28220D2*
Y14912D1*
X28320D1*
Y14632D1*
X28220D1*
G37*
G36*
X28020D2*
Y14912D1*
X28120D1*
Y14632D1*
X28020D1*
G37*
G36*
X28620D2*
Y14912D1*
X28720D1*
Y14632D1*
X28620D1*
G37*
D58*
X28470Y13952D3*
D59*
X28370Y14362D3*
D102*
X24490Y15942D3*
Y16138D3*
Y16335D3*
Y16532D3*
X23742D3*
Y16335D3*
Y16138D3*
Y15942D3*
D100*
X24116Y16237D3*
G36*
X19966Y10864D2*
X19965Y11199D1*
X20155D1*
X20154Y10864D1*
X20145Y10835D1*
X20128Y10811D1*
X20103Y10794D1*
X20075Y10784D1*
X20045D1*
X20017Y10794D1*
X19992Y10811D1*
X19975Y10835D1*
X19966Y10864D1*
G37*
G36*
X19945Y11200D2*
X19947Y10755D1*
X20198D1*
Y9875D1*
X19318D1*
Y10755D1*
X19568D1*
X19570Y11200D1*
X19729D1*
Y10910D1*
X19787D1*
Y11200D1*
X19945D1*
G37*
G36*
X19570Y9424D2*
Y9954D1*
X19945D1*
Y9424D1*
X19786D1*
Y9714D1*
X19729D1*
Y9424D1*
X19570D1*
G37*
G36*
X19375Y10864D2*
X19374Y11199D1*
X19565D1*
X19564Y10864D1*
X19555Y10835D1*
X19537Y10811D1*
X19513Y10794D1*
X19484Y10784D1*
X19455D1*
X19426Y10794D1*
X19402Y10811D1*
X19384Y10835D1*
X19375Y10864D1*
G37*
G36*
X19216Y10616D2*
X18881Y10615D1*
Y10806D1*
X19216Y10805D1*
X19244Y10795D1*
X19269Y10778D1*
X19286Y10754D1*
X19295Y10725D1*
Y10695D1*
X19286Y10667D1*
X19269Y10643D1*
X19244Y10625D1*
X19216Y10616D1*
G37*
G36*
Y10419D2*
X18881Y10418D1*
Y10609D1*
X19216Y10608D1*
X19244Y10599D1*
X19269Y10581D1*
X19286Y10557D1*
X19295Y10528D1*
Y10499D1*
X19286Y10470D1*
X19269Y10446D1*
X19244Y10428D1*
X19216Y10419D1*
G37*
G36*
Y10222D2*
X18881Y10221D1*
Y10412D1*
X19216Y10411D1*
X19244Y10402D1*
X19269Y10384D1*
X19286Y10360D1*
X19295Y10332D1*
Y10302D1*
X19286Y10273D1*
X19269Y10249D1*
X19244Y10231D1*
X19216Y10222D1*
G37*
G36*
X19564Y9766D2*
X19565Y9431D1*
X19374D1*
X19375Y9766D1*
X19384Y9795D1*
X19402Y9819D1*
X19426Y9837D1*
X19455Y9846D1*
X19484D1*
X19513Y9837D1*
X19537Y9819D1*
X19555Y9795D1*
X19564Y9766D1*
G37*
G36*
X20154D2*
X20155Y9431D1*
X19965D1*
X19966Y9766D1*
X19975Y9795D1*
X19992Y9819D1*
X20017Y9837D1*
X20045Y9846D1*
X20075D1*
X20103Y9837D1*
X20128Y9819D1*
X20145Y9795D1*
X20154Y9766D1*
G37*
G36*
X19216Y10022D2*
X18881Y10021D1*
Y10212D1*
X19216Y10211D1*
X19244Y10202D1*
X19269Y10184D1*
X19286Y10160D1*
X19295Y10132D1*
Y10102D1*
X19286Y10073D1*
X19269Y10049D1*
X19244Y10031D1*
X19216Y10022D1*
G37*
G36*
X20313Y10411D2*
X20648Y10412D1*
Y10221D1*
X20313Y10222D1*
X20285Y10231D1*
X20261Y10249D1*
X20243Y10273D1*
X20234Y10302D1*
Y10332D1*
X20243Y10360D1*
X20261Y10384D1*
X20285Y10402D1*
X20313Y10411D1*
G37*
G36*
Y10608D2*
X20648Y10609D1*
Y10418D1*
X20313Y10419D1*
X20285Y10428D1*
X20261Y10446D1*
X20243Y10470D1*
X20234Y10499D1*
Y10528D1*
X20243Y10557D1*
X20261Y10581D1*
X20285Y10599D1*
X20313Y10608D1*
G37*
G36*
Y10805D2*
X20648Y10806D1*
Y10615D1*
X20313Y10616D1*
X20285Y10625D1*
X20261Y10643D1*
X20243Y10667D1*
X20234Y10695D1*
Y10725D1*
X20243Y10754D1*
X20261Y10778D1*
X20285Y10795D1*
X20313Y10805D1*
G37*
G36*
Y10014D2*
X20648Y10015D1*
Y9825D1*
X20313D1*
X20285Y9835D1*
X20261Y9852D1*
X20243Y9876D1*
X20234Y9905D1*
Y9935D1*
X20243Y9963D1*
X20261Y9987D1*
X20285Y10005D1*
X20313Y10014D1*
G37*
G36*
Y10211D2*
X20648Y10212D1*
Y10021D1*
X20313Y10022D1*
X20285Y10031D1*
X20261Y10049D1*
X20243Y10073D1*
X20234Y10102D1*
Y10132D1*
X20243Y10160D1*
X20261Y10184D1*
X20285Y10202D1*
X20313Y10211D1*
G37*
G36*
X19216Y9825D2*
X18881D1*
Y10015D1*
X19216Y10014D1*
X19244Y10005D1*
X19269Y9987D1*
X19286Y9963D1*
X19295Y9935D1*
Y9905D1*
X19286Y9876D1*
X19269Y9852D1*
X19244Y9835D1*
X19216Y9825D1*
G37*
D98*
X26010Y36852D3*
X26250D3*
X26010Y36151D3*
X26250D3*
D96*
X26480Y36701D3*
Y36501D3*
Y36301D3*
X25780Y36701D3*
Y36501D3*
Y36301D3*
D66*
X16710Y16132D3*
Y16632D3*
Y17132D3*
Y17632D3*
X14060D3*
Y17132D3*
Y16632D3*
Y16132D3*
D92*
X36460Y17582D3*
Y17326D3*
Y17070D3*
Y16814D3*
Y16558D3*
Y16302D3*
Y16046D3*
Y15790D3*
Y15534D3*
Y15278D3*
X38744D3*
X38743Y15534D3*
Y15790D3*
Y16046D3*
Y16302D3*
Y16558D3*
Y16814D3*
Y17070D3*
Y17326D3*
Y17582D3*
D90*
X27890Y34542D3*
X28087D3*
X28284D3*
X28481D3*
Y35290D3*
X28284D3*
X28087D3*
X27890D3*
D88*
X28185Y34916D3*
D86*
X23315Y36864D3*
Y36707D3*
Y36549D3*
Y36392D3*
Y36234D3*
Y36077D3*
D84*
X23511Y35880D3*
X23669D3*
X23826D3*
X23984D3*
X24141D3*
X24299D3*
D86*
X24496Y36077D3*
Y36234D3*
Y36392D3*
Y36549D3*
Y36707D3*
Y36864D3*
D84*
X24299Y37061D3*
X24141D3*
X23984D3*
X23826D3*
X23669D3*
X23511D3*
D82*
X23904Y36471D3*
D170*
X28535Y32832D3*
Y33501D3*
X27973Y32832D3*
Y33501D3*
X27410Y32832D3*
Y33501D3*
D160*
X37687Y34880D3*
X37018D3*
X37691Y35368D3*
X37022D3*
D75*
X40320Y36772D3*
X6500D3*
X11940Y6522D3*
X41060Y6402D3*
M02*
