G04 DipTrace 3.0.0.2*
G04 Top.gbr*
%MOIN*%
G04 #@! TF.FileFunction,Copper,L1,Top*
G04 #@! TF.Part,Single*
%AMOUTLINE0*5,1,8,0,0,0.066,-22.49998*%
%AMOUTLINE1*5,1,8,0,0,0.066,-262.500516*%
%AMOUTLINE2*5,1,8,0,0,0.066001,-232.500313*%
%AMOUTLINE3*5,1,8,0,0,0.066,7.499484*%
%AMOUTLINE4*5,1,8,0,0,0.066,-112.49998*%
%AMOUTLINE5*5,1,8,0,0,0.066,-202.49998*%
%AMOUTLINE6*5,1,8,0,0,0.066001,37.499687*%
%AMOUTLINE7*5,1,8,0,0,0.066,-82.500516*%
%AMOUTLINE8*5,1,8,0,0,0.066,-172.500516*%
%AMOUTLINE9*5,1,8,0,0,0.066,67.50002*%
%AMOUTLINE10*5,1,8,0,0,0.066001,-52.500313*%
%AMOUTLINE11*5,1,8,0,0,0.066001,-142.500313*%
G04 #@! TA.AperFunction,Conductor*
%ADD13C,0.01*%
G04 #@! TA.AperFunction,ViaPad*
%ADD14C,0.02*%
G04 #@! TA.AperFunction,Conductor*
%ADD16C,0.04*%
%ADD17C,0.066929*%
G04 #@! TA.AperFunction,ViaPad*
%ADD18C,0.05*%
G04 #@! TA.AperFunction,Conductor*
%ADD20C,0.07*%
G04 #@! TA.AperFunction,CopperBalancing*
%ADD21C,0.025*%
G04 #@! TA.AperFunction,ComponentPad*
%ADD25R,0.066929X0.066929*%
%ADD26C,0.066929*%
%ADD27R,0.051181X0.03937*%
%ADD28O,0.051181X0.03937*%
%ADD29R,0.059055X0.059055*%
%ADD30C,0.059055*%
%ADD31R,0.15X0.15*%
%ADD34R,0.043307X0.03937*%
%ADD40R,0.051181X0.059055*%
%ADD41R,0.027559X0.035433*%
G04 #@! TA.AperFunction,ComponentPad*
%ADD42C,0.062992*%
%ADD43R,0.062992X0.062992*%
%ADD98OUTLINE0*%
%ADD99OUTLINE1*%
%ADD100OUTLINE2*%
%ADD101OUTLINE3*%
%ADD102OUTLINE4*%
%ADD103OUTLINE5*%
%ADD104OUTLINE6*%
%ADD105OUTLINE7*%
%ADD106OUTLINE8*%
%ADD107OUTLINE9*%
%ADD108OUTLINE10*%
%ADD109OUTLINE11*%
%FSLAX26Y26*%
G04*
G70*
G90*
G75*
G01*
G04 Top*
%LPD*%
X1395002Y1751029D2*
D14*
Y1133029D1*
X1419002Y1109029D1*
X1507002D1*
X1696099Y1088000D2*
D16*
X1685973D1*
X1607002Y1009029D1*
X1507002D2*
D14*
X1525002D1*
X1413002Y897029D1*
Y802029D1*
X1321002Y710029D1*
X717002D1*
X1546084Y1706815D2*
D16*
Y1681812D1*
X1689849Y1538047D1*
Y1419285D1*
X590073Y1241522D2*
D14*
Y1304029D1*
Y1366536D1*
Y1429042D1*
Y1241522D2*
Y1442100D1*
X629002Y1481029D1*
X720002D1*
X727088Y1473944D1*
X769002Y1432029D1*
Y1367029D1*
X771624Y1364407D1*
Y1213898D1*
X772002Y1496029D2*
X749173D1*
X727088Y1473944D1*
X783504Y1850580D2*
X833509D1*
X864762Y1881833D1*
X1008527D1*
X1102287Y1975593D1*
Y2069353D1*
X1020588Y2175614D2*
D18*
X1055002Y2210029D1*
X1466002D1*
X1589002Y2087029D1*
Y2007029D1*
X1595002Y2001029D1*
X934002Y2077402D2*
Y2185029D1*
X1030002Y2281029D1*
X1516002D1*
X1763002Y2034029D1*
Y1969029D1*
X1695002Y1901029D1*
X1906371Y1409185D2*
D17*
Y1499650D1*
D20*
Y1789936D1*
D17*
X1895034Y1801273D1*
Y1869738D1*
D20*
Y2000770D1*
D17*
X1895298Y2001034D1*
X1995298D1*
X1995034Y1932570D1*
D20*
Y1801273D1*
D17*
X1895034D1*
D20*
X1946622Y1852872D1*
D17*
X1995034Y1901284D1*
Y1901298D1*
D20*
X1943710Y1952622D1*
D17*
X1895298Y2001034D1*
X1895034Y1901284D2*
X1995034D1*
X1395002Y1951029D2*
D13*
X1437002Y1909029D1*
X1453716D1*
X1471311Y1891433D1*
Y1603297D1*
X1458605Y1590591D1*
Y1583518D1*
X1395002Y1851029D2*
X1437002Y1893029D1*
X1447089D1*
X1455311Y1884806D1*
Y1609924D1*
X1447291Y1601904D1*
X1440219D1*
X621002Y1838029D2*
X671002Y1888029D1*
Y2025529D1*
X658305D1*
X621002Y2069280D2*
Y2075726D1*
X658305Y2113029D1*
X1946002Y968029D2*
X1862002Y884029D1*
X1709002D1*
X1364752Y1206780D2*
Y1681280D1*
X1295002Y1751029D1*
Y1851029D2*
X1346002Y1902029D1*
Y2088028D1*
X1327252Y2106778D1*
X1102208D1*
X1064752Y2069322D1*
Y2044278D1*
X1039753Y2019280D1*
X908501D1*
X727252Y2200529D1*
X733502D1*
X739752D1*
Y2219278D1*
X733502Y2213029D1*
Y2281778D1*
X702252Y2313029D1*
X571002D1*
X521002Y2263029D1*
Y1939029D1*
X581002Y1879029D1*
X1648502Y850529D2*
X1653502D1*
X1730002Y774029D1*
X1886002D1*
X1912002Y748029D1*
X2009002D1*
X583502Y2025529D2*
Y1930210D1*
X581002D1*
X616321D1*
X639752Y1906780D1*
X902253Y1850529D2*
X1077252D1*
X1339752Y1588029D1*
Y1456780D1*
X1427253Y1388029D2*
X1506502Y1308780D1*
X583502Y2200529D2*
Y2113029D1*
Y2250529D1*
X1608590Y1725567D2*
X1752355Y1581802D1*
Y1406784D1*
X1654351Y1308780D1*
X1606502D1*
X2083502Y719278D2*
Y725529D1*
X2108502Y750529D1*
Y1031778D1*
X2089752Y1050529D1*
Y1069278D1*
X2108502Y1088029D1*
X1727353Y1506794D2*
Y1575551D1*
X1546002Y1756902D1*
Y2069278D1*
X1458502Y2156778D1*
X646002Y2288029D2*
Y2212832D1*
X658305Y2200529D1*
X1463753Y756778D2*
X1871253D1*
X1902002Y726029D1*
X2027753D1*
X2077253Y775529D1*
X1980783Y703248D2*
X1745783D1*
X1731561Y717470D1*
X2237538Y969139D2*
Y1002494D1*
X2113002Y1127029D1*
X2024225D1*
X2006382Y1109185D1*
D17*
Y1147408D1*
D20*
X2117002Y1258029D1*
Y1563029D1*
Y1663029D1*
Y1723242D1*
X2146622Y1752861D1*
D17*
X2195034Y1801273D1*
X1806106Y1108912D2*
D21*
Y972983D1*
X1771107Y937984D1*
X2095298Y2001034D2*
D17*
Y1932570D1*
D20*
X2095034D1*
Y1801273D1*
D17*
X2195034D1*
Y1869738D1*
D20*
Y2000770D1*
D17*
X2195298Y2001034D1*
X2095298D1*
D20*
X2146622Y1949696D1*
D17*
X2195034Y1901284D1*
Y1901273D1*
D20*
X2143446Y1849685D1*
D17*
X2095034Y1801273D1*
Y1901284D2*
X2195034D1*
X2095298Y2001034D2*
Y2069499D1*
D20*
Y2888734D1*
X2052823Y2931209D1*
D14*
X2021002Y2963029D1*
X1110002Y1457029D2*
D13*
X1011002D1*
X972002Y1496029D1*
X1110002Y1407029D2*
X1061002D1*
X1011002Y1457029D1*
X2121002Y1563029D2*
D20*
X2117002D1*
X2121002Y1663029D2*
X2117002D1*
X1895002Y866029D2*
D13*
X2050002D1*
X1999002Y917029D1*
Y952029D1*
X1962002Y989029D1*
X1929002D1*
X1841002Y901029D1*
X1748002D1*
X1727353Y921679D1*
Y1113003D1*
X1631576Y1208780D1*
X1606502D1*
X733502Y2113029D2*
X771002D1*
X894821Y1989210D1*
X896002D1*
X1039752Y1994280D2*
Y2000529D1*
X908502D1*
X897183Y1989210D1*
X2171002Y731778D2*
X2236397D1*
X2237538Y732919D1*
X1465502Y675529D2*
X1613502D1*
X1676002Y613029D1*
X2106002D1*
X2225892Y732919D1*
X2237538D1*
X1606502Y1508780D2*
Y1571389D1*
X1508502Y1669389D1*
Y2069280D1*
X1408502Y2169280D1*
X1095952D1*
X996002Y2069330D1*
Y2044278D1*
Y1963029D2*
X921002D1*
X896002Y1938029D1*
X733502Y2025529D2*
X769821Y1989210D1*
X846002D1*
X733502Y2025529D2*
X796002D1*
X1650502Y675529D2*
X1796502D1*
X1841002Y631029D1*
X2071002D1*
X2146002Y706029D1*
Y788029D1*
X2169002Y811029D1*
X2236908D1*
X2237538Y811659D1*
X846002Y1938029D2*
Y1931780D1*
X871002Y1906780D1*
X983504D1*
X1021002Y1944278D1*
X1027252Y2044278D2*
Y2069326D1*
X1108455Y2150529D1*
X1396004D1*
X1489752Y2056781D1*
Y1625529D1*
X1502252Y1613029D1*
Y1513030D1*
X1506502Y1508780D1*
X1291002Y1029029D2*
Y889029D1*
X1275002Y873029D1*
X908502Y788029D2*
X728002D1*
X708002Y768029D1*
X923002Y963029D2*
D14*
G02X716304Y991641I-101036J31015D01*
G01*
G02X551575Y1119727I-65670J85514D01*
G01*
G02X473002Y1313029I2418J113603D01*
G01*
X923002Y963029D2*
G03X1116304Y1041601I87188J62566D01*
G01*
G03X1244391Y1206331I42916J98792D01*
G01*
G03X1273002Y1413029I-19907J108085D01*
G01*
X1194430Y1606331D2*
G03X1029700Y1734417I-101852J38981D01*
G01*
G03X823002Y1763029I-108554J-23294D01*
G01*
G03X629700Y1684457I-85555J-66585D01*
G01*
G03X501614Y1519727I-34337J-105463D01*
G01*
X1358502Y847330D2*
D13*
Y950529D1*
X501614Y1519727D2*
D14*
G03X473002Y1313029I40472J-110932D01*
G01*
X657002Y1429042D2*
D21*
Y1366536D1*
Y1304029D1*
Y1241522D1*
X823002Y963029D2*
D14*
G03X629702Y1041641I-119430J-16709D01*
G01*
G03X610002Y1160029I-116648J41423D01*
G01*
G03X501575Y1206331I-96974J-76982D01*
G01*
G03X473002Y1413029I-83248J93816D01*
G01*
G03X551614Y1606330I-22050J121602D01*
G01*
G03X716304Y1734457I34815J125158D01*
G01*
G03X923002Y1763029I88895J118854D01*
G01*
G03X1116303Y1684417I130269J43360D01*
G01*
G03X1244430Y1519727I147588J-17364D01*
G01*
X1273002Y1313029D2*
G03X1194391Y1119728I49196J-132642D01*
G01*
G03X1029700Y991601I-18131J-146602D01*
G01*
X657002Y1241522D2*
Y1207029D1*
X610002Y1160029D1*
X1029700Y991601D2*
G03X823002Y963029I-93869J-82869D01*
G01*
X1802405Y584978D2*
D13*
X1517054D1*
X1442002Y660029D1*
Y847029D1*
X1555002Y960029D1*
Y1160280D1*
X1506502Y1208780D1*
X2127252Y1054029D2*
Y726278D1*
X2082002Y681029D1*
X1840903Y675529D2*
X2076502D1*
X2082002Y681029D1*
X2077252Y1013278D2*
Y819278D1*
X1841502Y850529D2*
X1875002Y817029D1*
X2077252D1*
Y819278D1*
D14*
X1696099Y1088000D3*
X717002Y710029D3*
X1546084Y1706815D3*
X1689849Y1419285D3*
X783504Y1850580D3*
X1102287Y2069353D3*
D18*
X1020588Y2175614D3*
X934002Y2077402D3*
D14*
X1458605Y1583518D3*
X1440219Y1601904D3*
X621002Y1838029D3*
Y2069280D3*
X1946002Y968029D3*
X1709002Y884029D3*
X1364752Y1206780D3*
X1709002Y884029D3*
X1648502Y850529D3*
X2009002Y748029D3*
X639752Y1906780D3*
X902253Y1850529D3*
X1339752Y1456780D3*
X1427253Y1388029D3*
X583502Y2250529D3*
X1608590Y1725567D3*
X2083502Y719278D3*
X2108502Y1088029D3*
X1727353Y1506794D3*
X1458502Y2156778D3*
X646002Y2288029D3*
X1463753Y756778D3*
X2077253Y775529D3*
X1731561Y717470D3*
X1980783Y703248D3*
X1771107Y937984D3*
X1895002Y866029D3*
X2050002D3*
X1039752Y1994280D3*
X2171002Y731778D3*
X1465502Y675529D3*
X996002Y2044278D3*
Y1963029D3*
X796002Y2025529D3*
X1650502Y675529D3*
X1021002Y1944278D3*
X1027252Y2044278D3*
X1291002Y1029029D3*
X1275002Y873029D3*
X908502Y788029D3*
X708002Y768029D3*
X1358502Y847330D3*
Y950529D3*
X1802405Y584978D3*
X2127252Y1054029D3*
X2082002Y681029D3*
X1840903Y675529D3*
X2077252Y1013278D3*
Y819278D3*
X1841502Y850529D3*
X1871002Y3163029D3*
X1921002D3*
X1971002D3*
X2021002D3*
X2071002D3*
X2121002D3*
Y3113029D3*
X2071002D3*
X2021002D3*
X1971002D3*
X1921002D3*
X1871002D3*
Y3063029D3*
X1921002D3*
X1971002D3*
X2021002D3*
X2071002D3*
X2121002D3*
Y3013029D3*
X2071002D3*
X2021002D3*
X1971002D3*
X1921002D3*
X1871002D3*
Y2963029D3*
X1921002D3*
X1971002D3*
X2021002D3*
X2071002D3*
X2121002D3*
X471002Y2263029D3*
Y2213029D3*
Y2163029D3*
Y2113029D3*
Y2063029D3*
Y2013029D3*
Y1963029D3*
Y1813029D3*
Y1763029D3*
Y1713029D3*
Y1663029D3*
X521002Y1713029D3*
Y1763029D3*
Y1813029D3*
X671002Y2413029D3*
X771002D3*
X871002D3*
X971002D3*
X1071002D3*
X1171002D3*
X1271002D3*
X1371002D3*
X1471002D3*
X1571002D3*
X1671002D3*
X1771002D3*
Y2313029D3*
Y2213029D3*
Y2113029D3*
X1671002Y2213029D3*
Y2313029D3*
X1571002D3*
X1421002Y2363029D3*
X1321002D3*
X1221002D3*
X1121002D3*
X1021002D3*
X1521002D3*
X1621002D3*
X1721002D3*
Y2263029D3*
X1621002D3*
X1721002Y2163029D3*
X2221002Y2863029D3*
X2321002D3*
X2221002Y2763029D3*
X2321002D3*
Y2663029D3*
X2221002D3*
Y2563029D3*
X2321002D3*
Y2463029D3*
X2221002D3*
X2321002Y2363029D3*
X2221002D3*
X2121002Y2263029D3*
Y2163029D3*
X2321002Y1963029D3*
Y1863029D3*
Y1763029D3*
Y1663029D3*
Y1563029D3*
X2221002D3*
X2121002D3*
X2021002D3*
Y1663029D3*
X2121002D3*
X2221002D3*
X2321002Y1413029D3*
Y1313029D3*
Y1163029D3*
Y1113029D3*
X2221002Y1163029D3*
Y1113029D3*
X1865014Y3146660D2*
D21*
X2158060D1*
X1865063Y3121791D2*
X2143462D1*
X1865111Y3096923D2*
X2135160D1*
X1865160Y3072054D2*
X2131938D1*
X1865210Y3047185D2*
X2133451D1*
X1865258Y3022316D2*
X2139799D1*
X1865307Y2997448D2*
X2151908D1*
X1865355Y2972579D2*
X2171879D1*
X1865404Y2947710D2*
X2207622D1*
X2326391D2*
X2355962D1*
X1865454Y2922841D2*
X2355962D1*
X1865454Y2897973D2*
X2355912D1*
X1865502Y2873104D2*
X2355912D1*
X1865551Y2848235D2*
X2355912D1*
X1865599Y2823366D2*
X2355912D1*
X1865648Y2798497D2*
X2355912D1*
X1865698Y2773629D2*
X2355863D1*
X1865746Y2748760D2*
X2355863D1*
X1865795Y2723891D2*
X2355863D1*
X1865844Y2699022D2*
X2355863D1*
X1865892Y2674154D2*
X2355863D1*
X1865942Y2649285D2*
X2355815D1*
X1865991Y2624416D2*
X2355815D1*
X1865014Y2599547D2*
X2355815D1*
X1861450Y2574679D2*
X2355815D1*
X1853198Y2549810D2*
X2355815D1*
X1841479Y2524941D2*
X2355766D1*
X1823559Y2500072D2*
X2355766D1*
X1795727Y2475204D2*
X2355766D1*
X1744603Y2450335D2*
X2355766D1*
X476391Y2425466D2*
X2355766D1*
X452758Y2400597D2*
X2355718D1*
X442748Y2375728D2*
X2355718D1*
X440991Y2350860D2*
X2355718D1*
X440892Y2325991D2*
X536918D1*
X736303D2*
X1002396D1*
X1543578D2*
X2355718D1*
X440844Y2301122D2*
X512064D1*
X760863D2*
X974760D1*
X1571215D2*
X2244340D1*
X2289623D2*
X2355718D1*
X440746Y2276253D2*
X489946D1*
X767504D2*
X949907D1*
X1596068D2*
X2185063D1*
X440648Y2251385D2*
X487015D1*
X788110D2*
X925052D1*
X1620971D2*
X2159770D1*
X440599Y2226516D2*
X487015D1*
X788110D2*
X900199D1*
X1645824D2*
X2144487D1*
X440502Y2201647D2*
X487015D1*
X788110D2*
X882767D1*
X1670678D2*
X2135698D1*
X440404Y2176778D2*
X487015D1*
X798022D2*
X880034D1*
X1695580D2*
X2132035D1*
X440355Y2151910D2*
X487015D1*
X822924D2*
X880034D1*
X1720434D2*
X2133110D1*
X440258Y2127041D2*
X487015D1*
X847778D2*
X880034D1*
X1745287D2*
X2139018D1*
X440160Y2102172D2*
X487015D1*
X1770190D2*
X2150542D1*
X440111Y2077303D2*
X487015D1*
X1795043D2*
X2169682D1*
X440014Y2052434D2*
X487015D1*
X1813598D2*
X1832816D1*
X2028686D2*
X2203178D1*
X2330834D2*
X2355619D1*
X439916Y2027566D2*
X487015D1*
X1816967D2*
X1832816D1*
X2051586D2*
X2355571D1*
X439867Y2002697D2*
X487015D1*
X1816967D2*
X1831059D1*
X2057739D2*
X2355571D1*
X439770Y1977828D2*
X487015D1*
X1816967D2*
X1831059D1*
X2057640D2*
X2355571D1*
X439672Y1952959D2*
X487015D1*
X705004D2*
X803227D1*
X1814428D2*
X1831059D1*
X2057543D2*
X2355571D1*
X439623Y1928091D2*
X488968D1*
X705004D2*
X803227D1*
X1797387D2*
X1831059D1*
X2059008D2*
X2355571D1*
X439526Y1903222D2*
X509770D1*
X705004D2*
X803227D1*
X1772484D2*
X1831059D1*
X2059008D2*
X2355522D1*
X439428Y1878353D2*
X534672D1*
X703442D2*
X757328D1*
X1753002D2*
X1831059D1*
X2059008D2*
X2355522D1*
X439379Y1853484D2*
X538236D1*
X683471D2*
X744634D1*
X1734056D2*
X1832572D1*
X2059008D2*
X2355522D1*
X439282Y1828616D2*
X583256D1*
X658763D2*
X675931D1*
X1750756D2*
X1832572D1*
X2059008D2*
X2355522D1*
X439183Y1803747D2*
X605962D1*
X1757396D2*
X1831107D1*
X2059008D2*
X2355522D1*
X439135Y1778878D2*
X616068D1*
X1753246D2*
X1832572D1*
X2054808D2*
X2355472D1*
X439038Y1754009D2*
X601958D1*
X1634740D2*
X1655278D1*
X1734740D2*
X1832572D1*
X2036840D2*
X2355472D1*
X438939Y1729141D2*
X590580D1*
X1652026D2*
X1842387D1*
X1970336D2*
X2355472D1*
X438891Y1704272D2*
X515531D1*
X1676928D2*
X1842387D1*
X1970336D2*
X2355472D1*
X438794Y1679403D2*
X485111D1*
X1701782D2*
X1842387D1*
X1970336D2*
X2355472D1*
X438695Y1654534D2*
X466556D1*
X1726635D2*
X1842387D1*
X1970336D2*
X2355424D1*
X438647Y1629665D2*
X454467D1*
X1751538D2*
X1842387D1*
X1970336D2*
X2355424D1*
X1776391Y1604797D2*
X1842387D1*
X1970336D2*
X2355424D1*
X1786351Y1579928D2*
X1842387D1*
X1970336D2*
X2355424D1*
X1786351Y1555059D2*
X1842387D1*
X1970336D2*
X2355424D1*
X1786351Y1530190D2*
X1842387D1*
X1970336D2*
X2355375D1*
X1786351Y1505322D2*
X1842387D1*
X1970336D2*
X2355375D1*
X1786351Y1480453D2*
X1843900D1*
X1968823D2*
X2355375D1*
X2068823Y1455584D2*
X2355375D1*
X2068823Y1430715D2*
X2355375D1*
X2068823Y1405847D2*
X2355326D1*
X2068823Y1380978D2*
X2355326D1*
X2068823Y1356109D2*
X2355326D1*
X1723851Y1331240D2*
X1747954D1*
X2064623D2*
X2355326D1*
X1698950Y1306372D2*
X1743706D1*
X2068774D2*
X2355326D1*
X1672582Y1281503D2*
X1750298D1*
X2062084D2*
X2355278D1*
X1645140Y1256634D2*
X1774223D1*
X1837963D2*
X1875004D1*
X1937767D2*
X1975004D1*
X2037767D2*
X2355278D1*
X1664379Y1231765D2*
X2355278D1*
X1680492Y1206896D2*
X2355278D1*
X1299634Y1182028D2*
X1335404D1*
X1705346D2*
X2355278D1*
X1304907Y1157159D2*
X1356010D1*
X1730248D2*
X2355228D1*
X1305443Y1132290D2*
X1356010D1*
X1754760D2*
X2355228D1*
X436938Y1107421D2*
X470072D1*
X1301928D2*
X1366508D1*
X1761351D2*
X2075102D1*
X2141918D2*
X2355228D1*
X436840Y1082553D2*
X504056D1*
X1293774D2*
X1391410D1*
X1761351D2*
X2058695D1*
X2152514D2*
X2355228D1*
X436742Y1057684D2*
X505179D1*
X1316088D2*
X1469438D1*
X1761351D2*
X2055766D1*
X2166088D2*
X2355228D1*
X436694Y1032815D2*
X511039D1*
X1329808D2*
X1449467D1*
X1761351D2*
X2043900D1*
X2161254D2*
X2355179D1*
X436596Y1007946D2*
X521538D1*
X1218480D2*
X1257035D1*
X1324975D2*
X1444535D1*
X1761351D2*
X1900883D1*
X1990111D2*
X2038627D1*
X2161254D2*
X2273344D1*
X436498Y983078D2*
X539018D1*
X1149828D2*
X1257035D1*
X1324975D2*
X1339472D1*
X1377514D2*
X1444975D1*
X1761351D2*
X1876030D1*
X2014966D2*
X2043266D1*
X2161254D2*
X2259526D1*
X436450Y958209D2*
X566850D1*
X1139575D2*
X1257035D1*
X1396703D2*
X1420072D1*
X1761351D2*
X1851176D1*
X2161254D2*
X2258842D1*
X436351Y933340D2*
X639408D1*
X661791D2*
X691068D1*
X1122728D2*
X1257035D1*
X1762719D2*
X1826274D1*
X2161254D2*
X2199027D1*
X436254Y908471D2*
X706010D1*
X1095824D2*
X1257035D1*
X2161254D2*
X2181987D1*
X436206Y883602D2*
X730131D1*
X913695D2*
X985111D1*
X1034399D2*
X1237552D1*
X2161254D2*
X2179405D1*
X436107Y858734D2*
X776420D1*
X867407D2*
X1238920D1*
X2161254D2*
X2188823D1*
X436010Y833865D2*
X1322075D1*
X435962Y808996D2*
X701958D1*
X940892D2*
X1365874D1*
X435863Y784127D2*
X672758D1*
X947290D2*
X1341019D1*
X435766Y759259D2*
X670072D1*
X933471D2*
X1316118D1*
X435718Y734390D2*
X687308D1*
X435619Y709521D2*
X677983D1*
X435522Y684652D2*
X688286D1*
X435472Y659784D2*
X791899D1*
X435375Y634915D2*
X767875D1*
X435278Y610046D2*
X753374D1*
X435228Y585177D2*
X745122D1*
X435131Y560309D2*
X741947D1*
X435034Y535440D2*
X743462D1*
X437084Y510571D2*
X749907D1*
X444506Y485702D2*
X762064D1*
X461107Y460833D2*
X782134D1*
X503148Y435965D2*
X818168D1*
X1753115Y1886340D2*
X1750403Y1878081D1*
X1746131Y1869697D1*
X1740599Y1862085D1*
X1733946Y1855432D1*
X1728061Y1851055D1*
X1733946Y1846626D1*
X1740599Y1839973D1*
X1746131Y1832361D1*
X1750403Y1823976D1*
X1753309Y1815028D1*
X1754782Y1805734D1*
Y1796324D1*
X1753309Y1787030D1*
X1750403Y1778081D1*
X1746131Y1769697D1*
X1740599Y1762085D1*
X1733946Y1755432D1*
X1726334Y1749900D1*
X1717950Y1745629D1*
X1709001Y1742722D1*
X1699707Y1741249D1*
X1690298D1*
X1681004Y1742722D1*
X1672055Y1745629D1*
X1663670Y1749900D1*
X1656059Y1755432D1*
X1649405Y1762085D1*
X1645029Y1767970D1*
X1640599Y1762085D1*
X1633946Y1755432D1*
X1631794Y1753735D1*
X1636345Y1749272D1*
X1639711Y1744638D1*
X1642312Y1739536D1*
X1643878Y1734810D1*
X1776308Y1602260D1*
X1780422Y1596102D1*
X1782985Y1589155D1*
X1783855Y1581802D1*
X1783842Y1581465D1*
X1783855Y1468862D1*
X1846455Y1469150D1*
X1846407Y1486089D1*
X1845060Y1494824D1*
X1844871Y1537150D1*
Y1741301D1*
X1835069Y1741309D1*
Y1787646D1*
X1833723Y1796458D1*
Y1806109D1*
X1835068Y1814809D1*
X1835069Y1856114D1*
X1833723Y1864912D1*
X1833534Y1907238D1*
X1833723Y2005596D1*
X1835330Y2015473D1*
X1835333Y2060999D1*
X1882648D1*
X1890208Y2062081D1*
X1899859D1*
X1907798Y2060999D1*
X2000002Y2060814D1*
X2009296Y2059343D1*
X2018245Y2056434D1*
X2026630Y2052163D1*
X2034241Y2046631D1*
X2040895Y2039978D1*
X2046426Y2032366D1*
X2050698Y2023982D1*
X2053606Y2015033D1*
X2055077Y2005739D1*
X2055118Y1963303D1*
X2055051Y1945970D1*
X2056345Y1937395D1*
X2056534Y1895070D1*
X2056345Y1796448D1*
X2054834Y1786916D1*
X2051853Y1777738D1*
X2047471Y1769139D1*
X2041799Y1761332D1*
X2034975Y1754508D1*
X2027168Y1748836D1*
X2018569Y1744454D1*
X2009391Y1741473D1*
X1999859Y1739962D1*
X1990208D1*
X1981435Y1741322D1*
X1967837Y1741309D1*
X1967682Y1494824D1*
X1966323Y1486051D1*
X1966336Y1469101D1*
X2066346Y1469150D1*
Y1349221D1*
X2051063D1*
X2057510Y1340517D1*
X2061782Y1332133D1*
X2064689Y1323184D1*
X2066161Y1313890D1*
Y1304480D1*
X2064689Y1295186D1*
X2061782Y1286238D1*
X2057510Y1277853D1*
X2051979Y1270242D1*
X2045325Y1263588D1*
X2037714Y1258057D1*
X2029329Y1253785D1*
X2020380Y1250878D1*
X2011086Y1249406D1*
X2001677D1*
X1992383Y1250878D1*
X1983434Y1253785D1*
X1975050Y1258057D1*
X1967438Y1263588D1*
X1960784Y1270242D1*
X1956408Y1276126D1*
X1951968Y1270242D1*
X1945315Y1263588D1*
X1937703Y1258057D1*
X1929319Y1253785D1*
X1920370Y1250878D1*
X1911076Y1249406D1*
X1901666D1*
X1892372Y1250878D1*
X1883424Y1253785D1*
X1875039Y1258057D1*
X1867428Y1263588D1*
X1860774Y1270242D1*
X1856357Y1276186D1*
X1851703Y1269969D1*
X1845050Y1263315D1*
X1837438Y1257784D1*
X1829054Y1253512D1*
X1820105Y1250605D1*
X1810811Y1249133D1*
X1801401D1*
X1792107Y1250605D1*
X1783159Y1253512D1*
X1774774Y1257784D1*
X1767162Y1263315D1*
X1760509Y1269969D1*
X1754977Y1277580D1*
X1750706Y1285965D1*
X1747799Y1294913D1*
X1746326Y1304207D1*
Y1313617D1*
X1747799Y1322911D1*
X1750706Y1331860D1*
X1754977Y1340244D1*
X1760509Y1347856D1*
X1761519Y1348950D1*
X1746141Y1348948D1*
Y1356028D1*
X1674809Y1284827D1*
X1668652Y1280713D1*
X1661704Y1278150D1*
X1657631Y1277448D1*
X1652099Y1269836D1*
X1645446Y1263183D1*
X1639561Y1258806D1*
X1645446Y1254377D1*
X1652099Y1247723D1*
X1657631Y1240112D1*
X1661903Y1231727D1*
X1664809Y1222778D1*
X1665481Y1219404D1*
X1751305Y1133461D1*
X1755420Y1127303D1*
X1757983Y1120356D1*
X1758853Y1113003D1*
X1758840Y1112665D1*
X1758853Y934731D1*
X1773002Y932529D1*
X1827934D1*
X1908544Y1012982D1*
X1914702Y1017096D1*
X1921649Y1019659D1*
X1929002Y1020529D1*
X1929340Y1020516D1*
X1964473Y1020432D1*
X1971736Y1018987D1*
X1978462Y1015887D1*
X1984277Y1011303D1*
X1984506Y1011055D1*
X2022955Y972487D1*
X2027069Y966330D1*
X2029632Y959382D1*
X2030502Y952029D1*
X2030489Y951692D1*
X2030502Y930105D1*
X2045756Y914823D1*
X2045752Y994815D1*
X2042538Y1001999D1*
X2041200Y1007568D1*
X2040752Y1013278D1*
X2041200Y1018988D1*
X2042538Y1024558D1*
X2044729Y1029849D1*
X2047723Y1034732D1*
X2051442Y1039088D1*
X2055798Y1042807D1*
X2058796Y1044744D1*
X2058252Y1050529D1*
X2058349Y1071749D1*
X2059794Y1079012D1*
X2062893Y1085738D1*
X2067477Y1091553D1*
X2067727Y1091782D1*
X2073174Y1097249D1*
X2075980Y1104600D1*
X2078973Y1109483D1*
X2082693Y1113839D1*
X2087048Y1117558D1*
X2091931Y1120551D1*
X2097223Y1122743D1*
X2102792Y1124080D1*
X2108502Y1124529D1*
X2114212Y1124080D1*
X2119782Y1122743D1*
X2125073Y1120551D1*
X2129956Y1117558D1*
X2134312Y1113839D1*
X2138031Y1109483D1*
X2141025Y1104600D1*
X2143216Y1099309D1*
X2144554Y1093739D1*
X2144921Y1085959D1*
X2150956Y1081784D1*
X2155006Y1077734D1*
X2158372Y1073100D1*
X2160973Y1067997D1*
X2162744Y1062550D1*
X2163639Y1056892D1*
Y1051165D1*
X2162744Y1045508D1*
X2160973Y1040060D1*
X2158740Y1035612D1*
X2158752Y840797D1*
X2164075Y842142D1*
X2169002Y842529D1*
X2190829D1*
X2194934Y848046D1*
X2197676Y851012D1*
X2192211Y857467D1*
X2187617Y864963D1*
X2184253Y873085D1*
X2182200Y881634D1*
X2181510Y890399D1*
X2182200Y899164D1*
X2184253Y907713D1*
X2187617Y915835D1*
X2192211Y923331D1*
X2197920Y930017D1*
X2204606Y935726D1*
X2212102Y940320D1*
X2220224Y943684D1*
X2228773Y945736D1*
X2237538Y946427D1*
X2246303Y945736D1*
X2254851Y943684D1*
X2262973Y940320D1*
X2270470Y935726D1*
X2272615Y934034D1*
X2268506Y939865D1*
X2264515Y947698D1*
X2261799Y956060D1*
X2260424Y964743D1*
Y973536D1*
X2261799Y982218D1*
X2264515Y990580D1*
X2268506Y998413D1*
X2273674Y1005526D1*
X2279891Y1011743D1*
X2287004Y1016911D1*
X2294837Y1020902D1*
X2303199Y1023618D1*
X2311882Y1024994D1*
X2320674D1*
X2329357Y1023618D1*
X2337719Y1020902D1*
X2345552Y1016911D1*
X2352665Y1011743D1*
X2357703Y1006801D1*
X2358107Y2073659D1*
X2344962Y2062728D1*
X2336302Y2056942D1*
X2327216Y2051853D1*
X2317758Y2047494D1*
X2307988Y2043889D1*
X2297964Y2041062D1*
X2287750Y2039030D1*
X2277408Y2037807D1*
X2267002Y2037398D1*
X2256597Y2037807D1*
X2246254Y2039030D1*
X2236040Y2041062D1*
X2226017Y2043889D1*
X2216246Y2047494D1*
X2206788Y2051853D1*
X2197703Y2056942D1*
X2189043Y2062728D1*
X2180866Y2069176D1*
X2173218Y2076244D1*
X2166149Y2083892D1*
X2159702Y2092070D1*
X2153916Y2100730D1*
X2148826Y2109815D1*
X2144467Y2119273D1*
X2140862Y2129043D1*
X2138035Y2139067D1*
X2136004Y2149281D1*
X2134781Y2159623D1*
X2134371Y2170029D1*
X2134781Y2180434D1*
X2136004Y2190777D1*
X2138035Y2200991D1*
X2140862Y2211015D1*
X2144467Y2220785D1*
X2148826Y2230243D1*
X2153916Y2239328D1*
X2159702Y2247988D1*
X2166149Y2256165D1*
X2173218Y2263814D1*
X2180866Y2270882D1*
X2189043Y2277330D1*
X2197703Y2283116D1*
X2206788Y2288205D1*
X2216246Y2292564D1*
X2226017Y2296169D1*
X2236040Y2298996D1*
X2246254Y2301028D1*
X2256597Y2302251D1*
X2267002Y2302660D1*
X2277408Y2302251D1*
X2287750Y2301028D1*
X2297964Y2298996D1*
X2307988Y2296169D1*
X2317758Y2292564D1*
X2327216Y2288205D1*
X2336302Y2283116D1*
X2344962Y2277330D1*
X2353139Y2270882D1*
X2358187Y2266215D1*
X2358459Y2971511D1*
X2344962Y2960230D1*
X2336302Y2954444D1*
X2327216Y2949354D1*
X2317758Y2944995D1*
X2307988Y2941390D1*
X2297964Y2938563D1*
X2287750Y2936532D1*
X2277408Y2935309D1*
X2267002Y2934899D1*
X2256597Y2935309D1*
X2246254Y2936532D1*
X2236040Y2938563D1*
X2226017Y2941390D1*
X2216246Y2944995D1*
X2206788Y2949354D1*
X2197703Y2954444D1*
X2189043Y2960230D1*
X2180866Y2966677D1*
X2173218Y2973746D1*
X2166149Y2981394D1*
X2159702Y2989571D1*
X2153916Y2998231D1*
X2148826Y3007316D1*
X2144467Y3016774D1*
X2140862Y3026545D1*
X2138035Y3036568D1*
X2136004Y3046782D1*
X2134781Y3057125D1*
X2134371Y3067530D1*
X2134781Y3077936D1*
X2136004Y3088278D1*
X2138035Y3098492D1*
X2140862Y3108516D1*
X2144467Y3118286D1*
X2148826Y3127744D1*
X2153916Y3136830D1*
X2159702Y3145490D1*
X2166149Y3153667D1*
X2173218Y3161315D1*
X2184858Y3171532D1*
X1876943Y3171528D1*
X1871627Y3170669D1*
X1868602Y3169291D1*
X1866051Y3167167D1*
X1864157Y3164453D1*
X1863042Y3161328D1*
X1862493Y3154364D1*
X1863380Y2605410D1*
X1857765Y2567475D1*
X1842452Y2529822D1*
X1818607Y2496902D1*
X1787605Y2470612D1*
X1751231Y2452466D1*
X1711816Y2443566D1*
X524863Y2440534D1*
X501235Y2438160D1*
X483971Y2432162D1*
X474281Y2425882D1*
X451846Y2403427D1*
X444651Y2390812D1*
X440073Y2375057D1*
X438481Y2353314D1*
X435771Y1520835D1*
X442581Y1526885D1*
X444193Y1533530D1*
X445983Y1537284D1*
X451672Y1547137D1*
X450349Y1552530D1*
X448103Y1572811D1*
X448530Y1591793D1*
X451393Y1610563D1*
X456647Y1628809D1*
X464202Y1646228D1*
X473933Y1662532D1*
X485679Y1677449D1*
X499246Y1690732D1*
X514409Y1702162D1*
X530914Y1711546D1*
X548489Y1718731D1*
X566842Y1723599D1*
X585668Y1726064D1*
X588509Y1726420D1*
X596993Y1731412D1*
X597959Y1735709D1*
X604773Y1754673D1*
X613408Y1771326D1*
X624120Y1786723D1*
X636733Y1800608D1*
X651035Y1812746D1*
X666783Y1822934D1*
X683718Y1831004D1*
X701551Y1836818D1*
X719987Y1840278D1*
X738715Y1841330D1*
X748389Y1840719D1*
X747117Y1847717D1*
Y1853444D1*
X748012Y1859101D1*
X749782Y1864549D1*
X752383Y1869651D1*
X755749Y1874285D1*
X759799Y1878335D1*
X764433Y1881701D1*
X769535Y1884302D1*
X774983Y1886072D1*
X780640Y1886967D1*
X818416Y1887080D1*
X823782Y1893812D1*
X805723D1*
Y1957738D1*
X767350Y1957807D1*
X760088Y1959252D1*
X753362Y1962352D1*
X747547Y1966936D1*
X747317Y1967185D1*
X744958Y1969526D1*
X702536Y1969501D1*
X702405Y1885558D1*
X700960Y1878295D1*
X697861Y1871570D1*
X693277Y1865755D1*
X693027Y1865525D1*
X656298Y1828777D1*
X653525Y1821458D1*
X650531Y1816575D1*
X646812Y1812219D1*
X642456Y1808500D1*
X637573Y1805507D1*
X632282Y1803315D1*
X626712Y1801978D1*
X621002Y1801529D1*
X615292Y1801978D1*
X609723Y1803315D1*
X604431Y1805507D1*
X599548Y1808500D1*
X595193Y1812219D1*
X591473Y1816575D1*
X588480Y1821458D1*
X586288Y1826749D1*
X584951Y1832319D1*
X584656Y1834820D1*
X540723Y1834812D1*
Y1874803D1*
X497050Y1918571D1*
X492935Y1924728D1*
X490372Y1931676D1*
X489502Y1939029D1*
X489515Y1939366D1*
X489599Y2265500D1*
X491044Y2272763D1*
X494144Y2279488D1*
X498728Y2285303D1*
X498976Y2285533D1*
X550544Y2336982D1*
X556702Y2341096D1*
X563649Y2343659D1*
X571002Y2344529D1*
X571340Y2344516D1*
X704723Y2344432D1*
X711985Y2342987D1*
X718711Y2339887D1*
X724526Y2335303D1*
X724756Y2335055D1*
X757455Y2302236D1*
X761569Y2296079D1*
X764132Y2289131D1*
X765002Y2281778D1*
X764989Y2281441D1*
X765002Y2256534D1*
X785593Y2256557D1*
Y2186684D1*
X882502Y2089902D1*
X882661Y2189070D1*
X883925Y2197051D1*
X886422Y2204738D1*
X890092Y2211937D1*
X894841Y2218475D1*
X924103Y2247962D1*
X996556Y2320190D1*
X1003094Y2324940D1*
X1010294Y2328609D1*
X1017980Y2331106D1*
X1025962Y2332370D1*
X1067502Y2332529D1*
X1520043Y2332370D1*
X1528025Y2331106D1*
X1535711Y2328609D1*
X1542910Y2324940D1*
X1549449Y2320190D1*
X1578935Y2290928D1*
X1802164Y2067475D1*
X1806913Y2060937D1*
X1810582Y2053738D1*
X1813080Y2046051D1*
X1814344Y2038070D1*
X1814502Y1996529D1*
X1814344Y1964988D1*
X1813080Y1957007D1*
X1810582Y1949320D1*
X1806913Y1942121D1*
X1802164Y1935583D1*
X1772901Y1906096D1*
X1753118Y1886312D1*
X1150849Y995721D2*
X1149617Y990347D1*
X1143365Y971310D1*
X1134958Y954075D1*
X1124333Y938110D1*
X1111678Y923702D1*
X1097219Y911105D1*
X1081214Y900543D1*
X1063945Y892206D1*
X1045719Y886240D1*
X1026862Y882752D1*
X1007710Y881805D1*
X988601Y883412D1*
X969875Y887549D1*
X951867Y894141D1*
X934572Y903290D1*
X932527Y904673D1*
X919544Y890625D1*
X905190Y878781D1*
X889767Y869085D1*
X873232Y861441D1*
X855854Y855974D1*
X837920Y852774D1*
X819723Y851894D1*
X801564Y853348D1*
X783740Y857112D1*
X766543Y863125D1*
X750257Y871286D1*
X735148Y881465D1*
X721464Y893491D1*
X709430Y907168D1*
X699245Y922272D1*
X690933Y938693D1*
X685418Y937150D1*
X668677Y933969D1*
X649735Y932839D1*
X630808Y934205D1*
X612224Y938041D1*
X594304Y944284D1*
X577359Y952822D1*
X561679Y963511D1*
X547539Y976164D1*
X535179Y990563D1*
X524817Y1006459D1*
X516630Y1023578D1*
X510758Y1041622D1*
X507305Y1060281D1*
X506330Y1079231D1*
X506613Y1083557D1*
X501073Y1093070D1*
X494741Y1095391D1*
X476257Y1104919D1*
X460353Y1116012D1*
X446010Y1129062D1*
X435225Y1141587D1*
X434529Y1141491D1*
X432512Y525520D1*
X436132Y499524D1*
X445487Y477521D1*
X460253Y458714D1*
X479410Y444404D1*
X501635Y435581D1*
X528329Y432516D1*
X828620Y432529D1*
X816788Y437853D1*
X807703Y442942D1*
X799043Y448728D1*
X790866Y455176D1*
X783218Y462244D1*
X776149Y469892D1*
X769702Y478070D1*
X763916Y486730D1*
X758826Y495815D1*
X754467Y505273D1*
X750862Y515043D1*
X748035Y525067D1*
X746004Y535281D1*
X744781Y545623D1*
X744371Y556029D1*
X744781Y566434D1*
X746004Y576777D1*
X748035Y586991D1*
X750862Y597015D1*
X754467Y606785D1*
X758826Y616243D1*
X763916Y625328D1*
X769702Y633988D1*
X776149Y642165D1*
X783218Y649814D1*
X790866Y656882D1*
X799043Y663330D1*
X807703Y669116D1*
X815618Y673549D1*
X714139Y673642D1*
X708481Y674537D1*
X703034Y676307D1*
X697931Y678908D1*
X693298Y682274D1*
X689248Y686324D1*
X685882Y690958D1*
X683281Y696060D1*
X681510Y701508D1*
X680615Y707165D1*
Y712892D1*
X681510Y718550D1*
X683281Y723997D1*
X685882Y729100D1*
X689514Y734021D1*
X688931Y736908D1*
X684298Y740274D1*
X680248Y744324D1*
X676882Y748958D1*
X674281Y754060D1*
X672510Y759508D1*
X671615Y765165D1*
Y770892D1*
X672510Y776550D1*
X674281Y781997D1*
X676882Y787100D1*
X680248Y791734D1*
X684298Y795784D1*
X688931Y799150D1*
X694034Y801751D1*
X698760Y803316D1*
X709487Y813513D1*
X715947Y817131D1*
X723075Y819142D1*
X728002Y819529D1*
X890063D1*
X897223Y822743D1*
X902792Y824080D1*
X908502Y824529D1*
X914212Y824080D1*
X919782Y822743D1*
X925073Y820551D1*
X929956Y817558D1*
X934312Y813839D1*
X938031Y809483D1*
X941025Y804600D1*
X943216Y799309D1*
X944554Y793739D1*
X945002Y788029D1*
X944554Y782319D1*
X943216Y776749D1*
X941025Y771458D1*
X938031Y766575D1*
X934312Y762219D1*
X929956Y758500D1*
X925073Y755507D1*
X919782Y753315D1*
X914212Y751978D1*
X908502Y751529D1*
X902792Y751978D1*
X897223Y753315D1*
X890085Y756541D1*
X742634Y756529D1*
X740525Y751458D1*
X737483Y746513D1*
X1305918Y746529D1*
X1373326Y813973D1*
X1367023Y811837D1*
X1361366Y810942D1*
X1355639D1*
X1349981Y811837D1*
X1344534Y813608D1*
X1339431Y816209D1*
X1334798Y819575D1*
X1330748Y823625D1*
X1327382Y828259D1*
X1324781Y833361D1*
X1323010Y838809D1*
X1322115Y844466D1*
Y850193D1*
X1323010Y855851D1*
X1324781Y861298D1*
X1327014Y865747D1*
X1327002Y932046D1*
X1323788Y939249D1*
X1322489Y944633D1*
X1322405Y886558D1*
X1320960Y879295D1*
X1317861Y872570D1*
X1313277Y866755D1*
X1313029Y866525D1*
X1310341Y863820D1*
X1307525Y856458D1*
X1304531Y851575D1*
X1300812Y847219D1*
X1296456Y843500D1*
X1291573Y840507D1*
X1286282Y838315D1*
X1280712Y836978D1*
X1275002Y836529D1*
X1269292Y836978D1*
X1263723Y838315D1*
X1258431Y840507D1*
X1253548Y843500D1*
X1249193Y847219D1*
X1245473Y851575D1*
X1242480Y856458D1*
X1240288Y861749D1*
X1238951Y867319D1*
X1238502Y873029D1*
X1238951Y878739D1*
X1240288Y884309D1*
X1242480Y889600D1*
X1245473Y894483D1*
X1249193Y898839D1*
X1253548Y902558D1*
X1259519Y906053D1*
X1259502Y1010562D1*
X1256288Y1017749D1*
X1254951Y1023319D1*
X1254502Y1029029D1*
X1254703Y1032638D1*
X1245662Y1024963D1*
X1229721Y1014592D1*
X1212555Y1006408D1*
X1194460Y1000555D1*
X1175753Y997135D1*
X1156757Y996205D1*
X1152193Y996518D1*
X1150036Y992306D1*
X1148530Y986723D1*
X1142540Y969483D1*
X1133899Y952374D1*
X1123057Y936566D1*
X1110208Y922340D1*
X1095581Y909952D1*
X1079437Y899618D1*
X1062060Y891525D1*
X1043761Y885816D1*
X1024865Y882592D1*
X1005708Y881911D1*
X986631Y883785D1*
X967973Y888180D1*
X950067Y895018D1*
X935632Y902620D1*
X1296942Y1183465D2*
X1297468Y1181037D1*
X1299026Y1175525D1*
X1302254Y1158765D1*
X1303429Y1139784D1*
X1302094Y1120812D1*
X1298275Y1102183D1*
X1292038Y1084217D1*
X1283491Y1067228D1*
X1281899Y1064806D1*
X1282481Y1064521D1*
X1288139Y1065416D1*
X1293866D1*
X1299523Y1064521D1*
X1304971Y1062751D1*
X1310073Y1060150D1*
X1314707Y1056784D1*
X1318757Y1052734D1*
X1322123Y1048100D1*
X1324724Y1042997D1*
X1326494Y1037550D1*
X1327389Y1031892D1*
Y1026165D1*
X1326494Y1020508D1*
X1324724Y1015060D1*
X1322491Y1010612D1*
X1322502Y956520D1*
X1323788Y961809D1*
X1325980Y967100D1*
X1328973Y971983D1*
X1332693Y976339D1*
X1337048Y980058D1*
X1341931Y983051D1*
X1347223Y985243D1*
X1352792Y986580D1*
X1358502Y987029D1*
X1364212Y986580D1*
X1369782Y985243D1*
X1375073Y983051D1*
X1379956Y980058D1*
X1384312Y976339D1*
X1388031Y971983D1*
X1391025Y967100D1*
X1393216Y961809D1*
X1394554Y956239D1*
X1395002Y950529D1*
X1394554Y944819D1*
X1393216Y939249D1*
X1389991Y932112D1*
X1396031Y931677D1*
X1451240Y986886D1*
X1448695Y995030D1*
X1447223Y1004324D1*
Y1013734D1*
X1448695Y1023028D1*
X1451602Y1031976D1*
X1455874Y1040361D1*
X1461405Y1047973D1*
X1468059Y1054626D1*
X1473943Y1059003D1*
X1468059Y1063432D1*
X1461405Y1070085D1*
X1459458Y1072555D1*
X1416139Y1072642D1*
X1410481Y1073537D1*
X1405034Y1075307D1*
X1399931Y1077907D1*
X1395298Y1081274D1*
X1369193Y1107219D1*
X1365473Y1111575D1*
X1362480Y1116458D1*
X1360288Y1121749D1*
X1358951Y1127319D1*
X1358502Y1133029D1*
Y1170773D1*
X1350783Y1173058D1*
X1345681Y1175659D1*
X1341047Y1179025D1*
X1336997Y1183075D1*
X1333631Y1187709D1*
X1331030Y1192811D1*
X1329260Y1198259D1*
X1328365Y1203916D1*
X1328623Y1211833D1*
X1319441Y1202987D1*
X1303987Y1191483D1*
X1300316Y1189365D1*
X1296775Y1183150D1*
X1299198Y1174591D1*
X1302433Y1156823D1*
X1303350Y1137835D1*
X1301760Y1118891D1*
X1297691Y1100322D1*
X1291214Y1082449D1*
X1282442Y1065584D1*
X1281551Y1064268D1*
D25*
X1595002Y2001029D3*
D26*
X1695002D3*
X1595002Y1901029D3*
X1695002D3*
X1595002Y1801029D3*
X1695002D3*
D25*
X1295002Y2051029D3*
D26*
X1395002D3*
X1295002Y1951029D3*
X1395002D3*
X1295002Y1851029D3*
X1395002D3*
X1295002Y1751029D3*
X1395002D3*
D25*
X1895298Y2001034D3*
D26*
X1995298D3*
X2095298D3*
X2195298D3*
D25*
X1895034Y1901284D3*
D26*
X1995034D3*
X2095034D3*
X2195034D3*
D25*
X1895034Y1801273D3*
D26*
X1995034D3*
X2095034D3*
X2195034D3*
D25*
X1195002Y2051029D3*
D26*
Y1951029D3*
Y1851029D3*
D25*
X2006382Y1409185D3*
D26*
Y1309185D3*
Y1209185D3*
Y1109185D3*
D25*
X1906371Y1409185D3*
D26*
Y1309185D3*
Y1209185D3*
Y1109185D3*
D25*
X1806106Y1408912D3*
D26*
Y1308912D3*
Y1208912D3*
Y1108912D3*
D27*
X1110002Y1257029D3*
D28*
Y1307029D3*
Y1357029D3*
Y1407029D3*
Y1457029D3*
D29*
X2316278Y732919D3*
D30*
Y811659D3*
Y890399D3*
Y969139D3*
X2237538D3*
Y890399D3*
Y811659D3*
Y732919D3*
D31*
X771624Y1213898D3*
X973002Y1214029D3*
D34*
X657002Y1429042D3*
X590073D3*
X657002Y1366536D3*
X590073D3*
X657002Y1241522D3*
X590073D3*
X657002Y1304029D3*
X590073D3*
D98*
X823002Y963029D3*
X923002D3*
D99*
X1244468Y1519728D3*
X1194468Y1606331D3*
D100*
X1116304Y1684378D3*
X1029700Y1734378D3*
D101*
X1029702Y991564D3*
X1116304Y1041564D3*
D102*
X473002Y1413029D3*
Y1313029D3*
D103*
X923002Y1763029D3*
X823002D3*
D104*
X1194351Y1119728D3*
X1244351Y1206331D3*
D105*
X501537Y1206330D3*
X551537Y1119727D3*
D106*
X716303Y1734494D3*
X629700Y1684494D3*
D107*
X1273002Y1313029D3*
Y1413029D3*
D108*
X629701Y1041680D3*
X716305Y991680D3*
D109*
X551653Y1606330D3*
X501653Y1519727D3*
D25*
X1506502Y1508780D3*
D26*
X1606502D3*
X1506502Y1408780D3*
X1606502D3*
X1506502Y1308780D3*
X1606502D3*
X1506502Y1208780D3*
X1606502D3*
D25*
X1607002Y1009029D3*
D26*
X1507002D3*
X1607002Y1109029D3*
X1507002D3*
D40*
X583502Y2200529D3*
X658305D3*
X733502D3*
D41*
X581002Y1930210D3*
Y1879029D3*
D40*
X583502Y2025529D3*
X658305D3*
X733502D3*
X583502Y2113029D3*
X658305D3*
X733502D3*
D41*
X896002Y1938029D3*
Y1989210D3*
X846002Y1938029D3*
Y1989210D3*
D42*
X972002Y1496029D3*
D43*
X772002D3*
M02*
