G04 DipTrace 3.0.0.2*
G04 Bottom.gbr*
%MOIN*%
G04 #@! TF.FileFunction,Copper,L2,Bot*
G04 #@! TF.Part,Single*
%AMOUTLINE0*5,1,8,0,0,0.066,-22.49998*%
%AMOUTLINE1*5,1,8,0,0,0.066,-262.500516*%
%AMOUTLINE2*5,1,8,0,0,0.066001,-232.500313*%
%AMOUTLINE3*5,1,8,0,0,0.066,7.499484*%
%AMOUTLINE4*5,1,8,0,0,0.066,-112.49998*%
%AMOUTLINE5*5,1,8,0,0,0.066,-202.49998*%
%AMOUTLINE6*5,1,8,0,0,0.066001,37.499687*%
%AMOUTLINE7*5,1,8,0,0,0.066,-82.500516*%
%AMOUTLINE8*5,1,8,0,0,0.066,-172.500516*%
%AMOUTLINE9*5,1,8,0,0,0.066,67.50002*%
%AMOUTLINE10*5,1,8,0,0,0.066001,-52.500313*%
%AMOUTLINE11*5,1,8,0,0,0.066001,-142.500313*%
G04 #@! TA.AperFunction,Conductor*
%ADD13C,0.01*%
G04 #@! TA.AperFunction,ViaPad*
%ADD14C,0.02*%
G04 #@! TA.AperFunction,Conductor*
%ADD15C,0.014*%
%ADD16C,0.04*%
%ADD17C,0.066929*%
G04 #@! TA.AperFunction,ViaPad*
%ADD18C,0.05*%
G04 #@! TA.AperFunction,Conductor*
%ADD19C,0.06*%
%ADD20C,0.07*%
G04 #@! TA.AperFunction,CopperBalancing*
%ADD21C,0.025*%
%ADD22R,0.177165X0.051181*%
%ADD23R,0.153543X0.070866*%
%ADD24R,0.3X0.27*%
G04 #@! TA.AperFunction,ComponentPad*
%ADD25R,0.066929X0.066929*%
%ADD26C,0.066929*%
%ADD27R,0.051181X0.03937*%
%ADD28O,0.051181X0.03937*%
%ADD29R,0.059055X0.059055*%
%ADD30C,0.059055*%
%ADD31R,0.15X0.15*%
%ADD33R,0.025591X0.041339*%
%ADD35R,0.0195X0.014*%
%ADD36R,0.086614X0.027559*%
%ADD37R,0.090551X0.043*%
G04 #@! TA.AperFunction,ComponentPad*
%ADD42C,0.062992*%
%ADD43R,0.062992X0.062992*%
%ADD98OUTLINE0*%
%ADD99OUTLINE1*%
%ADD100OUTLINE2*%
%ADD101OUTLINE3*%
%ADD102OUTLINE4*%
%ADD103OUTLINE5*%
%ADD104OUTLINE6*%
%ADD105OUTLINE7*%
%ADD106OUTLINE8*%
%ADD107OUTLINE9*%
%ADD108OUTLINE10*%
%ADD109OUTLINE11*%
%FSLAX26Y26*%
G04*
G70*
G90*
G75*
G01*
G04 Bottom*
%LPD*%
X2047002Y938029D2*
D13*
Y958029D1*
Y978029D1*
Y998029D1*
X2008502Y838029D2*
Y865529D1*
X2047002Y904029D1*
Y938029D1*
X1507002Y1109029D2*
D14*
X1607002D1*
Y1103029D1*
X1683002Y1027029D1*
X2044002D1*
Y1001029D1*
D15*
X2047002Y998029D1*
X1607002Y1009029D2*
D16*
X1507002D1*
D14*
D3*
X2167147Y1344277D2*
X2109250D1*
X2091002Y1326029D1*
Y1120029D1*
X2027002Y1056029D1*
X1728071D1*
X1696099Y1088000D1*
X717002Y710029D2*
X713683Y706710D1*
X639480D1*
X1395002Y2051029D2*
D16*
X1464397D1*
X1508580Y2006847D1*
Y1744319D1*
X1546084Y1706815D1*
X1689849Y1419285D2*
X1696099D1*
Y1088000D1*
X772002Y1496029D2*
D14*
Y1839079D1*
X783504Y1850580D1*
X1102287Y2069353D2*
X1152292Y2119358D1*
X1271055D1*
X1296057Y2094356D1*
Y2052084D1*
X1295002Y2051029D1*
X1595002Y2001029D2*
D17*
X1695002D1*
X793498Y2175614D2*
D18*
X1020588D1*
X1595002Y1901029D2*
D17*
X1695002D1*
X793498Y2077402D2*
D18*
X934002D1*
X1906371Y1309185D2*
Y1409185D1*
X1895034Y1801273D2*
X1995034D1*
Y2000770D1*
X1995298Y2001034D1*
X1895298D1*
Y1801537D1*
X1895034Y1801273D1*
X1995034Y1901284D1*
Y1901298D1*
X1895298Y2001034D1*
X1895034Y1901284D2*
X1895547D1*
X1995298Y2001034D1*
X1895034Y1901273D2*
X1995034Y1801273D1*
Y1901284D2*
X1895034D1*
Y1801273D2*
D19*
X1995034D1*
Y1901284D1*
X1895034Y1801273D2*
D17*
X1995034D1*
Y1869738D1*
D20*
Y2000770D1*
D17*
X1995298Y2001034D1*
X1895298D1*
Y1932570D1*
D20*
Y1801537D1*
D17*
X1895034Y1801273D1*
X1595002Y1801029D2*
X1695002D1*
X1763467D1*
D20*
X1894790D1*
X793498Y1978402D2*
D18*
X918130D1*
X1246002Y1650529D1*
X1758502D1*
X1909002Y1801029D1*
X1595002D1*
X1995298Y2001034D2*
D21*
Y2728324D1*
X1996002Y2729029D1*
X2006382Y1409185D2*
D18*
X1906371D1*
X1806379D1*
X1806106Y1408912D1*
X1802252Y1394280D2*
Y1312767D1*
X1806106Y1308912D1*
X2006109D1*
X2006382Y1309185D1*
Y1409185D1*
X2006371D1*
X1906371Y1309185D1*
X1905833D1*
X1806106Y1408912D1*
Y1308912D2*
Y1308920D1*
X1906371Y1409185D1*
X1906382D1*
X2006382Y1309185D1*
X1458605Y1583518D2*
D13*
X1451533D1*
X1439008Y1570994D1*
X1394967D1*
X1280502Y1456529D1*
X1248838D1*
X1228002Y1435693D1*
Y1401406D1*
X1150634Y1324029D1*
X1126002D1*
X1110002Y1308029D1*
Y1307029D1*
X1440219Y1601904D2*
Y1594832D1*
X1432380Y1586994D1*
X1388340D1*
X1273875Y1472529D1*
X1242211D1*
X1212002Y1442320D1*
Y1408033D1*
X1144006Y1340029D1*
X1126002D1*
X1110002Y1356029D1*
Y1357029D1*
X1583404Y584978D2*
X1688054D1*
X1736002Y537029D1*
X1845002D1*
X1948002Y640029D1*
Y902029D1*
X1984002Y938029D1*
X2007002D1*
X1583404Y584978D2*
X1492952D1*
X1452253Y544278D1*
X1371002D1*
X1208502Y706778D1*
X821002D1*
X714753Y600529D1*
X577253D1*
X558502Y619280D1*
Y1038029D1*
X502252Y1094280D1*
Y1138029D1*
X564752Y1200529D1*
Y1550528D1*
X596002Y1581778D1*
Y1644280D1*
X571002Y1669280D1*
Y1788029D1*
X621002Y1838029D1*
X1395904Y584978D2*
X1457951D1*
X1502002Y629029D1*
X1667002D1*
X1743002Y553029D1*
X1838002D1*
X1932002Y647029D1*
Y921029D1*
X1970002Y959029D1*
X2006002D1*
X2007002Y958029D1*
X1395904Y584978D2*
X1361554D1*
X1221002Y725529D1*
X814752D1*
X708502Y619280D1*
X583501D1*
X577252Y625529D1*
Y1069278D1*
X608502Y1100529D1*
Y1563029D1*
X683502Y1638029D1*
Y1700529D1*
X646002Y1738029D1*
Y1850529D1*
X614752Y1881780D1*
Y2063029D1*
X621002Y2069280D1*
X2007002Y978029D2*
X1956002D1*
X1946002Y968029D1*
X1709002Y884029D2*
Y848029D1*
X1620002Y759029D1*
X1584353D1*
X1583404Y759978D1*
X1709002Y884029D2*
X1785909D1*
X1802361Y900480D1*
Y950486D1*
X1777358Y975488D1*
X1683462D1*
X1639753Y931780D1*
X1458501D1*
X1364752Y1025529D1*
Y1206780D1*
X2048502Y655529D2*
X2090502D1*
X2145002Y710029D1*
Y745029D1*
Y797864D1*
X2237538Y890399D1*
X1620805Y850529D2*
X1648502D1*
X2009002Y748029D2*
Y745029D1*
X2145002D1*
X639752Y1906780D2*
X652250D1*
X677252Y1881778D1*
X871004D1*
X902253Y1850529D1*
X1339752Y1456780D2*
X1358502D1*
X1427253Y1388029D1*
X583502Y2250529D2*
Y2263029D1*
X671002Y2350529D1*
X933502D1*
X1102252Y2181780D1*
X1489752D1*
X1546084Y2125448D1*
Y1769322D1*
X1577337Y1738068D1*
X1596089D1*
X1608590Y1725567D1*
X2008502Y778029D2*
X1998502D1*
X1983502Y763029D1*
Y738029D1*
X2002253Y719278D1*
X2083502D1*
X2108502Y1088029D2*
Y1100529D1*
X2121002Y1113029D1*
Y1200529D1*
X2171002Y1250529D1*
X2221002D1*
X2264752Y1294278D1*
Y1431780D1*
X2189737Y1506794D1*
X1727353D1*
X1458502Y2156778D2*
X1096002D1*
X927252Y2325529D1*
X683502D1*
X646002Y2288029D1*
X1433502Y756778D2*
X1463753D1*
X2077253Y775529D2*
X2051002D1*
X2048502Y778029D1*
X2316278Y732919D2*
Y747305D1*
X2259002Y690029D1*
X2206002D1*
X2102002Y586029D1*
X2025002D1*
X2007002Y604029D1*
Y614029D1*
X2008502Y615529D1*
Y635529D1*
Y655529D1*
Y675529D1*
X1980783Y703248D1*
X1964002Y720029D1*
Y795029D1*
X1987002Y818029D1*
X2008502D1*
X1733502Y675529D2*
Y717470D1*
Y850529D1*
X1546002Y675529D2*
Y717029D1*
Y850529D1*
X1358502Y675529D2*
Y699529D1*
X1376002Y717029D1*
X1546002D1*
X1733502Y717470D1*
X1731561D2*
X1733502D1*
X639480Y646710D2*
D21*
X698433D1*
X806593Y754870D1*
X872002Y820280D1*
Y1015029D1*
X973002Y1116029D1*
Y1214029D1*
X2006371Y1168185D2*
D18*
X2006382D1*
Y1109185D1*
X2095034Y1801273D2*
D17*
Y1869738D1*
D20*
Y2000770D1*
D17*
X2095298Y2001034D1*
X2195298D1*
Y1932570D1*
D20*
Y1801537D1*
D17*
X2195034Y1801273D1*
X2095034D1*
Y1901284D2*
X2195034D1*
X2194784Y2001034D2*
D20*
X2143446Y1949696D1*
D17*
X2095034Y1901284D1*
Y1901273D1*
D20*
X2146622Y1849685D1*
D17*
X2195034Y1801273D1*
X1771107Y937984D2*
D21*
X1681958D1*
X1648002Y904029D1*
X1352002D1*
X1306002Y858029D1*
X1202844Y754870D1*
X806593D1*
X973002Y1214029D2*
Y1568345D1*
Y1825029D1*
X885002Y1913029D1*
X702253D1*
X658502Y1956780D1*
Y2249529D1*
X680002Y2271029D1*
X790488D1*
X793498Y2274039D1*
X1358699Y756778D2*
D13*
X1361002D1*
Y803029D1*
X1306002Y858029D1*
X1906371Y1109185D2*
D18*
Y1209185D1*
X1806106Y1108912D2*
Y1208912D1*
X2006382Y1109185D2*
Y1209185D1*
X1906371D1*
X1806379D1*
X1806106Y1208912D1*
X1806644D2*
X1906371Y1109185D1*
X1906382D1*
X2006382Y1209185D1*
Y1109185D2*
X1806379D1*
X1806106Y1108912D1*
X1906371Y1209185D1*
X2006382Y1109185D1*
Y1209185D2*
D21*
X2010159D1*
X2059002Y1258029D1*
Y1342029D1*
X2121002Y1404029D1*
X2166899D1*
X2167147Y1404277D1*
X972002Y1496029D2*
D13*
X973002Y1568345D1*
X1770904Y759978D2*
X1788951D1*
X1895002Y866029D1*
X2050002D2*
Y839529D1*
X2048502Y838029D1*
X1295002Y1951029D2*
Y1949529D1*
X1246002Y1900529D1*
X1177252D1*
X1083501Y1994280D1*
X1039752D1*
X2048502Y635529D2*
X2095502D1*
X2171002Y711029D1*
Y731778D1*
X1433305Y675529D2*
X1465502D1*
X996002Y2044278D2*
Y1963029D1*
X796002Y2025529D2*
X946002D1*
X989753Y2069280D1*
X1039752D1*
X1083502Y2025529D1*
X1169502D1*
X1195002Y2051029D1*
X2048502Y615529D2*
X2104502D1*
X2196002Y707029D1*
Y770123D1*
X2237538Y811659D1*
X1620805Y675529D2*
X1650502D1*
X1021002Y1944278D2*
Y1975529D1*
X1014752Y1981780D1*
Y2031778D1*
X1027252Y2044278D1*
X2167147Y1284277D2*
X2203250D1*
X2246002Y1327029D1*
Y1425529D1*
X2189752Y1481780D1*
X1658502D1*
X1633502Y1456780D1*
X1554502D1*
X1506502Y1408780D1*
X1606502D2*
X1604753D1*
X1557002Y1361029D1*
X1451002D1*
X1334002Y1244029D1*
Y1072029D1*
X1291002Y1029029D1*
X1275002Y873029D2*
X1190002Y788029D1*
X908502D1*
X708002Y768029D2*
X640799D1*
X639480Y766710D1*
X1396101Y847330D2*
X1358502D1*
Y950529D2*
X1207376D1*
X1116304Y1041601D1*
X1770904Y584978D2*
X1802405D1*
X1846951D1*
X1916002Y654029D1*
Y974029D1*
X1939002Y997029D1*
X2006002D1*
X2007002Y998029D1*
X2316278Y811659D2*
X2323632D1*
X2378002Y866029D1*
Y998029D1*
X2322002Y1054029D1*
X2127252D1*
X2082002Y681029D2*
X2084002D1*
X2078502Y675529D1*
X2048502D1*
X1808305D2*
X1840903D1*
X2316278Y890399D2*
Y891305D1*
X2361002Y936029D1*
Y992029D1*
X2321002Y1032029D1*
X2096002D1*
X2077252Y1013278D1*
Y819278D2*
X2049752D1*
X2048502Y818029D1*
X1808305Y850529D2*
X1841502D1*
D14*
X1696099Y1088000D3*
X717002Y710029D3*
X1546084Y1706815D3*
X1689849Y1419285D3*
X783504Y1850580D3*
X1102287Y2069353D3*
D18*
X1020588Y2175614D3*
X934002Y2077402D3*
D14*
X1458605Y1583518D3*
X1440219Y1601904D3*
X621002Y1838029D3*
Y2069280D3*
X1946002Y968029D3*
X1709002Y884029D3*
X1364752Y1206780D3*
X1709002Y884029D3*
X1648502Y850529D3*
X2009002Y748029D3*
X639752Y1906780D3*
X902253Y1850529D3*
X1339752Y1456780D3*
X1427253Y1388029D3*
X583502Y2250529D3*
X1608590Y1725567D3*
X2083502Y719278D3*
X2108502Y1088029D3*
X1727353Y1506794D3*
X1458502Y2156778D3*
X646002Y2288029D3*
X1463753Y756778D3*
X2077253Y775529D3*
X1731561Y717470D3*
X1980783Y703248D3*
X1771107Y937984D3*
X1895002Y866029D3*
X2050002D3*
X1039752Y1994280D3*
X2171002Y731778D3*
X1465502Y675529D3*
X996002Y2044278D3*
Y1963029D3*
X796002Y2025529D3*
X1650502Y675529D3*
X1021002Y1944278D3*
X1027252Y2044278D3*
X1291002Y1029029D3*
X1275002Y873029D3*
X908502Y788029D3*
X708002Y768029D3*
X1358502Y847330D3*
Y950529D3*
X1802405Y584978D3*
X2127252Y1054029D3*
X2082002Y681029D3*
X1840903Y675529D3*
X2077252Y1013278D3*
Y819278D3*
X1841502Y850529D3*
X1871002Y3163029D3*
X1921002D3*
X1971002D3*
X2021002D3*
X2071002D3*
X2121002D3*
Y3113029D3*
X2071002D3*
X2021002D3*
X1971002D3*
X1921002D3*
X1871002D3*
Y3063029D3*
X1921002D3*
X1971002D3*
X2021002D3*
X2071002D3*
X2121002D3*
Y3013029D3*
X2071002D3*
X2021002D3*
X1971002D3*
X1921002D3*
X1871002D3*
Y2963029D3*
X1921002D3*
X1971002D3*
X2021002D3*
X2071002D3*
X2121002D3*
X471002Y2263029D3*
Y2213029D3*
Y2163029D3*
Y2113029D3*
Y2063029D3*
Y2013029D3*
Y1963029D3*
Y1813029D3*
Y1763029D3*
Y1713029D3*
Y1663029D3*
X521002Y1713029D3*
Y1763029D3*
Y1813029D3*
X671002Y2413029D3*
X771002D3*
X871002D3*
X971002D3*
X1071002D3*
X1171002D3*
X1271002D3*
X1371002D3*
X1471002D3*
X1571002D3*
X1671002D3*
X1771002D3*
Y2313029D3*
Y2213029D3*
Y2113029D3*
X1671002Y2213029D3*
Y2313029D3*
X1571002D3*
X1421002Y2363029D3*
X1321002D3*
X1221002D3*
X1121002D3*
X1021002D3*
X1521002D3*
X1621002D3*
X1721002D3*
Y2263029D3*
X1621002D3*
X1721002Y2163029D3*
X2221002Y2863029D3*
X2321002D3*
X2221002Y2763029D3*
X2321002D3*
Y2663029D3*
X2221002D3*
Y2563029D3*
X2321002D3*
Y2463029D3*
X2221002D3*
X2321002Y2363029D3*
X2221002D3*
X2121002Y2263029D3*
Y2163029D3*
X2321002Y1963029D3*
Y1863029D3*
Y1763029D3*
Y1663029D3*
Y1563029D3*
X2221002D3*
X2121002D3*
X2021002D3*
Y1663029D3*
X2121002D3*
X2221002D3*
X2321002Y1413029D3*
Y1313029D3*
Y1163029D3*
Y1113029D3*
X2221002Y1163029D3*
Y1113029D3*
X1861002Y2825660D2*
D21*
X2131002D1*
X1861002Y2800791D2*
X2131002D1*
X1861002Y2775923D2*
X2131002D1*
X1861002Y2751054D2*
X2131002D1*
X1861002Y2726185D2*
X2131002D1*
X1861002Y2701316D2*
X2131002D1*
X1861002Y2676448D2*
X2131002D1*
X1861002Y2651579D2*
X2131002D1*
X1861002Y2626710D2*
X2131002D1*
X1861002Y2601841D2*
X2131002D1*
X1861002Y2576973D2*
X2126388D1*
X1861002Y2552104D2*
X2121700D1*
X1861002Y2527235D2*
X2117061D1*
X1861002Y2502366D2*
X2112375D1*
X1861002Y2477497D2*
X2107736D1*
X1861002Y2452629D2*
X2103048D1*
X1861002Y2427760D2*
X2098409D1*
X1861002Y2402891D2*
X2093721D1*
X1861002Y2378022D2*
X2089084D1*
X1861002Y2353154D2*
X2084396D1*
X1861002Y2328285D2*
X2079757D1*
X1861002Y2303416D2*
X2075069D1*
X1861002Y2278547D2*
X2070431D1*
X1861002Y2253679D2*
X2065744D1*
X1861002Y2228810D2*
X2061105D1*
X1861002Y2203941D2*
X2056417D1*
X1861002Y2179072D2*
X2051779D1*
X1861002Y2154204D2*
X2047092D1*
X1861002Y2129335D2*
X2042452D1*
X1861002Y2104466D2*
X2037765D1*
X1861002Y2079597D2*
X2033127D1*
X1861002Y2054728D2*
X2028439D1*
X1861002Y2029860D2*
X2023800D1*
X1861002Y2004991D2*
X2018039D1*
X1861002Y1980122D2*
X1994748D1*
X1861002Y1955253D2*
X1971408D1*
X1861002Y1930385D2*
X1948117D1*
X1861002Y1905516D2*
X1924777D1*
X1861002Y1880647D2*
X1901485D1*
X1861002Y1855778D2*
X1878145D1*
X2021891Y2006432D2*
X2133513Y2601748D1*
X2133502Y2850529D1*
X1858502D1*
Y1832121D1*
X2021925Y2006457D1*
X1865014Y3146660D2*
X2158060D1*
X1865063Y3121791D2*
X2143462D1*
X1865111Y3096923D2*
X2135160D1*
X1865160Y3072054D2*
X2131938D1*
X1865210Y3047185D2*
X2133451D1*
X1865258Y3022316D2*
X2139799D1*
X1865307Y2997448D2*
X2151908D1*
X1865355Y2972579D2*
X2171879D1*
X1865404Y2947710D2*
X2207622D1*
X2326391D2*
X2355962D1*
X1865454Y2922841D2*
X2355962D1*
X1865454Y2897973D2*
X2355912D1*
X2175023Y2873104D2*
X2355912D1*
X2175023Y2848235D2*
X2355912D1*
X2175023Y2823366D2*
X2355912D1*
X2175023Y2798497D2*
X2355912D1*
X2175023Y2773629D2*
X2355863D1*
X2175023Y2748760D2*
X2355863D1*
X2175023Y2723891D2*
X2355863D1*
X2175023Y2699022D2*
X2355863D1*
X2175023Y2674154D2*
X2355863D1*
X2175023Y2649285D2*
X2355815D1*
X2175023Y2624416D2*
X2355815D1*
X2175023Y2599547D2*
X2355815D1*
X2175023Y2574679D2*
X2355815D1*
X2165942Y2549810D2*
X2355815D1*
X2161254Y2524941D2*
X2355766D1*
X2156615Y2500072D2*
X2355766D1*
X1795727Y2475204D2*
X1816996D1*
X2151928D2*
X2355766D1*
X1744603Y2450335D2*
X1816996D1*
X2147290D2*
X2355766D1*
X476391Y2425466D2*
X1816996D1*
X2142651D2*
X2355766D1*
X452758Y2400597D2*
X1816996D1*
X2137963D2*
X2355718D1*
X442748Y2375728D2*
X649614D1*
X954858D2*
X1816996D1*
X2133324D2*
X2355718D1*
X440991Y2350860D2*
X624320D1*
X980199D2*
X1816996D1*
X2128636D2*
X2355718D1*
X440892Y2325991D2*
X599418D1*
X1005052D2*
X1816996D1*
X2123998D2*
X2355718D1*
X440844Y2301122D2*
X574564D1*
X1029955D2*
X1816996D1*
X2119311D2*
X2244340D1*
X2289623D2*
X2355718D1*
X440746Y2276253D2*
X552446D1*
X683031D2*
X929496D1*
X1054808D2*
X1816996D1*
X2114672D2*
X2185063D1*
X440648Y2251385D2*
X544535D1*
X622484D2*
X954350D1*
X1079662D2*
X1816996D1*
X2109984D2*
X2159770D1*
X440599Y2226516D2*
X553519D1*
X613500D2*
X675931D1*
X1104564D2*
X1816996D1*
X2105346D2*
X2144487D1*
X440502Y2201647D2*
X675931D1*
X1516918D2*
X1816996D1*
X2100659D2*
X2135698D1*
X440404Y2176778D2*
X675931D1*
X1541771D2*
X1816996D1*
X2096019D2*
X2132035D1*
X440355Y2151910D2*
X675931D1*
X1566674D2*
X1816996D1*
X2091332D2*
X2133110D1*
X440258Y2127041D2*
X675931D1*
X1580052D2*
X1816996D1*
X2086694D2*
X2139018D1*
X440160Y2102172D2*
X602690D1*
X639330D2*
X675931D1*
X1580052D2*
X1816996D1*
X2082006D2*
X2150542D1*
X440111Y2077303D2*
X582914D1*
X659106D2*
X675931D1*
X1580052D2*
X1816996D1*
X2077367D2*
X2169682D1*
X440014Y2052434D2*
X580766D1*
X655883D2*
X675931D1*
X1728392D2*
X1816996D1*
X2072679D2*
X2203178D1*
X2330834D2*
X2355619D1*
X439916Y2027566D2*
X580766D1*
X648754D2*
X675931D1*
X1751294D2*
X1816996D1*
X2068042D2*
X2355571D1*
X439867Y2002697D2*
X580766D1*
X648754D2*
X675931D1*
X1757446D2*
X1816996D1*
X2063354D2*
X2355571D1*
X439770Y1977828D2*
X580766D1*
X648754D2*
X675931D1*
X1752807D2*
X1816996D1*
X2059008D2*
X2355571D1*
X439672Y1952959D2*
X580766D1*
X648754D2*
X675931D1*
X1733374D2*
X1816996D1*
X2059008D2*
X2355571D1*
X439623Y1928091D2*
X580766D1*
X1751000D2*
X1816996D1*
X2059008D2*
X2355571D1*
X439526Y1903222D2*
X580766D1*
X896606D2*
X917972D1*
X1757446D2*
X1816996D1*
X2059008D2*
X2355522D1*
X439428Y1878353D2*
X580962D1*
X928392D2*
X942875D1*
X1753002D2*
X1816996D1*
X2059008D2*
X2355522D1*
X439379Y1853484D2*
X585454D1*
X941136D2*
X967728D1*
X2057494D2*
X2355522D1*
X439282Y1828616D2*
X564555D1*
X933959D2*
X992582D1*
X2057494D2*
X2355522D1*
X439183Y1803747D2*
X541215D1*
X965355D2*
X1017484D1*
X2057494D2*
X2355522D1*
X439135Y1778878D2*
X537015D1*
X2053148D2*
X2355472D1*
X439038Y1754009D2*
X537015D1*
X2034447D2*
X2355472D1*
X438939Y1729141D2*
X537015D1*
X1912426D2*
X2355472D1*
X438891Y1704272D2*
X537015D1*
X1887572D2*
X2355472D1*
X438794Y1679403D2*
X537015D1*
X1862670D2*
X2355472D1*
X438695Y1654534D2*
X514359D1*
X1837816D2*
X2355424D1*
X438647Y1629665D2*
X496830D1*
X1812963D2*
X2355424D1*
X438550Y1604797D2*
X490580D1*
X1784643D2*
X2355424D1*
X438451Y1579928D2*
X497220D1*
X1497435D2*
X2355424D1*
X438403Y1555059D2*
X453784D1*
X1647143D2*
X2355424D1*
X1665014Y1530190D2*
X1696830D1*
X2213304D2*
X2355375D1*
X2238256Y1505322D2*
X2355375D1*
X438159Y1480453D2*
X454710D1*
X2263110D2*
X2355375D1*
X2287963Y1455584D2*
X2355375D1*
X2298754Y1430715D2*
X2355375D1*
X2298754Y1405847D2*
X2355326D1*
X2298754Y1380978D2*
X2355326D1*
X2298754Y1356109D2*
X2355326D1*
X2298754Y1331240D2*
X2355326D1*
X2298754Y1306372D2*
X2355326D1*
X2296019Y1281503D2*
X2355278D1*
X2274144Y1256634D2*
X2355278D1*
X2249291Y1231765D2*
X2355278D1*
X2174388Y1206896D2*
X2355278D1*
X2155004Y1182028D2*
X2355278D1*
X2155004Y1157159D2*
X2355228D1*
X2155004Y1132290D2*
X2355228D1*
X2154467Y1107421D2*
X2355228D1*
X2337816Y1082553D2*
X2355228D1*
X690916Y2227705D2*
X908581D1*
Y2227070D1*
X981145Y2227114D1*
X914181Y2294053D1*
X696539Y2294029D1*
X681296Y2278776D1*
X678525Y2271458D1*
X675531Y2266575D1*
X671812Y2262219D1*
X667456Y2258500D1*
X662573Y2255507D1*
X657282Y2253315D1*
X651712Y2251978D1*
X646002Y2251529D1*
X640292Y2251978D1*
X634723Y2253315D1*
X629431Y2255507D1*
X623959Y2258965D1*
X619769Y2254748D1*
X619889Y2247665D1*
X618994Y2242008D1*
X617224Y2236560D1*
X614623Y2231458D1*
X611257Y2226824D1*
X607207Y2222774D1*
X602573Y2219408D1*
X597471Y2216807D1*
X592023Y2215037D1*
X586366Y2214142D1*
X580639D1*
X574981Y2215037D1*
X569534Y2216807D1*
X564431Y2219408D1*
X559798Y2222774D1*
X555748Y2226824D1*
X552382Y2231458D1*
X549781Y2236560D1*
X548010Y2242008D1*
X547115Y2247665D1*
Y2253392D1*
X548010Y2259050D1*
X549781Y2264497D1*
X552872Y2270382D1*
X555435Y2277330D1*
X559550Y2283487D1*
X648728Y2372803D1*
X654543Y2377387D1*
X661269Y2380487D1*
X668531Y2381932D1*
X796002Y2382029D1*
X935973Y2381932D1*
X943236Y2380487D1*
X949962Y2377387D1*
X955777Y2372803D1*
X956006Y2372555D1*
X1115324Y2213255D1*
X1492223Y2213183D1*
X1499485Y2211738D1*
X1506211Y2208638D1*
X1512026Y2204054D1*
X1512256Y2203806D1*
X1570036Y2145906D1*
X1574151Y2139748D1*
X1576714Y2132801D1*
X1577584Y2125448D1*
X1577571Y2125110D1*
X1577584Y2060946D1*
X1695002Y2060994D1*
X1704383Y2060255D1*
X1713533Y2058059D1*
X1722225Y2054458D1*
X1730249Y2049541D1*
X1737404Y2043431D1*
X1743514Y2036276D1*
X1748431Y2028252D1*
X1752033Y2019559D1*
X1754228Y2010410D1*
X1754967Y2001029D1*
X1754228Y1991648D1*
X1752033Y1982499D1*
X1748431Y1973806D1*
X1743514Y1965782D1*
X1737404Y1958627D1*
X1730233Y1952507D1*
X1730249Y1949541D1*
X1737404Y1943431D1*
X1743514Y1936276D1*
X1748431Y1928252D1*
X1752033Y1919559D1*
X1754228Y1910410D1*
X1754967Y1901029D1*
X1754228Y1891648D1*
X1752033Y1882499D1*
X1748431Y1873806D1*
X1743514Y1865782D1*
X1740588Y1862071D1*
X1745002Y1860994D1*
X1749836D1*
X1758641Y1862340D1*
X1800967Y1862529D1*
X1819472D1*
X1819502Y2497941D1*
X1817842Y2496192D1*
X1787605Y2470612D1*
X1751231Y2452466D1*
X1711816Y2443566D1*
X524863Y2440534D1*
X501235Y2438160D1*
X483971Y2432162D1*
X474281Y2425882D1*
X451846Y2403427D1*
X444651Y2390812D1*
X440073Y2375057D1*
X438488Y2353399D1*
X435560Y1456186D1*
X444798Y1464957D1*
X450232Y1468000D1*
X456228Y1469690D1*
X460374Y1470017D1*
X473269Y1470309D1*
X458792Y1479043D1*
X454446Y1483505D1*
X451261Y1488858D1*
X449872Y1492780D1*
X442578Y1521264D1*
X442660Y1527494D1*
X444193Y1533530D1*
X445983Y1537284D1*
X460967Y1562584D1*
X465429Y1566932D1*
X470783Y1570117D1*
X474703Y1571505D1*
X499504Y1578133D1*
X499872Y1579383D1*
X492578Y1607868D1*
X492660Y1614097D1*
X494193Y1620134D1*
X495983Y1623887D1*
X510967Y1649188D1*
X515429Y1653536D1*
X520783Y1656721D1*
X524703Y1658109D1*
X540315Y1662291D1*
X539502Y1669280D1*
X539515Y1669617D1*
X539599Y1790500D1*
X541044Y1797763D1*
X544144Y1804488D1*
X548728Y1810303D1*
X548977Y1810533D1*
X585707Y1847281D1*
X588480Y1854600D1*
X591938Y1860072D1*
X587893Y1865320D1*
X584794Y1872046D1*
X583349Y1879309D1*
X583252Y2006780D1*
X583349Y2065500D1*
X585510Y2077801D1*
X587281Y2083248D1*
X589882Y2088351D1*
X593248Y2092984D1*
X597298Y2097034D1*
X601931Y2100400D1*
X607034Y2103001D1*
X612481Y2104772D1*
X618139Y2105667D1*
X623866D1*
X629523Y2104772D1*
X634971Y2103001D1*
X640073Y2100400D1*
X644707Y2097034D1*
X648757Y2092984D1*
X652123Y2088351D1*
X654724Y2083248D1*
X656494Y2077801D1*
X657389Y2072143D1*
Y2066416D1*
X656494Y2060759D1*
X654724Y2055311D1*
X652123Y2050209D1*
X648757Y2045575D1*
X646245Y2042946D1*
X646252Y1942668D1*
X653720Y1940501D1*
X659603Y1937410D1*
X666551Y1934847D1*
X672708Y1930732D1*
X690303Y1913274D1*
X873475Y1913181D1*
X880737Y1911736D1*
X887463Y1908637D1*
X893278Y1904053D1*
X893508Y1903803D1*
X911473Y1885857D1*
X918824Y1883051D1*
X923707Y1880058D1*
X928063Y1876339D1*
X931782Y1871983D1*
X934775Y1867100D1*
X936967Y1861809D1*
X938304Y1856239D1*
X938753Y1850529D1*
X938304Y1844819D1*
X936967Y1839249D1*
X934775Y1833958D1*
X931782Y1829075D1*
X928063Y1824719D1*
X922208Y1819999D1*
X939777Y1819692D1*
X945773Y1818000D1*
X951207Y1814957D1*
X954370Y1812256D1*
X974930Y1791234D1*
X977973Y1785799D1*
X979665Y1779803D1*
X979991Y1775658D1*
X980282Y1762763D1*
X989017Y1777239D1*
X993479Y1781585D1*
X998832Y1784770D1*
X1002753Y1786159D1*
X1029588Y1793214D1*
X1023971Y1799728D1*
X897362Y1926337D1*
X678416Y1926311D1*
Y2227705D1*
X690916D1*
X1863009Y2890529D2*
X2172502D1*
Y2567529D1*
X2166790D1*
X2059085Y1993617D1*
X2056533Y1987419D1*
X2056345Y1864912D1*
X2054985Y1856139D1*
X2054813Y1796568D1*
X2053342Y1787274D1*
X2050434Y1778326D1*
X2046162Y1769941D1*
X2040631Y1762330D1*
X2033977Y1755676D1*
X2026366Y1750144D1*
X2017981Y1745873D1*
X2009033Y1742965D1*
X1999739Y1741494D1*
X1954998Y1741309D1*
X1922138D1*
X1791949Y1611368D1*
X1785410Y1606618D1*
X1778211Y1602949D1*
X1770525Y1600452D1*
X1762543Y1599188D1*
X1721002Y1599029D1*
X1491657D1*
X1494097Y1592039D1*
X1494992Y1586382D1*
Y1580655D1*
X1494097Y1574997D1*
X1491956Y1568747D1*
X1566467Y1568744D1*
Y1553461D1*
X1575170Y1559908D1*
X1583555Y1564180D1*
X1592504Y1567087D1*
X1601798Y1568559D1*
X1611207D1*
X1620501Y1567087D1*
X1629450Y1564180D1*
X1637834Y1559908D1*
X1645446Y1554377D1*
X1652099Y1547723D1*
X1657631Y1540112D1*
X1661903Y1531727D1*
X1664809Y1522778D1*
X1666290Y1513282D1*
X1691462Y1513280D1*
X1693631Y1520763D1*
X1696232Y1525865D1*
X1699598Y1530499D1*
X1703648Y1534549D1*
X1708282Y1537915D1*
X1713384Y1540516D1*
X1718832Y1542286D1*
X1724489Y1543181D1*
X1730216D1*
X1735874Y1542286D1*
X1741321Y1540516D1*
X1745770Y1538282D1*
X2192208Y1538197D1*
X2199471Y1536752D1*
X2206197Y1533652D1*
X2212012Y1529068D1*
X2212241Y1528820D1*
X2288704Y1452238D1*
X2292819Y1446080D1*
X2295382Y1439133D1*
X2296252Y1431780D1*
X2296239Y1431442D1*
X2296155Y1291807D1*
X2294710Y1284545D1*
X2291610Y1277819D1*
X2287026Y1272004D1*
X2286778Y1271774D1*
X2241460Y1226576D1*
X2235303Y1222462D1*
X2228355Y1219899D1*
X2221002Y1219029D1*
X2220665Y1219042D1*
X2184039Y1219029D1*
X2152500Y1187479D1*
X2152405Y1110558D1*
X2150960Y1103295D1*
X2147861Y1096570D1*
X2144752Y1092352D1*
X2144921Y1085959D1*
X2164752Y1085529D1*
X2324473Y1085432D1*
X2331736Y1083987D1*
X2338462Y1080887D1*
X2344277Y1076303D1*
X2344506Y1076055D1*
X2357707Y1062872D1*
X2358107Y2073659D1*
X2344962Y2062728D1*
X2336302Y2056942D1*
X2327216Y2051853D1*
X2317758Y2047494D1*
X2307988Y2043889D1*
X2297964Y2041062D1*
X2287750Y2039030D1*
X2277408Y2037807D1*
X2267002Y2037398D1*
X2256597Y2037807D1*
X2246254Y2039030D1*
X2236040Y2041062D1*
X2226017Y2043889D1*
X2216246Y2047494D1*
X2206788Y2051853D1*
X2197703Y2056942D1*
X2189043Y2062728D1*
X2180866Y2069176D1*
X2173218Y2076244D1*
X2166149Y2083892D1*
X2159702Y2092070D1*
X2153916Y2100730D1*
X2148826Y2109815D1*
X2144467Y2119273D1*
X2140862Y2129043D1*
X2138035Y2139067D1*
X2136004Y2149281D1*
X2134781Y2159623D1*
X2134371Y2170029D1*
X2134781Y2180434D1*
X2136004Y2190777D1*
X2138035Y2200991D1*
X2140862Y2211015D1*
X2144467Y2220785D1*
X2148826Y2230243D1*
X2153916Y2239328D1*
X2159702Y2247988D1*
X2166149Y2256165D1*
X2173218Y2263814D1*
X2180866Y2270882D1*
X2189043Y2277330D1*
X2197703Y2283116D1*
X2206788Y2288205D1*
X2216246Y2292564D1*
X2226017Y2296169D1*
X2236040Y2298996D1*
X2246254Y2301028D1*
X2256597Y2302251D1*
X2267002Y2302660D1*
X2277408Y2302251D1*
X2287750Y2301028D1*
X2297964Y2298996D1*
X2307988Y2296169D1*
X2317758Y2292564D1*
X2327216Y2288205D1*
X2336302Y2283116D1*
X2344962Y2277330D1*
X2353139Y2270882D1*
X2358187Y2266215D1*
X2358459Y2971511D1*
X2344962Y2960230D1*
X2336302Y2954444D1*
X2327216Y2949354D1*
X2317758Y2944995D1*
X2307988Y2941390D1*
X2297964Y2938563D1*
X2287750Y2936532D1*
X2277408Y2935309D1*
X2267002Y2934899D1*
X2256597Y2935309D1*
X2246254Y2936532D1*
X2236040Y2938563D1*
X2226017Y2941390D1*
X2216246Y2944995D1*
X2206788Y2949354D1*
X2197703Y2954444D1*
X2189043Y2960230D1*
X2180866Y2966677D1*
X2173218Y2973746D1*
X2166149Y2981394D1*
X2159702Y2989571D1*
X2153916Y2998231D1*
X2148826Y3007316D1*
X2144467Y3016774D1*
X2140862Y3026545D1*
X2138035Y3036568D1*
X2136004Y3046782D1*
X2134781Y3057125D1*
X2134371Y3067530D1*
X2134781Y3077936D1*
X2136004Y3088278D1*
X2138035Y3098492D1*
X2140862Y3108516D1*
X2144467Y3118286D1*
X2148826Y3127744D1*
X2153916Y3136830D1*
X2159702Y3145490D1*
X2166149Y3153667D1*
X2173218Y3161315D1*
X2184858Y3171532D1*
X1876943Y3171528D1*
X1871627Y3170669D1*
X1868602Y3169291D1*
X1866051Y3167167D1*
X1864157Y3164453D1*
X1863042Y3161328D1*
X1862493Y3154364D1*
X1862988Y2890526D1*
X496888Y1590572D2*
X492578Y1607868D1*
X492660Y1614096D1*
X494193Y1620134D1*
X496606Y1624942D1*
X509723Y1647521D1*
X513829Y1652205D1*
X518917Y1655801D1*
X524703Y1658109D1*
X467430Y1473694D2*
X458792Y1479043D1*
X454446Y1483505D1*
X451261Y1488860D1*
X449872Y1492780D1*
X442876Y1519205D1*
X442470Y1525420D1*
X443525Y1531560D1*
X446420Y1538015D1*
X459723Y1560917D1*
X463829Y1565601D1*
X468917Y1569197D1*
X474703Y1571505D1*
D22*
X793498Y2175614D3*
Y1978402D3*
Y2077402D3*
D23*
X522782Y2365402D3*
Y1887402D3*
D22*
X793498Y2274039D3*
D24*
X1996002Y2729029D3*
Y3049029D3*
D25*
X1595002Y2001029D3*
D26*
X1695002D3*
X1595002Y1901029D3*
X1695002D3*
X1595002Y1801029D3*
X1695002D3*
D25*
X1295002Y2051029D3*
D26*
X1395002D3*
X1295002Y1951029D3*
X1395002D3*
X1295002Y1851029D3*
X1395002D3*
X1295002Y1751029D3*
X1395002D3*
D25*
X1895298Y2001034D3*
D26*
X1995298D3*
X2095298D3*
X2195298D3*
D25*
X1895034Y1901284D3*
D26*
X1995034D3*
X2095034D3*
X2195034D3*
D25*
X1895034Y1801273D3*
D26*
X1995034D3*
X2095034D3*
X2195034D3*
D25*
X1195002Y2051029D3*
D26*
Y1951029D3*
Y1851029D3*
D25*
X2006382Y1409185D3*
D26*
Y1309185D3*
Y1209185D3*
Y1109185D3*
D25*
X1906371Y1409185D3*
D26*
Y1309185D3*
Y1209185D3*
Y1109185D3*
D25*
X1806106Y1408912D3*
D26*
Y1308912D3*
Y1208912D3*
Y1108912D3*
D27*
X1110002Y1257029D3*
D28*
Y1307029D3*
Y1357029D3*
Y1407029D3*
Y1457029D3*
D29*
X2316278Y732919D3*
D30*
Y811659D3*
Y890399D3*
Y969139D3*
X2237538D3*
Y890399D3*
Y811659D3*
Y732919D3*
D31*
X771624Y1213898D3*
X973002Y1214029D3*
D33*
X1433502Y756778D3*
X1358699D3*
X1396101Y847330D3*
X1733502Y675529D3*
X1808305D3*
X1770904Y584978D3*
X1733502Y850529D3*
X1808305D3*
X1770904Y759978D3*
X1546002Y675529D3*
X1620805D3*
X1583404Y584978D3*
X1358502Y675529D3*
X1433305D3*
X1395904Y584978D3*
X1546002Y850529D3*
X1620805D3*
X1583404Y759978D3*
D35*
X2008502Y675529D3*
Y635529D3*
Y615529D3*
Y655529D3*
X2048502Y615529D3*
Y635529D3*
Y655529D3*
Y675529D3*
X2047002Y938029D3*
Y978029D3*
Y998029D3*
Y958029D3*
X2007002Y998029D3*
Y978029D3*
Y958029D3*
Y938029D3*
X2008502Y838029D3*
Y798029D3*
Y778029D3*
Y818029D3*
X2048502Y778029D3*
Y798029D3*
Y818029D3*
Y838029D3*
D36*
X2167147Y1344277D3*
Y1404277D3*
D37*
X2307147Y1215277D3*
Y1473277D3*
D36*
X2167147Y1284277D3*
X639480Y706710D3*
Y646710D3*
D37*
X499480Y835710D3*
Y577710D3*
D36*
X639480Y766710D3*
D98*
X823002Y963029D3*
X923002D3*
D99*
X1244468Y1519728D3*
X1194468Y1606331D3*
D100*
X1116304Y1684378D3*
X1029700Y1734378D3*
D101*
X1029702Y991564D3*
X1116304Y1041564D3*
D102*
X473002Y1413029D3*
Y1313029D3*
D103*
X923002Y1763029D3*
X823002D3*
D104*
X1194351Y1119728D3*
X1244351Y1206331D3*
D105*
X501537Y1206330D3*
X551537Y1119727D3*
D106*
X716303Y1734494D3*
X629700Y1684494D3*
D107*
X1273002Y1313029D3*
Y1413029D3*
D108*
X629701Y1041680D3*
X716305Y991680D3*
D109*
X551653Y1606330D3*
X501653Y1519727D3*
D25*
X1506502Y1508780D3*
D26*
X1606502D3*
X1506502Y1408780D3*
X1606502D3*
X1506502Y1308780D3*
X1606502D3*
X1506502Y1208780D3*
X1606502D3*
D25*
X1607002Y1009029D3*
D26*
X1507002D3*
X1607002Y1109029D3*
X1507002D3*
D42*
X972002Y1496029D3*
D43*
X772002D3*
M02*
