M48
INCH
T01C0.012
T02C0.0276
T03C0.03
T04C0.032
T05C0.0354
T06C0.0433
T07C0.09
T08C0.11
%
T01
X+018710Y+031630
X+019210Y+031630
X+019710Y+031630
X+020210Y+031630
X+020710Y+031630
X+021210Y+031630
X+021210Y+031130
X+020710Y+031130
X+020210Y+031130
X+019710Y+031130
X+019210Y+031130
X+018710Y+031130
X+018710Y+030630
X+019210Y+030630
X+019710Y+030630
X+020210Y+030630
X+020710Y+030630
X+021210Y+030630
X+021210Y+030130
X+021210Y+029630
X+020710Y+029630
X+020710Y+030130
X+020210Y+030130
X+020210Y+029630
X+019710Y+029630
X+019710Y+030130
X+019210Y+030130
X+019210Y+029630
X+018710Y+029630
X+018710Y+030130
X+022210Y+028630
X+023210Y+028630
X+023210Y+027630
X+022210Y+027630
X+022210Y+026630
X+023210Y+026630
X+023210Y+025630
X+022210Y+025630
X+022210Y+024630
X+023210Y+024630
X+023210Y+023630
X+022210Y+023630
X+021210Y+022630
X+021210Y+021630
X+023210Y+019630
X+023210Y+018630
X+023210Y+017630
X+023210Y+016630
X+022210Y+016630
X+022210Y+015630
X+023210Y+015630
X+023210Y+014130
X+023210Y+013130
X+023210Y+011630
X+023210Y+011130
X+022210Y+011130
X+022210Y+011630
X+021085Y+010880
X+021273Y+010540
X+020773Y+010133
X+019460Y+009680
X+018950Y+008660
X+018415Y+008505
X+017711Y+009380
X+017090Y+008840
X+016485Y+008505
X+017316Y+007175
X+016505Y+006755
X+018024Y+005850
X+018409Y+006755
X+019808Y+007032
X+020090Y+007480
X+020773Y+007755
X+020773Y+008193
X+020500Y+008660
X+020835Y+007193
X+020820Y+006810
X+021710Y+007318
X+016961Y+010880
X+016898Y+014193
X+017274Y+015068
X+016086Y+017256
X+015461Y+017068
X+014402Y+016019
X+014586Y+015835
X+013398Y+014568
X+014273Y+013880
X+013648Y+012068
X+012910Y+010290
X+013585Y+009505
X+013585Y+008473
X+012750Y+008730
X+014638Y+007568
X+014655Y+006755
X+009085Y+007880
X+007080Y+007680
X+007170Y+007100
X+004710Y+016630
X+004710Y+017130
X+004710Y+017630
X+004710Y+018130
X+005210Y+018130
X+005210Y+017630
X+005210Y+017130
X+006210Y+018380
X+006398Y+019068
X+007835Y+018506
X+009023Y+018505
X+009960Y+019630
X+010210Y+019443
X+010398Y+019943
X+010273Y+020443
X+009960Y+020443
X+011023Y+020694
X+011210Y+023630
X+011710Y+024130
X+012210Y+023630
X+012710Y+024130
X+013210Y+023630
X+013710Y+024130
X+014210Y+023630
X+014710Y+024130
X+015210Y+023630
X+015710Y+024130
X+016210Y+023630
X+016710Y+024130
X+017210Y+023630
X+017710Y+024130
X+017710Y+023130
X+017210Y+022630
X+017710Y+022130
X+017210Y+021630
X+017710Y+021130
X+016710Y+022130
X+016210Y+022630
X+016710Y+023130
X+015710Y+023130
X+014585Y+021568
X+010710Y+024130
X+010210Y+023630
X+009710Y+024130
X+008710Y+024130
X+007710Y+024130
X+006710Y+024130
X+006460Y+022880
X+005835Y+022505
X+004710Y+022630
X+004710Y+022130
X+004710Y+021630
X+004710Y+021130
X+004710Y+020630
X+004710Y+020130
X+004710Y+019630
X+006210Y+020693
X+007960Y+020255
X+020210Y+016630
X+020210Y+015630
X+021210Y+015630
X+021210Y+016630
T02
X+011100Y+012570
X+011100Y+013070
X+011100Y+013570
X+011100Y+014070
X+011100Y+014570
T03
X+010206Y+021756
X+009340Y+020774
T04
X+008230Y+009630
X+009230Y+009630
X+010297Y+009916
X+011163Y+010416
X+011944Y+011197
X+012444Y+012063
X+012730Y+013130
X+012730Y+014130
X+012445Y+015197
X+011945Y+016063
X+011163Y+016844
X+010297Y+017344
X+009230Y+017630
X+008230Y+017630
X+007163Y+017345
X+006297Y+016845
X+005517Y+016063
X+005017Y+015197
X+004730Y+014130
X+004730Y+013130
X+005015Y+012063
X+005515Y+011197
X+006297Y+010417
X+007163Y+009917
T05
X+023163Y+007329
X+023163Y+008117
X+023163Y+008904
X+023163Y+009691
X+022375Y+009691
X+022375Y+008904
X+022375Y+008117
X+022375Y+007329
X+009720Y+014960
X+007720Y+014960
T06
X+015950Y+020010
X+015950Y+019010
X+015950Y+018010
X+016950Y+018010
X+016950Y+019010
X+016950Y+020010
X+018953Y+020010
X+018950Y+019013
X+019950Y+019013
X+019953Y+020010
X+020953Y+020010
X+020950Y+019013
X+021950Y+019013
X+021953Y+020010
X+021950Y+018013
X+020950Y+018013
X+019950Y+018013
X+018950Y+018013
X+019064Y+014092
X+019064Y+013092
X+019064Y+012092
X+019064Y+011092
X+020064Y+011092
X+020064Y+012092
X+020064Y+013092
X+020064Y+014092
X+018061Y+014089
X+018061Y+013089
X+018061Y+012089
X+018061Y+011089
X+016070Y+011090
X+016065Y+012088
X+016065Y+013088
X+016065Y+014088
X+016065Y+015088
X+015065Y+015088
X+015065Y+014088
X+015065Y+013088
X+015065Y+012088
X+015070Y+011090
X+015070Y+010090
X+016070Y+010090
X+013950Y+017510
X+013950Y+018510
X+012950Y+018510
X+012950Y+017510
X+011950Y+018510
X+011950Y+019510
X+011950Y+020510
X+012950Y+020510
X+012950Y+019510
X+013950Y+019510
X+013950Y+020510
T07
X+007716Y+012139
X+009730Y+012140
T08
X+022670Y+005560
X+008770Y+005560
X+022670Y+021700
X+022670Y+030675
T00
M30
