G04 DipTrace 3.0.0.2*
G04 BottomMask.gbr*
%MOMM*%
G04 #@! TF.FileFunction,Soldermask,Bot*
G04 #@! TF.Part,Single*
%AMOUTLINE0*5,1,8,0,0,1.67641,-22.49998*%
%AMOUTLINE1*5,1,8,0,0,1.67641,-262.50052*%
%AMOUTLINE2*5,1,8,0,0,1.67642,-232.50031*%
%AMOUTLINE3*5,1,8,0,0,1.67641,7.49948*%
%AMOUTLINE4*5,1,8,0,0,1.67641,-112.49998*%
%AMOUTLINE5*5,1,8,0,0,1.67641,-202.49998*%
%AMOUTLINE6*5,1,8,0,0,1.67642,37.49969*%
%AMOUTLINE7*5,1,8,0,0,1.67641,-82.50052*%
%AMOUTLINE8*5,1,8,0,0,1.67641,-172.50052*%
%AMOUTLINE9*5,1,8,0,0,1.67641,67.50002*%
%AMOUTLINE10*5,1,8,0,0,1.67642,-52.50031*%
%AMOUTLINE11*5,1,8,0,0,1.67642,-142.50031*%
%AMOUTLINE13*
4,1,16,
0.09536,-0.45118,
0.18121,-0.50509,
0.29363,-0.5178,
0.40042,-0.48039,
0.48039,-0.40042,
0.5178,-0.29363,
0.50509,-0.18121,
0.45118,-0.09536,
-0.09536,0.45118,
-0.18121,0.50509,
-0.29363,0.5178,
-0.40042,0.48039,
-0.48039,0.40042,
-0.5178,0.29363,
-0.50509,0.18121,
-0.45118,0.09536,
0.09536,-0.45118,
0*%
%AMOUTLINE16*
4,1,16,
-0.45118,-0.09536,
-0.50509,-0.18121,
-0.5178,-0.29363,
-0.48039,-0.40042,
-0.40042,-0.48039,
-0.29363,-0.5178,
-0.18121,-0.50509,
-0.09536,-0.45118,
0.45118,0.09536,
0.50509,0.18121,
0.5178,0.29363,
0.48039,0.40042,
0.40042,0.48039,
0.29363,0.5178,
0.18121,0.50509,
0.09536,0.45118,
-0.45118,-0.09536,
0*%
%AMOUTLINE19*5,1,4,0,0,5.80277,-270.0*%
%ADD52R,0.28X0.85*%
%ADD53R,0.85X0.28*%
%ADD59C,2.794*%
%ADD68R,1.6032X1.3532*%
%ADD70R,2.2532X3.2532*%
%ADD76R,2.5032X1.2954*%
%ADD78R,2.4032X0.9032*%
%ADD84R,0.8532X1.2532*%
%ADD86C,1.8032*%
%ADD88O,1.2032X1.5032*%
%ADD90R,1.2032X1.5032*%
%ADD92O,1.5032X1.2032*%
%ADD94R,1.5032X1.2032*%
%ADD96C,1.9032*%
%ADD98R,1.9032X1.9032*%
%ADD100R,1.3032X1.2032*%
%ADD102R,1.2032X1.3032*%
%ADD104R,1.8032X1.8032*%
%ADD106C,1.8032*%
%ADD108R,7.8232X7.0612*%
%ADD110R,4.1032X2.0032*%
%ADD112R,4.7032X1.5032*%
%ADD118OUTLINE0*%
%ADD119OUTLINE1*%
%ADD120OUTLINE2*%
%ADD121OUTLINE3*%
%ADD122OUTLINE4*%
%ADD123OUTLINE5*%
%ADD124OUTLINE6*%
%ADD125OUTLINE7*%
%ADD126OUTLINE8*%
%ADD127OUTLINE9*%
%ADD128OUTLINE10*%
%ADD129OUTLINE11*%
%ADD131OUTLINE13*%
%ADD134OUTLINE16*%
%ADD137OUTLINE19*%
%FSLAX35Y35*%
G04*
G71*
G90*
G75*
G01*
G04 BotMask*
%LPD*%
D112*
X2015486Y5526060D3*
Y5025140D3*
Y5276600D3*
D110*
X1327866Y6008120D3*
Y4794000D3*
D112*
X2015486Y5776060D3*
D108*
X5069846Y6931734D3*
Y7744534D3*
D106*
X2468886Y3799914D3*
D104*
X1960886D3*
D102*
X5146046Y1404694D3*
Y1234694D3*
X2837186Y2435934D3*
Y2265934D3*
X5394966Y2057474D3*
Y1887474D3*
D100*
X5069846Y2489274D3*
X5239846D3*
D98*
X4051306Y5082614D3*
D96*
X4305306D3*
X4051306Y4828614D3*
X4305306D3*
X4051306Y4574614D3*
X4305306D3*
D98*
X3289306Y5209614D3*
D96*
X3543306D3*
X3289306Y4955614D3*
X3543306D3*
X3289306Y4701614D3*
X3543306D3*
X3289306Y4447614D3*
X3543306D3*
D98*
X4814056Y4574614D3*
D96*
X5068056D3*
X5322056D3*
X5576056D3*
D98*
X4813386Y4829260D3*
D96*
X5067386D3*
X5321386D3*
X5575386D3*
D98*
X4813386Y5082614D3*
D96*
X5067386D3*
X5321386D3*
X5575386D3*
D98*
X3035306Y5209614D3*
D96*
Y4955614D3*
Y4701614D3*
D59*
X5758186Y1412314D3*
Y5511874D3*
Y7791527D3*
X2227586Y1412314D3*
D94*
X1600206Y3208094D3*
D92*
Y3335094D3*
Y3462094D3*
Y3589094D3*
Y3716094D3*
D90*
X4228473Y1376754D3*
D88*
X4101473D3*
X3974473D3*
X3847473D3*
X3720473D3*
D90*
X3355346D3*
D88*
X3228346D3*
X3101346D3*
X2974346D3*
X2847346D3*
D104*
X5915666Y2156534D3*
D86*
X5661666D3*
X5915666Y2410534D3*
X5661666D3*
X5915666Y2664534D3*
X5661666D3*
X5915666Y2918534D3*
X5661666D3*
X5915666Y3172534D3*
X5661666D3*
D98*
X3826516Y3832300D3*
D96*
X4080516D3*
X3826516Y3578300D3*
X4080516D3*
X3826516Y3324300D3*
X4080516D3*
X3826516Y3070300D3*
X4080516D3*
D98*
X5096209Y3579330D3*
D96*
Y3325330D3*
Y3071330D3*
Y2817330D3*
D98*
X4842183Y3579330D3*
D96*
Y3325330D3*
Y3071330D3*
Y2817330D3*
D98*
X4587509Y3578637D3*
D96*
Y3324637D3*
Y3070637D3*
Y2816637D3*
D98*
X4081786Y2562934D3*
D96*
X3827786D3*
X4081786Y2816934D3*
X3827786D3*
D98*
X2090426Y3083634D3*
D96*
X2344426D3*
D84*
X3498219Y2176217D3*
X3308219D3*
X3403219Y2406217D3*
D102*
X2717806Y1689174D3*
Y1859174D3*
D100*
X3342646Y1788234D3*
X3172646D3*
D102*
X2989586Y2263214D3*
Y2433214D3*
D100*
X2816866Y2110814D3*
X2986866D3*
D102*
X3241046Y2672154D3*
Y2842154D3*
D78*
X5656586Y3843094D3*
Y3995494D3*
D76*
X6012186Y3515434D3*
Y4170754D3*
D78*
X5656586Y3690694D3*
X1624279Y1795044D3*
Y1642644D3*
D76*
X1268679Y2122704D3*
Y1467384D3*
D78*
X1624279Y1947444D3*
D118*
X2090426Y2446094D3*
X2344426D3*
D119*
X3161284Y3860110D3*
X3034284Y4080080D3*
D120*
X2835412Y4277960D3*
X2615438Y4404960D3*
D121*
X2615443Y2518235D3*
X2835413Y2645235D3*
D122*
X1201426Y3589094D3*
Y3335094D3*
D123*
X2344426Y4478094D3*
X2090426D3*
D124*
X3033292Y2844108D3*
X3160292Y3064081D3*
D125*
X1273568Y3064077D3*
X1400568Y2844107D3*
D126*
X1819409Y4405952D3*
X1599439Y4278952D3*
D127*
X3233426Y3335094D3*
Y3589094D3*
D128*
X1599440Y2646227D3*
X1819414Y2519227D3*
D129*
X1401560Y4080079D3*
X1274560Y3860106D3*
D52*
X3831596Y2153994D3*
X3981596D3*
D53*
X4079096Y2105477D3*
Y2055477D3*
Y2005477D3*
Y1955477D3*
Y1905474D3*
Y1855474D3*
Y1805474D3*
Y1755474D3*
D52*
X3981596Y1706957D3*
X3831596D3*
D53*
X3734096Y1755474D3*
Y1805474D3*
Y1855474D3*
Y1905474D3*
Y1955477D3*
Y2005477D3*
Y2055477D3*
Y2105477D3*
D70*
X3906596Y1930474D3*
D131*
X5117473Y1795217D3*
X5082119Y1759860D3*
X5046763Y1724507D3*
X5011406Y1689150D3*
X4976053Y1653794D3*
X4940696Y1618440D3*
X4905343Y1583084D3*
X4869986Y1547730D3*
X4834629Y1512374D3*
D134*
X4720079D3*
X4684723Y1547730D3*
X4649369Y1583084D3*
X4614013Y1618440D3*
X4578659Y1653794D3*
X4543303Y1689150D3*
X4507946Y1724507D3*
X4472593Y1759860D3*
X4437236Y1795217D3*
D131*
Y1909767D3*
X4472593Y1945124D3*
X4507946Y1980477D3*
X4543303Y2015834D3*
X4578659Y2051190D3*
X4614013Y2086544D3*
X4649369Y2121900D3*
X4684723Y2157254D3*
X4720079Y2192610D3*
D134*
X4834629D3*
X4869986Y2157254D3*
X4905343Y2121900D3*
X4940696Y2086544D3*
X4976053Y2051190D3*
X5011406Y2015834D3*
X5046763Y1980477D3*
X5082119Y1945124D3*
X5117473Y1909767D3*
D137*
X4777356Y1852490D3*
D68*
X5168906Y2354654D3*
X5388906D3*
Y2194657D3*
X5168906D3*
M02*
