G04 DipTrace 3.0.0.2*
G04 TopSilk.gbr*
%MOMM*%
G04 #@! TF.FileFunction,Legend,Top*
G04 #@! TF.Part,Single*
%ADD10C,0.25*%
%ADD14C,0.254*%
%ADD49C,0.1524*%
%ADD50C,0.127*%
%ADD116C,0.19608*%
%FSLAX35Y35*%
G04*
G71*
G90*
G75*
G01*
G04 TopSilk*
%LPD*%
X1754865Y3769891D2*
D10*
Y3829936D1*
X1724903Y3799914D2*
X1784914D1*
X1833865D2*
X1834793Y3826491D1*
X1837573Y3852939D1*
X1842191Y3879128D1*
X1848625Y3904931D1*
X1856843Y3930223D1*
X1866806Y3954880D1*
X1878464Y3978782D1*
X1891761Y4001813D1*
X1906633Y4023860D1*
X1923006Y4044816D1*
X1940802Y4064578D1*
X1959932Y4083052D1*
X1980305Y4100146D1*
X2001821Y4115777D1*
X2024374Y4129869D1*
X2047856Y4142354D1*
X2072151Y4153171D1*
X2097142Y4162266D1*
X2122707Y4169596D1*
X2148720Y4175125D1*
X2175056Y4178826D1*
X2201586Y4180682D1*
X2228181D1*
X2254711Y4178826D1*
X2281047Y4175125D1*
X2307060Y4169596D1*
X2332625Y4162266D1*
X2357616Y4153171D1*
X2381911Y4142354D1*
X2405393Y4129869D1*
X2427947Y4115777D1*
X2449462Y4100146D1*
X2469835Y4083052D1*
X2488966Y4064578D1*
X2506761Y4044816D1*
X2523134Y4023860D1*
X2538006Y4001813D1*
X2551303Y3978782D1*
X2562962Y3954880D1*
X2572924Y3930223D1*
X2581143Y3904931D1*
X2587576Y3879128D1*
X2592195Y3852939D1*
X2594974Y3826491D1*
X2595903Y3799914D1*
X2594974Y3773336D1*
X2592195Y3746889D1*
X2587576Y3720699D1*
X2581143Y3694896D1*
X2572924Y3669604D1*
X2562962Y3644947D1*
X2551303Y3621045D1*
X2538006Y3598014D1*
X2523134Y3575967D1*
X2506761Y3555012D1*
X2488966Y3535249D1*
X2469835Y3516775D1*
X2449462Y3499682D1*
X2427947Y3484050D1*
X2405393Y3469958D1*
X2381911Y3457473D1*
X2357616Y3446657D1*
X2332625Y3437561D1*
X2307060Y3430231D1*
X2281047Y3424702D1*
X2254711Y3421001D1*
X2228181Y3419146D1*
X2201586D1*
X2175056Y3421001D1*
X2148720Y3424702D1*
X2122707Y3430231D1*
X2097142Y3437561D1*
X2072151Y3446657D1*
X2047856Y3457473D1*
X2024374Y3469958D1*
X2001821Y3484050D1*
X1980305Y3499682D1*
X1959932Y3516775D1*
X1940802Y3535249D1*
X1923006Y3555012D1*
X1906633Y3575967D1*
X1891761Y3598014D1*
X1878464Y3621045D1*
X1866806Y3644947D1*
X1856843Y3669604D1*
X1848625Y3694896D1*
X1842191Y3720699D1*
X1837573Y3746889D1*
X1834793Y3773336D1*
X1833865Y3799914D1*
X4432306Y5209614D2*
X3924306D1*
Y4447614D1*
X4432306D1*
Y5209614D1*
X3670306Y5336614D2*
X3162306D1*
Y4320614D1*
X3670306D1*
Y5336614D1*
X4687011Y4701626D2*
X5703101D1*
Y4447614D1*
X4687011D1*
Y4701626D1*
X4686341Y4956273D2*
X5702431D1*
Y4702260D1*
X4686341D1*
Y4956273D1*
Y5209626D2*
X5702431D1*
Y4955614D1*
X4686341D1*
Y5209626D1*
X3162319Y5336566D2*
X2908306D1*
Y4574662D1*
X3162319D1*
Y5336566D1*
X1493206Y3144594D2*
Y3779594D1*
X1707206Y3144594D2*
Y3779594D1*
X4291973Y1269754D2*
X3656973D1*
X4291973Y1483754D2*
X3656973D1*
X3418846Y1269754D2*
X2783846D1*
X3418846Y1483754D2*
X2783846D1*
X6315644Y2116523D2*
X7055632D1*
X6315644Y2196530D2*
X7055632D1*
Y2116523D2*
X7122666Y2156588D1*
X7055632Y2196530D2*
X7122666Y2156588D1*
X6037648Y2050034D2*
X6315644D1*
Y3279034D1*
X6037648D1*
Y2050034D1*
X6315644Y2370557D2*
X7055632D1*
X6315644Y2450565D2*
X7055632D1*
Y2370557D2*
X7122666Y2410499D1*
X7055632Y2450565D2*
X7122666Y2410499D1*
X6315644Y2624468D2*
X7055632D1*
X6315644Y2704599D2*
X7055632D1*
Y2624468D2*
X7122666Y2664534D1*
X7055632Y2704599D2*
X7122666Y2664534D1*
X6315644Y2878503D2*
X7055632D1*
X6315644Y2958510D2*
X7055632D1*
Y2878503D2*
X7122666Y2918568D1*
X7055632Y2958510D2*
X7122666Y2918568D1*
X6315644Y3132537D2*
X7055632D1*
X6315644Y3212545D2*
X7055632D1*
Y3132537D2*
X7122666Y3172479D1*
X7055632Y3212545D2*
X7122666Y3172479D1*
X4207516Y3959300D2*
X3699516D1*
Y2943300D1*
X4207516D1*
Y3959300D1*
X5223222Y3706375D2*
X4969209D1*
Y2690285D1*
X5223222D1*
Y3706375D1*
X4969195D2*
X4715183D1*
Y2690285D1*
X4969195D1*
Y3706375D1*
X4714522Y3705682D2*
X4460509D1*
Y2689592D1*
X4714522D1*
Y3705682D1*
X3700786Y2435934D2*
X4208786D1*
Y2943934D1*
X3700786D1*
Y2435934D1*
X1963396Y3210646D2*
X2471456D1*
Y2956634D1*
X1963396D1*
Y3210646D1*
X1539881Y4765742D2*
X1762131D1*
Y4734005D1*
X1539881D1*
Y4765742D1*
X2803537Y3439869D2*
X2835275D1*
Y3662119D1*
X2803537D1*
Y3439869D1*
X1665611Y2094945D2*
X1443361D1*
Y2126682D1*
X1665611D1*
Y2094945D1*
X2217407Y2598495D2*
D49*
G02X2341445Y2534654I34J-152352D01*
G01*
X2095501Y2537552D2*
G02X2217407Y2598495I121999J-91639D01*
G01*
Y2293694D2*
G03X2337737Y2352526I57J152354D01*
G01*
X2097124D2*
G03X2217407Y2293694I120272J93522D01*
G01*
Y2649296D2*
D14*
G02X2373521Y2576180I103J-203002D01*
G01*
X2038118Y2541733D2*
G02X2217407Y2649296I179407J-95838D01*
G01*
Y2242894D2*
G03X2372547Y2314850I-37J203302D01*
G01*
X2040992Y2345281D2*
G03X2217407Y2242894I176434J100823D01*
G01*
X1958346Y2618824D2*
D50*
X2031999D1*
X1993898Y2578167D2*
Y2656914D1*
X2965763Y3893871D2*
D49*
G02X2959016Y4033240I132116J76244D01*
G01*
X3079494Y3818798D2*
G02X2965763Y3893871I18176J151219D01*
G01*
X3229766Y4046262D2*
G03X3118637Y4121079I-131892J-75964D01*
G01*
X3238952Y3912715D2*
G03X3229766Y4046262I-141180J57378D01*
G01*
X2921743Y3868489D2*
D14*
G02X2907029Y4040236I175646J101552D01*
G01*
X3104573Y3767013D2*
G02X2921743Y3868489I-6756J203270D01*
G01*
X3273746Y4071695D2*
G03X3133839Y4170055I-176029J-101701D01*
G01*
X3273299Y3867723D2*
G03X3273746Y4071695I-175456J102371D01*
G01*
X3077705Y3659359D2*
D50*
X3040879Y3723145D1*
X3095143Y3710479D2*
X3026937Y3671105D1*
X2649251Y4209485D2*
D49*
G02X2573726Y4326817I75996J131891D01*
G01*
X2785294Y4201324D2*
G02X2649251Y4209485I-59841J140452D01*
G01*
X2801633Y4473508D2*
G03X2668012Y4482713I-76229J-132108D01*
G01*
X2876392Y4362395D2*
G03X2801633Y4473508I-151110J-20964D01*
G01*
X2623834Y4165497D2*
D14*
G02X2525192Y4306864I101467J175901D01*
G01*
X2832900Y4168981D2*
G02X2623834Y4165497I-107441J172788D01*
G01*
X2827050Y4517495D2*
G03X2656715Y4532771I-101643J-176075D01*
G01*
X2928638Y4340601D2*
G03X2827050Y4517495I-203251J893D01*
G01*
X2863441Y4062346D2*
D50*
X2799656Y4099168D1*
X2852992Y4115340D2*
X2813616Y4047120D1*
X2649203Y2713756D2*
D49*
G02X2788572Y2720503I76244J-132116D01*
G01*
X2574130Y2600026D2*
G02X2649203Y2713756I151219J-18176D01*
G01*
X2801595Y2449754D2*
G03X2876412Y2560883I-75964J131892D01*
G01*
X2668048Y2440568D2*
G03X2801595Y2449754I57378J141180D01*
G01*
X2623821Y2757777D2*
D14*
G02X2795569Y2772491I101552J-175646D01*
G01*
X2522346Y2574947D2*
G02X2623821Y2757777I203270J6756D01*
G01*
X2827027Y2405774D2*
G03X2925388Y2545681I-101701J176029D01*
G01*
X2623055Y2406221D2*
G03X2827027Y2405774I102371J175456D01*
G01*
X2414691Y2601814D2*
D50*
X2478477Y2638640D1*
X2465812Y2584377D2*
X2426437Y2652582D1*
X1353828Y3462112D2*
D49*
G02X1289986Y3338074I-152352J-34D01*
G01*
X1292884Y3584018D2*
G02X1353828Y3462112I-91639J-121999D01*
G01*
X1049026D2*
G03X1107858Y3341782I152354J-57D01*
G01*
Y3582396D2*
G03X1049026Y3462112I93522J-120272D01*
G01*
X1404628D2*
D14*
G02X1331512Y3305999I-203002J-103D01*
G01*
X1297066Y3641402D2*
G02X1404628Y3462112I-95838J-179407D01*
G01*
X998226D2*
G03X1070183Y3306972I203302J37D01*
G01*
X1100613Y3638528D2*
G03X998226Y3462112I100823J-176434D01*
G01*
X1374156Y3721174D2*
D50*
Y3647520D1*
X1333499Y3685622D2*
X1412246D1*
X2217445Y4325692D2*
D49*
G02X2093407Y4389534I-34J152351D01*
G01*
X2339350Y4386636D2*
G02X2217445Y4325692I-121999J91639D01*
G01*
Y4630493D2*
G03X2097115Y4571661I-57J-152354D01*
G01*
X2337728D2*
G03X2217445Y4630493I-120272J-93522D01*
G01*
Y4274892D2*
D14*
G02X2061331Y4348008I-103J203002D01*
G01*
X2396734Y4382454D2*
G02X2217445Y4274892I-179407J95838D01*
G01*
Y4681294D2*
G03X2062304Y4609337I37J-203302D01*
G01*
X2393860Y4578906D2*
G03X2217445Y4681294I-176434J-100823D01*
G01*
X2476506Y4305363D2*
D50*
X2402853D1*
X2440954Y4346020D2*
Y4267274D1*
X2964817Y3030268D2*
D49*
G02X3082150Y3105793I131891J-75996D01*
G01*
X2956657Y2894226D2*
G02X2964817Y3030268I140452J59841D01*
G01*
X3228840Y2877886D2*
G03X3238046Y3011508I-132108J76229D01*
G01*
X3117727Y2803128D2*
G03X3228840Y2877886I-20964J151110D01*
G01*
X2920830Y3055685D2*
D14*
G02X3062196Y3154328I175901J-101467D01*
G01*
X2924313Y2846619D2*
G02X2920830Y3055685I172788J107441D01*
G01*
X3272827Y2852469D2*
G03X3288103Y3022804I-176075J101643D01*
G01*
X3095933Y2750881D2*
G03X3272827Y2852469I893J203251D01*
G01*
X2817679Y2816078D2*
D50*
X2854501Y2879863D1*
X2870672Y2826528D2*
X2802452Y2865904D1*
X1469088Y3030317D2*
D49*
G02X1475836Y2890948I-132116J-76244D01*
G01*
X1355358Y3105389D2*
G02X1469088Y3030317I-18176J-151219D01*
G01*
X1205086Y2877925D2*
G03X1316215Y2803108I131892J75964D01*
G01*
X1195900Y3011472D2*
G03X1205086Y2877925I141180J-57378D01*
G01*
X1513109Y3055698D2*
D14*
G02X1527823Y2883951I-175646J-101552D01*
G01*
X1330279Y3157174D2*
G02X1513109Y3055698I6756J-203270D01*
G01*
X1161106Y2852492D2*
G03X1301013Y2754132I176029J101701D01*
G01*
X1161553Y3056464D2*
G03X1161106Y2852492I175456J-102371D01*
G01*
X1357147Y3264829D2*
D50*
X1393973Y3201043D1*
X1339709Y3213708D2*
X1407915Y3253083D1*
X1785649Y4210431D2*
D49*
G02X1646280Y4203684I-76244J132116D01*
G01*
X1860721Y4324161D2*
G02X1785649Y4210431I-151219J18176D01*
G01*
X1633257Y4474433D2*
G03X1558440Y4363305I75964J-131892D01*
G01*
X1766804Y4483620D2*
G03X1633257Y4474433I-57378J-141180D01*
G01*
X1811031Y4166410D2*
D14*
G02X1639283Y4151696I-101552J175646D01*
G01*
X1912506Y4349241D2*
G02X1811031Y4166410I-203270J-6756D01*
G01*
X1607824Y4518413D2*
G03X1509464Y4378507I101701J-176029D01*
G01*
X1811797Y4517966D2*
G03X1607824Y4518413I-102371J-175456D01*
G01*
X2020161Y4322373D2*
D50*
X1956375Y4285547D1*
X1969040Y4339811D2*
X2008415Y4271605D1*
X3081024Y3462075D2*
D49*
G02X3144866Y3586113I152351J34D01*
G01*
X3141968Y3340169D2*
G02X3081024Y3462075I91639J121999D01*
G01*
X3385826D2*
G03X3326993Y3582405I-152354J57D01*
G01*
Y3341791D2*
G03X3385826Y3462075I-93522J120272D01*
G01*
X3030224D2*
D14*
G02X3103340Y3618188I203002J103D01*
G01*
X3137786Y3282785D2*
G02X3030224Y3462075I95838J179407D01*
G01*
X3436626D2*
G03X3364669Y3617215I-203302J-37D01*
G01*
X3334239Y3285659D2*
G03X3436626Y3462075I-100823J176434D01*
G01*
X3060696Y3203014D2*
D50*
Y3276667D1*
X3101353Y3238566D2*
X3022606D1*
X1785600Y2714702D2*
D49*
G02X1861126Y2597370I-75996J-131891D01*
G01*
X1649558Y2722863D2*
G02X1785600Y2714702I59841J-140452D01*
G01*
X1633219Y2450679D2*
G03X1766840Y2441474I76229J132108D01*
G01*
X1558460Y2561792D2*
G03X1633219Y2450679I151110J20964D01*
G01*
X1811018Y2758690D2*
D14*
G02X1909660Y2617323I-101467J-175901D01*
G01*
X1601951Y2755207D2*
G02X1811018Y2758690I107441J-172788D01*
G01*
X1607801Y2406692D2*
G03X1778137Y2391416I101643J176075D01*
G01*
X1506214Y2583587D2*
G03X1607801Y2406692I203251J-893D01*
G01*
X1571411Y2861841D2*
D50*
X1635195Y2825019D1*
X1581860Y2808847D2*
X1621236Y2877067D1*
X1470035Y3893919D2*
D49*
G02X1352702Y3818394I-131891J75996D01*
G01*
X1478195Y4029961D2*
G02X1470035Y3893919I-140452J-59841D01*
G01*
X1206012Y4046301D2*
G03X1196806Y3912679I132108J-76229D01*
G01*
X1317124Y4121060D2*
G03X1206012Y4046301I20964J-151110D01*
G01*
X1514022Y3868502D2*
D14*
G02X1372656Y3769859I-175901J101467D01*
G01*
X1510539Y4077568D2*
G02X1514022Y3868502I-172788J-107441D01*
G01*
X1162025Y4071718D2*
G03X1146748Y3901383I176075J-101643D01*
G01*
X1338919Y4173306D2*
G03X1162025Y4071718I-893J-203251D01*
G01*
X1617173Y4108109D2*
D50*
X1580351Y4044324D1*
X1564179Y4097660D2*
X1632400Y4058283D1*
X1149823Y1737985D2*
D116*
X1198396Y1610376D1*
X1246969Y1737985D1*
X1286185Y1658949D2*
X1359045D1*
Y1671162D1*
X1353008Y1683376D1*
X1346972Y1689412D1*
X1334758Y1695449D1*
X1316508D1*
X1304435Y1689412D1*
X1292222Y1677199D1*
X1286185Y1658949D1*
Y1646876D1*
X1292222Y1628626D1*
X1304435Y1616553D1*
X1316508Y1610376D1*
X1334758D1*
X1346972Y1616553D1*
X1359045Y1628626D1*
X1398260Y1695449D2*
Y1610376D1*
Y1658949D2*
X1404437Y1677199D1*
X1416510Y1689412D1*
X1428724Y1695449D1*
X1446974D1*
X1553013Y1677199D2*
X1546976Y1689412D1*
X1528726Y1695449D1*
X1510476D1*
X1492226Y1689412D1*
X1486189Y1677199D1*
X1492226Y1665126D1*
X1504439Y1658949D1*
X1534763Y1652912D1*
X1546976Y1646876D1*
X1553013Y1634662D1*
Y1628626D1*
X1546976Y1616553D1*
X1528726Y1610376D1*
X1510476D1*
X1492226Y1616553D1*
X1486189Y1628626D1*
X1592228Y1737985D2*
X1598265Y1731949D1*
X1604442Y1737985D1*
X1598265Y1744162D1*
X1592228Y1737985D1*
X1598265Y1695449D2*
Y1610376D1*
X1673980Y1695449D2*
X1661907Y1689412D1*
X1649694Y1677199D1*
X1643657Y1658949D1*
Y1646876D1*
X1649694Y1628626D1*
X1661907Y1616553D1*
X1673980Y1610376D1*
X1692230D1*
X1704444Y1616553D1*
X1716517Y1628626D1*
X1722694Y1646876D1*
Y1658949D1*
X1716517Y1677199D1*
X1704444Y1689412D1*
X1692230Y1695449D1*
X1673980D1*
X1761910D2*
Y1610376D1*
Y1671162D2*
X1780160Y1689412D1*
X1792373Y1695449D1*
X1810483D1*
X1822696Y1689412D1*
X1828733Y1671162D1*
Y1610376D1*
X1436357Y1514325D2*
X1503039D1*
X1466680Y1465752D1*
X1484930D1*
X1497003Y1459715D1*
X1503039Y1453679D1*
X1509216Y1435429D1*
Y1423356D1*
X1503039Y1405106D1*
X1490966Y1392892D1*
X1472716Y1386856D1*
X1454466D1*
X1436357Y1392892D1*
X1430320Y1399069D1*
X1424143Y1411142D1*
M02*
