G04 DipTrace 3.0.0.2*
G04 TopMask.gbr*
%MOMM*%
G04 #@! TF.FileFunction,Soldermask,Top*
G04 #@! TF.Part,Single*
%AMOUTLINE0*5,1,8,0,0,1.67641,-22.49998*%
%AMOUTLINE1*5,1,8,0,0,1.67641,-262.50052*%
%AMOUTLINE2*5,1,8,0,0,1.67642,-232.50031*%
%AMOUTLINE3*5,1,8,0,0,1.67641,7.49948*%
%AMOUTLINE4*5,1,8,0,0,1.67641,-112.49998*%
%AMOUTLINE5*5,1,8,0,0,1.67641,-202.49998*%
%AMOUTLINE6*5,1,8,0,0,1.67642,37.49969*%
%AMOUTLINE7*5,1,8,0,0,1.67641,-82.50052*%
%AMOUTLINE8*5,1,8,0,0,1.67641,-172.50052*%
%AMOUTLINE9*5,1,8,0,0,1.67641,67.50002*%
%AMOUTLINE10*5,1,8,0,0,1.67642,-52.50031*%
%AMOUTLINE11*5,1,8,0,0,1.67642,-142.50031*%
%ADD59C,2.794*%
%ADD80R,0.6985X0.5588*%
%ADD82R,0.5588X0.6985*%
%ADD86C,1.8032*%
%ADD88O,1.2032X1.5032*%
%ADD90R,1.2032X1.5032*%
%ADD92O,1.5032X1.2032*%
%ADD94R,1.5032X1.2032*%
%ADD96C,1.9032*%
%ADD98R,1.9032X1.9032*%
%ADD100R,1.3032X1.2032*%
%ADD102R,1.2032X1.3032*%
%ADD104R,1.8032X1.8032*%
%ADD106C,1.8032*%
%ADD118OUTLINE0*%
%ADD119OUTLINE1*%
%ADD120OUTLINE2*%
%ADD121OUTLINE3*%
%ADD122OUTLINE4*%
%ADD123OUTLINE5*%
%ADD124OUTLINE6*%
%ADD125OUTLINE7*%
%ADD126OUTLINE8*%
%ADD127OUTLINE9*%
%ADD128OUTLINE10*%
%ADD129OUTLINE11*%
%FSLAX35Y35*%
G04*
G71*
G90*
G75*
G01*
G04 TopMask*
%LPD*%
D106*
X2468886Y3799914D3*
D104*
X1960886D3*
D102*
X5351786Y1955874D3*
Y2125874D3*
X4483106Y1501214D3*
Y1331214D3*
X4991106Y2153994D3*
Y2323994D3*
X2984506Y1884754D3*
Y1714754D3*
X2705106Y1887294D3*
Y1717294D3*
D100*
X5113026Y1978734D3*
X4943026D3*
D102*
X5115566Y2156534D3*
Y2326534D3*
X2842266Y1887114D3*
Y1717114D3*
D100*
X4178306Y1866974D3*
X4008306D3*
D98*
X4051306Y5082614D3*
D96*
X4305306D3*
X4051306Y4828614D3*
X4305306D3*
X4051306Y4574614D3*
X4305306D3*
D98*
X3289306Y5209614D3*
D96*
X3543306D3*
X3289306Y4955614D3*
X3543306D3*
X3289306Y4701614D3*
X3543306D3*
X3289306Y4447614D3*
X3543306D3*
D98*
X4814056Y4574614D3*
D96*
X5068056D3*
X5322056D3*
X5576056D3*
D98*
X4813386Y4829260D3*
D96*
X5067386D3*
X5321386D3*
X5575386D3*
D98*
X4813386Y5082614D3*
D96*
X5067386D3*
X5321386D3*
X5575386D3*
D98*
X3035306Y5209614D3*
D96*
Y4955614D3*
Y4701614D3*
D59*
X5758186Y1412314D3*
Y5511874D3*
Y7791527D3*
X2227586Y1412314D3*
D94*
X1600206Y3208094D3*
D92*
Y3335094D3*
Y3462094D3*
Y3589094D3*
Y3716094D3*
D90*
X4228473Y1376754D3*
D88*
X4101473D3*
X3974473D3*
X3847473D3*
X3720473D3*
D90*
X3355346D3*
D88*
X3228346D3*
X3101346D3*
X2974346D3*
X2847346D3*
D104*
X5915666Y2156534D3*
D86*
X5661666D3*
X5915666Y2410534D3*
X5661666D3*
X5915666Y2664534D3*
X5661666D3*
X5915666Y2918534D3*
X5661666D3*
X5915666Y3172534D3*
X5661666D3*
D98*
X3826516Y3832300D3*
D96*
X4080516D3*
X3826516Y3578300D3*
X4080516D3*
X3826516Y3324300D3*
X4080516D3*
X3826516Y3070300D3*
X4080516D3*
D98*
X5096209Y3579330D3*
D96*
Y3325330D3*
Y3071330D3*
Y2817330D3*
D98*
X4842183Y3579330D3*
D96*
Y3325330D3*
Y3071330D3*
Y2817330D3*
D98*
X4587509Y3578637D3*
D96*
Y3324637D3*
Y3070637D3*
Y2816637D3*
D98*
X4081786Y2562934D3*
D96*
X3827786D3*
X4081786Y2816934D3*
X3827786D3*
D98*
X2090426Y3083634D3*
D96*
X2344426D3*
D102*
X4775206Y2156534D3*
Y2326534D3*
D100*
X4010666Y1991434D3*
X4180666D3*
X4013206Y2212414D3*
X4183206D3*
X4015746Y2331794D3*
X4185746D3*
D82*
X1574806Y4800674D3*
X1676406D3*
X1727206D3*
X1625606D3*
X1727206Y4699074D3*
X1676406D3*
X1625606D3*
X1574806D3*
D80*
X2768606Y3474794D3*
Y3576394D3*
Y3627194D3*
Y3525594D3*
X2870206Y3627194D3*
Y3576394D3*
Y3525594D3*
Y3474794D3*
D82*
X1630686Y2060014D3*
X1529086D3*
X1478286D3*
X1579886D3*
X1478286Y2161614D3*
X1529086D3*
X1579886D3*
X1630686D3*
D118*
X2090426Y2446094D3*
X2344426D3*
D119*
X3161284Y3860110D3*
X3034284Y4080080D3*
D120*
X2835412Y4277960D3*
X2615438Y4404960D3*
D121*
X2615443Y2518235D3*
X2835413Y2645235D3*
D122*
X1201426Y3589094D3*
Y3335094D3*
D123*
X2344426Y4478094D3*
X2090426D3*
D124*
X3033292Y2844108D3*
X3160292Y3064081D3*
D125*
X1273568Y3064077D3*
X1400568Y2844107D3*
D126*
X1819409Y4405952D3*
X1599439Y4278952D3*
D127*
X3233426Y3335094D3*
Y3589094D3*
D128*
X1599440Y2646227D3*
X1819414Y2519227D3*
D129*
X1401560Y4080079D3*
X1274560Y3860106D3*
M02*
