M48
METRIC,0000.00
T01C0.254
T02C0.305
T03C0.7
T04C0.813
T05C0.9
T06C1.0
T07C1.1
T08C2.794
%
T01
X+003914Y+002365
T02
X+004752Y+008034
X+004879Y+008034
X+005006Y+008034
X+005133Y+008034
X+005260Y+008034
X+005387Y+008034
X+005387Y+007907
X+005260Y+007907
X+005133Y+007907
X+005006Y+007907
X+004879Y+007907
X+004752Y+007907
X+004752Y+007780
X+004879Y+007780
X+005006Y+007780
X+005133Y+007780
X+005260Y+007780
X+005387Y+007780
X+005387Y+007653
X+005260Y+007653
X+005133Y+007653
X+005006Y+007653
X+004879Y+007653
X+004752Y+007653
X+004752Y+007526
X+004879Y+007526
X+005006Y+007526
X+005133Y+007526
X+005260Y+007526
X+005387Y+007526
X+005641Y+007272
X+005895Y+007272
X+005895Y+007018
X+005641Y+007018
X+005641Y+006764
X+005895Y+006764
X+005895Y+006510
X+005641Y+006510
X+005641Y+006256
X+005895Y+006256
X+005895Y+006002
X+005641Y+006002
X+005387Y+005748
X+005387Y+005494
X+005895Y+004986
X+006022Y+004986
X+006022Y+004732
X+005895Y+004732
X+006022Y+004478
X+005768Y+004224
X+005514Y+004224
X+005260Y+004224
X+005141Y+003800
X+005141Y+003734
X+005481Y+003653
X+006022Y+003716
X+006022Y+003970
X+005502Y+002700
X+005344Y+002464
X+004973Y+002426
X+004867Y+002289
X+004915Y+002238
X+004763Y+002398
X+004641Y+002324
X+004643Y+002258
X+004575Y+002225
X+004544Y+002332
X+004539Y+002438
X+004282Y+002624
X+004333Y+002941
X+003960Y+002957
X+003653Y+002614
X+003599Y+002558
X+003546Y+002626
X+003713Y+002507
X+003940Y+002309
X+003919Y+002207
X+003884Y+002151
X+003772Y+002146
X+003574Y+002146
X+003574Y+002212
X+003432Y+002144
X+003378Y+002014
X+003317Y+001951
X+003172Y+002139
X+003226Y+002192
X+003287Y+002271
X+003340Y+002311
X+003119Y+002251
X+003066Y+002184
X+003081Y+002413
X+003134Y+002471
X+003145Y+002548
X+003150Y+002771
X+003386Y+002847
X+003332Y+002982
X+003274Y+003101
X+002931Y+003094
X+002791Y+003142
X+002802Y+002982
X+002309Y+002075
X+002456Y+001806
X+002604Y+001748
X+002929Y+001534
X+003071Y+001567
X+003071Y+001796
X+003345Y+001684
X+003553Y+001745
X+003607Y+001801
X+003538Y+002050
X+003904Y+001831
X+003914Y+001709
X+004026Y+001694
X+004102Y+001694
X+004249Y+001699
X+004305Y+001753
X+004356Y+001948
X+004315Y+002103
X+004366Y+002159
X+004143Y+002116
X+004521Y+001590
X+004613Y+001476
X+004704Y+001384
X+004399Y+001367
X+004011Y+001189
X+003964Y+001235
X+003825Y+001120
X+002731Y+001374
X+001958Y+001951
X+001821Y+001803
X+001196Y+004224
X+001196Y+004351
X+001323Y+004351
X+001323Y+004478
X+001323Y+004605
X+001196Y+004605
X+001196Y+004478
X+001196Y+004986
X+001196Y+005113
X+001196Y+005240
X+001196Y+005367
X+001196Y+005494
X+001196Y+005621
X+001196Y+005748
X+001450Y+005748
X+001450Y+005494
X+001450Y+005240
X+001450Y+004986
X+001704Y+004986
X+001704Y+005240
X+001704Y+005494
X+001704Y+005748
X+001704Y+006129
X+001958Y+006129
X+002212Y+006129
X+002466Y+006129
X+002593Y+006002
X+002720Y+006129
X+002847Y+006002
X+002974Y+006129
X+003101Y+006002
X+003228Y+006129
X+003355Y+006002
X+003482Y+006129
X+003609Y+006002
X+003736Y+006129
X+003863Y+006002
X+003990Y+005875
X+004117Y+005748
X+004244Y+005875
X+004371Y+006002
X+004244Y+006129
X+004117Y+006002
X+003990Y+006129
X+003736Y+005748
X+003482Y+005748
X+003228Y+005748
X+002974Y+005748
X+002720Y+005748
X+002697Y+005532
X+002670Y+005398
X+002863Y+005138
X+002466Y+005748
X+002052Y+004879
X+003559Y+004209
X+003604Y+004272
X+003782Y+004135
X+003816Y+004351
X+003510Y+003968
X+004295Y+003772
X+004338Y+004059
X+004244Y+005494
X+003990Y+005494
X+004371Y+005748
X+004498Y+005875
X+004498Y+006129
X+004498Y+005494
X+005268Y+001989
X+005199Y+001895
X+005244Y+001652
X+005291Y+001606
X+005433Y+001776
X+005484Y+001958
X+005654Y+001859
X+005773Y+001836
X+005718Y+001750
X+005987Y+001687
X+006017Y+001836
X+006144Y+001836
X+005443Y+001341
X+005268Y+001275
X+005032Y+001250
T03
X+001600Y+003208
X+001600Y+003335
X+001600Y+003462
X+001600Y+003589
X+001600Y+003716
X+002847Y+001377
X+002974Y+001377
X+003101Y+001377
X+003228Y+001377
X+003355Y+001377
X+003720Y+001377
X+003847Y+001377
X+003974Y+001377
X+004101Y+001377
X+004228Y+001377
T04
X+002090Y+002446
X+002344Y+002446
X+002615Y+002518
X+002835Y+002645
X+003033Y+002844
X+003160Y+003064
X+003233Y+003335
X+003233Y+003589
X+003161Y+003860
X+003034Y+004080
X+002835Y+004278
X+002615Y+004405
X+002344Y+004478
X+002090Y+004478
X+001819Y+004406
X+001599Y+004279
X+001402Y+004080
X+001275Y+003860
X+001201Y+003589
X+001201Y+003335
X+001274Y+003064
X+001401Y+002844
X+001599Y+002646
X+001819Y+002519
T05
X+002469Y+003800
X+001961Y+003800
T06
X+005916Y+002157
X+005662Y+002157
X+005662Y+002411
X+005916Y+002411
X+005916Y+002665
X+005662Y+002665
X+005662Y+002919
X+005916Y+002919
X+005916Y+003173
X+005662Y+003173
T07
X+004051Y+005083
X+004305Y+005083
X+004305Y+004829
X+004051Y+004829
X+004051Y+004575
X+004305Y+004575
X+004814Y+004575
X+005068Y+004575
X+005322Y+004575
X+005576Y+004575
X+005575Y+004829
X+005575Y+005083
X+005321Y+005083
X+005321Y+004829
X+005067Y+004829
X+005067Y+005083
X+004813Y+005083
X+004813Y+004829
X+004081Y+003832
X+003827Y+003832
X+003827Y+003578
X+004081Y+003578
X+004081Y+003324
X+003827Y+003324
X+003827Y+003070
X+003828Y+002817
X+003828Y+002563
X+004082Y+002563
X+004082Y+002817
X+004081Y+003070
X+004588Y+003071
X+004588Y+003325
X+004588Y+003579
X+004842Y+003579
X+004842Y+003325
X+004842Y+003071
X+004842Y+002817
X+005096Y+002817
X+005096Y+003071
X+005096Y+003325
X+005096Y+003579
X+004588Y+002817
X+003543Y+004448
X+003289Y+004448
X+003289Y+004702
X+003289Y+004956
X+003289Y+005210
X+003543Y+005210
X+003543Y+004956
X+003543Y+004702
X+003035Y+004702
X+003035Y+004956
X+003035Y+005210
X+002344Y+003084
X+002090Y+003084
T08
X+005758Y+001412
X+002228Y+001412
X+005758Y+005512
X+005758Y+007792
T00
M30
