G04 DipTrace 3.0.0.2*
G04 BottomSilk.gbr*
%MOMM*%
G04 #@! TF.FileFunction,Legend,Bot*
G04 #@! TF.Part,Single*
%ADD10C,0.25*%
%ADD43O,0.39127X0.39172*%
%ADD50C,0.127*%
%ADD51O,0.63519X0.63475*%
%ADD55O,0.29902X0.30038*%
%ADD56O,0.39276X0.38997*%
%FSLAX35Y35*%
G04*
G71*
G90*
G75*
G01*
G04 BotSilk*
%LPD*%
X1103626Y4639047D2*
D10*
X1357600D1*
X1103626D2*
Y6163060D1*
X1357600D1*
X1824964D2*
X2124640D1*
X1824964Y4639047D2*
X2124640D1*
X2126573D2*
Y4799068D1*
Y6003039D2*
Y6163060D1*
D43*
X3576576Y2138856D3*
X3553206Y2266217D2*
D10*
X3253219D1*
Y2316217D1*
X3553206D1*
Y2266217D1*
X6123937Y4285067D2*
X6187446D1*
Y3401134D1*
X6139189D1*
X5885152D2*
X5585486D1*
X5885152Y4285067D2*
X5585486D1*
X5583564D2*
Y4125075D1*
Y3561126D2*
Y3401134D1*
X1156928Y1353070D2*
X1093419D1*
Y2237004D1*
X1141676D1*
X1395713D2*
X1695379D1*
X1395713Y1353070D2*
X1695379D1*
X1697302D2*
Y1513062D1*
Y2077012D2*
Y2237004D1*
X3684346Y2216197D2*
D50*
X4128846D1*
Y1644725D1*
X3684346D1*
Y2216197D1*
D51*
X4065349Y2279738D3*
D55*
X5180456Y1733707D3*
X4805665Y2248506D2*
D10*
X4777363Y2276762D1*
X4749060Y2248421D1*
X4381302Y1824244D2*
X4353084Y1852500D1*
X4381386Y1880756D2*
X4353084Y1852500D1*
X4777363Y1428239D2*
X4749060Y1456494D1*
X4805580Y1456579D2*
X4777363Y1428239D1*
X5173339Y1824244D2*
Y1880756D1*
D56*
X5124916Y2454712D3*
M02*
