G04 DipTrace 3.0.0.2*
G04 Bottom.gbr*
%MOMM*%
G04 #@! TF.FileFunction,Copper,L2,Bot*
G04 #@! TF.Part,Single*
G04 #@! TA.AperFunction,Conductor*
%ADD14C,0.254*%
%ADD16C,0.762*%
%ADD18C,0.2032*%
G04 #@! TA.AperFunction,CopperBalancing*
%ADD19C,0.635*%
G04 #@! TA.AperFunction,ComponentPad*
%ADD28C,1.1684*%
%ADD29R,1.7X1.7*%
%ADD30C,1.7*%
G04 #@! TA.AperFunction,ViaPad*
%ADD41C,0.508*%
%ADD43C,0.6604*%
%FSLAX35Y35*%
G04*
G71*
G90*
G75*
G01*
G04 Bottom*
%LPD*%
X7820127Y7064430D2*
D16*
X8074127D1*
X7820127D2*
Y7031410D1*
X7680427Y6891710D1*
Y6734230D1*
X7982687Y6431970D1*
Y4308530D1*
X7497547D1*
X7982687D2*
Y3208710D1*
X7515327D1*
X4820387Y6111930D2*
X4726407D1*
X4416527Y5802050D1*
Y4976550D1*
Y3973250D1*
Y2484810D1*
X3700247Y1768530D1*
X5932907Y7011090D2*
D14*
Y7064430D1*
X5671287Y7326050D1*
X5186147Y7635930D2*
X5148047D1*
X5097247Y7585130D1*
Y7499397D1*
X5073760Y7475910D1*
X4289527D1*
X4233647Y7531790D1*
X3789147D1*
X3725647Y7595290D1*
Y7719750D1*
X3055087D2*
X3725647D1*
X5105783Y6111930D2*
X5120107D1*
X5503647Y6495470D1*
Y7046650D1*
X5457927Y7092370D1*
X5097247Y7282870D2*
Y7499397D1*
X8150327Y1545010D2*
D16*
Y1931090D1*
X8074127Y6810430D2*
Y2395910D1*
X8147787Y2322250D1*
X7107657Y7561000D2*
D18*
X7092417Y7545760D1*
X7059160D1*
X7025810Y7512410D1*
Y7500080D1*
X7011800Y7486070D1*
X5769117D1*
X5678907Y7576277D1*
Y7597830D1*
X7107657Y7497500D2*
X7092417Y7512740D1*
X7072840D1*
X7058830Y7498730D1*
Y7486400D1*
X7025480Y7453050D1*
X5755437D1*
X5655560Y7552930D1*
X5634007D1*
X7820127Y8080430D2*
X7897597D1*
X7930617Y8047410D1*
Y8020994D1*
Y7993780D1*
X7908047Y7971210D1*
X7717470D1*
X7583663Y7837404D1*
Y7677634D1*
X7549580Y7643550D1*
X7528027D1*
X8074127Y8080430D2*
X7996657D1*
X7963637Y8047410D1*
Y8020994D1*
Y7980100D1*
X7921727Y7938190D1*
X7731150D1*
X7616683Y7823724D1*
Y7663954D1*
X7572927Y7620200D1*
Y7598647D1*
X4256507Y4384730D2*
D14*
X3687547D1*
X3588487Y4483790D1*
Y5287067D1*
X3596107Y5294687D1*
X4256507Y3320470D2*
X3718027D1*
X3596107Y3442390D1*
Y3491287D1*
X5617947Y7478450D2*
X5605247D1*
X5739867Y7343830D1*
X5849087D1*
X6090387Y7102530D1*
X6420587D1*
X6412967Y7110150D1*
X6026887Y7808650D2*
X6090387Y7745150D1*
Y7707050D1*
X6004027Y7620690D1*
X5841467D1*
X5729707Y7732450D1*
X5668747D1*
X5559527Y7623230D1*
Y7547030D1*
X5628107Y7478450D1*
X5617947D1*
X5780507Y6843450D2*
X6146267D1*
X6412967Y7110150D1*
X6228817Y7944540D2*
X6118327Y8055030D1*
X6031967Y7328590D2*
Y7290490D1*
X6171667Y7150790D1*
X6227547D1*
X6308827Y7232070D1*
X6590767D1*
X6992087Y6830750D1*
X7655027Y7145710D2*
Y7420030D1*
X6019267Y7397170D2*
X6047207D1*
X6062447Y7412410D1*
X7220687D1*
X7444207Y7188890D1*
X7723607Y7204130D2*
X7916647D1*
X7949667Y7237150D1*
Y7447970D1*
X8074127Y7572430D1*
X5763997Y7126660D2*
X5429987Y7460670D1*
Y7613070D1*
X5036287Y8006770D1*
X3880587D1*
X3862807Y7988990D1*
X1246607Y3295070D2*
X1233907D1*
X1200887Y3328090D1*
Y6988230D1*
X1381227Y7168570D1*
X4101567D1*
X4097757Y7172380D1*
X1259307Y3394130D2*
X1241527Y3411910D1*
Y6970450D1*
X1391387Y7120310D1*
X4050767D1*
X4063467Y7107610D1*
X4177767D1*
X4353027Y6932350D1*
X5170907D1*
X5249647Y7011090D1*
X5445227D1*
X1251687Y2797230D2*
X1078967Y2969950D1*
Y7051730D1*
X1335507Y7308270D1*
X4205707D1*
X4497807Y7016170D1*
X5115027D1*
X5214087Y7115230D1*
X10659847Y2893750D2*
Y3018210D1*
X10789387Y3147750D1*
Y7026330D1*
X10667467Y7148250D1*
X10220427D1*
D18*
X9067267Y8301410D1*
X7639787D1*
X7398487Y8060110D1*
D14*
Y8016930D1*
X10649687Y2794690D2*
X10830027Y2975030D1*
Y7044110D1*
X10685247Y7188890D1*
X10238207D1*
D18*
X9090127Y8336970D1*
X7619467D1*
X7332447Y8049950D1*
D14*
Y7968670D1*
X7337527Y7973750D1*
X8356067Y8118530D2*
D18*
X8244307Y8230290D1*
X7690587D1*
X7502627Y8042330D1*
D14*
Y7986450D1*
X7373087Y7856910D1*
X6715227D1*
X6710147Y7851830D1*
X10659847Y3289990D2*
X10708107Y3338250D1*
Y6988230D1*
X10629367Y7066970D1*
X10184867D1*
X9133307Y8118530D1*
X8356067D1*
X6773647Y7803570D2*
X7378167D1*
X7545807Y7971210D1*
Y8029630D1*
D18*
X7708367Y8192190D1*
X8196047D1*
X8323047Y8065190D1*
D14*
X9128227D1*
X10167087Y7026330D1*
X10611587D1*
X10664927Y6972990D1*
Y3414450D1*
X10639527Y3389050D1*
X3476727Y7374310D2*
X4124427D1*
X5028667Y7803570D2*
Y7536870D1*
X3372587Y7427650D2*
X4185387D1*
X4297783Y7315254D1*
X4309210D1*
X3420847Y7483530D2*
X4208247D1*
X4289527Y7402250D1*
X6219927Y8263310D2*
X5950687D1*
X7390867Y8199810D2*
X7387057Y8203620D1*
X7352767Y8169330D1*
Y8126150D1*
X7312127Y8085510D1*
X7258787D1*
X7190207Y8154090D1*
X5750027D1*
X7296887Y8146470D2*
X7294347Y8149010D1*
X7258787D1*
X7210527Y8197270D1*
X5935447D1*
X5882107Y8250610D1*
X1254227Y2896290D2*
X1119607Y3030910D1*
Y7031410D1*
X1355827Y7267630D1*
X4165067D1*
X4228567Y7204130D1*
X6189447Y7209210D2*
Y7262550D1*
X6095467Y7356530D1*
X5991327Y7747690D2*
X5971007D1*
X5407127Y8311570D1*
X2872207D1*
X2371827Y7811190D1*
X1244067Y3094410D2*
X1160247Y3178230D1*
Y7008550D1*
X1378687Y7226990D1*
X4126967D1*
X4378427Y6975530D1*
X5135347D1*
X5214087Y7054270D1*
X5272507D1*
X5376647Y7158410D1*
Y7600370D1*
X5277587Y7699430D1*
X5226787D1*
X4985487Y7940730D1*
X4157447D1*
X10659847Y3094410D2*
Y3203630D1*
X10748747Y3292530D1*
Y7006010D1*
X10647147Y7107610D1*
X10202647D1*
D18*
X9044407Y8265850D1*
X7667727D1*
X7459447Y8057570D1*
D14*
Y8001690D1*
X7375627Y7917870D1*
X7268947D1*
X7174967Y8011850D1*
X6453607D1*
X6299947Y7858190D1*
X6237707Y7795950D1*
X6123407D1*
X5864327Y8055030D1*
X5739867D1*
X5531587Y8263310D1*
X6357087Y7816270D2*
X6315167Y7858190D1*
X6299947D1*
X5480787Y8316650D2*
X7167347D1*
X7243547Y8240450D1*
X7080987Y7750230D2*
X7086067D1*
Y7671490D1*
X7169887Y7587670D1*
Y7498770D1*
X7210527Y7458130D1*
X7268947D1*
X7464527Y7262550D1*
X5457927Y7694350D2*
Y7668950D1*
X5173447Y7953430D1*
X4548607Y4542210D2*
Y5469310D1*
X5556987Y6477690D1*
Y6939970D1*
X5628107D1*
X5681663Y6886414D1*
Y6568914D1*
X5703443Y6547134D1*
X5724627Y6525950D1*
X6362167D1*
X6811747Y6076370D1*
Y4692070D1*
X4548607Y4542210D2*
Y3470330D1*
X6811747Y4692070D2*
Y3620190D1*
X5556987Y6967910D2*
Y6939970D1*
X3425927Y7628310D2*
X3657067D1*
X3667227Y7618150D1*
X5689067Y6536110D2*
X5692420D1*
X5703443Y6547134D1*
X3199867Y1702490D2*
X3537687D1*
X4350487Y2515290D1*
Y5842690D1*
X4693387Y6185590D1*
X4825467D1*
X4830547Y6190670D1*
X4845787Y7069510D2*
X4970247D1*
X5259807Y7359070D1*
Y7641010D1*
X5264887Y7635930D1*
X4619727Y4686990D2*
Y5482010D1*
X5551907Y6414190D1*
X5610327Y6472610D1*
X6352007D1*
X6743167Y6081450D1*
Y4537130D1*
X4619727Y4686990D2*
Y3625270D1*
X6743167Y4537130D2*
Y3467790D1*
X5610327Y6472610D2*
Y6881550D1*
X3405607Y7562270D2*
X3591027D1*
X3611347Y7541950D1*
X5562067Y6398950D2*
X5551907D1*
Y6414190D1*
X5323307Y7574970D2*
Y7346370D1*
X5201387Y7224450D1*
X4995647Y7305730D2*
Y7176190D1*
X4947387Y7127930D1*
X4828007D1*
X4769587Y7069510D1*
X4797527Y6249090D2*
X4787367Y6238930D1*
X4685767D1*
X4309847Y5863010D1*
Y2533070D1*
X3532607Y1755830D1*
X3357347D1*
X7820127Y7826430D2*
X7799807D1*
X7695667Y7722290D1*
Y7643550D1*
X7533107Y7480990D1*
Y7193970D1*
X7472147Y7133010D1*
X7413727D1*
X7202907Y7343830D1*
X6532347D1*
X6529807Y7341290D1*
X8074127Y7826430D2*
X8038567D1*
X7936967Y7724830D1*
Y7508930D1*
X7873467Y7445430D1*
X7751547D1*
X7705827Y7491150D1*
X7627087D1*
X7581367Y7445430D1*
Y7158410D1*
X7477227Y7054270D1*
X7070827D1*
X5765267Y6584370D2*
Y6754550D1*
X5724627Y6795190D1*
Y6912030D1*
X5668747Y6967910D1*
X5676370D1*
X6406617Y7705780D2*
X6572987Y7539410D1*
X6707607D1*
X6849847Y7290490D2*
X6844767D1*
Y7193970D1*
X7309587Y6729150D1*
Y2761670D1*
X7924267Y2146990D1*
X8188427D1*
X8297787Y2256350D1*
Y2322250D1*
X8300327Y1545010D2*
X8203807Y1448490D1*
X8099527D1*
X8053807Y1494210D1*
Y1872670D1*
X7218147Y2708330D1*
Y6683430D1*
X6618707Y7282870D1*
X6336767D1*
X6260567Y7359070D1*
X8300327Y1931090D2*
Y1989370D1*
X8196047Y2093650D1*
X7901407D1*
X7261327Y2733730D1*
Y6711370D1*
X6796507Y7176190D1*
Y7270170D1*
X6776187Y7290490D1*
X6611087Y7595290D2*
X6443447Y7762930D1*
D41*
X7515327Y3208710D3*
X7497547Y4308530D3*
X4820387Y6111930D3*
X4416527Y3973250D3*
Y4976550D3*
X3700247Y1768530D3*
X5671287Y7326050D3*
X5932907Y7011090D3*
X5186147Y7635930D3*
X3725647Y7719750D3*
X3055087D3*
X5457927Y7092370D3*
X5097247Y7282870D3*
X5105783Y6111930D3*
X7107657Y7561000D3*
X5678907Y7597830D3*
X7107657Y7497500D3*
X5634007Y7552930D3*
X7528027Y7643550D3*
X7572927Y7598647D3*
X4256507Y4384730D3*
Y3320470D3*
X5617947Y7478450D3*
X6412967Y7110150D3*
X6026887Y7808650D3*
X5617947Y7478450D3*
X6412967Y7110150D3*
X5780507Y6843450D3*
X6228817Y7944540D3*
X6118327Y8055030D3*
X6031967Y7328590D3*
X6992087Y6830750D3*
X7655027Y7145710D3*
Y7420030D3*
X6019267Y7397170D3*
X7444207Y7188890D3*
X7723607Y7204130D3*
X5763997Y7126660D3*
X3862807Y7988990D3*
X1246607Y3295070D3*
X4097757Y7172380D3*
X1259307Y3394130D3*
X5445227Y7011090D3*
X1251687Y2797230D3*
X5214087Y7115230D3*
X10659847Y2893750D3*
X7398487Y8016930D3*
X10649687Y2794690D3*
X7337527Y7973750D3*
X8356067Y8118530D3*
X6710147Y7851830D3*
X10659847Y3289990D3*
X8356067Y8118530D3*
X6773647Y7803570D3*
X10639527Y3389050D3*
X3476727Y7374310D3*
X4124427D3*
X5028667Y7803570D3*
Y7536870D3*
X3372587Y7427650D3*
X4309210Y7315254D3*
X3420847Y7483530D3*
X4289527Y7402250D3*
X6219927Y8263310D3*
X5950687D3*
X7390867Y8199810D3*
X5750027Y8154090D3*
X7296887Y8146470D3*
X5882107Y8250610D3*
X1254227Y2896290D3*
X4228567Y7204130D3*
X6189447Y7209210D3*
X6095467Y7356530D3*
X5991327Y7747690D3*
X2371827Y7811190D3*
X1244067Y3094410D3*
X4157447Y7940730D3*
X5226787Y7699430D3*
X10659847Y3094410D3*
X5531587Y8263310D3*
X6357087Y7816270D3*
X5480787Y8316650D3*
X7243547Y8240450D3*
X7080987Y7750230D3*
X7464527Y7262550D3*
X7243547Y8240450D3*
X5457927Y7694350D3*
X5173447Y7953430D3*
X4548607Y4542210D3*
X6811747Y4692070D3*
X4548607Y3470330D3*
Y4542210D3*
X6811747Y3620190D3*
X5556987Y6967910D3*
X3425927Y7628310D3*
X3667227Y7618150D3*
X5689067Y6536110D3*
X3199867Y1702490D3*
X4830547Y6190670D3*
X4845787Y7069510D3*
X5264887Y7635930D3*
X4619727Y4686990D3*
X6743167Y4537130D3*
X4619727Y3625270D3*
Y4686990D3*
X6743167Y3467790D3*
X5610327Y6881550D3*
X3405607Y7562270D3*
X3611347Y7541950D3*
X5562067Y6398950D3*
X5323307Y7574970D3*
X5201387Y7224450D3*
X4995647Y7305730D3*
X4769587Y7069510D3*
X4797527Y6249090D3*
X3357347Y1755830D3*
X6529807Y7341290D3*
X7070827Y7054270D3*
X5765267Y6584370D3*
X5676370Y6967910D3*
X6406617Y7705780D3*
X6707607Y7539410D3*
X6849847Y7290490D3*
X6260567Y7359070D3*
X6776187Y7290490D3*
X6611087Y7595290D3*
X6443447Y7762930D3*
D43*
X3443707Y5485187D3*
Y5389937D3*
Y5294687D3*
Y5199437D3*
X3519907Y5437564D3*
X3596107Y5389937D3*
X3519907Y5342310D3*
X3596107Y5294687D3*
X3519907Y5247060D3*
X3443707Y3681787D3*
Y3586537D3*
Y3491287D3*
Y3396037D3*
X3519907Y3634164D3*
X3596107Y3586537D3*
X3519907Y3538910D3*
X3596107Y3491287D3*
X3519907Y3443660D3*
X3443707Y2790247D3*
Y2694997D3*
Y2599747D3*
Y2504497D3*
X3519907Y2742624D3*
X3596107Y2694997D3*
X3519907Y2647370D3*
X3596107Y2599747D3*
X3519907Y2552120D3*
X8462747Y6090974D3*
Y6186224D3*
Y6281474D3*
Y6376724D3*
X8386547Y6138597D3*
X8310347Y6186224D3*
X8386547Y6233850D3*
X8310347Y6281474D3*
X8386547Y6329100D3*
X8462747Y5199434D3*
Y5294684D3*
Y5389934D3*
Y5485184D3*
X8386547Y5247057D3*
X8310347Y5294684D3*
X8386547Y5342310D3*
X8310347Y5389934D3*
X8386547Y5437560D3*
X8462747Y3398574D3*
Y3493824D3*
Y3589074D3*
Y3684324D3*
X8386547Y3446197D3*
X8310347Y3493824D3*
X8386547Y3541450D3*
X8310347Y3589074D3*
X8386547Y3636700D3*
X3443707Y6376090D3*
Y6280840D3*
Y6185590D3*
Y6090340D3*
X3519907Y6328467D3*
X3596107Y6280840D3*
X3519907Y6233214D3*
X3596107Y6185590D3*
X3519907Y6137964D3*
X8462747Y2507034D3*
Y2602284D3*
Y2697534D3*
Y2792784D3*
X8386547Y2554657D3*
X8310347Y2602284D3*
X8386547Y2649910D3*
X8310347Y2697534D3*
X8386547Y2745160D3*
X2808073Y6764710D3*
X2919200Y6574207D3*
Y6701210D3*
X2490577Y6574214D3*
Y6701210D3*
X2601703Y6764710D3*
X2705207Y6703750D3*
X2594077Y6508174D3*
X2705207Y6571674D3*
Y6444667D3*
X2816333Y6508174D3*
X2919200Y6180507D3*
Y6434507D3*
Y6307504D3*
X2808073Y6244004D3*
X2490577Y6180507D3*
Y6434510D3*
Y6307504D3*
X2601700Y6244010D3*
X2705207Y6310044D3*
X2490577Y6050967D3*
X2705207Y6177967D3*
Y6050967D3*
X2816327Y5987470D3*
X2594077D3*
X2919200Y6050967D3*
X2800453Y2893750D3*
X2911580Y2703247D3*
Y2830250D3*
X2482957Y2703254D3*
Y2830250D3*
X2594083Y2893750D3*
X2697587Y2832790D3*
X2586457Y2637214D3*
X2697587Y2700714D3*
Y2573707D3*
X2808713Y2637214D3*
X2911580Y2309547D3*
Y2563547D3*
Y2436544D3*
X2800453Y2373044D3*
X2482957Y2309547D3*
Y2563550D3*
Y2436544D3*
X2594080Y2373050D3*
X2697587Y2439084D3*
X2482957Y2180007D3*
X2697587Y2307007D3*
Y2180007D3*
X2808707Y2116510D3*
X2586457D3*
X2911580Y2180007D3*
X2806707Y4071674D3*
X2917833Y3881170D3*
Y4008174D3*
X2489210Y3881177D3*
Y4008174D3*
X2600337Y4071674D3*
X2703840Y4010714D3*
X2592710Y3815137D3*
X2703840Y3878637D3*
Y3751630D3*
X2814967Y3815137D3*
X2917833Y3487470D3*
Y3741470D3*
Y3614467D3*
X2806707Y3550967D3*
X2489210Y3487470D3*
Y3741474D3*
Y3614467D3*
X2600333Y3550974D3*
X2703840Y3617007D3*
X2489210Y3357930D3*
X2703840Y3484930D3*
Y3357930D3*
X2814960Y3294434D3*
X2592710D3*
X2917833Y3357930D3*
X2155827Y3484937D3*
X2266953Y3294434D3*
Y3421437D3*
X1838330Y3294440D3*
X1838227Y3421434D3*
X1949457Y3484937D3*
X2052960Y3423977D3*
X1941830Y3228400D3*
X2052960Y3291900D3*
Y3164894D3*
X2164087Y3228400D3*
X2266953Y2900734D3*
Y3154734D3*
Y3027730D3*
X2155827Y2964230D3*
X1838330Y2900734D3*
Y3154737D3*
Y3027730D3*
X1949453Y2964237D3*
X2052960Y3030270D3*
X1838330Y2771194D3*
X2052960Y2898194D3*
Y2771194D3*
X2164080Y2707697D3*
X1941830D3*
X2266953Y2771194D3*
X2155927Y6177970D3*
X2268320Y5987470D3*
Y6114474D3*
X1839697Y5987477D3*
X1839593Y6114470D3*
X1950823Y6177974D3*
X2054327Y6117014D3*
X1943197Y5921437D3*
X2054327Y5984937D3*
Y5857930D3*
X2165453Y5921437D3*
X2268320Y5593770D3*
Y5847770D3*
Y5720767D3*
X2157193Y5657267D3*
X1839697Y5593770D3*
Y5847774D3*
Y5720767D3*
X1950820Y5657274D3*
X2054327Y5723307D3*
X2801820Y5586787D3*
X2912947Y5396284D3*
X1839697Y5464230D3*
X2912947Y5523287D3*
X2054327Y5591230D3*
Y5464230D3*
X2165447Y5400734D3*
X1943197D3*
X2484323Y5396290D3*
X2268320Y5464230D3*
X2484323Y5523287D3*
X2595450Y5586787D3*
X2698953Y5525827D3*
X2587823Y5330250D3*
X2698953Y5393750D3*
Y5266744D3*
X2810080Y5330250D3*
X2912947Y5002584D3*
Y5256584D3*
Y5129580D3*
X2801820Y5066080D3*
X2484323Y5002584D3*
Y5256587D3*
Y5129580D3*
X2595447Y5066087D3*
X2698953Y5132120D3*
X2484323Y4873044D3*
X2698953Y5000044D3*
Y4873044D3*
X2810073Y4809547D3*
X2587823D3*
X2912947Y4873044D3*
X9102527Y3294437D3*
X8991400Y3484940D3*
Y3357937D3*
X9420023Y3484934D3*
Y3357937D3*
X9308897Y3294437D3*
X9205393Y3355397D3*
X9316523Y3550974D3*
X9205393Y3487474D3*
Y3614480D3*
X9094267Y3550974D3*
X8991400Y3878640D3*
Y3624640D3*
Y3751644D3*
X9102527Y3815144D3*
X9420023Y3878640D3*
Y3624637D3*
Y3751644D3*
X9308900Y3815137D3*
X9205393Y3749104D3*
X9420023Y4008180D3*
X9205393Y3881180D3*
Y4008180D3*
X9094273Y4071677D3*
X9316523D3*
X8991400Y4008180D3*
X9096273Y2116514D3*
X8985147Y2307017D3*
Y2180014D3*
X9413770Y2307010D3*
Y2180014D3*
X9302643Y2116514D3*
X9199140Y2177474D3*
X9310270Y2373050D3*
X9199140Y2309550D3*
Y2436557D3*
X9088013Y2373050D3*
X8985147Y2700717D3*
Y2446717D3*
Y2573720D3*
X9096273Y2637220D3*
X9413770Y2700717D3*
Y2446714D3*
Y2573720D3*
X9302647Y2637214D3*
X9199140Y2571180D3*
X9413770Y2830257D3*
X9199140Y2703257D3*
Y2830257D3*
X9088020Y2893754D3*
X9310270D3*
X8985147Y2830257D3*
X9747153Y2703250D3*
X9636027Y2893754D3*
Y2766750D3*
X10064650Y2893747D3*
X10064753Y2766754D3*
X9953523Y2703250D3*
X9850020Y2764210D3*
X9961150Y2959787D3*
X9850020Y2896287D3*
Y3023294D3*
X9738893Y2959787D3*
X9636027Y3287454D3*
Y3033454D3*
Y3160457D3*
X9747153Y3223957D3*
X10064650Y3287454D3*
Y3033450D3*
Y3160457D3*
X9953527Y3223950D3*
X9850020Y3157917D3*
X10064650Y3416994D3*
X9850020Y3289994D3*
Y3416994D3*
X9738900Y3480490D3*
X9961150D3*
X9636027Y3416994D3*
X9102733Y5986834D3*
X8991607Y6177337D3*
Y6050334D3*
X9420230Y6177330D3*
Y6050334D3*
X9309103Y5986834D3*
X9205600Y6047794D3*
X9316730Y6243370D3*
X9205600Y6179870D3*
Y6306877D3*
X9094473Y6243370D3*
X8991607Y6571037D3*
Y6317037D3*
Y6444040D3*
X9102733Y6507540D3*
X9420230Y6571037D3*
Y6317034D3*
Y6444040D3*
X9309107Y6507534D3*
X9205600Y6441500D3*
X9420230Y6700577D3*
X9205600Y6573577D3*
Y6700577D3*
X9094480Y6764074D3*
X9316730D3*
X8991607Y6700577D3*
X9096480Y4808910D3*
X8985353Y4999414D3*
Y4872410D3*
X9413977Y4999407D3*
Y4872410D3*
X9302850Y4808910D3*
X9199347Y4869870D3*
X9310477Y5065447D3*
X9199347Y5001947D3*
Y5128954D3*
X9088220Y5065447D3*
X8985353Y5393114D3*
Y5139114D3*
Y5266117D3*
X9096480Y5329617D3*
X9413977Y5393114D3*
Y5139110D3*
Y5266117D3*
X9302853Y5329610D3*
X9199347Y5263577D3*
X9413977Y5522654D3*
X9199347Y5395654D3*
Y5522654D3*
X9088227Y5586150D3*
X9310477D3*
X8985353Y5522654D3*
X9747360Y5395647D3*
X9636233Y5586150D3*
Y5459147D3*
X10064857Y5586144D3*
X10064960Y5459150D3*
X9953730Y5395647D3*
X9850227Y5456607D3*
X9961357Y5652184D3*
X9850227Y5588684D3*
Y5715690D3*
X9739100Y5652184D3*
X9636233Y5979850D3*
Y5725850D3*
Y5852854D3*
X9747360Y5916354D3*
X10064857Y5979850D3*
Y5725847D3*
Y5852854D3*
X9953733Y5916347D3*
X9850227Y5850314D3*
X10064857Y6109390D3*
X9850227Y5982390D3*
Y6109390D3*
X9739107Y6172887D3*
X9961357D3*
X9636233Y6109390D3*
D41*
X1508227Y2301930D3*
X1381227D3*
Y2174930D3*
X1508227D3*
X1381227Y2047930D3*
X1508227D3*
Y4133270D3*
X1381227D3*
Y4006270D3*
X1508227D3*
X1381227Y3879270D3*
X1508227D3*
Y4961310D3*
X1381227D3*
Y4834310D3*
X1508227D3*
X1381227Y4707310D3*
X1508227D3*
Y6835830D3*
X1381227D3*
Y6708830D3*
X1508227D3*
X1381227Y6581830D3*
X1508227D3*
X10565867Y2273990D3*
X10438867D3*
Y2146990D3*
X10565867D3*
X10438867Y2019990D3*
X10565867D3*
Y4128190D3*
X10438867D3*
Y4001190D3*
X10565867D3*
X10438867Y3874190D3*
X10565867D3*
X10570947Y4948610D3*
X10443947D3*
Y4821610D3*
X10570947D3*
X10443947Y4694610D3*
X10570947D3*
X10555707Y6812970D3*
X10428707D3*
Y6685970D3*
X10555707D3*
X10428707Y6558970D3*
X10555707D3*
X5191227Y5934130D3*
Y5680130D3*
Y5426130D3*
Y5172130D3*
Y4918130D3*
Y4410130D3*
Y4664130D3*
Y4156130D3*
Y3902130D3*
Y3648130D3*
Y3394130D3*
Y3140130D3*
Y2886130D3*
Y2632130D3*
Y2378130D3*
X4937227D3*
Y3394130D3*
Y3648130D3*
Y4410130D3*
Y4664130D3*
Y5172130D3*
X6969227Y5934130D3*
Y5680130D3*
X5191227Y2124130D3*
X6969227Y5172130D3*
Y4918130D3*
X5445227Y2124130D3*
X6969227Y4410130D3*
Y4156130D3*
Y3902130D3*
X5699227Y2124130D3*
X6969227Y3394130D3*
Y3140130D3*
X6207227Y2124130D3*
X6461227D3*
X6715227D3*
Y2378130D3*
Y2632130D3*
Y2886130D3*
Y3140130D3*
Y3394130D3*
X6461227Y2378130D3*
X5445227D3*
X1442187Y7453050D3*
X2930627Y8250610D3*
X4584167Y8248070D3*
X7477227Y2886130D3*
Y3902130D3*
Y4156130D3*
X7731227D3*
X7477227Y5172130D3*
X4683227Y5680130D3*
Y5934130D3*
X4937227Y6442130D3*
X5191227D3*
X5155667Y6716450D3*
X2976347Y1826950D3*
X4683227Y6696130D3*
X4253967Y6851070D3*
X8229073Y7363214D2*
D19*
X9237460D1*
X8229073Y7300047D2*
X9237460D1*
X8229073Y7236880D2*
X9237460D1*
X8229073Y7173714D2*
X9237460D1*
X8229073Y7110547D2*
X9237460D1*
X8229073Y7047380D2*
X9237460D1*
X8229073Y6984214D2*
X8747193D1*
X8229073Y6921047D2*
X8747320D1*
X8229073Y6857880D2*
X8747443D1*
X8229073Y6794714D2*
X8747567D1*
X8229073Y6731547D2*
X8747690D1*
X8229073Y6668380D2*
X8747813D1*
X7421060Y6605214D2*
X7676747D1*
X8169790D2*
X8747940D1*
X7420690Y6542047D2*
X7739877D1*
X8169790D2*
X8748063D1*
X7420317Y6478880D2*
X7803003D1*
X8169790D2*
X8748187D1*
X7419947Y6415714D2*
X7866257D1*
X8169790D2*
X8748433D1*
X7419573Y6352547D2*
X7886967D1*
X8169790D2*
X8748560D1*
X7419327Y6289380D2*
X7886967D1*
X8169790D2*
X8748683D1*
X7418953Y6226214D2*
X7886967D1*
X8169790D2*
X8748807D1*
X7418580Y6163047D2*
X7886967D1*
X8169790D2*
X8748930D1*
X7418210Y6099880D2*
X7886967D1*
X8169790D2*
X8749053D1*
X7417837Y6036714D2*
X7886967D1*
X8169790D2*
X8749180D1*
X7417463Y5973547D2*
X7886967D1*
X8169790D2*
X8749303D1*
X7417093Y5910380D2*
X7886967D1*
X8169790D2*
X8749427D1*
X7416720Y5847214D2*
X7886967D1*
X8169790D2*
X8749550D1*
X7416350Y5784047D2*
X7886967D1*
X8169790D2*
X8749673D1*
X7415977Y5720880D2*
X7886967D1*
X8169790D2*
X8749800D1*
X7415730Y5657714D2*
X7886967D1*
X8169790D2*
X8750047D1*
X7415357Y5594547D2*
X7886967D1*
X8169790D2*
X8750170D1*
X7414983Y5531380D2*
X7886967D1*
X8169790D2*
X8750297D1*
X7414613Y5468214D2*
X7886967D1*
X8169790D2*
X8750420D1*
X7414240Y5405047D2*
X7886967D1*
X8169790D2*
X8750543D1*
X7413867Y5341880D2*
X7886967D1*
X8169790D2*
X8750667D1*
X7413497Y5278714D2*
X7886967D1*
X8169790D2*
X8750790D1*
X7413123Y5215547D2*
X7886967D1*
X8169790D2*
X8750917D1*
X7412753Y5152380D2*
X7886967D1*
X8169790D2*
X8751040D1*
X7412380Y5089214D2*
X7886967D1*
X8169790D2*
X8751163D1*
X7412133Y5026047D2*
X7886967D1*
X8169790D2*
X8751287D1*
X7411760Y4962880D2*
X7886967D1*
X8169790D2*
X8751410D1*
X7411387Y4899714D2*
X7886967D1*
X8169790D2*
X8751660D1*
X7411017Y4836547D2*
X7886967D1*
X8169790D2*
X8751783D1*
X7410643Y4773380D2*
X7886967D1*
X8169790D2*
X8751907D1*
X7410270Y4710214D2*
X7886967D1*
X8169790D2*
X8752030D1*
X7409900Y4647047D2*
X7886967D1*
X8169790D2*
X8752157D1*
X7409527Y4583880D2*
X7886967D1*
X8169790D2*
X8752280D1*
X7409157Y4520714D2*
X7886967D1*
X8169790D2*
X8752403D1*
X7408783Y4457547D2*
X7886967D1*
X8169790D2*
X8752527D1*
X7408537Y4394380D2*
X7466403D1*
X8169790D2*
X8752650D1*
X8169790Y4331214D2*
X8752777D1*
X8169790Y4268047D2*
X8752900D1*
X7407420Y4204880D2*
X7886967D1*
X8169790D2*
X8753147D1*
X7407047Y4141714D2*
X7886967D1*
X8169790D2*
X8753270D1*
X7406673Y4078547D2*
X7886967D1*
X8169790D2*
X8753397D1*
X7406303Y4015380D2*
X7886967D1*
X8169790D2*
X8753520D1*
X7405930Y3952214D2*
X7886967D1*
X8169790D2*
X8753643D1*
X7405560Y3889047D2*
X7886967D1*
X8169790D2*
X8753767D1*
X7405310Y3825880D2*
X7886967D1*
X8169790D2*
X8753893D1*
X7404940Y3762714D2*
X7886967D1*
X8169790D2*
X8754017D1*
X7404567Y3699547D2*
X7886967D1*
X8169790D2*
X8754140D1*
X7404193Y3636380D2*
X7886967D1*
X8169790D2*
X8754263D1*
X7403823Y3573214D2*
X7886967D1*
X8169790D2*
X8754387D1*
X7403450Y3510047D2*
X7886967D1*
X8169790D2*
X8754513D1*
X7403077Y3446880D2*
X7886967D1*
X8169790D2*
X8754760D1*
X7402707Y3383714D2*
X7886967D1*
X8169790D2*
X8754883D1*
X7402333Y3320547D2*
X7886967D1*
X8169790D2*
X8755007D1*
X7401963Y3257380D2*
X7434060D1*
X8169790D2*
X8755133D1*
X8169790Y3194214D2*
X8755257D1*
X7401343Y3131047D2*
X7464793D1*
X8169790D2*
X8755380D1*
X7400970Y3067880D2*
X7978373D1*
X8169790D2*
X8755503D1*
X7400597Y3004714D2*
X7978373D1*
X8169790D2*
X8755627D1*
X7400227Y2941547D2*
X7978373D1*
X8169790D2*
X8755753D1*
X7399853Y2878380D2*
X7978373D1*
X8169790D2*
X8755877D1*
X7399480Y2815214D2*
X7978373D1*
X8169790D2*
X8756000D1*
X7415977Y2752047D2*
X7978373D1*
X8169790D2*
X8756123D1*
X7479230Y2688880D2*
X7978373D1*
X8169790D2*
X8756373D1*
X7542357Y2625714D2*
X7978373D1*
X8169790D2*
X8756497D1*
X7605483Y2562547D2*
X7978373D1*
X8169790D2*
X8756620D1*
X7668737Y2499380D2*
X7978373D1*
X8169790D2*
X8756743D1*
X7731863Y2436214D2*
X7978373D1*
X8169790D2*
X8756867D1*
X7794993Y2373047D2*
X7981350D1*
X8401343D2*
X8756993D1*
X7858243Y2309880D2*
X8027363D1*
X8413123D2*
X8757117D1*
X7921373Y2246714D2*
X8061840D1*
X8383730D2*
X8757240D1*
X8106647Y2220560D2*
X8090453Y2228690D1*
X8076523Y2238814D1*
X8064350Y2250987D1*
X8054227Y2264917D1*
X8046410Y2280260D1*
X8041090Y2296634D1*
X8039627Y2303997D1*
X8006140Y2337844D1*
X7997893Y2349194D1*
X7991523Y2361694D1*
X7987190Y2375037D1*
X7984993Y2388897D1*
X7984720Y2618160D1*
Y3119340D1*
X7508313Y3119577D1*
X7494453Y3121774D1*
X7481110Y3126107D1*
X7468610Y3132477D1*
X7457260Y3140724D1*
X7447340Y3150644D1*
X7439093Y3161994D1*
X7432723Y3174494D1*
X7428390Y3187837D1*
X7426193Y3201697D1*
Y3215724D1*
X7428390Y3229584D1*
X7432723Y3242927D1*
X7439093Y3255427D1*
X7447340Y3266777D1*
X7457260Y3276697D1*
X7468610Y3284944D1*
X7481110Y3291314D1*
X7494453Y3295647D1*
X7508313Y3297844D1*
X7893227Y3298117D1*
X7893280Y4219130D1*
X7490533Y4219397D1*
X7476673Y4221594D1*
X7463330Y4225927D1*
X7450830Y4232297D1*
X7439480Y4240544D1*
X7429560Y4250464D1*
X7421313Y4261814D1*
X7414943Y4274314D1*
X7410610Y4287657D1*
X7408413Y4301517D1*
Y4315544D1*
X7410610Y4329404D1*
X7414943Y4342747D1*
X7421313Y4355247D1*
X7429560Y4366597D1*
X7439480Y4376517D1*
X7450830Y4384764D1*
X7463330Y4391134D1*
X7476673Y4395467D1*
X7490533Y4397664D1*
X7893307Y4397937D1*
X7893280Y6394977D1*
X7664527Y6623687D1*
X7414817Y6623560D1*
X7392890Y2768850D1*
X7940933Y2220847D1*
X8106383Y2220597D1*
X8166040Y2430410D2*
X8181693Y2426607D1*
X8197603Y2420020D1*
X8212283Y2411024D1*
X8222733Y2402284D1*
X8240453Y2415810D1*
X8255797Y2423627D1*
X8272170Y2428947D1*
X8289177Y2431640D1*
X8306397D1*
X8323403Y2428947D1*
X8339777Y2423627D1*
X8355120Y2415810D1*
X8369050Y2405687D1*
X8381223Y2393514D1*
X8391347Y2379584D1*
X8399163Y2364240D1*
X8404483Y2347867D1*
X8407177Y2330860D1*
Y2313640D1*
X8404483Y2296634D1*
X8399163Y2280260D1*
X8391347Y2264917D1*
X8381223Y2250987D1*
X8369050Y2238814D1*
X8355650Y2229047D1*
X8351763Y2222007D1*
X8373900Y2220124D1*
X8763707Y2219437D1*
X8753957Y6960110D1*
X8757007Y6969564D1*
X8762827Y6977614D1*
X8770853Y6983470D1*
X8780293Y6986560D1*
X8817077Y6986960D1*
X9243797D1*
Y7426380D1*
X8222717D1*
X8222327Y6650524D1*
X8219257Y6641077D1*
X8213417Y6633040D1*
X8205380Y6627200D1*
X8195933Y6624130D1*
X8163557Y6623740D1*
X8163533Y2432774D1*
X9585490Y6707894D2*
X10251073D1*
X9585613Y6644727D2*
X10251073D1*
X9585737Y6581560D2*
X10251197D1*
X9585737Y6518394D2*
X10251320D1*
X9585860Y6455227D2*
X10251320D1*
X9585983Y6392060D2*
X10251443D1*
X9585983Y6328894D2*
X10251443D1*
X9586110Y6265727D2*
X10251570D1*
X9586233Y6202560D2*
X10251693D1*
X9586233Y6139394D2*
X10251693D1*
X9586357Y6076227D2*
X10251817D1*
X9586357Y6013060D2*
X10251940D1*
X9586480Y5949894D2*
X10251940D1*
X9586603Y5886727D2*
X10252067D1*
X9586603Y5823560D2*
X10252190D1*
X9586730Y5760394D2*
X10252190D1*
X9586853Y5697227D2*
X10252313D1*
X9586853Y5634060D2*
X10252313D1*
X9586977Y5570894D2*
X10252437D1*
X9587100Y5507727D2*
X10252560D1*
X9587100Y5444560D2*
X10252560D1*
X9587227Y5381394D2*
X10252687D1*
X9587350Y5318227D2*
X10252810D1*
X9587350Y5255060D2*
X10252810D1*
X9587473Y5191894D2*
X10252933D1*
X9587473Y5128727D2*
X10253057D1*
X9587597Y5065560D2*
X10253057D1*
X9587720Y5002394D2*
X10253180D1*
X9587720Y4939227D2*
X10253180D1*
X9587847Y4876060D2*
X10253307D1*
X9587970Y4812894D2*
X10253430D1*
X9579117Y6770977D2*
X9581617Y4807640D1*
X10259900D1*
X10257257Y6771060D1*
X9578973D1*
X8845690Y5671574D2*
X9491180D1*
X10348110D2*
X10594617D1*
X8845813Y5608407D2*
X9491180D1*
X10348110D2*
X10594617D1*
X8845937Y5545240D2*
X9491307D1*
X10348233D2*
X10594617D1*
X8846060Y5482074D2*
X9491307D1*
X10348233D2*
X10594617D1*
X8846183Y5418907D2*
X9491430D1*
X10348357D2*
X10594617D1*
X8846310Y5355740D2*
X9491553D1*
X10348480D2*
X10594617D1*
X8846433Y5292574D2*
X9491553D1*
X10348480D2*
X10594617D1*
X8846680Y5229407D2*
X9491677D1*
X10348603D2*
X10594617D1*
X8846807Y5166240D2*
X9491800D1*
X10348730D2*
X10594617D1*
X8846930Y5103074D2*
X9491800D1*
X10348730D2*
X10594617D1*
X8847053Y5039907D2*
X9491927D1*
X10348853D2*
X10594617D1*
X8847177Y4976740D2*
X9492050D1*
X10348977D2*
X10594617D1*
X8847300Y4913574D2*
X9492050D1*
X10348977D2*
X10594617D1*
X8847427Y4850407D2*
X9492173D1*
X10349100D2*
X10594617D1*
X8847550Y4787240D2*
X9492173D1*
X10349100D2*
X10594617D1*
X8847673Y4724074D2*
X10594617D1*
X8847797Y4660907D2*
X10594617D1*
X8847920Y4597740D2*
X10594617D1*
X8848170Y4534574D2*
X10594617D1*
X8839247Y5730344D2*
X8841910Y4479197D1*
X10601023Y4479217D1*
X10600920Y5730340D1*
X10341627Y5730424D1*
X10342233Y4767927D1*
X10338973Y4756314D1*
X10333093Y4745784D1*
X10324917Y4736917D1*
X10314897Y4730204D1*
X10303587Y4726014D1*
X10291547Y4724584D1*
X9541840Y4725214D1*
X9530233Y4728487D1*
X9519710Y4734380D1*
X9510853Y4742567D1*
X9504150Y4752597D1*
X9499977Y4763914D1*
X9498560Y4775827D1*
X9497363Y5730434D1*
X8839207Y5730424D1*
X8843143Y6857754D2*
X10594553D1*
X8843267Y6794587D2*
X9489753D1*
X10346680D2*
X10594553D1*
X8843393Y6731420D2*
X9489753D1*
X10346680D2*
X10594553D1*
X8843517Y6668254D2*
X9489877D1*
X10346803D2*
X10594553D1*
X8843640Y6605087D2*
X9490000D1*
X10346927D2*
X10594553D1*
X8843887Y6541920D2*
X9490000D1*
X10346927D2*
X10594553D1*
X8844013Y6478754D2*
X9490123D1*
X10347053D2*
X10594553D1*
X8844137Y6415587D2*
X9490250D1*
X10347177D2*
X10594553D1*
X8844260Y6352420D2*
X9490250D1*
X10347177D2*
X10594553D1*
X8844383Y6289254D2*
X9490373D1*
X10347300D2*
X10594553D1*
X8844507Y6226087D2*
X9490373D1*
X10347300D2*
X10594553D1*
X8844633Y6162920D2*
X9490497D1*
X10347423D2*
X10594553D1*
X8844757Y6099754D2*
X9490620D1*
X10347547D2*
X10594553D1*
X8844880Y6036587D2*
X9490620D1*
X10347547D2*
X10594553D1*
X8845003Y5973420D2*
X9490743D1*
X10347673D2*
X10594553D1*
X8845127Y5910254D2*
X9490870D1*
X10347797D2*
X10594553D1*
X8845253Y5847087D2*
X9490870D1*
X10347797D2*
X10594553D1*
X9243797Y6903904D2*
X8836627D1*
X8839067Y5813437D1*
X9497403Y5813480D1*
X9496173Y6806770D1*
X9498510Y6818604D1*
X9503547Y6829564D1*
X9511000Y6839044D1*
X9520463Y6846524D1*
X9531410Y6851587D1*
X9543237Y6853954D1*
X10289007Y6854117D1*
X10300983Y6852700D1*
X10312300Y6848527D1*
X10322330Y6841827D1*
X10330517Y6832967D1*
X10336410Y6822444D1*
X10339683Y6810837D1*
X10340313Y6802874D1*
X10341553Y5813540D1*
X10600967Y5813480D1*
X10600920Y6920964D1*
X9313720Y6920920D1*
X9302357Y6911464D1*
X9291403Y6906414D1*
X9279573Y6904060D1*
X9243797Y6903904D1*
X9595467Y3995174D2*
X10260927D1*
X9595340Y3932007D2*
X10260927D1*
X9595340Y3868840D2*
X10260800D1*
X9595217Y3805674D2*
X10260677D1*
X9595093Y3742507D2*
X10260677D1*
X9595093Y3679340D2*
X10260553D1*
X9594970Y3616174D2*
X10260430D1*
X9594970Y3553007D2*
X10260430D1*
X9594847Y3489840D2*
X10260307D1*
X9594720Y3426674D2*
X10260180D1*
X9594720Y3363507D2*
X10260180D1*
X9594597Y3300340D2*
X10260057D1*
X9594473Y3237174D2*
X10260057D1*
X9594473Y3174007D2*
X10259933D1*
X9594350Y3110840D2*
X10259810D1*
X9594223Y3047674D2*
X10259810D1*
X9594223Y2984507D2*
X10259687D1*
X9594100Y2921340D2*
X10259560D1*
X9594100Y2858174D2*
X10259560D1*
X9593977Y2795007D2*
X10259437D1*
X9593853Y2731840D2*
X10259313D1*
X9593853Y2668674D2*
X10259313D1*
X9593730Y2605507D2*
X10259190D1*
X9593603Y2542340D2*
X10259190D1*
X9593603Y2479174D2*
X10259063D1*
X9593480Y2416007D2*
X10258940D1*
X9593357Y2352840D2*
X10258940D1*
X9593357Y2289674D2*
X10258817D1*
X9593233Y2226507D2*
X10258693D1*
X9593233Y2163340D2*
X10258693D1*
X9593110Y2100174D2*
X10258570D1*
X9589197Y4058424D2*
X9586737Y2094887D1*
X10264917Y2094960D1*
X10267377Y4058374D1*
X9589133Y4058340D1*
X8848537Y4332994D2*
X10594613D1*
X8848660Y4269827D2*
X10594613D1*
X8848783Y4206660D2*
X10594613D1*
X8848910Y4143494D2*
X10594613D1*
X8849033Y4080327D2*
X9499857D1*
X10356787D2*
X10594613D1*
X8849157Y4017160D2*
X9499733D1*
X10356660D2*
X10594613D1*
X8849403Y3953994D2*
X9499733D1*
X10356660D2*
X10594613D1*
X8849530Y3890827D2*
X9499610D1*
X10356537D2*
X10594613D1*
X8849653Y3827660D2*
X9499487D1*
X10356413D2*
X10594613D1*
X8849777Y3764494D2*
X9499487D1*
X10356413D2*
X10594613D1*
X8849900Y3701327D2*
X9499363D1*
X10356290D2*
X10594613D1*
X8850023Y3638160D2*
X9499237D1*
X10356167D2*
X10594613D1*
X8850150Y3574994D2*
X9499237D1*
X10356167D2*
X10594613D1*
X8850273Y3511827D2*
X9499113D1*
X10356040D2*
X10594613D1*
X8850397Y3448660D2*
X9499113D1*
X10356040D2*
X10584940D1*
X8850520Y3385494D2*
X9498990D1*
X10355917D2*
X10556537D1*
X8850643Y3322327D2*
X9498867D1*
X10355793D2*
X10583947D1*
X8850770Y3259160D2*
X9498867D1*
X10355793D2*
X10583203D1*
X8851017Y3195994D2*
X9498743D1*
X10355670D2*
X10589527D1*
X8851140Y3132827D2*
X9498617D1*
X10355547D2*
X10587047D1*
X8842090Y4396100D2*
X8844783Y3131314D1*
X9505023Y3131240D1*
X9506343Y4094180D1*
X9508710Y4106007D1*
X9513773Y4116954D1*
X9521253Y4126417D1*
X9530733Y4133870D1*
X9541693Y4138907D1*
X9553527Y4141244D1*
X10299167Y4141397D1*
X10311143Y4139980D1*
X10322460Y4135807D1*
X10332490Y4129104D1*
X10340677Y4120247D1*
X10346570Y4109724D1*
X10349843Y4098117D1*
X10350473Y4090027D1*
X10349273Y3131200D1*
X10592463Y3131240D1*
X10595867Y3136624D1*
X10596627Y3213644D1*
X10600710Y3228124D1*
X10603343Y3233630D1*
X10601517Y3240174D1*
X10591500Y3255167D1*
X10585257Y3272084D1*
X10583140Y3289990D1*
X10585257Y3307897D1*
X10591500Y3324814D1*
X10593213Y3327874D1*
X10581197Y3339234D1*
X10571180Y3354227D1*
X10564937Y3371144D1*
X10562820Y3389050D1*
X10564937Y3406957D1*
X10571180Y3423874D1*
X10581197Y3438867D1*
X10594440Y3451107D1*
X10600947Y3455294D1*
X10600920Y4396097D1*
X8841937Y4396160D1*
X8851383Y2989334D2*
X9498490D1*
X10355417D2*
X10589523D1*
X8851507Y2926167D2*
X9498363D1*
X10355293D2*
X10583943D1*
X8851633Y2863000D2*
X9498363D1*
X10355293D2*
X10583197D1*
X8851757Y2799834D2*
X9498240D1*
X10355167D2*
X10566827D1*
X10751670D2*
X10799493D1*
X8851880Y2736667D2*
X9498117D1*
X10355043D2*
X10593120D1*
X10706153D2*
X10799493D1*
X8852127Y2673500D2*
X9498117D1*
X10355043D2*
X10799493D1*
X8852253Y2610334D2*
X9497993D1*
X10354920D2*
X10799493D1*
X8852377Y2547167D2*
X9497870D1*
X10354797D2*
X10799493D1*
X8852500Y2484000D2*
X9497870D1*
X10354797D2*
X10799493D1*
X8852623Y2420834D2*
X9497743D1*
X10354673D2*
X10799493D1*
X8852747Y2357667D2*
X9497743D1*
X10354673D2*
X10799493D1*
X8852873Y2294500D2*
X9497620D1*
X10354547D2*
X10799493D1*
X8852997Y2231334D2*
X9497497D1*
X10354423D2*
X10799493D1*
X8849277Y2168167D2*
X9497497D1*
X10354423D2*
X10799493D1*
X8833587Y2105000D2*
X9497373D1*
X10354300D2*
X10799493D1*
X8833587Y2041834D2*
X9501960D1*
X10349587D2*
X10799493D1*
X8833587Y1978667D2*
X10799493D1*
X8844960Y3048217D2*
X8846180Y2179714D1*
X8842930Y2168097D1*
X8837060Y2157560D1*
X8827940Y2147934D1*
X8827237Y2100000D1*
Y1917067D1*
X10805897Y1919660D1*
Y2860377D1*
X10724887Y2779367D1*
X10720557Y2765337D1*
X10711743Y2749604D1*
X10699503Y2736360D1*
X10684510Y2726344D1*
X10667593Y2720100D1*
X10649687Y2717984D1*
X10631780Y2720100D1*
X10614863Y2726344D1*
X10599870Y2736360D1*
X10587630Y2749604D1*
X10578817Y2765337D1*
X10573923Y2782690D1*
X10573217Y2800710D1*
X10576733Y2818394D1*
X10584283Y2834770D1*
X10595447Y2848930D1*
X10596743Y2850130D1*
X10588977Y2864397D1*
X10584083Y2881750D1*
X10583377Y2899770D1*
X10586893Y2917454D1*
X10594443Y2933830D1*
X10595867Y2935964D1*
X10596627Y3028224D1*
X10601097Y3043544D1*
X10600710Y3042704D1*
X10601097Y3043544D1*
X10349213Y3044770D1*
X10347770Y2059080D1*
X10345403Y2047254D1*
X10340340Y2036307D1*
X10332860Y2026844D1*
X10323380Y2019390D1*
X10312420Y2014354D1*
X10300587Y2012017D1*
X9554947Y2011864D1*
X9542970Y2013280D1*
X9531653Y2017454D1*
X9521623Y2024157D1*
X9513437Y2033014D1*
X9507543Y2043537D1*
X9504270Y2055144D1*
X9503640Y2063234D1*
X9504873Y3048104D1*
X8844843Y3048184D1*
X3214990Y6888234D2*
X4300270D1*
X5223673D2*
X5424913D1*
X3214867Y6825067D2*
X5424913D1*
X3214743Y6761900D2*
X5424913D1*
X3214617Y6698734D2*
X5424913D1*
X3214493Y6635567D2*
X5424913D1*
X3214493Y6572400D2*
X5424913D1*
X3214370Y6509234D2*
X5420573D1*
X3214247Y6446067D2*
X5357447D1*
X3214123Y6382900D2*
X5294193D1*
X3213997Y6319734D2*
X4761263D1*
X4833743D2*
X5231067D1*
X3213997Y6256567D2*
X4606607D1*
X4880253D2*
X5167937D1*
X3213873Y6193400D2*
X4543357D1*
X4913617D2*
X5104810D1*
X3213750Y6130234D2*
X4480227D1*
X4914237D2*
X5024940D1*
X5364813D2*
X5424913D1*
X3213627Y6067067D2*
X4417100D1*
X4904067D2*
X5037217D1*
X5301560D2*
X5424913D1*
X3213503Y6003900D2*
X4353973D1*
X4751143D2*
X4986367D1*
X5238433D2*
X5424913D1*
X3213503Y5940734D2*
X4290720D1*
X4688017D2*
X4923240D1*
X5175303D2*
X5424913D1*
X3213377Y5877567D2*
X4241233D1*
X4624763D2*
X4859987D1*
X5112053D2*
X5424913D1*
X3213253Y5814400D2*
X4239497D1*
X4561637D2*
X4796860D1*
X5048923D2*
X5424913D1*
X3213130Y5751234D2*
X4239497D1*
X4512277D2*
X4733730D1*
X4985797D2*
X5424913D1*
X3213007Y5688067D2*
X4239497D1*
X4512277D2*
X4670480D1*
X4922670D2*
X5424913D1*
X3213007Y5624900D2*
X4239497D1*
X4512277D2*
X4607350D1*
X4859417D2*
X5424913D1*
X3212883Y5561734D2*
X4239497D1*
X4512277D2*
X4544093D1*
X4796290D2*
X5424913D1*
X3212757Y5498567D2*
X4239497D1*
X4733160D2*
X5424913D1*
X3212633Y5435400D2*
X4239497D1*
X4690000D2*
X5424913D1*
X3212510Y5372234D2*
X4239497D1*
X4690000D2*
X5424913D1*
X3212387Y5309067D2*
X4239497D1*
X4690000D2*
X5424913D1*
X3212387Y5245900D2*
X4239497D1*
X4690000D2*
X5424913D1*
X3212260Y5182734D2*
X4239497D1*
X4690000D2*
X5424913D1*
X3212137Y5119567D2*
X4239497D1*
X4690000D2*
X5424913D1*
X3212013Y5056400D2*
X4239497D1*
X4690000D2*
X5424913D1*
X3211890Y4993234D2*
X4239497D1*
X4690000D2*
X5424913D1*
X3211890Y4930067D2*
X4239497D1*
X4690000D2*
X5424913D1*
X3211767Y4866900D2*
X4239497D1*
X4690000D2*
X5424913D1*
X3211640Y4803734D2*
X4239497D1*
X4690000D2*
X5424913D1*
X3211517Y4740567D2*
X4239497D1*
X4690000D2*
X5424913D1*
X3211393Y4677400D2*
X4239497D1*
X4702157D2*
X5424913D1*
X3211393Y4614234D2*
X4239497D1*
X4690000D2*
X5424913D1*
X3211270Y4551067D2*
X4239497D1*
X4690000D2*
X5424913D1*
X3211147Y4487900D2*
X4239497D1*
X4690000D2*
X5424913D1*
X3211020Y4424734D2*
X4239497D1*
X4690000D2*
X5424913D1*
X3210897Y4361567D2*
X4239497D1*
X4690000D2*
X5424913D1*
X3210897Y4298400D2*
X4239497D1*
X4690000D2*
X5424913D1*
X3210773Y4235234D2*
X4239497D1*
X4690000D2*
X5424913D1*
X3210650Y4172067D2*
X4239497D1*
X4690000D2*
X5424913D1*
X3210527Y4108900D2*
X4239497D1*
X4690000D2*
X5424913D1*
X3210400Y4045734D2*
X4239497D1*
X4690000D2*
X5424913D1*
X3210277Y3982567D2*
X4239497D1*
X4690000D2*
X5424913D1*
X3210277Y3919400D2*
X4239497D1*
X4690000D2*
X5424913D1*
X3210153Y3856234D2*
X4239497D1*
X4690000D2*
X5424913D1*
X3210030Y3793067D2*
X4239497D1*
X4690000D2*
X5424913D1*
X3209907Y3729900D2*
X4239497D1*
X4690000D2*
X5424913D1*
X3209780Y3666734D2*
X4239497D1*
X4690620D2*
X5424913D1*
X3209780Y3603567D2*
X4239497D1*
X4699673D2*
X5424913D1*
X3209657Y3540400D2*
X4239497D1*
X4618937D2*
X5424913D1*
X3209533Y3477234D2*
X4239497D1*
X4631337D2*
X5424913D1*
X3209410Y3414067D2*
X4239497D1*
X4607153D2*
X5424913D1*
X3209287Y3350900D2*
X4239497D1*
X4512277D2*
X5424913D1*
X3209287Y3287734D2*
X4239497D1*
X4512277D2*
X5424913D1*
X3209160Y3224567D2*
X4239497D1*
X4512277D2*
X5424913D1*
X3209037Y3161400D2*
X4239497D1*
X4512277D2*
X5424913D1*
X3208913Y3098234D2*
X4239497D1*
X4512277D2*
X5424913D1*
X3208790Y3035067D2*
X4239497D1*
X4512277D2*
X5424913D1*
X3208790Y2971900D2*
X4239497D1*
X4512277D2*
X5424913D1*
X3208663Y2908734D2*
X4239497D1*
X4512277D2*
X5424913D1*
X3208540Y2845567D2*
X4239497D1*
X4512277D2*
X5424913D1*
X3208417Y2782400D2*
X4239497D1*
X4512277D2*
X5424913D1*
X3208293Y2719234D2*
X4239497D1*
X4512277D2*
X5424913D1*
X3208170Y2656067D2*
X4239497D1*
X4512277D2*
X5424913D1*
X3208170Y2592900D2*
X4239497D1*
X4512277D2*
X5424913D1*
X3208043Y2529734D2*
X4209733D1*
X4512277D2*
X5424913D1*
X3207920Y2466567D2*
X4146480D1*
X4510413D2*
X5424913D1*
X3207797Y2403400D2*
X4083353D1*
X4467873D2*
X5424913D1*
X3207673Y2340234D2*
X4020223D1*
X4404747D2*
X5424913D1*
X3207673Y2277067D2*
X3956973D1*
X4341493D2*
X5424913D1*
X3578380Y2213900D2*
X3893843D1*
X4278367D2*
X5424913D1*
X4717517Y6302937D2*
X4743287Y6303330D1*
X4757447Y6314494D1*
X4773823Y6322044D1*
X4791507Y6325560D1*
X4809527Y6324854D1*
X4826880Y6319960D1*
X4842613Y6311147D1*
X4855857Y6298907D1*
X4865873Y6283914D1*
X4872117Y6266997D1*
X4874047Y6253864D1*
X4884787Y6244910D1*
X4895950Y6230750D1*
X4903500Y6214374D1*
X4907017Y6196690D1*
X4906310Y6178670D1*
X4901417Y6161317D1*
X4898560Y6155250D1*
X4905420Y6139560D1*
X4908693Y6125917D1*
X4909793Y6111930D1*
X4908693Y6097944D1*
X4905420Y6084300D1*
X4900050Y6071340D1*
X4892720Y6059377D1*
X4883607Y6048710D1*
X4872940Y6039597D1*
X4860977Y6032267D1*
X4848017Y6026897D1*
X4834373Y6023624D1*
X4820387Y6022524D1*
X4763460D1*
X4505927Y5765007D1*
X4505933Y5517167D1*
X5049090Y6060314D1*
X5040380Y6071850D1*
X5032830Y6088227D1*
X5029313Y6105910D1*
X5030020Y6123930D1*
X5034913Y6141284D1*
X5043727Y6157017D1*
X5055967Y6170260D1*
X5070960Y6180277D1*
X5087877Y6186520D1*
X5106323Y6188617D1*
X5431337Y6513684D1*
X5431257Y6935600D1*
X5415873Y6940220D1*
X5403953Y6946484D1*
X5275787Y6946737D1*
X5208530Y6880567D1*
X5195400Y6873214D1*
X5180920Y6869130D1*
X5170907Y6868344D1*
X4343013Y6869130D1*
X4328533Y6873214D1*
X4315403Y6880567D1*
X4307767Y6887090D1*
X4245763Y6949094D1*
X3208707Y6951350D1*
X3201763Y2221280D1*
X3893800Y2207487D1*
X4245843Y2559590D1*
X4246037Y5868034D1*
X4248970Y5882790D1*
X4255270Y5896454D1*
X4265207Y5908844D1*
X4644197Y6287604D1*
X4656707Y6295964D1*
X4670823Y6301170D1*
X4686610Y6302907D1*
X4717517Y6302937D1*
X4612613Y3548907D2*
Y3512690D1*
X4619477Y3499684D1*
X4624370Y3482330D1*
X4625077Y3464310D1*
X4621560Y3446627D1*
X4614010Y3430250D1*
X4602847Y3416090D1*
X4588687Y3404927D1*
X4572310Y3397377D1*
X4554627Y3393860D1*
X4536607Y3394567D1*
X4519253Y3399460D1*
X4505887Y3406690D1*
X4505660Y2477797D1*
X4503463Y2463937D1*
X4499130Y2450594D1*
X4492760Y2438094D1*
X4484513Y2426744D1*
X4322593Y2264434D1*
X4258310Y2200154D1*
X5431387Y2176837D1*
X5431257Y6203117D1*
X4683620Y5455380D1*
X4683733Y4729314D1*
X4690597Y4716344D1*
X4695490Y4698990D1*
X4696197Y4680970D1*
X4692680Y4663287D1*
X4685130Y4646910D1*
X4683707Y4644777D1*
X4683733Y3667640D1*
X4690597Y3654624D1*
X4695490Y3637270D1*
X4696197Y3619250D1*
X4692680Y3601567D1*
X4685130Y3585190D1*
X4673967Y3571030D1*
X4659807Y3559867D1*
X4643430Y3552317D1*
X4625747Y3548800D1*
X4612563Y3548934D1*
X1713847Y6710434D2*
X2379307D1*
X1713720Y6647267D2*
X2379307D1*
X1713720Y6584100D2*
X2379180D1*
X1713597Y6520934D2*
X2379057D1*
X1713473Y6457767D2*
X2379057D1*
X1713473Y6394600D2*
X2378933D1*
X1713350Y6331434D2*
X2378810D1*
X1713350Y6268267D2*
X2378810D1*
X1713227Y6205100D2*
X2378687D1*
X1713100Y6141934D2*
X2378560D1*
X1713100Y6078767D2*
X2378560D1*
X1712977Y6015600D2*
X2378437D1*
X1712853Y5952434D2*
X2378437D1*
X1712853Y5889267D2*
X2378313D1*
X1712730Y5826100D2*
X2378190D1*
X1712603Y5762934D2*
X2378190D1*
X1712603Y5699767D2*
X2378067D1*
X1712480Y5636600D2*
X2377940D1*
X1712480Y5573434D2*
X2377940D1*
X1712357Y5510267D2*
X2377817D1*
X1712233Y5447100D2*
X2377693D1*
X1712233Y5383934D2*
X2377693D1*
X1712110Y5320767D2*
X2377570D1*
X1711983Y5257600D2*
X2377570D1*
X1711983Y5194434D2*
X2377443D1*
X1711860Y5131267D2*
X2377320D1*
X1711737Y5068100D2*
X2377320D1*
X1711737Y5004934D2*
X2377197D1*
X1711613Y4941767D2*
X2377073D1*
X1711613Y4878600D2*
X2377073D1*
X1711490Y4815434D2*
X2376950D1*
X2383297Y4810097D2*
X2385757Y6773634D1*
X1707577Y6773560D1*
X1705117Y4810147D1*
X2383360Y4810180D1*
X1311790Y5674114D2*
X1616840D1*
X2473767D2*
X3117273D1*
X1311790Y5610947D2*
X1616713D1*
X2473643D2*
X3117150D1*
X1311790Y5547780D2*
X1616713D1*
X2473643D2*
X3117150D1*
X1311790Y5484614D2*
X1616590D1*
X2473520D2*
X3117027D1*
X1311790Y5421447D2*
X1616467D1*
X2473393D2*
X3116903D1*
X1311790Y5358280D2*
X1616467D1*
X2473393D2*
X3116780D1*
X1311790Y5295114D2*
X1616343D1*
X2473270D2*
X3116653D1*
X1311790Y5231947D2*
X1616220D1*
X2473147D2*
X3116653D1*
X1311790Y5168780D2*
X1616220D1*
X2473147D2*
X3116530D1*
X1311790Y5105614D2*
X1616093D1*
X2473023D2*
X3116407D1*
X1311790Y5042447D2*
X1615970D1*
X2473023D2*
X3116283D1*
X1311790Y4979280D2*
X1615970D1*
X2472897D2*
X3116157D1*
X1311790Y4916114D2*
X1615847D1*
X2472773D2*
X3116033D1*
X1311790Y4852947D2*
X1615847D1*
X2472773D2*
X3116033D1*
X1311790Y4789780D2*
X1615723D1*
X2472650D2*
X3115910D1*
X1311790Y4726614D2*
X3115787D1*
X1311790Y4663447D2*
X3115663D1*
X1311790Y4600280D2*
X3115537D1*
X1311790Y4537114D2*
X3115537D1*
X3121723Y4481830D2*
X3123710Y5732977D1*
X2467470Y5732964D1*
X2465673Y4770340D1*
X2462383Y4758737D1*
X2456477Y4748220D1*
X2448280Y4739374D1*
X2438243Y4732687D1*
X2426923Y4728524D1*
X2415007Y4727124D1*
X1665300Y4727754D1*
X1653693Y4731027D1*
X1643170Y4736920D1*
X1634313Y4745107D1*
X1627610Y4755137D1*
X1623437Y4766454D1*
X1622020Y4778494D1*
X1623213Y5733104D1*
X1305617Y5732964D1*
X1305533Y4481674D1*
X3121697Y4481757D1*
X1311910Y6885694D2*
X3119253D1*
X1311910Y6822527D2*
X1621173D1*
X2472150D2*
X3119130D1*
X1311910Y6759360D2*
X1618197D1*
X2475127D2*
X3119007D1*
X1311910Y6696194D2*
X1618073D1*
X2475003D2*
X3118883D1*
X1311910Y6633027D2*
X1618073D1*
X2475003D2*
X3118883D1*
X1311910Y6569860D2*
X1617950D1*
X2474877D2*
X3118757D1*
X1311910Y6506694D2*
X1617827D1*
X2474753D2*
X3118633D1*
X1311910Y6443527D2*
X1617827D1*
X2474753D2*
X3118510D1*
X1311910Y6380360D2*
X1617703D1*
X2474630D2*
X3118387D1*
X1311910Y6317194D2*
X1617577D1*
X2474507D2*
X3118263D1*
X1311910Y6254027D2*
X1617577D1*
X2474507D2*
X3118263D1*
X1311910Y6190860D2*
X1617453D1*
X2474380D2*
X3118137D1*
X1311910Y6127694D2*
X1617453D1*
X2474380D2*
X3118013D1*
X1311910Y6064527D2*
X1617330D1*
X2474257D2*
X3117890D1*
X1311910Y6001360D2*
X1617207D1*
X2474133D2*
X3117767D1*
X1311910Y5938194D2*
X1617207D1*
X2474133D2*
X3117767D1*
X1311910Y5875027D2*
X1617083D1*
X2474010D2*
X3117640D1*
X3123843Y5816074D2*
X3125643Y6948900D1*
X1310390Y6948860D1*
X1305533Y6938700D1*
Y5815917D1*
X1623247Y5816020D1*
X1624723Y6809440D1*
X1627090Y6821267D1*
X1632153Y6832214D1*
X1639633Y6841677D1*
X1649113Y6849130D1*
X1660073Y6854167D1*
X1671907Y6856504D1*
X2417547Y6856657D1*
X2429523Y6855240D1*
X2440840Y6851067D1*
X2450870Y6844364D1*
X2459057Y6835507D1*
X2464950Y6824984D1*
X2468223Y6813377D1*
X2468853Y6805287D1*
X2467613Y5815950D1*
X3123930Y5816020D1*
X1703870Y3997714D2*
X2369453D1*
X1703993Y3934547D2*
X2369453D1*
X1704117Y3871380D2*
X2369577D1*
X1704117Y3808214D2*
X2369700D1*
X1704240Y3745047D2*
X2369700D1*
X1704363Y3681880D2*
X2369823D1*
X1704363Y3618714D2*
X2369823D1*
X1704490Y3555547D2*
X2369950D1*
X1704613Y3492380D2*
X2370073D1*
X1704613Y3429214D2*
X2370073D1*
X1704737Y3366047D2*
X2370197D1*
X1704737Y3302880D2*
X2370320D1*
X1704860Y3239714D2*
X2370320D1*
X1704983Y3176547D2*
X2370447D1*
X1704983Y3113380D2*
X2370570D1*
X1705110Y3050214D2*
X2370570D1*
X1705233Y2987047D2*
X2370693D1*
X1705233Y2923880D2*
X2370693D1*
X1705357Y2860714D2*
X2370817D1*
X1705480Y2797547D2*
X2370940D1*
X1705480Y2734380D2*
X2370940D1*
X1705607Y2671214D2*
X2371067D1*
X1705730Y2608047D2*
X2371190D1*
X1705730Y2544880D2*
X2371190D1*
X1705853Y2481714D2*
X2371313D1*
X1705853Y2418547D2*
X2371437D1*
X1705977Y2355380D2*
X2371437D1*
X1706100Y2292214D2*
X2371560D1*
X1706100Y2229047D2*
X2371560D1*
X1706227Y2165880D2*
X2371687D1*
X1706350Y2102714D2*
X2371810D1*
X2378137Y2097544D2*
X2375637Y4060880D1*
X1697353D1*
X1699997Y2097460D1*
X2378280D1*
X1311857Y4335534D2*
X3115230D1*
X1311857Y4272367D2*
X3115107D1*
X1311857Y4209200D2*
X3114983D1*
X1311857Y4146034D2*
X3114860D1*
X1311857Y4082867D2*
X1608097D1*
X2465027D2*
X3114733D1*
X1311857Y4019700D2*
X1608223D1*
X2465150D2*
X3114610D1*
X1311857Y3956534D2*
X1608223D1*
X2465150D2*
X3114610D1*
X1311857Y3893367D2*
X1608347D1*
X2465273D2*
X3114487D1*
X1311857Y3830200D2*
X1608470D1*
X2465397D2*
X3114363D1*
X1311857Y3767034D2*
X1608470D1*
X2465397D2*
X3114240D1*
X1311857Y3703867D2*
X1608593D1*
X2465520D2*
X3114113D1*
X1311857Y3640700D2*
X1608593D1*
X2465520D2*
X3114113D1*
X1311857Y3577534D2*
X1608717D1*
X2465647D2*
X3113990D1*
X1311857Y3514367D2*
X1608843D1*
X2465770D2*
X3113867D1*
X1316940Y3451200D2*
X1608843D1*
X2465770D2*
X3113743D1*
X1342117Y3388034D2*
X1608967D1*
X2465893D2*
X3113617D1*
X1323637Y3324867D2*
X1609090D1*
X2466017D2*
X3113617D1*
X1322027Y3261700D2*
X1609090D1*
X2466017D2*
X3113493D1*
X1297963Y3198534D2*
X1609213D1*
X2466140D2*
X3113370D1*
X1315327Y3135367D2*
X1609337D1*
X2466267D2*
X3113247D1*
X3119580Y3133697D2*
X3121590Y4398734D1*
X1305533Y4398700D1*
Y3455254D1*
X1317637Y3443947D1*
X1327653Y3428954D1*
X1333897Y3412037D1*
X1336013Y3394130D1*
X1333897Y3376224D1*
X1327653Y3359307D1*
X1317637Y3344314D1*
X1310697Y3337254D1*
X1317477Y3324424D1*
X1322370Y3307070D1*
X1323077Y3289050D1*
X1319560Y3271367D1*
X1312010Y3254990D1*
X1300847Y3240830D1*
X1291787Y3233084D1*
X1291360Y3154707D1*
X1302397Y3144227D1*
X1309897Y3133730D1*
X1615627Y3133780D1*
X1615020Y4100594D1*
X1618280Y4112207D1*
X1624160Y4122737D1*
X1632337Y4131604D1*
X1642357Y4138317D1*
X1653667Y4142507D1*
X1665707Y4143937D1*
X2415413Y4143307D1*
X2427020Y4140034D1*
X2437543Y4134140D1*
X2446400Y4125954D1*
X2453103Y4115924D1*
X2457277Y4104607D1*
X2458693Y4092694D1*
X2459897Y3133870D1*
X3119533Y3133780D1*
X1255410Y2991874D2*
X1609447D1*
X2466373D2*
X3112983D1*
X1330073Y2928707D2*
X1609570D1*
X2466500D2*
X3112983D1*
X1330817Y2865540D2*
X1609570D1*
X2466500D2*
X3112860D1*
X1334537Y2802374D2*
X1609697D1*
X2466623D2*
X3112737D1*
X1122147Y2739207D2*
X1195210D1*
X1308243D2*
X1609820D1*
X2466747D2*
X3112610D1*
X1122147Y2676040D2*
X1609820D1*
X2466747D2*
X3112487D1*
X1122147Y2612874D2*
X1609943D1*
X2466870D2*
X3112487D1*
X1122147Y2549707D2*
X1610067D1*
X2466993D2*
X3112363D1*
X1122147Y2486540D2*
X1610067D1*
X2466993D2*
X3112240D1*
X1122147Y2423374D2*
X1610190D1*
X2467120D2*
X3112117D1*
X1122147Y2360207D2*
X1610190D1*
X2467243D2*
X3111990D1*
X1122147Y2297040D2*
X1610317D1*
X2467243D2*
X3111990D1*
X1122147Y2233874D2*
X1610440D1*
X2467367D2*
X3111867D1*
X1122147Y2170707D2*
X1610440D1*
X2467367D2*
X3115587D1*
X1122147Y2107540D2*
X1610563D1*
X2467490D2*
X3131340D1*
X1122147Y2044374D2*
X1615277D1*
X2462903D2*
X3131340D1*
X1122147Y1981207D2*
X3131340D1*
X3118130Y2222000D2*
X3119447Y3050850D1*
X2459850Y3050724D1*
X2461080Y2061750D1*
X2458743Y2049917D1*
X2453707Y2038957D1*
X2446253Y2029477D1*
X2436790Y2021997D1*
X2425843Y2016934D1*
X2414017Y2014567D1*
X1668247Y2014404D1*
X1656270Y2015820D1*
X1644953Y2019994D1*
X1634923Y2026697D1*
X1626737Y2035554D1*
X1620843Y2046077D1*
X1617570Y2057684D1*
X1616940Y2065647D1*
X1615703Y3050764D1*
X1307173Y3050724D1*
X1298307Y3040170D1*
X1284147Y3029007D1*
X1267770Y3021457D1*
X1250087Y3017940D1*
X1232067Y3018647D1*
X1219060Y3021937D1*
X1269667Y2971374D1*
X1283580Y2967160D1*
X1299313Y2958347D1*
X1312557Y2946107D1*
X1322573Y2931114D1*
X1328817Y2914197D1*
X1330933Y2896290D1*
X1328817Y2878384D1*
X1322573Y2861467D1*
X1312557Y2846474D1*
X1311453Y2845280D1*
X1320033Y2832054D1*
X1326277Y2815137D1*
X1328393Y2797230D1*
X1326277Y2779324D1*
X1320033Y2762407D1*
X1310017Y2747414D1*
X1296773Y2735174D1*
X1281040Y2726360D1*
X1263687Y2721467D1*
X1245667Y2720760D1*
X1227983Y2724277D1*
X1211607Y2731827D1*
X1197447Y2742990D1*
X1186283Y2757150D1*
X1178733Y2773527D1*
X1176597Y2781837D1*
X1115833Y2842560D1*
X1115837Y1922160D1*
X3137787Y1919700D1*
X3137637Y2149970D1*
X3130320Y2156910D1*
X3123633Y2166950D1*
X3119477Y2178274D1*
X3118080Y2190250D1*
X3118130Y2222000D1*
X6338650Y7165094D2*
X6560973D1*
X6275150Y7101927D2*
X6624103D1*
X6127687Y7038760D2*
X6687230D1*
X6126073Y6975594D2*
X6750357D1*
X7159933D2*
X7624600D1*
X6124337Y6912427D2*
X6813610D1*
X7223183D2*
X7587143D1*
X6122600Y6849260D2*
X6876737D1*
X7286313D2*
X7584663D1*
X6120987Y6786094D2*
X6923370D1*
X7349440D2*
X7584663D1*
X6119253Y6722927D2*
X7081873D1*
X7379950D2*
X7585407D1*
X6117640Y6659760D2*
X7145000D1*
X7379950D2*
X7622117D1*
X6115903Y6596594D2*
X7147853D1*
X7379950D2*
X7677680D1*
X6451510Y6533427D2*
X7147853D1*
X7379950D2*
X7677680D1*
X6514640Y6470260D2*
X7147853D1*
X7379950D2*
X7677557D1*
X6577890Y6407094D2*
X7147853D1*
X7379950D2*
X7677557D1*
X6641020Y6343927D2*
X7147853D1*
X7379950D2*
X7677557D1*
X6704147Y6280760D2*
X7147853D1*
X7379950D2*
X7677433D1*
X6451013Y6217594D2*
X6510247D1*
X6767400D2*
X7147853D1*
X7379950D2*
X7677433D1*
X6451013Y6154427D2*
X6573377D1*
X6830527D2*
X7147853D1*
X7379950D2*
X7677433D1*
X6451013Y6091260D2*
X6636503D1*
X6880260D2*
X7147853D1*
X7379950D2*
X7677310D1*
X6460317Y6028094D2*
X6672843D1*
X6882120D2*
X7147853D1*
X7379950D2*
X7677310D1*
X6464410Y5964927D2*
X6672843D1*
X6882120D2*
X7147853D1*
X7379950D2*
X7677310D1*
X6463790Y5901760D2*
X6672843D1*
X6882120D2*
X7147853D1*
X7379950D2*
X7677183D1*
X6463790Y5838594D2*
X6672843D1*
X6882120D2*
X7147853D1*
X7379950D2*
X7677183D1*
X6463790Y5775427D2*
X6672843D1*
X6882120D2*
X7147853D1*
X7379950D2*
X7677183D1*
X6463790Y5712260D2*
X6672843D1*
X6882120D2*
X7147853D1*
X7379950D2*
X7677060D1*
X6463790Y5649094D2*
X6672843D1*
X6882120D2*
X7147853D1*
X7379950D2*
X7677060D1*
X6463790Y5585927D2*
X6672843D1*
X6882120D2*
X7147853D1*
X7379950D2*
X7677060D1*
X6463790Y5522760D2*
X6672843D1*
X6882120D2*
X7147853D1*
X7379950D2*
X7677060D1*
X6463790Y5459594D2*
X6672843D1*
X6882120D2*
X7147853D1*
X7379950D2*
X7676937D1*
X6463790Y5396427D2*
X6672843D1*
X6882120D2*
X7147853D1*
X7379950D2*
X7676937D1*
X6463790Y5333260D2*
X6672843D1*
X6882120D2*
X7147853D1*
X7379950D2*
X7676937D1*
X6463790Y5270094D2*
X6672843D1*
X6882120D2*
X7147853D1*
X7379950D2*
X7676813D1*
X6463790Y5206927D2*
X6672843D1*
X6882120D2*
X7147853D1*
X7379950D2*
X7676813D1*
X6463790Y5143760D2*
X6672843D1*
X6882120D2*
X7147853D1*
X7379950D2*
X7676813D1*
X6463790Y5080594D2*
X6672843D1*
X6882120D2*
X7147853D1*
X7379950D2*
X7676690D1*
X6463790Y5017427D2*
X6672843D1*
X6882120D2*
X7147853D1*
X7379950D2*
X7676690D1*
X6463790Y4954260D2*
X6672843D1*
X6882120D2*
X7147853D1*
X7379950D2*
X7676690D1*
X6463790Y4891094D2*
X6672843D1*
X6882120D2*
X7147853D1*
X7379950D2*
X7676563D1*
X6463790Y4827927D2*
X6672843D1*
X6882120D2*
X7147853D1*
X7379950D2*
X7676563D1*
X6463790Y4764760D2*
X6672843D1*
X6882120D2*
X7147853D1*
X7379950D2*
X7676563D1*
X6463790Y4701594D2*
X6672843D1*
X6894150D2*
X7147853D1*
X7379950D2*
X7676440D1*
X6463790Y4638427D2*
X6672843D1*
X6882120D2*
X7147853D1*
X7379950D2*
X7676440D1*
X6463790Y4575260D2*
X6670240D1*
X6882120D2*
X7147853D1*
X7379950D2*
X7676440D1*
X6463790Y4512094D2*
X6664287D1*
X6882120D2*
X7147853D1*
X7379950D2*
X7676317D1*
X6463790Y4448927D2*
X6672843D1*
X6882120D2*
X7147853D1*
X7379950D2*
X7676317D1*
X6463790Y4385760D2*
X6672843D1*
X6882120D2*
X7147853D1*
X7379950D2*
X7446253D1*
X6463790Y4322594D2*
X6672843D1*
X6882120D2*
X7147853D1*
X6463790Y4259427D2*
X6672843D1*
X6882120D2*
X7147853D1*
X7379950D2*
X7416487D1*
X6463790Y4196260D2*
X6672843D1*
X6882120D2*
X7147853D1*
X7379950D2*
X7676193D1*
X6463790Y4133094D2*
X6672843D1*
X6882120D2*
X7147853D1*
X7379950D2*
X7676193D1*
X6463790Y4069927D2*
X6672843D1*
X6882120D2*
X7147853D1*
X7379950D2*
X7676070D1*
X6463790Y4006760D2*
X6672843D1*
X6882120D2*
X7147853D1*
X7379950D2*
X7676070D1*
X6463790Y3943594D2*
X6672843D1*
X6882120D2*
X7147853D1*
X7379950D2*
X7676070D1*
X6463790Y3880427D2*
X6672843D1*
X6882120D2*
X7147853D1*
X7379950D2*
X7675943D1*
X6463790Y3817260D2*
X6672843D1*
X6882120D2*
X7147853D1*
X7379950D2*
X7675943D1*
X6463790Y3754094D2*
X6672843D1*
X6882120D2*
X7147853D1*
X7379950D2*
X7675943D1*
X6463790Y3690927D2*
X6672843D1*
X6882120D2*
X7147853D1*
X7379950D2*
X7675820D1*
X6463790Y3627760D2*
X6672843D1*
X6894400D2*
X7147853D1*
X7379950D2*
X7675820D1*
X6463790Y3564594D2*
X6672843D1*
X6870957D2*
X7147853D1*
X7379950D2*
X7675820D1*
X6463790Y3501427D2*
X6667883D1*
X6818497D2*
X7147853D1*
X7379950D2*
X7675697D1*
X6463790Y3438260D2*
X6666020D1*
X6820357D2*
X7147853D1*
X7379950D2*
X7675697D1*
X6463790Y3375094D2*
X7147853D1*
X7379950D2*
X7675697D1*
X6463790Y3311927D2*
X7147853D1*
X7379950D2*
X7675573D1*
X6463790Y3248760D2*
X7147853D1*
X7379950D2*
X7429137D1*
X6463790Y3185594D2*
X7147853D1*
X7379950D2*
X7422690D1*
X6463790Y3122427D2*
X7147853D1*
X7379950D2*
X7485693D1*
X6463790Y3059260D2*
X7147853D1*
X7379950D2*
X7675450D1*
X6463790Y2996094D2*
X7147853D1*
X7379950D2*
X7675450D1*
X6463790Y2932927D2*
X7147853D1*
X7379950D2*
X7675323D1*
X3227027Y2869760D2*
X4239503D1*
X4512280D2*
X5442780D1*
X6463790D2*
X7147853D1*
X7379950D2*
X7675323D1*
X3227027Y2806594D2*
X4239503D1*
X4512280D2*
X5442780D1*
X6463790D2*
X7147853D1*
X7379950D2*
X7795007D1*
X3227027Y2743427D2*
X4239503D1*
X4512280D2*
X5442780D1*
X6463790D2*
X7147853D1*
X7424600D2*
X7975833D1*
X3227027Y2680260D2*
X4239503D1*
X4512280D2*
X5442780D1*
X6463790D2*
X7154303D1*
X7487850D2*
X7978437D1*
X3227027Y2617094D2*
X4239503D1*
X4512280D2*
X5440917D1*
X6463663D2*
X7212593D1*
X7550980D2*
X7978437D1*
X8169857D2*
X8337733D1*
X3227027Y2553927D2*
X4233923D1*
X4512280D2*
X5449847D1*
X6457960D2*
X7275720D1*
X7614107D2*
X7978437D1*
X8169857D2*
X8518683D1*
X3227027Y2490760D2*
X4170670D1*
X4512280D2*
X5460887D1*
X6443820D2*
X7338850D1*
X7677357D2*
X7978437D1*
X8169857D2*
X8699633D1*
X3227027Y2427594D2*
X4107543D1*
X4491567D2*
X5487180D1*
X6420630D2*
X7402100D1*
X7740487D2*
X7978437D1*
X8184863D2*
X8260713D1*
X8334807D2*
X8737833D1*
X3227027Y2364427D2*
X4044413D1*
X4428937D2*
X5519797D1*
X6386893D2*
X7465230D1*
X7803613D2*
X7984143D1*
X8405377D2*
X8737833D1*
X3227027Y2301260D2*
X3981163D1*
X4365683D2*
X5567423D1*
X6340387D2*
X7528357D1*
X7866867D2*
X8033753D1*
X8411827D2*
X8737833D1*
X3227027Y2238094D2*
X3918033D1*
X4302557D2*
X5631790D1*
X6275150D2*
X7591610D1*
X7929993D2*
X8071083D1*
X8374493D2*
X8737833D1*
X3227027Y2174927D2*
X3854907D1*
X4239430D2*
X5733613D1*
X6174070D2*
X7654737D1*
X8313227D2*
X8737833D1*
X3227027Y2111760D2*
X3791653D1*
X4176177D2*
X7717863D1*
X8274780D2*
X8737833D1*
X3227027Y2048594D2*
X3728527D1*
X4113050D2*
X7781117D1*
X8337907D2*
X8737833D1*
X3227027Y1985427D2*
X3665400D1*
X4049920D2*
X7844243D1*
X8402027D2*
X8737833D1*
X3227027Y1922260D2*
X3602270D1*
X3986670D2*
X7907373D1*
X8416043D2*
X8737833D1*
X3218097Y1859094D2*
X3539020D1*
X3923540D2*
X7970500D1*
X8389500D2*
X8745150D1*
X1109077Y1795927D2*
X3285640D1*
X3860413D2*
X7983523D1*
X8246007D2*
X10803567D1*
X1108707Y1732760D2*
X3123043D1*
X3797160D2*
X7983523D1*
X8246007D2*
X10802947D1*
X1108333Y1669594D2*
X3124160D1*
X3601577D2*
X7983523D1*
X8246007D2*
X10802327D1*
X1108083Y1606427D2*
X1486553D1*
X1831017D2*
X7983523D1*
X8397563D2*
X10076790D1*
X10421253D2*
X10801583D1*
X1107713Y1543260D2*
X1406310D1*
X1911260D2*
X7983523D1*
X8416413D2*
X9996547D1*
X10501497D2*
X10800963D1*
X1107340Y1480094D2*
X1359803D1*
X1957770D2*
X7985010D1*
X8395083D2*
X9950037D1*
X10548003D2*
X10800343D1*
X1107093Y1416927D2*
X1331897D1*
X1985673D2*
X8034247D1*
X8269073D2*
X9922133D1*
X10575910D2*
X10799600D1*
X1109077Y1353760D2*
X1318007D1*
X1999567D2*
X9908243D1*
X10589800D2*
X10797490D1*
X1112673Y1290594D2*
X1316270D1*
X2001177D2*
X9906507D1*
X10591537D2*
X10795383D1*
X1139213Y1227427D2*
X1326563D1*
X1990883D2*
X9916923D1*
X10581120D2*
X10769460D1*
X1188203Y1164260D2*
X1350253D1*
X1967320D2*
X9940490D1*
X10557553D2*
X10732130D1*
X7197883Y1101094D2*
X9980920D1*
X8409717Y1536400D2*
X8407023Y1519394D1*
X8401703Y1503020D1*
X8393887Y1487677D1*
X8383763Y1473747D1*
X8371590Y1461574D1*
X8357660Y1451450D1*
X8342317Y1443634D1*
X8325943Y1438314D1*
X8308937Y1435620D1*
X8291717D1*
X8282533Y1436757D1*
X8241430Y1396707D1*
X8228300Y1389354D1*
X8213820Y1385270D1*
X8203807Y1384484D1*
X8089513Y1385270D1*
X8075033Y1389354D1*
X8061903Y1396707D1*
X8054267Y1403230D1*
X8002023Y1456587D1*
X7994670Y1469717D1*
X7990587Y1484197D1*
X7989797Y1494210D1*
Y1846314D1*
X7169473Y2666760D1*
X7161113Y2679270D1*
X7155907Y2693387D1*
X7154170Y2709174D1*
X7154137Y6656864D1*
X7040200Y6770857D1*
X7026910Y6762404D1*
X7009993Y6756160D1*
X6992087Y6754044D1*
X6974180Y6756160D1*
X6957263Y6762404D1*
X6942270Y6772420D1*
X6930030Y6785664D1*
X6921217Y6801397D1*
X6916997Y6815357D1*
X6564167Y7168150D1*
X6335347Y7168064D1*
X6265170Y7099007D1*
X6252040Y7091654D1*
X6237560Y7087570D1*
X6227547Y7086784D1*
X6161653Y7087570D1*
X6147173Y7091654D1*
X6134043Y7099007D1*
X6123160Y7108774D1*
X6109423Y6590047D1*
X6367190Y6589760D1*
X6381947Y6586827D1*
X6395610Y6580527D1*
X6408000Y6570590D1*
X6860420Y6117940D1*
X6868780Y6105430D1*
X6873987Y6091314D1*
X6875723Y6075527D1*
X6875753Y4734314D1*
X6882617Y4721424D1*
X6887510Y4704070D1*
X6888217Y4686050D1*
X6884700Y4668367D1*
X6877150Y4651990D1*
X6875727Y4649857D1*
X6875753Y3662550D1*
X6882617Y3649544D1*
X6887510Y3632190D1*
X6888217Y3614170D1*
X6884700Y3596487D1*
X6877150Y3580110D1*
X6865987Y3565950D1*
X6851827Y3554787D1*
X6835450Y3547237D1*
X6817767Y3543720D1*
X6807163Y3543664D1*
X6807173Y3510094D1*
X6814037Y3497144D1*
X6818930Y3479790D1*
X6819637Y3461770D1*
X6816120Y3444087D1*
X6808570Y3427710D1*
X6797407Y3413550D1*
X6783247Y3402387D1*
X6766870Y3394837D1*
X6749187Y3391320D1*
X6731167Y3392027D1*
X6713813Y3396920D1*
X6698080Y3405734D1*
X6684837Y3417974D1*
X6674820Y3432967D1*
X6668577Y3449884D1*
X6666460Y3467790D1*
X6668577Y3485697D1*
X6674820Y3502614D1*
X6679187Y3510004D1*
X6679160Y4494827D1*
X6672297Y4507777D1*
X6667403Y4525130D1*
X6666697Y4543150D1*
X6670213Y4560834D1*
X6677763Y4577210D1*
X6679187Y4579344D1*
X6679157Y6055054D1*
X6444723Y6289374D1*
X6444717Y6077437D1*
X6454747Y6020380D1*
X6458067Y5962244D1*
X6457417Y5932860D1*
X6458067Y2633164D1*
X6453880Y2566594D1*
X6441517Y2503527D1*
X6421637Y2443417D1*
X6394380Y2386277D1*
X6360173Y2333004D1*
X6319563Y2284434D1*
X6273187Y2241340D1*
X6221773Y2204397D1*
X6166133Y2174190D1*
X6107150Y2151197D1*
X6045747Y2135774D1*
X5982897Y2128170D1*
X5920540Y2128390D1*
X5856820Y2136770D1*
X5795150Y2152407D1*
X5779330Y2158927D1*
X5736843Y2176454D1*
X5681527Y2207244D1*
X5661673Y2218857D1*
X5647940Y2228770D1*
X5627420Y2247467D1*
X5581867Y2291414D1*
X5569930Y2305840D1*
X5548260Y2327807D1*
X5538260Y2341480D1*
X5521670Y2373090D1*
X5508987Y2394614D1*
X5474213Y2466360D1*
X5468940Y2482457D1*
X5458110Y2543887D1*
X5453037Y2575027D1*
X5447843Y2612597D1*
X5446497Y2629484D1*
X5447843Y2646584D1*
X5449037Y2661340D1*
Y2870567D1*
X4505827Y2871517D1*
X4505660Y2477797D1*
X4503463Y2463937D1*
X4499130Y2450597D1*
X4492760Y2438094D1*
X4484513Y2426744D1*
X4322593Y2264434D1*
X3758313Y1700544D1*
X3746963Y1692297D1*
X3734460Y1685927D1*
X3721120Y1681594D1*
X3707260Y1679397D1*
X3693233D1*
X3679373Y1681594D1*
X3666033Y1685927D1*
X3653530Y1692297D1*
X3642180Y1700544D1*
X3634103Y1708470D1*
X3579257Y1653817D1*
X3566747Y1645457D1*
X3552630Y1640250D1*
X3536843Y1638514D1*
X3242140Y1638484D1*
X3229220Y1631620D1*
X3211867Y1626727D1*
X3193847Y1626020D1*
X3176163Y1629537D1*
X3159787Y1637087D1*
X3145627Y1648250D1*
X3134463Y1662410D1*
X3126913Y1678787D1*
X3123397Y1696470D1*
X3124103Y1714490D1*
X3128997Y1731844D1*
X3137810Y1747577D1*
X3150050Y1760820D1*
X3165043Y1770837D1*
X3181960Y1777080D1*
X3199867Y1779197D1*
X3217773Y1777080D1*
X3234690Y1770837D1*
X3242080Y1766470D1*
X3281350Y1766497D1*
X3284393Y1779534D1*
X3291943Y1795910D1*
X3303107Y1810070D1*
X3317267Y1821234D1*
X3333643Y1828784D1*
X3351327Y1832300D1*
X3369347Y1831594D1*
X3386700Y1826700D1*
X3399560Y1819810D1*
X3506050Y1819840D1*
X4245843Y2559590D1*
X4245837Y2871777D1*
X3220697Y2872794D1*
X3220063Y1879884D1*
X3216790Y1868277D1*
X3210897Y1857754D1*
X3202710Y1848894D1*
X3192680Y1842194D1*
X3181363Y1838020D1*
X3169323Y1836604D1*
X1102960Y1839120D1*
X1100560Y1392844D1*
X1107657Y1265667D1*
X1168297Y1173670D1*
X1257540Y1111294D1*
X1380207Y1104287D1*
X1386207Y1115190D1*
X1371510Y1137187D1*
X1358583Y1160264D1*
X1347510Y1184287D1*
X1338353Y1209104D1*
X1331173Y1234564D1*
X1326013Y1260507D1*
X1322907Y1286777D1*
X1321867Y1313207D1*
X1322907Y1339637D1*
X1326013Y1365907D1*
X1331173Y1391850D1*
X1338353Y1417310D1*
X1347510Y1442127D1*
X1358583Y1466150D1*
X1371510Y1489227D1*
X1386207Y1511224D1*
X1402583Y1531994D1*
X1420537Y1551420D1*
X1439963Y1569374D1*
X1460733Y1585750D1*
X1482730Y1600447D1*
X1505807Y1613374D1*
X1529830Y1624447D1*
X1554647Y1633604D1*
X1580107Y1640784D1*
X1606050Y1645944D1*
X1632320Y1649050D1*
X1658750Y1650090D1*
X1685180Y1649050D1*
X1711450Y1645944D1*
X1737393Y1640784D1*
X1762853Y1633604D1*
X1787670Y1624447D1*
X1811693Y1613374D1*
X1834770Y1600447D1*
X1856767Y1585750D1*
X1877537Y1569374D1*
X1896963Y1551420D1*
X1914917Y1531994D1*
X1931293Y1511224D1*
X1945990Y1489227D1*
X1958917Y1466150D1*
X1969990Y1442127D1*
X1979147Y1417310D1*
X1986327Y1391850D1*
X1991487Y1365907D1*
X1994593Y1339637D1*
X1995633Y1313207D1*
X1994593Y1286777D1*
X1991487Y1260507D1*
X1986327Y1234564D1*
X1979147Y1209104D1*
X1969990Y1184287D1*
X1958917Y1160264D1*
X1945990Y1137187D1*
X1922403Y1103914D1*
X9988533Y1099540D1*
X9961790Y1137187D1*
X9948863Y1160264D1*
X9937790Y1184287D1*
X9928633Y1209104D1*
X9921453Y1234564D1*
X9916293Y1260507D1*
X9913187Y1286777D1*
X9912147Y1313207D1*
X9913187Y1339637D1*
X9916293Y1365907D1*
X9921453Y1391850D1*
X9928633Y1417310D1*
X9937790Y1442127D1*
X9948863Y1466150D1*
X9961790Y1489227D1*
X9976487Y1511224D1*
X9992863Y1531994D1*
X10010817Y1551420D1*
X10030243Y1569374D1*
X10051013Y1585750D1*
X10073010Y1600447D1*
X10096087Y1613374D1*
X10120110Y1624447D1*
X10144927Y1633604D1*
X10170387Y1640784D1*
X10196330Y1645944D1*
X10222600Y1649050D1*
X10249030Y1650090D1*
X10275460Y1649050D1*
X10301730Y1645944D1*
X10327673Y1640784D1*
X10353133Y1633604D1*
X10377950Y1624447D1*
X10401973Y1613374D1*
X10425050Y1600447D1*
X10447047Y1585750D1*
X10467817Y1569374D1*
X10487243Y1551420D1*
X10505197Y1531994D1*
X10521573Y1511224D1*
X10536270Y1489227D1*
X10549197Y1466150D1*
X10560270Y1442127D1*
X10569427Y1417310D1*
X10576607Y1391850D1*
X10581767Y1365907D1*
X10584873Y1339637D1*
X10585913Y1313207D1*
X10584873Y1286777D1*
X10581767Y1260507D1*
X10576607Y1234564D1*
X10569427Y1209104D1*
X10560270Y1184287D1*
X10549197Y1160264D1*
X10536270Y1137187D1*
X10521573Y1115190D1*
X10508973Y1099207D1*
X10529043Y1099240D1*
X10644930Y1111100D1*
X10742923Y1166797D1*
X10801113Y1274207D1*
X10806233Y1442474D1*
X10810407Y1836724D1*
X8795550Y1834064D1*
X8783570Y1835464D1*
X8772250Y1839627D1*
X8762213Y1846314D1*
X8754017Y1855160D1*
X8748110Y1865677D1*
X8744820Y1877280D1*
X8744180Y1885370D1*
Y2477584D1*
X8163420Y2680180D1*
X8163537Y2432774D1*
X8189777Y2423627D1*
X8205120Y2415810D1*
X8219050Y2405687D1*
X8222733Y2402284D1*
X8240453Y2415810D1*
X8255797Y2423627D1*
X8272170Y2428947D1*
X8289177Y2431640D1*
X8306397D1*
X8323403Y2428947D1*
X8339777Y2423627D1*
X8355120Y2415810D1*
X8369050Y2405687D1*
X8381223Y2393514D1*
X8391347Y2379584D1*
X8399163Y2364240D1*
X8404483Y2347867D1*
X8407177Y2330860D1*
Y2313640D1*
X8404483Y2296634D1*
X8399163Y2280260D1*
X8391347Y2264917D1*
X8381223Y2250987D1*
X8369050Y2238814D1*
X8355650Y2229047D1*
X8349570Y2218727D1*
X8343047Y2211090D1*
X8256140Y2124180D1*
X8349693Y2030060D1*
X8371590Y2014527D1*
X8383763Y2002354D1*
X8393887Y1988424D1*
X8401703Y1973080D1*
X8407023Y1956707D1*
X8409717Y1939700D1*
Y1922480D1*
X8407023Y1905474D1*
X8401703Y1889100D1*
X8393887Y1873757D1*
X8383763Y1859827D1*
X8371590Y1847654D1*
X8357660Y1837530D1*
X8342317Y1829714D1*
X8325943Y1824394D1*
X8308937Y1821700D1*
X8291717D1*
X8274710Y1824394D1*
X8258337Y1829714D1*
X8239720Y1839720D1*
X8239737Y1636534D1*
X8258337Y1646387D1*
X8274710Y1651707D1*
X8291717Y1654400D1*
X8308937D1*
X8325943Y1651707D1*
X8342317Y1646387D1*
X8357660Y1638570D1*
X8371590Y1628447D1*
X8383763Y1616274D1*
X8393887Y1602344D1*
X8401703Y1587000D1*
X8407023Y1570627D1*
X8409717Y1553620D1*
Y1536400D1*
X8164850Y2213860D2*
X8147787Y2212524D1*
X8130620Y2213874D1*
X8113880Y2217894D1*
X8097970Y2224480D1*
X8083290Y2233477D1*
X8070197Y2244660D1*
X8059013Y2257754D1*
X8050017Y2272434D1*
X8043430Y2288344D1*
X8039627Y2303997D1*
X8006140Y2337844D1*
X7997893Y2349194D1*
X7991523Y2361694D1*
X7987190Y2375037D1*
X7984993Y2388897D1*
X7984717Y2618160D1*
Y2742557D1*
X7698423Y2842920D1*
X7690513Y2848930D1*
X7684850Y2857094D1*
X7681987Y2866604D1*
X7681757Y2966160D1*
X7681850Y3119330D1*
X7508313Y3119577D1*
X7494453Y3121774D1*
X7481110Y3126107D1*
X7468610Y3132477D1*
X7457260Y3140724D1*
X7447340Y3150644D1*
X7439093Y3161994D1*
X7432723Y3174494D1*
X7428390Y3187837D1*
X7426193Y3201697D1*
Y3215724D1*
X7428390Y3229584D1*
X7432723Y3242927D1*
X7439093Y3255427D1*
X7447340Y3266777D1*
X7457260Y3276697D1*
X7468610Y3284944D1*
X7481110Y3291314D1*
X7494453Y3295647D1*
X7508313Y3297844D1*
X7681890Y3298120D1*
X7682540Y4219170D1*
X7490533Y4219397D1*
X7476673Y4221594D1*
X7463330Y4225927D1*
X7450830Y4232297D1*
X7439480Y4240544D1*
X7429560Y4250464D1*
X7421313Y4261814D1*
X7414943Y4274314D1*
X7410610Y4287657D1*
X7408413Y4301517D1*
Y4315544D1*
X7410610Y4329404D1*
X7414943Y4342747D1*
X7421313Y4355247D1*
X7429560Y4366597D1*
X7439480Y4376517D1*
X7450830Y4384764D1*
X7463330Y4391134D1*
X7476673Y4395467D1*
X7490533Y4397664D1*
X7682713Y4397937D1*
X7684027Y6604140D1*
X7612440Y6676164D1*
X7604193Y6687514D1*
X7597823Y6700014D1*
X7593490Y6713357D1*
X7591293Y6727217D1*
X7591020Y6891710D1*
X7592120Y6905697D1*
X7595393Y6919340D1*
X7600763Y6932300D1*
X7608093Y6944264D1*
X7617207Y6954930D1*
X7634483Y6972207D1*
X7558940Y7045364D1*
X7514850Y7002487D1*
X7501720Y6995134D1*
X7487240Y6991050D1*
X7477227Y6990264D1*
X7139013D1*
X7358260Y6770720D1*
X7366620Y6758210D1*
X7371827Y6744094D1*
X7373563Y6728307D1*
X7373593Y2788220D1*
X7950753Y2211024D1*
X8162020Y2210997D1*
X1174750Y8247134D2*
X1409477D1*
X1907977D2*
X2688283D1*
X1136427Y8183967D2*
X1361727D1*
X1955850D2*
X2625153D1*
X3208610D2*
X5415310D1*
X1115590Y8120800D2*
X1332953D1*
X1984500D2*
X2562027D1*
X2800947D2*
X2891310D1*
X3434210D2*
X5478437D1*
X1104553Y8057634D2*
X1318443D1*
X1999133D2*
X2498773D1*
X2737693D2*
X2891310D1*
X3460503D2*
X3794200D1*
X5104930D2*
X5541567D1*
X5981153D2*
X6019303D1*
X1105050Y7994467D2*
X1316087D1*
X2001490D2*
X2435647D1*
X2674567D2*
X2891310D1*
X3457897D2*
X3763937D1*
X5262933D2*
X5604817D1*
X1105543Y7931300D2*
X1325760D1*
X1991693D2*
X2372520D1*
X2611437D2*
X2891310D1*
X3424537D2*
X3783907D1*
X5315023D2*
X5667947D1*
X1106040Y7868134D2*
X1348580D1*
X1968873D2*
X2292277D1*
X2548187D2*
X4093467D1*
X5378153D2*
X5731073D1*
X1106537Y7804967D2*
X1388020D1*
X1929557D2*
X2272927D1*
X2485057D2*
X3012230D1*
X3097980D2*
X3682827D1*
X3768453D2*
X4929633D1*
X5441403D2*
X5794327D1*
X1107033Y7741800D2*
X1453507D1*
X1863947D2*
X2303933D1*
X2439667D2*
X2958653D1*
X3822030D2*
X4942283D1*
X5543970D2*
X5857453D1*
X1107530Y7678634D2*
X1617713D1*
X1699740D2*
X2965600D1*
X3815083D2*
X4942283D1*
X5555630D2*
X5627143D1*
X5730750D2*
X5923063D1*
X6059537D2*
X6139360D1*
X1108027Y7615467D2*
X3323283D1*
X3824883D2*
X4942283D1*
X5523757D2*
X5559117D1*
X5776267D2*
X6139110D1*
X1108520Y7552300D2*
X3307037D1*
X1108893Y7489134D2*
X3296867D1*
X5521027D2*
X5560320D1*
X1109390Y7425967D2*
X3273550D1*
X5584157D2*
X5666707D1*
X1109887Y7362800D2*
X1270570D1*
X5762750D2*
X5926783D1*
X1110383Y7299634D2*
X1207443D1*
X5817197D2*
X5937573D1*
X1110877Y7236467D2*
X1144147D1*
X5462983D2*
X5534743D1*
X5880323D2*
X5966593D1*
X5509493Y7173300D2*
X5597873D1*
X5943450D2*
X6029723D1*
X5559600Y7110134D2*
X5661123D1*
X6004843D2*
X6092850D1*
X6024687Y7046967D2*
X6137497D1*
X3253133Y6983800D2*
X4182143D1*
X5774037D2*
X5837980D1*
X6027910D2*
X6137373D1*
X3253010Y6920634D2*
X4245273D1*
X5278687D2*
X5417293D1*
X5810497D2*
X5906193D1*
X5959500D2*
X6137127D1*
X3252887Y6857467D2*
X4318570D1*
X5205387D2*
X5417293D1*
X5810993D2*
X6137003D1*
X3252763Y6794300D2*
X5417293D1*
X5841007D2*
X6136877D1*
X3864323Y6731134D2*
X5417293D1*
X5851550D2*
X6136630D1*
X4775027Y6667967D2*
X5417293D1*
X5851550D2*
X6136507D1*
X2929447Y8184480D2*
X3202317D1*
Y8145660D1*
X3224423Y8162037D1*
X3245720Y8172887D1*
X3268450Y8180270D1*
X3292057Y8184010D1*
X3315957D1*
X3339563Y8180270D1*
X3362293Y8172887D1*
X3383590Y8162037D1*
X3402923Y8147987D1*
X3419823Y8131087D1*
X3433873Y8111754D1*
X3444723Y8090457D1*
X3452107Y8067727D1*
X3455847Y8044120D1*
Y8020220D1*
X3452107Y7996614D1*
X3444723Y7973884D1*
X3433873Y7952587D1*
X3419823Y7933254D1*
X3402923Y7916354D1*
X3383590Y7902304D1*
X3362293Y7891454D1*
X3339563Y7884070D1*
X3315957Y7880330D1*
X3292057D1*
X3268450Y7884070D1*
X3245720Y7891454D1*
X3224423Y7902304D1*
X3205090Y7916354D1*
X3202310Y7918920D1*
X3202317Y7879860D1*
X2897697D1*
Y8184480D1*
X2929447D1*
X3246790Y6948717D2*
X3246417Y6773474D1*
X5423713Y6622534D1*
X5423583Y6920940D1*
X5409747Y6925437D1*
X5398447Y6931110D1*
X5282633Y6931080D1*
X5222870Y6871510D1*
X5207230Y6861060D1*
X5189583Y6854550D1*
X5170907Y6852340D1*
X5170050Y6852374D1*
X4346750Y6852587D1*
X4328303Y6856257D1*
X4311220Y6864130D1*
X4296450Y6875774D1*
X4295867Y6876407D1*
X4144647Y7027580D1*
X4057190Y7027847D1*
X4038743Y7031517D1*
X4021660Y7039390D1*
X4020823Y7039950D1*
X4021660Y7039390D1*
X4019017Y7040300D1*
X3210507D1*
X3223260Y7031794D1*
X3234003Y7020174D1*
X3241733Y7006370D1*
X3246027Y6991140D1*
X3246857Y6980467D1*
X3246790Y6948717D1*
X6139180Y7921027D2*
X6094803Y7965400D1*
X6076237Y7972424D1*
X6063833Y7980027D1*
X6052770Y7989474D1*
X6043323Y8000537D1*
X6035720Y8012940D1*
X6030153Y8026380D1*
X6026757Y8040527D1*
X6025617Y8055030D1*
X6027673Y8074134D1*
X5958283Y8074080D1*
X6146197Y7886310D1*
X6146210Y7902450D1*
X6139187Y7921064D1*
X5855470Y6605960D2*
X6142710D1*
X6143970Y7075884D1*
X6129860Y7082570D1*
X6115090Y7094214D1*
X5971127Y7238527D1*
X5960677Y7254167D1*
X5954167Y7271814D1*
X5952823Y7278974D1*
X5943793Y7299940D1*
X5940397Y7314087D1*
X5939257Y7328590D1*
X5941203Y7347137D1*
X5933613Y7361690D1*
X5929100Y7375610D1*
X5754417Y7375620D1*
X5750333Y7374490D1*
X5756940Y7361530D1*
X5760917Y7349527D1*
X5993747Y7116394D1*
X6004197Y7100754D1*
X6010707Y7083107D1*
X6012917Y7064430D1*
X6012883Y7063574D1*
X6012917Y7057857D1*
X6021080Y7039740D1*
X6024477Y7025594D1*
X6025617Y7011090D1*
X6024477Y6996587D1*
X6021080Y6982440D1*
X6015513Y6969000D1*
X6007910Y6956597D1*
X5998463Y6945534D1*
X5987400Y6936087D1*
X5974997Y6928484D1*
X5961557Y6922917D1*
X5947410Y6919520D1*
X5932907Y6918380D1*
X5918403Y6919520D1*
X5904257Y6922917D1*
X5890817Y6928484D1*
X5878413Y6936087D1*
X5867350Y6945534D1*
X5857903Y6956597D1*
X5850300Y6969000D1*
X5844733Y6982440D1*
X5841337Y6996587D1*
X5840197Y7011090D1*
X5841337Y7025594D1*
X5844680Y7039547D1*
X5826257Y7057930D1*
X5812437Y7047614D1*
X5799477Y7041007D1*
X5785640Y7036510D1*
X5771270Y7034237D1*
X5756723D1*
X5737017Y7038017D1*
X5746867Y7028120D1*
X5755417Y7016350D1*
X5762023Y7003390D1*
X5766520Y6989554D1*
X5768017Y6981764D1*
X5789357Y6959060D1*
X5798547Y6942650D1*
X5803653Y6924547D1*
X5804637Y6912030D1*
Y6828314D1*
X5829997Y6801580D1*
X5839187Y6785170D1*
X5844293Y6767067D1*
X5845277Y6754550D1*
Y6631147D1*
X5853440Y6613020D1*
X5855433Y6605930D1*
X5582980Y7056830D2*
X5599077Y7050517D1*
X5611480Y7042914D1*
X5616640Y7038847D1*
X5634280Y7050517D1*
X5647720Y7056084D1*
X5661867Y7059480D1*
X5676370Y7060620D1*
X5690873Y7059480D1*
X5703350Y7056554D1*
X5693500Y7066450D1*
X5684950Y7078220D1*
X5678343Y7091180D1*
X5674367Y7103184D1*
X5456693Y7320814D1*
X5456657Y7184997D1*
X5472430Y7183940D1*
X5486577Y7180544D1*
X5500017Y7174977D1*
X5512420Y7167374D1*
X5523483Y7157927D1*
X5532930Y7146864D1*
X5540533Y7134460D1*
X5547557Y7115847D1*
X5568377Y7093680D1*
X5577567Y7077270D1*
X5582673Y7059167D1*
X5582790Y7058167D1*
X5582673Y7059167D1*
X5582790Y7058167D1*
X4322640Y7555920D2*
X4937990Y7555864D1*
X4943013Y7572350D1*
X4948687Y7583650D1*
X4924527Y7555920D1*
X4938047D1*
X4948657Y7583627D1*
Y7756764D1*
X4940493Y7774920D1*
X4937097Y7789067D1*
X4935957Y7803570D1*
X4937097Y7818074D1*
X4940493Y7832220D1*
X4946060Y7845660D1*
X4954280Y7858847D1*
X4921987Y7860720D1*
X4204263D1*
X4186097Y7852557D1*
X4171950Y7849160D1*
X4157447Y7848020D1*
X4142943Y7849160D1*
X4128797Y7852557D1*
X4115357Y7858124D1*
X4102953Y7865727D1*
X4091890Y7875174D1*
X4082443Y7886237D1*
X4074840Y7898640D1*
X4069273Y7912080D1*
X4065807Y7926820D1*
X3931610Y7926760D1*
X3917300Y7913987D1*
X3904897Y7906384D1*
X3891457Y7900817D1*
X3877310Y7897420D1*
X3862807Y7896280D1*
X3848303Y7897420D1*
X3834157Y7900817D1*
X3820717Y7906384D1*
X3808313Y7913987D1*
X3797250Y7923434D1*
X3787803Y7934497D1*
X3780200Y7946900D1*
X3774633Y7960340D1*
X3771237Y7974487D1*
X3770097Y7988990D1*
X3771237Y8003494D1*
X3774633Y8017640D1*
X3780200Y8031080D1*
X3787803Y8043484D1*
X3797250Y8054547D1*
X3808313Y8063994D1*
X3820717Y8071597D1*
X3834157Y8077164D1*
X3850310Y8080797D1*
X3868070Y8085797D1*
X3880587Y8086780D1*
X5042563Y8086534D1*
X5061010Y8082864D1*
X5078093Y8074990D1*
X5092863Y8063347D1*
X5093447Y8062717D1*
X5124170Y8032037D1*
X5137967Y8039084D1*
X5151803Y8043580D1*
X5166173Y8045854D1*
X5180720D1*
X5195090Y8043580D1*
X5208927Y8039084D1*
X5221887Y8032477D1*
X5233657Y8023927D1*
X5243943Y8013640D1*
X5252493Y8001870D1*
X5259100Y7988910D1*
X5263077Y7976907D1*
X5453037Y7786990D1*
X5472430Y7785920D1*
X5486577Y7782524D1*
X5500017Y7776957D1*
X5512420Y7769354D1*
X5523483Y7759907D1*
X5532930Y7748844D1*
X5540533Y7736440D1*
X5546100Y7723000D1*
X5549497Y7708854D1*
X5550637Y7694350D1*
X5549497Y7679847D1*
X5546100Y7665700D1*
X5540533Y7652260D1*
X5531847Y7638330D1*
X5522657Y7621920D1*
X5513763Y7611690D1*
X5509997Y7581320D1*
Y7493884D1*
X5609077Y7394734D1*
X5622847Y7405097D1*
X5635807Y7411704D1*
X5649643Y7416200D1*
X5664013Y7418474D1*
X5680733Y7418217D1*
X5638657Y7460274D1*
X5619503Y7461360D1*
X5605357Y7464757D1*
X5591917Y7470324D1*
X5579513Y7477927D1*
X5568450Y7487374D1*
X5559003Y7498437D1*
X5551400Y7510840D1*
X5545833Y7524280D1*
X5542437Y7538427D1*
X5541297Y7552930D1*
X5542437Y7567434D1*
X5545833Y7581577D1*
X5551400Y7595020D1*
X5559003Y7607424D1*
X5568450Y7618487D1*
X5579513Y7627934D1*
X5594833Y7636880D1*
X5603903Y7652324D1*
X5613350Y7663387D1*
X5624413Y7672834D1*
X5636817Y7680437D1*
X5650260Y7686004D1*
X5664403Y7689400D1*
X5678907Y7690540D1*
X5693410Y7689400D1*
X5707557Y7686004D1*
X5720997Y7680437D1*
X5733400Y7672834D1*
X5744463Y7663387D1*
X5753910Y7652324D1*
X5761513Y7639920D1*
X5767080Y7626480D1*
X5770477Y7612334D1*
X5771437Y7593257D1*
X5801303Y7563444D1*
X6145280Y7563540D1*
X6145773Y7716090D1*
X6117130Y7716187D1*
X6098683Y7719857D1*
X6086203Y7725154D1*
X6081477Y7726047D1*
X6076980Y7712210D1*
X6070373Y7699250D1*
X6061823Y7687480D1*
X6051537Y7677194D1*
X6039767Y7668644D1*
X6026807Y7662037D1*
X6012970Y7657540D1*
X5998600Y7655267D1*
X5984053D1*
X5969683Y7657540D1*
X5955847Y7662037D1*
X5942887Y7668644D1*
X5927337Y7680687D1*
X5913847Y7691747D1*
X5373950Y8231597D1*
X2905203Y8231560D1*
X2461440Y7787654D1*
X2454433Y7769100D1*
X2446830Y7756697D1*
X2437383Y7745634D1*
X2426320Y7736187D1*
X2413917Y7728584D1*
X2400477Y7723017D1*
X2386330Y7719620D1*
X2371827Y7718480D1*
X2357323Y7719620D1*
X2343177Y7723017D1*
X2329737Y7728584D1*
X2317333Y7736187D1*
X2306270Y7745634D1*
X2296823Y7756697D1*
X2289220Y7769100D1*
X2283653Y7782540D1*
X2280257Y7796687D1*
X2279117Y7811190D1*
X2280257Y7825694D1*
X2283653Y7839840D1*
X2289220Y7853280D1*
X2296823Y7865684D1*
X2306270Y7876747D1*
X2317333Y7886194D1*
X2329737Y7893797D1*
X2348350Y7900820D1*
X2757863Y8310377D1*
X1818093Y8310307D1*
X1834770Y8300967D1*
X1856767Y8286270D1*
X1877537Y8269894D1*
X1896963Y8251940D1*
X1914917Y8232514D1*
X1931293Y8211744D1*
X1945990Y8189747D1*
X1958917Y8166670D1*
X1969990Y8142647D1*
X1979147Y8117830D1*
X1986327Y8092370D1*
X1991487Y8066427D1*
X1994593Y8040157D1*
X1995633Y8013727D1*
X1994593Y7987297D1*
X1991487Y7961027D1*
X1986327Y7935084D1*
X1979147Y7909624D1*
X1969990Y7884807D1*
X1958917Y7860784D1*
X1945990Y7837707D1*
X1931293Y7815710D1*
X1914917Y7794940D1*
X1896963Y7775514D1*
X1877537Y7757560D1*
X1856767Y7741184D1*
X1834770Y7726487D1*
X1811693Y7713560D1*
X1787670Y7702487D1*
X1762853Y7693330D1*
X1737393Y7686150D1*
X1711450Y7680990D1*
X1685180Y7677884D1*
X1658750Y7676844D1*
X1632320Y7677884D1*
X1606050Y7680990D1*
X1580107Y7686150D1*
X1554647Y7693330D1*
X1529830Y7702487D1*
X1505807Y7713560D1*
X1482730Y7726487D1*
X1460733Y7741184D1*
X1439963Y7757560D1*
X1420537Y7775514D1*
X1402583Y7794940D1*
X1386207Y7815710D1*
X1371510Y7837707D1*
X1358583Y7860784D1*
X1347510Y7884807D1*
X1338353Y7909624D1*
X1331173Y7935084D1*
X1326013Y7961027D1*
X1322907Y7987297D1*
X1321867Y8013727D1*
X1322907Y8040157D1*
X1326013Y8066427D1*
X1331173Y8092370D1*
X1338353Y8117830D1*
X1347510Y8142647D1*
X1358583Y8166670D1*
X1371510Y8189747D1*
X1386207Y8211744D1*
X1402583Y8232514D1*
X1420537Y8251940D1*
X1439963Y8269894D1*
X1460733Y8286270D1*
X1482730Y8300967D1*
X1499407Y8310307D1*
X1320300Y8310300D1*
X1229283Y8294340D1*
X1161913Y8242147D1*
X1123677Y8172277D1*
X1098020Y8081134D1*
X1104900Y7190704D1*
X1283543Y7369110D1*
X1299183Y7379560D1*
X1316830Y7386070D1*
X1335507Y7388280D1*
X1336363Y7388247D1*
X3288753Y7388280D1*
X3282437Y7406007D1*
X3280163Y7420377D1*
Y7434924D1*
X3282437Y7449294D1*
X3286933Y7463130D1*
X3293540Y7476090D1*
X3302090Y7487860D1*
X3312377Y7498147D1*
X3329330Y7509604D1*
X3319953Y7526790D1*
X3315457Y7540627D1*
X3313183Y7554997D1*
Y7569544D1*
X3315457Y7583914D1*
X3319953Y7597750D1*
X3326560Y7610710D1*
X3333503Y7621037D1*
X3334000Y7639790D1*
X3101933Y7639740D1*
X3083737Y7631577D1*
X3069590Y7628180D1*
X3055087Y7627040D1*
X3040583Y7628180D1*
X3026437Y7631577D1*
X3012997Y7637144D1*
X3000593Y7644747D1*
X2989530Y7654194D1*
X2980083Y7665257D1*
X2972480Y7677660D1*
X2966913Y7691100D1*
X2963517Y7705247D1*
X2962377Y7719750D1*
X2963517Y7734254D1*
X2966913Y7748400D1*
X2972480Y7761840D1*
X2980083Y7774244D1*
X2989530Y7785307D1*
X3000593Y7794754D1*
X3012997Y7802357D1*
X3026437Y7807924D1*
X3040583Y7811320D1*
X3055087Y7812460D1*
X3069590Y7811320D1*
X3083737Y7807924D1*
X3101867Y7799730D1*
X3678800Y7799760D1*
X3696997Y7807924D1*
X3711143Y7811320D1*
X3725647Y7812460D1*
X3740150Y7811320D1*
X3754297Y7807924D1*
X3767737Y7802357D1*
X3780140Y7794754D1*
X3791203Y7785307D1*
X3800650Y7774244D1*
X3808253Y7761840D1*
X3813820Y7748400D1*
X3817217Y7734254D1*
X3818357Y7719750D1*
X3817217Y7705247D1*
X3813820Y7691100D1*
X3805627Y7672970D1*
X3805657Y7628344D1*
X3822260Y7611800D1*
X4239923Y7611554D1*
X4258370Y7607884D1*
X4275453Y7600010D1*
X4290223Y7588367D1*
X4322757Y7555830D1*
X4312673Y7565917D1*
D28*
X8150327Y1545010D3*
X8300327D3*
X8450327D3*
X8150327Y1931090D3*
X8300327D3*
X8450327D3*
X8147787Y2322250D3*
X8297787D3*
X8447787D3*
D29*
X3050007Y8032170D3*
D30*
X3304007D3*
D29*
X7820127Y8080430D3*
D30*
X8074127D3*
X7820127Y7826430D3*
X8074127D3*
X7820127Y7572430D3*
X8074127D3*
X7820127Y7318430D3*
X8074127D3*
D29*
X9090127Y7826430D3*
D30*
Y7572430D3*
Y7318430D3*
Y7064430D3*
D29*
X8836127Y7826430D3*
D30*
Y7572430D3*
Y7318430D3*
Y7064430D3*
D29*
X8582127Y7826430D3*
D30*
Y7572430D3*
Y7318430D3*
Y7064430D3*
D29*
X8074127Y6810430D3*
D30*
X7820127D3*
X8074127Y7064430D3*
X7820127D3*
M02*
