M48
METRIC,0000.00
T01C0.305
T02C0.406
T03C0.7
T04C1.1
T05C2.794
%
T01
X+001508Y+002302
X+001508Y+002175
X+001381Y+002175
X+001381Y+002302
X+001381Y+002048
X+001508Y+002048
X+001252Y+002797
X+001254Y+002896
X+001244Y+003094
X+001247Y+003295
X+001259Y+003394
X+001381Y+003879
X+001381Y+004006
X+001381Y+004133
X+001508Y+004133
X+001508Y+004006
X+001508Y+003879
X+001508Y+004707
X+001508Y+004834
X+001508Y+004961
X+001381Y+004961
X+001381Y+004834
X+001381Y+004707
X+001381Y+006582
X+001381Y+006709
X+001381Y+006836
X+001508Y+006836
X+001508Y+006709
X+001508Y+006582
X+001442Y+007453
X+002372Y+007811
X+003055Y+007720
X+003426Y+007628
X+003406Y+007562
X+003421Y+007484
X+003373Y+007428
X+003477Y+007374
X+003611Y+007542
X+003667Y+007618
X+003726Y+007720
X+003863Y+007989
X+004157Y+007941
X+004584Y+008248
X+005029Y+007804
X+005173Y+007953
X+005227Y+007699
X+005265Y+007636
X+005186Y+007636
X+005323Y+007575
X+005458Y+007694
X+005634Y+007553
X+005679Y+007598
X+005618Y+007478
X+005671Y+007326
X+005764Y+007127
X+005676Y+006968
X+005610Y+006882
X+005557Y+006968
X+005445Y+007011
X+005458Y+007092
X+005214Y+007115
X+005201Y+007224
X+005097Y+007283
X+004996Y+007306
X+005029Y+007537
X+004846Y+007070
X+004770Y+007070
X+004683Y+006696
X+004937Y+006442
X+004798Y+006249
X+004831Y+006191
X+004820Y+006112
X+004683Y+005934
X+004683Y+005680
X+005191Y+005680
X+005191Y+005426
X+005191Y+005172
X+004937Y+005172
X+005191Y+004918
X+005191Y+004664
X+004937Y+004664
X+004937Y+004410
X+005191Y+004410
X+005191Y+004156
X+005191Y+003902
X+005191Y+003648
X+004937Y+003648
X+004937Y+003394
X+005191Y+003394
X+005191Y+003140
X+005191Y+002886
X+005191Y+002632
X+005191Y+002378
X+005191Y+002124
X+005445Y+002124
X+005445Y+002378
X+005699Y+002124
X+006207Y+002124
X+006461Y+002124
X+006461Y+002378
X+006715Y+002378
X+006715Y+002124
X+006715Y+002632
X+006715Y+002886
X+006715Y+003140
X+006969Y+003140
X+006969Y+003394
X+006743Y+003468
X+006715Y+003394
X+006812Y+003620
X+006969Y+003902
X+006969Y+004156
X+006969Y+004410
X+006743Y+004537
X+006812Y+004692
X+006969Y+004918
X+006969Y+005172
X+006969Y+005680
X+006969Y+005934
X+006992Y+006831
X+007071Y+007054
X+006850Y+007290
X+006776Y+007290
X+006530Y+007341
X+006413Y+007110
X+006189Y+007209
X+006261Y+007359
X+006095Y+007357
X+006032Y+007329
X+006019Y+007397
X+005991Y+007748
X+006027Y+007809
X+006229Y+007945
X+006118Y+008055
X+006220Y+008263
X+005951Y+008263
X+005882Y+008251
X+005750Y+008154
X+005532Y+008263
X+005481Y+008317
X+006357Y+007816
X+006443Y+007763
X+006407Y+007706
X+006611Y+007595
X+006708Y+007539
X+006774Y+007804
X+006710Y+007852
X+007081Y+007750
X+007108Y+007561
X+007108Y+007498
X+007465Y+007263
X+007444Y+007189
X+007655Y+007146
X+007724Y+007204
X+007655Y+007420
X+007573Y+007599
X+007528Y+007644
X+007338Y+007974
X+007398Y+008017
X+007297Y+008146
X+007391Y+008200
X+007244Y+008240
X+008356Y+008119
X+010429Y+006813
X+010429Y+006686
X+010556Y+006686
X+010556Y+006813
X+010556Y+006559
X+010429Y+006559
X+010444Y+004949
X+010571Y+004949
X+010571Y+004822
X+010444Y+004822
X+010444Y+004695
X+010571Y+004695
X+010566Y+004128
X+010439Y+004128
X+010439Y+004001
X+010439Y+003874
X+010566Y+003874
X+010566Y+004001
X+010640Y+003389
X+010660Y+003290
X+010660Y+003094
X+010660Y+002894
X+010650Y+002795
X+010566Y+002274
X+010439Y+002274
X+010439Y+002147
X+010566Y+002147
X+010566Y+002020
X+010439Y+002020
X+007477Y+002886
X+007515Y+003209
X+007477Y+003902
X+007477Y+004156
X+007498Y+004309
X+007731Y+004156
X+007477Y+005172
X+005765Y+006584
X+005689Y+006536
X+005562Y+006399
X+005191Y+006442
X+005156Y+006716
X+005106Y+006112
X+005191Y+005934
X+005781Y+006843
X+005933Y+007011
X+004309Y+007315
X+004290Y+007402
X+004124Y+007374
X+004229Y+007204
X+004098Y+007172
X+004254Y+006851
X+004417Y+004977
X+004620Y+004687
X+004549Y+004542
X+004257Y+004385
X+004417Y+003973
X+004620Y+003625
X+004549Y+003470
X+004257Y+003320
X+004937Y+002378
X+003700Y+001769
X+003357Y+001756
X+003200Y+001702
X+002976Y+001827
X+002931Y+008251
T02
X+003444Y+005485
X+003520Y+005438
X+003596Y+005390
X+003520Y+005342
X+003596Y+005295
X+003520Y+005247
X+003444Y+005199
X+003444Y+005295
X+003444Y+005390
X+002913Y+005396
X+002810Y+005330
X+002913Y+005257
X+002913Y+005130
X+002913Y+005003
X+002802Y+005066
X+002699Y+005000
X+002595Y+005066
X+002699Y+005132
X+002699Y+005267
X+002699Y+005394
X+002588Y+005330
X+002484Y+005396
X+002484Y+005523
X+002595Y+005587
X+002699Y+005526
X+002802Y+005587
X+002913Y+005523
X+002816Y+005987
X+002919Y+006051
X+002919Y+006181
X+002919Y+006308
X+002919Y+006435
X+002816Y+006508
X+002919Y+006574
X+002919Y+006701
X+002808Y+006765
X+002705Y+006704
X+002602Y+006765
X+002491Y+006701
X+002491Y+006574
X+002594Y+006508
X+002491Y+006435
X+002491Y+006308
X+002491Y+006181
X+002602Y+006244
X+002705Y+006310
X+002808Y+006244
X+002705Y+006178
X+002705Y+006051
X+002594Y+005987
X+002491Y+006051
X+002268Y+005987
X+002165Y+005921
X+002268Y+005848
X+002268Y+005721
X+002268Y+005594
X+002157Y+005657
X+002054Y+005591
X+001951Y+005657
X+002054Y+005723
X+002054Y+005858
X+002054Y+005985
X+001943Y+005921
X+001840Y+005987
X+001840Y+006114
X+001951Y+006178
X+002054Y+006117
X+002156Y+006178
X+002268Y+006114
X+001840Y+005848
X+001840Y+005721
X+001840Y+005594
X+001840Y+005464
X+001943Y+005401
X+002054Y+005464
X+002165Y+005401
X+002268Y+005464
X+002484Y+005257
X+002484Y+005130
X+002484Y+005003
X+002484Y+004873
X+002588Y+004810
X+002699Y+004873
X+002810Y+004810
X+002913Y+004873
X+002807Y+004072
X+002704Y+004011
X+002600Y+004072
X+002489Y+004008
X+002489Y+003881
X+002593Y+003815
X+002489Y+003741
X+002489Y+003614
X+002489Y+003487
X+002600Y+003551
X+002704Y+003617
X+002807Y+003551
X+002704Y+003485
X+002704Y+003358
X+002815Y+003294
X+002918Y+003358
X+002918Y+003487
X+002918Y+003614
X+002918Y+003741
X+002815Y+003815
X+002918Y+003881
X+002918Y+004008
X+002704Y+003879
X+002704Y+003752
X+002489Y+003358
X+002593Y+003294
X+002267Y+003294
X+002164Y+003228
X+002267Y+003155
X+002267Y+003028
X+002267Y+002901
X+002156Y+002964
X+002053Y+002898
X+001949Y+002964
X+002053Y+003030
X+002053Y+003165
X+002053Y+003292
X+001942Y+003228
X+001838Y+003294
X+001838Y+003421
X+001949Y+003485
X+002053Y+003424
X+002156Y+003485
X+002267Y+003421
X+001838Y+003155
X+001838Y+003028
X+001838Y+002901
X+001838Y+002771
X+001942Y+002708
X+002053Y+002771
X+002164Y+002708
X+002267Y+002771
X+002483Y+002830
X+002483Y+002703
X+002586Y+002637
X+002483Y+002564
X+002483Y+002437
X+002483Y+002310
X+002594Y+002373
X+002698Y+002439
X+002800Y+002373
X+002698Y+002307
X+002698Y+002180
X+002809Y+002117
X+002912Y+002180
X+002912Y+002310
X+002912Y+002437
X+002912Y+002564
X+002809Y+002637
X+002912Y+002703
X+002912Y+002830
X+002800Y+002894
X+002698Y+002833
X+002594Y+002894
X+002698Y+002701
X+002698Y+002574
X+002483Y+002180
X+002586Y+002117
X+003444Y+002504
X+003520Y+002552
X+003596Y+002600
X+003520Y+002647
X+003444Y+002600
X+003444Y+002695
X+003520Y+002743
X+003444Y+002790
X+003596Y+002695
X+003444Y+003396
X+003520Y+003444
X+003596Y+003491
X+003520Y+003539
X+003444Y+003491
X+003444Y+003587
X+003520Y+003634
X+003444Y+003682
X+003596Y+003587
X+003444Y+006090
X+003520Y+006138
X+003596Y+006186
X+003520Y+006233
X+003444Y+006186
X+003444Y+006281
X+003520Y+006328
X+003444Y+006376
X+003596Y+006281
X+002705Y+006445
X+002705Y+006572
X+008310Y+006281
X+008387Y+006234
X+008463Y+006281
X+008387Y+006329
X+008463Y+006377
X+008463Y+006186
X+008387Y+006139
X+008463Y+006091
X+008310Y+006186
X+008992Y+006177
X+009094Y+006243
X+008992Y+006317
X+008992Y+006444
X+008992Y+006571
X+009103Y+006508
X+009206Y+006574
X+009309Y+006508
X+009206Y+006442
X+009206Y+006307
X+009206Y+006180
X+009317Y+006243
X+009420Y+006177
X+009420Y+006050
X+009309Y+005987
X+009206Y+006048
X+009103Y+005987
X+008992Y+006050
X+009088Y+005586
X+008985Y+005523
X+008985Y+005393
X+008985Y+005266
X+008985Y+005139
X+009088Y+005065
X+008985Y+004999
X+008985Y+004872
X+009096Y+004809
X+009199Y+004870
X+009303Y+004809
X+009414Y+004872
X+009414Y+004999
X+009310Y+005065
X+009414Y+005139
X+009414Y+005266
X+009414Y+005393
X+009303Y+005330
X+009199Y+005264
X+009096Y+005330
X+009199Y+005396
X+009199Y+005523
X+009310Y+005586
X+009414Y+005523
X+009636Y+005586
X+009739Y+005652
X+009636Y+005726
X+009636Y+005853
X+009636Y+005980
X+009747Y+005916
X+009850Y+005982
X+009954Y+005916
X+009850Y+005850
X+009850Y+005716
X+009850Y+005589
X+009961Y+005652
X+010065Y+005586
X+010065Y+005459
X+009954Y+005396
X+009850Y+005457
X+009747Y+005396
X+009636Y+005459
X+010065Y+005726
X+010065Y+005853
X+010065Y+005980
X+010065Y+006109
X+009961Y+006173
X+009850Y+006109
X+009739Y+006173
X+009636Y+006109
X+009420Y+006317
X+009420Y+006444
X+009420Y+006571
X+009420Y+006701
X+009317Y+006764
X+009206Y+006701
X+009094Y+006764
X+008992Y+006701
X+008463Y+005485
X+008387Y+005438
X+008310Y+005390
X+008387Y+005342
X+008463Y+005390
X+008463Y+005295
X+008387Y+005247
X+008463Y+005199
X+008310Y+005295
X+009199Y+005129
X+009199Y+005002
X+009094Y+004072
X+008991Y+004008
X+008991Y+003879
X+008991Y+003752
X+008991Y+003625
X+009094Y+003551
X+008991Y+003485
X+008991Y+003358
X+009103Y+003294
X+009205Y+003355
X+009309Y+003294
X+009420Y+003358
X+009420Y+003485
X+009317Y+003551
X+009420Y+003625
X+009420Y+003752
X+009420Y+003879
X+009309Y+003815
X+009205Y+003749
X+009103Y+003815
X+009205Y+003881
X+009205Y+004008
X+009317Y+004072
X+009420Y+004008
X+009205Y+003614
X+009205Y+003487
X+009636Y+003417
X+009739Y+003480
X+009850Y+003417
X+009850Y+003290
X+009747Y+003224
X+009850Y+003158
X+009954Y+003224
X+010065Y+003160
X+010065Y+003287
X+010065Y+003417
X+009961Y+003480
X+009636Y+003287
X+009636Y+003160
X+009636Y+003033
X+009739Y+002960
X+009636Y+002894
X+009636Y+002767
X+009747Y+002703
X+009850Y+002764
X+009954Y+002703
X+010065Y+002767
X+010065Y+002894
X+009961Y+002960
X+010065Y+003033
X+009850Y+003023
X+009850Y+002896
X+009414Y+002830
X+009310Y+002894
X+009199Y+002830
X+009199Y+002703
X+009096Y+002637
X+009199Y+002571
X+009303Y+002637
X+009414Y+002574
X+009414Y+002701
X+009414Y+002447
X+009310Y+002373
X+009414Y+002307
X+009414Y+002180
X+009303Y+002117
X+009199Y+002177
X+009096Y+002117
X+008985Y+002180
X+008985Y+002307
X+009088Y+002373
X+008985Y+002447
X+008985Y+002574
X+008985Y+002701
X+008985Y+002830
X+009088Y+002894
X+009199Y+002437
X+009199Y+002310
X+008463Y+002507
X+008387Y+002555
X+008310Y+002602
X+008387Y+002650
X+008310Y+002698
X+008387Y+002745
X+008463Y+002793
X+008463Y+002698
X+008463Y+002602
X+008463Y+003399
X+008387Y+003446
X+008310Y+003494
X+008387Y+003541
X+008310Y+003589
X+008387Y+003637
X+008463Y+003684
X+008463Y+003589
X+008463Y+003494
T03
X+008150Y+001545
X+008300Y+001545
X+008450Y+001545
X+008450Y+001931
X+008300Y+001931
X+008150Y+001931
X+008148Y+002322
X+008298Y+002322
X+008448Y+002322
T04
X+003050Y+008032
X+003304Y+008032
X+007820Y+008080
X+008074Y+008080
X+008074Y+007826
X+007820Y+007826
X+007820Y+007572
X+008074Y+007572
X+008074Y+007318
X+007820Y+007318
X+007820Y+007064
X+007820Y+006810
X+008074Y+006810
X+008074Y+007064
X+008582Y+007064
X+008582Y+007318
X+008582Y+007572
X+008582Y+007826
X+008836Y+007826
X+008836Y+007572
X+008836Y+007318
X+008836Y+007064
X+009090Y+007064
X+009090Y+007318
X+009090Y+007572
X+009090Y+007826
T05
X+010249Y+008014
X+010249Y+001313
X+001659Y+001313
X+001659Y+008014
T00
M30
