G04 DipTrace 2.4.0.2*
%INTopMask.gbr*%
%MOIN*%
%ADD21R,0.0315X0.0315*%
%ADD42C,0.11*%
%ADD48R,0.0631X0.0533*%
%ADD50R,0.2147X0.4135*%
%ADD52R,0.215X0.2533*%
%ADD54R,0.1104X0.034*%
%ADD56R,0.0434X0.0474*%
%ADD58R,0.022X0.0275*%
%ADD60R,0.0275X0.022*%
%ADD62C,0.0749*%
%ADD64R,0.0749X0.0749*%
%ADD66R,0.067X0.0986*%
%ADD68R,0.0356X0.138*%
%ADD70C,0.054*%
%ADD72R,0.0986X0.051*%
%ADD74R,0.0946X0.0356*%
%ADD78R,0.0513X0.0474*%
%ADD80R,0.0474X0.0513*%
%FSLAX44Y44*%
G04*
G70*
G90*
G75*
G01*
%LNTopMask*%
%LPD*%
D80*
X26498Y27643D3*
Y26973D3*
D78*
X24428Y26403D3*
X25097D3*
D80*
X27453Y32152D3*
Y31483D3*
X26828Y32152D3*
Y31483D3*
X28078Y32152D3*
Y31483D3*
X25578Y32152D3*
Y31483D3*
X26203Y32152D3*
Y31483D3*
D21*
X4438Y30363D3*
X5028D3*
X4438Y29613D3*
X5028D3*
X4438Y28863D3*
X5028D3*
D74*
X17351Y14263D3*
Y13063D3*
Y13663D3*
D72*
X18748Y15553D3*
Y12373D3*
D74*
X17351Y14863D3*
X29525Y13663D3*
Y14863D3*
Y14263D3*
D72*
X28128Y12373D3*
Y15553D3*
D74*
X29525Y13063D3*
X29528Y17863D3*
Y19063D3*
Y18463D3*
D72*
X28131Y16573D3*
Y19753D3*
D74*
X29528Y17263D3*
X17351Y18463D3*
Y17263D3*
Y17863D3*
D72*
X18748Y19753D3*
Y16573D3*
D74*
X17351Y19063D3*
D70*
X32088Y6083D3*
X32678D3*
X33269D3*
X32088Y7603D3*
X32678D3*
X33269D3*
X32078Y9143D3*
X32668D3*
X33259D3*
D68*
X12948Y6953D3*
X11748D3*
X12348D3*
D66*
X14348Y6208D3*
X10948D3*
D68*
X13548Y6953D3*
G36*
X15874Y7750D2*
X15721Y8321D1*
X17509Y8800D1*
X17663Y8229D1*
X15874Y7750D1*
G37*
G36*
X16384Y5845D2*
X16231Y6416D1*
X18020Y6896D1*
X18173Y6324D1*
X16384Y5845D1*
G37*
G36*
X16128Y6801D2*
X15975Y7373D1*
X17764Y7852D1*
X17917Y7280D1*
X16128Y6801D1*
G37*
G36*
X18137Y10219D2*
X17933Y10981D1*
X19494Y11399D1*
X19698Y10637D1*
X18137Y10219D1*
G37*
G36*
X19374Y5602D2*
X19170Y6364D1*
X20731Y6782D1*
X20935Y6020D1*
X19374Y5602D1*
G37*
G36*
X15619Y8700D2*
X15466Y9272D1*
X17255Y9751D1*
X17408Y9180D1*
X15619Y8700D1*
G37*
G36*
X28957Y7277D2*
X29110Y7848D1*
X30899Y7369D1*
X30746Y6797D1*
X28957Y7277D1*
G37*
G36*
X29467Y9181D2*
X29621Y9753D1*
X31409Y9274D1*
X31256Y8702D1*
X29467Y9181D1*
G37*
G36*
X29211Y8225D2*
X29364Y8797D1*
X31153Y8318D1*
X31000Y7746D1*
X29211Y8225D1*
G37*
G36*
X25940Y6018D2*
X26144Y6780D1*
X27704Y6362D1*
X27500Y5600D1*
X25940Y6018D1*
G37*
G36*
X27177Y10635D2*
X27381Y11397D1*
X28941Y10979D1*
X28737Y10217D1*
X27177Y10635D1*
G37*
G36*
X28702Y6326D2*
X28855Y6897D1*
X30644Y6418D1*
X30491Y5847D1*
X28702Y6326D1*
G37*
G36*
X29364Y23330D2*
X29211Y23902D1*
X30999Y24381D1*
X31153Y23810D1*
X29364Y23330D1*
G37*
G36*
X28854Y25235D2*
X28700Y25807D1*
X30489Y26286D1*
X30642Y25715D1*
X28854Y25235D1*
G37*
G36*
X29110Y24279D2*
X28957Y24851D1*
X30745Y25330D1*
X30898Y24758D1*
X29110Y24279D1*
G37*
G36*
X27380Y20732D2*
X27176Y21494D1*
X28736Y21912D1*
X28940Y21150D1*
X27380Y20732D1*
G37*
G36*
X26143Y25349D2*
X25939Y26111D1*
X27499Y26529D1*
X27703Y25767D1*
X26143Y25349D1*
G37*
G36*
X29619Y22380D2*
X29466Y22951D1*
X31254Y23431D1*
X31407Y22859D1*
X29619Y22380D1*
G37*
G36*
X15976Y24763D2*
X16129Y25334D1*
X17917Y24855D1*
X17764Y24284D1*
X15976Y24763D1*
G37*
G36*
X15465Y22858D2*
X15618Y23430D1*
X17407Y22950D1*
X17254Y22379D1*
X15465Y22858D1*
G37*
G36*
X15721Y23814D2*
X15875Y24386D1*
X17663Y23907D1*
X17510Y23335D1*
X15721Y23814D1*
G37*
G36*
X19170Y25770D2*
X19374Y26531D1*
X20935Y26113D1*
X20731Y25352D1*
X19170Y25770D1*
G37*
G36*
X17933Y21153D2*
X18137Y21914D1*
X19698Y21496D1*
X19494Y20734D1*
X17933Y21153D1*
G37*
G36*
X16230Y25714D2*
X16384Y26285D1*
X18172Y25806D1*
X18019Y25234D1*
X16230Y25714D1*
G37*
D64*
X30788Y31813D3*
D62*
X31788D3*
X30788Y30813D3*
X31788D3*
X30788Y29813D3*
X31788D3*
X30788Y28813D3*
X31788D3*
D64*
X35788Y30813D3*
D62*
Y29813D3*
Y28813D3*
Y27813D3*
D64*
X34788Y30813D3*
D62*
Y29813D3*
Y28813D3*
Y27813D3*
D64*
X33788Y30813D3*
D62*
Y29813D3*
Y28813D3*
Y27813D3*
D80*
X15188Y31863D3*
Y32532D3*
X9858Y29933D3*
Y29263D3*
X10518Y29943D3*
Y29273D3*
X16375Y32550D3*
Y31881D3*
D78*
X15750Y28238D3*
X15081D3*
X15063Y27675D3*
X15732D3*
D80*
X9168Y29933D3*
Y29263D3*
X17000Y32550D3*
Y31881D3*
X32788Y29653D3*
Y30322D3*
Y30843D3*
Y31512D3*
X15750Y32550D3*
Y31881D3*
D78*
Y29363D3*
X15081D3*
X15063Y28800D3*
X15732D3*
D80*
X17625Y32550D3*
Y31881D3*
D78*
X15750Y30488D3*
X15081D3*
X15063Y29925D3*
X15732D3*
D60*
X23238Y26363D3*
Y26763D3*
Y26963D3*
Y26563D3*
X23638Y26963D3*
Y26763D3*
Y26563D3*
Y26363D3*
D58*
X23138Y32103D3*
X23538D3*
X23738D3*
X23338D3*
X23738Y31703D3*
X23538D3*
X23338D3*
X23138D3*
D60*
X20238Y29083D3*
Y29483D3*
Y29683D3*
Y29283D3*
X20638Y29683D3*
Y29483D3*
Y29283D3*
Y29083D3*
X26088Y30853D3*
Y30453D3*
Y30253D3*
Y30653D3*
X25688Y30253D3*
Y30453D3*
Y30653D3*
Y30853D3*
D56*
X7848Y29083D3*
X6234D3*
Y29943D3*
X7848D3*
D54*
X12855Y12573D3*
X12851Y12183D3*
Y12973D3*
Y13363D3*
X12855Y13743D3*
Y14133D3*
Y11793D3*
Y10233D3*
Y10623D3*
Y11013D3*
Y11403D3*
Y14523D3*
Y9843D3*
X12858Y14913D3*
X12855Y9453D3*
X5730Y12573D3*
X5726Y12183D3*
Y12973D3*
Y13363D3*
X5730Y13743D3*
Y14133D3*
Y11793D3*
Y10233D3*
Y10623D3*
Y11013D3*
Y11403D3*
X5728Y14523D3*
X5730Y9843D3*
X5728Y14913D3*
X5730Y9453D3*
D52*
X10489Y10543D3*
Y13823D3*
D50*
X8087Y12183D3*
D54*
X34020Y11793D3*
X34024Y12183D3*
Y11393D3*
Y11003D3*
X34020Y10623D3*
Y10233D3*
Y12573D3*
Y14133D3*
Y13743D3*
Y13353D3*
Y12963D3*
Y9843D3*
Y14523D3*
X34018Y9453D3*
X34020Y14913D3*
X41145Y11793D3*
X41149Y12183D3*
Y11393D3*
Y11003D3*
X41145Y10623D3*
Y10233D3*
Y12573D3*
Y14133D3*
Y13743D3*
Y13353D3*
Y12963D3*
X41148Y9843D3*
X41145Y14523D3*
X41148Y9453D3*
X41145Y14913D3*
D52*
X36387Y13823D3*
Y10543D3*
D50*
X38789Y12183D3*
D54*
X34020Y22393D3*
X34024Y22783D3*
Y21993D3*
Y21603D3*
X34020Y21223D3*
Y20833D3*
Y23173D3*
Y24733D3*
Y24343D3*
Y23953D3*
Y23563D3*
Y20443D3*
Y25123D3*
X34018Y20053D3*
X34020Y25513D3*
X41145Y22393D3*
X41149Y22783D3*
Y21993D3*
Y21603D3*
X41145Y21223D3*
Y20833D3*
Y23173D3*
Y24733D3*
Y24343D3*
Y23953D3*
Y23563D3*
X41148Y20443D3*
X41145Y25123D3*
X41148Y20053D3*
X41145Y25513D3*
D52*
X36387Y24423D3*
Y21143D3*
D50*
X38789Y22783D3*
D54*
X12855Y23173D3*
X12851Y22783D3*
Y23573D3*
Y23963D3*
X12855Y24343D3*
Y24733D3*
Y22393D3*
Y20833D3*
Y21223D3*
Y21613D3*
Y22003D3*
Y25123D3*
Y20443D3*
X12858Y25513D3*
X12855Y20053D3*
X5730Y23173D3*
X5726Y22783D3*
Y23573D3*
Y23963D3*
X5730Y24343D3*
Y24733D3*
Y22393D3*
Y20833D3*
Y21223D3*
Y21613D3*
Y22003D3*
X5728Y25123D3*
X5730Y20443D3*
X5728Y25513D3*
X5730Y20053D3*
D52*
X10489Y21143D3*
Y24423D3*
D50*
X8087Y22783D3*
G36*
X23440Y27791D2*
X23580Y27931D1*
X23789Y27722D1*
X23649Y27581D1*
X23440Y27791D1*
G37*
G36*
X23579Y27930D2*
X23719Y28070D1*
X23929Y27861D1*
X23789Y27721D1*
X23579Y27930D1*
G37*
G36*
X23718Y28070D2*
X23858Y28210D1*
X24068Y28000D1*
X23928Y27860D1*
X23718Y28070D1*
G37*
G36*
X23857Y28209D2*
X23997Y28349D1*
X24207Y28139D1*
X24067Y27999D1*
X23857Y28209D1*
G37*
G36*
X23996Y28348D2*
X24137Y28488D1*
X24346Y28278D1*
X24206Y28138D1*
X23996Y28348D1*
G37*
G36*
X24136Y28487D2*
X24276Y28627D1*
X24485Y28417D1*
X24345Y28277D1*
X24136Y28487D1*
G37*
G36*
X24275Y28626D2*
X24415Y28766D1*
X24625Y28557D1*
X24485Y28417D1*
X24275Y28626D1*
G37*
G36*
X24414Y28765D2*
X24554Y28906D1*
X24764Y28696D1*
X24624Y28556D1*
X24414Y28765D1*
G37*
G36*
X24553Y28905D2*
X24693Y29045D1*
X24903Y28835D1*
X24763Y28695D1*
X24553Y28905D1*
G37*
G36*
X24692Y29044D2*
X24833Y29184D1*
X25042Y28974D1*
X24902Y28834D1*
X24692Y29044D1*
G37*
G36*
X24832Y29183D2*
X24972Y29323D1*
X25181Y29113D1*
X25041Y28973D1*
X24832Y29183D1*
G37*
G36*
X24971Y29322D2*
X25111Y29462D1*
X25321Y29253D1*
X25181Y29113D1*
X24971Y29322D1*
G37*
G36*
X25111Y29461D2*
X24971Y29601D1*
X25180Y29810D1*
X25321Y29670D1*
X25111Y29461D1*
G37*
G36*
X24972Y29600D2*
X24832Y29740D1*
X25041Y29950D1*
X25181Y29809D1*
X24972Y29600D1*
G37*
G36*
X24833Y29739D2*
X24692Y29879D1*
X24902Y30089D1*
X25042Y29949D1*
X24833Y29739D1*
G37*
G36*
X24693Y29878D2*
X24553Y30018D1*
X24763Y30228D1*
X24903Y30088D1*
X24693Y29878D1*
G37*
G36*
X24554Y30017D2*
X24414Y30157D1*
X24624Y30367D1*
X24764Y30227D1*
X24554Y30017D1*
G37*
G36*
X24415Y30157D2*
X24275Y30297D1*
X24485Y30506D1*
X24625Y30366D1*
X24415Y30157D1*
G37*
G36*
X24276Y30296D2*
X24136Y30436D1*
X24345Y30645D1*
X24485Y30505D1*
X24276Y30296D1*
G37*
G36*
X24137Y30435D2*
X23996Y30575D1*
X24206Y30785D1*
X24346Y30645D1*
X24137Y30435D1*
G37*
G36*
X23997Y30574D2*
X23857Y30714D1*
X24067Y30924D1*
X24207Y30784D1*
X23997Y30574D1*
G37*
G36*
X23858Y30713D2*
X23718Y30853D1*
X23928Y31063D1*
X24068Y30923D1*
X23858Y30713D1*
G37*
G36*
X23719Y30852D2*
X23579Y30993D1*
X23789Y31202D1*
X23929Y31062D1*
X23719Y30852D1*
G37*
G36*
X23580Y30992D2*
X23440Y31132D1*
X23649Y31341D1*
X23789Y31201D1*
X23580Y30992D1*
G37*
G36*
X23092Y31201D2*
X23232Y31341D1*
X23441Y31132D1*
X23301Y30992D1*
X23092Y31201D1*
G37*
G36*
X22952Y31062D2*
X23093Y31202D1*
X23302Y30993D1*
X23162Y30853D1*
X22952Y31062D1*
G37*
G36*
X22813Y30923D2*
X22953Y31063D1*
X23163Y30853D1*
X23023Y30713D1*
X22813Y30923D1*
G37*
G36*
X22674Y30784D2*
X22814Y30924D1*
X23024Y30714D1*
X22884Y30574D1*
X22674Y30784D1*
G37*
G36*
X22535Y30645D2*
X22675Y30785D1*
X22885Y30575D1*
X22745Y30435D1*
X22535Y30645D1*
G37*
G36*
X22396Y30505D2*
X22536Y30646D1*
X22746Y30436D1*
X22605Y30296D1*
X22396Y30505D1*
G37*
G36*
X22257Y30366D2*
X22397Y30506D1*
X22606Y30297D1*
X22466Y30157D1*
X22257Y30366D1*
G37*
G36*
X22117Y30227D2*
X22257Y30367D1*
X22467Y30157D1*
X22327Y30017D1*
X22117Y30227D1*
G37*
G36*
X21978Y30088D2*
X22118Y30228D1*
X22328Y30018D1*
X22188Y29878D1*
X21978Y30088D1*
G37*
G36*
X21839Y29949D2*
X21979Y30089D1*
X22189Y29879D1*
X22049Y29739D1*
X21839Y29949D1*
G37*
G36*
X21700Y29809D2*
X21840Y29950D1*
X22050Y29740D1*
X21909Y29600D1*
X21700Y29809D1*
G37*
G36*
X21561Y29670D2*
X21701Y29810D1*
X21910Y29601D1*
X21770Y29461D1*
X21561Y29670D1*
G37*
G36*
X21701Y29113D2*
X21561Y29253D1*
X21770Y29462D1*
X21910Y29322D1*
X21701Y29113D1*
G37*
G36*
X21840Y28973D2*
X21700Y29113D1*
X21909Y29323D1*
X22050Y29183D1*
X21840Y28973D1*
G37*
G36*
X21979Y28834D2*
X21839Y28974D1*
X22049Y29184D1*
X22189Y29044D1*
X21979Y28834D1*
G37*
G36*
X22118Y28695D2*
X21978Y28835D1*
X22188Y29045D1*
X22328Y28905D1*
X22118Y28695D1*
G37*
G36*
X22257Y28556D2*
X22117Y28696D1*
X22327Y28906D1*
X22467Y28765D1*
X22257Y28556D1*
G37*
G36*
X22397Y28417D2*
X22257Y28557D1*
X22466Y28766D1*
X22606Y28626D1*
X22397Y28417D1*
G37*
G36*
X22536Y28277D2*
X22396Y28417D1*
X22605Y28627D1*
X22746Y28487D1*
X22536Y28277D1*
G37*
G36*
X22675Y28138D2*
X22535Y28278D1*
X22745Y28488D1*
X22885Y28348D1*
X22675Y28138D1*
G37*
G36*
X22814Y27999D2*
X22674Y28139D1*
X22884Y28349D1*
X23024Y28209D1*
X22814Y27999D1*
G37*
G36*
X22953Y27860D2*
X22813Y28000D1*
X23023Y28210D1*
X23163Y28070D1*
X22953Y27860D1*
G37*
G36*
X23093Y27721D2*
X22952Y27861D1*
X23162Y28070D1*
X23302Y27930D1*
X23093Y27721D1*
G37*
G36*
X23232Y27581D2*
X23092Y27722D1*
X23301Y27931D1*
X23441Y27791D1*
X23232Y27581D1*
G37*
D68*
X11548Y31568D3*
X12748Y31573D3*
X12148Y31568D3*
D66*
X9548Y32313D3*
X14148D3*
D68*
X10948Y31573D3*
X13348D3*
X10348D3*
D48*
X24878Y26993D3*
X25744D3*
Y27623D3*
X24878D3*
D64*
X31788Y26813D3*
D62*
X30788D3*
X31788Y27813D3*
X30788D3*
D42*
X40351Y31550D3*
Y5170D3*
X6531D3*
Y31550D3*
M02*
