G04 DipTrace 2.4.0.2*
%INBottom.gbr*%
%MOIN*%
%ADD13C,0.01*%
%ADD15C,0.03*%
%ADD17C,0.025*%
%ADD24C,0.046*%
%ADD27R,0.0669X0.0669*%
%ADD28C,0.0669*%
%ADD38C,0.02*%
%ADD40C,0.026*%
%FSLAX44Y44*%
G04*
G70*
G90*
G75*
G01*
%LNBottom*%
%LPD*%
X21408Y29443D2*
D13*
X21128D1*
X21078Y29393D1*
X17798D1*
X16918Y30273D1*
X11258D1*
X10628Y30903D1*
X23818Y28403D2*
X23348Y28873D1*
X23368D1*
X26948Y28263D2*
X25918D1*
X30788Y27813D2*
D15*
X31788D1*
X30788D2*
Y27683D1*
X30238Y27133D1*
Y26513D1*
X31428Y25323D1*
Y16963D1*
X29518D1*
X31428D2*
Y12633D1*
X29588D1*
X19228Y24063D2*
X18608D1*
X17388Y22843D1*
Y19593D1*
Y15643D1*
Y9783D1*
X14568Y6963D1*
X32088Y6083D2*
Y7603D1*
X31788Y26813D2*
Y9433D1*
X32078Y9143D1*
X9858Y30333D2*
D13*
X10478Y29713D1*
X16618D1*
X17838Y28493D1*
X18028Y28703D2*
X16798Y29933D1*
X10948D1*
X16758Y17263D2*
X14518D1*
X14128Y17653D1*
Y20815D1*
X14158Y20845D1*
X16758Y13073D2*
X14638D1*
X14158Y13553D1*
Y13745D1*
X25448Y26623D2*
Y27153D1*
X25058Y27543D1*
Y28243D1*
X24008Y31883D2*
X24378Y31513D1*
Y31273D1*
X22368Y27593D2*
X21848Y28113D1*
Y29673D1*
X20038Y31483D1*
X15188D1*
X4908Y12973D2*
X4858D1*
X4728Y13103D1*
Y27513D1*
X5438Y28223D1*
X16173D1*
X16158Y28238D1*
X4958Y13363D2*
X4888Y13433D1*
Y27443D1*
X5478Y28033D1*
X15948D1*
X15998Y27983D1*
X16448D1*
X17138Y27293D1*
X21678D1*
X4928Y11013D2*
X4248Y11693D1*
Y27763D1*
X5258Y28773D1*
X16468D1*
X17308Y27933D1*
X20418D1*
X41968Y11393D2*
Y11883D1*
X42478Y12393D1*
Y27663D1*
X41998Y28143D1*
X40238D1*
X35728Y32653D1*
X30138D1*
X29048Y31563D1*
X29128D1*
X41928Y11003D2*
X42638Y11713D1*
Y27733D1*
X42068Y28303D1*
X40308D1*
X35798Y32813D1*
X30068D1*
X28868Y31613D1*
Y31373D1*
X28888Y31393D1*
X32898Y31963D2*
X32528Y32333D1*
X30428D1*
X29028Y30933D1*
X26438D1*
X26418Y30913D1*
X41968Y12953D2*
X42158Y13143D1*
Y27513D1*
X41848Y27823D1*
X40098D1*
X35958Y31963D1*
X32898D1*
X26668Y30723D2*
X30038D1*
X30608Y31293D1*
X36398D1*
X40028Y27663D1*
X41778D1*
X41988Y27453D1*
Y13443D1*
X41888Y13343D1*
X14518Y29023D2*
X16238D1*
X19798Y30723D2*
Y29673D1*
X14118Y29243D2*
X16478D1*
X16920Y28800D1*
X16965D1*
X14318Y29463D2*
X16568D1*
X16918Y29113D1*
X24438Y32483D2*
X23528D1*
X29238Y32283D2*
X28788Y31833D1*
X28578D1*
X28308Y32103D1*
X22948D1*
X22798Y31953D1*
X28728Y32073D2*
X28718Y32083D1*
X28578D1*
X28388Y32273D1*
X23318D1*
X23228Y32363D1*
X4938Y11403D2*
X4408Y11933D1*
Y27683D1*
X5338Y28613D1*
X16398D1*
X17335Y27675D1*
X17348D1*
X23628Y30083D2*
Y30943D1*
X23058Y31513D1*
X22618D1*
X21388Y32743D1*
X12748D1*
X4898Y12183D2*
X4568Y12513D1*
Y27593D1*
X5428Y28453D1*
X16248D1*
X17238Y27463D1*
X21348D1*
X21668Y27783D1*
Y29533D1*
X21073Y30128D1*
X21003D1*
X19868Y31263D1*
X16368D1*
X41968Y12183D2*
Y12613D1*
X42318Y12963D1*
Y27583D1*
X41918Y27983D1*
X40168D1*
X35658Y32493D1*
X30358D1*
X29038Y31173D1*
X28618D1*
X28248Y31543D1*
X25408D1*
X24558Y30693D1*
X24108D1*
X23088Y31713D1*
X22728D1*
X22113Y32328D1*
X27878Y30513D2*
Y29933D1*
X22218Y32743D2*
X28218D1*
X28518Y32443D1*
X20808Y31093D2*
X20958D1*
X21648Y30403D1*
X23150Y29613D2*
X23208D1*
X23878Y28943D1*
X28208D1*
Y28993D1*
X21918Y27413D2*
Y25543D1*
X17908Y21533D1*
Y17883D1*
Y13663D1*
X21918Y27413D2*
X22228D1*
X22369Y27272D1*
Y25982D1*
X22558Y25793D1*
X24948D1*
X26818Y23923D1*
Y18473D1*
Y14253D1*
X31788Y31813D2*
X32068D1*
X32418Y31503D1*
X32428Y30223D2*
Y28653D1*
X32068Y28293D1*
X27858D1*
X27068Y27503D1*
X19418Y24543D2*
X19398D1*
X19358Y24583D1*
X18488D1*
X16968Y23063D1*
Y9963D1*
X13198Y6193D1*
X12548D1*
X12348Y5993D1*
X22138Y27173D2*
X22148Y27163D1*
Y25543D1*
X18188Y21583D1*
Y18453D1*
Y14273D1*
X22148Y25543D2*
X24948D1*
X26548Y23943D1*
Y17863D1*
Y13653D1*
X30788Y31813D2*
X30268D1*
X29403Y30948D1*
X30268Y30083D2*
X30118D1*
X28488Y28453D1*
X27678D1*
X27058Y27833D1*
X19178Y24373D2*
X18518D1*
X17128Y22983D1*
Y9893D1*
X13218Y5983D1*
X12968D1*
X30788Y30813D2*
X30378D1*
X28338Y28773D1*
X23748D1*
X31788Y30813D2*
X31318Y30343D1*
X30138D1*
X28408Y28613D1*
X24358D1*
X23938Y28193D1*
X23708D1*
X23268Y28633D1*
X25098Y30493D2*
X26468D1*
X27618Y29343D1*
X28678Y27433D2*
Y10733D1*
X30678Y8733D1*
X32328D1*
X32678Y9083D1*
Y9133D1*
X32668Y9143D1*
X24408Y30023D2*
X26338D1*
X27018Y29343D1*
X28158Y27453D2*
Y10403D1*
X31618Y6943D1*
Y5873D1*
X31848Y5643D1*
X32298D1*
X32678Y6023D1*
Y6083D1*
X24773Y30498D2*
X24998Y30273D1*
X26388D1*
X27318Y29343D1*
X28418Y27443D2*
Y10553D1*
X30682Y8289D1*
X31992D1*
X32678Y7603D1*
X21238Y29233D2*
X17728D1*
X16868Y30093D1*
X11138D1*
X10958Y30273D1*
X21248Y29653D2*
X21188D1*
X19898Y30943D1*
X12398D1*
X23128Y29953D2*
X23968Y29113D1*
X27938D1*
X28048Y29223D1*
D38*
X21408Y29443D3*
X10628Y30903D3*
X23818Y28403D3*
X23368Y28873D3*
X26948Y28263D3*
X25918D3*
X29588Y12633D3*
X29518Y16963D3*
X19228Y24063D3*
X17388Y15643D3*
Y19593D3*
X14568Y6963D3*
X9858Y30333D3*
X17838Y28493D3*
X18028Y28703D3*
X10948Y29933D3*
X16758Y17263D3*
Y13073D3*
X25448Y26623D3*
X25058Y28243D3*
X24008Y31883D3*
X24378Y31273D3*
X22368Y27593D3*
X15188Y31483D3*
X4908Y12973D3*
X16158Y28238D3*
X4958Y13363D3*
X21678Y27293D3*
X4928Y11013D3*
X20418Y27933D3*
X41968Y11393D3*
X29128Y31563D3*
X41928Y11003D3*
X28888Y31393D3*
X32898Y31963D3*
X26418Y30913D3*
X41968Y12953D3*
X32898Y31963D3*
X26668Y30723D3*
X41888Y13343D3*
X14518Y29023D3*
X16238D3*
X19798Y30723D3*
Y29673D3*
X14118Y29243D3*
X16965Y28800D3*
X14318Y29463D3*
X16918Y29113D3*
X24438Y32483D3*
X23528D3*
X29238Y32283D3*
X22798Y31953D3*
X28728Y32073D3*
X23228Y32363D3*
X4938Y11403D3*
X17348Y27675D3*
X23628Y30083D3*
X12748Y32743D3*
D3*
X4898Y12183D3*
X21073Y30128D3*
X16368Y31263D3*
X41968Y12183D3*
X24558Y30693D3*
X22113Y32328D3*
X27878Y30513D3*
Y29933D3*
X22218Y32743D3*
X28518Y32443D3*
X20808Y31093D3*
X21648Y30403D3*
X23150Y29613D3*
X28208Y28993D3*
X21918Y27413D3*
X17908Y17883D3*
Y13663D3*
X26818Y18473D3*
X21918Y27413D3*
X26818Y14253D3*
X32418Y31503D3*
X32428Y30223D3*
X27068Y27503D3*
X19418Y24543D3*
X12348Y5993D3*
X22138Y27173D3*
X18188Y18453D3*
Y14273D3*
X26548Y17863D3*
Y13653D3*
X29403Y30948D3*
X30268Y30083D3*
X27058Y27833D3*
X19178Y24373D3*
X12968Y5983D3*
X23748Y28773D3*
X23268Y28633D3*
X25098Y30493D3*
X27618Y29343D3*
X28678Y27433D3*
X24408Y30023D3*
X27018Y29343D3*
X28158Y27453D3*
X24773Y30498D3*
X27318Y29343D3*
X28418Y27443D3*
X21238Y29233D3*
X10958Y30273D3*
X21248Y29653D3*
X12398Y30943D3*
X23128Y29953D3*
X28048Y29223D3*
X23338Y28093D3*
D40*
X13558Y21595D3*
Y21220D3*
Y20845D3*
Y20470D3*
X13858Y21408D3*
X14158Y21220D3*
X13858Y21033D3*
X14158Y20845D3*
X13858Y20658D3*
X13558Y14495D3*
Y14120D3*
Y13745D3*
Y13370D3*
X13858Y14308D3*
X14158Y14120D3*
X13858Y13933D3*
X14158Y13745D3*
X13858Y13558D3*
X13558Y10985D3*
Y10610D3*
Y10235D3*
Y9860D3*
X13858Y10798D3*
X14158Y10610D3*
X13858Y10423D3*
X14158Y10235D3*
X13858Y10048D3*
X33318Y23980D3*
Y24355D3*
Y24730D3*
Y25105D3*
X33018Y24168D3*
X32718Y24355D3*
X33018Y24543D3*
X32718Y24730D3*
X33018Y24918D3*
X33318Y20470D3*
Y20845D3*
Y21220D3*
Y21595D3*
X33018Y20658D3*
X32718Y20845D3*
X33018Y21033D3*
X32718Y21220D3*
X33018Y21408D3*
X33318Y13380D3*
Y13755D3*
Y14130D3*
Y14505D3*
X33018Y13568D3*
X32718Y13755D3*
X33018Y13943D3*
X32718Y14130D3*
X33018Y14318D3*
X13558Y25103D3*
Y24728D3*
Y24353D3*
Y23978D3*
X13858Y24915D3*
X14158Y24728D3*
X13858Y24540D3*
X14158Y24353D3*
X13858Y24165D3*
X33318Y9870D3*
Y10245D3*
Y10620D3*
Y10995D3*
X33018Y10058D3*
X32718Y10245D3*
X33018Y10433D3*
X32718Y10620D3*
X33018Y10808D3*
X11055Y26633D3*
X11493Y25883D3*
Y26383D3*
X9805Y25883D3*
Y26383D3*
X10243Y26633D3*
X10650Y26393D3*
X10213Y25623D3*
X10650Y25873D3*
Y25373D3*
X11088Y25623D3*
X11493Y24333D3*
Y25333D3*
Y24833D3*
X11055Y24583D3*
X9805Y24333D3*
Y25333D3*
Y24833D3*
X10243Y24583D3*
X10650Y24843D3*
X9805Y23823D3*
X10650Y24323D3*
Y23823D3*
X11088Y23573D3*
X10213D3*
X11493Y23823D3*
X11025Y11393D3*
X11463Y10643D3*
Y11143D3*
X9775Y10643D3*
Y11143D3*
X10213Y11393D3*
X10620Y11153D3*
X10183Y10383D3*
X10620Y10633D3*
Y10133D3*
X11058Y10383D3*
X11463Y9093D3*
Y10093D3*
Y9593D3*
X11025Y9343D3*
X9775Y9093D3*
Y10093D3*
Y9593D3*
X10213Y9343D3*
X10620Y9603D3*
X9775Y8583D3*
X10620Y9083D3*
Y8583D3*
X11058Y8333D3*
X10183D3*
X11463Y8583D3*
X11050Y16030D3*
X11488Y15280D3*
Y15780D3*
X9800Y15280D3*
Y15780D3*
X10238Y16030D3*
X10645Y15790D3*
X10208Y15020D3*
X10645Y15270D3*
Y14770D3*
X11083Y15020D3*
X11488Y13730D3*
Y14730D3*
Y14230D3*
X11050Y13980D3*
X9800Y13730D3*
Y14730D3*
Y14230D3*
X10238Y13980D3*
X10645Y14240D3*
X9800Y13220D3*
X10645Y13720D3*
Y13220D3*
X11083Y12970D3*
X10208D3*
X11488Y13220D3*
X8488Y13720D3*
X8925Y12970D3*
Y13470D3*
X7238Y12970D3*
X7237Y13470D3*
X7675Y13720D3*
X8083Y13480D3*
X7645Y12710D3*
X8083Y12960D3*
Y12460D3*
X8520Y12710D3*
X8925Y11420D3*
Y12420D3*
Y11920D3*
X8488Y11670D3*
X7238Y11420D3*
Y12420D3*
Y11920D3*
X7675Y11670D3*
X8083Y11930D3*
X7238Y10910D3*
X8083Y11410D3*
Y10910D3*
X8520Y10660D3*
X7645D3*
X8925Y10910D3*
X8493Y24323D3*
X8930Y23573D3*
Y24073D3*
X7243Y23573D3*
X7242Y24073D3*
X7680Y24323D3*
X8088Y24083D3*
X7650Y23313D3*
X8088Y23563D3*
Y23063D3*
X8525Y23313D3*
X8930Y22023D3*
Y23023D3*
Y22523D3*
X8493Y22273D3*
X7243Y22023D3*
Y23023D3*
Y22523D3*
X7680Y22273D3*
X8088Y22533D3*
X11031Y21995D3*
X11468Y21245D3*
X7243Y21513D3*
X11468Y21745D3*
X8088Y22013D3*
Y21513D3*
X8525Y21263D3*
X7650D3*
X9781Y21245D3*
X8930Y21513D3*
X9781Y21745D3*
X10218Y21995D3*
X10626Y21755D3*
X10188Y20985D3*
X10626Y21235D3*
Y20735D3*
X11063Y20985D3*
X11468Y19695D3*
Y20695D3*
Y20195D3*
X11031Y19945D3*
X9781Y19695D3*
Y20695D3*
Y20195D3*
X10218Y19945D3*
X10626Y20205D3*
X9781Y19185D3*
X10626Y19685D3*
Y19185D3*
X11063Y18935D3*
X10188D3*
X11468Y19185D3*
X35837Y12970D3*
X35399Y13720D3*
Y13220D3*
X37087Y13720D3*
Y13220D3*
X36649Y12970D3*
X36242Y13210D3*
X36679Y13980D3*
X36242Y13730D3*
Y14230D3*
X35804Y13980D3*
X35399Y15270D3*
Y14270D3*
Y14770D3*
X35837Y15020D3*
X37087Y15270D3*
Y14270D3*
Y14770D3*
X36649Y15020D3*
X36242Y14760D3*
X37087Y15780D3*
X36242Y15280D3*
Y15780D3*
X35804Y16030D3*
X36679D3*
X35399Y15780D3*
X35812Y8333D3*
X35375Y9083D3*
Y8583D3*
X37062Y9083D3*
Y8583D3*
X36625Y8333D3*
X36217Y8573D3*
X36655Y9343D3*
X36217Y9093D3*
Y9593D3*
X35780Y9343D3*
X35375Y10633D3*
Y9633D3*
Y10133D3*
X35812Y10383D3*
X37062Y10633D3*
Y9633D3*
Y10133D3*
X36625Y10383D3*
X36217Y10123D3*
X37062Y11143D3*
X36217Y10643D3*
Y11143D3*
X35780Y11393D3*
X36655D3*
X35375Y11143D3*
X38375Y10643D3*
X37937Y11393D3*
Y10893D3*
X39625Y11393D3*
Y10893D3*
X39187Y10643D3*
X38780Y10883D3*
X39217Y11653D3*
X38780Y11403D3*
Y11903D3*
X38342Y11653D3*
X37937Y12943D3*
Y11943D3*
Y12443D3*
X38375Y12693D3*
X39625Y12943D3*
Y11943D3*
Y12443D3*
X39187Y12693D3*
X38780Y12433D3*
X39625Y13453D3*
X38780Y12953D3*
Y13453D3*
X38342Y13703D3*
X39217D3*
X37937Y13453D3*
X35838Y23570D3*
X35400Y24320D3*
Y23820D3*
X37088Y24320D3*
Y23820D3*
X36650Y23570D3*
X36243Y23810D3*
X36680Y24580D3*
X36243Y24330D3*
Y24830D3*
X35805Y24580D3*
X35400Y25870D3*
Y24870D3*
Y25370D3*
X35838Y25620D3*
X37088Y25870D3*
Y24870D3*
Y25370D3*
X36650Y25620D3*
X36243Y25360D3*
X37088Y26380D3*
X36243Y25880D3*
Y26380D3*
X35805Y26630D3*
X36680D3*
X35400Y26380D3*
X35813Y18933D3*
X35375Y19683D3*
Y19183D3*
X37063Y19683D3*
Y19183D3*
X36625Y18933D3*
X36218Y19173D3*
X36655Y19943D3*
X36218Y19693D3*
Y20193D3*
X35780Y19943D3*
X35375Y21233D3*
Y20233D3*
Y20733D3*
X35813Y20983D3*
X37063Y21233D3*
Y20233D3*
Y20733D3*
X36625Y20983D3*
X36218Y20723D3*
X37063Y21743D3*
X36218Y21243D3*
Y21743D3*
X35780Y21993D3*
X36655D3*
X35375Y21743D3*
X38375Y21243D3*
X37938Y21993D3*
Y21493D3*
X39625Y21993D3*
X39626Y21493D3*
X39188Y21243D3*
X38780Y21483D3*
X39218Y22253D3*
X38780Y22003D3*
Y22503D3*
X38343Y22253D3*
X37938Y23543D3*
Y22543D3*
Y23043D3*
X38375Y23293D3*
X39625Y23543D3*
Y22543D3*
Y23043D3*
X39188Y23293D3*
X38780Y23033D3*
X39625Y24053D3*
X38780Y23553D3*
Y24053D3*
X38343Y24303D3*
X39218D3*
X37938Y24053D3*
D38*
X5938Y9063D3*
X5438D3*
Y8563D3*
X5938D3*
X5438Y8063D3*
X5938D3*
Y16273D3*
X5438D3*
Y15773D3*
X5938D3*
X5438Y15273D3*
X5938D3*
Y19533D3*
X5438D3*
Y19033D3*
X5938D3*
X5438Y18533D3*
X5938D3*
Y26913D3*
X5438D3*
Y26413D3*
X5938D3*
X5438Y25913D3*
X5938D3*
X41598Y8953D3*
X41098D3*
Y8453D3*
X41598D3*
X41098Y7953D3*
X41598D3*
Y16253D3*
X41098D3*
Y15753D3*
X41598D3*
X41098Y15253D3*
X41598D3*
X41618Y19483D3*
X41118D3*
Y18983D3*
X41618D3*
X41118Y18483D3*
X41618D3*
X41558Y26823D3*
X41058D3*
Y26323D3*
X41558D3*
X41058Y25823D3*
X41558D3*
X20438Y23363D3*
Y22363D3*
Y21363D3*
Y20363D3*
Y19363D3*
Y17363D3*
Y18363D3*
Y16363D3*
Y15363D3*
Y14363D3*
Y13363D3*
Y12363D3*
Y11363D3*
Y10363D3*
Y9363D3*
X19438D3*
Y13363D3*
Y14363D3*
Y17363D3*
Y18363D3*
Y20363D3*
X27438Y23363D3*
Y22363D3*
X20438Y8363D3*
X27438Y20363D3*
Y19363D3*
X21438Y8363D3*
X27438Y17363D3*
Y16363D3*
Y15363D3*
X22438Y8363D3*
X27438Y13363D3*
Y12363D3*
X24438Y8363D3*
X25438D3*
X26438D3*
Y9363D3*
Y10363D3*
Y11363D3*
Y12363D3*
Y13363D3*
X25438Y9363D3*
X21438D3*
X4448Y30733D3*
X11538Y32483D3*
X18048Y32473D3*
X22218Y29573D3*
X23338Y30613D3*
X29438Y11363D3*
Y15363D3*
Y16363D3*
X30438D3*
X29438Y20363D3*
X18438Y22363D3*
Y23363D3*
X19438Y25363D3*
X20438D3*
Y26363D3*
X11738Y5923D3*
X18438Y26363D3*
X16438Y27363D3*
X32706Y28989D2*
D17*
X36367D1*
X32706Y28740D2*
X36367D1*
X32647Y28492D2*
X36367D1*
X32401Y28243D2*
X36367D1*
X32397Y27994D2*
X36367D1*
X32397Y27746D2*
X36367D1*
X32397Y27497D2*
X34437D1*
X32397Y27248D2*
X34437D1*
X32397Y27000D2*
X34437D1*
X32397Y26751D2*
X34441D1*
X32397Y26502D2*
X34441D1*
X32397Y26253D2*
X34441D1*
X29218Y26005D2*
X30222D1*
X32175D2*
X34441D1*
X29214Y25756D2*
X30472D1*
X32175D2*
X34441D1*
X29214Y25507D2*
X30722D1*
X32175D2*
X34441D1*
X29214Y25259D2*
X30968D1*
X32175D2*
X34441D1*
X29210Y25010D2*
X31062D1*
X32175D2*
X34445D1*
X29210Y24761D2*
X31062D1*
X32175D2*
X34445D1*
X29210Y24513D2*
X31062D1*
X32175D2*
X34445D1*
X29206Y24264D2*
X31062D1*
X32175D2*
X34445D1*
X29206Y24015D2*
X31062D1*
X32175D2*
X34445D1*
X29206Y23767D2*
X31062D1*
X32175D2*
X34445D1*
X29202Y23518D2*
X31062D1*
X32175D2*
X34445D1*
X29202Y23269D2*
X31062D1*
X32175D2*
X34445D1*
X29198Y23021D2*
X31062D1*
X32175D2*
X34449D1*
X29198Y22772D2*
X31062D1*
X32175D2*
X34449D1*
X29198Y22523D2*
X31062D1*
X32175D2*
X34449D1*
X29194Y22274D2*
X31062D1*
X32175D2*
X34449D1*
X29194Y22026D2*
X31062D1*
X32175D2*
X34449D1*
X29194Y21777D2*
X31062D1*
X32175D2*
X34449D1*
X29190Y21528D2*
X31062D1*
X32175D2*
X34449D1*
X29190Y21280D2*
X31062D1*
X32175D2*
X34453D1*
X29190Y21031D2*
X31062D1*
X32175D2*
X34453D1*
X29186Y20782D2*
X31062D1*
X32175D2*
X34453D1*
X29186Y20534D2*
X31062D1*
X32175D2*
X34453D1*
X29182Y20285D2*
X31062D1*
X32175D2*
X34453D1*
X29182Y20036D2*
X31062D1*
X32175D2*
X34453D1*
X29182Y19788D2*
X31062D1*
X32175D2*
X34453D1*
X29178Y19539D2*
X31062D1*
X32175D2*
X34453D1*
X29178Y19290D2*
X31062D1*
X32175D2*
X34457D1*
X29178Y19042D2*
X31062D1*
X32175D2*
X34457D1*
X29175Y18793D2*
X31062D1*
X32175D2*
X34457D1*
X29175Y18544D2*
X31062D1*
X32175D2*
X34457D1*
X29175Y18295D2*
X31062D1*
X32175D2*
X34457D1*
X29171Y18047D2*
X31062D1*
X32175D2*
X34457D1*
X29171Y17798D2*
X31062D1*
X32175D2*
X34457D1*
X29167Y17549D2*
X31062D1*
X32175D2*
X34460D1*
X29167Y17301D2*
X29394D1*
X32175D2*
X34460D1*
X32175Y17052D2*
X34460D1*
X32175Y16803D2*
X34460D1*
X29163Y16555D2*
X31062D1*
X32175D2*
X34460D1*
X29163Y16306D2*
X31062D1*
X32175D2*
X34460D1*
X29159Y16057D2*
X31062D1*
X32175D2*
X34460D1*
X29159Y15809D2*
X31062D1*
X32175D2*
X34464D1*
X29159Y15560D2*
X31062D1*
X32175D2*
X34464D1*
X29155Y15311D2*
X31062D1*
X32175D2*
X34464D1*
X29155Y15063D2*
X31062D1*
X32175D2*
X34464D1*
X29151Y14814D2*
X31062D1*
X32175D2*
X34464D1*
X29151Y14565D2*
X31062D1*
X32175D2*
X34464D1*
X29151Y14316D2*
X31062D1*
X32175D2*
X34464D1*
X29147Y14068D2*
X31062D1*
X32175D2*
X34464D1*
X29147Y13819D2*
X31062D1*
X32175D2*
X34468D1*
X29147Y13570D2*
X31062D1*
X32175D2*
X34468D1*
X29143Y13322D2*
X31062D1*
X32175D2*
X34468D1*
X29143Y13073D2*
X31062D1*
X32175D2*
X34468D1*
X32175Y12824D2*
X34468D1*
X32175Y12576D2*
X34468D1*
X29139Y12327D2*
X29390D1*
X32175D2*
X34468D1*
X29135Y12078D2*
X31421D1*
X32175D2*
X34472D1*
X29135Y11830D2*
X31421D1*
X32175D2*
X34472D1*
X29135Y11581D2*
X31421D1*
X32175D2*
X34472D1*
X29132Y11332D2*
X31421D1*
X32175D2*
X34472D1*
X29132Y11084D2*
X31421D1*
X32175D2*
X34472D1*
X29132Y10835D2*
X31421D1*
X32175D2*
X34472D1*
X29206Y10586D2*
X31421D1*
X32175D2*
X34472D1*
X29456Y10337D2*
X31421D1*
X32175D2*
X34476D1*
X29702Y10089D2*
X31421D1*
X32175D2*
X34476D1*
X29952Y9840D2*
X31421D1*
X32175D2*
X34476D1*
X30202Y9591D2*
X31421D1*
X32175D2*
X34476D1*
X30448Y9343D2*
X31429D1*
X33077D2*
X34476D1*
X30698Y9094D2*
X31605D1*
X33124D2*
X34476D1*
X33007Y8845D2*
X34476D1*
X32155Y9566D2*
X32283Y9523D1*
X32374Y9455D1*
X32403Y9484D1*
X32511Y9545D1*
X32633Y9573D1*
X32757Y9566D1*
X32874Y9523D1*
X32974Y9448D1*
X33048Y9348D1*
X33091Y9231D1*
X33100Y9143D1*
X33082Y9019D1*
X33030Y8906D1*
X32948Y8813D1*
X32842Y8747D1*
X32816Y8740D1*
X34503Y8738D1*
X34463Y27382D1*
X34524Y27488D1*
X34588Y27508D1*
X36393D1*
Y29238D1*
X32678D1*
X32680Y28653D1*
X32647Y28530D1*
X32606Y28475D1*
X32373Y28238D1*
Y26203D1*
X32312Y26097D1*
X32248Y26078D1*
X32150D1*
Y9567D1*
X31649Y9073D2*
X31549Y9174D1*
X31478Y9276D1*
X31446Y9423D1*
Y12278D1*
X30688Y12281D1*
X29588D1*
X29466Y12303D1*
X29358Y12366D1*
X29280Y12462D1*
X29240Y12580D1*
X29243Y12704D1*
X29290Y12820D1*
X29373Y12912D1*
X29484Y12969D1*
X29588Y12985D1*
X31086Y12988D1*
Y16613D1*
X30063Y16611D1*
X29518D1*
X29396Y16633D1*
X29288Y16696D1*
X29210Y16792D1*
X29170Y16910D1*
X29173Y17034D1*
X29220Y17150D1*
X29303Y17242D1*
X29414Y17299D1*
X29518Y17315D1*
X31086Y17318D1*
X31087Y25166D1*
X30175Y26078D1*
X29192Y26077D1*
X29104Y10659D1*
X30005Y9762D1*
X30781Y8986D1*
X31681Y8983D1*
X31656Y9064D1*
X31553Y8985D1*
X31674D1*
X37740Y26409D2*
X40358D1*
X37740Y26160D2*
X40358D1*
X37740Y25912D2*
X40358D1*
X37740Y25663D2*
X40358D1*
X37740Y25414D2*
X40358D1*
X37740Y25166D2*
X40362D1*
X37740Y24917D2*
X40362D1*
X37740Y24668D2*
X40362D1*
X37740Y24420D2*
X40362D1*
X37740Y24171D2*
X40362D1*
X37740Y23922D2*
X40362D1*
X37740Y23673D2*
X40362D1*
X37744Y23425D2*
X40362D1*
X37744Y23176D2*
X40362D1*
X37744Y22927D2*
X40362D1*
X37744Y22679D2*
X40362D1*
X37744Y22430D2*
X40362D1*
X37744Y22181D2*
X40362D1*
X37744Y21933D2*
X40366D1*
X37744Y21684D2*
X40366D1*
X37744Y21435D2*
X40366D1*
X37744Y21187D2*
X40366D1*
X37744Y20938D2*
X40366D1*
X37744Y20689D2*
X40366D1*
X37748Y20441D2*
X40366D1*
X37748Y20192D2*
X40366D1*
X37748Y19943D2*
X40366D1*
X37748Y19694D2*
X40366D1*
X37748Y19446D2*
X40366D1*
X37748Y19197D2*
X40366D1*
X37748Y18948D2*
X40370D1*
X37713Y26654D2*
X37723Y18928D1*
X40391D1*
X40386Y24178D1*
X40383Y26658D1*
X37715D1*
X34826Y22329D2*
X37366D1*
X40740D2*
X41709D1*
X34826Y22080D2*
X37366D1*
X40740D2*
X41709D1*
X34826Y21832D2*
X37366D1*
X40740D2*
X41709D1*
X34826Y21583D2*
X37366D1*
X40740D2*
X41709D1*
X34826Y21334D2*
X37370D1*
X40740D2*
X41709D1*
X34830Y21086D2*
X37370D1*
X40744D2*
X41709D1*
X34830Y20837D2*
X37370D1*
X40744D2*
X41709D1*
X34830Y20588D2*
X37370D1*
X40744D2*
X41709D1*
X34830Y20340D2*
X37370D1*
X40744D2*
X41709D1*
X34830Y20091D2*
X37370D1*
X40744D2*
X41709D1*
X34830Y19842D2*
X37370D1*
X40744D2*
X41709D1*
X34830Y19593D2*
X37370D1*
X40744D2*
X41709D1*
X34834Y19345D2*
X37370D1*
X40744D2*
X41709D1*
X34834Y19096D2*
X37370D1*
X40744D2*
X41709D1*
X34834Y18847D2*
X37370D1*
X40744D2*
X41709D1*
X34834Y18599D2*
X41709D1*
X34834Y18350D2*
X41709D1*
X34834Y18101D2*
X41709D1*
X34834Y17853D2*
X41709D1*
X34800Y22559D2*
X34811Y17637D1*
X36358Y17635D1*
X41737D1*
X41736Y22564D1*
X40716Y22561D1*
X40720Y18803D1*
X40683Y18686D1*
X40580Y18612D1*
X40518Y18601D1*
X37598D1*
X37481Y18638D1*
X37407Y18740D1*
X37396Y18802D1*
X37391Y22564D1*
X36993Y22561D1*
X34801D1*
X34816Y26999D2*
X41712D1*
X34816Y26750D2*
X37360D1*
X40734D2*
X41712D1*
X34816Y26502D2*
X37360D1*
X40734D2*
X41712D1*
X34816Y26253D2*
X37360D1*
X40734D2*
X41712D1*
X34816Y26004D2*
X37364D1*
X40734D2*
X41712D1*
X34820Y25756D2*
X37364D1*
X40734D2*
X41712D1*
X34820Y25507D2*
X37364D1*
X40738D2*
X41712D1*
X34820Y25258D2*
X37364D1*
X40738D2*
X41712D1*
X34820Y25010D2*
X37364D1*
X40738D2*
X41712D1*
X34820Y24761D2*
X37364D1*
X40738D2*
X41712D1*
X34820Y24512D2*
X37364D1*
X40738D2*
X41712D1*
X34820Y24263D2*
X37364D1*
X40738D2*
X41712D1*
X34820Y24015D2*
X37364D1*
X40738D2*
X41712D1*
X34824Y23766D2*
X37364D1*
X40738D2*
X41712D1*
X34824Y23517D2*
X37364D1*
X40738D2*
X41712D1*
X34824Y23269D2*
X37364D1*
X40738D2*
X41712D1*
X34824Y23020D2*
X37364D1*
X40738D2*
X41712D1*
X36393Y27181D2*
X34787D1*
X34792Y26258D1*
X34799Y22887D1*
X37391Y22888D1*
X37386Y26782D1*
X37423Y26900D1*
X37525Y26974D1*
X37588Y26985D1*
X40508D1*
X40625Y26947D1*
X40699Y26845D1*
X40710Y26783D1*
X40715Y22888D1*
X41735D1*
X41736Y27251D1*
X40868Y27248D1*
X36669D1*
X36643Y27224D1*
X36518Y27181D1*
X36393D1*
X37778Y15729D2*
X40396D1*
X37778Y15480D2*
X40396D1*
X37778Y15232D2*
X40396D1*
X37778Y14983D2*
X40396D1*
X37778Y14734D2*
X40396D1*
X37778Y14486D2*
X40396D1*
X37774Y14237D2*
X40396D1*
X37774Y13988D2*
X40396D1*
X37774Y13740D2*
X40396D1*
X37774Y13491D2*
X40396D1*
X37774Y13242D2*
X40396D1*
X37774Y12993D2*
X40396D1*
X37774Y12745D2*
X40396D1*
X37774Y12496D2*
X40392D1*
X37774Y12247D2*
X40392D1*
X37774Y11999D2*
X40392D1*
X37774Y11750D2*
X40392D1*
X37774Y11501D2*
X40392D1*
X37770Y11253D2*
X40392D1*
X37770Y11004D2*
X40392D1*
X37770Y10755D2*
X40392D1*
X37770Y10507D2*
X40392D1*
X37770Y10258D2*
X40392D1*
X37770Y10009D2*
X40392D1*
X37770Y9761D2*
X40392D1*
X37770Y9512D2*
X40388D1*
X37770Y9263D2*
X40388D1*
X37770Y9014D2*
X40388D1*
X37770Y8766D2*
X40388D1*
X37770Y8517D2*
X40388D1*
X37770Y8268D2*
X40388D1*
X37753Y15981D2*
X37743Y8247D1*
X40413Y8248D1*
X40423Y15978D1*
X37755D1*
X34838Y17059D2*
X41710D1*
X34838Y16810D2*
X41710D1*
X34838Y16562D2*
X41710D1*
X34838Y16313D2*
X41710D1*
X34838Y16064D2*
X37401D1*
X40775D2*
X41710D1*
X34838Y15816D2*
X37401D1*
X40775D2*
X41710D1*
X34842Y15567D2*
X37401D1*
X40775D2*
X41710D1*
X34842Y15318D2*
X37401D1*
X40775D2*
X41710D1*
X34842Y15070D2*
X37401D1*
X40772D2*
X41710D1*
X34842Y14821D2*
X37401D1*
X40772D2*
X41710D1*
X34842Y14572D2*
X37397D1*
X40772D2*
X41710D1*
X34842Y14323D2*
X37397D1*
X40772D2*
X41710D1*
X34842Y14075D2*
X37397D1*
X40772D2*
X41710D1*
X34842Y13826D2*
X37397D1*
X40772D2*
X41710D1*
X34846Y13577D2*
X37397D1*
X40772D2*
X41675D1*
X34846Y13329D2*
X37397D1*
X40772D2*
X41561D1*
X34846Y13080D2*
X37397D1*
X40772D2*
X41671D1*
X34846Y12831D2*
X37397D1*
X40772D2*
X41667D1*
X34846Y12583D2*
X37397D1*
X40772D2*
X41690D1*
X34846Y12334D2*
X37397D1*
X40772D2*
X41683D1*
X34811Y17309D2*
X34822Y12325D1*
X35628Y12328D1*
X37421D1*
X37426Y16103D1*
X37464Y16220D1*
X37566Y16294D1*
X37628Y16305D1*
X40548D1*
X40665Y16267D1*
X40739Y16165D1*
X40750Y16102D1*
X40745Y12325D1*
X41503Y12328D1*
X41702D1*
X41719Y12352D1*
X41716Y12613D1*
X41749Y12735D1*
X41675Y12880D1*
X41670Y13004D1*
X41709Y13101D1*
X41649Y13158D1*
X41595Y13270D1*
X41590Y13394D1*
X41636Y13509D1*
X41735Y13601D1*
X41736Y17306D1*
X34868Y17308D1*
X34809D1*
X34846Y11769D2*
X37394D1*
X40768D2*
X41691D1*
X34850Y11520D2*
X37394D1*
X40768D2*
X41671D1*
X34850Y11272D2*
X37394D1*
X40768D2*
X41667D1*
X34850Y11023D2*
X37394D1*
X40768D2*
X41601D1*
X42331D2*
X42519D1*
X34850Y10774D2*
X37394D1*
X40768D2*
X41706D1*
X42151D2*
X42519D1*
X34850Y10526D2*
X37394D1*
X40768D2*
X42519D1*
X34850Y10277D2*
X37394D1*
X40768D2*
X42519D1*
X34850Y10028D2*
X37394D1*
X40768D2*
X42519D1*
X34854Y9780D2*
X37394D1*
X40768D2*
X42519D1*
X34854Y9531D2*
X37394D1*
X40768D2*
X42519D1*
X34854Y9282D2*
X37394D1*
X40768D2*
X42519D1*
X34854Y9033D2*
X37394D1*
X40764D2*
X42519D1*
X34854Y8785D2*
X37390D1*
X40764D2*
X42519D1*
X34838Y8536D2*
X37390D1*
X40764D2*
X42519D1*
X34778Y8287D2*
X37390D1*
X40764D2*
X42519D1*
X34778Y8039D2*
X37410D1*
X40745D2*
X42519D1*
X34778Y7790D2*
X42519D1*
X34823Y12004D2*
X34830Y8613D1*
X34790Y8494D1*
X34819Y8552D1*
X34753Y8393D1*
Y7545D1*
X36378Y7550D1*
X42543Y7558D1*
Y11265D1*
X42222Y10941D1*
X42204Y10881D1*
X42132Y10780D1*
X42025Y10717D1*
X41902Y10702D1*
X41783Y10738D1*
X41689Y10818D1*
X41635Y10930D1*
X41630Y11054D1*
X41676Y11169D1*
X41723Y11215D1*
X41675Y11320D1*
X41670Y11444D1*
X41719Y11562D1*
Y11917D1*
X41667Y11983D1*
X40742Y11987D1*
X40744Y11602D1*
X40740Y8122D1*
X40702Y8005D1*
X40600Y7932D1*
X40538Y7921D1*
X37618D1*
X37501Y7958D1*
X37427Y8060D1*
X37416Y8123D1*
X37421Y12002D1*
X34824Y12001D1*
X12657Y27119D2*
X16931D1*
X12657Y26870D2*
X21357D1*
X12657Y26622D2*
X21357D1*
X12657Y26373D2*
X21357D1*
X12657Y26124D2*
X21357D1*
X12653Y25876D2*
X21357D1*
X12653Y25627D2*
X21357D1*
X12653Y25378D2*
X21357D1*
X12653Y25130D2*
X21123D1*
X12653Y24881D2*
X20877D1*
X12653Y24632D2*
X18158D1*
X19731D2*
X20627D1*
X12653Y24383D2*
X17908D1*
X19700D2*
X20377D1*
X12653Y24135D2*
X17658D1*
X19599D2*
X20131D1*
X21122D2*
X21357D1*
X12653Y23886D2*
X17412D1*
X19556D2*
X19881D1*
X20872D2*
X21357D1*
X12653Y23637D2*
X17162D1*
X18704D2*
X19631D1*
X20622D2*
X21357D1*
X12649Y23389D2*
X16912D1*
X18458D2*
X19385D1*
X20376D2*
X21357D1*
X12649Y23140D2*
X16705D1*
X18208D2*
X19135D1*
X20126D2*
X21357D1*
X12649Y22891D2*
X16689D1*
X17958D2*
X18885D1*
X19876D2*
X21357D1*
X12649Y22643D2*
X16689D1*
X17767D2*
X18638D1*
X19630D2*
X21357D1*
X12649Y22394D2*
X16689D1*
X17767D2*
X18388D1*
X19380D2*
X21357D1*
X12649Y22145D2*
X16689D1*
X17767D2*
X18138D1*
X19130D2*
X21357D1*
X12649Y21897D2*
X16689D1*
X18884D2*
X21357D1*
X12649Y21648D2*
X16689D1*
X18634D2*
X21357D1*
X12649Y21399D2*
X16689D1*
X18466D2*
X21357D1*
X12649Y21151D2*
X16689D1*
X18466D2*
X21357D1*
X12645Y20902D2*
X16689D1*
X18466D2*
X21357D1*
X12645Y20653D2*
X16689D1*
X18466D2*
X21357D1*
X12645Y20404D2*
X16689D1*
X18466D2*
X21357D1*
X12645Y20156D2*
X16689D1*
X18466D2*
X21357D1*
X12645Y19907D2*
X16689D1*
X18466D2*
X21357D1*
X12645Y19658D2*
X16689D1*
X18466D2*
X21357D1*
X12645Y19410D2*
X16689D1*
X18466D2*
X21357D1*
X12645Y19161D2*
X16689D1*
X18466D2*
X21357D1*
X12645Y18912D2*
X16689D1*
X18466D2*
X21357D1*
X12645Y18664D2*
X16689D1*
X18466D2*
X21357D1*
X12642Y18415D2*
X16689D1*
X18513D2*
X21357D1*
X12642Y18166D2*
X16689D1*
X18466D2*
X21357D1*
X12642Y17918D2*
X16689D1*
X18466D2*
X21357D1*
X12642Y17669D2*
X16689D1*
X18466D2*
X21357D1*
X12642Y17420D2*
X16689D1*
X18466D2*
X21357D1*
X12642Y17172D2*
X16689D1*
X18466D2*
X21357D1*
X12642Y16923D2*
X16689D1*
X18466D2*
X21357D1*
X12642Y16674D2*
X16689D1*
X18466D2*
X21357D1*
X12642Y16425D2*
X16689D1*
X18466D2*
X21357D1*
X12642Y16177D2*
X16689D1*
X18466D2*
X21357D1*
X12638Y15928D2*
X16689D1*
X18466D2*
X21357D1*
X12638Y15679D2*
X16689D1*
X18466D2*
X21357D1*
X12638Y15431D2*
X16689D1*
X18466D2*
X21357D1*
X12638Y15182D2*
X16689D1*
X18466D2*
X21357D1*
X12638Y14933D2*
X16689D1*
X18466D2*
X21357D1*
X12638Y14685D2*
X16689D1*
X18466D2*
X21357D1*
X12638Y14436D2*
X16689D1*
X18466D2*
X21357D1*
X12638Y14187D2*
X16689D1*
X18501D2*
X21357D1*
X12638Y13939D2*
X16689D1*
X18185D2*
X21357D1*
X12638Y13690D2*
X16689D1*
X18235D2*
X21357D1*
X12634Y13441D2*
X16689D1*
X18138D2*
X21357D1*
X12634Y13193D2*
X16689D1*
X17767D2*
X21357D1*
X12634Y12944D2*
X16689D1*
X17767D2*
X21357D1*
X12634Y12695D2*
X16689D1*
X17767D2*
X21357D1*
X12634Y12446D2*
X16689D1*
X17767D2*
X21357D1*
X12634Y12198D2*
X16689D1*
X17767D2*
X21357D1*
X12634Y11949D2*
X16689D1*
X17767D2*
X21357D1*
X12634Y11700D2*
X16689D1*
X17767D2*
X21357D1*
X12634Y11452D2*
X16689D1*
X17767D2*
X21357D1*
X12634Y11203D2*
X16689D1*
X17767D2*
X21357D1*
X12630Y10954D2*
X16689D1*
X17767D2*
X21357D1*
X12630Y10706D2*
X16689D1*
X17767D2*
X21357D1*
X12630Y10457D2*
X16689D1*
X17767D2*
X21357D1*
X12630Y10208D2*
X16689D1*
X17767D2*
X21357D1*
X12630Y9960D2*
X16584D1*
X17767D2*
X21357D1*
X12630Y9711D2*
X16334D1*
X17759D2*
X21357D1*
X12630Y9462D2*
X16088D1*
X17591D2*
X21357D1*
X12630Y9214D2*
X15838D1*
X17341D2*
X21357D1*
X12630Y8965D2*
X15588D1*
X17091D2*
X21357D1*
X14083Y8716D2*
X15342D1*
X16845D2*
X21357D1*
X19103Y23711D2*
X18755D1*
X17738Y22695D1*
X17740Y21722D1*
X21384Y25365D1*
X21383Y27040D1*
X17138Y27041D1*
X17015Y27074D1*
X16960Y27115D1*
X16714Y27360D1*
X13383Y27366D1*
X12633Y27368D1*
X12605Y8745D1*
X15343Y8691D1*
X16467Y9818D1*
X16718Y10069D1*
X16716Y11213D1*
Y23063D1*
X16749Y23185D1*
X16790Y23241D1*
X18310Y24761D1*
X18420Y24824D1*
X18488Y24835D1*
X19370Y24841D1*
X19494Y24835D1*
X19605Y24780D1*
X19685Y24684D1*
X19720Y24543D1*
X19694Y24421D1*
X19622Y24320D1*
X19519Y24259D1*
X19536Y24233D1*
X19576Y24115D1*
X19573Y23991D1*
X19526Y23876D1*
X19443Y23784D1*
X19332Y23727D1*
X19228Y23711D1*
X19103D1*
X17740Y13412D2*
Y9783D1*
X17718Y9660D1*
X17637Y9534D1*
X16767Y8664D1*
X21381Y8570D1*
X21383Y13193D1*
Y24423D1*
X18440Y21478D1*
Y18618D1*
X18489Y18475D1*
X18464Y18331D1*
X18440Y18297D1*
Y14441D1*
X18489Y14295D1*
X18464Y14151D1*
X18392Y14050D1*
X18285Y13987D1*
X18159Y13973D1*
X18160Y13832D1*
X18209Y13685D1*
X18184Y13541D1*
X18112Y13440D1*
X18005Y13377D1*
X17882Y13362D1*
X17763Y13398D1*
X17737Y13420D1*
X6748Y26419D2*
X9366D1*
X6748Y26170D2*
X9366D1*
X6748Y25922D2*
X9366D1*
X6748Y25673D2*
X9366D1*
X6748Y25424D2*
X9366D1*
X6748Y25176D2*
X9366D1*
X6744Y24927D2*
X9366D1*
X6744Y24678D2*
X9366D1*
X6744Y24430D2*
X9366D1*
X6744Y24181D2*
X9366D1*
X6744Y23932D2*
X9366D1*
X6744Y23683D2*
X9366D1*
X6744Y23435D2*
X9366D1*
X6744Y23186D2*
X9362D1*
X6744Y22937D2*
X9362D1*
X6744Y22689D2*
X9362D1*
X6744Y22440D2*
X9362D1*
X6744Y22191D2*
X9362D1*
X6740Y21943D2*
X9362D1*
X6740Y21694D2*
X9362D1*
X6740Y21445D2*
X9362D1*
X6740Y21197D2*
X9362D1*
X6740Y20948D2*
X9362D1*
X6740Y20699D2*
X9362D1*
X6740Y20451D2*
X9362D1*
X6740Y20202D2*
X9358D1*
X6740Y19953D2*
X9358D1*
X6740Y19704D2*
X9358D1*
X6740Y19456D2*
X9358D1*
X6740Y19207D2*
X9358D1*
X6740Y18958D2*
X9358D1*
X9383Y18934D2*
X9393Y26668D1*
X6723D1*
X6713Y18937D1*
X9381Y18938D1*
X5163Y22339D2*
X6367D1*
X9741D2*
X12273D1*
X5163Y22090D2*
X6367D1*
X9737D2*
X12273D1*
X5163Y21842D2*
X6367D1*
X9737D2*
X12273D1*
X5163Y21593D2*
X6363D1*
X9737D2*
X12273D1*
X5163Y21344D2*
X6363D1*
X9737D2*
X12273D1*
X5163Y21096D2*
X6363D1*
X9737D2*
X12269D1*
X5163Y20847D2*
X6363D1*
X9737D2*
X12269D1*
X5163Y20598D2*
X6363D1*
X9737D2*
X12269D1*
X5163Y20350D2*
X6363D1*
X9737D2*
X12269D1*
X5163Y20101D2*
X6363D1*
X9737D2*
X12269D1*
X5163Y19852D2*
X6363D1*
X9737D2*
X12269D1*
X5163Y19603D2*
X6363D1*
X9737D2*
X12269D1*
X5163Y19355D2*
X6363D1*
X9737D2*
X12269D1*
X5163Y19106D2*
X6363D1*
X9737D2*
X12269D1*
X5163Y18857D2*
X6363D1*
X9733D2*
X12269D1*
X5163Y18609D2*
X12265D1*
X5163Y18360D2*
X12265D1*
X5163Y18111D2*
X12265D1*
X5163Y17863D2*
X12265D1*
X12290Y17643D2*
X12298Y22572D1*
X9715Y22571D1*
X9710Y18812D1*
X9672Y18695D1*
X9570Y18622D1*
X9508Y18611D1*
X6588D1*
X6471Y18648D1*
X6397Y18750D1*
X6386Y18813D1*
X6391Y22575D1*
X6133Y22571D1*
X5140Y22568D1*
Y17642D1*
X6613Y17645D1*
X12289D1*
X5163Y27109D2*
X12281D1*
X5163Y26860D2*
X6383D1*
X9734D2*
X12281D1*
X5163Y26612D2*
X6371D1*
X9745D2*
X12281D1*
X5163Y26363D2*
X6371D1*
X9745D2*
X12277D1*
X5163Y26114D2*
X6371D1*
X9745D2*
X12277D1*
X5163Y25866D2*
X6371D1*
X9745D2*
X12277D1*
X5163Y25617D2*
X6371D1*
X9741D2*
X12277D1*
X5163Y25368D2*
X6371D1*
X9741D2*
X12277D1*
X5163Y25120D2*
X6367D1*
X9741D2*
X12277D1*
X5163Y24871D2*
X6367D1*
X9741D2*
X12277D1*
X5163Y24622D2*
X6367D1*
X9741D2*
X12277D1*
X5163Y24373D2*
X6367D1*
X9741D2*
X12277D1*
X5163Y24125D2*
X6367D1*
X9741D2*
X12277D1*
X5163Y23876D2*
X6367D1*
X9741D2*
X12273D1*
X5163Y23627D2*
X6367D1*
X9741D2*
X12273D1*
X5163Y23379D2*
X6367D1*
X9741D2*
X12273D1*
X5163Y23130D2*
X6367D1*
X9741D2*
X12273D1*
X12299Y22900D2*
X12306Y27361D1*
X11768Y27358D1*
X5162D1*
X5140Y27318D1*
Y22900D1*
X6390Y22898D1*
X6396Y26793D1*
X6434Y26910D1*
X6536Y26984D1*
X6598Y26995D1*
X9518D1*
X9635Y26957D1*
X9709Y26855D1*
X9720Y26792D1*
X9715Y22898D1*
X12296D1*
X6710Y15739D2*
X9328D1*
X6710Y15490D2*
X9328D1*
X6710Y15242D2*
X9328D1*
X6710Y14993D2*
X9328D1*
X6710Y14744D2*
X9328D1*
X6710Y14496D2*
X9332D1*
X6710Y14247D2*
X9332D1*
X6710Y13998D2*
X9332D1*
X6710Y13750D2*
X9332D1*
X6710Y13501D2*
X9332D1*
X6710Y13252D2*
X9332D1*
X6710Y13003D2*
X9332D1*
X6714Y12755D2*
X9332D1*
X6714Y12506D2*
X9332D1*
X6714Y12257D2*
X9332D1*
X6714Y12009D2*
X9332D1*
X6714Y11760D2*
X9332D1*
X6714Y11511D2*
X9332D1*
X6714Y11263D2*
X9336D1*
X6714Y11014D2*
X9336D1*
X6714Y10765D2*
X9336D1*
X6714Y10517D2*
X9336D1*
X6714Y10268D2*
X9336D1*
X6714Y10019D2*
X9336D1*
X6718Y9771D2*
X9336D1*
X6718Y9522D2*
X9336D1*
X6718Y9273D2*
X9336D1*
X6718Y9024D2*
X9336D1*
X6718Y8776D2*
X9336D1*
X6718Y8527D2*
X9336D1*
X6718Y8278D2*
X9340D1*
X9363Y8261D2*
X9353Y15988D1*
X6685D1*
X6690Y10738D1*
X6693Y8258D1*
X9361D1*
X5165Y17069D2*
X12263D1*
X5165Y16820D2*
X12263D1*
X5165Y16572D2*
X12263D1*
X5165Y16323D2*
X12263D1*
X5165Y16074D2*
X6329D1*
X9704D2*
X12263D1*
X5165Y15826D2*
X6333D1*
X9704D2*
X12263D1*
X5165Y15577D2*
X6333D1*
X9704D2*
X12263D1*
X5165Y15328D2*
X6333D1*
X9708D2*
X12263D1*
X5165Y15080D2*
X6333D1*
X9708D2*
X12263D1*
X5165Y14831D2*
X6333D1*
X9708D2*
X12259D1*
X5165Y14582D2*
X6333D1*
X9708D2*
X12259D1*
X5165Y14333D2*
X6333D1*
X9708D2*
X12259D1*
X5165Y14085D2*
X6333D1*
X9708D2*
X12259D1*
X5165Y13836D2*
X6333D1*
X9708D2*
X12259D1*
X5184Y13587D2*
X6333D1*
X9708D2*
X12259D1*
X5286Y13339D2*
X6333D1*
X9708D2*
X12259D1*
X5211Y13090D2*
X6333D1*
X9708D2*
X12259D1*
X5204Y12841D2*
X6333D1*
X9708D2*
X12259D1*
X5110Y12593D2*
X6337D1*
X9708D2*
X12259D1*
X5176Y12344D2*
X6337D1*
X9711D2*
X12255D1*
X12282Y12338D2*
X12290Y17314D1*
X11623Y17318D1*
X5140D1*
X5145Y13600D1*
X5225Y13504D1*
X5260Y13363D1*
X5234Y13241D1*
X5159Y13138D1*
X5175Y13114D1*
X5210Y12973D1*
X5184Y12851D1*
X5112Y12750D1*
X5089Y12736D1*
X5085Y12420D1*
X5152Y12339D1*
X6360Y12338D1*
X6356Y16112D1*
X6393Y16230D1*
X6495Y16304D1*
X6558Y16315D1*
X9478D1*
X9595Y16277D1*
X9669Y16175D1*
X9680Y16113D1*
X9685Y12336D1*
X11458Y12338D1*
X12282D1*
X4943Y11779D2*
X6335D1*
X9709D2*
X12257D1*
X5236Y11530D2*
X6339D1*
X9709D2*
X12257D1*
X5240Y11282D2*
X6339D1*
X9709D2*
X12257D1*
X5256Y11033D2*
X6339D1*
X9713D2*
X12257D1*
X4418Y10784D2*
X4706D1*
X5150D2*
X6339D1*
X9713D2*
X12253D1*
X4418Y10536D2*
X6339D1*
X9713D2*
X12253D1*
X4418Y10287D2*
X6339D1*
X9713D2*
X12253D1*
X4418Y10038D2*
X6339D1*
X9713D2*
X12253D1*
X4418Y9790D2*
X6339D1*
X9713D2*
X12253D1*
X4418Y9541D2*
X6339D1*
X9713D2*
X12253D1*
X4418Y9292D2*
X6339D1*
X9713D2*
X12253D1*
X4418Y9043D2*
X6339D1*
X9713D2*
X12253D1*
X4418Y8795D2*
X6339D1*
X9713D2*
X12253D1*
X4418Y8546D2*
X6339D1*
X9713D2*
X12264D1*
X4418Y8297D2*
X6343D1*
X9713D2*
X12327D1*
X4418Y8049D2*
X6358D1*
X9697D2*
X12327D1*
X4418Y7800D2*
X12327D1*
X12276Y8748D2*
X12281Y12010D1*
X9685Y12011D1*
X9690Y8133D1*
X9653Y8016D1*
X9550Y7942D1*
X9488Y7931D1*
X6568D1*
X6451Y7968D1*
X6377Y8070D1*
X6366Y8132D1*
X6361Y12011D1*
X5146D1*
X5102Y11960D1*
X4995Y11897D1*
X4872Y11882D1*
X4787Y11907D1*
X4998Y11699D1*
X5125Y11640D1*
X5205Y11544D1*
X5240Y11403D1*
X5214Y11281D1*
X5158Y11202D1*
X5195Y11154D1*
X5230Y11013D1*
X5204Y10891D1*
X5132Y10790D1*
X5025Y10727D1*
X4902Y10712D1*
X4783Y10748D1*
X4689Y10828D1*
X4634Y10951D1*
X4393Y11191D1*
Y7568D1*
X12350Y7558D1*
X12353Y8468D1*
X12319Y8498D1*
X12276Y8623D1*
Y8748D1*
X24336Y28209D2*
X25595D1*
X24129Y27960D2*
X26759D1*
X27907D2*
X29505D1*
X24125Y27712D2*
X26755D1*
X27657D2*
X27978D1*
X28817D2*
X29763D1*
X24118Y27463D2*
X26743D1*
X27411D2*
X27829D1*
X29004D2*
X30017D1*
X24110Y27214D2*
X26954D1*
X27179D2*
X27880D1*
X28954D2*
X29872D1*
X24106Y26966D2*
X27880D1*
X28954D2*
X29861D1*
X24098Y26717D2*
X27880D1*
X28954D2*
X29861D1*
X24090Y26468D2*
X27880D1*
X28954D2*
X29865D1*
X24086Y26220D2*
X27880D1*
X28954D2*
X30009D1*
X25153Y25971D2*
X27880D1*
X28954D2*
X30228D1*
X25399Y25722D2*
X27880D1*
X28954D2*
X30228D1*
X25649Y25473D2*
X27880D1*
X28954D2*
X30228D1*
X25899Y25225D2*
X27880D1*
X28954D2*
X30228D1*
X26145Y24976D2*
X27880D1*
X28954D2*
X30228D1*
X26395Y24727D2*
X27880D1*
X28954D2*
X30228D1*
X25399Y24479D2*
X25630D1*
X26645D2*
X27880D1*
X28954D2*
X30228D1*
X25399Y24230D2*
X25880D1*
X26891D2*
X27880D1*
X28954D2*
X30228D1*
X25399Y23981D2*
X26126D1*
X27086D2*
X27880D1*
X28954D2*
X30224D1*
X25434Y23733D2*
X26271D1*
X27094D2*
X27880D1*
X28954D2*
X30224D1*
X25450Y23484D2*
X26271D1*
X27094D2*
X27880D1*
X28954D2*
X30224D1*
X25450Y23235D2*
X26271D1*
X27094D2*
X27880D1*
X28954D2*
X30224D1*
X25450Y22987D2*
X26271D1*
X27094D2*
X27880D1*
X28954D2*
X30224D1*
X25450Y22738D2*
X26271D1*
X27094D2*
X27880D1*
X28954D2*
X30224D1*
X25450Y22489D2*
X26271D1*
X27094D2*
X27880D1*
X28954D2*
X30224D1*
X25450Y22241D2*
X26271D1*
X27094D2*
X27880D1*
X28954D2*
X30224D1*
X25450Y21992D2*
X26271D1*
X27094D2*
X27880D1*
X28954D2*
X30224D1*
X25450Y21743D2*
X26271D1*
X27094D2*
X27880D1*
X28954D2*
X30224D1*
X25450Y21494D2*
X26271D1*
X27094D2*
X27880D1*
X28954D2*
X30224D1*
X25450Y21246D2*
X26271D1*
X27094D2*
X27880D1*
X28954D2*
X30224D1*
X25450Y20997D2*
X26271D1*
X27094D2*
X27880D1*
X28954D2*
X30224D1*
X25450Y20748D2*
X26271D1*
X27094D2*
X27880D1*
X28954D2*
X30224D1*
X25450Y20500D2*
X26271D1*
X27094D2*
X27880D1*
X28954D2*
X30224D1*
X25450Y20251D2*
X26271D1*
X27094D2*
X27880D1*
X28954D2*
X30224D1*
X25450Y20002D2*
X26271D1*
X27094D2*
X27880D1*
X28954D2*
X30224D1*
X25450Y19754D2*
X26271D1*
X27094D2*
X27880D1*
X28954D2*
X30224D1*
X25450Y19505D2*
X26271D1*
X27094D2*
X27880D1*
X28954D2*
X30224D1*
X25450Y19256D2*
X26271D1*
X27094D2*
X27880D1*
X28954D2*
X30224D1*
X25450Y19008D2*
X26271D1*
X27094D2*
X27880D1*
X28954D2*
X30224D1*
X25450Y18759D2*
X26271D1*
X27094D2*
X27880D1*
X28954D2*
X30224D1*
X25450Y18510D2*
X26271D1*
X27141D2*
X27880D1*
X28954D2*
X30224D1*
X25450Y18262D2*
X26271D1*
X27094D2*
X27880D1*
X28954D2*
X30224D1*
X25450Y18013D2*
X26259D1*
X27094D2*
X27880D1*
X28954D2*
X30224D1*
X25450Y17764D2*
X26236D1*
X27094D2*
X27880D1*
X28954D2*
X30220D1*
X25450Y17515D2*
X26271D1*
X27094D2*
X27880D1*
X28954D2*
X30220D1*
X25450Y17267D2*
X26271D1*
X27094D2*
X27880D1*
X28954D2*
X29318D1*
X25450Y17018D2*
X26271D1*
X27094D2*
X27880D1*
X28954D2*
X29146D1*
X25450Y16769D2*
X26271D1*
X27094D2*
X27880D1*
X28954D2*
X29200D1*
X25450Y16521D2*
X26271D1*
X27094D2*
X27880D1*
X28954D2*
X30220D1*
X25450Y16272D2*
X26271D1*
X27094D2*
X27880D1*
X28954D2*
X30220D1*
X25450Y16023D2*
X26271D1*
X27094D2*
X27880D1*
X28954D2*
X30220D1*
X25450Y15775D2*
X26271D1*
X27094D2*
X27880D1*
X28954D2*
X30220D1*
X25450Y15526D2*
X26271D1*
X27094D2*
X27880D1*
X28954D2*
X30220D1*
X25450Y15277D2*
X26271D1*
X27094D2*
X27880D1*
X28954D2*
X30220D1*
X25450Y15029D2*
X26271D1*
X27094D2*
X27880D1*
X28954D2*
X30220D1*
X25450Y14780D2*
X26271D1*
X27094D2*
X27880D1*
X28954D2*
X30220D1*
X25450Y14531D2*
X26271D1*
X27094D2*
X27880D1*
X28954D2*
X30220D1*
X25450Y14283D2*
X26271D1*
X27145D2*
X27880D1*
X28954D2*
X30220D1*
X25450Y14034D2*
X26271D1*
X27051D2*
X27880D1*
X28954D2*
X30220D1*
X25450Y13785D2*
X26251D1*
X26844D2*
X27880D1*
X28954D2*
X30220D1*
X25450Y13536D2*
X26243D1*
X26852D2*
X27880D1*
X28954D2*
X30220D1*
X25450Y13288D2*
X27880D1*
X28954D2*
X30220D1*
X25450Y13039D2*
X27880D1*
X28954D2*
X30220D1*
X25450Y12790D2*
X27880D1*
X28954D2*
X29247D1*
X25450Y12542D2*
X27880D1*
X28954D2*
X29224D1*
X25450Y12293D2*
X27880D1*
X28954D2*
X29470D1*
X25450Y12044D2*
X27880D1*
X28954D2*
X30220D1*
X25450Y11796D2*
X27880D1*
X28954D2*
X30220D1*
X25450Y11547D2*
X27880D1*
X28954D2*
X30216D1*
X12704Y11298D2*
X16693D1*
X17766D2*
X21431D1*
X25450D2*
X27880D1*
X28954D2*
X30216D1*
X12704Y11050D2*
X16693D1*
X17766D2*
X21431D1*
X25450D2*
X27880D1*
X28954D2*
X30689D1*
X12704Y10801D2*
X16693D1*
X17766D2*
X21431D1*
X25450D2*
X27880D1*
X28993D2*
X31400D1*
X12704Y10552D2*
X16693D1*
X17766D2*
X21431D1*
X25450D2*
X27880D1*
X29239D2*
X31419D1*
X12704Y10304D2*
X16693D1*
X17766D2*
X21435D1*
X25446D2*
X27900D1*
X29489D2*
X31419D1*
X32176D2*
X32825D1*
X12704Y10055D2*
X16677D1*
X17766D2*
X21454D1*
X25426D2*
X28126D1*
X29739D2*
X31419D1*
X32176D2*
X33536D1*
X12704Y9806D2*
X16431D1*
X17766D2*
X21513D1*
X25368D2*
X28372D1*
X29985D2*
X31419D1*
X32176D2*
X34251D1*
X12704Y9557D2*
X16181D1*
X17684D2*
X21603D1*
X25278D2*
X28622D1*
X30235D2*
X31419D1*
X32223D2*
X32525D1*
X32813D2*
X34400D1*
X12704Y9309D2*
X15931D1*
X17438D2*
X21736D1*
X25145D2*
X28872D1*
X30485D2*
X31439D1*
X33090D2*
X34400D1*
X12704Y9060D2*
X15685D1*
X17188D2*
X21919D1*
X24961D2*
X29118D1*
X30731D2*
X31630D1*
X33118D2*
X34400D1*
X12704Y8811D2*
X15435D1*
X16938D2*
X22177D1*
X24704D2*
X29368D1*
X32969D2*
X34400D1*
X12704Y8563D2*
X15185D1*
X16692D2*
X22572D1*
X24309D2*
X29618D1*
X32540D2*
X34400D1*
X12704Y8314D2*
X14939D1*
X16442D2*
X29865D1*
X32348D2*
X34400D1*
X12704Y8065D2*
X14689D1*
X16192D2*
X30115D1*
X32598D2*
X34400D1*
X12704Y7817D2*
X14439D1*
X15946D2*
X30365D1*
X33079D2*
X34400D1*
X12704Y7568D2*
X14193D1*
X15696D2*
X30611D1*
X33133D2*
X34400D1*
X12668Y7319D2*
X13943D1*
X15446D2*
X30861D1*
X33028D2*
X34431D1*
X4368Y7071D2*
X13693D1*
X15200D2*
X31111D1*
X32465D2*
X42533D1*
X4364Y6822D2*
X13447D1*
X14950D2*
X31341D1*
X32465D2*
X42533D1*
X4364Y6573D2*
X13197D1*
X14188D2*
X31341D1*
X32465D2*
X42529D1*
X4364Y6325D2*
X5853D1*
X7208D2*
X12298D1*
X13942D2*
X31341D1*
X33063D2*
X39673D1*
X41028D2*
X42525D1*
X4360Y6076D2*
X5536D1*
X7524D2*
X12033D1*
X13692D2*
X31341D1*
X33137D2*
X39357D1*
X41344D2*
X42525D1*
X4360Y5827D2*
X5353D1*
X7708D2*
X12072D1*
X13442D2*
X31345D1*
X33051D2*
X39173D1*
X41528D2*
X42521D1*
X4360Y5578D2*
X5243D1*
X7817D2*
X31533D1*
X32614D2*
X39064D1*
X41637D2*
X42517D1*
X4368Y5330D2*
X5189D1*
X7872D2*
X39009D1*
X41692D2*
X42509D1*
X4379Y5081D2*
X5181D1*
X7879D2*
X39001D1*
X41700D2*
X42501D1*
X4485Y4832D2*
X5224D1*
X7836D2*
X39044D1*
X41657D2*
X42400D1*
X4676Y4584D2*
X5318D1*
X7747D2*
X39134D1*
X41567D2*
X42251D1*
X28235Y4335D2*
X39294D1*
X33092Y5959D2*
X33040Y5846D1*
X32958Y5753D1*
X32852Y5687D1*
X32732Y5654D1*
X32666Y5655D1*
X32476Y5465D1*
X32366Y5401D1*
X32298Y5391D1*
X31848D1*
X31725Y5424D1*
X31670Y5465D1*
X31440Y5695D1*
X31376Y5805D1*
X31366Y5873D1*
Y6838D1*
X27980Y10225D1*
X27916Y10335D1*
X27906Y10403D1*
Y27289D1*
X27865Y27380D1*
X27860Y27504D1*
X27906Y27619D1*
X27994Y27706D1*
X28110Y27751D1*
X28234Y27745D1*
X28293Y27716D1*
X28370Y27741D1*
X28494Y27735D1*
X28553Y27706D1*
X28630Y27731D1*
X28754Y27725D1*
X28865Y27670D1*
X28945Y27574D1*
X28980Y27433D1*
X28954Y27311D1*
X28930Y27277D1*
Y10835D1*
X30781Y8986D1*
X31674Y8985D1*
X31656Y9064D1*
X31549Y9174D1*
X31478Y9276D1*
X31446Y9423D1*
Y10794D1*
X30327Y11185D1*
X30244Y11285D1*
Y12283D1*
X29588Y12281D1*
X29466Y12303D1*
X29358Y12366D1*
X29280Y12462D1*
X29240Y12580D1*
X29243Y12704D1*
X29290Y12820D1*
X29373Y12912D1*
X29484Y12969D1*
X29588Y12985D1*
X30240D1*
X30244Y13553D1*
X30246Y16611D1*
X29518D1*
X29396Y16633D1*
X29288Y16696D1*
X29210Y16792D1*
X29170Y16910D1*
X29173Y17034D1*
X29220Y17150D1*
X29303Y17242D1*
X29414Y17299D1*
X29518Y17315D1*
X30248D1*
X30251Y24053D1*
X30252Y26002D1*
X29989Y26264D1*
X29918Y26366D1*
X29886Y26513D1*
Y27133D1*
X29908Y27255D1*
X29989Y27382D1*
X30058Y27451D1*
X29443Y28041D1*
X27962D1*
X27365Y27443D1*
X27344Y27381D1*
X27272Y27280D1*
X27165Y27217D1*
X27042Y27202D1*
X26923Y27238D1*
X26829Y27318D1*
X26775Y27430D1*
X26770Y27554D1*
X26812Y27658D1*
X26765Y27760D1*
X26760Y27884D1*
X26803Y27998D1*
X26789Y28010D1*
X26085Y28011D1*
X26015Y27977D1*
X25892Y27962D1*
X25773Y27998D1*
X25679Y28078D1*
X25625Y28190D1*
X25620Y28314D1*
X25639Y28361D1*
X24459D1*
X24113Y28013D1*
X24100Y27705D1*
X24058Y26045D1*
X24948D1*
X25071Y26012D1*
X25126Y25971D1*
X26996Y24101D1*
X27060Y23991D1*
X27070Y23923D1*
Y18638D1*
X27085Y18614D1*
X27120Y18473D1*
X27094Y18351D1*
X27070Y18317D1*
Y14422D1*
X27119Y14275D1*
X27094Y14131D1*
X27022Y14030D1*
X26915Y13967D1*
X26796Y13952D1*
X26800Y13820D1*
X26849Y13675D1*
X26824Y13531D1*
X26752Y13430D1*
X26645Y13367D1*
X26522Y13352D1*
X26403Y13388D1*
X26309Y13468D1*
X26255Y13580D1*
X26250Y13704D1*
X26299Y13822D1*
X26296Y15153D1*
Y17696D1*
X26255Y17790D1*
X26250Y17914D1*
X26299Y18032D1*
X26296Y19363D1*
Y23835D1*
X25373Y24762D1*
Y23924D1*
X25412Y23702D1*
X25426Y23375D1*
X25425Y10333D1*
X25406Y10085D1*
X25356Y9841D1*
X25276Y9605D1*
X25166Y9381D1*
X25030Y9172D1*
X24869Y8982D1*
X24685Y8814D1*
X24481Y8671D1*
X24261Y8553D1*
X24028Y8465D1*
X23786Y8406D1*
X23538Y8378D1*
X23289Y8382D1*
X23043Y8416D1*
X22802Y8481D1*
X22572Y8576D1*
X22355Y8699D1*
X22155Y8848D1*
X21976Y9021D1*
X21820Y9215D1*
X21689Y9428D1*
X21586Y9655D1*
X21512Y9893D1*
X21469Y10138D1*
X21456Y10485D1*
Y11302D1*
X17736Y11305D1*
X17740Y10893D1*
Y9783D1*
X17718Y9660D1*
X17637Y9534D1*
X14817Y6714D1*
X14715Y6643D1*
X14594Y6612D1*
X14471Y6624D1*
X14359Y6679D1*
X14314Y6727D1*
X14036Y6444D1*
X13396Y5805D1*
X13286Y5741D1*
X13218Y5731D1*
X13136D1*
X13065Y5697D1*
X12942Y5682D1*
X12823Y5718D1*
X12729Y5798D1*
X12675Y5910D1*
X12674Y5945D1*
X12552Y5770D1*
X12445Y5707D1*
X12322Y5692D1*
X12203Y5728D1*
X12109Y5808D1*
X12055Y5920D1*
X12050Y6044D1*
X12096Y6159D1*
X12184Y6246D1*
X12282Y6284D1*
X12370Y6371D1*
X12480Y6434D1*
X12548Y6445D1*
X13091D1*
X14787Y8139D1*
X16718Y10069D1*
X16716Y11303D1*
X15998Y11307D1*
X12681Y11310D1*
X12680Y7433D1*
X12642Y7316D1*
X12540Y7242D1*
X12478Y7231D1*
X4345Y7241D1*
X4333Y5483D1*
X4361Y4984D1*
X4598Y4623D1*
X4953Y4373D1*
X5434Y4348D1*
Y4425D1*
X5313Y4643D1*
X5236Y4881D1*
X5205Y5128D1*
X5221Y5378D1*
X5283Y5619D1*
X5389Y5845D1*
X5536Y6047D1*
X5718Y6218D1*
X5928Y6352D1*
X6160Y6444D1*
X6406Y6491D1*
X6655D1*
X6900Y6444D1*
X7133Y6352D1*
X7343Y6218D1*
X7525Y6047D1*
X7672Y5845D1*
X7778Y5620D1*
X7840Y5378D1*
X7857Y5170D1*
X7833Y4922D1*
X7764Y4682D1*
X7650Y4459D1*
X7571Y4348D1*
X13303Y4343D1*
X39322Y4329D1*
X39188Y4531D1*
X39089Y4760D1*
X39035Y5004D1*
X39027Y5253D1*
X39066Y5500D1*
X39150Y5735D1*
X39277Y5950D1*
X39443Y6137D1*
X39640Y6290D1*
X39862Y6403D1*
X40102Y6473D1*
X40350Y6496D1*
X40599Y6473D1*
X40839Y6403D1*
X41061Y6290D1*
X41258Y6137D1*
X41423Y5950D1*
X41551Y5735D1*
X41635Y5500D1*
X41674Y5254D1*
X41671Y5045D1*
X41624Y4800D1*
X41532Y4568D1*
X41399Y4357D1*
X41376Y4330D1*
X41453Y4328D1*
X41910Y4374D1*
X42297Y4595D1*
X42524Y5016D1*
X42543Y5554D1*
X42561Y7230D1*
X34628Y7221D1*
X34511Y7258D1*
X34437Y7360D1*
X34426Y7423D1*
Y9755D1*
X32147Y10549D1*
X32150Y9567D1*
X32283Y9523D1*
X32374Y9455D1*
X32403Y9484D1*
X32511Y9545D1*
X32633Y9573D1*
X32757Y9566D1*
X32874Y9523D1*
X32974Y9448D1*
X33048Y9348D1*
X33091Y9231D1*
X33100Y9143D1*
X33082Y9019D1*
X33030Y8906D1*
X32948Y8813D1*
X32842Y8747D1*
X32722Y8714D1*
X32664Y8715D1*
X32506Y8555D1*
X32396Y8491D1*
X32328Y8481D1*
X32152D1*
X32524Y8114D1*
X32609Y8028D1*
X32767Y8026D1*
X32884Y7983D1*
X32984Y7908D1*
X33058Y7808D1*
X33101Y7691D1*
X33110Y7603D1*
X33092Y7479D1*
X33040Y7366D1*
X32958Y7273D1*
X32852Y7207D1*
X32732Y7174D1*
X32607Y7177D1*
X32489Y7215D1*
X32441Y7248D1*
X32440Y6443D1*
X32521Y6485D1*
X32643Y6513D1*
X32767Y6506D1*
X32884Y6463D1*
X32984Y6388D1*
X33058Y6288D1*
X33101Y6171D1*
X33110Y6083D1*
X33092Y5959D1*
X4623Y32469D2*
X5550D1*
X7510D2*
X12483D1*
X4475Y32220D2*
X5362D1*
X7701D2*
X21440D1*
X4393Y31972D2*
X5249D1*
X7815D2*
X21690D1*
X4350Y31723D2*
X5190D1*
X7869D2*
X14890D1*
X20268D2*
X21937D1*
X4350Y31474D2*
X5183D1*
X7881D2*
X14800D1*
X20518D2*
X22187D1*
X23795D2*
X23944D1*
X4354Y31226D2*
X5218D1*
X7842D2*
X10433D1*
X10823D2*
X12144D1*
X21295D2*
X22464D1*
X4354Y30977D2*
X5308D1*
X7752D2*
X10245D1*
X11026D2*
X12011D1*
X21545D2*
X23124D1*
X4358Y30728D2*
X5464D1*
X7596D2*
X10284D1*
X11272D2*
X12077D1*
X21838D2*
X23288D1*
X4358Y30480D2*
X5722D1*
X7338D2*
X9499D1*
X10217D2*
X10581D1*
X22030D2*
X23288D1*
X4362Y30231D2*
X6370D1*
X6690D2*
X9483D1*
X10432D2*
X10569D1*
X21994D2*
X22866D1*
X4362Y29982D2*
X9733D1*
X22010D2*
X22737D1*
X4365Y29733D2*
X9987D1*
X22182D2*
X22780D1*
X4365Y29485D2*
X10237D1*
X22190D2*
X22784D1*
X4369Y29236D2*
X13730D1*
X22190D2*
X23112D1*
X4369Y28987D2*
X5003D1*
X22190D2*
X22995D1*
X4373Y28739D2*
X4753D1*
X22190D2*
X22894D1*
X4373Y28490D2*
X4502D1*
X22190D2*
X22905D1*
X22190Y28241D2*
X23190D1*
X22440Y27993D2*
X23437D1*
X22725Y27744D2*
X24163D1*
X12807Y27495D2*
X16464D1*
X22744D2*
X24163D1*
X12807Y27247D2*
X16714D1*
X22709D2*
X24163D1*
X12807Y26998D2*
X17003D1*
X22709D2*
X24163D1*
X12807Y26749D2*
X21577D1*
X22709D2*
X24159D1*
X15213Y26501D2*
X21577D1*
X22709D2*
X24159D1*
X18799Y26252D2*
X21577D1*
X22709D2*
X24159D1*
X7851Y31425D2*
X7804Y31180D1*
X7712Y30948D1*
X7579Y30737D1*
X7408Y30555D1*
X7206Y30409D1*
X6980Y30302D1*
X6738Y30240D1*
X6489Y30224D1*
X6241Y30256D1*
X6004Y30333D1*
X5785Y30453D1*
X5593Y30612D1*
X5434Y30805D1*
X5313Y31023D1*
X5236Y31261D1*
X5205Y31508D1*
X5221Y31758D1*
X5283Y31999D1*
X5389Y32225D1*
X5536Y32427D1*
X5718Y32598D1*
X5905Y32718D1*
X5198D1*
X4839Y32655D1*
X4577Y32451D1*
X4425Y32177D1*
X4323Y31816D1*
X4350Y28306D1*
X5035Y28995D1*
X5139Y29064D1*
X5258Y29088D1*
X13785D1*
X13754Y29221D1*
X13767Y29345D1*
X13793Y29397D1*
X10478Y29398D1*
X10356Y29422D1*
X10255Y29490D1*
X9766Y29979D1*
X9688Y30010D1*
X9589Y30085D1*
X9522Y30190D1*
X9494Y30311D1*
X9507Y30435D1*
X9562Y30546D1*
X9651Y30633D1*
X9764Y30685D1*
X9888Y30696D1*
X10008Y30665D1*
X10111Y30595D1*
X10185Y30495D1*
X10204Y30432D1*
X10597Y30039D1*
X10622Y30130D1*
X10594Y30251D1*
X10607Y30375D1*
X10640Y30441D1*
X10535Y30550D1*
X10458Y30580D1*
X10359Y30655D1*
X10292Y30760D1*
X10264Y30881D1*
X10277Y31005D1*
X10332Y31116D1*
X10421Y31203D1*
X10534Y31255D1*
X10658Y31266D1*
X10778Y31235D1*
X10881Y31165D1*
X10955Y31065D1*
X10974Y31002D1*
X11389Y30587D1*
X12316Y30588D1*
X12228Y30620D1*
X12129Y30695D1*
X12062Y30800D1*
X12034Y30921D1*
X12047Y31045D1*
X12102Y31156D1*
X12191Y31243D1*
X12304Y31295D1*
X12428Y31306D1*
X12548Y31275D1*
X12577Y31256D1*
X14902Y31258D1*
X14852Y31340D1*
X14824Y31461D1*
X14837Y31585D1*
X14892Y31696D1*
X14981Y31783D1*
X15094Y31835D1*
X15218Y31846D1*
X15338Y31815D1*
X15367Y31796D1*
X18188Y31798D1*
X20038D1*
X20160Y31773D1*
X20261Y31705D1*
X20584Y31382D1*
X20714Y31445D1*
X20838Y31456D1*
X20958Y31425D1*
X20987Y31406D1*
X21056Y31392D1*
X21147Y31344D1*
X21534Y30962D1*
X21741Y30755D1*
X21798Y30735D1*
X21901Y30665D1*
X21975Y30565D1*
X22010Y30446D1*
X22013Y30403D1*
X21992Y30280D1*
X21931Y30172D1*
X21857Y30108D1*
X22071Y29895D1*
X22139Y29792D1*
X22163Y29673D1*
Y28239D1*
X22460Y27946D1*
X22518Y27925D1*
X22621Y27855D1*
X22695Y27755D1*
X22730Y27636D1*
X22733Y27593D1*
X22712Y27470D1*
X22664Y27386D1*
X22684Y27272D1*
Y26112D1*
X23433Y26108D1*
X24187D1*
X24186Y26743D1*
X24189Y27997D1*
X24057Y27901D1*
X23938Y27878D1*
X23708D1*
X23586Y27902D1*
X23485Y27970D1*
X23173Y28282D1*
X23098Y28310D1*
X22999Y28385D1*
X22932Y28490D1*
X22904Y28611D1*
X22917Y28735D1*
X22972Y28846D1*
X23003Y28876D1*
X23017Y28975D1*
X23072Y29086D1*
X23161Y29173D1*
X23186Y29185D1*
X23099Y29251D1*
X22980Y29290D1*
X22882Y29365D1*
X22814Y29470D1*
X22786Y29591D1*
X22800Y29715D1*
X22822Y29760D1*
X22792Y29810D1*
X22764Y29931D1*
X22777Y30055D1*
X22832Y30166D1*
X22921Y30253D1*
X23034Y30305D1*
X23158Y30316D1*
X23278Y30285D1*
X23314Y30261D1*
X23313Y30813D1*
X22927Y31198D1*
X22618D1*
X22496Y31222D1*
X22395Y31290D1*
X21260Y32425D1*
X19138Y32428D1*
X12931D1*
X12821Y32385D1*
X12696Y32381D1*
X12578Y32420D1*
X12479Y32495D1*
X12412Y32600D1*
X12384Y32717D1*
X7160Y32718D1*
X7343Y32598D1*
X7525Y32427D1*
X7672Y32225D1*
X7778Y32000D1*
X7840Y31758D1*
X7857Y31550D1*
X7851Y31425D1*
X12783Y27357D2*
X12781Y26666D1*
X18243Y26289D1*
X21606Y26055D1*
X21603Y26937D1*
X21499Y26977D1*
X17138Y26978D1*
X17016Y27002D1*
X16915Y27070D1*
X16316Y27669D1*
X15998Y27668D1*
X15873Y27694D1*
X15823Y27718D1*
X12639D1*
X12706Y27669D1*
X12770Y27563D1*
X12783Y27482D1*
Y27357D1*
X24036Y31409D2*
X23915Y31530D1*
X23838Y31560D1*
X23739Y31635D1*
X23672Y31740D1*
X23660Y31789D1*
X23460Y31788D1*
X24015Y31231D1*
X24027Y31375D1*
X24043Y31406D1*
X12933Y32429D2*
X12821Y32385D1*
X12696Y32381D1*
X12578Y32420D1*
X12479Y32495D1*
X12412Y32600D1*
X12384Y32717D1*
D24*
X32088Y6083D3*
X32678D3*
X33269D3*
X32088Y7603D3*
X32678D3*
X33269D3*
X32078Y9143D3*
X32668D3*
X33259D3*
D27*
X30788Y31813D3*
D28*
X31788D3*
X30788Y30813D3*
X31788D3*
X30788Y29813D3*
X31788D3*
X30788Y28813D3*
X31788D3*
D27*
X35788Y30813D3*
D28*
Y29813D3*
Y28813D3*
Y27813D3*
D27*
X34788Y30813D3*
D28*
Y29813D3*
Y28813D3*
Y27813D3*
D27*
X33788Y30813D3*
D28*
Y29813D3*
Y28813D3*
Y27813D3*
D27*
X31788Y26813D3*
D28*
X30788D3*
X31788Y27813D3*
X30788D3*
M02*
