M48
INCH
T01C0.012
T02C0.016
T03C0.0276
T04C0.0433
T05C0.11
%
T01
X+023338Y+028093
X+023268Y+028633
X+023368Y+028873
X+023748Y+028773
X+023818Y+028403
X+025058Y+028243
X+025918Y+028263
X+026948Y+028263
X+027058Y+027833
X+027068Y+027503
X+028158Y+027453
X+028418Y+027443
X+028678Y+027433
X+028208Y+028993
X+028048Y+029223
X+027618Y+029343
X+027318Y+029343
X+027018Y+029343
X+027878Y+029933
X+027878Y+030513
X+026668Y+030723
X+026418Y+030913
X+025098Y+030493
X+024773Y+030498
X+024558Y+030693
X+024378Y+031273
X+024008Y+031883
X+024438Y+032483
X+023528Y+032483
X+023228Y+032363
X+022798Y+031953
X+022113Y+032328
X+022218Y+032743
X+020808Y+031093
X+021073Y+030128
X+021248Y+029653
X+021408Y+029443
X+021238Y+029233
X+022218Y+029573
X+023150Y+029613
X+023128Y+029953
X+023628Y+030083
X+023338Y+030613
X+024408Y+030023
X+021648Y+030403
X+019798Y+030723
X+019798Y+029673
X+020418Y+027933
X+021678Y+027293
X+021918Y+027413
X+022138Y+027173
X+022368Y+027593
X+020438Y+026363
X+020438Y+025363
X+019438Y+025363
X+019418Y+024543
X+019178Y+024373
X+019228Y+024063
X+018438Y+023363
X+018438Y+022363
X+020438Y+022363
X+020438Y+021363
X+020438Y+020363
X+019438Y+020363
X+020438Y+019363
X+020438Y+018363
X+019438Y+018363
X+019438Y+017363
X+020438Y+017363
X+020438Y+016363
X+020438Y+015363
X+020438Y+014363
X+019438Y+014363
X+019438Y+013363
X+020438Y+013363
X+020438Y+012363
X+020438Y+011363
X+020438Y+010363
X+020438Y+009363
X+021438Y+009363
X+021438Y+008363
X+020438Y+008363
X+019438Y+009363
X+022438Y+008363
X+024438Y+008363
X+025438Y+008363
X+026438Y+008363
X+026438Y+009363
X+025438Y+009363
X+026438Y+010363
X+026438Y+011363
X+026438Y+012363
X+027438Y+012363
X+027438Y+013363
X+026548Y+013653
X+026438Y+013363
X+026818Y+014253
X+027438Y+015363
X+027438Y+016363
X+027438Y+017363
X+026548Y+017863
X+026818Y+018473
X+027438Y+019363
X+027438Y+020363
X+027438Y+022363
X+027438Y+023363
X+029438Y+020363
X+029518Y+016963
X+029438Y+016363
X+029438Y+015363
X+030438Y+016363
X+029588Y+012633
X+029438Y+011363
X+018188Y+014273
X+017908Y+013663
X+016758Y+013073
X+017388Y+015643
X+016758Y+017263
X+017908Y+017883
X+018188Y+018453
X+017388Y+019593
X+020438Y+023363
X+018438Y+026363
X+017348Y+027675
X+017838Y+028493
X+018028Y+028703
X+016965Y+028800
X+016918Y+029113
X+016238Y+029023
X+016158Y+028238
X+016438Y+027363
X+014518Y+029023
X+014118Y+029243
X+014318Y+029463
X+015188Y+031483
X+016368Y+031263
X+018048Y+032473
X+012748Y+032743
X+011538Y+032483
X+012398Y+030943
X+010958Y+030273
X+010948Y+029933
X+010628Y+030903
X+009858Y+030333
X+005938Y+026913
X+005438Y+026913
X+005438Y+026413
X+005938Y+026413
X+005938Y+025913
X+005438Y+025913
X+004448Y+030733
X+005438Y+019533
X+005438Y+019033
X+005438Y+018533
X+005938Y+018533
X+005938Y+019033
X+005938Y+019533
X+005938Y+016273
X+005938Y+015773
X+005438Y+015773
X+005438Y+016273
X+005438Y+015273
X+005938Y+015273
X+004958Y+013363
X+004908Y+012973
X+004898Y+012183
X+004938Y+011403
X+004928Y+011013
X+005438Y+009063
X+005438Y+008563
X+005438Y+008063
X+005938Y+008063
X+005938Y+008563
X+005938Y+009063
X+011738Y+005923
X+012348Y+005993
X+012968Y+005983
X+014568Y+006963
X+025448Y+026623
X+029403Y+030948
X+029128Y+031563
X+028888Y+031393
X+028728Y+032073
X+028518Y+032443
X+029238Y+032283
X+030268Y+030083
X+032428Y+030223
X+032418Y+031503
X+032898Y+031963
X+041058Y+026823
X+041558Y+026823
X+041558Y+026323
X+041558Y+025823
X+041058Y+025823
X+041058Y+026323
X+041118Y+019483
X+041118Y+018983
X+041118Y+018483
X+041618Y+018483
X+041618Y+018983
X+041618Y+019483
X+041598Y+016253
X+041598Y+015753
X+041098Y+015753
X+041098Y+016253
X+041098Y+015253
X+041598Y+015253
X+041888Y+013343
X+041968Y+012953
X+041968Y+012183
X+041968Y+011393
X+041928Y+011003
X+041598Y+008953
X+041598Y+008453
X+041598Y+007953
X+041098Y+007953
X+041098Y+008453
X+041098Y+008953
T02
X+013558Y+021595
X+013858Y+021408
X+013558Y+021220
X+013858Y+021033
X+013558Y+020845
X+013858Y+020658
X+013558Y+020470
X+014158Y+020845
X+014158Y+021220
X+011468Y+021245
X+011063Y+020985
X+011468Y+020695
X+011468Y+020195
X+011468Y+019695
X+011031Y+019945
X+010626Y+019685
X+010218Y+019945
X+010626Y+020205
X+010626Y+020735
X+010626Y+021235
X+010188Y+020985
X+009781Y+021245
X+009781Y+021745
X+010218Y+021995
X+010626Y+021755
X+011031Y+021995
X+011468Y+021745
X+011088Y+023573
X+011493Y+023823
X+011493Y+024333
X+011493Y+024833
X+011493Y+025333
X+011088Y+025623
X+011493Y+025883
X+011493Y+026383
X+011055Y+026633
X+010650Y+026393
X+010243Y+026633
X+009805Y+026383
X+009805Y+025883
X+010213Y+025623
X+009805Y+025333
X+009805Y+024833
X+009805Y+024333
X+010243Y+024583
X+010650Y+024843
X+011055Y+024583
X+010650Y+024323
X+010650Y+023823
X+010213Y+023573
X+009805Y+023823
X+008930Y+023573
X+008525Y+023313
X+008930Y+023023
X+008930Y+022523
X+008930Y+022023
X+008493Y+022273
X+008088Y+022013
X+007680Y+022273
X+008088Y+022533
X+008088Y+023063
X+008088Y+023563
X+007650Y+023313
X+007243Y+023573
X+007242Y+024073
X+007680Y+024323
X+008088Y+024083
X+008493Y+024323
X+008930Y+024073
X+007243Y+023023
X+007243Y+022523
X+007243Y+022023
X+007243Y+021513
X+007650Y+021263
X+008088Y+021513
X+008525Y+021263
X+008930Y+021513
X+009781Y+020695
X+009781Y+020195
X+009781Y+019695
X+009781Y+019185
X+010188Y+018935
X+010626Y+019185
X+011063Y+018935
X+011468Y+019185
X+011050Y+016030
X+010645Y+015790
X+010238Y+016030
X+009800Y+015780
X+009800Y+015280
X+010208Y+015020
X+009800Y+014730
X+009800Y+014230
X+009800Y+013730
X+010238Y+013980
X+010645Y+014240
X+011050Y+013980
X+010645Y+013720
X+010645Y+013220
X+011083Y+012970
X+011488Y+013220
X+011488Y+013730
X+011488Y+014230
X+011488Y+014730
X+011083Y+015020
X+011488Y+015280
X+011488Y+015780
X+010645Y+015270
X+010645Y+014770
X+009800Y+013220
X+010208Y+012970
X+008925Y+012970
X+008520Y+012710
X+008925Y+012420
X+008925Y+011920
X+008925Y+011420
X+008488Y+011670
X+008083Y+011410
X+007675Y+011670
X+008083Y+011930
X+008083Y+012460
X+008083Y+012960
X+007645Y+012710
X+007238Y+012970
X+007237Y+013470
X+007675Y+013720
X+008083Y+013480
X+008488Y+013720
X+008925Y+013470
X+007238Y+012420
X+007238Y+011920
X+007238Y+011420
X+007238Y+010910
X+007645Y+010660
X+008083Y+010910
X+008520Y+010660
X+008925Y+010910
X+009775Y+011143
X+009775Y+010643
X+010183Y+010383
X+009775Y+010093
X+009775Y+009593
X+009775Y+009093
X+010213Y+009343
X+010620Y+009603
X+011025Y+009343
X+010620Y+009083
X+010620Y+008583
X+011058Y+008333
X+011463Y+008583
X+011463Y+009093
X+011463Y+009593
X+011463Y+010093
X+011058Y+010383
X+011463Y+010643
X+011463Y+011143
X+011025Y+011393
X+010620Y+011153
X+010213Y+011393
X+010620Y+010633
X+010620Y+010133
X+009775Y+008583
X+010183Y+008333
X+013558Y+009860
X+013858Y+010048
X+014158Y+010235
X+013858Y+010423
X+013558Y+010235
X+013558Y+010610
X+013858Y+010798
X+013558Y+010985
X+014158Y+010610
X+013558Y+013370
X+013858Y+013558
X+013558Y+013745
X+013858Y+013933
X+014158Y+013745
X+014158Y+014120
X+013858Y+014308
X+013558Y+014495
X+013558Y+014120
X+013558Y+023978
X+013858Y+024165
X+014158Y+024353
X+013858Y+024540
X+013558Y+024353
X+013558Y+024728
X+013858Y+024915
X+013558Y+025103
X+014158Y+024728
X+010650Y+025373
X+010650Y+025873
X+032718Y+024730
X+033018Y+024543
X+033318Y+024730
X+033018Y+024918
X+033318Y+025105
X+033318Y+024355
X+033018Y+024168
X+033318Y+023980
X+032718Y+024355
X+035400Y+024320
X+035805Y+024580
X+035400Y+024870
X+035400Y+025370
X+035400Y+025870
X+035838Y+025620
X+036243Y+025880
X+036650Y+025620
X+036243Y+025360
X+036243Y+024830
X+036243Y+024330
X+036680Y+024580
X+037088Y+024320
X+037088Y+023820
X+036650Y+023570
X+036243Y+023810
X+035838Y+023570
X+035400Y+023820
X+035780Y+021993
X+035375Y+021743
X+035375Y+021233
X+035375Y+020733
X+035375Y+020233
X+035780Y+019943
X+035375Y+019683
X+035375Y+019183
X+035813Y+018933
X+036218Y+019173
X+036625Y+018933
X+037063Y+019183
X+037063Y+019683
X+036655Y+019943
X+037063Y+020233
X+037063Y+020733
X+037063Y+021233
X+036625Y+020983
X+036218Y+020723
X+035813Y+020983
X+036218Y+021243
X+036218Y+021743
X+036655Y+021993
X+037063Y+021743
X+037938Y+021993
X+038343Y+022253
X+037938Y+022543
X+037938Y+023043
X+037938Y+023543
X+038375Y+023293
X+038780Y+023553
X+039188Y+023293
X+038780Y+023033
X+038780Y+022503
X+038780Y+022003
X+039218Y+022253
X+039625Y+021993
X+039626Y+021493
X+039188Y+021243
X+038780Y+021483
X+038375Y+021243
X+037938Y+021493
X+039625Y+022543
X+039625Y+023043
X+039625Y+023543
X+039625Y+024053
X+039218Y+024303
X+038780Y+024053
X+038343Y+024303
X+037938Y+024053
X+037088Y+024870
X+037088Y+025370
X+037088Y+025870
X+037088Y+026380
X+036680Y+026630
X+036243Y+026380
X+035805Y+026630
X+035400Y+026380
X+033318Y+021595
X+033018Y+021408
X+033318Y+021220
X+033018Y+021033
X+032718Y+021220
X+032718Y+020845
X+033018Y+020658
X+033318Y+020470
X+033318Y+020845
X+036218Y+020193
X+036218Y+019693
X+035804Y+016030
X+035399Y+015780
X+035399Y+015270
X+035399Y+014770
X+035399Y+014270
X+035804Y+013980
X+035399Y+013720
X+035399Y+013220
X+035837Y+012970
X+036242Y+013210
X+036649Y+012970
X+037087Y+013220
X+037087Y+013720
X+036679Y+013980
X+037087Y+014270
X+037087Y+014770
X+037087Y+015270
X+036649Y+015020
X+036242Y+014760
X+035837Y+015020
X+036242Y+015280
X+036242Y+015780
X+036679Y+016030
X+037087Y+015780
X+036242Y+014230
X+036242Y+013730
X+037937Y+013453
X+038342Y+013703
X+038780Y+013453
X+038780Y+012953
X+038375Y+012693
X+038780Y+012433
X+039187Y+012693
X+039625Y+012443
X+039625Y+012943
X+039625Y+013453
X+039217Y+013703
X+037937Y+012943
X+037937Y+012443
X+037937Y+011943
X+038342Y+011653
X+037937Y+011393
X+037937Y+010893
X+038375Y+010643
X+038780Y+010883
X+039187Y+010643
X+039625Y+010893
X+039625Y+011393
X+039217Y+011653
X+039625Y+011943
X+038780Y+011903
X+038780Y+011403
X+037062Y+011143
X+036655Y+011393
X+036217Y+011143
X+036217Y+010643
X+035812Y+010383
X+036217Y+010123
X+036625Y+010383
X+037062Y+010133
X+037062Y+010633
X+037062Y+009633
X+036655Y+009343
X+037062Y+009083
X+037062Y+008583
X+036625Y+008333
X+036217Y+008573
X+035812Y+008333
X+035375Y+008583
X+035375Y+009083
X+035780Y+009343
X+035375Y+009633
X+035375Y+010133
X+035375Y+010633
X+035375Y+011143
X+035780Y+011393
X+036217Y+009593
X+036217Y+009093
X+033318Y+009870
X+033018Y+010058
X+033318Y+010245
X+033018Y+010433
X+032718Y+010620
X+033018Y+010808
X+033318Y+010995
X+033318Y+010620
X+032718Y+010245
X+033318Y+013380
X+033018Y+013568
X+033318Y+013755
X+033018Y+013943
X+032718Y+014130
X+033018Y+014318
X+033318Y+014505
X+033318Y+014130
X+032718Y+013755
T03
X+032088Y+006083
X+032678Y+006083
X+033269Y+006083
X+033269Y+007603
X+032678Y+007603
X+032088Y+007603
X+032078Y+009143
X+032668Y+009143
X+033259Y+009143
T04
X+030788Y+031813
X+031788Y+031813
X+031788Y+030813
X+030788Y+030813
X+030788Y+029813
X+031788Y+029813
X+031788Y+028813
X+031788Y+027813
X+031788Y+026813
X+030788Y+026813
X+030788Y+027813
X+030788Y+028813
X+033788Y+028813
X+034788Y+028813
X+034788Y+029813
X+033788Y+029813
X+033788Y+030813
X+034788Y+030813
X+035788Y+030813
X+035788Y+029813
X+035788Y+028813
X+035788Y+027813
X+034788Y+027813
X+033788Y+027813
T05
X+040351Y+031550
X+040351Y+005170
X+006531Y+005170
X+006531Y+031550
T00
M30
