G04 DipTrace 2.4.0.2*
%INTopSilk.gbr*%
%MOIN*%
%ADD10C,0.0098*%
%ADD12C,0.003*%
%ADD35C,0.005*%
%ADD36O,0.0155X0.0154*%
%ADD83C,0.0077*%
%ADD84C,0.0062*%
%FSLAX44Y44*%
G04*
G70*
G90*
G75*
G01*
%LNTopSilk*%
%LPD*%
G36*
X4733Y30186D2*
X4615D1*
Y30245D1*
X4733D1*
Y30186D1*
G37*
G36*
Y30481D2*
X4615D1*
Y30540D1*
X4733D1*
Y30481D1*
G37*
G36*
Y30304D2*
X4615D1*
Y30422D1*
X4733D1*
Y30304D1*
G37*
G36*
Y29436D2*
X4615D1*
Y29495D1*
X4733D1*
Y29436D1*
G37*
G36*
Y29731D2*
X4615D1*
Y29790D1*
X4733D1*
Y29731D1*
G37*
G36*
Y29554D2*
X4615D1*
Y29672D1*
X4733D1*
Y29554D1*
G37*
G36*
Y28686D2*
X4615D1*
Y28745D1*
X4733D1*
Y28686D1*
G37*
G36*
Y28981D2*
X4615D1*
Y29040D1*
X4733D1*
Y28981D1*
G37*
G36*
Y28804D2*
X4615D1*
Y28922D1*
X4733D1*
Y28804D1*
G37*
X19188Y11923D2*
D10*
X19438D1*
Y16003D1*
X19248D1*
X18248D2*
X17068D1*
X17060Y15373D2*
Y16003D1*
X18248Y11923D2*
X17068D1*
X17060D2*
Y12553D1*
X27688Y16003D2*
X27438D1*
Y11923D1*
X27628D1*
X28628D2*
X29808D1*
X29815Y12553D2*
Y11923D1*
X28628Y16003D2*
X29808D1*
X29815D2*
Y15373D1*
X27691Y20203D2*
X27441D1*
Y16123D1*
X27631D1*
X28631D2*
X29811D1*
X29819Y16753D2*
Y16123D1*
X28631Y20203D2*
X29811D1*
X29819D2*
Y19573D1*
X19188Y16123D2*
X19438D1*
Y20203D1*
X19248D1*
X18248D2*
X17068D1*
X17060Y19573D2*
Y20203D1*
X18248Y16123D2*
X17068D1*
X17060D2*
Y16753D1*
X31498Y6772D2*
X33858D1*
Y5394D1*
X31498D1*
Y6772D1*
Y8292D2*
X33858D1*
Y6914D1*
X31498D1*
Y8292D1*
X31488Y9832D2*
X33848D1*
Y8454D1*
X31488D1*
Y9832D1*
X10608Y5768D2*
Y5518D1*
X14688D1*
Y5708D1*
Y6708D2*
Y6958D1*
X14058D2*
X14688D1*
X10608Y6708D2*
Y6958D1*
X11238D1*
X21063Y5831D2*
X20097Y5572D1*
X21063Y5831D2*
X19510Y11627D1*
X18544Y11368D1*
X16767Y10892D2*
X15628Y10587D1*
X18320Y5096D2*
X17181Y4791D1*
X17173Y4789D2*
X17010Y5397D1*
X15783Y9976D2*
X15620Y10584D1*
X27364Y11625D2*
X28330Y11367D1*
X27364Y11625D2*
X25811Y5829D1*
X26777Y5571D1*
X28554Y5094D2*
X29694Y4789D1*
X30107Y10890D2*
X31247Y10585D1*
X31254Y10583D2*
X31091Y9974D1*
X29864Y5396D2*
X29701Y4787D1*
X25810Y26300D2*
X26776Y26559D1*
X25810Y26300D2*
X27363Y20504D1*
X28329Y20763D1*
X30106Y21239D2*
X31246Y21544D1*
X28553Y27035D2*
X29693Y27340D1*
X29701Y27342D2*
X29863Y26734D1*
X31090Y22155D2*
X31254Y21546D1*
X19510Y20507D2*
X18545Y20765D1*
X19510Y20507D2*
X21063Y26303D1*
X20097Y26561D1*
X18320Y27038D2*
X17181Y27343D1*
X16767Y21242D2*
X15627Y21547D1*
X15620Y21549D2*
X15783Y22157D1*
X17010Y26736D2*
X17173Y27345D1*
X32288Y32313D2*
X30288D1*
Y28313D1*
X32288D1*
Y32313D1*
X36288Y31313D2*
X35288D1*
Y27313D1*
X36288D1*
Y31313D1*
X35288D2*
X34288D1*
Y27313D1*
X35288D1*
Y31313D1*
X34288D2*
X33288D1*
Y27313D1*
X34288D1*
Y31313D1*
X23375Y26225D2*
X23500D1*
Y27100D1*
X23375D1*
Y26225D1*
X23000Y31965D2*
X23875D1*
Y31840D1*
X23000D1*
Y31965D1*
X20375Y28945D2*
X20500D1*
Y29820D1*
X20375D1*
Y28945D1*
X25950Y30990D2*
X25825D1*
Y30115D1*
X25950D1*
Y30990D1*
X8291Y28763D2*
X5791D1*
Y30263D1*
X8291D1*
Y28763D1*
X6288Y15683D2*
X12288D1*
Y8683D1*
X6288D1*
Y15683D1*
X40588Y8683D2*
X34588D1*
Y15683D1*
X40588D1*
Y8683D1*
Y19283D2*
X34588D1*
Y26283D1*
X40588D1*
Y19283D1*
X6288Y26283D2*
X12288D1*
Y19283D1*
X6288D1*
Y26283D1*
X23529Y27694D2*
D35*
X23441Y27605D1*
X23352Y27694D2*
X23441Y27605D1*
Y31318D2*
X23529Y31229D1*
X23352D2*
X23441Y31318D1*
X21673Y29550D2*
X21584Y29461D1*
X21673Y29373D1*
X25208Y29550D2*
X25297Y29461D1*
X25208Y29373D2*
X25297Y29461D1*
X23529Y27694D2*
X23352D1*
X14488Y32813D2*
D10*
Y33003D1*
X9208D1*
Y32843D1*
Y31813D2*
Y31563D1*
X9838D2*
X9208D1*
X14488Y31813D2*
Y31563D1*
X13858D1*
D36*
X24705Y26599D3*
X30288Y26313D2*
D10*
X32288D1*
Y28313D1*
X30288D1*
Y26313D1*
X5929Y28181D2*
D83*
X6144D1*
X6216Y28205D1*
X6240Y28229D1*
X6264Y28277D1*
Y28325D1*
X6240Y28372D1*
X6216Y28397D1*
X6144Y28420D1*
X5929D1*
Y27918D1*
X6097Y28181D2*
X6264Y27918D1*
X6729Y28420D2*
X6419D1*
Y27918D1*
X6729D1*
X6419Y28181D2*
X6610D1*
X7219Y28348D2*
X7171Y28397D1*
X7099Y28420D1*
X7004D1*
X6932Y28397D1*
X6884Y28348D1*
Y28301D1*
X6908Y28253D1*
X6932Y28229D1*
X6979Y28205D1*
X7123Y28157D1*
X7171Y28133D1*
X7195Y28109D1*
X7219Y28062D1*
Y27990D1*
X7171Y27942D1*
X7099Y27918D1*
X7004D1*
X6932Y27942D1*
X6884Y27990D1*
X7684Y28420D2*
X7373D1*
Y27918D1*
X7684D1*
X7373Y28181D2*
X7564D1*
X8005Y28420D2*
Y27918D1*
X7838Y28420D2*
X8173D1*
X12181Y30398D2*
X12134Y30447D1*
X12062Y30470D1*
X11966D1*
X11895Y30447D1*
X11846Y30398D1*
Y30351D1*
X11871Y30303D1*
X11895Y30279D1*
X11942Y30255D1*
X12086Y30207D1*
X12134Y30183D1*
X12158Y30159D1*
X12181Y30112D1*
Y30040D1*
X12134Y29992D1*
X12062Y29968D1*
X11966D1*
X11895Y29992D1*
X11846Y30040D1*
X12336Y30470D2*
X12456Y29968D1*
X12575Y30470D1*
X12695Y29968D1*
X12814Y30470D1*
X12969D2*
Y29968D1*
X13136D1*
X13208Y29992D1*
X13256Y30040D1*
X13280Y30088D1*
X13304Y30159D1*
Y30279D1*
X13280Y30351D1*
X13256Y30398D1*
X13208Y30447D1*
X13136Y30470D1*
X12969D1*
X34800Y7830D2*
D84*
X34762Y7868D1*
X34704Y7887D1*
X34628D1*
X34570Y7868D1*
X34532Y7830D1*
Y7792D1*
X34551Y7753D1*
X34570Y7734D1*
X34608Y7715D1*
X34723Y7677D1*
X34762Y7658D1*
X34781Y7638D1*
X34800Y7600D1*
Y7543D1*
X34762Y7505D1*
X34704Y7485D1*
X34628D1*
X34570Y7505D1*
X34532Y7543D1*
X35172Y7887D2*
X34923D1*
Y7485D1*
X35172D1*
X34923Y7696D2*
X35076D1*
X35295D2*
X35467D1*
X35525Y7715D1*
X35544Y7734D1*
X35563Y7772D1*
Y7811D1*
X35544Y7849D1*
X35525Y7868D1*
X35467Y7887D1*
X35295D1*
Y7485D1*
X35429Y7696D2*
X35563Y7485D1*
X35687Y7887D2*
X35840Y7485D1*
X35992Y7887D1*
X36231D2*
X36192Y7868D1*
X36154Y7830D1*
X36135Y7792D1*
X36116Y7734D1*
Y7638D1*
X36135Y7581D1*
X36154Y7543D1*
X36192Y7505D1*
X36231Y7485D1*
X36307D1*
X36345Y7505D1*
X36384Y7543D1*
X36403Y7581D1*
X36422Y7638D1*
Y7734D1*
X36403Y7792D1*
X36384Y7830D1*
X36345Y7868D1*
X36307Y7887D1*
X36231D1*
X36934Y7810D2*
X36973Y7830D1*
X37030Y7887D1*
Y7485D1*
X34800Y7240D2*
X34762Y7278D1*
X34704Y7297D1*
X34628D1*
X34570Y7278D1*
X34532Y7240D1*
Y7202D1*
X34551Y7163D1*
X34570Y7144D1*
X34608Y7125D1*
X34723Y7087D1*
X34762Y7068D1*
X34781Y7048D1*
X34800Y7010D1*
Y6953D1*
X34762Y6915D1*
X34704Y6895D1*
X34628D1*
X34570Y6915D1*
X34532Y6953D1*
X35172Y7297D2*
X34923D1*
Y6895D1*
X35172D1*
X34923Y7106D2*
X35076D1*
X35295D2*
X35467D1*
X35525Y7125D1*
X35544Y7144D1*
X35563Y7182D1*
Y7221D1*
X35544Y7259D1*
X35525Y7278D1*
X35467Y7297D1*
X35295D1*
Y6895D1*
X35429Y7106D2*
X35563Y6895D1*
X35687Y7297D2*
X35840Y6895D1*
X35992Y7297D1*
X36231D2*
X36192Y7278D1*
X36154Y7240D1*
X36135Y7202D1*
X36116Y7144D1*
Y7048D1*
X36135Y6991D1*
X36154Y6953D1*
X36192Y6915D1*
X36231Y6895D1*
X36307D1*
X36345Y6915D1*
X36384Y6953D1*
X36403Y6991D1*
X36422Y7048D1*
Y7144D1*
X36403Y7202D1*
X36384Y7240D1*
X36345Y7278D1*
X36307Y7297D1*
X36231D1*
X36954Y7201D2*
Y7220D1*
X36973Y7259D1*
X36992Y7278D1*
X37030Y7297D1*
X37107D1*
X37145Y7278D1*
X37164Y7259D1*
X37183Y7220D1*
Y7182D1*
X37164Y7144D1*
X37126Y7087D1*
X36934Y6895D1*
X37202D1*
X34800Y6610D2*
X34762Y6648D1*
X34704Y6667D1*
X34628D1*
X34570Y6648D1*
X34532Y6610D1*
Y6572D1*
X34551Y6533D1*
X34570Y6514D1*
X34608Y6495D1*
X34723Y6457D1*
X34762Y6438D1*
X34781Y6418D1*
X34800Y6380D1*
Y6323D1*
X34762Y6285D1*
X34704Y6265D1*
X34628D1*
X34570Y6285D1*
X34532Y6323D1*
X35172Y6667D2*
X34923D1*
Y6265D1*
X35172D1*
X34923Y6476D2*
X35076D1*
X35295D2*
X35467D1*
X35525Y6495D1*
X35544Y6514D1*
X35563Y6552D1*
Y6591D1*
X35544Y6629D1*
X35525Y6648D1*
X35467Y6667D1*
X35295D1*
Y6265D1*
X35429Y6476D2*
X35563Y6265D1*
X35687Y6667D2*
X35840Y6265D1*
X35992Y6667D1*
X36231D2*
X36192Y6648D1*
X36154Y6610D1*
X36135Y6572D1*
X36116Y6514D1*
Y6418D1*
X36135Y6361D1*
X36154Y6323D1*
X36192Y6285D1*
X36231Y6265D1*
X36307D1*
X36345Y6285D1*
X36384Y6323D1*
X36403Y6361D1*
X36422Y6418D1*
Y6514D1*
X36403Y6572D1*
X36384Y6610D1*
X36345Y6648D1*
X36307Y6667D1*
X36231D1*
X36973D2*
X37183D1*
X37068Y6514D1*
X37126D1*
X37164Y6495D1*
X37183Y6476D1*
X37202Y6418D1*
Y6380D1*
X37183Y6323D1*
X37145Y6284D1*
X37087Y6265D1*
X37030D1*
X36973Y6284D1*
X36954Y6304D1*
X36934Y6342D1*
X23507Y27271D2*
D12*
X23622D1*
X23536Y27223D2*
X23593Y27319D1*
X23536D2*
X23593Y27223D1*
M02*
