M48
METRIC,0000.00
T01C0.279
T02C1.1
T03C2.794
%
T01
X+007407Y+007085
X+007407Y+007037
X+007454Y+007037
X+007502Y+007037
X+007502Y+007085
X+007454Y+007085
X+007550Y+007085
X+007550Y+007037
X+007673Y+006670
X+007673Y+006503
X+007978Y+006402
X+007978Y+006355
X+007978Y+006307
X+007978Y+006260
X+007978Y+006212
X+007978Y+006164
X+008138Y+006023
X+007864Y+005947
X+007643Y+005482
X+007590Y+005428
X+007696Y+005421
X+007423Y+005180
X+007391Y+005132
X+007391Y+005005
X+007018Y+005131
X+007003Y+005230
X+006866Y+005146
X+006581Y+005230
X+006812Y+004796
X+006866Y+004743
X+006873Y+004636
X+006581Y+004466
X+006581Y+003958
X+006073Y+003958
X+006073Y+003450
X+006581Y+003450
X+007089Y+003450
X+007597Y+003450
X+007708Y+003259
X+007740Y+003212
X+007772Y+003164
X+007740Y+003116
X+007708Y+003069
X+007677Y+003021
X+007502Y+002831
X+007308Y+002761
X+007308Y+002959
X+007089Y+002434
X+006581Y+002434
X+006581Y+001926
X+007089Y+001926
X+007089Y+001418
X+006581Y+001418
X+006073Y+001926
X+005941Y+001926
X+005941Y+001773
X+005753Y+001773
X+005753Y+001926
X+005565Y+001926
X+005565Y+001773
X+005057Y+001926
X+004549Y+001926
X+004041Y+001926
X+003533Y+001926
X+003533Y+002434
X+003025Y+002434
X+002517Y+002434
X+002517Y+001926
X+002517Y+001418
X+003533Y+001418
X+004041Y+001418
X+004549Y+001418
X+005057Y+001418
X+005936Y+002243
X+006073Y+002434
X+005982Y+002594
X+005906Y+002594
X+005829Y+002594
X+005753Y+002594
X+005669Y+002594
X+005565Y+004466
X+006073Y+004466
X+005090Y+005101
X+005044Y+005047
X+004991Y+005025
X+004915Y+005085
X+004884Y+005180
X+004854Y+004971
X+004785Y+004918
X+004427Y+004141
X+004427Y+004080
X+004427Y+004019
X+004351Y+004019
X+004351Y+004080
X+004351Y+004141
X+004275Y+004141
X+004275Y+004080
X+004275Y+004019
X+004199Y+004019
X+004199Y+004080
X+004199Y+004141
X+004041Y+004339
X+003914Y+004339
X+003787Y+003831
X+003533Y+003450
X+003533Y+003196
X+003660Y+003196
X+003660Y+003069
X+003533Y+003069
X+003279Y+003704
X+003025Y+003531
X+002987Y+003958
X+003322Y+004102
X+003200Y+004537
X+002803Y+004751
X+002667Y+004689
X+002390Y+004847
X+002667Y+005177
X+002517Y+005482
X+002724Y+005513
X+002771Y+005588
X+002827Y+005657
X+002978Y+005767
X+003155Y+005710
X+002789Y+006023
X+002515Y+006030
X+002461Y+006000
X+002484Y+005901
X+002385Y+006289
X+002271Y+006549
X+002198Y+006552
X+002009Y+006498
X+002438Y+006686
X+002431Y+006762
X+002263Y+007006
X+002263Y+007260
X+002009Y+007260
X+002009Y+007514
X+001755Y+007514
X+001623Y+007333
X+001486Y+007524
X+001433Y+007745
X+001372Y+007768
X+001433Y+007920
X+001265Y+007920
X+001318Y+008118
X+001247Y+008530
X+001379Y+008598
X+001465Y+008551
X+001379Y+008781
X+001247Y+009038
X+001247Y+009292
X+001247Y+009546
X+002004Y+009566
X+002096Y+009627
X+001755Y+008276
X+001755Y+008022
X+001755Y+007768
X+001768Y+007128
X+001501Y+007006
X+001501Y+006498
X+001501Y+005990
X+002009Y+005990
X+002009Y+005482
X+002743Y+006305
X+003393Y+006383
X+003414Y+006327
X+003452Y+006289
X+003680Y+005687
X+003749Y+005657
X+003673Y+005489
X+003680Y+005428
X+003696Y+005370
X+003604Y+005491
X+003914Y+005482
X+004041Y+005355
X+003914Y+004974
X+003247Y+005037
X+002517Y+003958
X+002517Y+003450
X+002517Y+002942
X+005167Y+005783
X+005215Y+005783
X+005215Y+005831
X+005167Y+005831
X+005167Y+005879
X+005215Y+005879
X+005262Y+005879
X+005262Y+005831
X+005262Y+005783
X+005310Y+005783
X+005310Y+005831
X+005310Y+005879
X+005310Y+005926
X+005262Y+005926
X+005215Y+005926
X+005167Y+005926
X+005565Y+006831
X+005470Y+007196
X+005470Y+007244
X+005422Y+007244
X+005422Y+007196
X+005375Y+007196
X+005327Y+007196
X+005327Y+007244
X+005327Y+007291
X+005327Y+007339
X+005375Y+007339
X+005375Y+007291
X+005375Y+007244
X+005422Y+007291
X+005422Y+007339
X+005470Y+007339
X+005470Y+007291
X+005645Y+007276
X+006142Y+007159
X+006200Y+007257
X+006302Y+007166
X+006454Y+007173
X+006507Y+007173
X+006622Y+007173
X+006454Y+007311
X+006294Y+007402
X+006788Y+007339
X+006858Y+007257
X+006851Y+007514
X+007285Y+007562
X+007391Y+007638
X+007391Y+007844
X+007707Y+007625
X+007755Y+007625
X+007755Y+007577
X+007707Y+007577
X+007802Y+007577
X+007850Y+007577
X+007850Y+007625
X+007802Y+007625
X+008327Y+007657
X+008439Y+007466
X+008343Y+006990
X+008296Y+006990
X+008296Y+006942
X+008343Y+006942
X+008248Y+006942
X+008200Y+006942
X+008200Y+006990
X+008248Y+006990
X+008613Y+007006
X+008867Y+007006
X+008867Y+006752
X+009121Y+006752
X+009121Y+007006
X+009121Y+006498
X+008867Y+006498
X+009121Y+006244
X+009365Y+005855
X+010645Y+005990
X+010645Y+006498
X+010645Y+007006
X+010645Y+007514
X+010645Y+008022
X+010645Y+008530
X+010645Y+009038
X+010645Y+009546
X+009629Y+009546
X+009121Y+009546
X+009121Y+009038
X+009629Y+009038
X+009629Y+008530
X+009121Y+008530
X+008613Y+008530
X+008232Y+008403
X+007851Y+008403
X+007470Y+008403
X+007089Y+008403
X+006708Y+008403
X+006327Y+008403
X+005946Y+008403
X+005946Y+008022
X+005144Y+008187
X+005144Y+008234
X+005096Y+008234
X+005096Y+008187
X+005048Y+008187
X+005001Y+008187
X+005001Y+008234
X+005001Y+008282
X+005001Y+008330
X+005048Y+008330
X+005048Y+008282
X+005096Y+008282
X+005096Y+008330
X+005144Y+008330
X+005144Y+008282
X+005048Y+008234
X+005128Y+007531
X+004008Y+007882
X+003994Y+007942
X+003930Y+007942
X+003930Y+008069
X+003807Y+008225
X+003744Y+008225
X+003680Y+008225
X+003617Y+008225
X+003617Y+008288
X+003680Y+008288
X+003744Y+008288
X+003807Y+008288
X+003807Y+008352
X+003807Y+008415
X+003744Y+008415
X+003680Y+008415
X+003617Y+008415
X+003617Y+008352
X+003680Y+008352
X+003744Y+008352
X+003553Y+008352
X+003553Y+008288
X+003490Y+008288
X+003490Y+008352
X+003490Y+008415
X+003553Y+008415
X+003553Y+008225
X+003490Y+008225
X+003482Y+007760
X+003482Y+007697
X+003546Y+007697
X+003546Y+007633
X+003482Y+007633
X+003482Y+007570
X+003546Y+007570
X+003609Y+007570
X+003673Y+007570
X+003736Y+007570
X+003800Y+007570
X+003800Y+007633
X+003800Y+007697
X+003800Y+007760
X+003736Y+007760
X+003673Y+007760
X+003609Y+007760
X+003609Y+007697
X+003609Y+007633
X+003673Y+007633
X+003736Y+007633
X+003736Y+007697
X+003673Y+007697
X+003546Y+007760
X+003627Y+007211
X+003691Y+007211
X+003691Y+007148
X+003691Y+007084
X+003627Y+007084
X+003627Y+007148
X+003754Y+007148
X+003818Y+007148
X+003881Y+007148
X+003945Y+007148
X+003945Y+007084
X+003881Y+007084
X+003818Y+007084
X+003754Y+007084
X+003754Y+007021
X+003757Y+006960
X+003818Y+006960
X+003818Y+007021
X+003881Y+007021
X+003881Y+006960
X+003945Y+006960
X+003945Y+007021
X+003945Y+007211
X+003881Y+007211
X+003818Y+007211
X+003754Y+007211
X+003691Y+007021
X+004206Y+009360
X+004138Y+009513
X+004256Y+009585
X+005525Y+009543
X+005525Y+009496
X+005525Y+009448
X+005525Y+009400
X+005572Y+009400
X+005620Y+009400
X+005620Y+009448
X+005572Y+009448
X+005572Y+009496
X+005572Y+009543
X+005620Y+009543
X+005620Y+009496
X+005966Y+009589
X+006012Y+009536
X+006066Y+009482
X+006081Y+009597
X+006551Y+009543
X+006551Y+009496
X+006551Y+009448
X+006551Y+009400
X+006599Y+009400
X+006647Y+009400
X+006647Y+009448
X+006599Y+009448
X+006599Y+009496
X+006647Y+009496
X+006647Y+009543
X+006599Y+009543
X+006370Y+008987
X+006218Y+009040
X+006043Y+009040
X+007353Y+008956
X+007353Y+008895
X+007353Y+008835
X+007353Y+008774
X+008410Y+008923
X+008410Y+008989
X+009629Y+008022
X+009613Y+007815
X+009677Y+007815
X+009677Y+007752
X+009613Y+007752
X+009613Y+007688
X+009677Y+007688
X+009677Y+007625
X+009613Y+007625
X+009740Y+007625
X+009804Y+007625
X+009867Y+007625
X+009931Y+007625
X+009931Y+007688
X+009867Y+007688
X+009804Y+007688
X+009740Y+007688
X+009740Y+007752
X+009804Y+007752
X+009867Y+007752
X+009867Y+007815
X+009804Y+007815
X+009740Y+007815
X+009931Y+007815
X+009931Y+007752
X+010137Y+008022
X+010137Y+008530
X+010645Y+005482
X+010645Y+004974
X+010645Y+004466
X+010137Y+004466
X+010137Y+003958
X+010137Y+003450
X+009629Y+003450
X+009121Y+003450
X+008899Y+003656
X+008947Y+003704
X+008359Y+004164
X+008296Y+004164
X+008232Y+004164
X+007883Y+004291
X+007835Y+004259
X+007740Y+004037
X+007677Y+004037
X+007677Y+003974
X+007677Y+003910
X+007740Y+003910
X+007740Y+003847
X+007677Y+003847
X+007677Y+003783
X+007740Y+003783
X+007883Y+003704
X+007851Y+003656
X+007740Y+003974
X+008137Y+005402
X+006803Y+005990
X+006724Y+005990
X+006819Y+006117
X+006867Y+006244
X+006915Y+006244
X+006915Y+006291
X+006867Y+006291
X+006867Y+006339
X+006867Y+006387
X+006915Y+006387
X+006915Y+006339
X+006930Y+006799
X+006930Y+006847
X+006978Y+006847
X+006978Y+006799
X+006978Y+006895
X+006930Y+006895
X+006782Y+006990
X+006728Y+006960
X+006553Y+006747
X+006424Y+006747
X+006302Y+006747
X+006424Y+006625
X+006424Y+006876
X+006248Y+006403
X+007597Y+002434
X+007597Y+001926
X+008470Y+002243
X+008534Y+002243
X+008534Y+002307
X+008534Y+002370
X+008470Y+002370
X+008470Y+002434
X+008534Y+002434
X+008597Y+002434
X+008597Y+002370
X+008661Y+002370
X+008724Y+002370
X+008724Y+002307
X+008661Y+002307
X+008597Y+002307
X+008597Y+002243
X+008661Y+002243
X+008724Y+002243
X+008788Y+002243
X+008788Y+002307
X+008788Y+002370
X+008788Y+002434
X+008724Y+002434
X+008661Y+002434
X+008470Y+002307
X+009121Y+002434
X+009629Y+002434
X+009865Y+002678
X+009835Y+002792
X+009629Y+002942
X+009121Y+002942
X+009121Y+001926
X+009629Y+001926
X+009629Y+001418
X+009121Y+001418
X+010137Y+001418
X+010137Y+001926
X+010137Y+002434
X+010645Y+002434
X+010645Y+001926
X+010645Y+003450
X+010645Y+003958
T02
X+003851Y+008865
X+003597Y+008865
X+003597Y+009119
X+003851Y+009119
X+003851Y+009373
X+003597Y+009373
X+003089Y+009373
X+002835Y+009373
X+002581Y+009373
X+002327Y+009373
X+002327Y+009116
X+002581Y+009116
X+002835Y+009116
X+003089Y+009116
X+003089Y+008862
X+002835Y+008862
X+002581Y+008862
X+002327Y+008862
X+004359Y+008738
X+004613Y+008738
X+004613Y+008992
X+004613Y+009246
X+004613Y+009500
X+004359Y+009500
X+004359Y+009246
X+004359Y+008992
X+004867Y+008992
X+004867Y+008738
X+004867Y+009246
X+003041Y+003164
X+002787Y+003164
X+010523Y+003147
X+010523Y+003401
X+010523Y+002893
X+010523Y+002639
T03
X+010241Y+009340
X+010429Y+001626
X+003033Y+001656
X+001651Y+009340
T00
M30
