G04 DipTrace 3.0.0.2*
G04 BottomSilk.gbr*
%MOMM*%
G04 #@! TF.FileFunction,Legend,Bot*
G04 #@! TF.Part,Single*
%ADD181C,0.31373*%
%FSLAX35Y35*%
G04*
G71*
G90*
G75*
G01*
G04 BotSilk*
%LPD*%
X5342985Y1806183D2*
D181*
X5265268Y1602008D1*
X5187551Y1806183D1*
X5124806Y1679725D2*
X5008231D1*
Y1699267D1*
X5017889Y1718808D1*
X5027548Y1728467D1*
X5047089Y1738125D1*
X5076289D1*
X5095606Y1728467D1*
X5115148Y1708925D1*
X5124806Y1679725D1*
Y1660408D1*
X5115148Y1631208D1*
X5095606Y1611891D1*
X5076289Y1602008D1*
X5047089D1*
X5027548Y1611891D1*
X5008231Y1631208D1*
X4945486Y1738125D2*
Y1602008D1*
Y1679725D2*
X4935603Y1708925D1*
X4916286Y1728467D1*
X4896744Y1738125D1*
X4867544D1*
X4697882Y1708925D2*
X4707541Y1728467D1*
X4736741Y1738125D1*
X4765941D1*
X4795141Y1728467D1*
X4804799Y1708925D1*
X4795141Y1689608D1*
X4775599Y1679725D1*
X4727082Y1670067D1*
X4707541Y1660408D1*
X4697882Y1640867D1*
Y1631208D1*
X4707541Y1611891D1*
X4736741Y1602008D1*
X4765941D1*
X4795141Y1611891D1*
X4804799Y1631208D1*
X4635137Y1806183D2*
X4625478Y1796525D1*
X4615595Y1806183D1*
X4625478Y1816067D1*
X4635137Y1806183D1*
X4625478Y1738125D2*
Y1602008D1*
X4504333Y1738125D2*
X4523650Y1728467D1*
X4543192Y1708925D1*
X4552850Y1679725D1*
Y1660408D1*
X4543192Y1631208D1*
X4523650Y1611891D1*
X4504333Y1602008D1*
X4475133D1*
X4455592Y1611891D1*
X4436275Y1631208D1*
X4426392Y1660408D1*
Y1679725D1*
X4436275Y1708925D1*
X4455592Y1728467D1*
X4475133Y1738125D1*
X4504333D1*
X4363647D2*
Y1602008D1*
Y1699267D2*
X4334447Y1728467D1*
X4314905Y1738125D1*
X4285930D1*
X4266388Y1728467D1*
X4256730Y1699267D1*
Y1602008D1*
X3879895Y1805959D2*
X3976929D1*
X3986587Y1718583D1*
X3976929Y1728242D1*
X3947729Y1738125D1*
X3918753D1*
X3889553Y1728242D1*
X3870012Y1708925D1*
X3860353Y1679725D1*
Y1660408D1*
X3870012Y1631208D1*
X3889553Y1611667D1*
X3918753Y1602008D1*
X3947729D1*
X3976929Y1611667D1*
X3986587Y1621550D1*
X3996470Y1640867D1*
M02*
