G04 DipTrace 3.0.0.2*
G04 TopSilk.gbr*
%MOMM*%
G04 #@! TF.FileFunction,Legend,Top*
G04 #@! TF.Part,Single*
%ADD10C,0.25*%
%ADD12C,0.0762*%
%ADD26C,0.13*%
%ADD37O,0.80006X0.79964*%
%ADD43O,0.23995X0.23951*%
%ADD44O,0.23999X0.23961*%
%ADD46O,0.23961X0.23999*%
%ADD47O,0.60002X0.60023*%
%ADD49O,0.79956X0.8004*%
%ADD53O,0.08115X0.15616*%
%ADD62O,0.39154X0.39176*%
%ADD64O,0.39171X0.39131*%
%ADD70O,0.39124X0.39193*%
%ADD73O,0.39177X0.3915*%
%ADD76O,0.7935X0.79439*%
%ADD80C,0.45716*%
%ADD83O,0.36622X0.39147*%
%ADD86O,0.38993X0.39289*%
%ADD180C,0.19608*%
%ADD182C,0.11765*%
%ADD183C,0.15686*%
%FSLAX35Y35*%
G04*
G71*
G90*
G75*
G01*
G04 TopSilk*
%LPD*%
X7608148Y1910458D2*
D10*
Y1846970D1*
X8644482D1*
Y1895226D1*
Y2149242D2*
Y2448954D1*
X8484480Y2450874D2*
X8644482D1*
X7608148Y2149242D2*
Y2448954D1*
Y2450874D2*
X7768150D1*
X8960472Y3115069D2*
X8961121Y3178574D1*
X7340601D1*
X7341249D2*
Y3130919D1*
Y2877005D2*
Y2813394D1*
X7499898D2*
X7341249D1*
X8960472Y2877005D2*
Y2813394D1*
X8801823D1*
X7468691Y4237384D2*
X7598591D1*
X6106341Y7249907D2*
X5976441D1*
X8375557Y6579084D2*
X8215717D1*
X8375557Y6560164D2*
X8215717D1*
X8375557D2*
Y6620004D1*
X8215717Y6560164D2*
Y6620004D1*
X6452441Y4205387D2*
X6582341D1*
X5805264Y2306164D2*
Y2466004D1*
X5786344Y2306164D2*
Y2466004D1*
Y2306164D2*
X5846184D1*
X5786344Y2466004D2*
X5846184D1*
X6341564Y7809264D2*
X6471464D1*
X8613687Y6579084D2*
X8453847D1*
X8613687Y6560164D2*
X8453847D1*
X8613687D2*
Y6620004D1*
X8453847Y6560164D2*
Y6620004D1*
X5288393Y4196114D2*
X6012912D1*
X5174281Y4082118D2*
X5288393Y4196114D1*
Y3357914D2*
X6012912D1*
X5174281Y3471909D2*
X5288393Y3357914D1*
X5174281Y3901989D2*
Y4082118D1*
Y3471909D2*
Y3652038D1*
X6012912Y3901989D2*
Y4196114D1*
Y3357914D2*
Y3652038D1*
D37*
X5093584Y3931997D3*
X7896951Y7749837D2*
D10*
X8056791D1*
X7896951Y7768757D2*
X8056791D1*
X7896951D2*
Y7708917D1*
X8056791Y7768757D2*
Y7708917D1*
X9079587Y8147260D2*
Y8277160D1*
X8789764Y6179664D2*
Y6339504D1*
X8770844Y6179664D2*
Y6339504D1*
Y6179664D2*
X8830684D1*
X8770844Y6339504D2*
X8830684D1*
X5868217Y7249907D2*
X5738317D1*
X6661964Y7583284D2*
X6532064D1*
X7499441Y7749837D2*
X7659281D1*
X7499441Y7768757D2*
X7659281D1*
X7499441D2*
Y7708917D1*
X7659281Y7768757D2*
Y7708917D1*
X3469641Y8737990D2*
X3977641D1*
Y9499990D1*
X3469641D1*
Y8737990D1*
X4231641Y8610990D2*
X4739641D1*
Y9626990D1*
X4231641D1*
Y8610990D1*
X3215685Y9245978D2*
X2199596D1*
Y9499990D1*
X3215685D1*
Y9245978D1*
Y8989438D2*
X2199596D1*
Y9243450D1*
X3215685D1*
Y8989438D1*
Y8735438D2*
X2199596D1*
Y8989450D1*
X3215685D1*
Y8735438D1*
X7780801Y5949290D2*
X8100481D1*
X7780801Y5649130D2*
X8100481D1*
X8678417Y7326712D2*
X8518410D1*
X8678417Y7446709D2*
X8518410D1*
D43*
X8772407Y7386710D3*
X6784012Y4546847D2*
D10*
Y4386849D1*
X6664016Y4546847D2*
Y4386849D1*
D44*
X6724014Y4640847D3*
X6156019Y7527824D2*
D10*
Y7687822D1*
X6276016Y7527824D2*
Y7687822D1*
D44*
X6216017Y7433824D3*
X6567030Y7279089D2*
D10*
X6407033D1*
X6567030Y7399085D2*
X6407033D1*
D46*
X6661030Y7339087D3*
X6664016Y4686197D2*
D10*
Y4846195D1*
X6784012Y4686197D2*
Y4846195D1*
D44*
X6724014Y4592197D3*
X8865009Y5536087D2*
D10*
Y5976053D1*
X9155012Y5536087D2*
Y5976053D1*
D47*
X9010025Y5436089D3*
X5345416Y3279334D2*
D10*
X6035448D1*
X5345416Y2699334D2*
X6035448D1*
X5345416Y3279334D2*
Y3199352D1*
X6035448Y3279334D2*
Y3199352D1*
X5345416Y2769340D2*
Y2699334D1*
X6035448Y2769340D2*
Y2699334D1*
D49*
X5130368Y2989334D3*
X4739628Y8611038D2*
D10*
X4993641D1*
Y9372942D1*
X4739628D1*
Y8611038D1*
X3168017Y3290960D2*
X2660017D1*
Y3036960D1*
X3168017D1*
Y3290960D1*
X8105141Y7420984D2*
X8168641D1*
Y6913016D1*
X8105141D1*
X7724141Y7420984D2*
X7660641D1*
Y6913016D1*
X7724141D2*
X7660641D1*
X9882539Y4886715D2*
X8882382D1*
Y3886592D1*
X9882539D1*
Y4886715D1*
X9885046Y4614982D2*
X9618337Y4881615D1*
X9161123Y3890992D2*
X8886794Y4150124D1*
X7819471Y8819071D2*
Y9184202D1*
X8200471Y8819071D2*
Y9184202D1*
D53*
X8009913Y8819313D3*
X7819471Y8819071D2*
D10*
X8200471D1*
X7819471Y9184202D2*
X8200471D1*
X3725227Y2547120D2*
Y3816993D1*
X3947477D1*
X3725227Y2547120D2*
X3947477D1*
X4995227Y3816993D2*
Y2547120D1*
X4772977D1*
X4995227Y3816993D2*
X4772977D1*
D62*
X8767049Y8125468D3*
X8800385Y8212847D2*
D10*
X9000402D1*
Y8262820D1*
X8800385D1*
Y8212847D1*
D64*
X3167922Y6194398D3*
X3061346Y6120861D2*
D10*
X2849211Y6333004D1*
X2813875Y6297652D1*
X3025970Y6085509D1*
X3061346Y6120861D1*
D64*
X2630899Y6615605D3*
X2737475Y6689143D2*
D10*
X2949610Y6477000D1*
X2984946Y6512352D1*
X2772851Y6724495D1*
X2737475Y6689143D1*
X5340901Y6260630D2*
Y6200790D1*
X5090881Y6260630D2*
Y6200790D1*
X7524971Y6711560D2*
Y6391880D1*
X7224811Y6711560D2*
Y6391880D1*
X5419083Y7088262D2*
X5387345D1*
Y6866012D1*
X5419083D1*
Y7088262D1*
X3272261Y3624337D2*
X2637261D1*
Y4005337D1*
X3272261D1*
Y3624337D1*
X10650233Y3528495D2*
X10396221D1*
Y2512405D1*
X10650233D1*
Y3528495D1*
X1520635Y5996270D2*
X1475733Y5951385D1*
X2208555Y5218609D1*
X2242667Y5252707D1*
X2422276Y5432364D2*
X2634140Y5644264D1*
X2522407Y5758738D2*
X2635532Y5645656D1*
X1689453Y6165140D2*
X1901434Y6377040D1*
X1902710Y6378432D2*
X2015836Y6265349D1*
D70*
X7345247Y4272531D3*
X7347887Y4045836D2*
D10*
X6687919D1*
X7347887Y3765837D2*
X6687919D1*
Y4045836D2*
Y3765837D1*
X7347887Y4045836D2*
Y3765837D1*
D73*
X7419139Y5086472D3*
X7332306Y5009837D2*
D10*
X7142234D1*
X7332306Y5309837D2*
X7132259D1*
X7332306Y5279837D2*
Y5309837D1*
X7132259Y5279837D2*
Y5309837D1*
X7142234Y5009837D2*
Y5039837D1*
X7332306Y5009837D2*
Y5039837D1*
X9232234Y5513614D2*
X9787891D1*
Y5164307D1*
X9232234D1*
Y5513614D1*
D76*
X9129065Y5092896D3*
X9232234Y5275437D2*
D10*
X9327509Y5164307D1*
X2725857Y5167614D2*
X3174894Y5616650D1*
X3623931Y5167614D1*
X3174894Y4718577D1*
X2725857Y5167614D1*
X2815730Y5077850D2*
Y5257377D1*
X5483324Y2033337D2*
X6038981D1*
Y1684030D1*
X5483324D1*
Y2033337D1*
D76*
X5380155Y1612619D3*
X5483324Y1795161D2*
D10*
X5578599Y1684030D1*
X10148441Y4629253D2*
Y5389241D1*
X10608441Y4629253D2*
Y5389241D1*
X10148441Y4859211D2*
X10608441D1*
X8314179Y8834514D2*
X8507221D1*
Y9078349D2*
X8314179D1*
D80*
X8558666Y8822444D3*
X5911320Y9396060D2*
D10*
X5938052Y9426132D1*
X5911320Y9098366D2*
X5938052D1*
X5911320D2*
Y9128474D1*
X6233060Y9098366D2*
Y9128474D1*
Y9098366D2*
X6206203D1*
X6233060Y9426132D2*
Y9396060D1*
Y9426132D2*
X6206203D1*
D83*
X5854358Y9365632D3*
D86*
X2502617Y4450145D3*
X6279271Y8220737D2*
D26*
Y8411884D1*
X6470081Y8221074D2*
X6278937D1*
X6469751Y8220737D2*
X6453874Y8204867D1*
X6469751Y8220737D2*
X6453874Y8236617D1*
X6279271Y8411220D2*
X6295141Y8395350D1*
X6279271Y8411220D2*
X6263394Y8395350D1*
X5469344Y8205567D2*
Y8396707D1*
X5660154Y8205897D2*
X5469014D1*
X5659824Y8205567D2*
X5643951Y8189690D1*
X5659824Y8205567D2*
X5643951Y8221440D1*
X5469344Y8396044D2*
X5485217Y8380170D1*
X5469344Y8396044D2*
X5453471Y8380170D1*
X1889761Y8110610D2*
D12*
X2506981D1*
X1600201Y8849750D2*
X2049781D1*
X6646638Y2037347D2*
D180*
X6597924Y2164957D1*
X6549351Y2037347D1*
X6567601Y2079884D2*
X6628388D1*
X6685853Y2164957D2*
Y2037347D1*
X6728390D1*
X6746640Y2043524D1*
X6758853Y2055597D1*
X6764890Y2067811D1*
X6770926Y2085920D1*
Y2116384D1*
X6764890Y2134634D1*
X6758853Y2146707D1*
X6746640Y2158920D1*
X6728390Y2164957D1*
X6685853D1*
X6907429Y2037347D2*
X6858715Y2164957D1*
X6810142Y2037347D1*
X6828392Y2079884D2*
X6889179D1*
X6946644Y2098134D2*
X7001394D1*
X7019504Y2104170D1*
X7025681Y2110347D1*
X7031717Y2122420D1*
Y2140670D1*
X7025681Y2152743D1*
X7019504Y2158920D1*
X7001394Y2164957D1*
X6946644D1*
Y2037347D1*
X7113470Y2164957D2*
Y2037347D1*
X7070933Y2164957D2*
X7156006D1*
X7231722D2*
X7219508Y2158920D1*
X7207435Y2146707D1*
X7201258Y2134634D1*
X7195222Y2116384D1*
Y2085920D1*
X7201258Y2067811D1*
X7207435Y2055597D1*
X7219508Y2043524D1*
X7231722Y2037347D1*
X7256008D1*
X7268081Y2043524D1*
X7280295Y2055597D1*
X7286331Y2067811D1*
X7292368Y2085920D1*
Y2116384D1*
X7286331Y2134634D1*
X7280295Y2146707D1*
X7268081Y2158920D1*
X7256008Y2164957D1*
X7231722D1*
X7331584Y2104170D2*
X7386193D1*
X7404443Y2110347D1*
X7410620Y2116384D1*
X7416657Y2128457D1*
Y2140670D1*
X7410620Y2152743D1*
X7404443Y2158920D1*
X7386193Y2164957D1*
X7331584D1*
Y2037347D1*
X7374120Y2104170D2*
X7416657Y2037347D1*
X6364171Y3078810D2*
Y2951201D1*
X6418921D1*
X6437171Y2957378D1*
X6443208Y2963414D1*
X6449244Y2975487D1*
Y2993737D1*
X6443208Y3005951D1*
X6437171Y3011987D1*
X6418921Y3018024D1*
X6437171Y3024201D1*
X6443208Y3030237D1*
X6449244Y3042310D1*
Y3054524D1*
X6443208Y3066597D1*
X6437171Y3072774D1*
X6418921Y3078810D1*
X6364171D1*
Y3018024D2*
X6418921D1*
X6488460Y3078810D2*
Y2987701D1*
X6494496Y2969451D1*
X6506710Y2957378D1*
X6524960Y2951201D1*
X6537033D1*
X6555283Y2957378D1*
X6567496Y2969451D1*
X6573533Y2987701D1*
Y3078810D1*
X6655285D2*
Y2951201D1*
X6612749Y3078810D2*
X6697822D1*
X6779574D2*
Y2951201D1*
X6737037Y3078810D2*
X6822111D1*
X6897826D2*
X6885613Y3072774D1*
X6873540Y3060560D1*
X6867363Y3048487D1*
X6861326Y3030237D1*
Y2999774D1*
X6867363Y2981664D1*
X6873540Y2969451D1*
X6885613Y2957378D1*
X6897826Y2951201D1*
X6922113D1*
X6934186Y2957378D1*
X6946399Y2969451D1*
X6952436Y2981664D1*
X6958472Y2999774D1*
Y3030237D1*
X6952436Y3048487D1*
X6946399Y3060560D1*
X6934186Y3072774D1*
X6922113Y3078810D1*
X6897826D1*
X7082761D2*
Y2951201D1*
X6997688Y3078810D1*
Y2951201D1*
X7207050Y3060560D2*
X7194977Y3072774D1*
X7176727Y3078810D1*
X7152440D1*
X7134190Y3072774D1*
X7121977Y3060560D1*
Y3048487D1*
X7128154Y3036274D1*
X7134190Y3030237D1*
X7146263Y3024201D1*
X7182763Y3011987D1*
X7194977Y3005951D1*
X7201013Y2999774D1*
X7207050Y2987701D1*
Y2969451D1*
X7194977Y2957378D1*
X7176727Y2951201D1*
X7152440D1*
X7134190Y2957378D1*
X7121977Y2969451D1*
X6249437Y5831664D2*
X6243401Y5843737D1*
X6231187Y5855950D1*
X6219114Y5861987D1*
X6194828D1*
X6182614Y5855950D1*
X6170541Y5843737D1*
X6164364Y5831664D1*
X6158328Y5813414D1*
Y5782950D1*
X6164364Y5764841D1*
X6170541Y5752627D1*
X6182614Y5740554D1*
X6194828Y5734377D1*
X6219114D1*
X6231187Y5740554D1*
X6243401Y5752627D1*
X6249437Y5764841D1*
X6288653Y5861987D2*
Y5734377D1*
Y5795164D2*
X6306903Y5813414D1*
X6319117Y5819450D1*
X6337367D1*
X6349440Y5813414D1*
X6355476Y5795164D1*
Y5734377D1*
X6467551Y5819450D2*
Y5734377D1*
Y5801200D2*
X6455478Y5813414D1*
X6443265Y5819450D1*
X6425155D1*
X6412942Y5813414D1*
X6400869Y5801200D1*
X6394692Y5782950D1*
Y5770877D1*
X6400869Y5752627D1*
X6412942Y5740554D1*
X6425155Y5734377D1*
X6443265D1*
X6455478Y5740554D1*
X6467551Y5752627D1*
X6506767Y5819450D2*
Y5734377D1*
Y5782950D2*
X6512944Y5801200D1*
X6525017Y5813414D1*
X6537231Y5819450D1*
X6555481D1*
X6667556Y5813414D2*
Y5716127D1*
X6661519Y5698018D1*
X6655483Y5691841D1*
X6643269Y5685804D1*
X6625019D1*
X6612946Y5691841D1*
X6667556Y5795164D2*
X6655483Y5807237D1*
X6643269Y5813414D1*
X6625019D1*
X6612946Y5807237D1*
X6600733Y5795164D1*
X6594696Y5776914D1*
Y5764700D1*
X6600733Y5746591D1*
X6612946Y5734377D1*
X6625019Y5728341D1*
X6643269D1*
X6655483Y5734377D1*
X6667556Y5746591D1*
X6706772Y5782950D2*
X6779631D1*
Y5795164D1*
X6773595Y5807377D1*
X6767558Y5813414D1*
X6755345Y5819450D1*
X6737095D1*
X6725022Y5813414D1*
X6712808Y5801200D1*
X6706772Y5782950D1*
Y5770877D1*
X6712808Y5752627D1*
X6725022Y5740554D1*
X6737095Y5734377D1*
X6755345D1*
X6767558Y5740554D1*
X6779631Y5752627D1*
X6818847Y5819450D2*
Y5734377D1*
Y5782950D2*
X6825024Y5801200D1*
X6837097Y5813414D1*
X6849310Y5819450D1*
X6867560D1*
X6906776Y5861987D2*
Y5734377D1*
X6961526D1*
X6979776Y5740554D1*
X6985813Y5746591D1*
X6991849Y5758664D1*
Y5776914D1*
X6985813Y5789127D1*
X6979776Y5795164D1*
X6961526Y5801200D1*
X6979776Y5807377D1*
X6985813Y5813414D1*
X6991849Y5825487D1*
Y5837700D1*
X6985813Y5849773D1*
X6979776Y5855950D1*
X6961526Y5861987D1*
X6906776D1*
Y5801200D2*
X6961526D1*
X7031065Y5819450D2*
Y5734377D1*
Y5782950D2*
X7037242Y5801200D1*
X7049315Y5813414D1*
X7061528Y5819450D1*
X7079778D1*
X7118994Y5861987D2*
X7125030Y5855950D1*
X7131207Y5861987D1*
X7125030Y5868164D1*
X7118994Y5861987D1*
X7125030Y5819450D2*
Y5734377D1*
X7243283Y5861987D2*
Y5734377D1*
Y5801200D2*
X7231210Y5813414D1*
X7218996Y5819450D1*
X7200746D1*
X7188673Y5813414D1*
X7176460Y5801200D1*
X7170423Y5782950D1*
Y5770877D1*
X7176460Y5752627D1*
X7188673Y5740554D1*
X7200746Y5734377D1*
X7218996D1*
X7231210Y5740554D1*
X7243283Y5752627D1*
X7355358Y5813414D2*
Y5716127D1*
X7349321Y5698018D1*
X7343285Y5691841D1*
X7331071Y5685804D1*
X7312821D1*
X7300748Y5691841D1*
X7355358Y5795164D2*
X7343285Y5807237D1*
X7331071Y5813414D1*
X7312821D1*
X7300748Y5807237D1*
X7288535Y5795164D1*
X7282498Y5776914D1*
Y5764700D1*
X7288535Y5746591D1*
X7300748Y5734377D1*
X7312821Y5728341D1*
X7331071D1*
X7343285Y5734377D1*
X7355358Y5746591D1*
X7394574Y5782950D2*
X7467433D1*
Y5795164D1*
X7461397Y5807377D1*
X7455360Y5813414D1*
X7443147Y5819450D1*
X7424897D1*
X7412824Y5813414D1*
X7400610Y5801200D1*
X7394574Y5782950D1*
Y5770877D1*
X7400610Y5752627D1*
X7412824Y5740554D1*
X7424897Y5734377D1*
X7443147D1*
X7455360Y5740554D1*
X7467433Y5752627D1*
X2688848Y2962135D2*
Y2834526D1*
X2743598D1*
X2761848Y2840703D1*
X2767884Y2846739D1*
X2773921Y2858812D1*
Y2877062D1*
X2767884Y2889276D1*
X2761848Y2895312D1*
X2743598Y2901349D1*
X2761848Y2907526D1*
X2767884Y2913562D1*
X2773921Y2925635D1*
Y2937849D1*
X2767884Y2949922D1*
X2761848Y2956099D1*
X2743598Y2962135D1*
X2688848D1*
Y2901349D2*
X2743598D1*
X2849637Y2962135D2*
X2837423Y2956099D1*
X2825350Y2943885D1*
X2819173Y2931812D1*
X2813137Y2913562D1*
Y2883099D1*
X2819173Y2864989D1*
X2825350Y2852776D1*
X2837423Y2840703D1*
X2849637Y2834526D1*
X2873923D1*
X2885996Y2840703D1*
X2898210Y2852776D1*
X2904246Y2864989D1*
X2910283Y2883099D1*
Y2913562D1*
X2904246Y2931812D1*
X2898210Y2943885D1*
X2885996Y2956099D1*
X2873923Y2962135D1*
X2849637D1*
X2985998D2*
X2973785Y2956099D1*
X2961712Y2943885D1*
X2955535Y2931812D1*
X2949498Y2913562D1*
Y2883099D1*
X2955535Y2864989D1*
X2961712Y2852776D1*
X2973785Y2840703D1*
X2985998Y2834526D1*
X3010285D1*
X3022358Y2840703D1*
X3034571Y2852776D1*
X3040608Y2864989D1*
X3046645Y2883099D1*
Y2913562D1*
X3040608Y2931812D1*
X3034571Y2943885D1*
X3022358Y2956099D1*
X3010285Y2962135D1*
X2985998D1*
X3128397D2*
Y2834526D1*
X3085860Y2962135D2*
X3170933D1*
X2100985Y7109057D2*
X2088912Y7121270D1*
X2070662Y7127307D1*
X2046375D1*
X2028125Y7121270D1*
X2015912Y7109057D1*
Y7096984D1*
X2022089Y7084770D1*
X2028125Y7078734D1*
X2040198Y7072697D1*
X2076698Y7060484D1*
X2088912Y7054447D1*
X2094948Y7048270D1*
X2100985Y7036197D1*
Y7017947D1*
X2088912Y7005874D1*
X2070662Y6999697D1*
X2046375D1*
X2028125Y7005874D1*
X2015912Y7017947D1*
X2140201Y7127307D2*
Y6999697D1*
X2182737D1*
X2200987Y7005874D1*
X2213201Y7017947D1*
X2219237Y7030161D1*
X2225274Y7048270D1*
Y7078734D1*
X2219237Y7096984D1*
X2213201Y7109057D1*
X2200987Y7121270D1*
X2182737Y7127307D1*
X2140201D1*
X2361776Y6999697D2*
X2313062Y7127307D1*
X2264489Y6999697D1*
X2282739Y7042234D2*
X2343526D1*
X2096937Y7295200D2*
X2084864Y7307414D1*
X2066614Y7313450D1*
X2042327D1*
X2024077Y7307414D1*
X2011864Y7295200D1*
Y7283127D1*
X2018041Y7270914D1*
X2024077Y7264877D1*
X2036150Y7258841D1*
X2072650Y7246627D1*
X2084864Y7240591D1*
X2090900Y7234414D1*
X2096937Y7222341D1*
Y7204091D1*
X2084864Y7192018D1*
X2066614Y7185841D1*
X2042327D1*
X2024077Y7192018D1*
X2011864Y7204091D1*
X2227262Y7283127D2*
X2221226Y7295200D1*
X2209012Y7307414D1*
X2196939Y7313450D1*
X2172652D1*
X2160439Y7307414D1*
X2148366Y7295200D1*
X2142189Y7283127D1*
X2136152Y7264877D1*
Y7234414D1*
X2142189Y7216304D1*
X2148366Y7204091D1*
X2160439Y7192018D1*
X2172652Y7185841D1*
X2196939D1*
X2209012Y7192018D1*
X2221226Y7204091D1*
X2227262Y7216304D1*
X2266478Y7313450D2*
Y7185841D1*
X2339337D1*
X2004862Y8029730D2*
Y7902121D1*
X2129151Y8029730D2*
Y7902121D1*
X2044078Y8029730D1*
Y7902121D1*
X2210903Y8029730D2*
Y7902121D1*
X2168367Y8029730D2*
X2253440D1*
X2292655Y8005303D2*
X2304869Y8011480D1*
X2323119Y8029590D1*
Y7902121D1*
X2009307Y7862090D2*
Y7734481D1*
X2133596Y7862090D2*
Y7734481D1*
X2048523Y7862090D1*
Y7734481D1*
X2215348Y7862090D2*
Y7734481D1*
X2172812Y7862090D2*
X2257885D1*
X2303278Y7831627D2*
Y7837663D1*
X2309314Y7849877D1*
X2315351Y7855913D1*
X2327564Y7861950D1*
X2351851D1*
X2363924Y7855913D1*
X2369960Y7849877D1*
X2376137Y7837663D1*
Y7825590D1*
X2369960Y7813377D1*
X2357887Y7795267D1*
X2297101Y7734481D1*
X2382174D1*
X2092727Y7470464D2*
X2080654Y7482677D1*
X2062404Y7488714D1*
X2038118D1*
X2019868Y7482677D1*
X2007654Y7470464D1*
Y7458390D1*
X2013831Y7446177D1*
X2019868Y7440140D1*
X2031941Y7434104D1*
X2068441Y7421890D1*
X2080654Y7415854D1*
X2086691Y7409677D1*
X2092727Y7397604D1*
Y7379354D1*
X2080654Y7367281D1*
X2062404Y7361104D1*
X2038118D1*
X2019868Y7367281D1*
X2007654Y7379354D1*
X2131943Y7488714D2*
Y7361104D1*
X2174479D1*
X2192729Y7367281D1*
X2204943Y7379354D1*
X2210979Y7391567D1*
X2217016Y7409677D1*
Y7440140D1*
X2210979Y7458390D1*
X2204943Y7470464D1*
X2192729Y7482677D1*
X2174479Y7488714D1*
X2131943D1*
X2353518Y7361104D2*
X2304805Y7488714D1*
X2256232Y7361104D1*
X2274482Y7403640D2*
X2335268D1*
X2398911Y7458250D2*
Y7464287D1*
X2404947Y7476500D1*
X2410984Y7482537D1*
X2423197Y7488573D1*
X2447484D1*
X2459557Y7482537D1*
X2465593Y7476500D1*
X2471770Y7464287D1*
Y7452214D1*
X2465593Y7440000D1*
X2453520Y7421890D1*
X2392734Y7361104D1*
X2477807D1*
X2086682Y7653344D2*
X2074609Y7665557D1*
X2056359Y7671594D1*
X2032073D1*
X2013823Y7665557D1*
X2001609Y7653344D1*
Y7641270D1*
X2007786Y7629057D1*
X2013823Y7623020D1*
X2025896Y7616984D1*
X2062396Y7604770D1*
X2074609Y7598734D1*
X2080646Y7592557D1*
X2086682Y7580484D1*
Y7562234D1*
X2074609Y7550161D1*
X2056359Y7543984D1*
X2032073D1*
X2013823Y7550161D1*
X2001609Y7562234D1*
X2217008Y7641270D2*
X2210971Y7653344D1*
X2198758Y7665557D1*
X2186685Y7671594D1*
X2162398D1*
X2150185Y7665557D1*
X2138112Y7653344D1*
X2131935Y7641270D1*
X2125898Y7623020D1*
Y7592557D1*
X2131935Y7574447D1*
X2138112Y7562234D1*
X2150185Y7550161D1*
X2162398Y7543984D1*
X2186685D1*
X2198758Y7550161D1*
X2210971Y7562234D1*
X2217008Y7574447D1*
X2256223Y7671594D2*
Y7543984D1*
X2329083D1*
X2374476Y7641130D2*
Y7647167D1*
X2380512Y7659380D1*
X2386549Y7665417D1*
X2398762Y7671453D1*
X2423049D1*
X2435122Y7665417D1*
X2441158Y7659380D1*
X2447335Y7647167D1*
Y7635094D1*
X2441158Y7622880D1*
X2429085Y7604770D1*
X2368299Y7543984D1*
X2453372D1*
X1718625Y8798880D2*
X1706552Y8811094D1*
X1688302Y8817130D1*
X1664015D1*
X1645765Y8811094D1*
X1633552Y8798880D1*
Y8786807D1*
X1639729Y8774594D1*
X1645765Y8768557D1*
X1657838Y8762521D1*
X1694338Y8750307D1*
X1706552Y8744271D1*
X1712588Y8738094D1*
X1718625Y8726021D1*
Y8707771D1*
X1706552Y8695698D1*
X1688302Y8689521D1*
X1664015D1*
X1645765Y8695698D1*
X1633552Y8707771D1*
X1757841Y8817130D2*
Y8689521D1*
X1800377D1*
X1818627Y8695698D1*
X1830841Y8707771D1*
X1836877Y8719984D1*
X1842914Y8738094D1*
Y8768557D1*
X1836877Y8786807D1*
X1830841Y8798880D1*
X1818627Y8811094D1*
X1800377Y8817130D1*
X1757841D1*
X1979416Y8689521D2*
X1930702Y8817130D1*
X1882129Y8689521D1*
X1900379Y8732057D2*
X1961166D1*
X1720203Y8631874D2*
X1708130Y8644087D1*
X1689880Y8650124D1*
X1665594D1*
X1647344Y8644087D1*
X1635130Y8631874D1*
Y8619800D1*
X1641307Y8607587D1*
X1647344Y8601550D1*
X1659417Y8595514D1*
X1695917Y8583300D1*
X1708130Y8577264D1*
X1714167Y8571087D1*
X1720203Y8559014D1*
Y8540764D1*
X1708130Y8528691D1*
X1689880Y8522514D1*
X1665594D1*
X1647344Y8528691D1*
X1635130Y8540764D1*
X1850529Y8619800D2*
X1844492Y8631874D1*
X1832279Y8644087D1*
X1820206Y8650124D1*
X1795919D1*
X1783706Y8644087D1*
X1771633Y8631874D1*
X1765456Y8619800D1*
X1759419Y8601550D1*
Y8571087D1*
X1765456Y8552977D1*
X1771633Y8540764D1*
X1783706Y8528691D1*
X1795919Y8522514D1*
X1820206D1*
X1832279Y8528691D1*
X1844492Y8540764D1*
X1850529Y8552977D1*
X1889744Y8650124D2*
Y8522514D1*
X1962604D1*
X2669823Y3472849D2*
X2724433D1*
X2742683Y3479026D1*
X2748860Y3485062D1*
X2754896Y3497135D1*
Y3509349D1*
X2748860Y3521422D1*
X2742683Y3527599D1*
X2724433Y3533635D1*
X2669823D1*
Y3406026D1*
X2712360Y3472849D2*
X2754896Y3406026D1*
X2873008Y3533635D2*
X2794112D1*
Y3406026D1*
X2873008D1*
X2794112Y3472849D2*
X2842685D1*
X2997297Y3515385D2*
X2985224Y3527599D1*
X2966974Y3533635D1*
X2942687D1*
X2924437Y3527599D1*
X2912224Y3515385D1*
Y3503312D1*
X2918401Y3491099D1*
X2924437Y3485062D1*
X2936511Y3479026D1*
X2973011Y3466812D1*
X2985224Y3460776D1*
X2991261Y3454599D1*
X2997297Y3442526D1*
Y3424276D1*
X2985224Y3412203D1*
X2966974Y3406026D1*
X2942687D1*
X2924437Y3412203D1*
X2912224Y3424276D1*
X3115409Y3533635D2*
X3036513D1*
Y3406026D1*
X3115409D1*
X3036513Y3472849D2*
X3085086D1*
X3197161Y3533635D2*
Y3406026D1*
X3154625Y3533635D2*
X3239698D1*
X10414475Y3802867D2*
X10402402Y3815080D1*
X10384152Y3821117D1*
X10359865D1*
X10341615Y3815080D1*
X10329402Y3802867D1*
Y3790794D1*
X10335579Y3778580D1*
X10341615Y3772544D1*
X10353689Y3766507D1*
X10390189Y3754294D1*
X10402402Y3748257D1*
X10408439Y3742080D1*
X10414475Y3730007D1*
Y3711757D1*
X10402402Y3699684D1*
X10384152Y3693507D1*
X10359865D1*
X10341615Y3699684D1*
X10329402Y3711757D1*
X10550837Y3693507D2*
Y3821117D1*
X10502264Y3693507D1*
X10453691Y3821117D1*
Y3693507D1*
X10590053Y3821117D2*
Y3693507D1*
X10644803D1*
X10663053Y3699684D1*
X10669089Y3705721D1*
X10675126Y3717794D1*
Y3736044D1*
X10669089Y3748257D1*
X10663053Y3754294D1*
X10644803Y3760330D1*
X10663053Y3766507D1*
X10669089Y3772544D1*
X10675126Y3784617D1*
Y3796830D1*
X10669089Y3808903D1*
X10663053Y3815080D1*
X10644803Y3821117D1*
X10590053D1*
Y3760330D2*
X10644803D1*
X1268733Y6509339D2*
X1256660Y6521552D1*
X1238410Y6527589D1*
X1214124D1*
X1195874Y6521552D1*
X1183660Y6509339D1*
Y6497265D1*
X1189837Y6485052D1*
X1195874Y6479015D1*
X1207947Y6472979D1*
X1244447Y6460765D1*
X1256660Y6454729D1*
X1262697Y6448552D1*
X1268733Y6436479D1*
Y6418229D1*
X1256660Y6406156D1*
X1238410Y6399979D1*
X1214124D1*
X1195874Y6406156D1*
X1183660Y6418229D1*
X1307949Y6527589D2*
X1338413Y6399979D1*
X1368736Y6527589D1*
X1399059Y6399979D1*
X1429522Y6527589D1*
X1468738D2*
Y6399979D1*
X1550490Y6527589D2*
Y6399979D1*
X1507954Y6527589D2*
X1593027D1*
X1723352Y6497265D2*
X1717315Y6509339D1*
X1705102Y6521552D1*
X1693029Y6527589D1*
X1668742D1*
X1656529Y6521552D1*
X1644456Y6509339D1*
X1638279Y6497265D1*
X1632242Y6479015D1*
Y6448552D1*
X1638279Y6430442D1*
X1644456Y6418229D1*
X1656529Y6406156D1*
X1668742Y6399979D1*
X1693029D1*
X1705102Y6406156D1*
X1717315Y6418229D1*
X1723352Y6430442D1*
X1762568Y6527589D2*
Y6399979D1*
X1847641Y6527589D2*
Y6399979D1*
X1762568Y6466802D2*
X1847641D1*
X1901544Y8209549D2*
X1956294D1*
X1974404Y8215585D1*
X1980581Y8221762D1*
X1986618Y8233835D1*
Y8252085D1*
X1980581Y8264158D1*
X1974404Y8270335D1*
X1956294Y8276372D1*
X1901544D1*
Y8148762D1*
X2025833Y8233835D2*
Y8173049D1*
X2031870Y8154939D1*
X2044083Y8148762D1*
X2062333D1*
X2074406Y8154939D1*
X2092656Y8173049D1*
Y8233835D2*
Y8148762D1*
X2131872Y8276372D2*
Y8148762D1*
X2171088Y8276372D2*
Y8148762D1*
X2210303Y8233835D2*
Y8173049D1*
X2216340Y8154939D1*
X2228553Y8148762D1*
X2246803D1*
X2258876Y8154939D1*
X2277126Y8173049D1*
Y8233835D2*
Y8148762D1*
X2316342Y8233835D2*
Y8106226D1*
Y8215585D2*
X2328556Y8227658D1*
X2340629Y8233835D1*
X2358879D1*
X2371092Y8227658D1*
X2383165Y8215585D1*
X2389342Y8197335D1*
Y8185122D1*
X2383165Y8167012D1*
X2371092Y8154799D1*
X2358879Y8148762D1*
X2340629D1*
X2328556Y8154799D1*
X2316342Y8167012D1*
X2495381Y8215585D2*
X2489344Y8227799D1*
X2471094Y8233835D1*
X2452844D1*
X2434594Y8227799D1*
X2428558Y8215585D1*
X2434594Y8203512D1*
X2446808Y8197335D1*
X2477131Y8191299D1*
X2489344Y8185262D1*
X2495381Y8173049D1*
Y8167012D1*
X2489344Y8154939D1*
X2471094Y8148762D1*
X2452844D1*
X2434594Y8154939D1*
X2428558Y8167012D1*
X1703094Y8971219D2*
X1697058Y8983292D1*
X1684844Y8995505D1*
X1672771Y9001542D1*
X1648484D1*
X1636271Y8995505D1*
X1624198Y8983292D1*
X1618021Y8971219D1*
X1611984Y8952969D1*
Y8922505D1*
X1618021Y8904396D1*
X1624198Y8892182D1*
X1636271Y8880109D1*
X1648484Y8873932D1*
X1672771D1*
X1684844Y8880109D1*
X1697058Y8892182D1*
X1703094Y8904396D1*
X1772633Y8959005D2*
X1760560Y8952969D1*
X1748346Y8940755D1*
X1742310Y8922505D1*
Y8910432D1*
X1748346Y8892182D1*
X1760560Y8880109D1*
X1772633Y8873932D1*
X1790883D1*
X1803096Y8880109D1*
X1815169Y8892182D1*
X1821346Y8910432D1*
Y8922505D1*
X1815169Y8940755D1*
X1803096Y8952969D1*
X1790883Y8959005D1*
X1772633D1*
X1860562D2*
Y8873932D1*
Y8934719D2*
X1878812Y8952969D1*
X1891025Y8959005D1*
X1909135D1*
X1921349Y8952969D1*
X1927385Y8934719D1*
Y8873932D1*
X1966601Y8959005D2*
Y8873932D1*
Y8934719D2*
X1984851Y8952969D1*
X1997064Y8959005D1*
X2015174D1*
X2027387Y8952969D1*
X2033424Y8934719D1*
Y8873932D1*
X6295141Y8456707D2*
D182*
X6255048Y8507751D1*
X6255047Y8456707D2*
X6295141Y8507751D1*
X6521276Y8253313D2*
X6543091Y8202269D1*
X6535848Y8187698D1*
X6528520Y8180369D1*
X6521276Y8176748D1*
X6517570D1*
X6564991Y8253313D2*
X6543091Y8202269D1*
X6206205Y8630171D2*
X6202583Y8637415D1*
X6195255Y8644743D1*
X6188011Y8648365D1*
X6173440D1*
X6166111Y8644743D1*
X6158868Y8637415D1*
X6155161Y8630171D1*
X6151540Y8619221D1*
Y8600943D1*
X6155161Y8590078D1*
X6158868Y8582749D1*
X6166111Y8575506D1*
X6173440Y8571799D1*
X6188011D1*
X6195255Y8575506D1*
X6202583Y8582749D1*
X6206205Y8590078D1*
X6251635Y8648365D2*
X6244307Y8644743D1*
X6237063Y8637415D1*
X6233357Y8630171D1*
X6229735Y8619221D1*
Y8600943D1*
X6233357Y8590078D1*
X6237063Y8582749D1*
X6244307Y8575506D1*
X6251635Y8571799D1*
X6266207D1*
X6273451Y8575506D1*
X6280779Y8582749D1*
X6284401Y8590078D1*
X6288022Y8600943D1*
Y8619221D1*
X6284401Y8630171D1*
X6280779Y8637415D1*
X6273451Y8644743D1*
X6266207Y8648365D1*
X6251635D1*
X6369840Y8571799D2*
Y8648365D1*
X6340696Y8571799D1*
X6311552Y8648365D1*
Y8571799D1*
X6393369Y8608271D2*
X6426219D1*
X6437085Y8611893D1*
X6440791Y8615599D1*
X6444413Y8622843D1*
Y8633793D1*
X6440791Y8641037D1*
X6437085Y8644743D1*
X6426219Y8648365D1*
X6393369D1*
Y8571799D1*
X6526314D2*
X6497086Y8648365D1*
X6467942Y8571799D1*
X6478892Y8597321D2*
X6515364D1*
X6600887Y8637415D2*
X6593644Y8644743D1*
X6582694Y8648365D1*
X6568122D1*
X6557172Y8644743D1*
X6549844Y8637415D1*
Y8630171D1*
X6553550Y8622843D1*
X6557172Y8619221D1*
X6564415Y8615599D1*
X6586315Y8608271D1*
X6593644Y8604649D1*
X6597265Y8600943D1*
X6600887Y8593699D1*
Y8582749D1*
X6593644Y8575506D1*
X6582694Y8571799D1*
X6568122D1*
X6557172Y8575506D1*
X6549844Y8582749D1*
X6675461Y8637415D2*
X6668217Y8644743D1*
X6657267Y8648365D1*
X6642695D1*
X6631745Y8644743D1*
X6624417Y8637415D1*
Y8630171D1*
X6628123Y8622843D1*
X6631745Y8619221D1*
X6638989Y8615599D1*
X6660889Y8608271D1*
X6668217Y8604649D1*
X6671839Y8600943D1*
X6675461Y8593699D1*
Y8582749D1*
X6668217Y8575506D1*
X6657267Y8571799D1*
X6642695D1*
X6631745Y8575506D1*
X6624417Y8582749D1*
X5441502Y8507983D2*
X5463318Y8456939D1*
X5456074Y8442368D1*
X5448746Y8435039D1*
X5441502Y8431418D1*
X5437796D1*
X5485218Y8507983D2*
X5463318Y8456939D1*
X5755068Y8164064D2*
X5714974Y8215108D1*
Y8164064D2*
X5755068Y8215108D1*
X5314561Y8564243D2*
X5285333Y8640809D1*
X5256190Y8564243D1*
X5267140Y8589765D2*
X5303611D1*
X5338091Y8640809D2*
X5389135Y8564243D1*
Y8640809D2*
X5338091Y8564243D1*
X5460002Y8640809D2*
X5412664D1*
Y8564243D1*
X5460002D1*
X5412664Y8604337D2*
X5441808D1*
X5483531Y8640809D2*
Y8564243D1*
X5527247D1*
X5550776D2*
X5601820Y8640724D1*
X5680015Y8622615D2*
X5676394Y8629859D1*
X5669065Y8637187D1*
X5661822Y8640809D1*
X5647250D1*
X5639922Y8637187D1*
X5632678Y8629859D1*
X5628972Y8622615D1*
X5625350Y8611665D1*
Y8593387D1*
X5628972Y8582521D1*
X5632678Y8575193D1*
X5639922Y8567949D1*
X5647250Y8564243D1*
X5661822D1*
X5669065Y8567949D1*
X5676394Y8575193D1*
X5680015Y8582521D1*
Y8593387D1*
X5661822D1*
X5703545Y8640809D2*
X5732689Y8604337D1*
Y8564243D1*
X5761833Y8640809D2*
X5732689Y8604337D1*
X5785362D2*
X5818128D1*
X5829078Y8608043D1*
X5832784Y8611665D1*
X5836406Y8618909D1*
Y8626237D1*
X5832784Y8633480D1*
X5829078Y8637187D1*
X5818128Y8640809D1*
X5785362D1*
Y8564243D1*
X5810884Y8604337D2*
X5836406Y8564243D1*
X5881835Y8640809D2*
X5874507Y8637187D1*
X5867263Y8629859D1*
X5863557Y8622615D1*
X5859935Y8611665D1*
Y8593387D1*
X5863557Y8582521D1*
X5867263Y8575193D1*
X5874507Y8567949D1*
X5881835Y8564243D1*
X5896407D1*
X5903651Y8567949D1*
X5910979Y8575193D1*
X5914601Y8582521D1*
X5918223Y8593387D1*
Y8611665D1*
X5914601Y8622615D1*
X5910979Y8629859D1*
X5903651Y8637187D1*
X5896407Y8640809D1*
X5881835D1*
X10017015Y3177577D2*
D183*
X10007357Y3187348D1*
X9992757Y3192177D1*
X9973328D1*
X9958728Y3187348D1*
X9948957Y3177577D1*
Y3167918D1*
X9953899Y3158148D1*
X9958728Y3153318D1*
X9968386Y3148489D1*
X9997586Y3138718D1*
X10007357Y3133889D1*
X10012186Y3128948D1*
X10017015Y3119289D1*
Y3104689D1*
X10007357Y3095031D1*
X9992757Y3090089D1*
X9973328D1*
X9958728Y3095031D1*
X9948957Y3104689D1*
X10126105Y3090089D2*
Y3192177D1*
X10087246Y3090089D1*
X10048388Y3192177D1*
Y3090089D1*
X10157477Y3192177D2*
Y3090089D1*
X10201277D1*
X10215877Y3095031D1*
X10220707Y3099860D1*
X10225536Y3109518D1*
Y3124118D1*
X10220707Y3133889D1*
X10215877Y3138718D1*
X10201277Y3143548D1*
X10215877Y3148489D1*
X10220707Y3153318D1*
X10225536Y3162977D1*
Y3172748D1*
X10220707Y3182406D1*
X10215877Y3187348D1*
X10201277Y3192177D1*
X10157477D1*
Y3143548D2*
X10201277D1*
X10329796Y3167918D2*
X10324967Y3177577D1*
X10315196Y3187348D1*
X10305538Y3192177D1*
X10286108D1*
X10276338Y3187348D1*
X10266679Y3177577D1*
X10261738Y3167918D1*
X10256908Y3153318D1*
Y3128948D1*
X10261738Y3114460D1*
X10266679Y3104689D1*
X10276338Y3095031D1*
X10286108Y3090089D1*
X10305538D1*
X10315196Y3095031D1*
X10324967Y3104689D1*
X10329796Y3114460D1*
X10017015Y2931197D2*
X10007357Y2940968D1*
X9992757Y2945797D1*
X9973328D1*
X9958728Y2940968D1*
X9948957Y2931197D1*
Y2921538D1*
X9953899Y2911768D1*
X9958728Y2906938D1*
X9968386Y2902109D1*
X9997586Y2892338D1*
X10007357Y2887509D1*
X10012186Y2882568D1*
X10017015Y2872909D1*
Y2858309D1*
X10007357Y2848651D1*
X9992757Y2843709D1*
X9973328D1*
X9958728Y2848651D1*
X9948957Y2858309D1*
X10126105Y2843709D2*
Y2945797D1*
X10087246Y2843709D1*
X10048388Y2945797D1*
Y2843709D1*
X10157477Y2945797D2*
Y2843709D1*
X10201277D1*
X10215877Y2848651D1*
X10220707Y2853480D1*
X10225536Y2863138D1*
Y2877738D1*
X10220707Y2887509D1*
X10215877Y2892338D1*
X10201277Y2897168D1*
X10215877Y2902109D1*
X10220707Y2906938D1*
X10225536Y2916597D1*
Y2926368D1*
X10220707Y2936026D1*
X10215877Y2940968D1*
X10201277Y2945797D1*
X10157477D1*
Y2897168D2*
X10201277D1*
X10256908Y2945797D2*
Y2843709D1*
X10290938D1*
X10305538Y2848651D1*
X10315308Y2858309D1*
X10320138Y2868080D1*
X10324967Y2882568D1*
Y2906938D1*
X10320138Y2921538D1*
X10315308Y2931197D1*
X10305538Y2940968D1*
X10290938Y2945797D1*
X10256908D1*
X10024385Y3404138D2*
X10019555Y3413797D1*
X10009785Y3423568D1*
X10000126Y3428397D1*
X9980697D1*
X9970926Y3423568D1*
X9961268Y3413797D1*
X9956326Y3404138D1*
X9951497Y3389538D1*
Y3365168D1*
X9956326Y3350680D1*
X9961268Y3340909D1*
X9970926Y3331251D1*
X9980697Y3326309D1*
X10000126D1*
X10009785Y3331251D1*
X10019555Y3340909D1*
X10024385Y3350680D1*
Y3365168D1*
X10000126D1*
X10123816Y3428397D2*
Y3326309D1*
X10055757Y3428397D1*
Y3326309D1*
X10155188Y3428397D2*
Y3326309D1*
X10189217D1*
X10203817Y3331251D1*
X10213588Y3340909D1*
X10218417Y3350680D1*
X10223247Y3365168D1*
Y3389538D1*
X10218417Y3404138D1*
X10213588Y3413797D1*
X10203817Y3423568D1*
X10189217Y3428397D1*
X10155188D1*
M02*
