G04 DipTrace 2.4.0.2*
%INBottom.gbr*%
%MOIN*%
%ADD13C,0.01*%
%ADD14C,0.025*%
%ADD17R,0.0669X0.0669*%
%ADD18C,0.0669*%
%ADD21C,0.02*%
%FSLAX44Y44*%
G04*
G70*
G90*
G75*
G01*
%LNBottom*%
%LPD*%
X8515Y10791D2*
D13*
X10033D1*
X10313Y10511D1*
X13780Y13380D2*
Y10084D1*
X12307Y10791D2*
X12587Y11071D1*
Y13380D1*
X10313Y10511D2*
X12011D1*
X12307Y10807D1*
Y10791D1*
X13316Y6651D2*
X15650Y8985D1*
Y10044D1*
X13316Y15210D2*
Y12651D1*
Y10224D1*
X13136Y10044D1*
X13316Y9864D1*
Y9210D1*
X18210Y10044D2*
X19200D1*
X15650D2*
X18210D1*
X13136D2*
X9210D1*
X6650D1*
X13086Y7780D2*
X15006Y9700D1*
Y11171D1*
X15650Y11816D1*
X18210D1*
X11544Y9210D2*
Y6651D1*
X6650Y11816D2*
X9210D1*
X10208Y12814D1*
Y13610D1*
X9530Y14430D2*
X11680D1*
X12980Y15730D1*
X13630D1*
X14180Y15180D1*
Y11182D1*
X14182Y11180D1*
D21*
D3*
X9530Y14430D3*
X13780Y10084D3*
Y13380D3*
X8515Y10791D3*
X12307D3*
X12587Y13380D3*
X10313Y10511D3*
X19200Y10044D3*
X13086Y7780D3*
X10208Y13610D3*
X6594Y17286D2*
D14*
X18267D1*
X6758Y17038D2*
X18103D1*
X6856Y16789D2*
X18005D1*
X6903Y16540D2*
X17958D1*
X6899Y16292D2*
X17962D1*
X6848Y16043D2*
X18013D1*
X6743Y15794D2*
X10919D1*
X12168D2*
X13157D1*
X13473D2*
X18114D1*
X4352Y15546D2*
X4538D1*
X6567D2*
X10919D1*
X12168D2*
X12794D1*
X13836D2*
X18290D1*
X20317D2*
X20509D1*
X4352Y15297D2*
X4841D1*
X6270D2*
X10919D1*
X12168D2*
X12697D1*
X13934D2*
X18591D1*
X20020D2*
X20509D1*
X4352Y15048D2*
X10919D1*
X12168D2*
X12712D1*
X13918D2*
X20509D1*
X4352Y14799D2*
X10919D1*
X12168D2*
X12853D1*
X13778D2*
X20509D1*
X4352Y14551D2*
X12978D1*
X13657D2*
X20509D1*
X4352Y14302D2*
X12978D1*
X13657D2*
X20509D1*
X4352Y14053D2*
X12978D1*
X13657D2*
X20509D1*
X4352Y13805D2*
X9872D1*
X10539D2*
X12978D1*
X13657D2*
X20509D1*
X4352Y13556D2*
X9822D1*
X10594D2*
X12243D1*
X14125D2*
X20509D1*
X4352Y13307D2*
X9868D1*
X10547D2*
X12204D1*
X14164D2*
X20509D1*
X4352Y13059D2*
X9868D1*
X10547D2*
X11079D1*
X12008D2*
X12247D1*
X14122D2*
X20509D1*
X4352Y12810D2*
X9732D1*
X10547D2*
X10943D1*
X14122D2*
X20509D1*
X4352Y12561D2*
X9486D1*
X10426D2*
X10927D1*
X14122D2*
X20509D1*
X4352Y12313D2*
X6290D1*
X7012D2*
X8583D1*
X10176D2*
X11025D1*
X12063D2*
X12247D1*
X14122D2*
X15290D1*
X16012D2*
X17583D1*
X18832D2*
X20509D1*
X4352Y12064D2*
X6079D1*
X9926D2*
X11396D1*
X11692D2*
X12247D1*
X14122D2*
X15079D1*
X18832D2*
X20509D1*
X4352Y11815D2*
X6025D1*
X9832D2*
X12247D1*
X14122D2*
X15025D1*
X18832D2*
X20509D1*
X4352Y11567D2*
X6079D1*
X9832D2*
X12247D1*
X14122D2*
X14931D1*
X18832D2*
X20509D1*
X4352Y11318D2*
X6290D1*
X7008D2*
X8583D1*
X9832D2*
X12247D1*
X14122D2*
X14700D1*
X16008D2*
X17583D1*
X18832D2*
X20509D1*
X4352Y11069D2*
X8255D1*
X10204D2*
X12044D1*
X14122D2*
X14665D1*
X15375D2*
X20509D1*
X4352Y10820D2*
X8126D1*
X14122D2*
X14665D1*
X15344D2*
X20509D1*
X4352Y10572D2*
X6341D1*
X6961D2*
X8197D1*
X14122D2*
X14665D1*
X15961D2*
X17900D1*
X18520D2*
X20509D1*
X4352Y10323D2*
X6095D1*
X14122D2*
X14665D1*
X19461D2*
X20509D1*
X4352Y10074D2*
X6029D1*
X14168D2*
X14665D1*
X19590D2*
X20509D1*
X4352Y9826D2*
X6068D1*
X14063D2*
X14661D1*
X19516D2*
X20509D1*
X4352Y9577D2*
X6251D1*
X7051D2*
X8810D1*
X9610D2*
X10919D1*
X12168D2*
X12818D1*
X13813D2*
X14411D1*
X16051D2*
X17810D1*
X18610D2*
X20509D1*
X4352Y9328D2*
X10919D1*
X12168D2*
X12704D1*
X13930D2*
X14165D1*
X15106D2*
X15310D1*
X15989D2*
X20509D1*
X4352Y9080D2*
X10919D1*
X12168D2*
X12704D1*
X14856D2*
X15275D1*
X15989D2*
X20509D1*
X4352Y8831D2*
X10919D1*
X12168D2*
X12825D1*
X14606D2*
X15025D1*
X15950D2*
X20509D1*
X4352Y8582D2*
X11204D1*
X11883D2*
X13419D1*
X14360D2*
X14779D1*
X15719D2*
X20509D1*
X4352Y8334D2*
X11204D1*
X11883D2*
X13169D1*
X14110D2*
X14529D1*
X15469D2*
X20509D1*
X4352Y8085D2*
X11204D1*
X11883D2*
X12861D1*
X13860D2*
X14279D1*
X15219D2*
X20509D1*
X4352Y7836D2*
X11204D1*
X11883D2*
X12700D1*
X13614D2*
X14032D1*
X14973D2*
X20509D1*
X4352Y7588D2*
X11204D1*
X11883D2*
X12751D1*
X13422D2*
X13782D1*
X14723D2*
X20509D1*
X4352Y7339D2*
X11204D1*
X11883D2*
X13532D1*
X14473D2*
X20509D1*
X4352Y7090D2*
X11111D1*
X11977D2*
X12884D1*
X14227D2*
X20509D1*
X4352Y6841D2*
X10950D1*
X12137D2*
X12724D1*
X13977D2*
X20509D1*
X4352Y6593D2*
X4892D1*
X6219D2*
X10923D1*
X12164D2*
X12693D1*
X13938D2*
X18642D1*
X19969D2*
X20509D1*
X4352Y6344D2*
X4568D1*
X6539D2*
X11005D1*
X12086D2*
X12775D1*
X13856D2*
X18318D1*
X20289D2*
X20509D1*
X6727Y6095D2*
X11294D1*
X11797D2*
X13064D1*
X13567D2*
X18134D1*
X6840Y5847D2*
X18021D1*
X6895Y5598D2*
X17966D1*
X6903Y5349D2*
X17958D1*
X6864Y5101D2*
X17997D1*
X6774Y4852D2*
X18087D1*
X6618Y4603D2*
X18243D1*
X6356Y4355D2*
X18505D1*
X6875Y16305D2*
X6829Y16060D1*
X6737Y15828D1*
X6603Y15617D1*
X6432Y15435D1*
X6230Y15288D1*
X6004Y15182D1*
X5763Y15120D1*
X5513Y15104D1*
X5266Y15136D1*
X5028Y15213D1*
X4810Y15333D1*
X4617Y15492D1*
X4458Y15684D1*
X4338Y15903D1*
X4325Y15936D1*
Y5923D1*
X4413Y6105D1*
X4560Y6307D1*
X4742Y6478D1*
X4953Y6612D1*
X5185Y6704D1*
X5430Y6750D1*
X5680D1*
X5925Y6704D1*
X6157Y6612D1*
X6368Y6478D1*
X6550Y6307D1*
X6697Y6105D1*
X6803Y5879D1*
X6865Y5638D1*
X6881Y5430D1*
X6858Y5182D1*
X6788Y4942D1*
X6675Y4719D1*
X6522Y4522D1*
X6335Y4357D1*
X6286Y4325D1*
X18573D1*
X18460Y4408D1*
X18283Y4585D1*
X18143Y4791D1*
X18044Y5020D1*
X17989Y5264D1*
X17981Y5513D1*
X18020Y5760D1*
X18105Y5995D1*
X18232Y6210D1*
X18397Y6397D1*
X18594Y6550D1*
X18817Y6663D1*
X19056Y6733D1*
X19305Y6756D1*
X19553Y6733D1*
X19793Y6663D1*
X20016Y6550D1*
X20213Y6397D1*
X20378Y6210D1*
X20505Y5995D1*
X20536Y5919D1*
X20535Y15718D1*
Y15933D1*
X20425Y15719D1*
X20272Y15522D1*
X20085Y15357D1*
X19870Y15230D1*
X19635Y15145D1*
X19388Y15106D1*
X19139Y15114D1*
X18895Y15169D1*
X18666Y15268D1*
X18460Y15408D1*
X18283Y15585D1*
X18143Y15791D1*
X18044Y16020D1*
X17989Y16264D1*
X17981Y16513D1*
X18020Y16760D1*
X18105Y16995D1*
X18232Y17210D1*
X18397Y17397D1*
X18572Y17534D1*
X6287Y17535D1*
X6463Y17397D1*
X6628Y17210D1*
X6755Y16995D1*
X6840Y16760D1*
X6879Y16513D1*
X6875Y16305D1*
X11070Y15809D2*
X12144D1*
Y14610D1*
X10945D1*
Y15809D1*
X11070D1*
X12904Y13086D2*
X13003Y13161D1*
X12902Y13130D1*
Y13087D1*
X12931Y13257D1*
X12902Y13207D1*
X13001Y13276D1*
X12999Y14703D1*
X12919Y14760D1*
X12835Y14851D1*
X12771Y14959D1*
X12731Y15077D1*
X12716Y15201D1*
X12727Y15325D1*
X12764Y15444D1*
X12825Y15553D1*
X12906Y15648D1*
X13006Y15723D1*
X13119Y15776D1*
X13240Y15804D1*
X13365Y15807D1*
X13488Y15784D1*
X13603Y15736D1*
X13706Y15665D1*
X13791Y15575D1*
X13857Y15468D1*
X13899Y15351D1*
X13915Y15210D1*
X13903Y15085D1*
X13864Y14967D1*
X13802Y14859D1*
X13719Y14766D1*
X13628Y14699D1*
X13631Y13713D1*
X13687Y13733D1*
X13810Y13744D1*
X13931Y13713D1*
X14034Y13643D1*
X14107Y13542D1*
X14143Y13423D1*
X14145Y13380D1*
X14124Y13257D1*
X14096Y13207D1*
X14095Y10267D1*
X14143Y10127D1*
X14145Y10084D1*
X14124Y9962D1*
X14063Y9853D1*
X13969Y9772D1*
X13853Y9727D1*
X13729Y9723D1*
X13629Y9755D1*
X13631Y9720D1*
X13706Y9665D1*
X13791Y9575D1*
X13857Y9468D1*
X13899Y9351D1*
X13915Y9210D1*
X13903Y9085D1*
X13882Y9022D1*
X14689Y9829D1*
X14691Y11171D1*
X14715Y11293D1*
X14783Y11394D1*
X15066Y11683D1*
X15051Y11807D1*
X15062Y11931D1*
X15099Y12051D1*
X15159Y12160D1*
X15241Y12254D1*
X15341Y12329D1*
X15453Y12382D1*
X15575Y12411D1*
X15700Y12413D1*
X15822Y12390D1*
X15937Y12342D1*
X16040Y12272D1*
X16126Y12181D1*
X16157Y12131D1*
X17608D1*
X17610Y12416D1*
X18809D1*
Y11216D1*
X17610D1*
Y11501D1*
X16159D1*
X16053Y11372D1*
X15953Y11298D1*
X15839Y11247D1*
X15717Y11220D1*
X15593Y11219D1*
X15512Y11235D1*
X15318Y11038D1*
X15321Y10542D1*
X15453Y10611D1*
X15575Y10639D1*
X15700Y10642D1*
X15822Y10619D1*
X15937Y10571D1*
X16040Y10500D1*
X16126Y10409D1*
X16157Y10360D1*
X17701Y10359D1*
X17800Y10482D1*
X17900Y10558D1*
X18013Y10611D1*
X18134Y10639D1*
X18259Y10642D1*
X18381Y10619D1*
X18497Y10571D1*
X18599Y10500D1*
X18685Y10409D1*
X18716Y10360D1*
X19018Y10359D1*
X19106Y10397D1*
X19230Y10408D1*
X19350Y10377D1*
X19453Y10307D1*
X19527Y10207D1*
X19562Y10087D1*
X19565Y10044D1*
X19544Y9922D1*
X19483Y9813D1*
X19389Y9732D1*
X19273Y9687D1*
X19149Y9683D1*
X19021Y9728D1*
X18720Y9729D1*
X18613Y9600D1*
X18512Y9526D1*
X18398Y9475D1*
X18276Y9448D1*
X18152Y9447D1*
X18029Y9472D1*
X17915Y9522D1*
X17813Y9594D1*
X17729Y9686D1*
X17703Y9730D1*
X16159Y9729D1*
X16053Y9600D1*
X15962Y9533D1*
X15965Y8985D1*
X15941Y8863D1*
X15873Y8762D1*
X13898Y6787D1*
X13915Y6651D1*
X13903Y6526D1*
X13864Y6408D1*
X13802Y6299D1*
X13719Y6206D1*
X13618Y6133D1*
X13505Y6081D1*
X13383Y6055D1*
X13258Y6054D1*
X13136Y6079D1*
X13021Y6128D1*
X12919Y6201D1*
X12835Y6292D1*
X12771Y6400D1*
X12731Y6518D1*
X12716Y6642D1*
X12727Y6766D1*
X12764Y6885D1*
X12825Y6994D1*
X12906Y7089D1*
X13006Y7164D1*
X13119Y7217D1*
X13240Y7245D1*
X13365Y7248D1*
X13453Y7232D1*
X15333Y9113D1*
X15335Y9536D1*
X15229Y9477D1*
X13441Y7690D1*
X13369Y7549D1*
X13275Y7468D1*
X13159Y7422D1*
X13034Y7419D1*
X12916Y7457D1*
X12817Y7533D1*
X12750Y7637D1*
X12721Y7758D1*
X12735Y7882D1*
X12790Y7994D1*
X12879Y8081D1*
X12996Y8133D1*
X13501Y8641D1*
X13383Y8614D1*
X13258Y8613D1*
X13136Y8638D1*
X13021Y8687D1*
X12919Y8760D1*
X12835Y8851D1*
X12771Y8959D1*
X12731Y9077D1*
X12716Y9201D1*
X12727Y9325D1*
X12764Y9444D1*
X12825Y9553D1*
X12906Y9648D1*
X13003Y9721D1*
X12761Y9729D1*
X12148D1*
X12144Y9309D1*
Y8610D1*
X11859D1*
Y7159D1*
X11934Y7106D1*
X12020Y7016D1*
X12085Y6909D1*
X12127Y6792D1*
X12144Y6651D1*
X12131Y6526D1*
X12092Y6408D1*
X12030Y6299D1*
X11947Y6206D1*
X11847Y6133D1*
X11733Y6081D1*
X11611Y6055D1*
X11486Y6054D1*
X11364Y6079D1*
X11250Y6128D1*
X11148Y6201D1*
X11063Y6292D1*
X11000Y6400D1*
X10959Y6518D1*
X10945Y6642D1*
X10956Y6766D1*
X10992Y6885D1*
X11053Y6994D1*
X11135Y7089D1*
X11231Y7161D1*
X11229Y8608D1*
X10945Y8610D1*
Y9731D1*
X9718Y9729D1*
X9613Y9600D1*
X9512Y9526D1*
X9398Y9475D1*
X9276Y9448D1*
X9152Y9447D1*
X9029Y9472D1*
X8915Y9522D1*
X8813Y9594D1*
X8729Y9686D1*
X8703Y9730D1*
X7159Y9729D1*
X7053Y9600D1*
X6953Y9526D1*
X6839Y9475D1*
X6717Y9448D1*
X6593Y9447D1*
X6470Y9472D1*
X6356Y9522D1*
X6254Y9594D1*
X6170Y9686D1*
X6106Y9793D1*
X6066Y9911D1*
X6051Y10035D1*
X6062Y10160D1*
X6099Y10279D1*
X6159Y10388D1*
X6241Y10482D1*
X6341Y10558D1*
X6453Y10611D1*
X6575Y10639D1*
X6700Y10642D1*
X6822Y10619D1*
X6937Y10571D1*
X7040Y10500D1*
X7126Y10409D1*
X7157Y10360D1*
X8701Y10359D1*
X8792Y10473D1*
X8701Y10476D1*
X8588Y10433D1*
X8463Y10429D1*
X8345Y10468D1*
X8246Y10543D1*
X8179Y10648D1*
X8151Y10769D1*
X8164Y10893D1*
X8219Y11004D1*
X8308Y11091D1*
X8421Y11143D1*
X8545Y11155D1*
X8665Y11123D1*
X8694Y11104D1*
X10033Y11106D1*
X10155Y11081D1*
X10256Y11013D1*
X10408Y10862D1*
X10492Y10824D1*
X11880Y10826D1*
X11965Y10910D1*
X12011Y11004D1*
X12100Y11091D1*
X12217Y11144D1*
X12275Y11204D1*
X12272Y12696D1*
Y13200D1*
X12251Y13237D1*
X12223Y13358D1*
X12236Y13482D1*
X12291Y13594D1*
X12380Y13681D1*
X12493Y13733D1*
X12617Y13744D1*
X12737Y13713D1*
X12840Y13643D1*
X12914Y13542D1*
X12949Y13423D1*
X12952Y13380D1*
X12931Y13257D1*
X12131Y12526D2*
X12092Y12408D1*
X12030Y12299D1*
X11947Y12206D1*
X11847Y12133D1*
X11733Y12081D1*
X11611Y12055D1*
X11486Y12054D1*
X11364Y12079D1*
X11250Y12128D1*
X11148Y12201D1*
X11063Y12292D1*
X11000Y12400D1*
X10959Y12518D1*
X10945Y12642D1*
X10956Y12766D1*
X10992Y12885D1*
X11053Y12994D1*
X11135Y13089D1*
X11234Y13164D1*
X11347Y13217D1*
X11469Y13245D1*
X11593Y13248D1*
X11716Y13225D1*
X11831Y13177D1*
X11934Y13106D1*
X12020Y13016D1*
X12085Y12909D1*
X12127Y12792D1*
X12144Y12651D1*
X12131Y12526D1*
X8735Y12416D2*
X9364D1*
X9890Y12942D1*
X9893Y13427D1*
X9872Y13467D1*
X9843Y13588D1*
X9857Y13712D1*
X9912Y13824D1*
X10001Y13911D1*
X10114Y13963D1*
X10237Y13974D1*
X10358Y13943D1*
X10461Y13873D1*
X10534Y13772D1*
X10570Y13653D1*
X10573Y13610D1*
X10551Y13487D1*
X10523Y13437D1*
Y12814D1*
X10498Y12692D1*
X10430Y12591D1*
X9809Y11970D1*
Y11216D1*
X8610D1*
Y11501D1*
X7159D1*
X7053Y11372D1*
X6953Y11298D1*
X6839Y11247D1*
X6717Y11220D1*
X6593Y11219D1*
X6470Y11244D1*
X6356Y11294D1*
X6254Y11366D1*
X6170Y11458D1*
X6106Y11565D1*
X6066Y11683D1*
X6051Y11807D1*
X6062Y11931D1*
X6099Y12051D1*
X6159Y12160D1*
X6241Y12254D1*
X6341Y12329D1*
X6453Y12382D1*
X6575Y12411D1*
X6700Y12413D1*
X6822Y12390D1*
X6937Y12342D1*
X7040Y12272D1*
X7126Y12181D1*
X7157Y12131D1*
X8608D1*
X8610Y12416D1*
X8735D1*
D17*
X11544Y15210D3*
D18*
X13316D3*
Y12651D3*
X11544D3*
D17*
X9210Y11816D3*
D18*
Y10044D3*
X6650D3*
Y11816D3*
D17*
X11544Y9210D3*
D18*
X13316D3*
Y6651D3*
X11544D3*
D17*
X18210Y11816D3*
D18*
Y10044D3*
X15650D3*
Y11816D3*
M02*
