G04 DipTrace 2.4.0.2*
%INTopMask.gbr*%
%MOIN*%
%ADD23C,0.11*%
%ADD27R,0.067X0.0986*%
%ADD29R,0.0356X0.138*%
%ADD31C,0.0749*%
%ADD33R,0.0749X0.0749*%
%ADD35R,0.0275X0.022*%
%ADD37R,0.0474X0.0513*%
%FSLAX44Y44*%
G04*
G70*
G90*
G75*
G01*
%LNTopMask*%
%LPD*%
D37*
X11930Y11180D3*
Y10511D3*
X11180Y11180D3*
Y10511D3*
X13055Y11180D3*
Y10511D3*
X13805Y11180D3*
Y10511D3*
D23*
X5555Y16430D3*
X19305Y5430D3*
Y16430D3*
X5555Y5430D3*
G36*
X15095Y15639D2*
X15346Y15890D1*
X16015Y15221D1*
X15764Y14970D1*
X15095Y15639D1*
G37*
G36*
X14246Y14790D2*
X14498Y15042D1*
X15167Y14373D1*
X14915Y14121D1*
X14246Y14790D1*
G37*
G36*
X14671Y15215D2*
X14922Y15466D1*
X15591Y14797D1*
X15340Y14546D1*
X14671Y15215D1*
G37*
G36*
X16926Y15523D2*
X17287Y15883D1*
X17983Y15187D1*
X17623Y14826D1*
X16926Y15523D1*
G37*
G36*
X14677Y13274D2*
X15038Y13635D1*
X15735Y12938D1*
X15374Y12577D1*
X14677Y13274D1*
G37*
G36*
X15519Y16063D2*
X15770Y16315D1*
X16440Y15646D1*
X16188Y15394D1*
X15519Y16063D1*
G37*
D35*
X9555Y7580D3*
Y7980D3*
Y8180D3*
Y7780D3*
X9955Y8180D3*
Y7980D3*
Y7780D3*
Y7580D3*
X9530Y13580D3*
Y13980D3*
Y14180D3*
Y13780D3*
X9930Y14180D3*
Y13980D3*
Y13780D3*
Y13580D3*
D33*
X11544Y15210D3*
D31*
X13316D3*
Y12651D3*
X11544D3*
D33*
X9210Y11816D3*
D31*
Y10044D3*
X6650D3*
Y11816D3*
D33*
X11544Y9210D3*
D31*
X13316D3*
Y6651D3*
X11544D3*
D33*
X18210Y11816D3*
D31*
Y10044D3*
X15650D3*
Y11816D3*
D29*
X17430Y8430D3*
X16830D3*
D27*
X20000Y7690D3*
X14260D3*
D29*
X16240Y8430D3*
X15650D3*
X15060D3*
X18020D3*
X18610D3*
X19200D3*
M02*
