M48
INCH
T01C0.012
T02C0.0394
T03C0.11
%
T01
X+014182Y+011180
X+013780Y+010084
X+012307Y+010791
X+010313Y+010511
X+008515Y+010791
X+010208Y+013610
X+009530Y+014430
X+012587Y+013380
X+013780Y+013380
X+013086Y+007780
X+019200Y+010044
T02
X+011544Y+015210
X+013316Y+015210
X+013316Y+012651
X+011544Y+012651
X+009210Y+011816
X+009210Y+010044
X+011544Y+009210
X+013316Y+009210
X+015650Y+010044
X+015650Y+011816
X+018210Y+011816
X+018210Y+010044
X+013316Y+006651
X+011544Y+006651
X+006650Y+010044
X+006650Y+011816
T03
X+005555Y+016430
X+005555Y+005430
X+019305Y+005430
X+019305Y+016430
T00
M30
