G04 DipTrace 3.0.0.2*
G04 BottomSilk.gbr*
%MOIN*%
G04 #@! TF.FileFunction,Legend,Bot*
G04 #@! TF.Part,Single*
%ADD10C,0.009843*%
%ADD32C,0.015404*%
%FSLAX26Y26*%
G04*
G70*
G90*
G75*
G01*
G04 BotSilk*
%LPD*%
X434498Y1826396D2*
D10*
X534488D1*
X434498D2*
Y2426402D1*
X534488D1*
X718490D2*
X836472D1*
X718490Y1826396D2*
X836472D1*
X837233D2*
Y1889397D1*
Y2363401D2*
Y2426402D1*
D32*
X1464351Y742069D3*
X1455151Y792211D2*
D10*
X1337046D1*
Y811897D1*
X1455151D1*
Y792211D1*
D32*
X1702653Y690238D3*
X1711854Y640096D2*
D10*
X1829959D1*
Y620411D1*
X1711854D1*
Y640096D1*
D32*
X1702653Y865238D3*
X1711854Y815096D2*
D10*
X1829959D1*
Y795411D1*
X1711854D1*
Y815096D1*
D32*
X1515153Y690238D3*
X1524354Y640096D2*
D10*
X1642459D1*
Y620411D1*
X1524354D1*
Y640096D1*
D32*
X1327653Y690238D3*
X1336854Y640096D2*
D10*
X1454959D1*
Y620411D1*
X1336854D1*
Y640096D1*
D32*
X1515153Y865238D3*
X1524354Y815096D2*
D10*
X1642459D1*
Y795411D1*
X1524354D1*
Y815096D1*
X2022255Y689279D2*
X2034750D1*
Y601779D1*
X2022255D1*
Y689279D1*
X2033250Y924279D2*
X2020755D1*
Y1011779D1*
X2033250D1*
Y924279D1*
X2022255Y851779D2*
X2034750D1*
Y764279D1*
X2022255D1*
Y851779D1*
X2351143Y1518282D2*
X2376147D1*
Y1170277D1*
X2357148D1*
X2257133D2*
X2139155D1*
X2257133Y1518282D2*
X2139155D1*
X2138398D2*
Y1455293D1*
Y1233266D2*
Y1170277D1*
X455484Y532705D2*
X430480D1*
Y880710D1*
X449479D1*
X549493D2*
X667472D1*
X549493Y532705D2*
X667472D1*
X668229D2*
Y595694D1*
Y817721D2*
Y880710D1*
M02*
