G04 DipTrace 3.0.0.2*
G04 BottomMask.gbr*
%MOIN*%
G04 #@! TF.FileFunction,Soldermask,Bot*
G04 #@! TF.Part,Single*
%AMOUTLINE0*5,1,8,0,0,0.066,-22.49998*%
%AMOUTLINE1*5,1,8,0,0,0.066,-262.500516*%
%AMOUTLINE2*5,1,8,0,0,0.066001,-232.500313*%
%AMOUTLINE3*5,1,8,0,0,0.066,7.499484*%
%AMOUTLINE4*5,1,8,0,0,0.066,-112.49998*%
%AMOUTLINE5*5,1,8,0,0,0.066,-202.49998*%
%AMOUTLINE6*5,1,8,0,0,0.066001,37.499687*%
%AMOUTLINE7*5,1,8,0,0,0.066,-82.500516*%
%AMOUTLINE8*5,1,8,0,0,0.066,-172.500516*%
%AMOUTLINE9*5,1,8,0,0,0.066,67.50002*%
%AMOUTLINE10*5,1,8,0,0,0.066001,-52.500313*%
%AMOUTLINE11*5,1,8,0,0,0.066001,-142.500313*%
%ADD46C,0.11*%
%ADD56R,0.070992X0.070992*%
%ADD58C,0.070992*%
%ADD64R,0.098551X0.051*%
%ADD66R,0.094614X0.035559*%
%ADD68R,0.0275X0.022*%
%ADD72R,0.033591X0.049339*%
%ADD74R,0.158X0.158*%
%ADD76C,0.067055*%
%ADD78R,0.067055X0.067055*%
%ADD80O,0.059181X0.04737*%
%ADD82R,0.059181X0.04737*%
%ADD84C,0.074929*%
%ADD86R,0.074929X0.074929*%
%ADD88R,0.308X0.278*%
%ADD90R,0.161543X0.078866*%
%ADD92R,0.185165X0.059181*%
%ADD98OUTLINE0*%
%ADD99OUTLINE1*%
%ADD100OUTLINE2*%
%ADD101OUTLINE3*%
%ADD102OUTLINE4*%
%ADD103OUTLINE5*%
%ADD104OUTLINE6*%
%ADD105OUTLINE7*%
%ADD106OUTLINE8*%
%ADD107OUTLINE9*%
%ADD108OUTLINE10*%
%ADD109OUTLINE11*%
%FSLAX26Y26*%
G04*
G70*
G90*
G75*
G01*
G04 BotMask*
%LPD*%
D92*
X793498Y2175614D3*
Y1978402D3*
Y2077402D3*
D90*
X522782Y2365402D3*
Y1887402D3*
D92*
X793498Y2274039D3*
D88*
X1996002Y2729029D3*
Y3049029D3*
D86*
X1595002Y2001029D3*
D84*
X1695002D3*
X1595002Y1901029D3*
X1695002D3*
X1595002Y1801029D3*
X1695002D3*
D86*
X1295002Y2051029D3*
D84*
X1395002D3*
X1295002Y1951029D3*
X1395002D3*
X1295002Y1851029D3*
X1395002D3*
X1295002Y1751029D3*
X1395002D3*
D86*
X1895298Y2001034D3*
D84*
X1995298D3*
X2095298D3*
X2195298D3*
D86*
X1895034Y1901284D3*
D84*
X1995034D3*
X2095034D3*
X2195034D3*
D86*
X1895034Y1801273D3*
D84*
X1995034D3*
X2095034D3*
X2195034D3*
D86*
X1195002Y2051029D3*
D84*
Y1951029D3*
Y1851029D3*
D86*
X2006382Y1409185D3*
D84*
Y1309185D3*
Y1209185D3*
Y1109185D3*
D86*
X1906371Y1409185D3*
D84*
Y1309185D3*
Y1209185D3*
Y1109185D3*
D86*
X1806106Y1408912D3*
D84*
Y1308912D3*
Y1208912D3*
Y1108912D3*
D82*
X1110002Y1257029D3*
D80*
Y1307029D3*
Y1357029D3*
Y1407029D3*
Y1457029D3*
D78*
X2316278Y732919D3*
D76*
Y811659D3*
Y890399D3*
Y969139D3*
X2237538D3*
Y890399D3*
Y811659D3*
Y732919D3*
D74*
X771624Y1213898D3*
X973002Y1214029D3*
D72*
X1433502Y756778D3*
X1358699D3*
X1396101Y847330D3*
X1733502Y675529D3*
X1808305D3*
X1770904Y584978D3*
X1733502Y850529D3*
X1808305D3*
X1770904Y759978D3*
X1546002Y675529D3*
X1620805D3*
X1583404Y584978D3*
X1358502Y675529D3*
X1433305D3*
X1395904Y584978D3*
X1546002Y850529D3*
X1620805D3*
X1583404Y759978D3*
D68*
X2008502Y675529D3*
Y635529D3*
Y615529D3*
Y655529D3*
X2048502Y615529D3*
Y635529D3*
Y655529D3*
Y675529D3*
X2047002Y938029D3*
Y978029D3*
Y998029D3*
Y958029D3*
X2007002Y998029D3*
Y978029D3*
Y958029D3*
Y938029D3*
X2008502Y838029D3*
Y798029D3*
Y778029D3*
Y818029D3*
X2048502Y778029D3*
Y798029D3*
Y818029D3*
Y838029D3*
D66*
X2167147Y1344277D3*
Y1404277D3*
D64*
X2307147Y1215277D3*
Y1473277D3*
D66*
X2167147Y1284277D3*
X639480Y706710D3*
Y646710D3*
D64*
X499480Y835710D3*
Y577710D3*
D66*
X639480Y766710D3*
D98*
X823002Y963029D3*
X923002D3*
D99*
X1244468Y1519728D3*
X1194468Y1606331D3*
D100*
X1116304Y1684378D3*
X1029700Y1734378D3*
D101*
X1029702Y991564D3*
X1116304Y1041564D3*
D102*
X473002Y1413029D3*
Y1313029D3*
D103*
X923002Y1763029D3*
X823002D3*
D104*
X1194351Y1119728D3*
X1244351Y1206331D3*
D105*
X501537Y1206330D3*
X551537Y1119727D3*
D106*
X716303Y1734494D3*
X629700Y1684494D3*
D107*
X1273002Y1313029D3*
Y1413029D3*
D108*
X629701Y1041680D3*
X716305Y991680D3*
D109*
X551653Y1606330D3*
X501653Y1519727D3*
D86*
X1506502Y1508780D3*
D84*
X1606502D3*
X1506502Y1408780D3*
X1606502D3*
X1506502Y1308780D3*
X1606502D3*
X1506502Y1208780D3*
X1606502D3*
D86*
X1607002Y1009029D3*
D84*
X1507002D3*
X1607002Y1109029D3*
X1507002D3*
D58*
X972002Y1496029D3*
D56*
X772002D3*
D46*
X2267002Y556029D3*
Y2170029D3*
Y3067530D3*
X877002Y556029D3*
M02*
